<?xml version="1.0" encoding="UTF-8"?>
<svg id="Layer_1" data-name="Layer 1" xmlns="http://www.w3.org/2000/svg" width="1000" height="800" xmlns:xlink="http://www.w3.org/1999/xlink" viewBox="0 0 1000 800">
  <defs>
    <clipPath id="clippath">
      <rect x="120" width="880" height="700" style="fill: none;"/>
    </clipPath>
    <clipPath id="clippath-1">
      <rect x="736" y="405" width="221" height="225" style="fill: none;"/>
    </clipPath>
    <clipPath id="clippath-2">
      <rect x="741.53" y="456.8" width="160.77" height="2.42" style="fill: none;"/>
    </clipPath>
    <clipPath id="clippath-3">
      <rect x="850.24" y="526.62" width="71.95" height="22.71" style="fill: none;"/>
    </clipPath>
    <clipPath id="clippath-4">
      <rect x="850.33" y="568.62" width="71.86" height="22.71" style="fill: none;"/>
    </clipPath>
  </defs>
  <polyline points="0 0 1000 0 1000 800 0 800 0 0" style="fill: #fff;"/>
  <polyline points="244.44 0 244.44 700 245.44 700 245.44 0" style="fill: #eee;"/>
  <polyline points="341.41 0 341.41 700 342.41 700 342.41 0" style="fill: #eee;"/>
  <polyline points="438.37 0 438.37 700 439.37 700 439.37 0" style="fill: #eee;"/>
  <polyline points="535.33 0 535.33 700 536.33 700 536.33 0" style="fill: #eee;"/>
  <polyline points="632.29 0 632.29 700 633.29 700 633.29 0" style="fill: #eee;"/>
  <polyline points="729.25 0 729.25 700 730.25 700 730.25 0" style="fill: #eee;"/>
  <polyline points="826.21 0 826.21 700 827.21 700 827.21 0 826.21 0" style="fill: #eee;"/>
  <polyline points="923.17 0 923.17 700 924.17 700 924.17 0" style="fill: #eee;"/>
  <polyline points="120 630.4 1000 630.4 1000 629.4 120 629.4" style="fill: #eee;"/>
  <polyline points="120 536.23 1000 536.23 1000 535.23 120 535.23 120 536.23" style="fill: #eee;"/>
  <polyline points="120 442.05 1000 442.05 1000 441.05 120 441.05" style="fill: #eee;"/>
  <polyline points="120 347.88 1000 347.88 1000 346.88 120 346.88" style="fill: #eee;"/>
  <polyline points="120 253.71 1000 253.71 1000 252.71 120 252.71" style="fill: #eee;"/>
  <polyline points="120 159.53 1000 159.53 1000 158.53 120 158.53" style="fill: #eee;"/>
  <polyline points="120 65.36 1000 65.36 1000 64.36 120 64.36" style="fill: #eee;"/>
  <polyline points="147.48 0 147.48 700 148.48 700 148.48 0" style="fill: #444;"/>
  <g style="clip-path: url(#clippath);">
    <g>
      <circle cx="231.28" cy="598.76" r="4" style="fill: #636efa;"/>
      <circle cx="315.58" cy="511.6" r="4" style="fill: #636efa;"/>
      <circle cx="539.7" cy="268.98" r="4" style="fill: #636efa;"/>
      <circle cx="743.28" cy="170.03" r="4" style="fill: #636efa;"/>
      <circle cx="178.08" cy="657.32" r="4" style="fill: #ef553b;"/>
      <circle cx="222.92" cy="574.27" r="4" style="fill: #ef553b;"/>
      <circle cx="287.72" cy="407.82" r="4" style="fill: #ef553b;"/>
      <circle cx="392.09" cy="258.76" r="4" style="fill: #ef553b;"/>
      <circle cx="611.01" cy="150.25" r="4" style="fill: #ef553b;"/>
      <circle cx="849.14" cy="115.46" r="4" style="fill: #ef553b;"/>
      <circle cx="169" cy="660" r="4" style="fill: #00cc96;"/>
      <circle cx="188.27" cy="621.32" r="4" style="fill: #00cc96;"/>
      <circle cx="233.04" cy="445.77" r="4" style="fill: #00cc96;"/>
      <circle cx="247.33" cy="399.83" r="4" style="fill: #00cc96;"/>
      <circle cx="308.98" cy="322.42" r="4" style="fill: #00cc96;"/>
      <circle cx="414.54" cy="230.91" r="4" style="fill: #00cc96;"/>
      <circle cx="525.36" cy="165.51" r="4" style="fill: #00cc96;"/>
      <circle cx="688.81" cy="63.55" r="4" style="fill: #00cc96;"/>
      <circle cx="829.47" cy="40" r="4" style="fill: #00cc96;"/>
      <polygon points="232.72 600.15 317.03 512.97 540.91 270.61 744.15 171.83 742.41 168.23 538.49 267.35 314.13 510.23 229.84 597.37 232.72 600.15" style="fill: #636efa;"/>
      <polygon points="179.84 658.27 224.74 575.11 289.5 408.77 393.44 260.33 611.61 152.18 849.43 117.44 848.85 113.48 610.41 148.32 390.74 257.19 285.94 406.87 221.1 573.43 176.32 656.37 179.84 658.27" style="fill: #ef553b;"/>
      <polygon points="170.79 660.89 190.16 622.02 234.97 446.31 249.13 400.78 310.43 323.81 415.71 232.54 526.4 167.22 689.53 65.46 829.8 41.97 829.14 38.03 688.09 61.64 524.32 163.8 413.37 229.28 307.53 321.03 245.53 398.88 231.11 445.23 186.38 620.62 167.21 659.11 170.79 660.89" style="fill: #00cc96;"/>
    </g>
  </g>
  <path d="M155.54,720.09c0,3.92-.61,6.79-1.84,8.62s-3.13,2.75-5.71,2.75-4.53-.93-5.73-2.78c-1.21-1.86-1.81-4.71-1.81-8.55s.61-6.74,1.83-8.59,3.12-2.78,5.71-2.78,4.53.94,5.73,2.82c1.21,1.88,1.81,4.72,1.81,8.52h0ZM151.69,726.74c.34-.79.57-1.72.7-2.79.12-1.07.18-2.36.18-3.86s-.06-2.77-.18-3.87-.36-2.02-.71-2.78c-.34-.75-.81-1.32-1.4-1.7s-1.35-.57-2.28-.57-1.68.19-2.28.57-1.08.96-1.43,1.73c-.33.72-.56,1.67-.68,2.83-.12,1.16-.18,2.44-.18,3.82,0,1.52.05,2.8.16,3.82s.34,1.94.69,2.75c.32.76.78,1.34,1.37,1.74s1.38.6,2.35.6c.92,0,1.68-.19,2.29-.57s1.07-.96,1.41-1.73h-.01Z" style="fill: #444;"/>
  <g>
    <path d="M227.97,720.09c0,3.92-.61,6.79-1.84,8.62s-3.13,2.75-5.71,2.75-4.53-.93-5.73-2.78c-1.21-1.86-1.81-4.71-1.81-8.55s.61-6.74,1.83-8.59,3.12-2.78,5.71-2.78,4.53.94,5.73,2.82c1.21,1.88,1.81,4.72,1.81,8.52h0ZM224.12,726.74c.34-.79.57-1.72.7-2.79.12-1.07.18-2.36.18-3.86s-.06-2.77-.18-3.87-.36-2.02-.71-2.78c-.34-.75-.81-1.32-1.4-1.7s-1.35-.57-2.28-.57-1.68.19-2.28.57-1.08.96-1.43,1.73c-.33.72-.56,1.67-.68,2.83-.12,1.16-.18,2.44-.18,3.82,0,1.52.05,2.8.16,3.82s.34,1.94.69,2.75c.32.76.78,1.34,1.37,1.74s1.38.6,2.35.6c.92,0,1.68-.19,2.29-.57s1.07-.96,1.41-1.73h-.01Z" style="fill: #444;"/>
    <path d="M237.15,731h-3.5v-4.17h3.5v4.17Z" style="fill: #444;"/>
    <path d="M257.96,720.09c0,3.92-.61,6.79-1.84,8.62-1.23,1.83-3.13,2.75-5.71,2.75s-4.53-.93-5.73-2.78c-1.21-1.86-1.81-4.71-1.81-8.55s.61-6.74,1.83-8.59,3.12-2.78,5.71-2.78,4.53.94,5.73,2.82c1.21,1.88,1.81,4.72,1.81,8.52h0ZM254.1,726.74c.34-.79.57-1.72.7-2.79.12-1.07.18-2.36.18-3.86s-.06-2.77-.18-3.87-.36-2.02-.71-2.78c-.34-.75-.81-1.32-1.4-1.7s-1.35-.57-2.28-.57-1.68.19-2.28.57-1.08.96-1.43,1.73c-.33.72-.56,1.67-.68,2.83-.12,1.16-.18,2.44-.18,3.82,0,1.52.05,2.8.16,3.82s.34,1.94.69,2.75c.32.76.78,1.34,1.37,1.74s1.38.6,2.35.6c.92,0,1.68-.19,2.29-.57s1.07-.96,1.41-1.73h-.01Z" style="fill: #444;"/>
    <path d="M275.81,731h-11.81v-2.23h4.54v-14.62h-4.54v-1.99c.62,0,1.27-.05,1.98-.15.7-.1,1.24-.25,1.6-.45.45-.24.8-.55,1.06-.93s.41-.88.45-1.52h2.27v19.66h4.45v2.23h0Z" style="fill: #444;"/>
  </g>
  <g>
    <path d="M324.94,720.09c0,3.92-.61,6.79-1.84,8.62s-3.13,2.75-5.71,2.75-4.53-.93-5.73-2.78c-1.21-1.86-1.81-4.71-1.81-8.55s.61-6.74,1.83-8.59,3.12-2.78,5.71-2.78,4.53.94,5.73,2.82c1.21,1.88,1.81,4.72,1.81,8.52h.01ZM321.09,726.74c.34-.79.57-1.72.7-2.79.12-1.07.18-2.36.18-3.86s-.06-2.77-.18-3.87-.36-2.02-.71-2.78c-.34-.75-.81-1.32-1.4-1.7s-1.35-.57-2.28-.57-1.68.19-2.28.57-1.08.96-1.43,1.73c-.33.72-.56,1.67-.68,2.83-.12,1.16-.18,2.44-.18,3.82,0,1.52.05,2.8.16,3.82s.34,1.94.69,2.75c.32.76.78,1.34,1.37,1.74s1.38.6,2.35.6c.92,0,1.68-.19,2.29-.57s1.07-.96,1.41-1.73h-.01Z" style="fill: #444;"/>
    <path d="M334.12,731h-3.5v-4.17h3.5v4.17Z" style="fill: #444;"/>
    <path d="M354.93,720.09c0,3.92-.61,6.79-1.84,8.62s-3.13,2.75-5.71,2.75-4.53-.93-5.73-2.78c-1.21-1.86-1.81-4.71-1.81-8.55s.61-6.74,1.83-8.59,3.12-2.78,5.71-2.78,4.53.94,5.73,2.82c1.21,1.88,1.81,4.72,1.81,8.52h.01ZM351.07,726.74c.34-.79.57-1.72.7-2.79.12-1.07.18-2.36.18-3.86s-.06-2.77-.18-3.87-.36-2.02-.71-2.78c-.34-.75-.81-1.32-1.4-1.7s-1.35-.57-2.28-.57-1.68.19-2.28.57-1.08.96-1.43,1.73c-.33.72-.56,1.67-.68,2.83-.12,1.16-.18,2.44-.18,3.82,0,1.52.05,2.8.16,3.82s.34,1.94.69,2.75c.32.76.78,1.34,1.37,1.74s1.38.6,2.35.6c.92,0,1.68-.19,2.29-.57s1.07-.96,1.41-1.73h-.01Z" style="fill: #444;"/>
    <path d="M374.03,731h-14.77v-3.06c1.03-.88,2.05-1.76,3.08-2.64s1.99-1.75,2.88-2.62c1.88-1.82,3.16-3.26,3.85-4.33s1.04-2.22,1.04-3.46c0-1.13-.37-2.02-1.12-2.66-.75-.64-1.79-.96-3.13-.96-.89,0-1.85.16-2.89.47s-2.05.79-3.03,1.44h-.15v-3.08c.69-.34,1.62-.65,2.78-.94,1.16-.28,2.28-.42,3.36-.42,2.24,0,3.99.54,5.26,1.62s1.9,2.54,1.9,4.39c0,.83-.11,1.6-.31,2.32-.21.72-.52,1.4-.93,2.04-.38.61-.83,1.2-1.34,1.79-.51.59-1.13,1.24-1.87,1.95-1.04,1.03-2.12,2.02-3.24,2.98s-2.15,1.85-3.12,2.67h11.73v2.5h.02,0Z" style="fill: #444;"/>
  </g>
  <g>
    <path d="M421.9,720.09c0,3.92-.61,6.79-1.84,8.62s-3.13,2.75-5.71,2.75-4.53-.93-5.73-2.78c-1.21-1.86-1.81-4.71-1.81-8.55s.61-6.74,1.83-8.59,3.12-2.78,5.71-2.78,4.53.94,5.73,2.82c1.21,1.88,1.81,4.72,1.81,8.52h.01ZM418.05,726.74c.34-.79.57-1.72.7-2.79.12-1.07.18-2.36.18-3.86s-.06-2.77-.18-3.87-.36-2.02-.71-2.78c-.34-.75-.81-1.32-1.4-1.7s-1.35-.57-2.28-.57-1.68.19-2.28.57-1.08.96-1.43,1.73c-.33.72-.56,1.67-.68,2.83-.12,1.16-.18,2.44-.18,3.82,0,1.52.05,2.8.16,3.82s.34,1.94.69,2.75c.32.76.78,1.34,1.37,1.74s1.38.6,2.35.6c.92,0,1.68-.19,2.29-.57s1.07-.96,1.41-1.73h-.01Z" style="fill: #444;"/>
    <path d="M431.08,731h-3.5v-4.17h3.5v4.17Z" style="fill: #444;"/>
    <path d="M451.89,720.09c0,3.92-.61,6.79-1.84,8.62s-3.13,2.75-5.71,2.75-4.53-.93-5.73-2.78c-1.21-1.86-1.81-4.71-1.81-8.55s.61-6.74,1.83-8.59,3.12-2.78,5.71-2.78,4.53.94,5.73,2.82c1.21,1.88,1.81,4.72,1.81,8.52h.01ZM448.03,726.74c.34-.79.57-1.72.7-2.79.12-1.07.18-2.36.18-3.86s-.06-2.77-.18-3.87-.36-2.02-.71-2.78c-.34-.75-.81-1.32-1.4-1.7s-1.35-.57-2.28-.57-1.68.19-2.28.57-1.08.96-1.43,1.73c-.33.72-.56,1.67-.68,2.83-.12,1.16-.18,2.44-.18,3.82,0,1.52.05,2.8.16,3.82s.34,1.94.69,2.75c.32.76.78,1.34,1.37,1.74s1.38.6,2.35.6c.92,0,1.68-.19,2.29-.57s1.07-.96,1.41-1.73h-.01Z" style="fill: #444;"/>
    <path d="M469.07,720.5c.47.42.85.95,1.16,1.58s.45,1.46.45,2.46-.18,1.91-.54,2.74-.87,1.55-1.52,2.17c-.73.68-1.59,1.19-2.58,1.52s-2.08.49-3.26.49-2.4-.14-3.57-.43-2.13-.6-2.89-.94v-3.06h.22c.83.55,1.81,1,2.93,1.36s2.21.54,3.25.54c.62,0,1.27-.1,1.96-.31s1.25-.51,1.68-.91c.45-.43.78-.9,1-1.42.22-.52.33-1.17.33-1.96s-.12-1.43-.37-1.94-.59-.92-1.03-1.21c-.44-.3-.97-.51-1.6-.62s-1.3-.17-2.02-.17h-1.32v-2.43h1.03c1.48,0,2.67-.31,3.55-.93.88-.62,1.33-1.53,1.33-2.72,0-.53-.11-.99-.34-1.38-.22-.39-.54-.72-.94-.97-.42-.25-.87-.43-1.35-.53s-1.02-.15-1.63-.15c-.93,0-1.91.17-2.96.5s-2.03.8-2.96,1.41h-.15v-3.06c.69-.34,1.62-.66,2.78-.95,1.16-.29,2.28-.43,3.36-.43s2,.1,2.81.29,1.54.51,2.2.94c.7.47,1.24,1.04,1.6,1.7s.54,1.44.54,2.33c0,1.21-.43,2.27-1.28,3.17-.85.9-1.86,1.47-3.02,1.71v.21c.47.08,1.01.24,1.61.49.61.25,1.12.56,1.54.93v-.02h0Z" style="fill: #444;"/>
  </g>
  <g>
    <path d="M518.86,720.09c0,3.92-.61,6.79-1.84,8.62-1.23,1.83-3.13,2.75-5.71,2.75s-4.53-.93-5.73-2.78c-1.21-1.86-1.81-4.71-1.81-8.55s.61-6.74,1.83-8.59,3.12-2.78,5.71-2.78,4.53.94,5.73,2.82c1.21,1.88,1.81,4.72,1.81,8.52h.01ZM515.01,726.74c.34-.79.57-1.72.7-2.79.12-1.07.18-2.36.18-3.86s-.06-2.77-.18-3.87c-.12-1.09-.36-2.02-.71-2.78-.34-.75-.81-1.32-1.4-1.7s-1.35-.57-2.28-.57-1.68.19-2.28.57-1.08.96-1.43,1.73c-.33.72-.56,1.67-.68,2.83-.12,1.16-.18,2.44-.18,3.82,0,1.52.05,2.8.16,3.82s.34,1.94.69,2.75c.32.76.78,1.34,1.37,1.74.59.4,1.38.6,2.35.6.92,0,1.68-.19,2.29-.57s1.07-.96,1.41-1.73h0Z" style="fill: #444;"/>
    <path d="M528.04,731h-3.5v-4.17h3.5v4.17Z" style="fill: #444;"/>
    <path d="M548.85,720.09c0,3.92-.61,6.79-1.84,8.62-1.22,1.83-3.13,2.75-5.71,2.75s-4.53-.93-5.73-2.78c-1.21-1.86-1.81-4.71-1.81-8.55s.61-6.74,1.83-8.59,3.12-2.78,5.71-2.78,4.53.94,5.73,2.82c1.21,1.88,1.81,4.72,1.81,8.52h.01ZM544.99,726.74c.34-.79.57-1.72.7-2.79.12-1.07.18-2.36.18-3.86s-.06-2.77-.18-3.87c-.12-1.09-.36-2.02-.71-2.78-.34-.75-.81-1.32-1.4-1.7s-1.35-.57-2.28-.57-1.68.19-2.28.57c-.6.38-1.08.96-1.43,1.73-.33.72-.56,1.67-.68,2.83-.12,1.16-.18,2.44-.18,3.82,0,1.52.05,2.8.16,3.82s.34,1.94.69,2.75c.32.76.78,1.34,1.37,1.74.59.4,1.38.6,2.35.6.92,0,1.68-.19,2.29-.57s1.07-.96,1.41-1.73h0Z" style="fill: #444;"/>
    <path d="M568.45,724.86h-3.24v6.14h-2.81v-6.14h-10.44v-3.37l10.56-12.3h2.7v13.33h3.24v2.34h-.01ZM562.39,722.52v-9.84l-8.45,9.84h8.45Z" style="fill: #444;"/>
  </g>
  <g>
    <path d="M615.82,720.09c0,3.92-.61,6.79-1.84,8.62-1.22,1.83-3.13,2.75-5.71,2.75s-4.53-.93-5.73-2.78c-1.21-1.86-1.81-4.71-1.81-8.55s.61-6.74,1.83-8.59,3.12-2.78,5.71-2.78,4.53.94,5.73,2.82c1.21,1.88,1.81,4.72,1.81,8.52h.01ZM611.97,726.74c.34-.79.57-1.72.7-2.79.12-1.07.18-2.36.18-3.86s-.06-2.77-.18-3.87c-.12-1.09-.36-2.02-.71-2.78-.34-.75-.81-1.32-1.4-1.7s-1.35-.57-2.28-.57-1.68.19-2.28.57c-.6.38-1.08.96-1.43,1.73-.33.72-.56,1.67-.68,2.83-.12,1.16-.18,2.44-.18,3.82,0,1.52.05,2.8.16,3.82s.34,1.94.69,2.75c.32.76.78,1.34,1.37,1.74.59.4,1.38.6,2.35.6.92,0,1.68-.19,2.29-.57s1.07-.96,1.41-1.73h0Z" style="fill: #444;"/>
    <path d="M625,731h-3.5v-4.17h3.5v4.17Z" style="fill: #444;"/>
    <path d="M645.8,720.09c0,3.92-.61,6.79-1.84,8.62-1.23,1.83-3.13,2.75-5.71,2.75s-4.53-.93-5.73-2.78c-1.21-1.86-1.81-4.71-1.81-8.55s.61-6.74,1.83-8.59,3.12-2.78,5.71-2.78,4.53.94,5.73,2.82c1.21,1.88,1.81,4.72,1.81,8.52h.01ZM641.95,726.74c.34-.79.57-1.72.7-2.79.12-1.07.18-2.36.18-3.86s-.06-2.77-.18-3.87c-.12-1.09-.36-2.02-.71-2.78-.34-.75-.81-1.32-1.4-1.7s-1.35-.57-2.28-.57-1.68.19-2.28.57c-.6.38-1.08.96-1.43,1.73-.33.72-.56,1.67-.68,2.83-.12,1.16-.18,2.44-.18,3.82,0,1.52.05,2.8.16,3.82s.34,1.94.69,2.75c.32.76.78,1.34,1.37,1.74.59.4,1.38.6,2.35.6.92,0,1.68-.19,2.29-.57s1.07-.96,1.41-1.73h0Z" style="fill: #444;"/>
    <path d="M664.73,724.07c0,1.02-.19,1.99-.56,2.92s-.88,1.71-1.52,2.34c-.7.68-1.54,1.21-2.51,1.57-.97.37-2.1.55-3.38.55-1.19,0-2.34-.12-3.44-.37s-2.04-.55-2.8-.9v-3.09h.21c.8.51,1.74.94,2.81,1.3s2.13.54,3.16.54c.69,0,1.37-.1,2.02-.29.65-.2,1.23-.54,1.73-1.03.43-.42.76-.92.97-1.51.22-.59.33-1.26.33-2.04s-.13-1.39-.39-1.9c-.26-.52-.62-.93-1.08-1.25-.51-.37-1.13-.63-1.85-.78-.73-.15-1.54-.23-2.44-.23s-1.69.06-2.48.18c-.8.12-1.48.23-2.06.35v-11.24h13.12v2.56h-10.3v5.8c.42-.04.85-.07,1.29-.09s.82-.03,1.14-.03c1.18,0,2.22.1,3.11.3s1.7.55,2.45,1.06c.78.54,1.39,1.23,1.82,2.08s.64,1.91.64,3.19h.01Z" style="fill: #444;"/>
  </g>
  <g>
    <path d="M712.78,720.09c0,3.92-.61,6.79-1.84,8.62-1.23,1.83-3.13,2.75-5.71,2.75s-4.53-.93-5.73-2.78c-1.21-1.86-1.81-4.71-1.81-8.55s.61-6.74,1.83-8.59,3.12-2.78,5.71-2.78,4.53.94,5.73,2.82c1.21,1.88,1.81,4.72,1.81,8.52h.01ZM708.93,726.74c.34-.79.57-1.72.7-2.79.12-1.07.18-2.36.18-3.86s-.06-2.77-.18-3.87c-.12-1.09-.36-2.02-.71-2.78-.34-.75-.81-1.32-1.4-1.7s-1.35-.57-2.28-.57-1.68.19-2.28.57c-.6.38-1.08.96-1.43,1.73-.33.72-.56,1.67-.68,2.83-.12,1.16-.18,2.44-.18,3.82,0,1.52.05,2.8.16,3.82s.34,1.94.69,2.75c.32.76.78,1.34,1.37,1.74.59.4,1.38.6,2.35.6.92,0,1.68-.19,2.29-.57s1.07-.96,1.41-1.73h0Z" style="fill: #444;"/>
    <path d="M721.96,731h-3.5v-4.17h3.5v4.17Z" style="fill: #444;"/>
    <path d="M742.77,720.09c0,3.92-.61,6.79-1.84,8.62-1.22,1.83-3.13,2.75-5.71,2.75s-4.53-.93-5.73-2.78c-1.21-1.86-1.81-4.71-1.81-8.55s.61-6.74,1.83-8.59,3.12-2.78,5.71-2.78,4.53.94,5.73,2.82c1.21,1.88,1.81,4.72,1.81,8.52h.01ZM738.91,726.74c.34-.79.57-1.72.7-2.79.12-1.07.18-2.36.18-3.86s-.06-2.77-.18-3.87c-.12-1.09-.36-2.02-.71-2.78-.34-.75-.81-1.32-1.4-1.7s-1.35-.57-2.28-.57-1.68.19-2.28.57c-.6.38-1.08.96-1.43,1.73-.33.72-.56,1.67-.68,2.83-.12,1.16-.18,2.44-.18,3.82,0,1.52.05,2.8.16,3.82s.34,1.94.69,2.75c.32.76.78,1.34,1.37,1.74.59.4,1.38.6,2.35.6.92,0,1.68-.19,2.29-.57s1.07-.96,1.41-1.73h0Z" style="fill: #444;"/>
    <path d="M762.19,723.92c0,2.22-.73,4.03-2.19,5.43-1.46,1.4-3.25,2.1-5.37,2.1-1.07,0-2.05-.17-2.93-.5s-1.66-.83-2.33-1.48c-.84-.81-1.49-1.88-1.94-3.22-.45-1.34-.68-2.95-.68-4.83s.21-3.65.62-5.14c.42-1.49,1.08-2.82,1.99-3.98.86-1.1,1.97-1.96,3.32-2.58s2.94-.93,4.75-.93c.58,0,1.06.02,1.45.07s.79.14,1.19.26v2.8h-.15c-.27-.15-.69-.29-1.24-.42s-1.12-.2-1.69-.2c-2.1,0-3.77.66-5.02,1.97s-1.98,3.09-2.18,5.33c.82-.5,1.63-.88,2.42-1.14.8-.26,1.72-.39,2.76-.39.93,0,1.75.09,2.45.26.71.17,1.43.51,2.18,1.03.86.6,1.51,1.35,1.94,2.26.43.91.65,2.01.65,3.31h0ZM759.21,724.04c0-.91-.13-1.66-.4-2.26-.27-.6-.71-1.11-1.33-1.55-.45-.31-.95-.52-1.49-.62s-1.12-.15-1.71-.15c-.83,0-1.6.1-2.31.29s-1.45.5-2.2.91c-.02.21-.04.42-.04.62s-.01.45-.01.75c0,1.54.16,2.76.47,3.66.32.89.76,1.6,1.31,2.12.45.43.93.75,1.46.94.52.2,1.09.3,1.71.3,1.42,0,2.53-.43,3.34-1.3.81-.86,1.21-2.11,1.21-3.73v.02h-.01Z" style="fill: #444;"/>
  </g>
  <g>
    <path d="M809.74,720.09c0,3.92-.61,6.79-1.84,8.62-1.22,1.83-3.13,2.75-5.71,2.75s-4.53-.93-5.73-2.78c-1.21-1.86-1.81-4.71-1.81-8.55s.61-6.74,1.83-8.59,3.12-2.78,5.71-2.78,4.53.94,5.73,2.82c1.21,1.88,1.81,4.72,1.81,8.52h.01ZM805.89,726.74c.34-.79.57-1.72.7-2.79.12-1.07.18-2.36.18-3.86s-.06-2.77-.18-3.87c-.12-1.09-.36-2.02-.71-2.78-.34-.75-.81-1.32-1.4-1.7s-1.35-.57-2.28-.57-1.68.19-2.28.57c-.6.38-1.08.96-1.43,1.73-.33.72-.56,1.67-.68,2.83-.12,1.16-.18,2.44-.18,3.82,0,1.52.05,2.8.16,3.82s.34,1.94.69,2.75c.32.76.78,1.34,1.37,1.74.59.4,1.38.6,2.35.6.92,0,1.68-.19,2.29-.57s1.07-.96,1.41-1.73h0Z" style="fill: #444;"/>
    <path d="M818.92,731h-3.5v-4.17h3.5v4.17Z" style="fill: #444;"/>
    <path d="M839.72,720.09c0,3.92-.61,6.79-1.84,8.62-1.23,1.83-3.13,2.75-5.71,2.75s-4.53-.93-5.73-2.78c-1.21-1.86-1.81-4.71-1.81-8.55s.61-6.74,1.83-8.59,3.12-2.78,5.71-2.78,4.53.94,5.73,2.82c1.21,1.88,1.81,4.72,1.81,8.52h.01ZM835.87,726.74c.34-.79.57-1.72.7-2.79.12-1.07.18-2.36.18-3.86s-.06-2.77-.18-3.87c-.12-1.09-.36-2.02-.71-2.78-.34-.75-.81-1.32-1.4-1.7s-1.35-.57-2.28-.57-1.68.19-2.28.57c-.6.38-1.08.96-1.43,1.73-.33.72-.56,1.67-.68,2.83-.12,1.16-.18,2.44-.18,3.82,0,1.52.05,2.8.16,3.82s.34,1.94.69,2.75c.32.76.78,1.34,1.37,1.74.59.4,1.38.6,2.35.6.92,0,1.68-.19,2.29-.57s1.07-.96,1.41-1.73h0Z" style="fill: #444;"/>
    <path d="M858.88,712.46l-9.87,18.54h-3.13l10.5-19.25h-12.42v-2.56h14.93v3.27h-.01Z" style="fill: #444;"/>
  </g>
  <g>
    <path d="M906.7,720.09c0,3.92-.61,6.79-1.84,8.62-1.23,1.83-3.13,2.75-5.71,2.75s-4.53-.93-5.73-2.78c-1.21-1.86-1.81-4.71-1.81-8.55s.61-6.74,1.83-8.59,3.12-2.78,5.71-2.78,4.53.94,5.73,2.82c1.21,1.88,1.81,4.72,1.81,8.52h.01ZM902.85,726.74c.34-.79.57-1.72.7-2.79.12-1.07.18-2.36.18-3.86s-.06-2.77-.18-3.87c-.12-1.09-.36-2.02-.71-2.78-.34-.75-.81-1.32-1.4-1.7s-1.35-.57-2.28-.57-1.68.19-2.28.57c-.6.38-1.08.96-1.43,1.73-.33.72-.56,1.67-.68,2.83-.12,1.16-.18,2.44-.18,3.82,0,1.52.05,2.8.16,3.82s.34,1.94.69,2.75c.32.76.78,1.34,1.37,1.74.59.4,1.38.6,2.35.6.92,0,1.68-.19,2.29-.57s1.07-.96,1.41-1.73h0Z" style="fill: #444;"/>
    <path d="M915.88,731h-3.5v-4.17h3.5v4.17Z" style="fill: #444;"/>
    <path d="M936.69,720.09c0,3.92-.61,6.79-1.84,8.62-1.22,1.83-3.13,2.75-5.71,2.75s-4.53-.93-5.73-2.78c-1.21-1.86-1.81-4.71-1.81-8.55s.61-6.74,1.83-8.59,3.12-2.78,5.71-2.78,4.53.94,5.73,2.82c1.21,1.88,1.81,4.72,1.81,8.52h.01ZM932.83,726.74c.34-.79.57-1.72.7-2.79.12-1.07.18-2.36.18-3.86s-.06-2.77-.18-3.87c-.12-1.09-.36-2.02-.71-2.78-.34-.75-.81-1.32-1.4-1.7s-1.35-.57-2.28-.57-1.68.19-2.28.57c-.6.38-1.08.96-1.43,1.73-.33.72-.56,1.67-.68,2.83-.12,1.16-.18,2.44-.18,3.82,0,1.52.05,2.8.16,3.82s.34,1.94.69,2.75c.32.76.78,1.34,1.37,1.74.59.4,1.38.6,2.35.6.92,0,1.68-.19,2.29-.57s1.07-.96,1.41-1.73h0Z" style="fill: #444;"/>
    <path d="M955.95,724.92c0,1.88-.73,3.45-2.21,4.7-1.47,1.25-3.32,1.88-5.54,1.88-2.36,0-4.25-.61-5.65-1.83-1.4-1.22-2.1-2.78-2.1-4.69,0-1.21.35-2.31,1.05-3.29s1.7-1.76,2.97-2.34v-.09c-1.17-.62-2.04-1.31-2.6-2.05s-.84-1.67-.84-2.78c0-1.64.67-3.01,2.02-4.1s3.06-1.64,5.14-1.64,3.92.52,5.21,1.57,1.95,2.37,1.95,3.98c0,.99-.31,1.96-.92,2.91-.62.95-1.52,1.7-2.71,2.23v.09c1.37.59,2.41,1.31,3.13,2.17s1.08,1.95,1.08,3.28h.02,0ZM952.93,725.2c0-.9-.2-1.62-.59-2.16s-1.17-1.09-2.32-1.63c-.46-.21-.96-.42-1.51-.6s-1.27-.44-2.18-.78c-.88.48-1.59,1.13-2.12,1.95-.53.82-.8,1.75-.8,2.78,0,1.32.46,2.41,1.36,3.27s2.06,1.29,3.46,1.29,2.56-.37,3.42-1.1c.85-.73,1.28-1.74,1.28-3.02h0ZM952.48,714.27c0-1.04-.4-1.88-1.21-2.5s-1.83-.93-3.08-.93-2.24.29-3.03.88c-.79.59-1.18,1.38-1.18,2.37,0,.7.2,1.31.59,1.82.4.51.99.97,1.79,1.37.36.18.88.41,1.56.69s1.34.52,1.98.7c.97-.64,1.64-1.31,2.01-2.01s.56-1.49.56-2.4h.01Z" style="fill: #444;"/>
  </g>
  <g>
    <path d="M87.04,629.49c0,3.92-.61,6.79-1.84,8.62-1.23,1.83-3.13,2.75-5.71,2.75s-4.53-.93-5.73-2.78c-1.21-1.86-1.81-4.71-1.81-8.55s.61-6.74,1.83-8.59,3.12-2.78,5.71-2.78,4.53.94,5.73,2.82c1.21,1.88,1.81,4.72,1.81,8.52h0ZM83.18,636.14c.34-.79.57-1.72.7-2.79.12-1.07.18-2.36.18-3.86s-.06-2.77-.18-3.87-.36-2.02-.71-2.78c-.34-.75-.81-1.32-1.4-1.7s-1.35-.57-2.28-.57-1.68.19-2.28.57-1.08.96-1.43,1.73c-.33.72-.56,1.67-.68,2.83-.12,1.16-.18,2.44-.18,3.82,0,1.52.05,2.8.16,3.82s.34,1.94.69,2.75c.32.76.78,1.34,1.37,1.74s1.38.6,2.35.6c.92,0,1.68-.19,2.29-.57s1.07-.96,1.41-1.73h-.01Z" style="fill: #444;"/>
    <path d="M96.22,640.4h-3.5v-4.17h3.5v4.17Z" style="fill: #444;"/>
    <path d="M117.05,640.4h-14.77v-3.06c1.03-.88,2.05-1.76,3.08-2.64s1.99-1.75,2.88-2.62c1.88-1.82,3.16-3.26,3.85-4.33.69-1.07,1.04-2.22,1.04-3.46,0-1.13-.37-2.02-1.12-2.66-.75-.64-1.79-.96-3.13-.96-.89,0-1.85.16-2.89.47s-2.05.79-3.03,1.44h-.15v-3.08c.69-.34,1.62-.65,2.78-.94,1.16-.28,2.28-.42,3.36-.42,2.24,0,3.99.54,5.26,1.62s1.9,2.54,1.9,4.39c0,.83-.11,1.6-.31,2.32-.21.72-.52,1.4-.93,2.04-.38.61-.83,1.2-1.34,1.79-.51.59-1.13,1.24-1.87,1.95-1.04,1.03-2.12,2.02-3.24,2.98s-2.15,1.85-3.12,2.67h11.73v2.5h.02Z" style="fill: #444;"/>
  </g>
  <g>
    <path d="M87.04,535.32c0,3.92-.61,6.79-1.84,8.62-1.23,1.83-3.13,2.75-5.71,2.75s-4.53-.93-5.73-2.78c-1.21-1.86-1.81-4.71-1.81-8.55s.61-6.74,1.83-8.59,3.12-2.78,5.71-2.78,4.53.94,5.73,2.82c1.21,1.88,1.81,4.72,1.81,8.52h0ZM83.18,541.97c.34-.79.57-1.72.7-2.79.12-1.07.18-2.36.18-3.86s-.06-2.77-.18-3.87-.36-2.02-.71-2.78c-.34-.75-.81-1.32-1.4-1.7s-1.35-.57-2.28-.57-1.68.19-2.28.57-1.08.96-1.43,1.73c-.33.72-.56,1.67-.68,2.83-.12,1.16-.18,2.44-.18,3.82,0,1.52.05,2.8.16,3.82s.34,1.94.69,2.75c.32.76.78,1.34,1.37,1.74s1.38.6,2.35.6c.92,0,1.68-.19,2.29-.57s1.07-.96,1.41-1.73h-.01Z" style="fill: #444;"/>
    <path d="M96.22,546.23h-3.5v-4.17h3.5v4.17Z" style="fill: #444;"/>
    <path d="M115.13,535.73c.47.42.85.95,1.16,1.58s.45,1.46.45,2.46-.18,1.91-.54,2.74-.87,1.55-1.52,2.17c-.73.68-1.59,1.19-2.58,1.52-.99.33-2.08.49-3.26.49s-2.4-.14-3.57-.43-2.13-.6-2.89-.94v-3.06h.22c.83.55,1.81,1,2.93,1.36s2.21.54,3.25.54c.62,0,1.27-.1,1.96-.31s1.25-.51,1.68-.91c.45-.43.78-.9,1-1.42.22-.52.33-1.17.33-1.96s-.12-1.43-.37-1.94-.59-.92-1.03-1.21c-.44-.3-.97-.51-1.6-.62s-1.3-.17-2.02-.17h-1.32v-2.43h1.03c1.48,0,2.67-.31,3.55-.93.88-.62,1.33-1.53,1.33-2.72,0-.53-.11-.99-.34-1.38-.22-.39-.54-.72-.94-.97-.42-.25-.87-.43-1.35-.53s-1.02-.15-1.63-.15c-.93,0-1.91.17-2.96.5s-2.03.8-2.96,1.41h-.15v-3.06c.69-.34,1.62-.66,2.78-.95,1.16-.29,2.28-.43,3.36-.43s2,.1,2.81.29,1.54.51,2.2.94c.7.47,1.24,1.04,1.6,1.7s.54,1.44.54,2.33c0,1.21-.43,2.27-1.28,3.17-.85.9-1.86,1.47-3.02,1.71v.21c.47.08,1.01.24,1.61.49.61.25,1.12.56,1.54.93v-.02h0Z" style="fill: #444;"/>
  </g>
  <g>
    <path d="M87.04,441.14c0,3.92-.61,6.79-1.84,8.62-1.23,1.83-3.13,2.75-5.71,2.75s-4.53-.93-5.73-2.78c-1.21-1.86-1.81-4.71-1.81-8.55s.61-6.74,1.83-8.59,3.12-2.78,5.71-2.78,4.53.94,5.73,2.82,1.81,4.72,1.81,8.52h0ZM83.18,447.79c.34-.79.57-1.72.7-2.79.12-1.07.18-2.36.18-3.86s-.06-2.77-.18-3.87-.36-2.02-.71-2.78c-.34-.75-.81-1.32-1.4-1.7s-1.35-.57-2.28-.57-1.68.19-2.28.57-1.08.96-1.43,1.73c-.33.72-.56,1.67-.68,2.83-.12,1.16-.18,2.44-.18,3.82,0,1.52.05,2.8.16,3.82s.34,1.94.69,2.75c.32.76.78,1.34,1.37,1.74s1.38.6,2.35.6c.92,0,1.68-.19,2.29-.57s1.07-.96,1.41-1.73h-.01Z" style="fill: #444;"/>
    <path d="M96.22,452.05h-3.5v-4.17h3.5v4.17Z" style="fill: #444;"/>
    <path d="M117.55,445.91h-3.24v6.14h-2.81v-6.14h-10.44v-3.37l10.56-12.3h2.7v13.33h3.24v2.34h0ZM111.5,443.57v-9.84l-8.45,9.84h8.45Z" style="fill: #444;"/>
  </g>
  <g>
    <path d="M87.04,346.97c0,3.92-.61,6.79-1.84,8.62s-3.13,2.75-5.71,2.75-4.53-.93-5.73-2.78c-1.21-1.86-1.81-4.71-1.81-8.55s.61-6.74,1.83-8.59,3.12-2.78,5.71-2.78,4.53.94,5.73,2.82,1.81,4.72,1.81,8.52h0ZM83.18,353.62c.34-.79.57-1.72.7-2.79s.18-2.36.18-3.86-.06-2.77-.18-3.87-.36-2.02-.71-2.78c-.34-.75-.81-1.32-1.4-1.7s-1.35-.57-2.28-.57-1.68.19-2.28.57-1.08.96-1.43,1.73c-.33.72-.56,1.67-.68,2.83-.12,1.16-.18,2.44-.18,3.82,0,1.52.05,2.8.16,3.82s.34,1.94.69,2.75c.32.76.78,1.34,1.37,1.74s1.38.6,2.35.6c.92,0,1.68-.19,2.29-.57s1.07-.96,1.41-1.73h-.01Z" style="fill: #444;"/>
    <path d="M96.22,357.88h-3.5v-4.17h3.5v4.17Z" style="fill: #444;"/>
    <path d="M116.88,350.95c0,1.02-.19,1.99-.56,2.92s-.88,1.71-1.52,2.34c-.7.68-1.54,1.21-2.51,1.57s-2.1.55-3.38.55c-1.19,0-2.34-.12-3.44-.37s-2.04-.55-2.8-.9v-3.09h.21c.8.51,1.74.94,2.81,1.3s2.13.53,3.16.53c.69,0,1.36-.1,2.01-.29.65-.2,1.23-.54,1.74-1.03.43-.42.75-.92.97-1.51s.33-1.26.33-2.04-.13-1.39-.39-1.9-.62-.93-1.08-1.25c-.51-.37-1.13-.63-1.85-.78s-1.54-.23-2.44-.23-1.69.06-2.48.18-1.48.23-2.06.35v-11.24h13.12v2.56h-10.3v5.8c.42-.04.85-.07,1.29-.09s.82-.03,1.14-.03c1.18,0,2.22.1,3.11.3s1.7.55,2.45,1.06c.78.54,1.39,1.23,1.82,2.08s.64,1.91.64,3.19v.02h.01Z" style="fill: #444;"/>
  </g>
  <g>
    <path d="M87.04,252.8c0,3.92-.61,6.79-1.84,8.62s-3.13,2.75-5.71,2.75-4.53-.93-5.73-2.78c-1.21-1.86-1.81-4.71-1.81-8.55s.61-6.74,1.83-8.59,3.12-2.78,5.71-2.78,4.53.94,5.73,2.82,1.81,4.72,1.81,8.52h0ZM83.18,259.45c.34-.79.57-1.72.7-2.79s.18-2.36.18-3.86-.06-2.77-.18-3.87-.36-2.02-.71-2.78c-.34-.75-.81-1.32-1.4-1.7s-1.35-.57-2.28-.57-1.68.19-2.28.57-1.08.96-1.43,1.73c-.33.72-.56,1.67-.68,2.83s-.18,2.44-.18,3.82c0,1.52.05,2.8.16,3.82.11,1.02.34,1.94.69,2.75.32.76.78,1.34,1.37,1.74s1.38.6,2.35.6c.92,0,1.68-.19,2.29-.57s1.07-.96,1.41-1.73h-.01Z" style="fill: #444;"/>
    <path d="M96.22,263.71h-3.5v-4.17h3.5v4.17Z" style="fill: #444;"/>
    <path d="M117.37,256.63c0,2.22-.73,4.03-2.19,5.43s-3.25,2.1-5.37,2.1c-1.07,0-2.05-.17-2.93-.5s-1.66-.83-2.33-1.48c-.84-.81-1.49-1.88-1.94-3.22-.45-1.34-.68-2.95-.68-4.83s.21-3.65.62-5.14,1.08-2.82,1.99-3.98c.86-1.1,1.97-1.97,3.33-2.59s2.94-.93,4.75-.93c.58,0,1.06.02,1.45.07s.79.14,1.19.26v2.8h-.15c-.27-.15-.69-.29-1.24-.42s-1.12-.2-1.69-.2c-2.1,0-3.77.66-5.02,1.97s-1.98,3.09-2.18,5.32c.82-.5,1.63-.88,2.42-1.14s1.72-.39,2.76-.39c.93,0,1.75.09,2.45.26s1.43.52,2.18,1.03c.86.6,1.51,1.35,1.94,2.26.43.91.65,2.01.65,3.31h0ZM114.4,256.75c0-.91-.13-1.66-.4-2.26-.27-.6-.71-1.11-1.33-1.55-.45-.31-.95-.52-1.49-.62s-1.12-.15-1.71-.15c-.83,0-1.6.1-2.31.29s-1.45.5-2.2.91c-.02.21-.03.42-.04.62s-.01.45-.01.75c0,1.54.16,2.76.48,3.65s.75,1.6,1.31,2.12c.45.43.93.74,1.46.94.52.2,1.09.3,1.71.3,1.42,0,2.53-.43,3.34-1.3s1.22-2.11,1.22-3.73l-.03.03Z" style="fill: #444;"/>
  </g>
  <g>
    <path d="M87.04,158.62c0,3.92-.61,6.79-1.84,8.62s-3.13,2.75-5.71,2.75-4.53-.93-5.73-2.78c-1.21-1.86-1.81-4.71-1.81-8.55s.61-6.74,1.83-8.59,3.12-2.78,5.71-2.78,4.53.94,5.73,2.82,1.81,4.72,1.81,8.52h0ZM83.18,165.27c.34-.79.57-1.72.7-2.79s.18-2.36.18-3.86-.06-2.77-.18-3.87-.36-2.02-.71-2.78c-.34-.75-.81-1.32-1.4-1.7s-1.35-.57-2.28-.57-1.68.19-2.28.57-1.08.96-1.43,1.73c-.33.72-.56,1.67-.68,2.83s-.18,2.44-.18,3.82c0,1.52.05,2.8.16,3.82s.34,1.94.69,2.75c.32.76.78,1.34,1.37,1.74s1.38.6,2.35.6c.92,0,1.68-.19,2.29-.57s1.07-.96,1.41-1.73h-.01Z" style="fill: #444;"/>
    <path d="M96.22,169.53h-3.5v-4.17h3.5v4.17Z" style="fill: #444;"/>
    <path d="M117.11,150.99l-9.87,18.54h-3.13l10.5-19.25h-12.42v-2.56h14.93v3.27h-.01Z" style="fill: #444;"/>
  </g>
  <g>
    <path d="M87.04,64.45c0,3.92-.61,6.79-1.84,8.62s-3.13,2.75-5.71,2.75-4.53-.93-5.73-2.78c-1.21-1.86-1.81-4.71-1.81-8.55s.61-6.74,1.83-8.59,3.12-2.78,5.71-2.78,4.53.94,5.73,2.82,1.81,4.72,1.81,8.52h0ZM83.18,71.1c.34-.79.57-1.72.7-2.79s.18-2.36.18-3.86-.06-2.77-.18-3.87-.36-2.02-.71-2.78c-.34-.75-.81-1.32-1.4-1.7s-1.35-.57-2.28-.57-1.68.19-2.28.57-1.08.96-1.43,1.73c-.33.72-.56,1.67-.68,2.83s-.18,2.44-.18,3.82c0,1.52.05,2.8.16,3.82s.34,1.94.69,2.75c.32.76.78,1.34,1.37,1.74s1.38.6,2.35.6c.92,0,1.68-.19,2.29-.57s1.07-.96,1.41-1.73h-.01Z" style="fill: #444;"/>
    <path d="M96.22,75.36h-3.5v-4.17h3.5v4.17Z" style="fill: #444;"/>
    <path d="M117.21,69.28c0,1.88-.74,3.45-2.21,4.7s-3.32,1.88-5.54,1.88c-2.36,0-4.25-.61-5.65-1.83s-2.1-2.78-2.1-4.69c0-1.21.35-2.31,1.05-3.29s1.69-1.76,2.97-2.34v-.09c-1.17-.62-2.04-1.31-2.6-2.05s-.84-1.67-.84-2.78c0-1.64.67-3.01,2.02-4.1s3.06-1.64,5.14-1.64,3.92.52,5.21,1.57,1.95,2.37,1.95,3.98c0,.99-.31,1.96-.92,2.91s-1.52,1.7-2.71,2.23v.09c1.37.59,2.41,1.31,3.13,2.17s1.08,1.95,1.08,3.28c0,0,.02,0,.02,0ZM114.2,69.56c0-.9-.2-1.62-.59-2.16s-1.17-1.09-2.32-1.63c-.46-.21-.96-.42-1.51-.6s-1.27-.44-2.18-.78c-.88.48-1.58,1.13-2.12,1.95-.53.82-.8,1.75-.8,2.78,0,1.32.45,2.41,1.36,3.27s2.06,1.29,3.46,1.29,2.57-.37,3.42-1.1c.85-.73,1.28-1.74,1.28-3.02ZM113.74,58.63c0-1.04-.4-1.88-1.21-2.5s-1.83-.93-3.08-.93-2.24.29-3.03.88-1.18,1.38-1.18,2.37c0,.7.2,1.31.59,1.82.4.51.99.97,1.79,1.37.36.18.88.41,1.56.69s1.34.52,1.98.7c.97-.64,1.64-1.31,2.01-2.01s.56-1.49.56-2.4h.01Z" style="fill: #444;"/>
  </g>
  <g style="clip-path: url(#clippath-1);">
    <g>
      <g>
        <path d="M761.54,451.8h-3.48v-12.81h-13.06v12.81h-3.48v-26.17h3.48v10.27h13.06v-10.27h3.48v26.17Z" style="fill: #444;"/>
        <path d="M783.56,451.8h-3.29v-2.09c-.29.2-.69.48-1.19.83s-.98.64-1.45.85c-.55.27-1.18.5-1.9.68s-1.55.27-2.51.27c-1.77,0-3.27-.59-4.5-1.76s-1.85-2.67-1.85-4.48c0-1.49.32-2.69.96-3.61s1.55-1.64,2.73-2.17c1.2-.53,2.63-.88,4.31-1.07s3.47-.33,5.4-.42v-.51c0-.75-.13-1.37-.4-1.86s-.64-.88-1.13-1.16c-.47-.27-1.03-.45-1.69-.54s-1.34-.14-2.06-.14c-.87,0-1.83.11-2.9.34s-2.17.56-3.3.99h-.18v-3.36c.64-.18,1.58-.37,2.79-.58s2.42-.32,3.6-.32c1.38,0,2.59.11,3.61.34s1.91.62,2.66,1.17c.74.54,1.3,1.24,1.69,2.09s.58,1.92.58,3.18v13.32h.02ZM780.28,446.97v-5.47c-1.01.06-2.19.15-3.56.26s-2.45.29-3.24.51c-.95.27-1.72.69-2.3,1.26s-.88,1.35-.88,2.35c0,1.12.34,1.97,1.02,2.54s1.72.85,3.11.85c1.16,0,2.22-.23,3.18-.68s1.85-.99,2.67-1.63h0Z" style="fill: #444;"/>
        <path d="M803.95,446.14c0,1.79-.74,3.26-2.22,4.41s-3.51,1.72-6.07,1.72c-1.45,0-2.79-.17-4-.52s-2.23-.72-3.05-1.13v-3.71h.18c1.04.79,2.2,1.41,3.48,1.87s2.5.69,3.67.69c1.45,0,2.59-.23,3.41-.7s1.23-1.21,1.23-2.21c0-.77-.22-1.36-.67-1.76s-1.3-.74-2.57-1.02c-.47-.11-1.08-.23-1.84-.37s-1.44-.29-2.07-.46c-1.72-.46-2.94-1.13-3.67-2.01s-1.08-1.97-1.08-3.26c0-.81.17-1.57.5-2.29s.84-1.35,1.52-1.92c.66-.55,1.49-.99,2.5-1.31s2.15-.48,3.4-.48c1.17,0,2.36.14,3.56.43s2.2.64,3,1.05v3.53h-.18c-.84-.62-1.87-1.15-3.08-1.57s-2.39-.64-3.55-.64-2.23.23-3.06.69-1.25,1.15-1.25,2.07c0,.81.25,1.42.76,1.83.49.41,1.29.74,2.39,1,.61.14,1.29.28,2.05.42s1.39.27,1.89.39c1.54.35,2.72.96,3.55,1.81.83.87,1.25,2.02,1.25,3.45h.02Z" style="fill: #444;"/>
        <path d="M825.1,451.8h-3.3v-11.18c0-.9-.05-1.75-.16-2.54s-.3-1.41-.58-1.85c-.29-.49-.71-.86-1.27-1.1s-1.27-.36-2.14-.36-1.85.22-2.83.67-1.93,1.01-2.83,1.71v14.66h-3.3v-27.35h3.3v9.9c1.03-.86,2.1-1.52,3.2-2s2.23-.72,3.39-.72c2.12,0,3.74.64,4.85,1.92s1.67,3.12,1.67,5.52v12.74-.02h0Z" style="fill: #444;"/>
        <path d="M847.46,451.8h-3.3v-27.35h3.3v27.35Z" style="fill: #444;"/>
        <path d="M870.43,442.33h-14.47c0,1.21.18,2.26.54,3.16s.86,1.63,1.49,2.21c.61.56,1.33.98,2.17,1.27s1.76.42,2.77.42c1.34,0,2.68-.27,4.03-.8s2.32-1.06,2.89-1.57h.18v3.6c-1.11.47-2.25.86-3.41,1.18s-2.38.47-3.66.47c-3.26,0-5.8-.88-7.63-2.65s-2.74-4.27-2.74-7.51.88-5.76,2.63-7.65,4.06-2.83,6.92-2.83c2.65,0,4.69.77,6.13,2.32s2.15,3.74,2.15,6.59v1.79h0ZM867.22,439.79c-.01-1.73-.45-3.08-1.31-4.03s-2.17-1.42-3.93-1.42-3.18.52-4.23,1.56-1.64,2.34-1.78,3.88h11.25Z" style="fill: #444;"/>
        <path d="M891.86,451.8h-3.3v-11.18c0-.9-.05-1.75-.16-2.54s-.3-1.41-.58-1.85c-.29-.49-.71-.86-1.27-1.1s-1.27-.36-2.14-.36-1.85.22-2.83.67-1.93,1.01-2.83,1.71v14.66h-3.3v-19.63h3.3v2.18c1.03-.86,2.1-1.52,3.2-2s2.23-.72,3.39-.72c2.12,0,3.74.64,4.85,1.92s1.67,3.12,1.67,5.52v12.74-.02h0Z" style="fill: #444;"/>
        <path d="M914.15,449.57c0,3.33-.76,5.77-2.27,7.33s-3.84,2.34-6.98,2.34c-1.04,0-2.06-.07-3.05-.22s-1.97-.35-2.93-.62v-3.38h.18c.54.21,1.39.47,2.57.78s2.34.47,3.52.47,2.06-.13,2.79-.4,1.31-.64,1.72-1.12c.41-.46.7-1.01.88-1.65s.26-1.37.26-2.16v-1.79c-1,.8-1.95,1.39-2.86,1.78s-2.07.59-3.47.59c-2.34,0-4.2-.85-5.58-2.54s-2.07-4.08-2.07-7.16c0-1.69.24-3.14.71-4.37s1.12-2.28,1.94-3.17c.76-.83,1.69-1.48,2.78-1.94s2.17-.69,3.25-.69c1.14,0,2.09.11,2.86.34s1.58.58,2.43,1.05l.21-.84h3.09v17.4l.02-.03h0ZM910.85,446.4v-10.71c-.88-.4-1.7-.68-2.45-.85s-1.51-.25-2.26-.25c-1.82,0-3.25.61-4.29,1.83s-1.56,2.99-1.56,5.31.39,3.87,1.16,5.01,2.06,1.71,3.85,1.71c.96,0,1.92-.18,2.89-.55s1.85-.86,2.66-1.49h0Z" style="fill: #444;"/>
        <path d="M930.85,451.62c-.62.16-1.3.3-2.03.4s-1.39.16-1.96.16c-2,0-3.53-.54-4.57-1.62s-1.56-2.81-1.56-5.19v-10.44h-2.23v-2.78h2.23v-5.64h3.3v5.64h6.82v2.78h-6.82v8.95c0,1.03.02,1.84.07,2.42s.21,1.12.49,1.63c.26.47.61.81,1.06,1.03s1.14.33,2.07.33c.54,0,1.1-.08,1.69-.24s1.01-.29,1.27-.4h.18v2.97h0Z" style="fill: #444;"/>
        <path d="M951.26,451.8h-3.3v-11.18c0-.9-.05-1.75-.16-2.54s-.3-1.41-.58-1.85c-.29-.49-.71-.86-1.27-1.1s-1.27-.36-2.14-.36-1.85.22-2.83.67-1.93,1.01-2.83,1.71v14.66h-3.3v-27.35h3.3v9.9c1.03-.86,2.1-1.52,3.2-2s2.23-.72,3.39-.72c2.12,0,3.74.64,4.85,1.92s1.67,3.12,1.67,5.52v12.74-.02h0Z" style="fill: #444;"/>
      </g>
      <g style="clip-path: url(#clippath-2);">
        <g>
          <rect x="741.53" y="456.8" width="160.77" height="2.42" style="fill: #fff;"/>
          <g>
            <path d="M761.54,451.8h-3.48v-12.81h-13.06v12.81h-3.48v-26.17h3.48v10.27h13.06v-10.27h3.48v26.17Z" style="fill: #444;"/>
            <path d="M783.56,451.8h-3.29v-2.09c-.29.2-.69.48-1.19.83s-.98.64-1.45.85c-.55.27-1.18.5-1.9.68s-1.55.27-2.51.27c-1.77,0-3.27-.59-4.5-1.76s-1.85-2.67-1.85-4.48c0-1.49.32-2.69.96-3.61s1.55-1.64,2.73-2.17c1.2-.53,2.63-.88,4.31-1.07s3.47-.33,5.4-.42v-.51c0-.75-.13-1.37-.4-1.86s-.64-.88-1.13-1.16c-.47-.27-1.03-.45-1.69-.54s-1.34-.14-2.06-.14c-.87,0-1.83.11-2.9.34s-2.17.56-3.3.99h-.18v-3.36c.64-.18,1.58-.37,2.79-.58s2.42-.32,3.6-.32c1.38,0,2.59.11,3.61.34s1.91.62,2.66,1.17c.74.54,1.3,1.24,1.69,2.09s.58,1.92.58,3.18v13.32h.02ZM780.28,446.97v-5.47c-1.01.06-2.19.15-3.56.26s-2.45.29-3.24.51c-.95.27-1.72.69-2.3,1.26s-.88,1.35-.88,2.35c0,1.12.34,1.97,1.02,2.54s1.72.85,3.11.85c1.16,0,2.22-.23,3.18-.68s1.85-.99,2.67-1.63h0Z" style="fill: #444;"/>
            <path d="M803.95,446.14c0,1.79-.74,3.26-2.22,4.41s-3.51,1.72-6.07,1.72c-1.45,0-2.79-.17-4-.52s-2.23-.72-3.05-1.13v-3.71h.18c1.04.79,2.2,1.41,3.48,1.87s2.5.69,3.67.69c1.45,0,2.59-.23,3.41-.7s1.23-1.21,1.23-2.21c0-.77-.22-1.36-.67-1.76s-1.3-.74-2.57-1.02c-.47-.11-1.08-.23-1.84-.37s-1.44-.29-2.07-.46c-1.72-.46-2.94-1.13-3.67-2.01s-1.08-1.97-1.08-3.26c0-.81.17-1.57.5-2.29s.84-1.35,1.52-1.92c.66-.55,1.49-.99,2.5-1.31s2.15-.48,3.4-.48c1.17,0,2.36.14,3.56.43s2.2.64,3,1.05v3.53h-.18c-.84-.62-1.87-1.15-3.08-1.57s-2.39-.64-3.55-.64-2.23.23-3.06.69-1.25,1.15-1.25,2.07c0,.81.25,1.42.76,1.83.49.41,1.29.74,2.39,1,.61.14,1.29.28,2.05.42s1.39.27,1.89.39c1.54.35,2.72.96,3.55,1.81.83.87,1.25,2.02,1.25,3.45h.02Z" style="fill: #444;"/>
            <path d="M825.1,451.8h-3.3v-11.18c0-.9-.05-1.75-.16-2.54s-.3-1.41-.58-1.85c-.29-.49-.71-.86-1.27-1.1s-1.27-.36-2.14-.36-1.85.22-2.83.67-1.93,1.01-2.83,1.71v14.66h-3.3v-27.35h3.3v9.9c1.03-.86,2.1-1.52,3.2-2s2.23-.72,3.39-.72c2.12,0,3.74.64,4.85,1.92s1.67,3.12,1.67,5.52v12.74-.02h0Z" style="fill: #444;"/>
            <path d="M847.46,451.8h-3.3v-27.35h3.3v27.35Z" style="fill: #444;"/>
            <path d="M870.43,442.33h-14.47c0,1.21.18,2.26.54,3.16s.86,1.63,1.49,2.21c.61.56,1.33.98,2.17,1.27s1.76.42,2.77.42c1.34,0,2.68-.27,4.03-.8s2.32-1.06,2.89-1.57h.18v3.6c-1.11.47-2.25.86-3.41,1.18s-2.38.47-3.66.47c-3.26,0-5.8-.88-7.63-2.65s-2.74-4.27-2.74-7.51.88-5.76,2.63-7.65,4.06-2.83,6.92-2.83c2.65,0,4.69.77,6.13,2.32s2.15,3.74,2.15,6.59v1.79h0ZM867.22,439.79c-.01-1.73-.45-3.08-1.31-4.03s-2.17-1.42-3.93-1.42-3.18.52-4.23,1.56-1.64,2.34-1.78,3.88h11.25Z" style="fill: #444;"/>
            <path d="M891.86,451.8h-3.3v-11.18c0-.9-.05-1.75-.16-2.54s-.3-1.41-.58-1.85c-.29-.49-.71-.86-1.27-1.1s-1.27-.36-2.14-.36-1.85.22-2.83.67-1.93,1.01-2.83,1.71v14.66h-3.3v-19.63h3.3v2.18c1.03-.86,2.1-1.52,3.2-2s2.23-.72,3.39-.72c2.12,0,3.74.64,4.85,1.92s1.67,3.12,1.67,5.52v12.74-.02h0Z" style="fill: #444;"/>
            <path d="M914.15,449.57c0,3.33-.76,5.77-2.27,7.33s-3.84,2.34-6.98,2.34c-1.04,0-2.06-.07-3.05-.22s-1.97-.35-2.93-.62v-3.38h.18c.54.21,1.39.47,2.57.78s2.34.47,3.52.47,2.06-.13,2.79-.4,1.31-.64,1.72-1.12c.41-.46.7-1.01.88-1.65s.26-1.37.26-2.16v-1.79c-1,.8-1.95,1.39-2.86,1.78s-2.07.59-3.47.59c-2.34,0-4.2-.85-5.58-2.54s-2.07-4.08-2.07-7.16c0-1.69.24-3.14.71-4.37s1.12-2.28,1.94-3.17c.76-.83,1.69-1.48,2.78-1.94s2.17-.69,3.25-.69c1.14,0,2.09.11,2.86.34s1.58.58,2.43,1.05l.21-.84h3.09v17.4l.02-.03h0ZM910.85,446.4v-10.71c-.88-.4-1.7-.68-2.45-.85s-1.51-.25-2.26-.25c-1.82,0-3.25.61-4.29,1.83s-1.56,2.99-1.56,5.31.39,3.87,1.16,5.01,2.06,1.71,3.85,1.71c.96,0,1.92-.18,2.89-.55s1.85-.86,2.66-1.49h0Z" style="fill: #444;"/>
            <path d="M930.85,451.62c-.62.16-1.3.3-2.03.4s-1.39.16-1.96.16c-2,0-3.53-.54-4.57-1.62s-1.56-2.81-1.56-5.19v-10.44h-2.23v-2.78h2.23v-5.64h3.3v5.64h6.82v2.78h-6.82v8.95c0,1.03.02,1.84.07,2.42s.21,1.12.49,1.63c.26.47.61.81,1.06,1.03s1.14.33,2.07.33c.54,0,1.1-.08,1.69-.24s1.01-.29,1.27-.4h.18v2.97h0Z" style="fill: #444;"/>
            <path d="M951.26,451.8h-3.3v-11.18c0-.9-.05-1.75-.16-2.54s-.3-1.41-.58-1.85c-.29-.49-.71-.86-1.27-1.1s-1.27-.36-2.14-.36-1.85.22-2.83.67-1.93,1.01-2.83,1.71v14.66h-3.3v-27.35h3.3v9.9c1.03-.86,2.1-1.52,3.2-2s2.23-.72,3.39-.72c2.12,0,3.74.64,4.85,1.92s1.67,3.12,1.67,5.52v12.74-.02h0Z" style="fill: #444;"/>
          </g>
        </g>
      </g>
      <g>
        <path d="M864.99,506.88h-14.77v-3.06c1.03-.88,2.05-1.76,3.08-2.64s1.99-1.75,2.88-2.62c1.88-1.82,3.16-3.26,3.85-4.33s1.04-2.22,1.04-3.46c0-1.13-.37-2.02-1.12-2.66s-1.79-.96-3.13-.96c-.89,0-1.85.16-2.89.47s-2.05.79-3.03,1.44h-.15v-3.08c.69-.34,1.62-.65,2.78-.94,1.16-.28,2.28-.42,3.36-.42,2.24,0,3.99.54,5.26,1.62s1.9,2.54,1.9,4.39c0,.83-.11,1.6-.31,2.32-.21.72-.52,1.4-.93,2.04-.38.61-.83,1.2-1.34,1.79s-1.13,1.24-1.87,1.95c-1.04,1.03-2.12,2.02-3.24,2.98s-2.15,1.85-3.12,2.67h11.73v2.5h.02Z" style="fill: #444;"/>
        <path d="M884.04,495.97c0,3.92-.61,6.79-1.84,8.62-1.23,1.83-3.13,2.75-5.71,2.75s-4.53-.93-5.73-2.78c-1.21-1.86-1.81-4.71-1.81-8.55s.61-6.74,1.83-8.59,3.12-2.78,5.71-2.78,4.53.94,5.73,2.82c1.21,1.88,1.81,4.72,1.81,8.52h.01ZM880.18,502.62c.34-.79.57-1.72.7-2.79.12-1.07.18-2.36.18-3.86s-.06-2.77-.18-3.87-.36-2.02-.71-2.78c-.34-.75-.81-1.32-1.4-1.7s-1.35-.57-2.28-.57-1.68.19-2.28.57c-.6.38-1.08.96-1.43,1.73-.33.72-.56,1.67-.68,2.83-.12,1.16-.18,2.44-.18,3.82,0,1.52.05,2.8.16,3.82s.34,1.94.69,2.75c.32.76.78,1.34,1.37,1.74s1.38.6,2.35.6c.92,0,1.68-.19,2.29-.57s1.07-.96,1.41-1.73h0Z" style="fill: #444;"/>
        <path d="M903.11,495.97c0,3.92-.61,6.79-1.84,8.62-1.23,1.83-3.13,2.75-5.71,2.75s-4.53-.93-5.73-2.78c-1.21-1.86-1.81-4.71-1.81-8.55s.61-6.74,1.83-8.59,3.12-2.78,5.71-2.78,4.53.94,5.73,2.82c1.21,1.88,1.81,4.72,1.81,8.52h.01ZM899.26,502.62c.34-.79.57-1.72.7-2.79.12-1.07.18-2.36.18-3.86s-.06-2.77-.18-3.87-.36-2.02-.71-2.78c-.34-.75-.81-1.32-1.4-1.7s-1.35-.57-2.28-.57-1.68.19-2.28.57c-.6.38-1.08.96-1.43,1.73-.33.72-.56,1.67-.68,2.83-.12,1.16-.18,2.44-.18,3.82,0,1.52.05,2.8.16,3.82s.34,1.94.69,2.75c.32.76.78,1.34,1.37,1.74s1.38.6,2.35.6c.92,0,1.68-.19,2.29-.57s1.07-.96,1.41-1.73h0Z" style="fill: #444;"/>
        <path d="M922.18,495.97c0,3.92-.61,6.79-1.84,8.62-1.23,1.83-3.13,2.75-5.71,2.75s-4.53-.93-5.73-2.78c-1.21-1.86-1.81-4.71-1.81-8.55s.61-6.74,1.83-8.59,3.12-2.78,5.71-2.78,4.53.94,5.73,2.82c1.21,1.88,1.81,4.72,1.81,8.52h.01ZM918.33,502.62c.34-.79.57-1.72.7-2.79.12-1.07.18-2.36.18-3.86s-.06-2.77-.18-3.87-.36-2.02-.71-2.78c-.34-.75-.81-1.32-1.4-1.7s-1.35-.57-2.28-.57-1.68.19-2.28.57c-.6.38-1.08.96-1.43,1.73-.33.72-.56,1.67-.68,2.83-.12,1.16-.18,2.44-.18,3.82,0,1.52.05,2.8.16,3.82s.34,1.94.69,2.75c.32.76.78,1.34,1.37,1.74s1.38.6,2.35.6c.92,0,1.68-.19,2.29-.57s1.07-.96,1.41-1.73h0Z" style="fill: #444;"/>
      </g>
      <polyline points="762.87 497.18 842.87 497.18 842.87 493.18 762.87 493.18 762.87 497.18" style="fill: #ef553b;"/>
      <path d="M762.87,497.18v-4h80v4h-80M850.24,507.33v-22.71h71.95v22.71h-71.95M924.17,474.18h-166.3v42h166.3v-42" style="fill: #fff;"/>
      <polyline points="842.87 493.18 762.87 493.18 762.87 497.18 842.87 497.18 842.87 493.18" style="fill: #636efa;"/>
      <g>
        <path d="M864.99,548.88h-14.77v-3.06c1.03-.88,2.05-1.76,3.08-2.64s1.99-1.75,2.88-2.62c1.88-1.82,3.16-3.26,3.85-4.33s1.04-2.22,1.04-3.46c0-1.13-.37-2.02-1.12-2.66-.75-.64-1.79-.96-3.13-.96-.89,0-1.85.16-2.89.47s-2.05.79-3.03,1.44h-.15v-3.08c.69-.34,1.62-.65,2.78-.94,1.16-.28,2.28-.42,3.36-.42,2.24,0,3.99.54,5.26,1.62s1.9,2.54,1.9,4.39c0,.83-.11,1.6-.31,2.32-.21.72-.52,1.4-.93,2.04-.38.61-.83,1.2-1.34,1.79-.51.59-1.13,1.24-1.87,1.95-1.04,1.03-2.12,2.02-3.24,2.98s-2.15,1.85-3.12,2.67h11.73v2.5h.02Z" style="fill: #444;"/>
        <path d="M883.89,541.95c0,1.02-.19,1.99-.56,2.92s-.88,1.71-1.52,2.34c-.7.68-1.54,1.21-2.51,1.57-.97.37-2.1.55-3.38.55-1.19,0-2.34-.12-3.44-.37s-2.04-.55-2.8-.9v-3.09h.21c.8.51,1.74.94,2.81,1.3s2.13.54,3.16.54c.69,0,1.36-.1,2.01-.29.65-.2,1.23-.54,1.74-1.03.43-.42.75-.92.97-1.51s.33-1.26.33-2.04-.13-1.39-.39-1.9-.62-.93-1.08-1.25c-.51-.37-1.13-.63-1.85-.78-.73-.15-1.54-.23-2.44-.23s-1.69.06-2.48.18-1.48.23-2.06.35v-11.24h13.12v2.56h-10.3v5.8c.42-.04.85-.07,1.29-.09s.82-.03,1.14-.03c1.18,0,2.22.1,3.11.3s1.7.55,2.45,1.06c.78.54,1.39,1.23,1.82,2.08s.64,1.91.64,3.19h.01Z" style="fill: #444;"/>
        <path d="M903.11,537.97c0,3.92-.61,6.79-1.84,8.62-1.23,1.83-3.13,2.75-5.71,2.75s-4.53-.93-5.73-2.78c-1.21-1.86-1.81-4.71-1.81-8.55s.61-6.74,1.83-8.59,3.12-2.78,5.71-2.78,4.53.94,5.73,2.82c1.21,1.88,1.81,4.72,1.81,8.52h.01ZM899.26,544.62c.34-.79.57-1.72.7-2.79.12-1.07.18-2.36.18-3.86s-.06-2.77-.18-3.87-.36-2.02-.71-2.78c-.34-.75-.81-1.32-1.4-1.7s-1.35-.57-2.28-.57-1.68.19-2.28.57c-.6.38-1.08.96-1.43,1.73-.33.72-.56,1.67-.68,2.83-.12,1.16-.18,2.44-.18,3.82,0,1.52.05,2.8.16,3.82s.34,1.94.69,2.75c.32.76.78,1.34,1.37,1.74s1.38.6,2.35.6c.92,0,1.68-.19,2.29-.57s1.07-.96,1.41-1.73h0Z" style="fill: #444;"/>
        <path d="M922.18,537.97c0,3.92-.61,6.79-1.84,8.62-1.23,1.83-3.13,2.75-5.71,2.75s-4.53-.93-5.73-2.78c-1.21-1.86-1.81-4.71-1.81-8.55s.61-6.74,1.83-8.59,3.12-2.78,5.71-2.78,4.53.94,5.73,2.82c1.21,1.88,1.81,4.72,1.81,8.52h.01ZM918.33,544.62c.34-.79.57-1.72.7-2.79.12-1.07.18-2.36.18-3.86s-.06-2.77-.18-3.87-.36-2.02-.71-2.78c-.34-.75-.81-1.32-1.4-1.7s-1.35-.57-2.28-.57-1.68.19-2.28.57c-.6.38-1.08.96-1.43,1.73-.33.72-.56,1.67-.68,2.83-.12,1.16-.18,2.44-.18,3.82,0,1.52.05,2.8.16,3.82s.34,1.94.69,2.75c.32.76.78,1.34,1.37,1.74s1.38.6,2.35.6c.92,0,1.68-.19,2.29-.57s1.07-.96,1.41-1.73h0Z" style="fill: #444;"/>
      </g>
      <polyline points="762.87 539.18 842.87 539.18 842.87 535.18 762.87 535.18 762.87 539.18" style="fill: #00cc96;"/>
      <path d="M762.87,539.18v-4h80v4h-80M850.24,549.33v-22.71h71.95v22.71h-71.95M924.17,516.18h-166.3v42h166.3v-42" style="fill: #fff;"/>
      <g style="clip-path: url(#clippath-3);">
        <g>
          <rect x="850.24" y="526.62" width="71.95" height="22.71" style="fill: #fff;"/>
          <g>
            <path d="M864.99,548.88h-14.77v-3.06c1.03-.88,2.05-1.76,3.08-2.64s1.99-1.75,2.88-2.62c1.88-1.82,3.16-3.26,3.85-4.33s1.04-2.22,1.04-3.46c0-1.13-.37-2.02-1.12-2.66-.75-.64-1.79-.96-3.13-.96-.89,0-1.85.16-2.89.47s-2.05.79-3.03,1.44h-.15v-3.08c.69-.34,1.62-.65,2.78-.94,1.16-.28,2.28-.42,3.36-.42,2.24,0,3.99.54,5.26,1.62s1.9,2.54,1.9,4.39c0,.83-.11,1.6-.31,2.32-.21.72-.52,1.4-.93,2.04-.38.61-.83,1.2-1.34,1.79-.51.59-1.13,1.24-1.87,1.95-1.04,1.03-2.12,2.02-3.24,2.98s-2.15,1.85-3.12,2.67h11.73v2.5h.02Z" style="fill: #444;"/>
            <path d="M883.89,541.95c0,1.02-.19,1.99-.56,2.92s-.88,1.71-1.52,2.34c-.7.68-1.54,1.21-2.51,1.57-.97.37-2.1.55-3.38.55-1.19,0-2.34-.12-3.44-.37s-2.04-.55-2.8-.9v-3.09h.21c.8.51,1.74.94,2.81,1.3s2.13.54,3.16.54c.69,0,1.36-.1,2.01-.29.65-.2,1.23-.54,1.74-1.03.43-.42.75-.92.97-1.51s.33-1.26.33-2.04-.13-1.39-.39-1.9-.62-.93-1.08-1.25c-.51-.37-1.13-.63-1.85-.78-.73-.15-1.54-.23-2.44-.23s-1.69.06-2.48.18-1.48.23-2.06.35v-11.24h13.12v2.56h-10.3v5.8c.42-.04.85-.07,1.29-.09s.82-.03,1.14-.03c1.18,0,2.22.1,3.11.3s1.7.55,2.45,1.06c.78.54,1.39,1.23,1.82,2.08s.64,1.91.64,3.19h.01Z" style="fill: #444;"/>
            <path d="M903.11,537.97c0,3.92-.61,6.79-1.84,8.62-1.23,1.83-3.13,2.75-5.71,2.75s-4.53-.93-5.73-2.78c-1.21-1.86-1.81-4.71-1.81-8.55s.61-6.74,1.83-8.59,3.12-2.78,5.71-2.78,4.53.94,5.73,2.82c1.21,1.88,1.81,4.72,1.81,8.52h.01ZM899.26,544.62c.34-.79.57-1.72.7-2.79.12-1.07.18-2.36.18-3.86s-.06-2.77-.18-3.87-.36-2.02-.71-2.78c-.34-.75-.81-1.32-1.4-1.7s-1.35-.57-2.28-.57-1.68.19-2.28.57c-.6.38-1.08.96-1.43,1.73-.33.72-.56,1.67-.68,2.83-.12,1.16-.18,2.44-.18,3.82,0,1.52.05,2.8.16,3.82s.34,1.94.69,2.75c.32.76.78,1.34,1.37,1.74s1.38.6,2.35.6c.92,0,1.68-.19,2.29-.57s1.07-.96,1.41-1.73h0Z" style="fill: #444;"/>
            <path d="M922.18,537.97c0,3.92-.61,6.79-1.84,8.62-1.23,1.83-3.13,2.75-5.71,2.75s-4.53-.93-5.73-2.78c-1.21-1.86-1.81-4.71-1.81-8.55s.61-6.74,1.83-8.59,3.12-2.78,5.71-2.78,4.53.94,5.73,2.82c1.21,1.88,1.81,4.72,1.81,8.52h.01ZM918.33,544.62c.34-.79.57-1.72.7-2.79.12-1.07.18-2.36.18-3.86s-.06-2.77-.18-3.87-.36-2.02-.71-2.78c-.34-.75-.81-1.32-1.4-1.7s-1.35-.57-2.28-.57-1.68.19-2.28.57c-.6.38-1.08.96-1.43,1.73-.33.72-.56,1.67-.68,2.83-.12,1.16-.18,2.44-.18,3.82,0,1.52.05,2.8.16,3.82s.34,1.94.69,2.75c.32.76.78,1.34,1.37,1.74s1.38.6,2.35.6c.92,0,1.68-.19,2.29-.57s1.07-.96,1.41-1.73h0Z" style="fill: #444;"/>
          </g>
        </g>
      </g>
      <polyline points="842.87 535.18 762.87 535.18 762.87 539.18 842.87 539.18 842.87 535.18" style="fill: #ef553b;"/>
      <g>
        <path d="M863.08,580.38c.47.42.85.95,1.16,1.58s.45,1.46.45,2.46-.18,1.91-.54,2.74-.87,1.55-1.52,2.17c-.73.68-1.59,1.19-2.58,1.52s-2.08.49-3.26.49-2.4-.14-3.57-.43-2.13-.6-2.89-.94v-3.06h.22c.83.55,1.81,1,2.93,1.36s2.21.54,3.25.54c.62,0,1.27-.1,1.96-.31s1.25-.51,1.68-.91c.45-.43.78-.9,1-1.42.22-.52.33-1.17.33-1.96s-.12-1.43-.37-1.94-.59-.92-1.03-1.21c-.44-.3-.97-.51-1.6-.62s-1.3-.17-2.02-.17h-1.32v-2.43h1.03c1.48,0,2.67-.31,3.55-.93s1.33-1.53,1.33-2.72c0-.53-.11-.99-.34-1.38-.22-.39-.54-.72-.94-.97-.42-.25-.87-.43-1.35-.53s-1.02-.15-1.63-.15c-.93,0-1.91.17-2.96.5s-2.03.8-2.96,1.41h-.15v-3.06c.69-.34,1.62-.66,2.78-.95,1.16-.29,2.28-.43,3.36-.43s2,.1,2.81.29,1.54.51,2.2.94c.7.47,1.24,1.04,1.6,1.7s.54,1.44.54,2.33c0,1.21-.43,2.27-1.28,3.17-.85.9-1.86,1.47-3.02,1.71v.21c.47.08,1.01.24,1.61.49.61.25,1.12.56,1.54.93v-.02h0Z" style="fill: #444;"/>
        <path d="M884.04,579.97c0,3.92-.61,6.79-1.84,8.62-1.23,1.83-3.13,2.75-5.71,2.75s-4.53-.93-5.73-2.78c-1.21-1.86-1.81-4.71-1.81-8.55s.61-6.74,1.83-8.59,3.12-2.78,5.71-2.78,4.53.94,5.73,2.82c1.21,1.88,1.81,4.72,1.81,8.52h.01ZM880.18,586.62c.34-.79.57-1.72.7-2.79.12-1.07.18-2.36.18-3.86s-.06-2.77-.18-3.87-.36-2.02-.71-2.78c-.34-.75-.81-1.32-1.4-1.7s-1.35-.57-2.28-.57-1.68.19-2.28.57c-.6.38-1.08.96-1.43,1.73-.33.72-.56,1.67-.68,2.83-.12,1.16-.18,2.44-.18,3.82,0,1.52.05,2.8.16,3.82s.34,1.94.69,2.75c.32.76.78,1.34,1.37,1.74s1.38.6,2.35.6c.92,0,1.68-.19,2.29-.57s1.07-.96,1.41-1.73h0Z" style="fill: #444;"/>
        <path d="M903.11,579.97c0,3.92-.61,6.79-1.84,8.62-1.23,1.83-3.13,2.75-5.71,2.75s-4.53-.93-5.73-2.78c-1.21-1.86-1.81-4.71-1.81-8.55s.61-6.74,1.83-8.59,3.12-2.78,5.71-2.78,4.53.94,5.73,2.82c1.21,1.88,1.81,4.72,1.81,8.52h.01ZM899.26,586.62c.34-.79.57-1.72.7-2.79.12-1.07.18-2.36.18-3.86s-.06-2.77-.18-3.87-.36-2.02-.71-2.78c-.34-.75-.81-1.32-1.4-1.7s-1.35-.57-2.28-.57-1.68.19-2.28.57c-.6.38-1.08.96-1.43,1.73-.33.72-.56,1.67-.68,2.83-.12,1.16-.18,2.44-.18,3.82,0,1.52.05,2.8.16,3.82s.34,1.94.69,2.75c.32.76.78,1.34,1.37,1.74s1.38.6,2.35.6c.92,0,1.68-.19,2.29-.57s1.07-.96,1.41-1.73h0Z" style="fill: #444;"/>
        <path d="M922.18,579.97c0,3.92-.61,6.79-1.84,8.62-1.23,1.83-3.13,2.75-5.71,2.75s-4.53-.93-5.73-2.78c-1.21-1.86-1.81-4.71-1.81-8.55s.61-6.74,1.83-8.59,3.12-2.78,5.71-2.78,4.53.94,5.73,2.82c1.21,1.88,1.81,4.72,1.81,8.52h.01ZM918.33,586.62c.34-.79.57-1.72.7-2.79.12-1.07.18-2.36.18-3.86s-.06-2.77-.18-3.87-.36-2.02-.71-2.78c-.34-.75-.81-1.32-1.4-1.7s-1.35-.57-2.28-.57-1.68.19-2.28.57c-.6.38-1.08.96-1.43,1.73-.33.72-.56,1.67-.68,2.83-.12,1.16-.18,2.44-.18,3.82,0,1.52.05,2.8.16,3.82s.34,1.94.69,2.75c.32.76.78,1.34,1.37,1.74s1.38.6,2.35.6c.92,0,1.68-.19,2.29-.57s1.07-.96,1.41-1.73h0Z" style="fill: #444;"/>
      </g>
      <polyline points="762.87 581.18 842.87 581.18 842.87 577.18 762.87 577.18 762.87 581.18" style="fill: #ab63fa;"/>
      <path d="M762.87,581.18v-4h80v4h-80M850.33,591.33v-22.71h71.86v22.71h-71.86M924.17,558.18h-166.3v42h166.3v-42" style="fill: #fff;"/>
      <g style="clip-path: url(#clippath-4);">
        <g>
          <rect x="850.33" y="568.62" width="71.86" height="22.71" style="fill: #fff;"/>
          <g>
            <path d="M863.08,580.38c.47.42.85.95,1.16,1.58s.45,1.46.45,2.46-.18,1.91-.54,2.74-.87,1.55-1.52,2.17c-.73.68-1.59,1.19-2.58,1.52s-2.08.49-3.26.49-2.4-.14-3.57-.43-2.13-.6-2.89-.94v-3.06h.22c.83.55,1.81,1,2.93,1.36s2.21.54,3.25.54c.62,0,1.27-.1,1.96-.31s1.25-.51,1.68-.91c.45-.43.78-.9,1-1.42.22-.52.33-1.17.33-1.96s-.12-1.43-.37-1.94-.59-.92-1.03-1.21c-.44-.3-.97-.51-1.6-.62s-1.3-.17-2.02-.17h-1.32v-2.43h1.03c1.48,0,2.67-.31,3.55-.93s1.33-1.53,1.33-2.72c0-.53-.11-.99-.34-1.38-.22-.39-.54-.72-.94-.97-.42-.25-.87-.43-1.35-.53s-1.02-.15-1.63-.15c-.93,0-1.91.17-2.96.5s-2.03.8-2.96,1.41h-.15v-3.06c.69-.34,1.62-.66,2.78-.95,1.16-.29,2.28-.43,3.36-.43s2,.1,2.81.29,1.54.51,2.2.94c.7.47,1.24,1.04,1.6,1.7s.54,1.44.54,2.33c0,1.21-.43,2.27-1.28,3.17-.85.9-1.86,1.47-3.02,1.71v.21c.47.08,1.01.24,1.61.49.61.25,1.12.56,1.54.93v-.02h0Z" style="fill: #444;"/>
            <path d="M884.04,579.97c0,3.92-.61,6.79-1.84,8.62-1.23,1.83-3.13,2.75-5.71,2.75s-4.53-.93-5.73-2.78c-1.21-1.86-1.81-4.71-1.81-8.55s.61-6.74,1.83-8.59,3.12-2.78,5.71-2.78,4.53.94,5.73,2.82c1.21,1.88,1.81,4.72,1.81,8.52h.01ZM880.18,586.62c.34-.79.57-1.72.7-2.79.12-1.07.18-2.36.18-3.86s-.06-2.77-.18-3.87-.36-2.02-.71-2.78c-.34-.75-.81-1.32-1.4-1.7s-1.35-.57-2.28-.57-1.68.19-2.28.57c-.6.38-1.08.96-1.43,1.73-.33.72-.56,1.67-.68,2.83-.12,1.16-.18,2.44-.18,3.82,0,1.52.05,2.8.16,3.82s.34,1.94.69,2.75c.32.76.78,1.34,1.37,1.74s1.38.6,2.35.6c.92,0,1.68-.19,2.29-.57s1.07-.96,1.41-1.73h0Z" style="fill: #444;"/>
            <path d="M903.11,579.97c0,3.92-.61,6.79-1.84,8.62-1.23,1.83-3.13,2.75-5.71,2.75s-4.53-.93-5.73-2.78c-1.21-1.86-1.81-4.71-1.81-8.55s.61-6.74,1.83-8.59,3.12-2.78,5.71-2.78,4.53.94,5.73,2.82c1.21,1.88,1.81,4.72,1.81,8.52h.01ZM899.26,586.62c.34-.79.57-1.72.7-2.79.12-1.07.18-2.36.18-3.86s-.06-2.77-.18-3.87-.36-2.02-.71-2.78c-.34-.75-.81-1.32-1.4-1.7s-1.35-.57-2.28-.57-1.68.19-2.28.57c-.6.38-1.08.96-1.43,1.73-.33.72-.56,1.67-.68,2.83-.12,1.16-.18,2.44-.18,3.82,0,1.52.05,2.8.16,3.82s.34,1.94.69,2.75c.32.76.78,1.34,1.37,1.74s1.38.6,2.35.6c.92,0,1.68-.19,2.29-.57s1.07-.96,1.41-1.73h0Z" style="fill: #444;"/>
            <path d="M922.18,579.97c0,3.92-.61,6.79-1.84,8.62-1.23,1.83-3.13,2.75-5.71,2.75s-4.53-.93-5.73-2.78c-1.21-1.86-1.81-4.71-1.81-8.55s.61-6.74,1.83-8.59,3.12-2.78,5.71-2.78,4.53.94,5.73,2.82c1.21,1.88,1.81,4.72,1.81,8.52h.01ZM918.33,586.62c.34-.79.57-1.72.7-2.79.12-1.07.18-2.36.18-3.86s-.06-2.77-.18-3.87-.36-2.02-.71-2.78c-.34-.75-.81-1.32-1.4-1.7s-1.35-.57-2.28-.57-1.68.19-2.28.57c-.6.38-1.08.96-1.43,1.73-.33.72-.56,1.67-.68,2.83-.12,1.16-.18,2.44-.18,3.82,0,1.52.05,2.8.16,3.82s.34,1.94.69,2.75c.32.76.78,1.34,1.37,1.74s1.38.6,2.35.6c.92,0,1.68-.19,2.29-.57s1.07-.96,1.41-1.73h0Z" style="fill: #444;"/>
          </g>
        </g>
      </g>
      <polyline points="842.87 577.18 762.87 577.18 762.87 581.18 842.87 581.18 842.87 577.18" style="fill: #00cc96;"/>
    </g>
  </g>
  <g>
    <path d="M442.23,790.1c-.64.28-1.23.54-1.75.79s-1.2.5-2.05.77c-.71.22-1.49.41-2.33.57s-1.76.24-2.77.24c-1.9,0-3.62-.27-5.18-.8s-2.9-1.37-4.05-2.5c-1.12-1.11-2-2.53-2.64-4.25s-.95-3.71-.95-5.99c0-2.16.3-4.08.91-5.78s1.49-3.13,2.64-4.31c1.11-1.14,2.46-2,4.03-2.6s3.33-.9,5.25-.9c1.41,0,2.81.17,4.21.51s2.96.94,4.67,1.79v4.13h-.26c-1.44-1.21-2.87-2.09-4.29-2.64s-2.94-.83-4.55-.83c-1.32,0-2.52.21-3.58.64s-2.01,1.09-2.84,2c-.81.88-1.44,1.99-1.89,3.33s-.68,2.89-.68,4.65.25,3.42.75,4.75,1.14,2.4,1.92,3.23c.82.87,1.78,1.51,2.87,1.92s2.25.62,3.47.62c1.68,0,3.25-.29,4.71-.86s2.84-1.44,4.11-2.58h.25v4.08l.02.02h0Z" style="fill: #444;"/>
    <path d="M462.14,792h-3.29v-2.09c-.29.2-.69.48-1.19.83s-.98.64-1.45.85c-.55.27-1.18.5-1.9.68s-1.55.27-2.51.27c-1.77,0-3.27-.59-4.5-1.76s-1.85-2.67-1.85-4.48c0-1.49.32-2.69.96-3.61s1.55-1.64,2.73-2.17c1.2-.53,2.63-.88,4.31-1.07s3.47-.33,5.4-.42v-.51c0-.75-.13-1.37-.4-1.86s-.64-.88-1.13-1.16c-.47-.27-1.03-.45-1.69-.54s-1.34-.14-2.06-.14c-.87,0-1.83.11-2.9.34s-2.17.56-3.3.99h-.18v-3.36c.64-.18,1.58-.37,2.79-.58s2.42-.32,3.6-.32c1.38,0,2.59.11,3.61.34s1.91.62,2.66,1.17c.74.54,1.3,1.24,1.69,2.09s.58,1.92.58,3.18v13.32h.02ZM458.86,787.17v-5.47c-1.01.06-2.19.15-3.56.26s-2.45.29-3.24.51c-.95.27-1.72.69-2.3,1.26s-.88,1.35-.88,2.35c0,1.12.34,1.97,1.02,2.54s1.72.85,3.11.85c1.16,0,2.22-.23,3.18-.68s1.85-.99,2.67-1.63h0Z" style="fill: #444;"/>
    <path d="M471.85,792h-3.3v-27.35h3.3v27.35Z" style="fill: #444;"/>
    <path d="M492.9,790.77c-1.1.53-2.15.94-3.14,1.23s-2.04.44-3.16.44c-1.42,0-2.72-.21-3.9-.62s-2.2-1.05-3.04-1.89c-.86-.84-1.52-1.91-1.99-3.2s-.7-2.79-.7-4.52c0-3.21.88-5.73,2.65-7.56s4.09-2.74,6.99-2.74c1.12,0,2.23.16,3.31.47s2.08.7,2.98,1.16v3.67h-.18c-1.01-.79-2.05-1.39-3.12-1.81s-2.12-.63-3.14-.63c-1.88,0-3.35.63-4.44,1.89s-1.63,3.11-1.63,5.55.53,4.19,1.59,5.46,2.55,1.91,4.47,1.91c.67,0,1.35-.09,2.04-.26s1.31-.4,1.86-.69c.48-.25.93-.51,1.35-.78s.76-.51,1-.71h.18v3.64h.02Z" style="fill: #444;"/>
    <path d="M513.42,792h-3.3v-2.18c-1.11.88-2.18,1.55-3.2,2.02s-2.14.7-3.38.7c-2.06,0-3.67-.63-4.82-1.89s-1.72-3.11-1.72-5.55v-12.74h3.3v11.18c0,1,.05,1.85.14,2.56s.29,1.32.6,1.82c.32.52.73.89,1.23,1.12s1.24.35,2.2.35c.86,0,1.79-.22,2.8-.67s1.96-1.01,2.84-1.71v-14.66h3.3v19.65h.01Z" style="fill: #444;"/>
    <path d="M523.26,792h-3.3v-27.35h3.3v27.35Z" style="fill: #444;"/>
    <path d="M545.06,792h-3.29v-2.09c-.29.2-.69.48-1.19.83s-.98.64-1.45.85c-.55.27-1.18.5-1.9.68s-1.55.27-2.51.27c-1.77,0-3.27-.59-4.5-1.76s-1.85-2.67-1.85-4.48c0-1.49.32-2.69.96-3.61s1.55-1.64,2.73-2.17c1.2-.53,2.63-.88,4.31-1.07s3.47-.33,5.4-.42v-.51c0-.75-.13-1.37-.4-1.86s-.64-.88-1.13-1.16c-.47-.27-1.03-.45-1.69-.54s-1.34-.14-2.06-.14c-.87,0-1.83.11-2.9.34s-2.17.56-3.3.99h-.18v-3.36c.64-.18,1.58-.37,2.79-.58s2.42-.32,3.6-.32c1.38,0,2.59.11,3.61.34s1.91.62,2.66,1.17c.74.54,1.3,1.24,1.69,2.09s.58,1.92.58,3.18v13.32h.02ZM541.77,787.17v-5.47c-1.01.06-2.19.15-3.56.26s-2.45.29-3.24.51c-.95.27-1.72.69-2.3,1.26s-.88,1.35-.88,2.35c0,1.12.34,1.97,1.02,2.54s1.72.85,3.11.85c1.16,0,2.22-.23,3.18-.68s1.85-.99,2.67-1.63h0Z" style="fill: #444;"/>
    <path d="M561.62,791.82c-.62.16-1.3.3-2.03.4s-1.39.16-1.96.16c-2,0-3.53-.54-4.57-1.62s-1.56-2.81-1.56-5.19v-10.44h-2.23v-2.78h2.23v-5.64h3.3v5.64h6.82v2.78h-6.82v8.95c0,1.03.02,1.84.07,2.42s.21,1.12.49,1.63c.26.47.61.81,1.06,1.03s1.14.33,2.07.33c.54,0,1.1-.08,1.69-.24s1.01-.29,1.27-.4h.18v2.97h0Z" style="fill: #444;"/>
    <path d="M569.16,769.08h-3.73v-3.43h3.73v3.43ZM568.95,792h-3.3v-19.63h3.3v19.63Z" style="fill: #444;"/>
    <path d="M592.22,782.19c0,3.2-.82,5.72-2.46,7.58s-3.84,2.78-6.59,2.78-4.98-.93-6.62-2.78-2.45-4.38-2.45-7.58.82-5.73,2.45-7.58,3.84-2.79,6.62-2.79,4.95.93,6.59,2.79,2.46,4.39,2.46,7.58ZM588.81,782.19c0-2.54-.5-4.43-1.49-5.67s-2.38-1.85-4.15-1.85-3.18.62-4.17,1.85-1.49,3.13-1.49,5.67.5,4.33,1.49,5.6,2.38,1.91,4.17,1.91,3.14-.63,4.14-1.89,1.5-3.13,1.5-5.62h0Z" style="fill: #444;"/>
    <path d="M613.75,792h-3.3v-11.18c0-.9-.05-1.75-.16-2.54s-.3-1.41-.58-1.85c-.29-.49-.71-.86-1.27-1.1s-1.27-.36-2.14-.36-1.85.22-2.83.67-1.93,1.01-2.83,1.71v14.66h-3.3v-19.63h3.3v2.18c1.03-.86,2.1-1.52,3.2-2s2.23-.72,3.39-.72c2.12,0,3.74.64,4.85,1.92s1.67,3.12,1.67,5.52v12.74-.02h0Z" style="fill: #444;"/>
    <path d="M645.03,775.97h-.18c-.49-.12-.97-.2-1.43-.25s-1.01-.08-1.64-.08c-1.02,0-2,.23-2.95.68s-1.86,1.03-2.74,1.75v13.94h-3.3v-19.63h3.3v2.9c1.31-1.05,2.47-1.8,3.47-2.24s2.02-.66,3.07-.66c.57,0,.99.01,1.25.04s.64.08,1.16.17v3.39h0Z" style="fill: #444;"/>
    <path d="M662.78,792h-3.29v-2.09c-.29.2-.69.48-1.19.83s-.98.64-1.45.85c-.55.27-1.18.5-1.9.68s-1.55.27-2.51.27c-1.77,0-3.27-.59-4.5-1.76s-1.85-2.67-1.85-4.48c0-1.49.32-2.69.96-3.61s1.55-1.64,2.73-2.17c1.2-.53,2.63-.88,4.31-1.07s3.47-.33,5.4-.42v-.51c0-.75-.13-1.37-.4-1.86s-.64-.88-1.13-1.16c-.47-.27-1.03-.45-1.69-.54s-1.34-.14-2.06-.14c-.87,0-1.83.11-2.9.34s-2.17.56-3.3.99h-.18v-3.36c.64-.18,1.58-.37,2.79-.58s2.42-.32,3.6-.32c1.38,0,2.59.11,3.61.34s1.91.62,2.66,1.17c.74.54,1.3,1.24,1.69,2.09s.58,1.92.58,3.18v13.32h.02ZM659.5,787.17v-5.47c-1.01.06-2.19.15-3.56.26s-2.45.29-3.24.51c-.95.27-1.72.69-2.3,1.26s-.88,1.35-.88,2.35c0,1.12.34,1.97,1.02,2.54s1.72.85,3.11.85c1.16,0,2.22-.23,3.18-.68s1.85-.99,2.67-1.63h0Z" style="fill: #444;"/>
    <path d="M679.34,791.82c-.62.16-1.3.3-2.03.4s-1.39.16-1.96.16c-2,0-3.53-.54-4.57-1.62s-1.56-2.81-1.56-5.19v-10.44h-2.23v-2.78h2.23v-5.64h3.3v5.64h6.82v2.78h-6.82v8.95c0,1.03.02,1.84.07,2.42s.21,1.12.49,1.63c.26.47.61.81,1.06,1.03s1.14.33,2.07.33c.54,0,1.1-.08,1.69-.24s1.01-.29,1.27-.4h.18v2.97h0Z" style="fill: #444;"/>
    <path d="M699.77,782.53h-14.47c0,1.21.18,2.26.54,3.16s.86,1.63,1.49,2.21c.61.56,1.33.98,2.17,1.27s1.76.42,2.77.42c1.34,0,2.68-.27,4.03-.8s2.32-1.06,2.89-1.57h.18v3.6c-1.11.47-2.25.86-3.41,1.18s-2.38.47-3.66.47c-3.26,0-5.8-.88-7.63-2.65s-2.74-4.27-2.74-7.51.88-5.76,2.63-7.65,4.06-2.83,6.92-2.83c2.65,0,4.69.77,6.13,2.32s2.15,3.74,2.15,6.59v1.79h0ZM696.55,779.99c-.01-1.73-.45-3.08-1.31-4.03s-2.17-1.42-3.93-1.42-3.18.52-4.23,1.56-1.64,2.34-1.78,3.88h11.25Z" style="fill: #444;"/>
  </g>
  <g>
    <path d="M36,471.8v10.34h-2.67v-3.43H12.5v3.43h-2.67v-10.34h2.67v3.43h20.83v-3.43h2.67Z" style="fill: #444;"/>
    <path d="M36,449.72v3.3h-11.18c-.9,0-1.75.05-2.54.16s-1.41.3-1.85.58c-.49.29-.86.71-1.1,1.27s-.36,1.27-.36,2.14.22,1.85.67,2.83,1.01,1.93,1.71,2.83h14.66v3.3h-19.63v-3.3h2.18c-.86-1.03-1.52-2.1-2-3.2s-.72-2.23-.72-3.39c0-2.12.64-3.74,1.92-4.85s3.12-1.67,5.52-1.67h12.74-.02,0Z" style="fill: #444;"/>
    <path d="M11.85,432.79v.18c-.11.36-.21.84-.33,1.42s-.17,1.1-.17,1.55c0,1.42.31,2.45.94,3.08s1.76.96,3.4.96h.67v-5.96h2.78v5.85h16.86v3.3h-16.86v2.23h-2.78v-2.23h-.65c-2.33,0-4.12-.58-5.37-1.74s-1.87-2.84-1.87-5.03c0-.74.04-1.4.11-2s.15-1.13.25-1.63h3.02v.02h0Z" style="fill: #444;"/>
    <path d="M26.53,414.27v14.47c1.21,0,2.26-.18,3.16-.54s1.63-.86,2.21-1.49c.56-.61.98-1.33,1.27-2.17s.42-1.76.42-2.77c0-1.34-.27-2.68-.8-4.03s-1.06-2.32-1.57-2.89v-.18h3.6c.47,1.11.86,2.25,1.18,3.41s.47,2.38.47,3.66c0,3.26-.88,5.8-2.65,7.63s-4.27,2.74-7.51,2.74-5.76-.88-7.65-2.63-2.83-4.06-2.83-6.92c0-2.65.77-4.69,2.32-6.13s3.74-2.15,6.59-2.15h1.79ZM23.99,417.48c-1.73.01-3.08.45-4.03,1.31s-1.42,2.17-1.42,3.93.52,3.18,1.56,4.23,2.34,1.64,3.88,1.78v-11.25h.01Z" style="fill: #444;"/>
    <path d="M34.77,394.74c.53,1.1.94,2.15,1.23,3.14s.44,2.04.44,3.16c0,1.42-.21,2.72-.62,3.9s-1.05,2.2-1.89,3.04c-.84.86-1.91,1.52-3.2,1.99s-2.79.7-4.52.7c-3.21,0-5.73-.88-7.56-2.65s-2.74-4.09-2.74-6.99c0-1.12.16-2.23.47-3.31s.7-2.08,1.16-2.98h3.67v.18c-.79,1.01-1.39,2.05-1.81,3.12s-.63,2.12-.63,3.14c0,1.88.63,3.35,1.89,4.44s3.11,1.63,5.55,1.63,4.19-.53,5.46-1.59c1.27-1.06,1.91-2.55,1.91-4.47,0-.67-.09-1.35-.26-2.04s-.4-1.31-.69-1.86c-.25-.48-.51-.93-.78-1.35s-.51-.76-.71-1v-.18h3.64v-.02h-.01Z" style="fill: #444;"/>
    <path d="M35.82,380.3c.16.62.3,1.3.4,2.03s.16,1.39.16,1.96c0,2-.54,3.53-1.62,4.57s-2.81,1.56-5.19,1.56h-10.44v2.23h-2.78v-2.23h-5.64v-3.3h5.64v-6.82h2.78v6.82h8.95c1.03,0,1.84-.02,2.42-.07s1.12-.21,1.63-.49c.47-.26.81-.61,1.03-1.06s.33-1.14.33-2.07c0-.54-.08-1.1-.24-1.69s-.29-1.01-.4-1.27v-.18h2.97Z" style="fill: #444;"/>
    <path d="M13.08,372.76v3.73h-3.43v-3.73h3.43ZM36,372.97v3.3h-19.63v-3.3h19.63Z" style="fill: #444;"/>
    <path d="M26.19,349.7c3.2,0,5.72.82,7.58,2.46s2.78,3.84,2.78,6.59-.93,4.98-2.78,6.62-4.38,2.45-7.58,2.45-5.73-.82-7.58-2.45-2.79-3.84-2.79-6.62.93-4.95,2.79-6.59,4.39-2.46,7.58-2.46ZM26.19,353.11c-2.54,0-4.43.5-5.67,1.49s-1.85,2.38-1.85,4.15.62,3.18,1.85,4.17,3.13,1.49,5.67,1.49,4.33-.5,5.6-1.49,1.91-2.38,1.91-4.17-.63-3.14-1.89-4.14-3.13-1.5-5.62-1.5h0Z" style="fill: #444;"/>
    <path d="M36,328.17v3.3h-11.18c-.9,0-1.75.05-2.54.16s-1.41.3-1.85.58c-.49.29-.86.71-1.1,1.27s-.36,1.27-.36,2.14.22,1.85.67,2.83,1.01,1.93,1.71,2.83h14.66v3.3h-19.63v-3.3h2.18c-.86-1.03-1.52-2.1-2-3.2s-.72-2.23-.72-3.39c0-2.12.64-3.74,1.92-4.85s3.12-1.67,5.52-1.67h12.74-.02,0Z" style="fill: #444;"/>
    <path d="M19.97,296.9v.18c-.12.49-.2.97-.25,1.43s-.08,1.01-.08,1.64c0,1.02.23,2,.68,2.95s1.03,1.86,1.75,2.74h13.94v3.3h-19.63v-3.3h2.9c-1.05-1.31-1.8-2.47-2.24-3.47s-.66-2.02-.66-3.07c0-.57.01-.99.04-1.25s.08-.64.17-1.16h3.39-.01Z" style="fill: #444;"/>
    <path d="M26.53,277.35v14.47c1.21,0,2.26-.18,3.16-.54s1.63-.86,2.21-1.49c.56-.61.98-1.33,1.27-2.17s.42-1.76.42-2.77c0-1.34-.27-2.68-.8-4.03s-1.06-2.32-1.57-2.89v-.18h3.6c.47,1.11.86,2.25,1.18,3.41s.47,2.38.47,3.66c0,3.26-.88,5.8-2.65,7.63s-4.27,2.74-7.51,2.74-5.76-.88-7.65-2.63-2.83-4.06-2.83-6.92c0-2.65.77-4.69,2.32-6.13s3.74-2.15,6.59-2.15h1.79ZM23.99,280.57c-1.73.01-3.08.45-4.03,1.31s-1.42,2.17-1.42,3.93.52,3.18,1.56,4.23,2.34,1.64,3.88,1.78v-11.25h.01Z" style="fill: #444;"/>
    <path d="M34.77,257.82c.53,1.1.94,2.15,1.23,3.14s.44,2.04.44,3.16c0,1.42-.21,2.72-.62,3.9s-1.05,2.2-1.89,3.04c-.84.86-1.91,1.52-3.2,1.99s-2.79.7-4.52.7c-3.21,0-5.73-.88-7.56-2.65s-2.74-4.09-2.74-6.99c0-1.12.16-2.23.47-3.31s.7-2.08,1.16-2.98h3.67v.18c-.79,1.01-1.39,2.05-1.81,3.12s-.63,2.12-.63,3.14c0,1.88.63,3.35,1.89,4.44s3.11,1.63,5.55,1.63,4.19-.53,5.46-1.59c1.27-1.06,1.91-2.55,1.91-4.47,0-.67-.09-1.35-.26-2.04s-.4-1.31-.69-1.86c-.25-.48-.51-.93-.78-1.35s-.51-.76-.71-1v-.18h3.64v-.02h-.01Z" style="fill: #444;"/>
    <path d="M36,238.33v3.29h-2.09c.2.29.48.69.83,1.19s.64.98.85,1.45c.27.55.5,1.18.68,1.9s.27,1.55.27,2.51c0,1.77-.59,3.27-1.76,4.5s-2.67,1.85-4.48,1.85c-1.49,0-2.69-.32-3.61-.96s-1.64-1.55-2.17-2.73c-.53-1.2-.88-2.63-1.07-4.31s-.33-3.47-.42-5.4h-.51c-.75,0-1.37.13-1.86.4s-.88.64-1.16,1.13c-.27.47-.45,1.03-.54,1.69s-.14,1.34-.14,2.06c0,.87.11,1.83.34,2.9s.56,2.17.99,3.3v.18h-3.36c-.18-.64-.37-1.58-.58-2.79s-.32-2.42-.32-3.6c0-1.38.11-2.59.34-3.61s.62-1.91,1.17-2.66c.54-.74,1.24-1.3,2.09-1.69s1.92-.58,3.18-.58h13.32v-.02h0ZM31.17,241.61h-5.47c.06,1.01.15,2.19.26,3.56s.29,2.45.51,3.24c.27.95.69,1.72,1.26,2.3s1.35.88,2.35.88c1.12,0,1.97-.34,2.54-1.02s.85-1.72.85-3.11c0-1.16-.23-2.22-.68-3.18s-.99-1.85-1.63-2.67h0Z" style="fill: #444;"/>
    <path d="M36,228.62v3.3H8.65v-3.3h27.35Z" style="fill: #444;"/>
    <path d="M36,218.74v3.3H8.65v-3.3h27.35Z" style="fill: #444;"/>
  </g>
</svg>