<?xml version="1.0" encoding="UTF-8"?>
<svg id="Layer_1" data-name="Layer 1" xmlns="http://www.w3.org/2000/svg" width="1000" height="800" xmlns:xlink="http://www.w3.org/1999/xlink" viewBox="0 0 1000 800">
  <defs>
    <clipPath id="clippath">
      <polyline points="120 0 1000 0 1000 700 120 700 120 0" style="fill: none;"/>
    </clipPath>
    <clipPath id="clippath-1">
      <polyline points="164 14 469 14 469 192 164 192 164 14" style="fill: none;"/>
    </clipPath>
  </defs>
  <polyline points="0 0 1000 0 1000 800 0 800 0 0" style="fill: #fff;"/>
  <polyline points="169.75 0 169.75 700 170.75 700 170.75 0 169.75 0" style="fill: #eee;"/>
  <polyline points="429.58 0 429.58 700 430.58 700 430.58 0 429.58 0" style="fill: #eee;"/>
  <polyline points="689.42 0 689.42 700 690.42 700 690.42 0" style="fill: #eee;"/>
  <polyline points="949.25 0 949.25 700 950.25 700 950.25 0" style="fill: #eee;"/>
  <polyline points="120 670.48 1000 670.48 1000 669.48 120 669.48" style="fill: #eee;"/>
  <polyline points="120 576.92 1000 576.92 1000 575.92 120 575.92" style="fill: #eee;"/>
  <polyline points="120 483.36 1000 483.36 1000 482.36 120 482.36" style="fill: #eee;"/>
  <polyline points="120 389.8 1000 389.8 1000 388.8 120 388.8" style="fill: #eee;"/>
  <polyline points="120 296.23 1000 296.23 1000 295.23 120 295.23" style="fill: #eee;"/>
  <polyline points="120 202.67 1000 202.67 1000 201.67 120 201.67" style="fill: #eee;"/>
  <polyline points="120 109.11 1000 109.11 1000 108.11 120 108.11 120 109.11" style="fill: #eee;"/>
  <polyline points="120 15.55 1000 15.55 1000 14.55 120 14.55" style="fill: #eee;"/>
  <g style="clip-path: url(#clippath);">
    <path d="M947.45,150.99l2.85-.64-1.09-4.88-2.85.64,1.09,4.88ZM918.17,157.52l14.64-3.27-1.09-4.88-14.64,3.27,1.09,4.88ZM888.89,164.06l14.64-3.27-1.09-4.88-14.64,3.27,1.09,4.88ZM859.61,170.6l14.64-3.27-1.09-4.88-14.64,3.27,1.09,4.88ZM830.33,177.13l14.64-3.27-1.09-4.88-14.64,3.27,1.09,4.88ZM801.05,183.67l14.64-3.27-1.09-4.88-14.64,3.27,1.09,4.88ZM771.77,190.21l14.64-3.27-1.09-4.88-14.64,3.27,1.09,4.88ZM742.49,196.74l14.64-3.27-1.09-4.88-14.64,3.27,1.09,4.88ZM713.21,203.28l14.64-3.27-1.09-4.88-14.64,3.27,1.09,4.88ZM683.47,208.99l6.83-.59,8.27-1.85-1.09-4.88-7.95,1.77-6.5.56.43,4.98h0ZM653.58,211.57l14.94-1.29-.43-4.98-14.94,1.29.43,4.98ZM623.69,214.15l14.94-1.29-.43-4.98-14.94,1.29.43,4.98ZM593.8,216.73l14.94-1.29-.43-4.98-14.94,1.29.43,4.98ZM563.91,219.32l14.94-1.29-.43-4.98-14.94,1.29.43,4.98ZM534.03,221.9l14.94-1.29-.43-4.98-14.94,1.29.43,4.98ZM504.14,224.48l14.94-1.29-.43-4.98-14.94,1.29.43,4.98ZM474.25,227.06l14.94-1.29-.43-4.98-14.94,1.29.43,4.98ZM444.36,229.65l14.94-1.29-.43-4.98-14.94,1.29.43,4.98ZM418.44,239.46l12.34-8.53-2.84-4.11-12.34,8.53,2.84,4.11ZM393.76,256.52l12.34-8.53-2.84-4.11-12.34,8.53,2.84,4.11ZM369.08,273.58l12.34-8.53-2.84-4.11-12.34,8.53,2.84,4.11ZM344.41,290.64l12.34-8.53-2.84-4.11-12.34,8.53,2.84,4.11ZM319.73,307.7l12.34-8.53-2.84-4.11-12.34,8.53,2.84,4.11ZM295.05,324.76l12.34-8.53-2.84-4.11-12.34,8.53,2.84,4.11ZM270.38,341.82l12.34-8.53-2.84-4.11-12.34,8.53,2.84,4.11ZM245.7,358.88l12.34-8.53-2.84-4.11-12.34,8.53,2.84,4.11ZM221.02,375.94l12.34-8.53-2.84-4.11-12.34,8.53,2.84,4.11ZM196.35,393.01l12.34-8.53-2.84-4.11-12.34,8.53,2.84,4.11ZM171.67,410.07l12.34-8.53-2.84-4.11-12.34,8.53,2.84,4.11Z" style="fill: #636efa;"/>
    <rect x="165.25" y="403.01" width="10" height="10" style="fill: #636efa;"/>
    <rect x="425.08" y="223.37" width="10" height="10" style="fill: #636efa;"/>
    <rect x="684.92" y="200.92" width="10" height="10" style="fill: #636efa;"/>
    <rect x="944.75" y="142.91" width="10" height="10" style="fill: #636efa;"/>
    <path d="M932.37,386.74l14.39-4.25-1.42-4.8-14.39,4.25,1.42,4.8ZM903.6,395.23l14.39-4.25-1.42-4.8-14.39,4.25,1.42,4.8ZM874.83,403.73l14.39-4.25-1.42-4.8-14.39,4.25,1.42,4.8ZM846.05,412.22l14.39-4.25-1.42-4.8-14.39,4.25,1.42,4.8ZM817.28,420.72l14.39-4.25-1.42-4.8-14.39,4.25,1.42,4.8ZM788.51,429.22l14.39-4.25-1.42-4.8-14.39,4.25,1.42,4.8ZM759.74,437.71l14.39-4.25-1.42-4.8-14.39,4.25,1.42,4.8ZM730.97,446.21l14.39-4.25-1.42-4.8-14.39,4.25,1.42,4.8ZM702.19,454.7l14.39-4.25-1.42-4.8-14.39,4.25,1.42,4.8ZM674.05,464.45l14.01-5.35-1.78-4.67-14.01,5.35,1.78,4.67ZM646.02,475.15l14.01-5.35-1.78-4.67-14.01,5.35,1.78,4.67ZM618,485.85l14.01-5.35-1.78-4.67-14.01,5.35,1.78,4.67ZM589.97,496.55l14.01-5.35-1.78-4.67-14.01,5.35,1.78,4.67ZM561.94,507.25l14.01-5.35-1.78-4.67-14.01,5.35,1.78,4.67ZM533.91,517.94l14.01-5.35-1.78-4.67-14.01,5.35,1.78,4.67ZM505.88,528.64l14.01-5.35-1.78-4.67-14.01,5.35,1.78,4.67ZM477.86,539.34l14.01-5.35-1.78-4.67-14.01,5.35,1.78,4.67ZM449.83,550.04l14.01-5.35-1.78-4.67-14.01,5.35,1.78,4.67ZM421.89,560.86l9.1-3.64,4.83-1.84-1.78-4.67-4.86,1.86-9.13,3.65,1.86,4.64ZM394.04,572l13.93-5.57-1.86-4.64-13.93,5.57,1.86,4.64ZM366.18,583.13l13.93-5.57-1.86-4.64-13.93,5.57,1.86,4.64ZM338.32,594.27l13.93-5.57-1.86-4.64-13.93,5.57,1.86,4.64ZM310.46,605.4l13.93-5.57-1.86-4.64-13.93,5.57,1.86,4.64ZM282.61,616.53l13.93-5.57-1.86-4.64-13.93,5.57,1.86,4.64ZM254.75,627.67l13.93-5.57-1.86-4.64-13.93,5.57,1.86,4.64ZM226.89,638.8l13.93-5.57-1.86-4.64-13.93,5.57,1.86,4.64ZM199.04,649.94l13.93-5.57-1.86-4.64-13.93,5.57,1.86,4.64ZM171.18,661.07l13.93-5.57-1.86-4.64-13.93,5.57,1.86,4.64Z" style="fill: #00cc96;"/>
    <rect x="165.25" y="653.75" width="10" height="10" style="fill: #00cc96;"/>
    <rect x="425.08" y="549.9" width="10" height="10" style="fill: #00cc96;"/>
    <rect x="684.92" y="450.72" width="10" height="10" style="fill: #00cc96;"/>
    <rect x="944.75" y="374" width="10" height="10" style="fill: #00cc96;"/>
    <polygon points="171.27 477.65 430.65 361.84 690.24 353.43 950.3 294.43 949.2 289.55 689.6 348.45 429.51 356.88 169.23 473.09 171.27 477.65" style="fill: #636efa;"/>
    <rect x="165.25" y="470.37" width="10" height="10" style="fill: #636efa;"/>
    <rect x="425.08" y="354.36" width="10" height="10" style="fill: #636efa;"/>
    <rect x="684.92" y="345.94" width="10" height="10" style="fill: #636efa;"/>
    <rect x="944.75" y="286.99" width="10" height="10" style="fill: #636efa;"/>
    <polygon points="171.71 397.87 431.24 211.91 690.69 123.16 950.48 43.64 949.02 38.86 689.15 118.4 428.92 207.41 168.79 393.81 171.71 397.87" style="fill: #00cc96;"/>
    <rect x="165.25" y="390.84" width="10" height="10" style="fill: #00cc96;"/>
    <rect x="425.08" y="204.66" width="10" height="10" style="fill: #00cc96;"/>
    <rect x="684.92" y="115.78" width="10" height="10" style="fill: #00cc96;"/>
    <rect x="944.75" y="36.25" width="10" height="10" style="fill: #00cc96;"/>
  </g>
  <path d="M201.55,720.88c-.43-.85-1.04-1.54-1.82-2.08-.74-.51-1.56-.86-2.45-1.06s-1.92-.3-3.11-.3c-.32,0-.7,0-1.14.03s-.87.05-1.29.09v-5.8h10.3v-2.56h-13.12v11.24c.58-.12,1.26-.23,2.06-.35s1.62-.18,2.48-.18,1.71.08,2.44.23c.73.15,1.35.41,1.85.78.46.31.82.73,1.08,1.25s.39,1.15.39,1.9-.11,1.45-.33,2.04-.54,1.09-.97,1.51c-.51.49-1.09.83-1.74,1.03s-1.32.29-2.01.29c-1.04,0-2.09-.18-3.16-.54-1.07-.36-2.01-.79-2.81-1.3h-.21v3.09c.76.35,1.69.65,2.8.9,1.1.25,2.25.37,3.44.37,1.28,0,2.4-.18,3.38-.55.97-.37,1.81-.89,2.51-1.57.64-.63,1.15-1.42,1.52-2.34s.56-1.9.56-2.92c0-1.28-.21-2.34-.64-3.19ZM178.01,728.47c-.61.38-1.37.57-2.29.57-.98,0-1.76-.2-2.35-.6s-1.05-.98-1.37-1.74c-.35-.81-.58-1.73-.69-2.75s-.16-2.3-.16-3.82c0-1.39.06-2.66.18-3.82s.35-2.1.68-2.83c.35-.77.83-1.35,1.43-1.73s1.36-.57,2.28-.57,1.69.19,2.28.57,1.06.95,1.4,1.7c.35.76.59,1.69.71,2.78s.18,2.38.18,3.87-.06,2.79-.18,3.86c-.12,1.07-.35,2-.7,2.79-.33.77-.8,1.35-1.41,1.73ZM181.46,711.57c-1.21-1.88-3.12-2.82-5.73-2.82s-4.49.93-5.71,2.78-1.83,4.71-1.83,8.59.6,6.7,1.81,8.55,3.12,2.78,5.73,2.78,4.48-.92,5.71-2.75c1.23-1.83,1.84-4.7,1.84-8.62s-.6-6.64-1.81-8.52ZM162.46,726.83h-3.5v4.17h3.5v-4.17ZM148.02,728.47c-.61.38-1.37.57-2.29.57-.98,0-1.76-.2-2.35-.6s-1.05-.98-1.37-1.74c-.35-.81-.58-1.73-.69-2.75s-.16-2.3-.16-3.82c0-1.39.06-2.66.18-3.82s.35-2.1.68-2.83c.35-.77.83-1.35,1.43-1.73s1.36-.57,2.28-.57,1.69.19,2.28.57,1.06.95,1.4,1.7c.35.76.59,1.69.71,2.78s.18,2.38.18,3.87-.06,2.79-.18,3.86c-.12,1.07-.35,2-.7,2.79-.33.77-.8,1.35-1.41,1.73ZM151.47,711.57c-1.21-1.88-3.12-2.82-5.73-2.82s-4.49.93-5.71,2.78-1.83,4.71-1.83,8.59.6,6.7,1.81,8.55,3.12,2.78,5.73,2.78,4.48-.92,5.71-2.75c1.23-1.83,1.84-4.7,1.84-8.62s-.6-6.64-1.81-8.52Z" style="fill: #444;"/>
  <path d="M451.42,728.77h-4.45v-19.66h-2.27c-.04.63-.19,1.14-.45,1.52-.26.38-.61.69-1.06.93-.36.2-.89.34-1.6.45-.7.1-1.36.15-1.98.15v1.99h4.54v14.62h-4.54v2.23h11.81v-2.23ZM431.83,726.83h-3.5v4.17h3.5v-4.17ZM417.39,728.47c-.61.38-1.37.57-2.29.57-.98,0-1.76-.2-2.35-.6s-1.05-.98-1.37-1.74c-.35-.81-.58-1.73-.69-2.75s-.16-2.3-.16-3.82c0-1.39.06-2.66.18-3.82s.35-2.1.68-2.83c.35-.77.83-1.35,1.43-1.73s1.36-.57,2.28-.57,1.69.19,2.28.57,1.06.95,1.4,1.7c.35.76.59,1.69.71,2.78s.18,2.38.18,3.87-.06,2.79-.18,3.86c-.12,1.07-.35,2-.7,2.79-.33.77-.8,1.35-1.41,1.73ZM420.84,711.57c-1.21-1.88-3.12-2.82-5.73-2.82s-4.49.93-5.71,2.78-1.83,4.71-1.83,8.59.6,6.7,1.81,8.55,3.12,2.78,5.73,2.78,4.48-.92,5.71-2.75c1.23-1.83,1.84-4.7,1.84-8.62s-.6-6.64-1.81-8.52Z" style="fill: #444;"/>
  <path d="M721.22,720.88c-.43-.85-1.04-1.54-1.82-2.08-.74-.51-1.56-.86-2.45-1.06s-1.92-.3-3.11-.3c-.32,0-.7,0-1.14.03s-.87.05-1.29.09v-5.8h10.3v-2.56h-13.12v11.24c.58-.12,1.26-.23,2.06-.35s1.62-.18,2.48-.18,1.71.08,2.44.23c.73.15,1.35.41,1.85.78.46.31.82.73,1.08,1.25s.39,1.15.39,1.9-.11,1.45-.33,2.04-.54,1.09-.97,1.51c-.51.49-1.09.83-1.74,1.03s-1.32.29-2.01.29c-1.04,0-2.09-.18-3.16-.54-1.07-.36-2.01-.79-2.81-1.3h-.21v3.09c.76.35,1.69.65,2.8.9,1.1.25,2.25.37,3.44.37,1.28,0,2.4-.18,3.38-.55.97-.37,1.81-.89,2.51-1.57.64-.63,1.15-1.42,1.52-2.34s.56-1.9.56-2.92c0-1.28-.21-2.34-.64-3.19ZM701.72,728.77h-4.45v-19.66h-2.27c-.04.63-.19,1.14-.45,1.52-.26.38-.61.69-1.06.93-.36.2-.89.34-1.6.45-.7.1-1.36.15-1.98.15v1.99h4.54v14.62h-4.54v2.23h11.81v-2.23ZM682.13,726.83h-3.5v4.17h3.5v-4.17ZM667.69,728.47c-.61.38-1.37.57-2.29.57-.98,0-1.76-.2-2.35-.6s-1.05-.98-1.37-1.74c-.35-.81-.58-1.73-.69-2.75s-.16-2.3-.16-3.82c0-1.39.06-2.66.18-3.82s.35-2.1.68-2.83c.35-.77.83-1.35,1.43-1.73s1.36-.57,2.28-.57,1.69.19,2.28.57,1.06.95,1.4,1.7c.35.76.59,1.69.71,2.78s.18,2.38.18,3.87-.06,2.79-.18,3.86c-.12,1.07-.35,2-.7,2.79-.33.77-.8,1.35-1.41,1.73ZM671.14,711.57c-1.21-1.88-3.12-2.82-5.73-2.82s-4.49.93-5.71,2.78-1.83,4.71-1.83,8.59.6,6.7,1.81,8.55,3.12,2.78,5.73,2.78,4.48-.92,5.71-2.75c1.23-1.83,1.84-4.7,1.84-8.62s-.6-6.64-1.81-8.52Z" style="fill: #444;"/>
  <path d="M972.33,728.5h-11.73c.97-.82,2.01-1.71,3.12-2.67s2.19-1.96,3.24-2.98c.73-.71,1.35-1.36,1.87-1.95s.96-1.18,1.34-1.79c.41-.64.72-1.33.93-2.04.21-.72.31-1.49.31-2.32,0-1.85-.63-3.31-1.9-4.39s-3.02-1.62-5.26-1.62c-1.08,0-2.2.14-3.36.42s-2.08.6-2.78.94v3.08h.15c.99-.64,2-1.12,3.03-1.44s2-.47,2.89-.47c1.34,0,2.38.32,3.13.96s1.12,1.53,1.12,2.66c0,1.24-.35,2.39-1.04,3.46-.69,1.07-1.98,2.51-3.85,4.33-.89.87-1.85,1.74-2.88,2.62s-2.06,1.76-3.08,2.64v3.06h14.77v-2.5ZM951.5,726.83h-3.5v4.17h3.5v-4.17ZM937.06,728.47c-.61.38-1.37.57-2.29.57-.98,0-1.76-.2-2.35-.6s-1.05-.98-1.37-1.74c-.35-.81-.58-1.73-.69-2.75s-.16-2.3-.16-3.82c0-1.39.06-2.66.18-3.82s.35-2.1.68-2.83c.35-.77.83-1.35,1.43-1.73s1.36-.57,2.28-.57,1.69.19,2.28.57,1.06.95,1.4,1.7c.35.76.59,1.69.71,2.78s.18,2.38.18,3.87-.06,2.79-.18,3.86c-.12,1.07-.35,2-.7,2.79-.33.77-.8,1.35-1.41,1.73ZM940.51,711.57c-1.21-1.88-3.12-2.82-5.73-2.82s-4.49.93-5.71,2.78-1.83,4.71-1.83,8.59.6,6.7,1.81,8.55,3.12,2.78,5.73,2.78,4.48-.92,5.71-2.75c1.23-1.83,1.84-4.7,1.84-8.62s-.6-6.64-1.81-8.52Z" style="fill: #444;"/>
  <path d="M117.05,677.98h-11.73c.97-.82,2.01-1.71,3.12-2.67s2.19-1.96,3.24-2.98c.73-.71,1.35-1.36,1.87-1.95s.96-1.18,1.34-1.79c.41-.64.72-1.33.93-2.04.21-.72.31-1.49.31-2.32,0-1.85-.63-3.31-1.9-4.39s-3.02-1.62-5.26-1.62c-1.08,0-2.2.14-3.36.42s-2.08.6-2.78.94v3.08h.15c.99-.64,2-1.12,3.03-1.44s2-.47,2.89-.47c1.34,0,2.38.32,3.13.96s1.12,1.53,1.12,2.66c0,1.24-.35,2.39-1.04,3.46-.69,1.07-1.98,2.51-3.85,4.33-.89.87-1.85,1.74-2.88,2.62s-2.06,1.76-3.08,2.64v3.06h14.77v-2.5ZM96.22,676.31h-3.5v4.17h3.5v-4.17ZM81.78,677.95c-.61.38-1.37.57-2.29.57-.98,0-1.76-.2-2.35-.6s-1.05-.98-1.37-1.74c-.35-.81-.58-1.73-.69-2.75s-.16-2.3-.16-3.82c0-1.39.06-2.66.18-3.82s.35-2.1.68-2.83c.35-.77.83-1.35,1.43-1.73s1.36-.57,2.28-.57,1.69.19,2.28.57,1.06.95,1.4,1.7c.35.76.59,1.69.71,2.78s.18,2.38.18,3.87-.06,2.79-.18,3.86c-.12,1.07-.35,2-.7,2.79-.33.77-.8,1.35-1.41,1.73ZM85.23,661.05c-1.21-1.88-3.12-2.82-5.73-2.82s-4.49.93-5.71,2.78-1.83,4.71-1.83,8.59.6,6.7,1.81,8.55,3.12,2.78,5.73,2.78,4.48-.92,5.71-2.75c1.23-1.83,1.84-4.7,1.84-8.62s-.6-6.64-1.81-8.52Z" style="fill: #444;"/>
  <path d="M113.59,575.49c-.61-.25-1.14-.41-1.61-.49v-.21c1.16-.23,2.17-.8,3.02-1.71.85-.9,1.28-1.96,1.28-3.17,0-.89-.18-1.67-.54-2.33s-.89-1.23-1.6-1.7c-.65-.43-1.39-.74-2.2-.94s-1.75-.29-2.81-.29-2.2.14-3.36.43c-1.16.29-2.08.6-2.78.95v3.06h.15c.93-.61,1.91-1.07,2.96-1.41s2.03-.5,2.96-.5c.61,0,1.15.05,1.63.15s.93.27,1.35.53c.4.25.71.58.94.97.22.4.34.86.34,1.38,0,1.19-.44,2.1-1.33,2.72-.88.62-2.07.93-3.55.93h-1.03v2.43h1.32c.72,0,1.4.06,2.02.17s1.16.32,1.6.62c.44.29.78.7,1.03,1.21.25.51.37,1.16.37,1.94s-.11,1.45-.33,1.96-.55.99-1,1.42c-.43.4-.99.7-1.68.91s-1.35.31-1.96.31c-1.04,0-2.13-.18-3.25-.54s-2.1-.82-2.93-1.36h-.22v3.06c.75.34,1.71.66,2.89.94,1.17.29,2.36.43,3.57.43s2.27-.16,3.26-.49c.99-.33,1.85-.83,2.59-1.52.65-.62,1.16-1.34,1.52-2.17s.54-1.74.54-2.74-.15-1.83-.45-2.46-.69-1.16-1.16-1.58c-.42-.37-.93-.68-1.54-.93ZM96.22,582.75h-3.5v4.17h3.5v-4.17ZM81.78,584.39c-.61.38-1.37.57-2.29.57-.98,0-1.76-.2-2.35-.6s-1.05-.98-1.37-1.74c-.35-.81-.58-1.73-.69-2.75s-.16-2.3-.16-3.82c0-1.39.06-2.66.18-3.82s.35-2.1.68-2.83c.35-.77.83-1.35,1.43-1.73s1.36-.57,2.28-.57,1.69.19,2.28.57,1.06.95,1.4,1.7c.35.76.59,1.69.71,2.78s.18,2.38.18,3.87-.06,2.79-.18,3.86c-.12,1.07-.35,2-.7,2.79-.33.77-.8,1.35-1.41,1.73ZM85.23,567.49c-1.21-1.88-3.12-2.82-5.73-2.82s-4.49.93-5.71,2.78-1.83,4.71-1.83,8.59.6,6.7,1.81,8.55,3.12,2.78,5.73,2.78,4.48-.92,5.71-2.75c1.23-1.83,1.84-4.7,1.84-8.62s-.6-6.64-1.81-8.52Z" style="fill: #444;"/>
  <path d="M103.05,484.88l8.45-9.84v9.84h-8.45ZM117.55,484.88h-3.24v-13.33h-2.7l-10.56,12.3v3.37h10.44v6.14h2.81v-6.14h3.24v-2.34ZM96.22,489.19h-3.5v4.17h3.5v-4.17ZM81.78,490.83c-.61.38-1.37.57-2.29.57-.98,0-1.76-.2-2.35-.6s-1.05-.98-1.37-1.74c-.35-.81-.58-1.73-.69-2.75s-.16-2.3-.16-3.82c0-1.39.06-2.66.18-3.82s.35-2.1.68-2.83c.35-.77.83-1.35,1.43-1.73s1.36-.57,2.28-.57,1.69.19,2.28.57,1.06.95,1.4,1.7c.35.76.59,1.69.71,2.78s.18,2.38.18,3.87-.06,2.79-.18,3.86c-.12,1.07-.35,2-.7,2.79-.33.77-.8,1.35-1.41,1.73ZM85.23,473.93c-1.21-1.88-3.12-2.82-5.73-2.82s-4.49.93-5.71,2.78-1.83,4.71-1.83,8.59.6,6.7,1.81,8.55,3.12,2.78,5.73,2.78,4.48-.92,5.71-2.75c1.23-1.83,1.84-4.7,1.84-8.62s-.6-6.64-1.81-8.52Z" style="fill: #444;"/>
  <path d="M116.23,389.68c-.43-.85-1.04-1.54-1.82-2.08-.74-.51-1.56-.86-2.45-1.06s-1.92-.3-3.11-.3c-.32,0-.7,0-1.14.03s-.87.05-1.29.09v-5.8h10.3v-2.56h-13.12v11.24c.58-.12,1.26-.23,2.06-.35s1.62-.18,2.48-.18,1.71.08,2.44.23c.73.15,1.35.41,1.85.78.46.31.82.73,1.08,1.25s.39,1.15.39,1.9-.11,1.45-.33,2.04-.54,1.09-.97,1.51c-.51.49-1.09.83-1.74,1.03s-1.32.29-2.01.29c-1.04,0-2.09-.18-3.16-.54-1.07-.36-2.01-.79-2.81-1.3h-.21v3.09c.76.35,1.69.65,2.8.9,1.1.25,2.25.37,3.44.37,1.28,0,2.4-.18,3.38-.55.97-.37,1.81-.89,2.51-1.57.64-.63,1.15-1.42,1.52-2.34s.56-1.9.56-2.92c0-1.28-.21-2.34-.64-3.19ZM96.22,395.62h-3.5v4.17h3.5v-4.17ZM81.78,397.27c-.61.38-1.37.57-2.29.57-.98,0-1.76-.2-2.35-.6s-1.05-.98-1.37-1.74c-.35-.81-.58-1.73-.69-2.75s-.16-2.3-.16-3.82c0-1.39.06-2.66.18-3.82s.35-2.1.68-2.83c.35-.77.83-1.35,1.43-1.73s1.36-.57,2.28-.57,1.69.19,2.28.57,1.06.95,1.4,1.7c.35.76.59,1.69.71,2.78s.18,2.38.18,3.87-.06,2.79-.18,3.86c-.12,1.07-.35,2-.7,2.79-.33.77-.8,1.35-1.41,1.73ZM85.23,380.37c-1.21-1.88-3.12-2.82-5.73-2.82s-4.49.93-5.71,2.78-1.83,4.71-1.83,8.59.6,6.7,1.81,8.55,3.12,2.78,5.73,2.78,4.48-.92,5.71-2.75c1.23-1.83,1.84-4.7,1.84-8.62s-.6-6.64-1.81-8.52Z" style="fill: #444;"/>
  <path d="M113.18,303c-.81.87-1.92,1.3-3.34,1.3-.62,0-1.18-.1-1.71-.3-.52-.2-1.01-.51-1.46-.94-.56-.52-.99-1.22-1.31-2.12-.32-.89-.48-2.11-.48-3.66,0-.3,0-.55.01-.75,0-.2.02-.41.04-.62.75-.41,1.48-.71,2.2-.91s1.48-.29,2.31-.29c.6,0,1.17.05,1.71.15s1.04.3,1.49.62c.62.44,1.06.96,1.33,1.55s.4,1.35.4,2.26c0,1.62-.41,2.86-1.22,3.73ZM116.72,295.84c-.43-.91-1.08-1.66-1.94-2.26-.74-.52-1.47-.86-2.18-1.03s-1.53-.26-2.45-.26c-1.04,0-1.97.13-2.76.39-.8.26-1.6.64-2.42,1.14.21-2.24.93-4.01,2.18-5.33,1.25-1.31,2.92-1.97,5.02-1.97.58,0,1.14.07,1.69.2.55.13.96.27,1.24.42h.15v-2.8c-.4-.13-.8-.21-1.19-.26s-.87-.07-1.45-.07c-1.81,0-3.39.31-4.75.93s-2.47,1.48-3.33,2.58c-.91,1.16-1.57,2.49-1.98,3.98s-.62,3.21-.62,5.14.23,3.5.68,4.83,1.1,2.41,1.94,3.22c.67.65,1.45,1.15,2.33,1.48s1.86.5,2.93.5c2.12,0,3.91-.7,5.37-2.1,1.46-1.4,2.19-3.21,2.19-5.43,0-1.3-.22-2.4-.65-3.31ZM96.22,302.06h-3.5v4.17h3.5v-4.17ZM81.78,303.7c-.61.38-1.37.57-2.29.57-.98,0-1.76-.2-2.35-.6s-1.05-.98-1.37-1.74c-.35-.81-.58-1.73-.69-2.75s-.16-2.3-.16-3.82c0-1.39.06-2.66.18-3.82s.35-2.1.68-2.83c.35-.77.83-1.35,1.43-1.73s1.36-.57,2.28-.57,1.69.19,2.28.57,1.06.95,1.4,1.7c.35.76.59,1.69.71,2.78s.18,2.38.18,3.87-.06,2.79-.18,3.86c-.12,1.07-.35,2-.7,2.79-.33.77-.8,1.35-1.41,1.73ZM85.23,286.8c-1.21-1.88-3.12-2.82-5.73-2.82s-4.49.93-5.71,2.78-1.83,4.71-1.83,8.59.6,6.7,1.81,8.55,3.12,2.78,5.73,2.78,4.48-.92,5.71-2.75c1.23-1.83,1.84-4.7,1.84-8.62s-.6-6.64-1.81-8.52Z" style="fill: #444;"/>
  <path d="M117.11,190.86h-14.93v2.56h12.42l-10.5,19.25h3.13l9.87-18.54v-3.27ZM96.22,208.5h-3.5v4.17h3.5v-4.17ZM81.78,210.14c-.61.38-1.37.57-2.29.57-.98,0-1.76-.2-2.35-.6s-1.05-.98-1.37-1.74c-.35-.81-.58-1.73-.69-2.75s-.16-2.3-.16-3.82c0-1.39.06-2.66.18-3.82s.35-2.1.68-2.83c.35-.77.83-1.35,1.43-1.73s1.36-.57,2.28-.57,1.69.19,2.28.57,1.06.95,1.4,1.7c.35.76.59,1.69.71,2.78s.18,2.38.18,3.87-.06,2.79-.18,3.86c-.12,1.07-.35,2-.7,2.79-.33.77-.8,1.35-1.41,1.73ZM85.23,193.24c-1.21-1.88-3.12-2.82-5.73-2.82s-4.49.93-5.71,2.78-1.83,4.71-1.83,8.59.6,6.7,1.81,8.55,3.12,2.78,5.73,2.78,4.48-.92,5.71-2.75c1.23-1.83,1.84-4.7,1.84-8.62s-.6-6.64-1.81-8.52Z" style="fill: #444;"/>
  <path d="M112.91,116.33c-.85.73-1.99,1.1-3.42,1.1s-2.55-.43-3.46-1.29-1.36-1.95-1.36-3.27c0-1.04.27-1.96.8-2.78s1.24-1.47,2.12-1.95c.91.33,1.64.59,2.18.78s1.05.39,1.51.6c1.15.55,1.93,1.09,2.32,1.63.4.54.59,1.26.59,2.16,0,1.28-.43,2.29-1.28,3.02ZM113.18,104.78c-.37.69-1.04,1.36-2.01,2.01-.64-.19-1.31-.42-1.98-.7s-1.2-.51-1.56-.69c-.8-.4-1.4-.86-1.79-1.37-.4-.51-.59-1.12-.59-1.82,0-1,.39-1.79,1.18-2.37s1.79-.88,3.02-.88,2.28.31,3.08.93c.81.62,1.21,1.45,1.21,2.5,0,.91-.19,1.71-.56,2.4ZM116.13,109.75c-.72-.86-1.77-1.58-3.13-2.17v-.09c1.19-.54,2.09-1.28,2.71-2.23.62-.95.92-1.92.92-2.91,0-1.61-.65-2.94-1.95-3.98s-3.04-1.57-5.21-1.57-3.79.55-5.14,1.64-2.02,2.46-2.02,4.1c0,1.11.28,2.04.84,2.78s1.43,1.43,2.6,2.05v.09c-1.28.58-2.27,1.35-2.97,2.34-.7.98-1.05,2.08-1.05,3.29,0,1.9.7,3.47,2.1,4.69s3.28,1.83,5.65,1.83c2.23,0,4.07-.62,5.54-1.88s2.2-2.82,2.2-4.7c0-1.33-.36-2.42-1.08-3.28ZM96.22,114.94h-3.5v4.17h3.5v-4.17ZM81.78,116.58c-.61.38-1.37.57-2.29.57-.98,0-1.76-.2-2.35-.6s-1.05-.98-1.37-1.74c-.35-.81-.58-1.73-.69-2.75s-.16-2.3-.16-3.82c0-1.39.06-2.66.18-3.82s.35-2.1.68-2.83c.35-.77.83-1.35,1.43-1.73s1.36-.57,2.28-.57,1.69.19,2.28.57,1.06.95,1.4,1.7c.35.76.59,1.69.71,2.78s.18,2.38.18,3.87-.06,2.79-.18,3.86c-.12,1.07-.35,2-.7,2.79-.33.77-.8,1.35-1.41,1.73ZM85.23,99.68c-1.21-1.88-3.12-2.82-5.73-2.82s-4.49.93-5.71,2.78-1.83,4.71-1.83,8.59.6,6.7,1.81,8.55,3.12,2.78,5.73,2.78,4.48-.92,5.71-2.75c1.23-1.83,1.84-4.7,1.84-8.62s-.6-6.64-1.81-8.52Z" style="fill: #444;"/>
  <path d="M114.04,13.47c-.01.2-.03.4-.04.61-.68.39-1.42.69-2.2.89s-1.55.31-2.31.31c-.64,0-1.23-.05-1.76-.15-.53-.1-1.01-.31-1.45-.61-.62-.44-1.07-.95-1.33-1.54s-.4-1.34-.4-2.27c0-1.59.41-2.83,1.22-3.71s1.93-1.32,3.33-1.32c.62,0,1.19.1,1.71.29.53.19,1.02.51,1.48.95.55.51.98,1.22,1.29,2.14s.47,2.13.47,3.65c0,.31,0,.57-.02.77ZM116.35,8.39c-.45-1.28-1.09-2.32-1.92-3.13-.67-.65-1.46-1.14-2.36-1.47s-1.88-.49-2.93-.49c-2.11,0-3.9.7-5.36,2.09s-2.2,3.21-2.2,5.43c0,1.28.22,2.38.65,3.3s1.08,1.67,1.94,2.27c.73.51,1.46.85,2.19,1.03s1.54.26,2.44.26c.95,0,1.82-.12,2.62-.35s1.66-.62,2.56-1.17c-.2,2.28-.91,4.06-2.13,5.35s-2.92,1.94-5.08,1.94c-.63,0-1.21-.07-1.73-.2-.52-.13-.92-.27-1.2-.42h-.15v2.8c.35.12.75.2,1.2.26s.93.08,1.44.08c1.81,0,3.38-.3,4.72-.91s2.45-1.46,3.34-2.58c.88-1.09,1.54-2.42,1.97-3.97s.65-3.28.65-5.19c0-2.02-.22-3.67-.67-4.94ZM96.22,21.38h-3.5v4.17h3.5v-4.17ZM81.78,23.02c-.61.38-1.37.57-2.29.57-.98,0-1.76-.2-2.35-.6s-1.05-.98-1.37-1.74c-.35-.81-.58-1.73-.69-2.75s-.16-2.3-.16-3.82c0-1.39.06-2.66.18-3.82s.35-2.1.68-2.83c.35-.77.83-1.35,1.43-1.73s1.36-.57,2.28-.57,1.69.19,2.28.57,1.06.95,1.4,1.7c.35.76.59,1.69.71,2.78s.18,2.38.18,3.87-.06,2.79-.18,3.86c-.12,1.07-.35,2-.7,2.79-.33.77-.8,1.35-1.41,1.73ZM85.23,6.12c-1.21-1.88-3.12-2.82-5.73-2.82s-4.49.93-5.71,2.78-1.83,4.71-1.83,8.59.6,6.7,1.81,8.55,3.12,2.78,5.73,2.78,4.48-.92,5.71-2.75c1.23-1.83,1.84-4.7,1.84-8.62s-.6-6.64-1.81-8.52Z" style="fill: #444;"/>
  <polyline points="164 14 469 14 469 192 164 192 164 14" style="fill: #fff;"/>
  <g style="clip-path: url(#clippath-1);">
    <path d="M457.65,40.27c-.61-.25-1.14-.41-1.61-.49v-.21c1.16-.23,2.17-.8,3.02-1.71.85-.9,1.28-1.96,1.28-3.17,0-.89-.18-1.67-.54-2.33-.36-.66-.89-1.23-1.6-1.7-.65-.43-1.39-.74-2.2-.94-.81-.2-1.75-.29-2.81-.29s-2.2.14-3.36.43c-1.16.29-2.08.6-2.78.95v3.06h.15c.93-.61,1.91-1.07,2.96-1.41,1.04-.33,2.03-.5,2.96-.5.61,0,1.15.05,1.63.15.48.1.93.27,1.35.53.4.25.71.58.94.97.22.4.34.86.34,1.38,0,1.19-.44,2.1-1.33,2.72-.88.62-2.07.93-3.55.93h-1.03v2.43h1.32c.72,0,1.4.06,2.02.17.63.11,1.16.32,1.6.62.44.29.78.7,1.03,1.21.25.51.37,1.16.37,1.94s-.11,1.45-.33,1.96c-.22.52-.55.99-1,1.42-.43.4-.99.7-1.68.91-.69.21-1.35.31-1.96.31-1.04,0-2.13-.18-3.25-.54-1.12-.36-2.1-.82-2.93-1.36h-.22v3.06c.75.34,1.71.66,2.89.94,1.17.29,2.36.43,3.57.43s2.27-.16,3.26-.49c.99-.33,1.85-.83,2.59-1.52.65-.62,1.16-1.34,1.52-2.17.36-.83.54-1.74.54-2.74s-.15-1.83-.45-2.46c-.3-.63-.69-1.16-1.16-1.58-.42-.37-.93-.68-1.54-.93M436.74,49.17c-.61.38-1.37.57-2.29.57-.98,0-1.76-.2-2.35-.6-.59-.4-1.05-.98-1.37-1.74-.35-.81-.58-1.73-.69-2.75s-.16-2.3-.16-3.82c0-1.39.06-2.66.18-3.82.12-1.16.35-2.1.68-2.83.35-.77.83-1.35,1.43-1.73.6-.38,1.36-.57,2.28-.57s1.69.19,2.28.57c.59.38,1.06.95,1.4,1.7.35.76.59,1.69.71,2.78.12,1.09.18,2.38.18,3.87s-.06,2.79-.18,3.86c-.12,1.07-.35,2-.7,2.79-.33.77-.8,1.35-1.41,1.73M440.19,32.27c-1.21-1.88-3.12-2.82-5.73-2.82s-4.49.93-5.71,2.78c-1.22,1.85-1.83,4.71-1.83,8.59s.6,6.7,1.81,8.55c1.21,1.86,3.12,2.78,5.74,2.78s4.48-.92,5.71-2.75c1.23-1.83,1.84-4.7,1.84-8.62s-.6-6.64-1.81-8.52M422.96,49.2h-11.73c.97-.82,2.01-1.71,3.12-2.67,1.11-.96,2.19-1.96,3.24-2.98.73-.71,1.36-1.36,1.87-1.95s.96-1.18,1.34-1.79c.41-.64.72-1.33.93-2.04.21-.72.32-1.49.32-2.32,0-1.85-.63-3.31-1.9-4.39-1.27-1.08-3.02-1.62-5.26-1.62-1.08,0-2.2.14-3.36.42-1.16.28-2.08.6-2.78.94v3.08h.15c.99-.64,2-1.12,3.03-1.44,1.04-.31,2-.47,2.89-.47,1.34,0,2.38.32,3.13.96.75.64,1.12,1.53,1.12,2.66,0,1.24-.35,2.39-1.04,3.46-.69,1.07-1.98,2.51-3.85,4.33-.89.87-1.85,1.74-2.88,2.62-1.03.88-2.06,1.76-3.08,2.64v3.06h14.77v-2.5M403.89,49.2h-11.73c.97-.82,2.01-1.71,3.12-2.67s2.19-1.96,3.24-2.98c.73-.71,1.35-1.36,1.87-1.95s.96-1.18,1.34-1.79c.41-.64.72-1.33.93-2.04.21-.72.31-1.49.31-2.32,0-1.85-.63-3.31-1.9-4.39s-3.02-1.62-5.26-1.62c-1.08,0-2.2.14-3.36.42-1.16.28-2.08.6-2.78.94v3.08h.15c.99-.64,2-1.12,3.03-1.44,1.04-.31,2-.47,2.89-.47,1.34,0,2.38.32,3.13.96.75.64,1.12,1.53,1.12,2.66,0,1.24-.35,2.39-1.04,3.46-.69,1.07-1.98,2.51-3.85,4.33-.89.87-1.85,1.74-2.88,2.62-1.03.88-2.06,1.76-3.08,2.64v3.06h14.77v-2.5M379.53,49.17c-.61.38-1.37.57-2.29.57-.98,0-1.76-.2-2.35-.6-.59-.4-1.05-.98-1.37-1.74-.35-.81-.58-1.73-.69-2.75s-.16-2.3-.16-3.82c0-1.39.06-2.66.18-3.82.12-1.16.35-2.1.68-2.83.35-.77.83-1.35,1.43-1.73.6-.38,1.36-.57,2.28-.57s1.69.19,2.28.57c.59.38,1.06.95,1.4,1.7.35.76.59,1.69.71,2.78.12,1.09.18,2.38.18,3.87s-.06,2.79-.18,3.86c-.12,1.07-.35,2-.7,2.79-.33.77-.8,1.35-1.41,1.73M382.98,32.27c-1.21-1.88-3.12-2.82-5.73-2.82s-4.49.93-5.71,2.78c-1.22,1.85-1.83,4.71-1.83,8.59s.6,6.7,1.81,8.55c1.21,1.86,3.12,2.78,5.73,2.78s4.48-.92,5.71-2.75c1.23-1.83,1.84-4.7,1.84-8.62s-.6-6.64-1.81-8.52M365.74,49.2h-11.73c.97-.82,2.01-1.71,3.12-2.67,1.11-.96,2.19-1.96,3.24-2.98.73-.71,1.36-1.36,1.87-1.95s.96-1.18,1.34-1.79c.41-.64.72-1.33.93-2.04.21-.72.31-1.49.31-2.32,0-1.85-.63-3.31-1.9-4.39s-3.02-1.62-5.26-1.62c-1.08,0-2.2.14-3.36.42-1.16.28-2.08.6-2.78.94v3.08h.15c.99-.64,2-1.12,3.03-1.44,1.04-.31,2-.47,2.89-.47,1.34,0,2.38.32,3.13.96.75.64,1.12,1.53,1.12,2.66,0,1.24-.35,2.39-1.04,3.46-.69,1.07-1.98,2.51-3.85,4.33-.89.87-1.85,1.74-2.88,2.62-1.03.88-2.06,1.76-3.08,2.64v3.06h14.77v-2.5M348.68,54.34h-19.19v1.76h19.19v-1.76M316.03,41.7c.12-1.29.61-2.37,1.49-3.24s2.05-1.3,3.52-1.3,2.56.4,3.27,1.19c.72.79,1.08,1.91,1.09,3.35h-9.37M328.08,42.31c0-2.37-.6-4.2-1.79-5.49-1.2-1.29-2.9-1.93-5.1-1.93-2.38,0-4.3.79-5.76,2.36-1.46,1.57-2.19,3.7-2.19,6.37s.76,4.79,2.29,6.26c1.52,1.47,3.64,2.21,6.36,2.21,1.06,0,2.08-.13,3.05-.4.97-.26,1.91-.59,2.84-.98v-3h-.15c-.48.43-1.28.87-2.41,1.31-1.13.44-2.25.67-3.36.67-.84,0-1.61-.12-2.31-.35-.7-.23-1.3-.59-1.81-1.05-.53-.48-.94-1.09-1.24-1.84-.3-.75-.45-1.62-.45-2.63h12.06v-1.49M308.97,35.34h-2.75v12.22c-.73.58-1.52,1.05-2.37,1.42-.84.37-1.62.56-2.34.56-.8,0-1.41-.1-1.83-.29-.42-.2-.76-.51-1.03-.94-.25-.42-.42-.93-.5-1.52-.08-.59-.12-1.3-.12-2.13v-9.32h-2.75v10.62c0,2.03.48,3.57,1.44,4.62.96,1.05,2.29,1.58,4.01,1.58,1.03,0,1.96-.2,2.81-.59.85-.39,1.74-.95,2.67-1.68v1.82h2.75v-16.36M284.99,49.01c-.8.35-1.59.52-2.37.52-1.46,0-2.53-.51-3.19-1.52-.66-1.01-1-2.49-1-4.43s.43-3.5,1.29-4.57c.86-1.07,2.06-1.61,3.6-1.61.69,0,1.33.06,1.92.19.59.13,1.25.36,1.99.69v9.39c-.69.55-1.44.99-2.24,1.34M289.98,28.91h-2.75v7.09c-.73-.38-1.43-.66-2.09-.84-.66-.18-1.43-.27-2.29-.27-.95,0-1.86.2-2.75.59-.88.39-1.66.96-2.32,1.7-.67.76-1.21,1.68-1.6,2.77-.4,1.08-.59,2.32-.59,3.71,0,2.67.57,4.75,1.72,6.25,1.15,1.5,2.7,2.26,4.65,2.26,1.01,0,1.94-.19,2.8-.57.86-.38,1.68-.91,2.48-1.6v1.71h2.75v-22.79" style="fill: #444;"/>
    <path d="M259,42.5h10v-5h-10v5M229,42.5h15v-5h-15v5M199,42.5h15v-5h-15v5M169,42.5h15v-5h-15v5" style="fill: #636efa;"/>
    <polyline points="224 45 214 45 214 35 224 35 224 45" style="fill: #636efa;"/>
    <path d="M283.32,37.4c-1.54,0-2.74.54-3.6,1.61-.86,1.07-1.29,2.6-1.29,4.57s.33,3.42,1,4.43c.66,1.01,1.73,1.52,3.19,1.52.78,0,1.57-.17,2.37-.52.8-.35,1.55-.79,2.24-1.34v-9.39c-.74-.33-1.41-.56-1.99-.69-.59-.13-1.23-.19-1.92-.19M321.04,37.15c-1.47,0-2.65.43-3.52,1.3s-1.37,1.95-1.49,3.24h9.37c0-1.45-.37-2.56-1.09-3.35-.72-.79-1.81-1.19-3.27-1.19M377.24,31.87c-.92,0-1.68.19-2.28.57-.6.38-1.08.96-1.43,1.73-.33.72-.56,1.66-.68,2.83-.12,1.16-.18,2.44-.18,3.82,0,1.52.05,2.8.16,3.82s.34,1.94.69,2.75c.32.76.78,1.34,1.37,1.74.59.4,1.37.6,2.35.6.92,0,1.68-.19,2.29-.57.61-.38,1.07-.96,1.41-1.73.34-.79.57-1.72.7-2.79.12-1.07.18-2.36.18-3.86s-.06-2.77-.18-3.87c-.12-1.09-.36-2.02-.71-2.78-.34-.75-.81-1.32-1.4-1.7-.59-.38-1.35-.57-2.28-.57M434.46,31.87c-.92,0-1.68.19-2.28.57-.6.38-1.08.96-1.43,1.73-.33.72-.56,1.66-.68,2.83-.12,1.16-.18,2.44-.18,3.82,0,1.52.05,2.8.16,3.82s.34,1.94.69,2.75c.32.76.78,1.34,1.37,1.74.59.4,1.37.6,2.35.6.92,0,1.68-.19,2.29-.57.61-.38,1.07-.96,1.41-1.73.34-.79.57-1.72.7-2.79.12-1.07.18-2.36.18-3.86s-.06-2.77-.18-3.87c-.12-1.09-.36-2.02-.71-2.78-.34-.75-.81-1.32-1.4-1.7-.59-.38-1.35-.57-2.28-.57M329.49,56.09v-1.76h19.19v1.76h-19.19M169,42.5v-5h15v5h-15M199,42.5v-5h15v5h-15M229,42.5v-5h15v5h-15M259,42.5v-5h10v5h-10M301.51,49.53c.71,0,1.49-.19,2.34-.56.84-.37,1.63-.84,2.37-1.42v-12.22h2.75v16.36h-2.75v-1.82c-.93.73-1.82,1.29-2.67,1.68-.85.39-1.79.59-2.81.59-1.72,0-3.06-.52-4.01-1.58-.96-1.05-1.44-2.59-1.44-4.62v-10.62h2.75v9.32c0,.83.04,1.54.12,2.13.08.59.24,1.1.5,1.52.26.43.61.74,1.03.94.42.2,1.03.29,1.83.29M214,45v-10h10v10h-10M321.87,52.08c-2.71,0-4.83-.73-6.36-2.21-1.52-1.47-2.29-3.56-2.29-6.26s.73-4.8,2.19-6.37c1.46-1.57,3.38-2.36,5.76-2.36,2.21,0,3.91.64,5.1,1.93,1.2,1.29,1.79,3.12,1.79,5.49v1.49h-12.06c0,1.01.15,1.88.45,2.63.3.75.72,1.36,1.24,1.84.51.47,1.11.82,1.81,1.05.7.23,1.47.35,2.31.35,1.11,0,2.23-.22,3.36-.67,1.13-.44,1.93-.88,2.41-1.31h.15v3c-.93.39-1.88.72-2.84.98-.97.26-1.98.4-3.05.4M377.24,52.15c-2.62,0-4.53-.93-5.73-2.78-1.21-1.86-1.81-4.71-1.81-8.55s.61-6.74,1.83-8.59c1.22-1.85,3.12-2.78,5.71-2.78s4.53.94,5.73,2.82c1.21,1.88,1.81,4.72,1.81,8.52s-.61,6.79-1.84,8.62c-1.23,1.83-3.13,2.75-5.71,2.75M434.46,52.15c-2.62,0-4.53-.93-5.74-2.78-1.21-1.86-1.81-4.71-1.81-8.55s.61-6.74,1.83-8.59c1.22-1.85,3.12-2.78,5.71-2.78s4.53.94,5.73,2.82c1.21,1.88,1.81,4.72,1.81,8.52s-.61,6.79-1.84,8.62c-1.23,1.83-3.13,2.75-5.71,2.75M351.52,33.87v-3.08c.69-.34,1.62-.65,2.78-.94,1.16-.28,2.28-.42,3.36-.42,2.24,0,3.99.54,5.26,1.62s1.9,2.54,1.9,4.39c0,.83-.11,1.6-.31,2.32-.21.72-.52,1.4-.93,2.04-.38.61-.83,1.2-1.34,1.79s-1.14,1.24-1.87,1.95c-1.04,1.03-2.12,2.02-3.24,2.98-1.11.96-2.15,1.85-3.12,2.67h11.73v2.5h-14.77v-3.06c1.03-.88,2.05-1.76,3.08-2.64,1.03-.88,1.99-1.75,2.88-2.62,1.88-1.82,3.16-3.26,3.85-4.33.69-1.07,1.04-2.22,1.04-3.46,0-1.13-.37-2.02-1.12-2.66-.75-.64-1.79-.96-3.13-.96-.89,0-1.85.16-2.89.47-1.04.31-2.05.79-3.03,1.44h-.15M389.66,33.87v-3.08c.69-.34,1.62-.65,2.78-.94,1.16-.28,2.28-.42,3.36-.42,2.24,0,3.99.54,5.26,1.62s1.9,2.54,1.9,4.39c0,.83-.1,1.6-.31,2.32-.21.72-.52,1.4-.93,2.04-.38.61-.83,1.2-1.34,1.79s-1.14,1.24-1.87,1.95c-1.04,1.03-2.12,2.02-3.24,2.98s-2.15,1.85-3.12,2.67h11.73v2.5h-14.77v-3.06c1.03-.88,2.05-1.76,3.08-2.64,1.03-.88,1.99-1.75,2.88-2.62,1.88-1.82,3.16-3.26,3.85-4.33.69-1.07,1.04-2.22,1.04-3.46,0-1.13-.37-2.02-1.12-2.66-.75-.64-1.79-.96-3.13-.96-.89,0-1.85.16-2.89.47-1.04.31-2.05.79-3.03,1.44h-.15M408.74,33.87v-3.08c.69-.34,1.62-.65,2.78-.94,1.16-.28,2.28-.42,3.36-.42,2.24,0,3.99.54,5.26,1.62,1.27,1.08,1.9,2.54,1.9,4.39,0,.83-.11,1.6-.32,2.32-.21.72-.52,1.4-.93,2.04-.38.61-.83,1.2-1.34,1.79s-1.14,1.24-1.87,1.95c-1.04,1.03-2.12,2.02-3.24,2.98-1.11.96-2.15,1.85-3.12,2.67h11.73v2.5h-14.77v-3.06c1.03-.88,2.05-1.76,3.08-2.64,1.03-.88,1.99-1.75,2.88-2.62,1.88-1.82,3.16-3.26,3.85-4.33.69-1.07,1.04-2.22,1.04-3.46,0-1.13-.37-2.02-1.12-2.66-.75-.64-1.79-.96-3.13-.96-.89,0-1.85.16-2.89.47-1.04.31-2.05.79-3.03,1.44h-.15M447.06,33.87v-3.06c.69-.34,1.62-.66,2.78-.95,1.16-.29,2.28-.43,3.36-.43s2,.1,2.81.29c.81.2,1.54.51,2.2.94.7.47,1.24,1.04,1.6,1.7.36.66.54,1.44.54,2.33,0,1.21-.43,2.27-1.28,3.17-.85.9-1.86,1.47-3.02,1.71v.21c.47.08,1.01.24,1.61.49.61.25,1.12.56,1.54.93.47.42.85.95,1.16,1.58.3.63.45,1.46.45,2.46s-.18,1.91-.54,2.74c-.36.83-.87,1.55-1.52,2.17-.73.68-1.59,1.19-2.59,1.52-.99.33-2.08.49-3.26.49s-2.4-.14-3.57-.43c-1.17-.29-2.13-.6-2.89-.94v-3.06h.22c.83.55,1.81,1,2.93,1.36,1.12.36,2.21.54,3.25.54.62,0,1.27-.1,1.96-.31.69-.21,1.25-.51,1.68-.91.45-.43.78-.9,1-1.42.22-.52.33-1.17.33-1.96s-.12-1.43-.37-1.94c-.25-.51-.59-.91-1.03-1.21-.44-.3-.97-.51-1.6-.62-.63-.11-1.3-.17-2.02-.17h-1.32v-2.43h1.03c1.48,0,2.67-.31,3.55-.93.88-.62,1.33-1.53,1.33-2.72,0-.53-.11-.99-.34-1.38-.22-.39-.54-.72-.94-.97-.42-.25-.87-.43-1.35-.53-.48-.1-1.02-.15-1.63-.15-.93,0-1.91.17-2.96.5-1.04.33-2.03.8-2.96,1.41h-.15M287.23,36v-7.09h2.75v22.79h-2.75v-1.71c-.79.68-1.62,1.22-2.48,1.6-.86.38-1.79.57-2.8.57-1.95,0-3.5-.75-4.65-2.26-1.15-1.5-1.72-3.59-1.72-6.25,0-1.39.2-2.62.59-3.71.4-1.08.93-2.01,1.6-2.77.66-.74,1.44-1.31,2.32-1.7.88-.39,1.8-.59,2.75-.59.86,0,1.62.09,2.29.27.66.18,1.36.46,2.09.84M463.84,19H164v42h299.84V19" style="fill: #fff;"/>
    <path d="M348.68,54.34h-19.19v1.76h19.19v-1.76M308.97,35.34h-2.75v12.22c-.73.58-1.52,1.05-2.37,1.42-.84.37-1.62.56-2.34.56-.8,0-1.41-.1-1.83-.29-.42-.2-.76-.51-1.03-.94-.25-.42-.42-.93-.5-1.52-.08-.59-.12-1.3-.12-2.13v-9.32h-2.75v10.62c0,2.03.48,3.57,1.44,4.62.96,1.05,2.29,1.58,4.01,1.58,1.03,0,1.96-.2,2.81-.59.85-.39,1.74-.95,2.67-1.68v1.82h2.75v-16.36M316.03,41.7c.12-1.29.61-2.37,1.49-3.24s2.05-1.3,3.52-1.3,2.56.4,3.27,1.19c.72.79,1.08,1.91,1.09,3.35h-9.37M321.18,34.88c-2.38,0-4.3.79-5.76,2.36-1.46,1.57-2.19,3.7-2.19,6.37s.76,4.79,2.29,6.26c1.52,1.47,3.64,2.21,6.36,2.21,1.06,0,2.08-.13,3.05-.4.97-.26,1.91-.59,2.84-.98v-3h-.15c-.48.43-1.28.87-2.41,1.31-1.13.44-2.25.67-3.36.67-.84,0-1.61-.12-2.31-.35-.7-.23-1.3-.59-1.81-1.05-.53-.48-.94-1.09-1.24-1.84-.3-.75-.45-1.62-.45-2.63h12.06v-1.49c0-2.37-.6-4.2-1.79-5.49-1.2-1.29-2.9-1.93-5.1-1.93M377.24,49.74c-.98,0-1.76-.2-2.35-.6-.59-.4-1.05-.98-1.37-1.74-.35-.81-.58-1.73-.69-2.75s-.16-2.3-.16-3.82c0-1.39.06-2.66.18-3.82.12-1.16.35-2.1.68-2.83.35-.77.83-1.35,1.43-1.73.6-.38,1.36-.57,2.28-.57s1.69.19,2.28.57c.59.38,1.06.95,1.4,1.7.35.76.59,1.69.71,2.78.12,1.09.18,2.38.18,3.87s-.06,2.79-.18,3.86c-.12,1.07-.35,2-.7,2.79-.33.77-.8,1.35-1.41,1.73-.61.38-1.37.57-2.29.57M377.24,29.45c-2.59,0-4.49.93-5.71,2.78-1.22,1.85-1.83,4.71-1.83,8.59s.6,6.7,1.81,8.55c1.21,1.86,3.12,2.78,5.73,2.78s4.48-.92,5.71-2.75c1.23-1.83,1.84-4.7,1.84-8.62s-.6-6.64-1.81-8.52c-1.21-1.88-3.12-2.82-5.73-2.82M434.46,49.74c-.98,0-1.76-.2-2.35-.6-.59-.4-1.05-.98-1.37-1.74-.35-.81-.58-1.73-.69-2.75s-.16-2.3-.16-3.82c0-1.39.06-2.66.18-3.82.12-1.16.35-2.1.68-2.83.35-.77.83-1.35,1.43-1.73.6-.38,1.36-.57,2.28-.57s1.69.19,2.28.57c.59.38,1.06.95,1.4,1.7.35.76.59,1.69.71,2.78.12,1.09.18,2.38.18,3.87s-.06,2.79-.18,3.86c-.12,1.07-.35,2-.7,2.79-.33.77-.8,1.35-1.41,1.73-.61.38-1.37.57-2.29.57M434.46,29.45c-2.59,0-4.49.93-5.71,2.78-1.22,1.85-1.83,4.71-1.83,8.59s.6,6.7,1.81,8.55c1.21,1.86,3.12,2.78,5.74,2.78s4.48-.92,5.71-2.75c1.23-1.83,1.84-4.7,1.84-8.62s-.6-6.64-1.81-8.52c-1.21-1.88-3.12-2.82-5.73-2.82M357.66,29.43c-1.08,0-2.2.14-3.36.42-1.16.28-2.08.6-2.78.94v3.08h.15c.99-.64,2-1.12,3.03-1.44,1.04-.31,2-.47,2.89-.47,1.34,0,2.38.32,3.13.96.75.64,1.12,1.53,1.12,2.66,0,1.24-.35,2.39-1.04,3.46-.69,1.07-1.98,2.51-3.85,4.33-.89.87-1.85,1.74-2.88,2.62-1.03.88-2.06,1.76-3.08,2.64v3.06h14.77v-2.5h-11.73c.97-.82,2.01-1.71,3.12-2.67,1.11-.96,2.19-1.96,3.24-2.98.73-.71,1.36-1.36,1.87-1.95s.96-1.18,1.34-1.79c.41-.64.72-1.33.93-2.04.21-.72.31-1.49.31-2.32,0-1.85-.63-3.31-1.9-4.39s-3.02-1.62-5.26-1.62M395.8,29.43c-1.08,0-2.2.14-3.36.42-1.16.28-2.08.6-2.78.94v3.08h.15c.99-.64,2-1.12,3.03-1.44,1.04-.31,2-.47,2.89-.47,1.34,0,2.38.32,3.13.96.75.64,1.12,1.53,1.12,2.66,0,1.24-.35,2.39-1.04,3.46-.69,1.07-1.98,2.51-3.85,4.33-.89.87-1.85,1.74-2.88,2.62-1.03.88-2.06,1.76-3.08,2.64v3.06h14.77v-2.5h-11.73c.97-.82,2.01-1.71,3.12-2.67s2.19-1.96,3.24-2.98c.73-.71,1.35-1.36,1.87-1.95s.96-1.18,1.34-1.79c.41-.64.72-1.33.93-2.04.21-.72.31-1.49.31-2.32,0-1.85-.63-3.31-1.9-4.39s-3.02-1.62-5.26-1.62M414.87,29.43c-1.08,0-2.2.14-3.36.42-1.16.28-2.08.6-2.78.94v3.08h.15c.99-.64,2-1.12,3.03-1.44,1.04-.31,2-.47,2.89-.47,1.34,0,2.38.32,3.13.96.75.64,1.12,1.53,1.12,2.66,0,1.24-.35,2.39-1.04,3.46-.69,1.07-1.98,2.51-3.85,4.33-.89.87-1.85,1.74-2.88,2.62-1.03.88-2.06,1.76-3.08,2.64v3.06h14.77v-2.5h-11.73c.97-.82,2.01-1.71,3.12-2.67,1.11-.96,2.19-1.96,3.24-2.98.73-.71,1.36-1.36,1.87-1.95s.96-1.18,1.34-1.79c.41-.64.72-1.33.93-2.04.21-.72.32-1.49.32-2.32,0-1.85-.63-3.31-1.9-4.39-1.27-1.08-3.02-1.62-5.26-1.62M453.19,29.43c-1.08,0-2.2.14-3.36.43-1.16.29-2.08.6-2.78.95v3.06h.15c.93-.61,1.91-1.07,2.96-1.41,1.04-.33,2.03-.5,2.96-.5.61,0,1.15.05,1.63.15.48.1.93.27,1.35.53.4.25.71.58.94.97.22.4.34.86.34,1.38,0,1.19-.44,2.1-1.33,2.72-.88.62-2.07.93-3.55.93h-1.03v2.43h1.32c.72,0,1.4.06,2.02.17.63.11,1.16.32,1.6.62.44.29.78.7,1.03,1.21.25.51.37,1.16.37,1.94s-.11,1.45-.33,1.96c-.22.52-.55.99-1,1.42-.43.4-.99.7-1.68.91-.69.21-1.35.31-1.96.31-1.04,0-2.13-.18-3.25-.54-1.12-.36-2.1-.82-2.93-1.36h-.22v3.06c.75.34,1.71.66,2.89.94,1.17.29,2.36.43,3.57.43s2.27-.16,3.26-.49c.99-.33,1.85-.83,2.59-1.52.65-.62,1.16-1.34,1.52-2.17.36-.83.54-1.74.54-2.74s-.15-1.83-.45-2.46c-.3-.63-.69-1.16-1.16-1.58-.42-.37-.93-.68-1.54-.93-.61-.25-1.14-.41-1.61-.49v-.21c1.16-.23,2.17-.8,3.02-1.71.85-.9,1.28-1.96,1.28-3.17,0-.89-.18-1.67-.54-2.33-.36-.66-.89-1.23-1.6-1.7-.65-.43-1.39-.74-2.2-.94-.81-.2-1.75-.29-2.81-.29M282.61,49.53c-1.46,0-2.53-.51-3.19-1.52-.66-1.01-1-2.49-1-4.43s.43-3.5,1.29-4.57c.86-1.07,2.06-1.61,3.6-1.61.69,0,1.33.06,1.92.19.59.13,1.25.36,1.99.69v9.39c-.69.55-1.44.99-2.24,1.34-.8.35-1.59.52-2.37.52M289.98,28.91h-2.75v7.09c-.73-.38-1.43-.66-2.09-.84-.66-.18-1.43-.27-2.29-.27-.95,0-1.86.2-2.75.59-.88.39-1.66.96-2.32,1.7-.67.76-1.21,1.68-1.6,2.77-.4,1.08-.59,2.32-.59,3.71,0,2.67.57,4.75,1.72,6.25,1.15,1.5,2.7,2.26,4.65,2.26,1.01,0,1.94-.19,2.8-.57.86-.38,1.68-.91,2.48-1.6v1.71h2.75v-22.79" style="fill: #444;"/>
    <path d="M184,37.5h-15v5h15v-5M214,37.5h-15v5h15v-5M244,37.5h-15v5h15v-5M269,37.5h-10v5h10v-5" style="fill: #636efa;"/>
    <polyline points="224 35 214 35 214 45 224 45 224 35" style="fill: #636efa;"/>
    <path d="M458.44,82.27c-.61-.25-1.14-.41-1.61-.49v-.21c1.16-.23,2.17-.8,3.02-1.71.85-.9,1.28-1.96,1.28-3.17,0-.89-.18-1.66-.54-2.33-.36-.66-.89-1.23-1.6-1.7-.65-.43-1.39-.74-2.2-.94-.81-.2-1.75-.29-2.81-.29s-2.2.14-3.36.43c-1.16.29-2.08.6-2.78.95v3.06h.15c.93-.61,1.91-1.07,2.96-1.41,1.04-.33,2.03-.5,2.96-.5.61,0,1.15.05,1.63.15.48.1.93.27,1.35.53.4.25.71.58.94.97.22.4.34.86.34,1.38,0,1.19-.44,2.1-1.33,2.72-.88.62-2.07.93-3.55.93h-1.03v2.43h1.32c.72,0,1.4.06,2.02.17.62.11,1.16.32,1.6.62.44.29.78.7,1.03,1.21.25.51.37,1.16.37,1.94s-.11,1.45-.33,1.96c-.22.52-.55.99-1,1.42-.43.4-.99.7-1.68.91-.69.21-1.35.31-1.96.31-1.04,0-2.13-.18-3.25-.54-1.12-.36-2.1-.82-2.93-1.36h-.22v3.06c.75.34,1.71.66,2.89.94,1.17.29,2.36.43,3.57.43s2.27-.16,3.26-.49c.99-.33,1.85-.83,2.59-1.52.65-.62,1.16-1.34,1.52-2.17.36-.83.54-1.74.54-2.74s-.15-1.83-.45-2.46c-.3-.63-.69-1.16-1.16-1.58-.42-.37-.93-.68-1.54-.93M437.54,91.17c-.61.38-1.37.57-2.29.57-.98,0-1.76-.2-2.35-.6s-1.05-.98-1.37-1.74c-.35-.81-.58-1.73-.69-2.75s-.16-2.3-.16-3.82c0-1.39.06-2.66.18-3.82.12-1.16.35-2.1.68-2.83.35-.77.83-1.35,1.43-1.73.6-.38,1.36-.57,2.28-.57s1.69.19,2.28.57c.59.38,1.06.95,1.4,1.7.35.76.59,1.69.71,2.78.12,1.09.18,2.38.18,3.87s-.06,2.79-.18,3.86c-.12,1.07-.35,2-.7,2.79-.33.77-.8,1.35-1.41,1.73M440.98,74.27c-1.21-1.88-3.12-2.82-5.74-2.82s-4.49.93-5.71,2.78c-1.22,1.85-1.83,4.71-1.83,8.59s.6,6.7,1.81,8.55c1.21,1.86,3.12,2.78,5.73,2.78s4.48-.91,5.71-2.75c1.23-1.83,1.84-4.7,1.84-8.62s-.6-6.64-1.81-8.52M423.75,91.2h-11.73c.97-.82,2.01-1.71,3.12-2.67,1.11-.96,2.19-1.96,3.24-2.98.73-.71,1.36-1.36,1.87-1.95.51-.59.96-1.18,1.34-1.79.41-.64.72-1.33.93-2.04.21-.72.31-1.49.31-2.32,0-1.85-.63-3.31-1.9-4.39-1.27-1.08-3.02-1.62-5.26-1.62-1.08,0-2.2.14-3.36.42-1.16.28-2.08.6-2.78.94v3.08h.15c.99-.64,2-1.12,3.03-1.44,1.04-.31,2-.47,2.89-.47,1.34,0,2.38.32,3.13.96.75.64,1.12,1.53,1.12,2.66,0,1.24-.35,2.39-1.04,3.46-.69,1.07-1.98,2.51-3.85,4.33-.89.87-1.85,1.74-2.88,2.62-1.03.88-2.06,1.76-3.08,2.64v3.06h14.77v-2.5M404.68,91.2h-11.73c.97-.82,2.01-1.71,3.12-2.67,1.11-.96,2.19-1.96,3.24-2.98.73-.71,1.36-1.36,1.87-1.95.51-.59.96-1.18,1.34-1.79.41-.64.72-1.33.93-2.04.21-.72.31-1.49.31-2.32,0-1.85-.63-3.31-1.9-4.39-1.27-1.08-3.02-1.62-5.26-1.62-1.08,0-2.2.14-3.36.42-1.16.28-2.08.6-2.78.94v3.08h.15c.99-.64,2-1.12,3.03-1.44,1.04-.31,2-.47,2.89-.47,1.34,0,2.38.32,3.13.96.75.64,1.12,1.53,1.12,2.66,0,1.24-.35,2.39-1.04,3.46-.69,1.07-1.98,2.51-3.85,4.33-.89.87-1.85,1.74-2.88,2.62-1.03.88-2.06,1.76-3.08,2.64v3.06h14.77v-2.5M380.32,91.17c-.61.38-1.37.57-2.29.57-.98,0-1.76-.2-2.35-.6-.59-.4-1.05-.98-1.37-1.74-.35-.81-.58-1.73-.69-2.75s-.16-2.3-.16-3.82c0-1.39.06-2.66.18-3.82.12-1.16.35-2.1.68-2.83.35-.77.83-1.35,1.43-1.73.6-.38,1.36-.57,2.28-.57s1.69.19,2.28.57c.59.38,1.06.95,1.4,1.7.35.76.59,1.69.71,2.78.12,1.09.18,2.38.18,3.87s-.06,2.79-.18,3.86c-.12,1.07-.35,2-.7,2.79-.33.77-.8,1.35-1.41,1.73M383.77,74.27c-1.21-1.88-3.12-2.82-5.73-2.82s-4.49.93-5.71,2.78c-1.22,1.85-1.83,4.71-1.83,8.59s.6,6.7,1.81,8.55c1.21,1.86,3.12,2.78,5.74,2.78s4.48-.91,5.71-2.75c1.23-1.83,1.84-4.7,1.84-8.62s-.6-6.64-1.81-8.52M366.53,91.2h-11.73c.97-.82,2.01-1.71,3.12-2.67,1.11-.96,2.19-1.96,3.24-2.98.73-.71,1.36-1.36,1.87-1.95.51-.59.96-1.18,1.34-1.79.41-.64.72-1.33.93-2.04.21-.72.31-1.49.31-2.32,0-1.85-.63-3.31-1.9-4.39-1.27-1.08-3.02-1.62-5.26-1.62-1.08,0-2.2.14-3.36.42-1.16.28-2.08.6-2.78.94v3.08h.15c.99-.64,2-1.12,3.03-1.44,1.04-.31,2-.47,2.89-.47,1.34,0,2.38.32,3.13.96.75.64,1.12,1.53,1.12,2.66,0,1.24-.35,2.39-1.04,3.46-.69,1.07-1.98,2.51-3.85,4.33-.89.87-1.85,1.74-2.88,2.62-1.03.88-2.06,1.76-3.08,2.64v3.06h14.77v-2.5M349.47,96.34h-19.19v1.76h19.19v-1.76M326.31,77.34l-2.84,12.67-4.19-12.67h-2.27l-4.09,12.67-3-12.67h-2.87l4.31,16.36h2.53l4.17-12.61,4.2,12.61h2.55l4.26-16.36h-2.77M305.9,77.51c-.43-.07-.75-.11-.97-.14-.21-.02-.56-.04-1.04-.04-.87,0-1.72.18-2.56.55-.83.37-1.8.99-2.89,1.87v-2.42h-2.75v16.36h2.75v-11.62c.73-.6,1.49-1.08,2.29-1.46.79-.38,1.61-.56,2.46-.56.53,0,.98.02,1.37.07.39.04.78.12,1.19.21h.15v-2.83M290.39,83.08c0-2-.46-3.54-1.39-4.6-.93-1.06-2.28-1.6-4.04-1.6-.97,0-1.91.2-2.83.6-.92.4-1.81.96-2.67,1.67v-1.82h-2.75v16.36h2.75v-12.22c.75-.58,1.54-1.05,2.36-1.42.82-.37,1.61-.56,2.36-.56s1.33.1,1.79.3c.46.2.81.51,1.05.92.23.37.4.89.48,1.55.09.66.13,1.37.13,2.12v9.32h2.75v-10.62" style="fill: #444;"/>
    <path d="M259,84.5h10v-5h-10v5M229,84.5h15v-5h-15v5M199,84.5h15v-5h-15v5M169,84.5h15v-5h-15v5" style="fill: #00cc96;"/>
    <polyline points="224 87 214 87 214 77 224 77 224 87" style="fill: #00cc96;"/>
    <path d="M378.03,73.87c-.92,0-1.68.19-2.28.57-.6.38-1.08.96-1.43,1.73-.33.72-.56,1.67-.68,2.83-.12,1.16-.18,2.44-.18,3.82,0,1.52.05,2.8.16,3.82s.34,1.94.69,2.75c.32.76.78,1.34,1.37,1.74.59.4,1.37.6,2.35.6.92,0,1.68-.19,2.29-.57.61-.38,1.07-.96,1.41-1.73.34-.79.57-1.72.7-2.79.12-1.07.18-2.36.18-3.86s-.06-2.77-.18-3.87c-.12-1.09-.36-2.02-.71-2.78-.34-.75-.81-1.32-1.4-1.7-.59-.38-1.35-.57-2.28-.57M435.25,73.87c-.92,0-1.68.19-2.28.57-.6.38-1.08.96-1.43,1.73-.33.72-.56,1.67-.68,2.83-.12,1.16-.18,2.44-.18,3.82,0,1.52.05,2.8.16,3.82s.34,1.94.69,2.75c.32.76.78,1.34,1.37,1.74s1.37.6,2.35.6c.92,0,1.68-.19,2.29-.57.61-.38,1.07-.96,1.41-1.73.34-.79.57-1.72.7-2.79.12-1.07.18-2.36.18-3.86s-.06-2.77-.18-3.87c-.12-1.09-.36-2.02-.71-2.78-.34-.75-.81-1.32-1.4-1.7-.59-.38-1.35-.57-2.28-.57M330.28,98.09v-1.76h19.19v1.76h-19.19M169,84.5v-5h15v5h-15M199,84.5v-5h15v5h-15M229,84.5v-5h15v5h-15M259,84.5v-5h10v5h-10M298.45,79.75c1.09-.88,2.06-1.5,2.89-1.87.84-.37,1.69-.55,2.56-.55.48,0,.83.01,1.04.04.22.03.54.07.97.14v2.83h-.15c-.41-.1-.81-.17-1.19-.21-.39-.04-.84-.07-1.37-.07-.85,0-1.67.19-2.46.56-.79.38-1.55.86-2.29,1.46v11.62h-2.75v-16.36h2.75v2.42M329.08,77.34h0l-4.26,16.36h-2.55l-4.2-12.61-4.17,12.61h-2.53l-4.31-16.36h2.87l3,12.67,4.09-12.67h2.27l4.19,12.67,2.84-12.67h2.77M214,87v-10h10v10h-10M279.46,79.15c.86-.71,1.75-1.27,2.67-1.67.92-.4,1.86-.6,2.83-.6,1.77,0,3.12.53,4.04,1.6.93,1.06,1.39,2.6,1.39,4.6v10.62h-2.75v-9.32c0-.75-.04-1.46-.13-2.12-.09-.66-.25-1.17-.48-1.55-.24-.41-.6-.71-1.05-.92-.46-.2-1.05-.3-1.79-.3s-1.54.19-2.36.56c-.82.37-1.61.84-2.36,1.42v12.22h-2.75v-16.36h2.75v1.82M378.03,94.15c-2.62,0-4.53-.93-5.74-2.78-1.21-1.86-1.81-4.71-1.81-8.55s.61-6.74,1.83-8.59c1.22-1.85,3.12-2.78,5.71-2.78s4.53.94,5.73,2.82c1.21,1.88,1.81,4.72,1.81,8.52s-.61,6.79-1.84,8.62c-1.23,1.83-3.13,2.75-5.71,2.75M435.25,94.15c-2.62,0-4.53-.93-5.73-2.78-1.21-1.86-1.81-4.71-1.81-8.55s.61-6.74,1.83-8.59c1.22-1.85,3.12-2.78,5.71-2.78s4.53.94,5.74,2.82c1.21,1.88,1.81,4.72,1.81,8.52s-.61,6.79-1.84,8.62c-1.23,1.83-3.13,2.75-5.71,2.75M352.31,75.87v-3.08c.69-.34,1.62-.65,2.78-.94,1.16-.28,2.28-.42,3.36-.42,2.24,0,3.99.54,5.26,1.62,1.27,1.08,1.9,2.54,1.9,4.39,0,.83-.11,1.6-.31,2.32-.21.72-.52,1.4-.93,2.04-.38.61-.83,1.2-1.34,1.79-.51.59-1.14,1.24-1.87,1.95-1.04,1.03-2.12,2.02-3.24,2.98-1.11.96-2.15,1.85-3.12,2.67h11.73v2.5h-14.77v-3.06c1.03-.88,2.05-1.76,3.08-2.64,1.03-.88,1.99-1.75,2.88-2.62,1.88-1.82,3.16-3.26,3.85-4.33.69-1.07,1.04-2.22,1.04-3.46,0-1.13-.37-2.02-1.12-2.66-.75-.64-1.79-.96-3.13-.96-.89,0-1.85.16-2.89.47-1.04.31-2.05.79-3.03,1.44h-.15M390.46,75.87v-3.08c.69-.34,1.62-.65,2.78-.94,1.16-.28,2.28-.42,3.36-.42,2.24,0,3.99.54,5.26,1.62,1.27,1.08,1.9,2.54,1.9,4.39,0,.83-.11,1.6-.31,2.32-.21.72-.52,1.4-.93,2.04-.38.61-.83,1.2-1.34,1.79-.51.59-1.14,1.24-1.87,1.95-1.04,1.03-2.12,2.02-3.24,2.98-1.11.96-2.15,1.85-3.12,2.67h11.73v2.5h-14.77v-3.06c1.03-.88,2.05-1.76,3.08-2.64,1.03-.88,1.99-1.75,2.88-2.62,1.88-1.82,3.16-3.26,3.85-4.33.69-1.07,1.04-2.22,1.04-3.46,0-1.13-.37-2.02-1.12-2.66-.75-.64-1.79-.96-3.13-.96-.89,0-1.85.16-2.89.47-1.04.31-2.05.79-3.03,1.44h-.15M409.53,75.87v-3.08c.69-.34,1.62-.65,2.78-.94,1.16-.28,2.28-.42,3.36-.42,2.24,0,3.99.54,5.26,1.62,1.27,1.08,1.9,2.54,1.9,4.39,0,.83-.1,1.6-.31,2.32-.21.72-.52,1.4-.93,2.04-.38.61-.83,1.2-1.34,1.79-.51.59-1.14,1.24-1.87,1.95-1.04,1.03-2.12,2.02-3.24,2.98-1.11.96-2.15,1.85-3.12,2.67h11.73v2.5h-14.77v-3.06c1.03-.88,2.05-1.76,3.08-2.64,1.03-.88,1.99-1.75,2.88-2.62,1.87-1.82,3.16-3.26,3.85-4.33.69-1.07,1.04-2.22,1.04-3.46,0-1.13-.37-2.02-1.12-2.66-.75-.64-1.79-.96-3.13-.96-.89,0-1.85.16-2.89.47-1.04.31-2.05.79-3.03,1.44h-.15M447.85,75.87v-3.06c.69-.34,1.62-.66,2.78-.95,1.16-.29,2.28-.43,3.36-.43s2,.1,2.81.29c.81.2,1.54.51,2.2.94.7.47,1.24,1.04,1.6,1.7.36.66.54,1.44.54,2.33,0,1.21-.43,2.27-1.28,3.17-.85.9-1.86,1.47-3.02,1.71v.21c.47.08,1.01.24,1.61.49.61.25,1.12.56,1.54.93.47.42.85.95,1.16,1.58.3.63.45,1.45.45,2.46s-.18,1.91-.54,2.74c-.36.83-.87,1.55-1.52,2.17-.73.68-1.59,1.19-2.59,1.52-.99.33-2.08.49-3.26.49s-2.4-.14-3.57-.43c-1.17-.29-2.13-.6-2.89-.94v-3.06h.22c.83.55,1.81,1,2.93,1.36,1.12.36,2.21.54,3.25.54.62,0,1.27-.1,1.96-.31.69-.21,1.25-.51,1.68-.91.45-.43.78-.9,1-1.42.22-.52.33-1.17.33-1.96s-.12-1.43-.37-1.94c-.25-.51-.59-.91-1.03-1.21-.44-.3-.97-.51-1.6-.62-.63-.11-1.3-.17-2.02-.17h-1.32v-2.43h1.03c1.48,0,2.67-.31,3.55-.93.88-.62,1.33-1.53,1.33-2.72,0-.53-.11-.99-.34-1.38-.22-.39-.54-.72-.94-.97-.42-.25-.87-.43-1.35-.53-.48-.1-1.02-.15-1.63-.15-.93,0-1.91.17-2.96.5-1.04.33-2.03.8-2.96,1.41h-.15M463.84,61H164v42h299.84v-42" style="fill: #fff;"/>
    <path d="M349.47,96.34h-19.19v1.76h19.19v-1.76M303.9,77.34c-.87,0-1.72.18-2.56.55-.83.37-1.8.99-2.89,1.87v-2.42h-2.75v16.36h2.75v-11.62c.73-.6,1.49-1.08,2.29-1.46.79-.38,1.61-.56,2.46-.56.53,0,.98.02,1.37.07.39.04.78.12,1.19.21h.15v-2.83c-.43-.07-.75-.11-.97-.14-.21-.02-.56-.04-1.04-.04M329.08,77.34h-2.77l-2.84,12.67-4.19-12.67h-2.27l-4.09,12.67-3-12.67h-2.87l4.31,16.36h2.53l4.17-12.61,4.2,12.61h2.55l4.26-16.36M284.96,76.88c-.97,0-1.91.2-2.83.6-.92.4-1.81.96-2.67,1.67v-1.82h-2.75v16.36h2.75v-12.22c.75-.58,1.54-1.05,2.36-1.42.82-.37,1.61-.56,2.36-.56s1.33.1,1.79.3c.46.2.81.51,1.05.92.23.37.4.89.48,1.55.09.66.13,1.37.13,2.12v9.32h2.75v-10.62c0-2-.46-3.54-1.39-4.6-.93-1.06-2.28-1.6-4.04-1.6M378.03,91.74c-.98,0-1.76-.2-2.35-.6-.59-.4-1.05-.98-1.37-1.74-.35-.81-.58-1.73-.69-2.75s-.16-2.3-.16-3.82c0-1.39.06-2.66.18-3.82.12-1.16.35-2.1.68-2.83.35-.77.83-1.35,1.43-1.73.6-.38,1.36-.57,2.28-.57s1.69.19,2.28.57c.59.38,1.06.95,1.4,1.7.35.76.59,1.69.71,2.78.12,1.09.18,2.38.18,3.87s-.06,2.79-.18,3.86c-.12,1.07-.35,2-.7,2.79-.33.77-.8,1.35-1.41,1.73-.61.38-1.37.57-2.29.57M378.03,71.45c-2.59,0-4.49.93-5.71,2.78-1.22,1.85-1.83,4.71-1.83,8.59s.6,6.7,1.81,8.55c1.21,1.86,3.12,2.78,5.74,2.78s4.48-.91,5.71-2.75c1.23-1.83,1.84-4.7,1.84-8.62s-.6-6.64-1.81-8.52c-1.21-1.88-3.12-2.82-5.73-2.82M435.25,91.74c-.98,0-1.76-.2-2.35-.6s-1.05-.98-1.37-1.74c-.35-.81-.58-1.73-.69-2.75s-.16-2.3-.16-3.82c0-1.39.06-2.66.18-3.82.12-1.16.35-2.1.68-2.83.35-.77.83-1.35,1.43-1.73.6-.38,1.36-.57,2.28-.57s1.69.19,2.28.57c.59.38,1.06.95,1.4,1.7.35.76.59,1.69.71,2.78.12,1.09.18,2.38.18,3.87s-.06,2.79-.18,3.86c-.12,1.07-.35,2-.7,2.79-.33.77-.8,1.35-1.41,1.73-.61.38-1.37.57-2.29.57M435.25,71.45c-2.59,0-4.49.93-5.71,2.78-1.22,1.85-1.83,4.71-1.83,8.59s.6,6.7,1.81,8.55c1.21,1.86,3.12,2.78,5.73,2.78s4.48-.91,5.71-2.75c1.23-1.83,1.84-4.7,1.84-8.62s-.6-6.64-1.81-8.52c-1.21-1.88-3.12-2.82-5.74-2.82M358.45,71.43c-1.08,0-2.2.14-3.36.42-1.16.28-2.08.6-2.78.94v3.08h.15c.99-.64,2-1.12,3.03-1.44,1.04-.31,2-.47,2.89-.47,1.34,0,2.38.32,3.13.96.75.64,1.12,1.53,1.12,2.66,0,1.24-.35,2.39-1.04,3.46-.69,1.07-1.98,2.51-3.85,4.33-.89.87-1.85,1.74-2.88,2.62-1.03.88-2.06,1.76-3.08,2.64v3.06h14.77v-2.5h-11.73c.97-.82,2.01-1.71,3.12-2.67,1.11-.96,2.19-1.96,3.24-2.98.73-.71,1.36-1.36,1.87-1.95.51-.59.96-1.18,1.34-1.79.41-.64.72-1.33.93-2.04.21-.72.31-1.49.31-2.32,0-1.85-.63-3.31-1.9-4.39-1.27-1.08-3.02-1.62-5.26-1.62M396.59,71.43c-1.08,0-2.2.14-3.36.42-1.16.28-2.08.6-2.78.94v3.08h.15c.99-.64,2-1.12,3.03-1.44,1.04-.31,2-.47,2.89-.47,1.34,0,2.38.32,3.13.96.75.64,1.12,1.53,1.12,2.66,0,1.24-.35,2.39-1.04,3.46-.69,1.07-1.98,2.51-3.85,4.33-.89.87-1.85,1.74-2.88,2.62-1.03.88-2.06,1.76-3.08,2.64v3.06h14.77v-2.5h-11.73c.97-.82,2.01-1.71,3.12-2.67,1.11-.96,2.19-1.96,3.24-2.98.73-.71,1.36-1.36,1.87-1.95.51-.59.96-1.18,1.34-1.79.41-.64.72-1.33.93-2.04.21-.72.31-1.49.31-2.32,0-1.85-.63-3.31-1.9-4.39-1.27-1.08-3.02-1.62-5.26-1.62M415.67,71.43c-1.08,0-2.2.14-3.36.42-1.16.28-2.08.6-2.78.94v3.08h.15c.99-.64,2-1.12,3.03-1.44,1.04-.31,2-.47,2.89-.47,1.34,0,2.38.32,3.13.96.75.64,1.12,1.53,1.12,2.66,0,1.24-.35,2.39-1.04,3.46-.69,1.07-1.98,2.51-3.85,4.33-.89.87-1.85,1.74-2.88,2.62-1.03.88-2.06,1.76-3.08,2.64v3.06h14.77v-2.5h-11.73c.97-.82,2.01-1.71,3.12-2.67,1.11-.96,2.19-1.96,3.24-2.98.73-.71,1.36-1.36,1.87-1.95.51-.59.96-1.18,1.34-1.79.41-.64.72-1.33.93-2.04.21-.72.31-1.49.31-2.32,0-1.85-.63-3.31-1.9-4.39-1.27-1.08-3.02-1.62-5.26-1.62M453.99,71.43c-1.08,0-2.2.14-3.36.43-1.16.29-2.08.6-2.78.95v3.06h.15c.93-.61,1.91-1.07,2.96-1.41,1.04-.33,2.03-.5,2.96-.5.61,0,1.15.05,1.63.15.48.1.93.27,1.35.53.4.25.71.58.94.97.22.4.34.86.34,1.38,0,1.19-.44,2.1-1.33,2.72-.88.62-2.07.93-3.55.93h-1.03v2.43h1.32c.72,0,1.4.06,2.02.17.62.11,1.16.32,1.6.62.44.29.78.7,1.03,1.21.25.51.37,1.16.37,1.94s-.11,1.45-.33,1.96c-.22.52-.55.99-1,1.42-.43.4-.99.7-1.68.91-.69.21-1.35.31-1.96.31-1.04,0-2.13-.18-3.25-.54-1.12-.36-2.1-.82-2.93-1.36h-.22v3.06c.75.34,1.71.66,2.89.94,1.17.29,2.36.43,3.57.43s2.27-.16,3.26-.49c.99-.33,1.85-.83,2.59-1.52.65-.62,1.16-1.34,1.52-2.17.36-.83.54-1.74.54-2.74s-.15-1.83-.45-2.46c-.3-.63-.69-1.16-1.16-1.58-.42-.37-.93-.68-1.54-.93-.61-.25-1.14-.41-1.61-.49v-.21c1.16-.23,2.17-.8,3.02-1.71.85-.9,1.28-1.96,1.28-3.17,0-.89-.18-1.66-.54-2.33-.36-.66-.89-1.23-1.6-1.7-.65-.43-1.39-.74-2.2-.94-.81-.2-1.75-.29-2.81-.29" style="fill: #444;"/>
    <path d="M184,79.5h-15v5h15v-5M214,79.5h-15v5h15v-5M244,79.5h-15v5h15v-5M269,79.5h-10v5h10v-5" style="fill: #00cc96;"/>
    <polyline points="224 77 214 77 214 87 224 87 224 77" style="fill: #00cc96;"/>
    <path d="M422.96,133.2h-11.73c.97-.82,2.01-1.71,3.12-2.67,1.11-.96,2.19-1.96,3.24-2.98.73-.71,1.36-1.36,1.87-1.95.51-.59.96-1.18,1.34-1.79.41-.64.72-1.33.93-2.04.21-.72.32-1.49.32-2.32,0-1.85-.63-3.31-1.9-4.39-1.27-1.08-3.02-1.62-5.26-1.62-1.08,0-2.2.14-3.36.42-1.16.28-2.08.6-2.78.94v3.08h.15c.99-.64,2-1.12,3.03-1.44,1.04-.31,2-.47,2.89-.47,1.34,0,2.38.32,3.13.96.75.64,1.12,1.53,1.12,2.66,0,1.24-.35,2.39-1.04,3.46-.69,1.07-1.98,2.51-3.85,4.33-.89.87-1.85,1.74-2.88,2.62-1.03.88-2.06,1.76-3.08,2.64v3.06h14.77v-2.5M403.89,133.2h-11.73c.97-.82,2.01-1.71,3.12-2.67,1.11-.96,2.19-1.96,3.24-2.98.73-.71,1.35-1.36,1.87-1.95.51-.59.96-1.18,1.34-1.79.41-.64.72-1.33.93-2.04.21-.72.31-1.49.31-2.32,0-1.85-.63-3.31-1.9-4.39-1.27-1.08-3.02-1.62-5.26-1.62-1.08,0-2.2.14-3.36.42-1.16.28-2.08.6-2.78.94v3.08h.15c.99-.64,2-1.12,3.03-1.44,1.04-.31,2-.47,2.89-.47,1.34,0,2.38.32,3.13.96.75.64,1.12,1.53,1.12,2.66,0,1.24-.35,2.39-1.04,3.46-.69,1.07-1.98,2.51-3.85,4.33-.89.87-1.85,1.74-2.88,2.62-1.03.88-2.06,1.76-3.08,2.64v3.06h14.77v-2.5M379.53,133.17c-.61.38-1.37.57-2.29.57-.98,0-1.76-.2-2.35-.6-.59-.4-1.05-.98-1.37-1.74-.35-.81-.58-1.73-.69-2.75s-.16-2.3-.16-3.82c0-1.39.06-2.66.18-3.82.12-1.16.35-2.1.68-2.83.35-.77.83-1.35,1.43-1.73.6-.38,1.36-.57,2.28-.57s1.69.19,2.28.57c.59.38,1.06.95,1.4,1.7.35.76.59,1.69.71,2.78.12,1.09.18,2.38.18,3.87s-.06,2.79-.18,3.86c-.12,1.07-.35,2-.7,2.79-.33.77-.8,1.35-1.41,1.73M382.98,116.27c-1.21-1.88-3.12-2.82-5.73-2.82s-4.49.93-5.71,2.78c-1.22,1.85-1.83,4.71-1.83,8.59s.6,6.7,1.81,8.55c1.21,1.86,3.12,2.78,5.73,2.78s4.48-.91,5.71-2.75c1.23-1.83,1.84-4.7,1.84-8.62s-.6-6.64-1.81-8.52M365.74,133.2h-11.73c.97-.82,2.01-1.71,3.12-2.67,1.11-.96,2.19-1.96,3.24-2.98.73-.71,1.36-1.36,1.87-1.95.51-.59.96-1.18,1.34-1.79.41-.64.72-1.33.93-2.04.21-.72.31-1.49.31-2.32,0-1.85-.63-3.31-1.9-4.39-1.27-1.08-3.02-1.62-5.26-1.62-1.08,0-2.2.14-3.36.42-1.16.28-2.08.6-2.78.94v3.08h.15c.99-.64,2-1.12,3.03-1.44,1.04-.31,2-.47,2.89-.47,1.34,0,2.38.32,3.13.96.75.64,1.12,1.53,1.12,2.66,0,1.24-.35,2.39-1.04,3.46-.69,1.07-1.98,2.51-3.85,4.33-.89.87-1.85,1.74-2.88,2.62-1.03.88-2.06,1.76-3.08,2.64v3.06h14.77v-2.5M348.68,138.34h-19.19v1.76h19.19v-1.76M316.03,125.7c.12-1.29.61-2.37,1.49-3.24s2.05-1.3,3.52-1.3,2.56.4,3.27,1.19c.72.79,1.08,1.91,1.09,3.35h-9.37M328.08,126.31c0-2.37-.6-4.2-1.79-5.49-1.2-1.29-2.9-1.93-5.1-1.93-2.38,0-4.3.79-5.76,2.36-1.46,1.57-2.19,3.7-2.19,6.37s.76,4.79,2.29,6.26c1.52,1.47,3.64,2.21,6.36,2.21,1.06,0,2.08-.13,3.05-.4.97-.26,1.91-.59,2.84-.98v-3h-.15c-.48.43-1.28.87-2.41,1.31-1.13.44-2.25.67-3.36.67-.84,0-1.61-.12-2.31-.35-.7-.23-1.3-.59-1.81-1.05-.53-.48-.94-1.09-1.24-1.84-.3-.75-.45-1.62-.45-2.63h12.06v-1.49M308.97,119.34h-2.75v12.22c-.73.58-1.52,1.05-2.37,1.42-.84.37-1.62.56-2.34.56-.8,0-1.41-.1-1.83-.29-.42-.2-.76-.51-1.03-.94-.25-.42-.42-.92-.5-1.52-.08-.59-.12-1.3-.12-2.13v-9.32h-2.75v10.62c0,2.03.48,3.57,1.44,4.62.96,1.05,2.29,1.58,4.01,1.58,1.03,0,1.96-.2,2.81-.59.85-.39,1.74-.95,2.67-1.68v1.82h2.75v-16.36M284.99,133.01c-.8.35-1.59.52-2.37.52-1.46,0-2.53-.51-3.19-1.52-.66-1.01-1-2.49-1-4.43s.43-3.5,1.29-4.57c.86-1.07,2.06-1.61,3.6-1.61.69,0,1.33.06,1.92.19.59.13,1.25.36,1.99.69v9.39c-.69.55-1.44.99-2.24,1.34M289.98,112.91h-2.75v7.09c-.73-.38-1.43-.66-2.09-.84-.66-.18-1.43-.27-2.29-.27-.95,0-1.86.2-2.75.59-.88.39-1.66.96-2.32,1.7-.67.76-1.21,1.68-1.6,2.77-.4,1.08-.59,2.32-.59,3.71,0,2.67.57,4.75,1.72,6.26,1.15,1.5,2.7,2.26,4.65,2.26,1.01,0,1.94-.19,2.8-.57.86-.38,1.68-.91,2.48-1.6v1.71h2.75v-22.79" style="fill: #444;"/>
    <polyline points="169 126.5 269 126.5 269 121.5 169 121.5 169 126.5" style="fill: #636efa;"/>
    <polyline points="224 129 214 129 214 119 224 119 224 129" style="fill: #636efa;"/>
    <path d="M283.32,121.4c-1.54,0-2.74.54-3.6,1.61-.86,1.07-1.29,2.6-1.29,4.57s.33,3.42,1,4.43c.66,1.01,1.73,1.52,3.19,1.52.78,0,1.57-.17,2.37-.52.8-.35,1.55-.79,2.24-1.34v-9.39c-.74-.33-1.41-.56-1.99-.69-.59-.13-1.23-.19-1.92-.19M321.04,121.15c-1.47,0-2.65.43-3.52,1.3s-1.37,1.95-1.49,3.24h9.37c0-1.45-.37-2.56-1.09-3.35-.72-.79-1.81-1.19-3.27-1.19M377.24,115.87c-.92,0-1.68.19-2.28.57-.6.38-1.08.96-1.43,1.73-.33.72-.56,1.66-.68,2.83-.12,1.16-.18,2.44-.18,3.82,0,1.52.05,2.8.16,3.82s.34,1.94.69,2.75c.32.76.78,1.34,1.37,1.74.59.4,1.37.6,2.35.6.92,0,1.68-.19,2.29-.57.61-.38,1.07-.96,1.41-1.73.34-.79.57-1.72.7-2.79.12-1.07.18-2.36.18-3.86s-.06-2.77-.18-3.87c-.12-1.09-.36-2.02-.71-2.78-.34-.75-.81-1.32-1.4-1.7-.59-.38-1.35-.57-2.28-.57M329.49,140.09v-1.76h19.19v1.76h-19.19M301.51,133.53c.71,0,1.49-.19,2.34-.56.84-.37,1.63-.84,2.37-1.42v-12.22h2.75v16.36h-2.75v-1.82c-.93.73-1.82,1.29-2.67,1.68-.85.39-1.79.59-2.81.59-1.72,0-3.06-.52-4.01-1.58-.96-1.05-1.44-2.59-1.44-4.62v-10.62h2.75v9.32c0,.83.04,1.54.12,2.13.08.59.24,1.1.5,1.52.26.43.61.74,1.03.94.42.2,1.03.29,1.83.29M214,121.5v-2.5h10v2.5h45v5h-45v2.5h-10v-2.5h-45v-5h45M321.87,136.08c-2.71,0-4.83-.73-6.36-2.21-1.52-1.47-2.29-3.56-2.29-6.26s.73-4.8,2.19-6.37c1.46-1.57,3.38-2.36,5.76-2.36,2.21,0,3.91.64,5.1,1.93,1.2,1.29,1.79,3.12,1.79,5.49v1.49h-12.06c0,1.01.15,1.88.45,2.63.3.75.72,1.36,1.24,1.84.51.47,1.11.82,1.81,1.05.7.23,1.47.35,2.31.35,1.11,0,2.23-.22,3.36-.67,1.13-.44,1.93-.88,2.41-1.31h.15v3c-.93.39-1.88.72-2.84.98-.97.26-1.98.4-3.05.4M377.24,136.15c-2.62,0-4.53-.93-5.73-2.78-1.21-1.86-1.81-4.71-1.81-8.55s.61-6.74,1.83-8.59c1.22-1.85,3.12-2.78,5.71-2.78s4.53.94,5.73,2.82c1.21,1.88,1.81,4.72,1.81,8.52s-.61,6.79-1.84,8.62c-1.23,1.83-3.13,2.75-5.71,2.75M351.52,117.87v-3.08c.69-.34,1.62-.65,2.78-.94,1.16-.28,2.28-.42,3.36-.42,2.24,0,3.99.54,5.26,1.62,1.27,1.08,1.9,2.54,1.9,4.39,0,.83-.11,1.6-.31,2.32-.21.72-.52,1.4-.93,2.04-.38.61-.83,1.2-1.34,1.79-.51.59-1.14,1.24-1.87,1.95-1.04,1.03-2.12,2.02-3.24,2.98-1.11.96-2.15,1.85-3.12,2.67h11.73v2.5h-14.77v-3.06c1.03-.88,2.05-1.76,3.08-2.64,1.03-.88,1.99-1.75,2.88-2.62,1.88-1.82,3.16-3.26,3.85-4.33.69-1.07,1.04-2.22,1.04-3.46,0-1.13-.37-2.02-1.12-2.66-.75-.64-1.79-.96-3.13-.96-.89,0-1.85.16-2.89.47-1.04.31-2.05.79-3.03,1.44h-.15M389.66,117.87v-3.08c.69-.34,1.62-.65,2.78-.94,1.16-.28,2.28-.42,3.36-.42,2.24,0,3.99.54,5.26,1.62,1.27,1.08,1.9,2.54,1.9,4.39,0,.83-.1,1.6-.31,2.32-.21.72-.52,1.4-.93,2.04-.38.61-.83,1.2-1.34,1.79-.51.59-1.14,1.24-1.87,1.95-1.04,1.03-2.12,2.02-3.24,2.98-1.11.96-2.15,1.85-3.12,2.67h11.73v2.5h-14.77v-3.06c1.03-.88,2.05-1.76,3.08-2.64,1.03-.88,1.99-1.75,2.88-2.62,1.88-1.82,3.16-3.26,3.85-4.33.69-1.07,1.04-2.22,1.04-3.46,0-1.13-.37-2.02-1.12-2.66-.75-.64-1.79-.96-3.13-.96-.89,0-1.85.16-2.89.47-1.04.31-2.05.79-3.03,1.44h-.15M408.74,117.87v-3.08c.69-.34,1.62-.65,2.78-.94,1.16-.28,2.28-.42,3.36-.42,2.24,0,3.99.54,5.26,1.62,1.27,1.08,1.9,2.54,1.9,4.39,0,.83-.11,1.6-.32,2.32-.21.72-.52,1.4-.93,2.04-.38.61-.83,1.2-1.34,1.79-.51.59-1.14,1.24-1.87,1.95-1.04,1.03-2.12,2.02-3.24,2.98-1.11.96-2.15,1.85-3.12,2.67h11.73v2.5h-14.77v-3.06c1.03-.88,2.05-1.76,3.08-2.64,1.03-.88,1.99-1.75,2.88-2.62,1.88-1.82,3.16-3.26,3.85-4.33.69-1.07,1.04-2.22,1.04-3.46,0-1.13-.37-2.02-1.12-2.66-.75-.64-1.79-.96-3.13-.96-.89,0-1.85.16-2.89.47-1.04.31-2.05.79-3.03,1.44h-.15M287.23,120v-7.09h2.75v22.79h-2.75v-1.71c-.79.68-1.62,1.22-2.48,1.6-.86.38-1.79.57-2.8.57-1.95,0-3.5-.75-4.65-2.26-1.15-1.5-1.72-3.59-1.72-6.26,0-1.39.2-2.62.59-3.71.4-1.08.93-2.01,1.6-2.77.66-.74,1.44-1.31,2.32-1.7.88-.39,1.8-.59,2.75-.59.86,0,1.62.09,2.29.27.66.18,1.36.46,2.09.84M463.84,103H164v42h299.84v-42" style="fill: #fff;"/>
    <path d="M348.68,138.34h-19.19v1.76h19.19v-1.76M308.97,119.34h-2.75v12.22c-.73.58-1.52,1.05-2.37,1.42-.84.37-1.62.56-2.34.56-.8,0-1.41-.1-1.83-.29-.42-.2-.76-.51-1.03-.94-.25-.42-.42-.92-.5-1.52-.08-.59-.12-1.3-.12-2.13v-9.32h-2.75v10.62c0,2.03.48,3.57,1.44,4.62.96,1.05,2.29,1.58,4.01,1.58,1.03,0,1.96-.2,2.81-.59.85-.39,1.74-.95,2.67-1.68v1.82h2.75v-16.36M316.03,125.7c.12-1.29.61-2.37,1.49-3.24s2.05-1.3,3.52-1.3,2.56.4,3.27,1.19c.72.79,1.08,1.91,1.09,3.35h-9.37M321.18,118.88c-2.38,0-4.3.79-5.76,2.36-1.46,1.57-2.19,3.7-2.19,6.37s.76,4.79,2.29,6.26c1.52,1.47,3.64,2.21,6.36,2.21,1.06,0,2.08-.13,3.05-.4.97-.26,1.91-.59,2.84-.98v-3h-.15c-.48.43-1.28.87-2.41,1.31-1.13.44-2.25.67-3.36.67-.84,0-1.61-.12-2.31-.35-.7-.23-1.3-.59-1.81-1.05-.53-.48-.94-1.09-1.24-1.84-.3-.75-.45-1.62-.45-2.63h12.06v-1.49c0-2.37-.6-4.2-1.79-5.49-1.2-1.29-2.9-1.93-5.1-1.93M377.24,133.74c-.98,0-1.76-.2-2.35-.6-.59-.4-1.05-.98-1.37-1.74-.35-.81-.58-1.73-.69-2.75s-.16-2.3-.16-3.82c0-1.39.06-2.66.18-3.82.12-1.16.35-2.1.68-2.83.35-.77.83-1.35,1.43-1.73.6-.38,1.36-.57,2.28-.57s1.69.19,2.28.57c.59.38,1.06.95,1.4,1.7.35.76.59,1.69.71,2.78.12,1.09.18,2.38.18,3.87s-.06,2.79-.18,3.86c-.12,1.07-.35,2-.7,2.79-.33.77-.8,1.35-1.41,1.73-.61.38-1.37.57-2.29.57M377.24,113.45c-2.59,0-4.49.93-5.71,2.78-1.22,1.85-1.83,4.71-1.83,8.59s.6,6.7,1.81,8.55c1.21,1.86,3.12,2.78,5.73,2.78s4.48-.91,5.71-2.75c1.23-1.83,1.84-4.7,1.84-8.62s-.6-6.64-1.81-8.52c-1.21-1.88-3.12-2.82-5.73-2.82M357.66,113.43c-1.08,0-2.2.14-3.36.42-1.16.28-2.08.6-2.78.94v3.08h.15c.99-.64,2-1.12,3.03-1.44,1.04-.31,2-.47,2.89-.47,1.34,0,2.38.32,3.13.96.75.64,1.12,1.53,1.12,2.66,0,1.24-.35,2.39-1.04,3.46-.69,1.07-1.98,2.51-3.85,4.33-.89.87-1.85,1.74-2.88,2.62-1.03.88-2.06,1.76-3.08,2.64v3.06h14.77v-2.5h-11.73c.97-.82,2.01-1.71,3.12-2.67,1.11-.96,2.19-1.96,3.24-2.98.73-.71,1.36-1.36,1.87-1.95.51-.59.96-1.18,1.34-1.79.41-.64.72-1.33.93-2.04.21-.72.31-1.49.31-2.32,0-1.85-.63-3.31-1.9-4.39-1.27-1.08-3.02-1.62-5.26-1.62M395.8,113.43c-1.08,0-2.2.14-3.36.42-1.16.28-2.08.6-2.78.94v3.08h.15c.99-.64,2-1.12,3.03-1.44,1.04-.31,2-.47,2.89-.47,1.34,0,2.38.32,3.13.96.75.64,1.12,1.53,1.12,2.66,0,1.24-.35,2.39-1.04,3.46-.69,1.07-1.98,2.51-3.85,4.33-.89.87-1.85,1.74-2.88,2.62-1.03.88-2.06,1.76-3.08,2.64v3.06h14.77v-2.5h-11.73c.97-.82,2.01-1.71,3.12-2.67,1.11-.96,2.19-1.96,3.24-2.98.73-.71,1.35-1.36,1.87-1.95.51-.59.96-1.18,1.34-1.79.41-.64.72-1.33.93-2.04.21-.72.31-1.49.31-2.32,0-1.85-.63-3.31-1.9-4.39-1.27-1.08-3.02-1.62-5.26-1.62M414.87,113.43c-1.08,0-2.2.14-3.36.42-1.16.28-2.08.6-2.78.94v3.08h.15c.99-.64,2-1.12,3.03-1.44,1.04-.31,2-.47,2.89-.47,1.34,0,2.38.32,3.13.96.75.64,1.12,1.53,1.12,2.66,0,1.24-.35,2.39-1.04,3.46-.69,1.07-1.98,2.51-3.85,4.33-.89.87-1.85,1.74-2.88,2.62-1.03.88-2.06,1.76-3.08,2.64v3.06h14.77v-2.5h-11.73c.97-.82,2.01-1.71,3.12-2.67,1.11-.96,2.19-1.96,3.24-2.98.73-.71,1.36-1.36,1.87-1.95.51-.59.96-1.18,1.34-1.79.41-.64.72-1.33.93-2.04.21-.72.32-1.49.32-2.32,0-1.85-.63-3.31-1.9-4.39-1.27-1.08-3.02-1.62-5.26-1.62M282.61,133.53c-1.46,0-2.53-.51-3.19-1.52-.66-1.01-1-2.49-1-4.43s.43-3.5,1.29-4.57c.86-1.07,2.06-1.61,3.6-1.61.69,0,1.33.06,1.92.19.59.13,1.25.36,1.99.69v9.39c-.69.55-1.44.99-2.24,1.34-.8.35-1.59.52-2.37.52M289.98,112.91h-2.75v7.09c-.73-.38-1.43-.66-2.09-.84-.66-.18-1.43-.27-2.29-.27-.95,0-1.86.2-2.75.59-.88.39-1.66.96-2.32,1.7-.67.76-1.21,1.68-1.6,2.77-.4,1.08-.59,2.32-.59,3.71,0,2.67.57,4.75,1.72,6.26,1.15,1.5,2.7,2.26,4.65,2.26,1.01,0,1.94-.19,2.8-.57.86-.38,1.68-.91,2.48-1.6v1.71h2.75v-22.79" style="fill: #444;"/>
    <path d="M214,121.5h-45v5h45v-5M269,121.5h-45v5h45v-5" style="fill: #636efa;"/>
    <polyline points="224 119 214 119 214 121.5 214 126.5 214 129 224 129 224 126.5 224 121.5 224 119" style="fill: #636efa;"/>
    <path d="M423.75,175.2h-11.73c.97-.82,2.01-1.71,3.12-2.67,1.11-.96,2.19-1.96,3.24-2.98.73-.71,1.36-1.36,1.87-1.95.51-.59.96-1.18,1.34-1.79.41-.64.72-1.33.93-2.04.21-.72.31-1.49.31-2.32,0-1.85-.63-3.31-1.9-4.39-1.27-1.08-3.02-1.62-5.26-1.62-1.08,0-2.2.14-3.36.42-1.16.28-2.08.6-2.78.94v3.08h.15c.99-.64,2-1.12,3.03-1.44s2-.47,2.89-.47c1.34,0,2.38.32,3.13.96.75.64,1.12,1.53,1.12,2.66,0,1.24-.35,2.39-1.04,3.46-.69,1.07-1.98,2.51-3.85,4.33-.89.87-1.85,1.74-2.88,2.62-1.03.88-2.06,1.76-3.08,2.64v3.06h14.77v-2.5M404.68,175.2h-11.73c.97-.82,2.01-1.71,3.12-2.67,1.11-.96,2.19-1.96,3.24-2.98.73-.71,1.36-1.36,1.87-1.95.51-.59.96-1.18,1.34-1.79.41-.64.72-1.33.93-2.04.21-.72.31-1.49.31-2.32,0-1.85-.63-3.31-1.9-4.39-1.27-1.08-3.02-1.62-5.26-1.62-1.08,0-2.2.14-3.36.42-1.16.28-2.08.6-2.78.94v3.08h.15c.99-.64,2-1.12,3.03-1.44s2-.47,2.89-.47c1.34,0,2.38.32,3.13.96.75.64,1.12,1.53,1.12,2.66,0,1.24-.35,2.39-1.04,3.46-.69,1.07-1.98,2.51-3.85,4.33-.89.87-1.85,1.74-2.88,2.62-1.03.88-2.06,1.76-3.08,2.64v3.06h14.77v-2.5M380.32,175.17c-.61.38-1.37.57-2.29.57-.98,0-1.76-.2-2.35-.6-.59-.4-1.05-.98-1.37-1.74-.35-.81-.58-1.73-.69-2.75-.11-1.03-.16-2.3-.16-3.82,0-1.39.06-2.66.18-3.82.12-1.16.35-2.1.68-2.83.35-.77.83-1.35,1.43-1.73.6-.38,1.36-.57,2.28-.57s1.69.19,2.28.57c.59.38,1.06.95,1.4,1.7.35.76.59,1.69.71,2.78.12,1.09.18,2.38.18,3.87s-.06,2.79-.18,3.86c-.12,1.07-.35,2-.7,2.79-.33.77-.8,1.35-1.41,1.73M383.77,158.27c-1.21-1.88-3.12-2.82-5.73-2.82s-4.49.93-5.71,2.78c-1.22,1.85-1.83,4.71-1.83,8.59s.6,6.7,1.81,8.55c1.21,1.86,3.12,2.78,5.74,2.78s4.48-.91,5.71-2.75c1.23-1.83,1.84-4.7,1.84-8.62s-.6-6.64-1.81-8.52M366.53,175.2h-11.73c.97-.82,2.01-1.71,3.12-2.67,1.11-.96,2.19-1.96,3.24-2.98.73-.71,1.36-1.36,1.87-1.95.51-.59.96-1.18,1.34-1.79.41-.64.72-1.33.93-2.04.21-.72.31-1.49.31-2.32,0-1.85-.63-3.31-1.9-4.39-1.27-1.08-3.02-1.62-5.26-1.62-1.08,0-2.2.14-3.36.42-1.16.28-2.08.6-2.78.94v3.08h.15c.99-.64,2-1.12,3.03-1.44s2-.47,2.89-.47c1.34,0,2.38.32,3.13.96.75.64,1.12,1.53,1.12,2.66,0,1.24-.35,2.39-1.04,3.46-.69,1.07-1.98,2.51-3.85,4.33-.89.87-1.85,1.74-2.88,2.62-1.03.88-2.06,1.76-3.08,2.64v3.06h14.77v-2.5M349.47,180.34h-19.19v1.76h19.19v-1.76M326.31,161.34l-2.84,12.67-4.19-12.67h-2.27l-4.09,12.67-3-12.67h-2.87l4.31,16.36h2.53l4.17-12.61,4.2,12.61h2.55l4.26-16.36h-2.77M305.9,161.51c-.43-.07-.75-.11-.97-.14-.21-.02-.56-.04-1.04-.04-.87,0-1.72.18-2.56.55-.83.37-1.8.99-2.89,1.87v-2.42h-2.75v16.36h2.75v-11.62c.73-.6,1.49-1.08,2.29-1.46.79-.38,1.61-.56,2.46-.56.53,0,.98.02,1.37.07.39.04.78.12,1.19.21h.15v-2.83M290.39,167.08c0-2-.46-3.54-1.39-4.6-.93-1.06-2.28-1.6-4.04-1.6-.97,0-1.91.2-2.83.6-.92.4-1.81.96-2.67,1.67v-1.82h-2.75v16.36h2.75v-12.22c.75-.58,1.54-1.05,2.36-1.42.82-.37,1.61-.56,2.36-.56s1.33.1,1.79.3c.46.2.81.51,1.05.92.23.37.4.89.48,1.54.09.66.13,1.37.13,2.12v9.32h2.75v-10.62" style="fill: #444;"/>
    <polyline points="169 168.5 269 168.5 269 163.5 169 163.5 169 168.5" style="fill: #00cc96;"/>
    <polyline points="224 171 214 171 214 161 224 161 224 171" style="fill: #00cc96;"/>
    <path d="M378.03,157.87c-.92,0-1.68.19-2.28.57-.6.38-1.08.96-1.43,1.73-.33.72-.56,1.67-.68,2.83-.12,1.16-.18,2.44-.18,3.82,0,1.52.05,2.8.16,3.82.11,1.03.34,1.94.69,2.75.32.76.78,1.34,1.37,1.74.59.4,1.37.6,2.35.6.92,0,1.68-.19,2.29-.57.61-.38,1.07-.96,1.41-1.73.34-.79.57-1.72.7-2.79.12-1.07.18-2.36.18-3.86s-.06-2.77-.18-3.87c-.12-1.09-.36-2.02-.71-2.78-.34-.75-.81-1.32-1.4-1.7-.59-.38-1.35-.57-2.28-.57M330.28,182.09v-1.76h19.19v1.76h-19.19M298.45,163.75c1.09-.88,2.06-1.5,2.89-1.87.84-.37,1.69-.55,2.56-.55.48,0,.83.01,1.04.04.22.03.54.07.97.14v2.83h-.15c-.41-.1-.81-.17-1.19-.21-.39-.04-.84-.07-1.37-.07-.85,0-1.67.19-2.46.56-.79.38-1.55.86-2.29,1.46v11.62h-2.75v-16.36h2.75v2.42M329.08,161.34h0l-4.26,16.36h-2.55l-4.2-12.61-4.17,12.61h-2.53l-4.31-16.36h2.87l3,12.67,4.09-12.67h2.27l4.19,12.67,2.84-12.67h2.77M214,163.5v-2.5h10v2.5h45v5h-45v2.5h-10v-2.5h-45v-5h45M279.46,163.15c.86-.71,1.75-1.27,2.67-1.67.92-.4,1.86-.6,2.83-.6,1.77,0,3.12.53,4.04,1.6.93,1.06,1.39,2.6,1.39,4.6v10.62h-2.75v-9.32c0-.75-.04-1.46-.13-2.12-.09-.66-.25-1.17-.48-1.54-.24-.41-.6-.71-1.05-.92-.46-.2-1.05-.3-1.79-.3s-1.54.19-2.36.56c-.82.37-1.61.84-2.36,1.42v12.22h-2.75v-16.36h2.75v1.82M378.03,178.15c-2.62,0-4.53-.93-5.74-2.78-1.21-1.86-1.81-4.71-1.81-8.55s.61-6.74,1.83-8.59c1.22-1.85,3.12-2.78,5.71-2.78s4.53.94,5.73,2.82c1.21,1.88,1.81,4.72,1.81,8.52s-.61,6.79-1.84,8.62c-1.23,1.83-3.13,2.75-5.71,2.75M352.31,159.87v-3.08c.69-.34,1.62-.65,2.78-.94,1.16-.28,2.28-.42,3.36-.42,2.24,0,3.99.54,5.26,1.62,1.27,1.08,1.9,2.54,1.9,4.39,0,.83-.11,1.6-.31,2.32-.21.72-.52,1.4-.93,2.04-.38.61-.83,1.2-1.34,1.79-.51.59-1.14,1.24-1.87,1.95-1.04,1.03-2.12,2.02-3.24,2.98-1.11.96-2.15,1.85-3.12,2.67h11.73v2.5h-14.77v-3.06c1.03-.88,2.05-1.76,3.08-2.64,1.03-.88,1.99-1.75,2.88-2.62,1.88-1.82,3.16-3.26,3.85-4.33.69-1.07,1.04-2.22,1.04-3.46,0-1.13-.37-2.02-1.12-2.66-.75-.64-1.79-.96-3.13-.96-.89,0-1.85.16-2.89.47s-2.05.79-3.03,1.44h-.15M390.46,159.87v-3.08c.69-.34,1.62-.65,2.78-.94,1.16-.28,2.28-.42,3.36-.42,2.24,0,3.99.54,5.26,1.62,1.27,1.08,1.9,2.54,1.9,4.39,0,.83-.11,1.6-.31,2.32-.21.72-.52,1.4-.93,2.04-.38.61-.83,1.2-1.34,1.79-.51.59-1.14,1.24-1.87,1.95-1.04,1.03-2.12,2.02-3.24,2.98-1.11.96-2.15,1.85-3.12,2.67h11.73v2.5h-14.77v-3.06c1.03-.88,2.05-1.76,3.08-2.64,1.03-.88,1.99-1.75,2.88-2.62,1.88-1.82,3.16-3.26,3.85-4.33.69-1.07,1.04-2.22,1.04-3.46,0-1.13-.37-2.02-1.12-2.66-.75-.64-1.79-.96-3.13-.96-.89,0-1.85.16-2.89.47s-2.05.79-3.03,1.44h-.15M409.53,159.87v-3.08c.69-.34,1.62-.65,2.78-.94,1.16-.28,2.28-.42,3.36-.42,2.24,0,3.99.54,5.26,1.62,1.27,1.08,1.9,2.54,1.9,4.39,0,.83-.1,1.6-.31,2.32-.21.72-.52,1.4-.93,2.04-.38.61-.83,1.2-1.34,1.79-.51.59-1.14,1.24-1.87,1.95-1.04,1.03-2.12,2.02-3.24,2.98-1.11.96-2.15,1.85-3.12,2.67h11.73v2.5h-14.77v-3.06c1.03-.88,2.05-1.76,3.08-2.64,1.03-.88,1.99-1.75,2.88-2.62,1.87-1.82,3.16-3.26,3.85-4.33.69-1.07,1.04-2.22,1.04-3.46,0-1.13-.37-2.02-1.12-2.66-.75-.64-1.79-.96-3.13-.96-.89,0-1.85.16-2.89.47s-2.05.79-3.03,1.44h-.15M463.84,145H164v42h299.84v-42" style="fill: #fff;"/>
    <path d="M349.47,180.34h-19.19v1.76h19.19v-1.76M303.9,161.34c-.87,0-1.72.18-2.56.55-.83.37-1.8.99-2.89,1.87v-2.42h-2.75v16.36h2.75v-11.62c.73-.6,1.49-1.08,2.29-1.46.79-.38,1.61-.56,2.46-.56.53,0,.98.02,1.37.07.39.04.78.12,1.19.21h.15v-2.83c-.43-.07-.75-.11-.97-.14-.21-.02-.56-.04-1.04-.04M329.08,161.34h-2.77l-2.84,12.67-4.19-12.67h-2.27l-4.09,12.67-3-12.67h-2.87l4.31,16.36h2.53l4.17-12.61,4.2,12.61h2.55l4.26-16.36M284.96,160.88c-.97,0-1.91.2-2.83.6-.92.4-1.81.96-2.67,1.67v-1.82h-2.75v16.36h2.75v-12.22c.75-.58,1.54-1.05,2.36-1.42.82-.37,1.61-.56,2.36-.56s1.33.1,1.79.3c.46.2.81.51,1.05.92.23.37.4.89.48,1.54.09.66.13,1.37.13,2.12v9.32h2.75v-10.62c0-2-.46-3.54-1.39-4.6-.93-1.06-2.28-1.6-4.04-1.6M378.03,175.74c-.98,0-1.76-.2-2.35-.6-.59-.4-1.05-.98-1.37-1.74-.35-.81-.58-1.73-.69-2.75-.11-1.03-.16-2.3-.16-3.82,0-1.39.06-2.66.18-3.82.12-1.16.35-2.1.68-2.83.35-.77.83-1.35,1.43-1.73.6-.38,1.36-.57,2.28-.57s1.69.19,2.28.57c.59.38,1.06.95,1.4,1.7.35.76.59,1.69.71,2.78.12,1.09.18,2.38.18,3.87s-.06,2.79-.18,3.86c-.12,1.07-.35,2-.7,2.79-.33.77-.8,1.35-1.41,1.73-.61.38-1.37.57-2.29.57M378.03,155.45c-2.59,0-4.49.93-5.71,2.78-1.22,1.85-1.83,4.71-1.83,8.59s.6,6.7,1.81,8.55c1.21,1.86,3.12,2.78,5.74,2.78s4.48-.91,5.71-2.75c1.23-1.83,1.84-4.7,1.84-8.62s-.6-6.64-1.81-8.52c-1.21-1.88-3.12-2.82-5.73-2.82M358.45,155.43c-1.08,0-2.2.14-3.36.42-1.16.28-2.08.6-2.78.94v3.08h.15c.99-.64,2-1.12,3.03-1.44s2-.47,2.89-.47c1.34,0,2.38.32,3.13.96.75.64,1.12,1.53,1.12,2.66,0,1.24-.35,2.39-1.04,3.46-.69,1.07-1.98,2.51-3.85,4.33-.89.87-1.85,1.74-2.88,2.62-1.03.88-2.06,1.76-3.08,2.64v3.06h14.77v-2.5h-11.73c.97-.82,2.01-1.71,3.12-2.67,1.11-.96,2.19-1.96,3.24-2.98.73-.71,1.36-1.36,1.87-1.95.51-.59.96-1.18,1.34-1.79.41-.64.72-1.33.93-2.04.21-.72.31-1.49.31-2.32,0-1.85-.63-3.31-1.9-4.39-1.27-1.08-3.02-1.62-5.26-1.62M396.59,155.43c-1.08,0-2.2.14-3.36.42-1.16.28-2.08.6-2.78.94v3.08h.15c.99-.64,2-1.12,3.03-1.44s2-.47,2.89-.47c1.34,0,2.38.32,3.13.96.75.64,1.12,1.53,1.12,2.66,0,1.24-.35,2.39-1.04,3.46-.69,1.07-1.98,2.51-3.85,4.33-.89.87-1.85,1.74-2.88,2.62-1.03.88-2.06,1.76-3.08,2.64v3.06h14.77v-2.5h-11.73c.97-.82,2.01-1.71,3.12-2.67,1.11-.96,2.19-1.96,3.24-2.98.73-.71,1.36-1.36,1.87-1.95.51-.59.96-1.18,1.34-1.79.41-.64.72-1.33.93-2.04.21-.72.31-1.49.31-2.32,0-1.85-.63-3.31-1.9-4.39-1.27-1.08-3.02-1.62-5.26-1.62M415.67,155.43c-1.08,0-2.2.14-3.36.42-1.16.28-2.08.6-2.78.94v3.08h.15c.99-.64,2-1.12,3.03-1.44s2-.47,2.89-.47c1.34,0,2.38.32,3.13.96.75.64,1.12,1.53,1.12,2.66,0,1.24-.35,2.39-1.04,3.46-.69,1.07-1.98,2.51-3.85,4.33-.89.87-1.85,1.74-2.88,2.62-1.03.88-2.06,1.76-3.08,2.64v3.06h14.77v-2.5h-11.73c.97-.82,2.01-1.71,3.12-2.67,1.11-.96,2.19-1.96,3.24-2.98.73-.71,1.36-1.36,1.87-1.95.51-.59.96-1.18,1.34-1.79.41-.64.72-1.33.93-2.04.21-.72.31-1.49.31-2.32,0-1.85-.63-3.31-1.9-4.39-1.27-1.08-3.02-1.62-5.26-1.62" style="fill: #444;"/>
    <path d="M214,163.5h-45v5h45v-5M269,163.5h-45v5h45v-5" style="fill: #00cc96;"/>
    <polyline points="224 161 214 161 214 163.5 214 168.5 214 171 224 171 224 168.5 224 163.5 224 161" style="fill: #00cc96;"/>
  </g>
  <path d="M685.28,779.99c.14-1.55.74-2.84,1.78-3.88s2.46-1.56,4.23-1.56,3.07.47,3.93,1.42,1.3,2.29,1.31,4.03h-11.25ZM699.75,780.73c0-2.85-.72-5.04-2.15-6.59s-3.48-2.32-6.13-2.32c-2.86,0-5.17.94-6.92,2.83s-2.63,4.44-2.63,7.65.91,5.75,2.74,7.51,4.37,2.65,7.63,2.65c1.28,0,2.5-.16,3.66-.47s2.3-.71,3.41-1.18v-3.6h-.18c-.57.52-1.54,1.04-2.89,1.57s-2.7.8-4.03.8c-1.01,0-1.93-.14-2.77-.42s-1.56-.7-2.17-1.27c-.63-.57-1.13-1.31-1.49-2.21s-.54-1.95-.54-3.16h14.47v-1.79ZM679.32,788.85h-.18c-.26.11-.68.24-1.27.4s-1.15.24-1.69.24c-.93,0-1.61-.11-2.07-.33s-.81-.56-1.06-1.03c-.28-.5-.45-1.05-.49-1.63s-.07-1.39-.07-2.42v-8.95h6.82v-2.78h-6.82v-5.64h-3.3v5.64h-2.23v2.78h2.23v10.44c0,2.38.52,4.11,1.56,5.19s2.57,1.62,4.57,1.62c.57,0,1.23-.05,1.96-.16s1.41-.24,2.03-.4v-2.97ZM656.8,788.79c-.96.45-2.02.68-3.18.68-1.39,0-2.43-.28-3.11-.85s-1.02-1.42-1.02-2.54c0-1,.29-1.78.88-2.35s1.35-.99,2.3-1.26c.8-.22,1.88-.39,3.24-.51s2.55-.21,3.56-.26v5.47c-.82.63-1.71,1.17-2.67,1.63ZM662.76,778.68c0-1.27-.19-2.33-.58-3.18s-.95-1.55-1.69-2.09c-.75-.55-1.64-.94-2.66-1.17s-2.23-.34-3.61-.34c-1.18,0-2.38.11-3.6.32s-2.15.4-2.79.58v3.36h.18c1.14-.43,2.24-.76,3.3-.99s2.03-.34,2.9-.34c.71,0,1.4.05,2.06.14s1.22.28,1.69.54c.49.28.87.67,1.13,1.16s.4,1.11.4,1.86v.51c-1.92.09-3.72.23-5.4.42s-3.11.54-4.31,1.07c-1.18.53-2.09,1.25-2.73,2.17s-.96,2.12-.96,3.61c0,1.82.62,3.31,1.85,4.48s2.73,1.76,4.5,1.76c.96,0,1.8-.09,2.51-.27s1.35-.41,1.9-.68c.47-.21.95-.5,1.45-.85s.89-.64,1.19-.83v2.09h3.29v-13.32ZM645.03,772.58c-.52-.08-.9-.14-1.16-.17s-.67-.04-1.25-.04c-1.04,0-2.07.22-3.07.66s-2.16,1.19-3.47,2.24v-2.9h-3.3v19.63h3.3v-13.94c.88-.71,1.79-1.3,2.74-1.75s1.93-.68,2.95-.68c.63,0,1.18.03,1.64.08s.94.14,1.43.25h.18v-3.39ZM613.75,779.26c0-2.4-.56-4.24-1.67-5.52s-2.73-1.92-4.85-1.92c-1.16,0-2.29.24-3.39.72s-2.17,1.15-3.2,2v-2.18h-3.3v19.63h3.3v-14.66c.9-.69,1.85-1.26,2.83-1.71s1.93-.67,2.83-.67,1.59.12,2.14.36.97.61,1.27,1.1c.28.45.47,1.06.58,1.85s.16,1.64.16,2.54v11.18h3.3v-12.74ZM587.31,787.81c-1,1.26-2.38,1.89-4.14,1.89s-3.17-.64-4.17-1.91-1.49-3.14-1.49-5.6.5-4.43,1.49-5.67,2.38-1.85,4.17-1.85,3.15.62,4.15,1.85,1.49,3.13,1.49,5.67-.5,4.36-1.5,5.62ZM589.76,774.61c-1.64-1.86-3.84-2.79-6.59-2.79s-4.98.93-6.62,2.79-2.45,4.39-2.45,7.58.82,5.72,2.45,7.58,3.84,2.78,6.62,2.78,4.95-.93,6.59-2.78,2.46-4.38,2.46-7.58-.82-5.73-2.46-7.58ZM568.95,772.37h-3.3v19.63h3.3v-19.63ZM569.16,765.65h-3.73v3.43h3.73v-3.43ZM561.62,788.85h-.18c-.26.11-.68.24-1.27.4s-1.15.24-1.69.24c-.93,0-1.61-.11-2.07-.33s-.81-.56-1.06-1.03c-.28-.5-.45-1.05-.49-1.63s-.07-1.39-.07-2.42v-8.95h6.82v-2.78h-6.82v-5.64h-3.3v5.64h-2.23v2.78h2.23v10.44c0,2.38.52,4.11,1.56,5.19s2.57,1.62,4.57,1.62c.57,0,1.23-.05,1.96-.16s1.41-.24,2.03-.4v-2.97ZM539.1,788.79c-.96.45-2.02.68-3.18.68-1.39,0-2.43-.28-3.11-.85s-1.02-1.42-1.02-2.54c0-1,.29-1.78.88-2.35s1.35-.99,2.3-1.26c.8-.22,1.88-.39,3.24-.51s2.55-.21,3.56-.26v5.47c-.82.63-1.71,1.17-2.67,1.63ZM545.06,778.68c0-1.27-.19-2.33-.58-3.18s-.95-1.55-1.69-2.09c-.75-.55-1.64-.94-2.66-1.17s-2.23-.34-3.61-.34c-1.18,0-2.38.11-3.6.32s-2.15.4-2.79.58v3.36h.18c1.14-.43,2.24-.76,3.3-.99s2.03-.34,2.9-.34c.71,0,1.4.05,2.06.14s1.22.28,1.69.54c.49.28.87.67,1.13,1.16s.4,1.11.4,1.86v.51c-1.92.09-3.72.23-5.4.42s-3.11.54-4.31,1.07c-1.18.53-2.09,1.25-2.73,2.17s-.96,2.12-.96,3.61c0,1.82.62,3.31,1.85,4.48s2.73,1.76,4.5,1.76c.96,0,1.8-.09,2.51-.27s1.35-.41,1.9-.68c.47-.21.95-.5,1.45-.85s.89-.64,1.19-.83v2.09h3.29v-13.32ZM523.26,764.65h-3.3v27.35h3.3v-27.35ZM513.42,772.37h-3.3v14.66c-.88.69-1.83,1.26-2.84,1.71s-1.95.67-2.8.67c-.96,0-1.69-.12-2.2-.35s-.91-.61-1.23-1.12c-.3-.5-.5-1.11-.6-1.82s-.14-1.56-.14-2.56v-11.18h-3.3v12.74c0,2.44.57,4.29,1.72,5.55s2.75,1.89,4.82,1.89c1.23,0,2.36-.23,3.38-.7s2.09-1.14,3.2-2.02v2.18h3.3v-19.63ZM492.9,787.13h-.18c-.25.2-.58.44-1,.71s-.87.54-1.35.78c-.55.28-1.17.51-1.86.69s-1.37.26-2.04.26c-1.92,0-3.41-.64-4.47-1.91s-1.59-3.09-1.59-5.46.54-4.29,1.63-5.55,2.56-1.89,4.44-1.89c1.02,0,2.07.21,3.14.63s2.11,1.03,3.12,1.81h.18v-3.67c-.9-.46-1.9-.84-2.98-1.16s-2.19-.47-3.31-.47c-2.89,0-5.22.91-6.99,2.74s-2.65,4.35-2.65,7.56c0,1.72.23,3.23.7,4.52s1.13,2.36,1.99,3.2c.84.84,1.86,1.47,3.04,1.89s2.48.62,3.9.62c1.11,0,2.17-.15,3.16-.44s2.04-.7,3.14-1.23v-3.64ZM471.85,764.65h-3.3v27.35h3.3v-27.35ZM456.18,788.79c-.96.45-2.02.68-3.18.68-1.39,0-2.43-.28-3.11-.85s-1.02-1.42-1.02-2.54c0-1,.29-1.78.88-2.35s1.35-.99,2.3-1.26c.8-.22,1.88-.39,3.24-.51s2.55-.21,3.56-.26v5.47c-.82.63-1.71,1.17-2.67,1.63ZM462.14,778.68c0-1.27-.19-2.33-.58-3.18s-.95-1.55-1.69-2.09c-.75-.55-1.64-.94-2.66-1.17s-2.23-.34-3.61-.34c-1.18,0-2.38.11-3.6.32s-2.15.4-2.79.58v3.36h.18c1.14-.43,2.24-.76,3.3-.99s2.03-.34,2.9-.34c.71,0,1.4.05,2.06.14s1.22.28,1.69.54c.49.28.87.67,1.13,1.16s.4,1.11.4,1.86v.51c-1.92.09-3.72.23-5.4.42s-3.11.54-4.31,1.07c-1.18.53-2.09,1.25-2.73,2.17s-.96,2.12-.96,3.61c0,1.82.62,3.31,1.85,4.48s2.73,1.76,4.5,1.76c.96,0,1.8-.09,2.51-.27s1.35-.41,1.9-.68c.47-.21.95-.5,1.45-.85s.89-.64,1.19-.83v2.09h3.29v-13.32ZM442.23,786.02h-.25c-1.28,1.15-2.65,2.01-4.11,2.58s-3.04.86-4.71.86c-1.22,0-2.38-.21-3.47-.62s-2.05-1.06-2.87-1.92c-.79-.83-1.43-1.91-1.92-3.23s-.75-2.91-.75-4.75.23-3.31.68-4.65,1.08-2.45,1.89-3.33c.83-.9,1.78-1.57,2.84-2s2.25-.64,3.58-.64c1.62,0,3.13.28,4.55.83s2.85,1.43,4.29,2.64h.26v-4.13c-1.71-.86-3.27-1.45-4.67-1.79s-2.8-.51-4.21-.51c-1.92,0-3.67.3-5.25.9s-2.92,1.46-4.03,2.6c-1.15,1.17-2.03,2.61-2.64,4.31s-.91,3.63-.91,5.78c0,2.27.32,4.27.95,5.99s1.51,3.13,2.64,4.25c1.15,1.14,2.5,1.97,4.05,2.5s3.28.8,5.18.8c1.01,0,1.93-.08,2.77-.24s1.61-.35,2.33-.57c.84-.27,1.53-.53,2.05-.77s1.1-.51,1.75-.79v-4.08Z" style="fill: #444;"/>
  <path d="M33.33,209.8v3.43H12.5v-3.43h-2.67v10.34h2.67v-3.43h20.83v3.43h2.67v-10.34h-2.67ZM19.63,230.92c.64.25,1.2.64,1.7,1.17.53.57.89,1.27,1.08,2.09s.29,1.78.29,2.88v3.52h-9.88v-4.1c0-.94.07-1.75.2-2.44s.37-1.29.71-1.79c.4-.61.89-1.05,1.47-1.31s1.25-.4,2-.4c.98,0,1.8.13,2.43.38ZM24.56,232.24c-.64-1.66-1.6-2.97-2.87-3.92s-2.85-1.42-4.74-1.42c-1.39,0-2.55.27-3.45.8s-1.66,1.27-2.26,2.22c-.53.84-.89,1.79-1.1,2.85s-.31,2.37-.31,3.96v7.33h26.17v-3.48h-10.41v-4.9l10.41-8.75v-4.52l-11.44,9.84ZM25.72,264.57l-12.85-4.61,12.85-4.59v9.19ZM9.83,257.56v4.64l26.17,9.53v-3.53l-7.29-2.57v-11.32l7.29-2.57v-3.71l-26.17,9.53ZM16.37,289.37l14.55,6.08-14.55,6.03v3.59l18.69-7.82,8.19,3.66v-3.53l-26.88-11.46v3.46ZM32.85,306.71v.18c.11.26.24.68.4,1.27s.24,1.15.24,1.69c0,.93-.11,1.61-.33,2.07s-.56.81-1.03,1.06c-.5.28-1.05.45-1.63.49s-1.39.07-2.42.07h-8.95v-6.82h-2.78v6.82h-5.64v3.3h5.64v2.23h2.78v-2.23h10.44c2.38,0,4.11-.52,5.19-1.56s1.62-2.57,1.62-4.57c0-.57-.05-1.23-.16-1.96s-.24-1.41-.4-2.03h-2.97ZM16.37,323.44v3.3h19.63v-3.3h-19.63ZM9.65,323.23v3.73h3.43v-3.73h-3.43ZM23.26,333.14c-2.4,0-4.24.56-5.52,1.67s-1.92,2.73-1.92,4.85c0,1.16.24,2.29.72,3.39s1.15,2.17,2,3.2h-2.18v3.3h19.63v-3.3h-14.66c-.69-.9-1.26-1.85-1.71-2.83s-.67-1.93-.67-2.83.12-1.59.36-2.14.61-.97,1.1-1.27c.45-.28,1.06-.47,1.85-.58s1.64-.16,2.54-.16h11.18v-3.3h-12.74ZM16.37,356.06v3.3h14.66c.69.88,1.26,1.83,1.71,2.84s.67,1.95.67,2.8c0,.96-.12,1.69-.35,2.2s-.61.91-1.12,1.23c-.5.3-1.11.5-1.82.6s-1.56.14-2.56.14h-11.18v3.3h12.74c2.44,0,4.29-.57,5.55-1.72s1.89-2.75,1.89-4.82c0-1.23-.23-2.36-.7-3.38s-1.14-2.09-2.02-3.2h2.18v-3.3h-19.63ZM23.26,378.71c-2.34,0-4.17.51-5.48,1.54s-1.96,2.62-1.96,4.77c0,1.25.25,2.43.75,3.53s1.31,2.32,2.43,3.66c-1,.46-1.78,1.15-2.34,2.08s-.84,2.07-.84,3.4c0,1.16.24,2.25.72,3.28s1.15,2.05,2,3.08h-2.18v3.3h19.63v-3.3h-14.66c-.69-.9-1.26-1.81-1.71-2.72s-.67-1.81-.67-2.72c0-.95.13-1.68.38-2.18s.63-.89,1.13-1.16c.47-.25,1.09-.41,1.87-.48s1.6-.11,2.47-.11h11.18v-3.3h-12.57c-.35,0-.71.01-1.06.04s-.67.05-.94.09c-.71-.93-1.3-1.85-1.77-2.78s-.69-1.85-.69-2.78.13-1.68.39-2.18.64-.89,1.14-1.16c.47-.25,1.1-.41,1.88-.48s1.6-.11,2.44-.11h11.18v-3.3h-12.74ZM23.26,413.72c-2.34,0-4.17.51-5.48,1.54s-1.96,2.62-1.96,4.77c0,1.25.25,2.43.75,3.53s1.31,2.32,2.43,3.66c-1,.46-1.78,1.15-2.34,2.08s-.84,2.07-.84,3.4c0,1.16.24,2.25.72,3.28s1.15,2.05,2,3.08h-2.18v3.3h19.63v-3.3h-14.66c-.69-.9-1.26-1.81-1.71-2.72s-.67-1.81-.67-2.72c0-.95.13-1.68.38-2.18s.63-.89,1.13-1.16c.47-.25,1.09-.41,1.87-.48s1.6-.11,2.47-.11h11.18v-3.3h-12.57c-.35,0-.71.01-1.06.04s-.67.05-.94.09c-.71-.93-1.3-1.85-1.77-2.78s-.69-1.85-.69-2.78.13-1.68.39-2.18.64-.89,1.14-1.16c.47-.25,1.1-.41,1.88-.48s1.6-.11,2.44-.11h11.18v-3.3h-12.74ZM31.81,452.4c1.26,1,1.89,2.38,1.89,4.14s-.64,3.17-1.91,4.17-3.14,1.49-5.6,1.49-4.43-.5-5.67-1.49-1.85-2.38-1.85-4.17.62-3.15,1.85-4.15,3.13-1.49,5.67-1.49,4.36.5,5.62,1.5ZM18.61,449.95c-1.86,1.64-2.79,3.84-2.79,6.59s.93,4.98,2.79,6.62,4.39,2.45,7.58,2.45,5.72-.82,7.58-2.45,2.78-3.84,2.78-6.62-.93-4.95-2.78-6.59-4.38-2.46-7.58-2.46-5.73.82-7.58,2.46ZM30.02,468.88v.25c1.15,1.28,2.01,2.65,2.58,4.11s.86,3.04.86,4.71c0,1.22-.21,2.38-.62,3.47s-1.06,2.05-1.92,2.87c-.83.79-1.91,1.43-3.23,1.92s-2.91.75-4.75.75-3.31-.23-4.65-.68-2.45-1.08-3.33-1.89c-.9-.83-1.57-1.78-2-2.84s-.64-2.25-.64-3.58c0-1.62.28-3.13.83-4.55s1.43-2.85,2.64-4.29v-.26h-4.13c-.86,1.71-1.45,3.27-1.79,4.67s-.51,2.8-.51,4.21c0,1.92.3,3.67.9,5.25s1.46,2.92,2.6,4.03c1.17,1.15,2.61,2.03,4.31,2.64s3.63.91,5.78.91c2.27,0,4.27-.32,5.99-.95s3.13-1.51,4.25-2.64c1.14-1.15,1.97-2.5,2.5-4.05s.8-3.28.8-5.18c0-1.01-.08-1.93-.24-2.77s-.35-1.61-.57-2.33c-.27-.84-.53-1.53-.77-2.05s-.51-1.1-.79-1.75h-4.08Z" style="fill: #444;"/>
</svg>