<?xml version="1.0" encoding="UTF-8"?>
<svg id="Layer_1" data-name="Layer 1" xmlns="http://www.w3.org/2000/svg" width="1000" height="800.05" xmlns:xlink="http://www.w3.org/1999/xlink" viewBox="0 0 1000 800.05">
  <defs>
    <clipPath id="clippath">
      <polyline points="120 .05 1000 .05 1000 700.05 120 700.05 120 .05" style="fill: none;"/>
    </clipPath>
    <clipPath id="clippath-1">
      <path d="M218.45,511.59h-53.9v5.74h53.9v-5.74M218.45,428.36h-53.9v82.23h53.9v-41.53h-53.9,53.9v-40.7M218.45,345.14h-53.9v82.22h53.9v-82.22M191.5,261.92h0v19.47h-26.95v62.75h53.9v-62.75h-26.95v-19.47M191.5,178.69h0v82.23-82.23M191.5,129.92h0v47.77-47.77M191.5,129.92h-13.47,13.47M204.98,129.92h-13.48,13.48" style="fill: none;"/>
    </clipPath>
    <clipPath id="clippath-2">
      <polyline points="252 70.05 526 70.05 526 164.05 252 164.05 252 70.05" style="fill: none;"/>
    </clipPath>
  </defs>
  <polyline points="0 .05 1000 .05 1000 800.05 0 800.05 0 .05" style="fill: #fff;"/>
  <polyline points="120 678.03 1000 678.03 1000 677.03 120 677.03" style="fill: #eee;"/>
  <polyline points="120 594.81 1000 594.81 1000 593.81 120 593.81 120 594.81" style="fill: #eee;"/>
  <polyline points="120 511.59 1000 511.59 1000 510.59 120 510.59 120 511.59" style="fill: #eee;"/>
  <polyline points="120 428.36 1000 428.36 1000 427.36 120 427.36 120 428.36" style="fill: #eee;"/>
  <polyline points="120 345.14 1000 345.14 1000 344.14 120 344.14 120 345.14" style="fill: #eee;"/>
  <polyline points="120 261.92 1000 261.92 1000 260.92 120 260.92 120 261.92" style="fill: #eee;"/>
  <polyline points="120 178.69 1000 178.69 1000 177.69 120 177.69 120 178.69" style="fill: #eee;"/>
  <polyline points="120 95.47 1000 95.47 1000 94.47 120 94.47 120 95.47" style="fill: #eee;"/>
  <polyline points="120 12.25 1000 12.25 1000 11.25 120 11.25" style="fill: #eee;"/>
  <g style="clip-path: url(#clippath);">
    <g style="clip-path: url(#clippath-1);">
      <rect x="164.55" y="129.92" width="53.9" height="387.41" style="fill: #d5b1fc;"/>
    </g>
    <polyline points="218.45 510.59 164.55 510.59 164.55 511.59 218.45 511.59 218.45 510.59" style="fill: #cca8f4;"/>
    <polyline points="218.45 427.36 164.55 427.36 164.55 428.36 218.45 428.36 218.45 427.36" style="fill: #cca8f4;"/>
    <polyline points="218.45 344.14 164.55 344.14 164.55 345.14 218.45 345.14 218.45 344.14" style="fill: #cca8f4;"/>
    <path d="M164.55,470.06h53.9v-2h-53.9v2ZM164.55,517.33v1h54.9v-237.94h-55.9v237.94h1v-1h1v-234.94h51.9v233.94h-52.9v1h1-1ZM190.5,517.33v101.95h2v-101.95h-2ZM192.5,281.39v-151.47h-2v151.47h2ZM178.03,620.28h26.95v-2h-26.95v2ZM178.03,130.92h26.95v-2h-26.95v2Z" style="fill: #ab63fa;"/>
    <path d="M438.45,511.59h-53.9v29.46h53.9v-29.46M438.45,428.36h-53.9v82.23h53.9v-81.06h-53.9,53.9v-1.17M411.5,345.14h0v9.9h-26.95v72.32h53.9v-72.32h-26.95v-9.9M411.5,261.92h0v82.22-82.22M411.5,241.44h0v19.48-19.48M411.5,241.44h-13.48,13.48M424.98,241.44h-13.48,13.48" style="fill: #d5b1fc;"/>
    <polyline points="438.45 510.59 384.55 510.59 384.55 511.59 438.45 511.59 438.45 510.59" style="fill: #cca8f4;"/>
    <polyline points="438.45 427.36 384.55 427.36 384.55 428.36 438.45 428.36 438.45 427.36" style="fill: #cca8f4;"/>
    <path d="M384.55,430.53h53.9v-2h-53.9v2ZM384.55,541.05v1h54.9v-188.01h-55.9v188.01h1v-1h1v-185.01h51.9v184.01s-52.9,0-52.9,0v1h1-1ZM410.5,541.05v108.19h2v-108.19h-2ZM412.5,355.04v-113.6h-2v113.6h2ZM398.02,650.24h26.96v-2h-26.96v2ZM398.02,242.44h26.96v-2h-26.96v2Z" style="fill: #ab63fa;"/>
    <path d="M658.45,345.14h-53.9v27.8h53.9v-27.8M658.45,261.92h-53.9v82.22h53.9v-31.96h-53.9,53.9v-50.26M631.5,178.69h0v43.61h-26.95v38.62h53.9v-38.62h-26.95v-43.61M631.5,116.61h0v61.08-61.08M631.5,116.61h-13.47,13.47M644.98,116.61h-13.48,13.48" style="fill: #d5b1fc;"/>
    <polyline points="658.45 344.14 604.55 344.14 604.55 345.14 658.45 345.14 658.45 344.14" style="fill: #cca8f4;"/>
    <polyline points="658.45 260.92 604.55 260.92 604.55 261.92 658.45 261.92 658.45 260.92" style="fill: #cca8f4;"/>
    <path d="M604.55,313.18h53.9v-2h-53.9v2ZM604.55,372.94v1h54.9v-152.64h-55.9v152.64h1v-1h1v-149.64h51.9v148.64h-52.9v1h1-1ZM630.5,372.94v93.21h2v-93.21h-2ZM632.5,222.3v-105.69h-2v105.69h2ZM618.03,467.15h26.95v-2h-26.95v2ZM618.03,117.61h26.95v-2h-26.95v2Z" style="fill: #ab63fa;"/>
    <path d="M878.45,261.92h-53.9v43.61h53.9v-43.61M878.45,178.69h-53.9v82.23h53.9v-82.23M851.5,95.47h0v10.74h-26.95v71.48h53.9v-24.05h-53.9,53.9v-47.43h-26.95v-10.74M851.5,35.05h0v59.42-59.42M851.5,35.05h-13.47,13.47M864.98,35.05h-13.48,13.48" style="fill: #d5b1fc;"/>
    <polyline points="878.45 260.92 824.55 260.92 824.55 261.92 878.45 261.92 878.45 260.92" style="fill: #cca8f4;"/>
    <polyline points="878.45 177.69 824.55 177.69 824.55 178.69 878.45 178.69 878.45 177.69" style="fill: #cca8f4;"/>
    <path d="M824.55,154.64h53.9v-2h-53.9v2ZM824.55,305.53v1h54.9V105.21h-55.9v201.32h1v-1h1V107.21h51.9s0,197.32,0,197.32h-52.9v1h1-1ZM850.5,305.53v103.19h2v-103.19h-2ZM852.5,106.21V35.05h-2v71.16h2ZM838.03,409.72h26.95v-2h-26.95v2ZM838.03,36.05h26.95v-2h-26.95v2Z" style="fill: #ab63fa;"/>
    <path d="M295.45,511.59h-53.9v57.75h53.9v-37.45h-53.9,53.9v-20.3M268.5,448.67h0v49.1h-26.95v12.82h53.9v-12.82h-26.95v-49.1M268.5,448.67h-13.47,13.47M281.98,448.67h-13.48,13.48" style="fill: #ffd0ac;"/>
    <polyline points="295.45 510.59 241.55 510.59 241.55 511.59 295.45 511.59 295.45 510.59" style="fill: #f7c7a4;"/>
    <path d="M241.55,532.89h53.9v-2h-53.9v2ZM241.55,569.34v1h54.9v-73.57h-55.9v73.57h1v-1h1v-70.57h51.9s0,69.57,0,69.57h-52.9v1h1-1ZM267.5,569.34v45.78h2v-45.78h-2ZM269.5,497.77v-49.1h-2v49.1h2ZM255.03,616.12h26.95v-2h-26.95v2ZM255.03,449.67h26.95v-2h-26.95v2Z" style="fill: #ffa15a;"/>
    <path d="M515.45,594.81h-53.9v29.88h53.9v-29.88M488.5,511.59h0v16.14h-26.95v66.08h53.9v-15.31h-53.9,53.9v-50.77h-26.95v-16.14M488.5,431.19h0v79.4-79.4M488.5,431.19h-13.47,13.47M501.98,431.19h-13.48,13.48" style="fill: #ffd0ac;"/>
    <polyline points="515.45 593.81 461.55 593.81 461.55 594.81 515.45 594.81 515.45 593.81" style="fill: #f7c7a4;"/>
    <path d="M461.55,579.5h53.9v-2h-53.9v2ZM461.55,624.69v1h54.9v-98.96h-55.9v98.96h1v-1h1v-95.96h51.9v94.96h-52.9v1h1-1ZM487.5,624.69v40.36h2v-40.36h-2ZM489.5,527.73v-96.54h-2v96.54h2ZM475.03,666.05h26.95v-2h-26.95v2ZM475.03,432.19h26.95v-2h-26.95v2Z" style="fill: #ffa15a;"/>
    <path d="M735.45,428.36h-53.9v61.51h53.9v-61.51M708.5,345.14h0v27.38h-26.95v54.84h53.9v-24.46h-53.9,53.9v-30.38h-26.95v-27.38M708.5,305.53h0v38.61-38.61M708.5,305.53h-13.47,13.47M721.97,305.53h-13.47,13.47" style="fill: #ffd0ac;"/>
    <polyline points="735.45 427.36 681.55 427.36 681.55 428.36 735.45 428.36 735.45 427.36" style="fill: #f7c7a4;"/>
    <path d="M681.55,403.9h53.9v-2h-53.9v2ZM681.55,489.87v1h54.9v-119.35h-55.9v119.35h1v-1h1v-116.35h51.9v115.35h-52.9v1h1-1ZM707.5,489.87v14.56h2v-14.56h-2ZM709.5,372.52v-66.99h-2v66.99h2ZM695.03,505.43h26.94v-2h-26.94v2ZM695.03,306.53h26.94v-2h-26.94v2Z" style="fill: #ffa15a;"/>
    <path d="M955.45,345.14h-53.9v14.48h53.9v-14.48M955.45,261.92h-53.9v82.22h53.9v-61.5h-53.9,53.9v-20.72M928.5,178.69h0v49.02h-26.95v33.21h53.9v-33.21h-26.95v-49.02M928.5,120.77h0v56.92-56.92M928.5,120.77h-13.47,13.47M941.97,120.77h-13.47,13.47" style="fill: #ffd0ac;"/>
    <polyline points="955.45 344.14 901.55 344.14 901.55 345.14 955.45 345.14 955.45 344.14" style="fill: #f7c7a4;"/>
    <polyline points="955.45 260.92 901.55 260.92 901.55 261.92 955.45 261.92 955.45 260.92" style="fill: #f7c7a4;"/>
    <path d="M901.55,283.64h53.9v-2h-53.9v2ZM901.55,359.62v1h54.9v-133.91h-55.9v133.91h1v-1h1v-130.91h51.9v129.91h-52.9v1h1-1ZM927.5,359.62v77.4h2v-77.4h-2ZM929.5,227.71v-106.94h-2v106.94h2ZM915.03,438.02h26.94v-2h-26.94v2ZM915.03,121.77h26.94v-2h-26.94v2Z" style="fill: #ffa15a;"/>
  </g>
  <path d="M319.12,719.62c-.61-.25-1.14-.41-1.61-.49v-.21c1.16-.23,2.17-.8,3.02-1.71.85-.9,1.28-1.96,1.28-3.17,0-.89-.18-1.67-.54-2.33s-.89-1.23-1.6-1.7c-.65-.43-1.39-.74-2.2-.94s-1.75-.29-2.81-.29-2.2.14-3.36.43c-1.16.29-2.08.6-2.78.95v3.06h.15c.93-.61,1.91-1.07,2.96-1.41s2.03-.5,2.96-.5c.61,0,1.15.05,1.63.15s.93.27,1.35.53c.4.25.71.58.94.97.22.4.34.86.34,1.38,0,1.19-.44,2.1-1.33,2.72-.88.62-2.07.93-3.55.93h-1.03v2.43h1.32c.72,0,1.4.06,2.02.17s1.16.32,1.6.62c.44.29.78.7,1.03,1.21.25.51.37,1.16.37,1.94s-.11,1.45-.33,1.96-.55.99-1,1.42c-.43.4-.99.7-1.68.91s-1.35.31-1.96.31c-1.04,0-2.13-.18-3.25-.54s-2.1-.82-2.93-1.36h-.22v3.06c.75.34,1.71.66,2.89.94,1.17.29,2.36.43,3.57.43s2.27-.16,3.26-.49c.99-.33,1.85-.83,2.59-1.52.65-.62,1.16-1.34,1.52-2.17s.54-1.74.54-2.74-.15-1.83-.45-2.46-.69-1.16-1.16-1.58c-.42-.37-.93-.68-1.54-.93ZM298.22,728.52c-.61.38-1.37.57-2.29.57-.98,0-1.76-.2-2.35-.6s-1.05-.98-1.37-1.74c-.35-.81-.58-1.73-.69-2.75s-.16-2.3-.16-3.82c0-1.39.06-2.66.18-3.82s.35-2.1.68-2.83c.35-.77.83-1.35,1.43-1.73s1.36-.57,2.28-.57,1.69.19,2.28.57,1.06.95,1.4,1.7c.35.76.59,1.69.71,2.78s.18,2.38.18,3.87-.06,2.79-.18,3.86c-.12,1.07-.35,2-.7,2.79-.33.77-.8,1.35-1.41,1.73ZM301.67,711.62c-1.21-1.88-3.12-2.82-5.73-2.82s-4.49.93-5.71,2.78-1.83,4.71-1.83,8.59.6,6.7,1.81,8.55,3.12,2.78,5.73,2.78,4.48-.92,5.71-2.75c1.23-1.83,1.84-4.7,1.84-8.62s-.6-6.64-1.81-8.52ZM284.43,728.55h-11.73c.97-.82,2.01-1.71,3.12-2.67s2.19-1.96,3.24-2.98c.73-.71,1.35-1.36,1.87-1.95s.96-1.18,1.34-1.79c.41-.64.72-1.33.93-2.04.21-.72.31-1.49.31-2.32,0-1.85-.63-3.31-1.9-4.39s-3.02-1.62-5.26-1.62c-1.08,0-2.2.14-3.36.42s-2.08.6-2.78.94v3.08h.15c.99-.64,2-1.12,3.03-1.44s2-.47,2.89-.47c1.34,0,2.38.32,3.13.96s1.12,1.53,1.12,2.66c0,1.24-.35,2.39-1.04,3.46-.69,1.07-1.98,2.51-3.85,4.33-.89.87-1.85,1.74-2.88,2.62s-2.06,1.76-3.08,2.64v3.06h14.77v-2.5ZM265.36,728.55h-11.73c.97-.82,2.01-1.71,3.12-2.67s2.19-1.96,3.24-2.98c.73-.71,1.35-1.36,1.87-1.95s.96-1.18,1.34-1.79c.41-.64.72-1.33.93-2.04.21-.72.31-1.49.31-2.32,0-1.85-.63-3.31-1.9-4.39s-3.02-1.62-5.26-1.62c-1.08,0-2.2.14-3.36.42s-2.08.6-2.78.94v3.08h.15c.99-.64,2-1.12,3.03-1.44s2-.47,2.89-.47c1.34,0,2.38.32,3.13.96s1.12,1.53,1.12,2.66c0,1.24-.35,2.39-1.04,3.46-.69,1.07-1.98,2.51-3.85,4.33-.89.87-1.85,1.74-2.88,2.62s-2.06,1.76-3.08,2.64v3.06h14.77v-2.5ZM241,728.52c-.61.38-1.37.57-2.29.57-.98,0-1.76-.2-2.35-.6s-1.05-.98-1.37-1.74c-.35-.81-.58-1.73-.69-2.75s-.16-2.3-.16-3.82c0-1.39.06-2.66.18-3.82s.35-2.1.68-2.83c.35-.77.83-1.35,1.43-1.73s1.36-.57,2.28-.57,1.69.19,2.28.57,1.06.95,1.4,1.7c.35.76.59,1.69.71,2.78s.18,2.38.18,3.87-.06,2.79-.18,3.86c-.12,1.07-.35,2-.7,2.79-.33.77-.8,1.35-1.41,1.73ZM244.45,711.62c-1.21-1.88-3.12-2.82-5.73-2.82s-4.49.93-5.71,2.78-1.83,4.71-1.83,8.59.6,6.7,1.81,8.55,3.12,2.78,5.73,2.78,4.48-.92,5.71-2.75c1.23-1.83,1.84-4.7,1.84-8.62s-.6-6.64-1.81-8.52ZM227.22,728.55h-11.73c.97-.82,2.01-1.71,3.12-2.67s2.19-1.96,3.24-2.98c.73-.71,1.35-1.36,1.87-1.95s.96-1.18,1.34-1.79c.41-.64.72-1.33.93-2.04.21-.72.31-1.49.31-2.32,0-1.85-.63-3.31-1.9-4.39s-3.02-1.62-5.26-1.62c-1.08,0-2.2.14-3.36.42s-2.08.6-2.78.94v3.08h.15c.99-.64,2-1.12,3.03-1.44s2-.47,2.89-.47c1.34,0,2.38.32,3.13.96s1.12,1.53,1.12,2.66c0,1.24-.35,2.39-1.04,3.46-.69,1.07-1.98,2.51-3.85,4.33-.89.87-1.85,1.74-2.88,2.62s-2.06,1.76-3.08,2.64v3.06h14.77v-2.5ZM210.15,733.69h-19.19v1.76h19.19v-1.76ZM177.5,721.05c.12-1.29.61-2.37,1.49-3.24s2.05-1.3,3.52-1.3,2.56.4,3.27,1.19,1.08,1.91,1.09,3.35h-9.38ZM189.56,721.66c0-2.37-.6-4.2-1.79-5.49s-2.9-1.93-5.1-1.93c-2.38,0-4.3.79-5.76,2.36s-2.19,3.7-2.19,6.37.76,4.79,2.29,6.26c1.52,1.47,3.64,2.21,6.36,2.21,1.06,0,2.08-.13,3.05-.4s1.91-.59,2.84-.98v-3h-.15c-.48.43-1.28.87-2.41,1.31s-2.25.67-3.36.67c-.84,0-1.61-.12-2.31-.35s-1.3-.59-1.81-1.05c-.53-.48-.94-1.09-1.25-1.84-.3-.75-.45-1.62-.45-2.63h12.06v-1.49ZM170.44,714.69h-2.75v12.22c-.73.58-1.52,1.05-2.37,1.42s-1.62.56-2.34.56c-.8,0-1.41-.1-1.83-.29s-.76-.51-1.03-.94c-.25-.42-.42-.92-.5-1.52s-.12-1.3-.12-2.13v-9.32h-2.75v10.62c0,2.03.48,3.57,1.44,4.62.96,1.05,2.29,1.58,4.01,1.58,1.03,0,1.96-.2,2.81-.59s1.74-.95,2.67-1.68v1.82h2.75v-16.36ZM146.46,728.36c-.8.35-1.59.52-2.37.52-1.46,0-2.53-.51-3.19-1.52-.66-1.01-1-2.49-1-4.43s.43-3.5,1.29-4.57,2.06-1.61,3.6-1.61c.69,0,1.33.06,1.92.19s1.25.36,1.99.69v9.39c-.69.55-1.44.99-2.24,1.34ZM151.46,708.26h-2.75v7.09c-.73-.38-1.43-.66-2.09-.84s-1.43-.27-2.29-.27c-.95,0-1.86.2-2.75.59s-1.66.96-2.32,1.7c-.67.76-1.21,1.68-1.6,2.77s-.59,2.32-.59,3.71c0,2.67.57,4.75,1.72,6.25s2.7,2.26,4.65,2.26c1.01,0,1.94-.19,2.8-.57s1.68-.91,2.48-1.6v1.71h2.75v-22.79Z" style="fill: #444;"/>
  <path d="M539.52,719.62c-.61-.25-1.14-.41-1.61-.49v-.21c1.16-.23,2.17-.8,3.02-1.71.85-.9,1.28-1.96,1.28-3.17,0-.89-.18-1.67-.54-2.33s-.89-1.23-1.6-1.7c-.65-.43-1.39-.74-2.2-.94s-1.75-.29-2.81-.29-2.2.14-3.36.43c-1.16.29-2.08.6-2.78.95v3.06h.15c.93-.61,1.91-1.07,2.96-1.41s2.03-.5,2.96-.5c.61,0,1.15.05,1.63.15s.93.27,1.35.53c.4.25.71.58.94.97.22.4.34.86.34,1.38,0,1.19-.44,2.1-1.33,2.72-.88.62-2.07.93-3.55.93h-1.03v2.43h1.32c.72,0,1.4.06,2.02.17s1.16.32,1.6.62c.44.29.78.7,1.03,1.21.25.51.37,1.16.37,1.94s-.11,1.45-.33,1.96-.55.99-1,1.42c-.43.4-.99.7-1.68.91s-1.35.31-1.96.31c-1.04,0-2.13-.18-3.25-.54s-2.1-.82-2.93-1.36h-.22v3.06c.75.34,1.71.66,2.89.94,1.17.29,2.36.43,3.57.43s2.27-.16,3.26-.49c.99-.33,1.85-.83,2.59-1.52.65-.62,1.16-1.34,1.52-2.17s.54-1.74.54-2.74-.15-1.83-.45-2.46-.69-1.16-1.16-1.58c-.42-.37-.93-.68-1.54-.93ZM518.61,728.52c-.61.38-1.37.57-2.29.57-.98,0-1.76-.2-2.35-.6s-1.05-.98-1.37-1.74c-.35-.81-.58-1.73-.69-2.75s-.16-2.3-.16-3.82c0-1.39.06-2.66.18-3.82s.35-2.1.68-2.83c.35-.77.83-1.35,1.43-1.73s1.36-.57,2.28-.57,1.69.19,2.28.57,1.06.95,1.4,1.7c.35.76.59,1.69.71,2.78s.18,2.38.18,3.87-.06,2.79-.18,3.86c-.12,1.07-.35,2-.7,2.79-.33.77-.8,1.35-1.41,1.73ZM522.06,711.62c-1.21-1.88-3.12-2.82-5.73-2.82s-4.49.93-5.71,2.78-1.83,4.71-1.83,8.59.6,6.7,1.81,8.55,3.12,2.78,5.73,2.78,4.48-.92,5.71-2.75c1.23-1.83,1.84-4.7,1.84-8.62s-.6-6.64-1.81-8.52ZM504.83,728.55h-11.73c.97-.82,2.01-1.71,3.12-2.67s2.19-1.96,3.24-2.98c.73-.71,1.35-1.36,1.87-1.95s.96-1.18,1.34-1.79c.41-.64.72-1.33.93-2.04.21-.72.31-1.49.31-2.32,0-1.85-.63-3.31-1.9-4.39s-3.02-1.62-5.26-1.62c-1.08,0-2.2.14-3.36.42s-2.08.6-2.78.94v3.08h.15c.99-.64,2-1.12,3.03-1.44s2-.47,2.89-.47c1.34,0,2.38.32,3.13.96s1.12,1.53,1.12,2.66c0,1.24-.35,2.39-1.04,3.46-.69,1.07-1.98,2.51-3.85,4.33-.89.87-1.85,1.74-2.88,2.62s-2.06,1.76-3.08,2.64v3.06h14.77v-2.5ZM485.76,728.55h-11.73c.97-.82,2.01-1.71,3.12-2.67s2.19-1.96,3.24-2.98c.73-.71,1.35-1.36,1.87-1.95s.96-1.18,1.34-1.79c.41-.64.72-1.33.93-2.04.21-.72.31-1.49.31-2.32,0-1.85-.63-3.31-1.9-4.39s-3.02-1.62-5.26-1.62c-1.08,0-2.2.14-3.36.42s-2.08.6-2.78.94v3.08h.15c.99-.64,2-1.12,3.03-1.44s2-.47,2.89-.47c1.34,0,2.38.32,3.13.96s1.12,1.53,1.12,2.66c0,1.24-.35,2.39-1.04,3.46-.69,1.07-1.98,2.51-3.85,4.33-.89.87-1.85,1.74-2.88,2.62s-2.06,1.76-3.08,2.64v3.06h14.77v-2.5ZM461.4,728.52c-.61.38-1.37.57-2.29.57-.98,0-1.76-.2-2.35-.6s-1.05-.98-1.37-1.74c-.35-.81-.58-1.73-.69-2.75s-.16-2.3-.16-3.82c0-1.39.06-2.66.18-3.82s.35-2.1.68-2.83c.35-.77.83-1.35,1.43-1.73s1.36-.57,2.28-.57,1.69.19,2.28.57,1.06.95,1.4,1.7c.35.76.59,1.69.71,2.78s.18,2.38.18,3.87-.06,2.79-.18,3.86c-.12,1.07-.35,2-.7,2.79-.33.77-.8,1.35-1.41,1.73ZM464.85,711.62c-1.21-1.88-3.12-2.82-5.73-2.82s-4.49.93-5.71,2.78-1.83,4.71-1.83,8.59.6,6.7,1.81,8.55,3.12,2.78,5.73,2.78,4.48-.92,5.71-2.75c1.23-1.83,1.84-4.7,1.84-8.62s-.6-6.64-1.81-8.52ZM447.61,728.55h-11.73c.97-.82,2.01-1.71,3.12-2.67s2.19-1.96,3.24-2.98c.73-.71,1.35-1.36,1.87-1.95s.96-1.18,1.34-1.79c.41-.64.72-1.33.93-2.04.21-.72.31-1.49.31-2.32,0-1.85-.63-3.31-1.9-4.39s-3.02-1.62-5.26-1.62c-1.08,0-2.2.14-3.36.42s-2.08.6-2.78.94v3.08h.15c.99-.64,2-1.12,3.03-1.44s2-.47,2.89-.47c1.34,0,2.38.32,3.13.96s1.12,1.53,1.12,2.66c0,1.24-.35,2.39-1.04,3.46-.69,1.07-1.98,2.51-3.85,4.33-.89.87-1.85,1.74-2.88,2.62s-2.06,1.76-3.08,2.64v3.06h14.77v-2.5ZM430.55,733.69h-19.19v1.76h19.19v-1.76ZM407.39,714.69l-2.84,12.67-4.19-12.67h-2.27l-4.09,12.67-3-12.67h-2.87l4.31,16.36h2.53l4.17-12.61,4.2,12.61h2.55l4.26-16.36h-2.77ZM386.98,714.86c-.43-.07-.75-.11-.97-.14-.21-.02-.56-.04-1.04-.04-.87,0-1.72.18-2.56.55-.83.37-1.8.99-2.89,1.87v-2.42h-2.75v16.36h2.75v-11.62c.73-.6,1.49-1.08,2.29-1.46.79-.38,1.61-.56,2.46-.56.53,0,.98.02,1.37.07.39.04.78.12,1.19.21h.15v-2.83ZM371.47,720.43c0-2-.46-3.54-1.39-4.6s-2.28-1.6-4.04-1.6c-.97,0-1.91.2-2.83.6s-1.81.96-2.67,1.67v-1.82h-2.75v16.36h2.75v-12.22c.75-.58,1.54-1.05,2.36-1.42s1.61-.56,2.36-.56,1.33.1,1.79.3c.46.2.81.51,1.05.92.23.37.4.89.48,1.54.09.66.13,1.37.13,2.12v9.32h2.75v-10.62Z" style="fill: #444;"/>
  <path d="M743.51,728.55h-11.73c.97-.82,2.01-1.71,3.12-2.67s2.19-1.96,3.24-2.98c.73-.71,1.35-1.36,1.87-1.95s.96-1.18,1.34-1.79c.41-.64.72-1.33.93-2.04.21-.72.31-1.49.31-2.32,0-1.85-.63-3.31-1.9-4.39s-3.02-1.62-5.26-1.62c-1.08,0-2.2.14-3.36.42s-2.08.6-2.78.94v3.08h.15c.99-.64,2-1.12,3.03-1.44s2-.47,2.89-.47c1.34,0,2.38.32,3.13.96s1.12,1.53,1.12,2.66c0,1.24-.35,2.39-1.04,3.46-.69,1.07-1.98,2.51-3.85,4.33-.89.87-1.85,1.74-2.88,2.62s-2.06,1.76-3.08,2.64v3.06h14.77v-2.5ZM724.43,728.55h-11.73c.97-.82,2.01-1.71,3.12-2.67s2.19-1.96,3.24-2.98c.73-.71,1.35-1.36,1.87-1.95s.96-1.18,1.34-1.79c.41-.64.72-1.33.93-2.04.21-.72.31-1.49.31-2.32,0-1.85-.63-3.31-1.9-4.39s-3.02-1.62-5.26-1.62c-1.08,0-2.2.14-3.36.42s-2.08.6-2.78.94v3.08h.15c.99-.64,2-1.12,3.03-1.44s2-.47,2.89-.47c1.34,0,2.38.32,3.13.96s1.12,1.53,1.12,2.66c0,1.24-.35,2.39-1.04,3.46-.69,1.07-1.98,2.51-3.85,4.33-.89.87-1.85,1.74-2.88,2.62s-2.06,1.76-3.08,2.64v3.06h14.77v-2.5ZM700.07,728.52c-.61.38-1.37.57-2.29.57-.98,0-1.76-.2-2.35-.6s-1.05-.98-1.37-1.74c-.35-.81-.58-1.73-.69-2.75s-.16-2.3-.16-3.82c0-1.39.06-2.66.18-3.82s.35-2.1.68-2.83c.35-.77.83-1.35,1.43-1.73s1.36-.57,2.28-.57,1.69.19,2.28.57,1.06.95,1.4,1.7c.35.76.59,1.69.71,2.78s.18,2.38.18,3.87-.06,2.79-.18,3.86c-.12,1.07-.35,2-.7,2.79-.33.77-.8,1.35-1.41,1.73ZM703.52,711.62c-1.21-1.88-3.12-2.82-5.73-2.82s-4.49.93-5.71,2.78-1.83,4.71-1.83,8.59.6,6.7,1.81,8.55,3.12,2.78,5.73,2.78,4.48-.92,5.71-2.75c1.23-1.83,1.84-4.7,1.84-8.62s-.6-6.64-1.81-8.52ZM686.29,728.55h-11.73c.97-.82,2.01-1.71,3.12-2.67s2.19-1.96,3.24-2.98c.73-.71,1.35-1.36,1.87-1.95s.96-1.18,1.34-1.79c.41-.64.72-1.33.93-2.04.21-.72.31-1.49.31-2.32,0-1.85-.63-3.31-1.9-4.39s-3.02-1.62-5.26-1.62c-1.08,0-2.2.14-3.36.42s-2.08.6-2.78.94v3.08h.15c.99-.64,2-1.12,3.03-1.44s2-.47,2.89-.47c1.34,0,2.38.32,3.13.96s1.12,1.53,1.12,2.66c0,1.24-.35,2.39-1.04,3.46-.69,1.07-1.98,2.51-3.85,4.33-.89.87-1.85,1.74-2.88,2.62s-2.06,1.76-3.08,2.64v3.06h14.77v-2.5ZM669.22,733.69h-19.19v1.76h19.19v-1.76ZM636.57,721.05c.12-1.29.61-2.37,1.49-3.24s2.05-1.3,3.52-1.3,2.56.4,3.27,1.19,1.08,1.91,1.09,3.35h-9.38ZM648.63,721.66c0-2.37-.6-4.2-1.79-5.49s-2.9-1.93-5.1-1.93c-2.38,0-4.3.79-5.76,2.36s-2.19,3.7-2.19,6.37.76,4.79,2.29,6.26c1.52,1.47,3.64,2.21,6.36,2.21,1.06,0,2.08-.13,3.05-.4s1.91-.59,2.84-.98v-3h-.15c-.48.43-1.28.87-2.41,1.31s-2.25.67-3.36.67c-.84,0-1.61-.12-2.31-.35s-1.3-.59-1.81-1.05c-.53-.48-.94-1.09-1.25-1.84-.3-.75-.45-1.62-.45-2.63h12.06v-1.49ZM629.51,714.69h-2.75v12.22c-.73.58-1.52,1.05-2.37,1.42s-1.62.56-2.34.56c-.8,0-1.41-.1-1.83-.29s-.76-.51-1.03-.94c-.25-.42-.42-.92-.5-1.52s-.12-1.3-.12-2.13v-9.32h-2.75v10.62c0,2.03.48,3.57,1.44,4.62.96,1.05,2.29,1.58,4.01,1.58,1.03,0,1.96-.2,2.81-.59s1.74-.95,2.67-1.68v1.82h2.75v-16.36ZM605.53,728.36c-.8.35-1.59.52-2.37.52-1.46,0-2.53-.51-3.19-1.52-.66-1.01-1-2.49-1-4.43s.43-3.5,1.29-4.57,2.06-1.61,3.6-1.61c.69,0,1.33.06,1.92.19s1.25.36,1.99.69v9.39c-.69.55-1.44.99-2.24,1.34ZM610.53,708.26h-2.75v7.09c-.73-.38-1.43-.66-2.09-.84s-1.43-.27-2.29-.27c-.95,0-1.86.2-2.75.59s-1.66.96-2.32,1.7c-.67.76-1.21,1.68-1.6,2.77s-.59,2.32-.59,3.71c0,2.67.57,4.75,1.72,6.25s2.7,2.26,4.65,2.26c1.01,0,1.94-.19,2.8-.57s1.68-.91,2.48-1.6v1.71h2.75v-22.79Z" style="fill: #444;"/>
  <path d="M963.9,728.55h-11.73c.97-.82,2.01-1.71,3.12-2.67s2.19-1.96,3.24-2.98c.73-.71,1.35-1.36,1.87-1.95s.96-1.18,1.34-1.79c.41-.64.72-1.33.93-2.04.21-.72.31-1.49.31-2.32,0-1.85-.63-3.31-1.9-4.39s-3.02-1.62-5.26-1.62c-1.08,0-2.2.14-3.36.42s-2.08.6-2.78.94v3.08h.15c.99-.64,2-1.12,3.03-1.44s2-.47,2.89-.47c1.34,0,2.38.32,3.13.96s1.12,1.53,1.12,2.66c0,1.24-.35,2.39-1.04,3.46-.69,1.07-1.98,2.51-3.85,4.33-.89.87-1.85,1.74-2.88,2.62s-2.06,1.76-3.08,2.64v3.06h14.77v-2.5ZM944.83,728.55h-11.73c.97-.82,2.01-1.71,3.12-2.67s2.19-1.96,3.24-2.98c.73-.71,1.35-1.36,1.87-1.95s.96-1.18,1.34-1.79c.41-.64.72-1.33.93-2.04.21-.72.31-1.49.31-2.32,0-1.85-.63-3.31-1.9-4.39s-3.02-1.62-5.26-1.62c-1.08,0-2.2.14-3.36.42s-2.08.6-2.78.94v3.08h.15c.99-.64,2-1.12,3.03-1.44s2-.47,2.89-.47c1.34,0,2.38.32,3.13.96s1.12,1.53,1.12,2.66c0,1.24-.35,2.39-1.04,3.46-.69,1.07-1.98,2.51-3.85,4.33-.89.87-1.85,1.74-2.88,2.62s-2.06,1.76-3.08,2.64v3.06h14.77v-2.5ZM920.47,728.52c-.61.38-1.37.57-2.29.57-.98,0-1.76-.2-2.35-.6s-1.05-.98-1.37-1.74c-.35-.81-.58-1.73-.69-2.75s-.16-2.3-.16-3.82c0-1.39.06-2.66.18-3.82s.35-2.1.68-2.83c.35-.77.83-1.35,1.43-1.73s1.36-.57,2.28-.57,1.69.19,2.28.57,1.06.95,1.4,1.7c.35.76.59,1.69.71,2.78s.18,2.38.18,3.87-.06,2.79-.18,3.86c-.12,1.07-.35,2-.7,2.79-.33.77-.8,1.35-1.41,1.73ZM923.92,711.62c-1.21-1.88-3.12-2.82-5.73-2.82s-4.49.93-5.71,2.78-1.83,4.71-1.83,8.59.6,6.7,1.81,8.55,3.12,2.78,5.73,2.78,4.48-.92,5.71-2.75c1.23-1.83,1.84-4.7,1.84-8.62s-.6-6.64-1.81-8.52ZM906.68,728.55h-11.73c.97-.82,2.01-1.71,3.12-2.67s2.19-1.96,3.24-2.98c.73-.71,1.35-1.36,1.87-1.95s.96-1.18,1.34-1.79c.41-.64.72-1.33.93-2.04.21-.72.31-1.49.31-2.32,0-1.85-.63-3.31-1.9-4.39s-3.02-1.62-5.26-1.62c-1.08,0-2.2.14-3.36.42s-2.08.6-2.78.94v3.08h.15c.99-.64,2-1.12,3.03-1.44s2-.47,2.89-.47c1.34,0,2.38.32,3.13.96s1.12,1.53,1.12,2.66c0,1.24-.35,2.39-1.04,3.46-.69,1.07-1.98,2.51-3.85,4.33-.89.87-1.85,1.74-2.88,2.62s-2.06,1.76-3.08,2.64v3.06h14.77v-2.5ZM889.62,733.69h-19.19v1.76h19.19v-1.76ZM866.46,714.69l-2.84,12.67-4.19-12.67h-2.27l-4.09,12.67-3-12.67h-2.87l4.31,16.36h2.53l4.17-12.61,4.2,12.61h2.55l4.26-16.36h-2.77ZM846.05,714.86c-.43-.07-.75-.11-.97-.14-.21-.02-.56-.04-1.04-.04-.87,0-1.72.18-2.56.55-.83.37-1.8.99-2.89,1.87v-2.42h-2.75v16.36h2.75v-11.62c.73-.6,1.49-1.08,2.29-1.46.79-.38,1.61-.56,2.46-.56.53,0,.98.02,1.37.07.39.04.78.12,1.19.21h.15v-2.83ZM830.54,720.43c0-2-.46-3.54-1.39-4.6s-2.28-1.6-4.04-1.6c-.97,0-1.91.2-2.83.6s-1.81.96-2.67,1.67v-1.82h-2.75v16.36h2.75v-12.22c.75-.58,1.54-1.05,2.36-1.42s1.61-.56,2.36-.56,1.33.1,1.79.3c.46.2.81.51,1.05.92.23.37.4.89.48,1.54.09.66.13,1.37.13,2.12v9.32h2.75v-10.62Z" style="fill: #444;"/>
  <path d="M115.81,685.8h-4.45v-19.66h-2.27c-.04.63-.19,1.14-.45,1.52-.26.38-.61.69-1.06.93-.36.2-.89.34-1.6.45-.7.1-1.36.15-1.98.15v1.99h4.54v14.62h-4.54v2.23h11.81v-2.23ZM96.22,683.86h-3.5v4.17h3.5v-4.17ZM81.78,685.5c-.61.38-1.37.57-2.29.57-.98,0-1.76-.2-2.35-.6s-1.05-.98-1.37-1.74c-.35-.81-.58-1.73-.69-2.75s-.16-2.3-.16-3.82c0-1.39.06-2.66.18-3.82s.35-2.1.68-2.83c.35-.77.83-1.35,1.43-1.73s1.36-.57,2.28-.57,1.69.19,2.28.57,1.06.95,1.4,1.7c.35.76.59,1.69.71,2.78s.18,2.38.18,3.87-.06,2.79-.18,3.86c-.12,1.07-.35,2-.7,2.79-.33.77-.8,1.35-1.41,1.73ZM85.23,668.6c-1.21-1.88-3.12-2.82-5.73-2.82s-4.49.93-5.71,2.78-1.83,4.71-1.83,8.59.6,6.7,1.81,8.55,3.12,2.78,5.73,2.78,4.48-.92,5.71-2.75c1.23-1.83,1.84-4.7,1.84-8.62s-.6-6.64-1.81-8.52Z" style="fill: #444;"/>
  <path d="M117.05,602.31h-11.73c.97-.82,2.01-1.71,3.12-2.67s2.19-1.96,3.24-2.98c.73-.71,1.35-1.36,1.87-1.95s.96-1.18,1.34-1.79c.41-.64.72-1.33.93-2.04.21-.72.31-1.49.31-2.32,0-1.85-.63-3.31-1.9-4.39s-3.02-1.62-5.26-1.62c-1.08,0-2.2.14-3.36.42s-2.08.6-2.78.94v3.08h.15c.99-.64,2-1.12,3.03-1.44s2-.47,2.89-.47c1.34,0,2.38.32,3.13.96s1.12,1.53,1.12,2.66c0,1.24-.35,2.39-1.04,3.46-.69,1.07-1.98,2.51-3.85,4.33-.89.87-1.85,1.74-2.88,2.62s-2.06,1.76-3.08,2.64v3.06h14.77v-2.5ZM96.22,600.64h-3.5v4.17h3.5v-4.17ZM81.78,602.28c-.61.38-1.37.57-2.29.57-.98,0-1.76-.2-2.35-.6s-1.05-.98-1.37-1.74c-.35-.81-.58-1.73-.69-2.75s-.16-2.3-.16-3.82c0-1.39.06-2.66.18-3.82s.35-2.1.68-2.83c.35-.77.83-1.35,1.43-1.73s1.36-.57,2.28-.57,1.69.19,2.28.57,1.06.95,1.4,1.7c.35.76.59,1.69.71,2.78s.18,2.38.18,3.87-.06,2.79-.18,3.86c-.12,1.07-.35,2-.7,2.79-.33.77-.8,1.35-1.41,1.73ZM85.23,585.38c-1.21-1.88-3.12-2.82-5.73-2.82s-4.49.93-5.71,2.78-1.83,4.71-1.83,8.59.6,6.7,1.81,8.55,3.12,2.78,5.73,2.78,4.48-.92,5.71-2.75c1.23-1.83,1.84-4.7,1.84-8.62s-.6-6.64-1.81-8.52Z" style="fill: #444;"/>
  <path d="M113.59,510.16c-.61-.25-1.14-.41-1.61-.49v-.21c1.16-.23,2.17-.8,3.02-1.71.85-.9,1.28-1.96,1.28-3.17,0-.89-.18-1.67-.54-2.33s-.89-1.23-1.6-1.7c-.65-.43-1.39-.74-2.2-.94s-1.75-.29-2.81-.29-2.2.14-3.36.43c-1.16.29-2.08.6-2.78.95v3.06h.15c.93-.61,1.91-1.07,2.96-1.41s2.03-.5,2.96-.5c.61,0,1.15.05,1.63.15s.93.27,1.35.53c.4.25.71.58.94.97.22.4.34.86.34,1.38,0,1.19-.44,2.1-1.33,2.72-.88.62-2.07.93-3.55.93h-1.03v2.43h1.32c.72,0,1.4.06,2.02.17s1.16.32,1.6.62c.44.29.78.7,1.03,1.21.25.51.37,1.16.37,1.94s-.11,1.45-.33,1.96-.55.99-1,1.42c-.43.4-.99.7-1.68.91s-1.35.31-1.96.31c-1.04,0-2.13-.18-3.25-.54s-2.1-.82-2.93-1.36h-.22v3.06c.75.34,1.71.66,2.89.94,1.17.29,2.36.43,3.57.43s2.27-.16,3.26-.49c.99-.33,1.85-.83,2.59-1.52.65-.62,1.16-1.34,1.52-2.17s.54-1.74.54-2.74-.15-1.83-.45-2.46-.69-1.16-1.16-1.58c-.42-.37-.93-.68-1.54-.93ZM96.22,517.42h-3.5v4.17h3.5v-4.17ZM81.78,519.06c-.61.38-1.37.57-2.29.57-.98,0-1.76-.2-2.35-.6s-1.05-.98-1.37-1.74c-.35-.81-.58-1.73-.69-2.75s-.16-2.3-.16-3.82c0-1.39.06-2.66.18-3.82s.35-2.1.68-2.83c.35-.77.83-1.35,1.43-1.73s1.36-.57,2.28-.57,1.69.19,2.28.57,1.06.95,1.4,1.7c.35.76.59,1.69.71,2.78s.18,2.38.18,3.87-.06,2.79-.18,3.86c-.12,1.07-.35,2-.7,2.79-.33.77-.8,1.35-1.41,1.73ZM85.23,502.16c-1.21-1.88-3.12-2.82-5.73-2.82s-4.49.93-5.71,2.78-1.83,4.71-1.83,8.59.6,6.7,1.81,8.55,3.12,2.78,5.73,2.78,4.48-.92,5.71-2.75c1.23-1.83,1.84-4.7,1.84-8.62s-.6-6.64-1.81-8.52Z" style="fill: #444;"/>
  <path d="M103.05,429.88l8.45-9.84v9.84h-8.45ZM117.55,429.88h-3.24v-13.33h-2.7l-10.56,12.3v3.37h10.44v6.14h2.81v-6.14h3.24v-2.34ZM96.22,434.19h-3.5v4.17h3.5v-4.17ZM81.78,435.83c-.61.38-1.37.57-2.29.57-.98,0-1.76-.2-2.35-.6s-1.05-.98-1.37-1.74c-.35-.81-.58-1.73-.69-2.75s-.16-2.3-.16-3.82c0-1.39.06-2.66.18-3.82s.35-2.1.68-2.83c.35-.77.83-1.35,1.43-1.73s1.36-.57,2.28-.57,1.69.19,2.28.57,1.06.95,1.4,1.7c.35.76.59,1.69.71,2.78s.18,2.38.18,3.87-.06,2.79-.18,3.86c-.12,1.07-.35,2-.7,2.79-.33.77-.8,1.35-1.41,1.73ZM85.23,418.93c-1.21-1.88-3.12-2.82-5.73-2.82s-4.49.93-5.71,2.78-1.83,4.71-1.83,8.59.6,6.7,1.81,8.55,3.12,2.78,5.73,2.78,4.48-.92,5.71-2.75c1.23-1.83,1.84-4.7,1.84-8.62s-.6-6.64-1.81-8.52Z" style="fill: #444;"/>
  <path d="M116.23,345.02c-.43-.85-1.04-1.54-1.82-2.08-.74-.51-1.56-.86-2.45-1.06s-1.92-.3-3.11-.3c-.32,0-.7,0-1.14.03s-.87.05-1.29.09v-5.8h10.3v-2.56h-13.12v11.24c.58-.12,1.26-.23,2.06-.35s1.62-.18,2.48-.18,1.71.08,2.44.23c.73.15,1.35.41,1.85.78.46.31.82.73,1.08,1.25s.39,1.15.39,1.9-.11,1.45-.33,2.04-.54,1.09-.97,1.51c-.51.49-1.09.83-1.74,1.03s-1.32.29-2.01.29c-1.04,0-2.09-.18-3.16-.54-1.07-.36-2.01-.79-2.81-1.3h-.21v3.09c.76.35,1.69.65,2.8.9,1.1.25,2.25.37,3.44.37,1.28,0,2.4-.18,3.38-.55.97-.37,1.81-.89,2.51-1.57.64-.63,1.15-1.42,1.52-2.34s.56-1.9.56-2.92c0-1.28-.21-2.34-.64-3.19ZM96.22,350.97h-3.5v4.17h3.5v-4.17ZM81.78,352.61c-.61.38-1.37.57-2.29.57-.98,0-1.76-.2-2.35-.6s-1.05-.98-1.37-1.74c-.35-.81-.58-1.73-.69-2.75s-.16-2.3-.16-3.82c0-1.39.06-2.66.18-3.82s.35-2.1.68-2.83c.35-.77.83-1.35,1.43-1.73s1.36-.57,2.28-.57,1.69.19,2.28.57,1.06.95,1.4,1.7c.35.76.59,1.69.71,2.78s.18,2.38.18,3.87-.06,2.79-.18,3.86c-.12,1.07-.35,2-.7,2.79-.33.77-.8,1.35-1.41,1.73ZM85.23,335.71c-1.21-1.88-3.12-2.82-5.73-2.82s-4.49.93-5.71,2.78-1.83,4.71-1.83,8.59.6,6.7,1.81,8.55,3.12,2.78,5.73,2.78,4.48-.92,5.71-2.75c1.23-1.83,1.84-4.7,1.84-8.62s-.6-6.64-1.81-8.52Z" style="fill: #444;"/>
  <path d="M113.18,268.69c-.81.87-1.92,1.3-3.34,1.3-.62,0-1.18-.1-1.71-.3-.52-.2-1.01-.51-1.46-.94-.56-.52-.99-1.22-1.31-2.12-.32-.89-.48-2.11-.48-3.66,0-.3,0-.55.01-.75,0-.2.02-.41.04-.62.75-.41,1.48-.71,2.2-.91s1.48-.29,2.31-.29c.6,0,1.17.05,1.71.15s1.04.3,1.49.62c.62.44,1.06.96,1.33,1.55s.4,1.35.4,2.26c0,1.62-.41,2.86-1.22,3.73ZM116.72,261.54c-.43-.91-1.08-1.66-1.94-2.26-.74-.52-1.47-.86-2.18-1.03s-1.53-.26-2.45-.26c-1.04,0-1.97.13-2.76.39-.8.26-1.6.64-2.42,1.14.21-2.24.93-4.01,2.18-5.33,1.25-1.31,2.92-1.97,5.02-1.97.58,0,1.14.07,1.69.2.55.13.96.27,1.24.42h.15v-2.8c-.4-.13-.8-.21-1.19-.26s-.87-.07-1.45-.07c-1.81,0-3.39.31-4.75.93s-2.47,1.48-3.33,2.58c-.91,1.16-1.57,2.49-1.98,3.98s-.62,3.21-.62,5.14.23,3.5.68,4.83,1.1,2.41,1.94,3.22c.67.65,1.45,1.15,2.33,1.48s1.86.5,2.93.5c2.12,0,3.91-.7,5.37-2.1,1.46-1.4,2.19-3.21,2.19-5.43,0-1.3-.22-2.4-.65-3.31ZM96.22,267.75h-3.5v4.17h3.5v-4.17ZM81.78,269.39c-.61.38-1.37.57-2.29.57-.98,0-1.76-.2-2.35-.6s-1.05-.98-1.37-1.74c-.35-.81-.58-1.73-.69-2.75s-.16-2.3-.16-3.82c0-1.39.06-2.66.18-3.82s.35-2.1.68-2.83c.35-.77.83-1.35,1.43-1.73s1.36-.57,2.28-.57,1.69.19,2.28.57,1.06.95,1.4,1.7c.35.76.59,1.69.71,2.78s.18,2.38.18,3.87-.06,2.79-.18,3.86c-.12,1.07-.35,2-.7,2.79-.33.77-.8,1.35-1.41,1.73ZM85.23,252.49c-1.21-1.88-3.12-2.82-5.73-2.82s-4.49.93-5.71,2.78-1.83,4.71-1.83,8.59.6,6.7,1.81,8.55,3.12,2.78,5.73,2.78,4.48-.92,5.71-2.75c1.23-1.83,1.84-4.7,1.84-8.62s-.6-6.64-1.81-8.52Z" style="fill: #444;"/>
  <path d="M117.11,166.88h-14.93v2.56h12.42l-10.5,19.25h3.13l9.87-18.54v-3.27ZM96.22,184.52h-3.5v4.17h3.5v-4.17ZM81.78,186.16c-.61.38-1.37.57-2.29.57-.98,0-1.76-.2-2.35-.6s-1.05-.98-1.37-1.74c-.35-.81-.58-1.73-.69-2.75s-.16-2.3-.16-3.82c0-1.39.06-2.66.18-3.82s.35-2.1.68-2.83c.35-.77.83-1.35,1.43-1.73s1.36-.57,2.28-.57,1.69.19,2.28.57,1.06.95,1.4,1.7c.35.76.59,1.69.71,2.78s.18,2.38.18,3.87-.06,2.79-.18,3.86c-.12,1.07-.35,2-.7,2.79-.33.77-.8,1.35-1.41,1.73ZM85.23,169.26c-1.21-1.88-3.12-2.82-5.73-2.82s-4.49.93-5.71,2.78-1.83,4.71-1.83,8.59.6,6.7,1.81,8.55,3.12,2.78,5.73,2.78,4.48-.92,5.71-2.75c1.23-1.83,1.84-4.7,1.84-8.62s-.6-6.64-1.81-8.52Z" style="fill: #444;"/>
  <path d="M112.91,102.69c-.85.73-1.99,1.1-3.42,1.1s-2.55-.43-3.46-1.29-1.36-1.95-1.36-3.27c0-1.04.27-1.96.8-2.78s1.24-1.47,2.12-1.95c.91.33,1.64.59,2.18.78s1.05.39,1.51.6c1.15.55,1.93,1.09,2.32,1.63.4.54.59,1.26.59,2.16,0,1.28-.43,2.29-1.28,3.02ZM113.18,91.14c-.37.69-1.04,1.36-2.01,2.01-.64-.19-1.31-.42-1.98-.7s-1.2-.51-1.56-.69c-.8-.4-1.4-.86-1.79-1.37-.4-.51-.59-1.12-.59-1.82,0-1,.39-1.79,1.18-2.37s1.79-.88,3.02-.88,2.28.31,3.08.93c.81.62,1.21,1.45,1.21,2.5,0,.91-.19,1.71-.56,2.4ZM116.13,96.11c-.72-.86-1.77-1.58-3.13-2.17v-.09c1.19-.54,2.09-1.28,2.71-2.23.62-.95.92-1.92.92-2.91,0-1.61-.65-2.94-1.95-3.98s-3.04-1.57-5.21-1.57-3.79.55-5.14,1.64-2.02,2.46-2.02,4.1c0,1.11.28,2.04.84,2.78s1.43,1.43,2.6,2.05v.09c-1.28.58-2.27,1.35-2.97,2.34-.7.98-1.05,2.08-1.05,3.29,0,1.9.7,3.47,2.1,4.69s3.28,1.83,5.65,1.83c2.23,0,4.07-.62,5.54-1.88s2.2-2.82,2.2-4.7c0-1.33-.36-2.42-1.08-3.28ZM96.22,101.3h-3.5v4.17h3.5v-4.17ZM81.78,102.94c-.61.38-1.37.57-2.29.57-.98,0-1.76-.2-2.35-.6s-1.05-.98-1.37-1.74c-.35-.81-.58-1.73-.69-2.75s-.16-2.3-.16-3.82c0-1.39.06-2.66.18-3.82s.35-2.1.68-2.83c.35-.77.83-1.35,1.43-1.73s1.36-.57,2.28-.57,1.69.19,2.28.57,1.06.95,1.4,1.7c.35.76.59,1.69.71,2.78s.18,2.38.18,3.87-.06,2.79-.18,3.86c-.12,1.07-.35,2-.7,2.79-.33.77-.8,1.35-1.41,1.73ZM85.23,86.04c-1.21-1.88-3.12-2.82-5.73-2.82s-4.49.93-5.71,2.78-1.83,4.71-1.83,8.59.6,6.7,1.81,8.55,3.12,2.78,5.73,2.78,4.48-.92,5.71-2.75c1.23-1.83,1.84-4.7,1.84-8.62s-.6-6.64-1.81-8.52Z" style="fill: #444;"/>
  <path d="M109.14,0c-.33,0-.65.02-.96.05h1.95c-.32-.03-.65-.05-.99-.05" style="fill: #fff;"/>
  <path d="M109.49,11.98c-.64,0-1.23-.05-1.76-.15-.53-.1-1.01-.31-1.45-.61-.63-.44-1.07-.95-1.33-1.54-.26-.59-.4-1.34-.4-2.27,0-1.59.41-2.83,1.22-3.71.82-.88,1.93-1.32,3.33-1.32.62,0,1.19.1,1.71.29.53.19,1.02.51,1.48.95.55.51.98,1.22,1.29,2.14.31.92.47,2.13.47,3.65,0,.31,0,.57-.02.77-.01.2-.03.4-.04.61-.68.39-1.42.69-2.2.89-.78.21-1.55.31-2.31.31M110.13.05h-1.95c-1.7.18-3.16.86-4.4,2.04-1.46,1.4-2.2,3.21-2.2,5.43,0,1.28.22,2.38.65,3.3.43.92,1.08,1.67,1.94,2.27.73.51,1.46.85,2.19,1.03.73.18,1.54.26,2.44.26.95,0,1.82-.12,2.62-.35.8-.23,1.66-.62,2.56-1.17-.2,2.28-.91,4.06-2.13,5.35-1.23,1.29-2.92,1.94-5.08,1.94-.63,0-1.21-.07-1.73-.2-.52-.13-.92-.27-1.2-.42h-.15v2.8c.35.12.75.2,1.2.26.45.05.93.08,1.44.08,1.81,0,3.38-.3,4.72-.91,1.34-.61,2.45-1.46,3.34-2.58.88-1.09,1.54-2.42,1.97-3.97.43-1.55.65-3.28.65-5.19,0-2.02-.22-3.67-.67-4.94-.45-1.28-1.09-2.32-1.92-3.13-.67-.65-1.46-1.14-2.36-1.47-.61-.22-1.26-.37-1.94-.44" style="fill: #fff;"/>
  <path d="M79.49,0c-.35,0-.69.02-1.01.05h2.03c-.33-.03-.66-.05-1.02-.05" style="fill: #fff;"/>
  <path d="M96.22,18.08h-3.5v4.17h3.5v-4.17M79.49,20.29c-.98,0-1.76-.2-2.35-.6-.59-.4-1.05-.98-1.37-1.74-.35-.81-.58-1.73-.69-2.75-.11-1.03-.16-2.3-.16-3.82,0-1.39.06-2.66.18-3.82.12-1.16.35-2.1.68-2.83.35-.77.83-1.35,1.43-1.73.6-.38,1.36-.57,2.28-.57s1.69.19,2.28.57c.59.38,1.06.95,1.4,1.7.35.76.59,1.69.71,2.78.12,1.09.18,2.38.18,3.87s-.06,2.79-.18,3.86c-.12,1.07-.35,2-.7,2.79-.33.77-.8,1.35-1.41,1.73-.61.38-1.37.57-2.29.57M80.51.05h-2.03c-2.08.22-3.64,1.13-4.7,2.73-1.22,1.85-1.83,4.71-1.83,8.59s.6,6.7,1.81,8.55c1.21,1.86,3.12,2.78,5.73,2.78s4.48-.91,5.71-2.75c1.23-1.83,1.84-4.7,1.84-8.62s-.6-6.64-1.81-8.52c-1.04-1.63-2.62-2.55-4.72-2.77" style="fill: #fff;"/>
  <polyline points="252 70.05 526 70.05 526 164.05 252 164.05 252 70.05" style="fill: #fff;"/>
  <g style="clip-path: url(#clippath-2);">
    <path d="M489.37,97.13c0-2-.46-3.54-1.39-4.6s-2.28-1.6-4.04-1.6c-.97,0-1.91.2-2.83.6-.92.4-1.81.96-2.67,1.67v-8.25h-2.75v22.79h2.75v-12.22c.75-.58,1.54-1.05,2.36-1.42.82-.37,1.61-.56,2.36-.56s1.33.1,1.79.3c.46.2.81.51,1.05.92.23.37.4.89.48,1.55.09.66.13,1.37.13,2.12v9.32h2.75v-10.62M472.16,103.69h-.15c-.21.17-.48.36-.84.59-.35.23-.73.45-1.13.65-.46.23-.98.42-1.55.57-.58.15-1.14.22-1.7.22-1.6,0-2.84-.53-3.73-1.59-.88-1.06-1.33-2.58-1.33-4.55s.45-3.57,1.36-4.62c.9-1.05,2.14-1.57,3.7-1.57.85,0,1.72.18,2.61.53.89.35,1.76.85,2.6,1.51h.15v-3.06c-.75-.38-1.58-.7-2.48-.97-.9-.26-1.82-.4-2.76-.4-2.41,0-4.35.76-5.82,2.29-1.47,1.52-2.2,3.62-2.2,6.3,0,1.44.2,2.69.59,3.76.39,1.07.94,1.96,1.66,2.67.7.7,1.55,1.23,2.53,1.57.99.35,2.07.52,3.25.52.93,0,1.8-.12,2.63-.37.83-.24,1.7-.59,2.61-1.03v-3.03M457.47,91.56c-.43-.07-.75-.11-.97-.14-.21-.02-.56-.04-1.04-.04-.87,0-1.72.18-2.56.55-.84.37-1.8.99-2.89,1.87v-2.42h-2.75v16.36h2.75v-11.62c.73-.6,1.49-1.08,2.29-1.46.79-.38,1.61-.56,2.46-.56.53,0,.98.02,1.37.07.39.04.78.12,1.19.21h.15v-2.83M436.99,105.08c-.8.38-1.68.56-2.65.56-1.16,0-2.03-.24-2.59-.71-.57-.47-.85-1.18-.85-2.12,0-.83.24-1.48.73-1.96.49-.47,1.13-.82,1.92-1.05.66-.19,1.56-.33,2.7-.42,1.14-.1,2.13-.17,2.97-.22v4.56c-.68.53-1.43.98-2.23,1.35M441.96,96.65c0-1.05-.16-1.94-.48-2.65-.32-.71-.79-1.29-1.41-1.74-.63-.46-1.36-.78-2.22-.97-.85-.19-1.86-.29-3.01-.29-.99,0-1.99.09-3,.26s-1.79.34-2.33.48v2.8h.15c.95-.36,1.87-.64,2.75-.83.89-.19,1.69-.29,2.42-.29.6,0,1.17.04,1.71.12s1.02.23,1.41.45c.41.23.73.56.95.97.22.41.33.93.33,1.55v.42c-1.6.08-3.1.2-4.5.35-1.4.16-2.59.45-3.59.89-.99.44-1.75,1.04-2.28,1.81-.53.77-.8,1.77-.8,3.01,0,1.51.51,2.76,1.54,3.74s2.28,1.46,3.75,1.46c.8,0,1.5-.08,2.09-.23.6-.15,1.12-.34,1.58-.56.39-.18.79-.41,1.21-.71s.74-.53.99-.7v1.74h2.74v-11.1M413.01,97.75c.12-1.29.61-2.37,1.49-3.24.87-.87,2.05-1.3,3.52-1.3s2.56.4,3.27,1.19,1.08,1.91,1.09,3.35h-9.37M425.07,98.36c0-2.37-.6-4.2-1.79-5.49-1.2-1.29-2.9-1.93-5.1-1.93-2.38,0-4.3.79-5.76,2.36-1.46,1.57-2.19,3.7-2.19,6.37s.76,4.79,2.29,6.26c1.52,1.47,3.64,2.2,6.36,2.2,1.06,0,2.08-.13,3.05-.4.97-.26,1.91-.59,2.84-.98v-3h-.15c-.48.43-1.28.87-2.41,1.31-1.13.44-2.25.67-3.36.67-.84,0-1.61-.12-2.31-.35-.7-.23-1.3-.59-1.81-1.05-.53-.48-.94-1.09-1.25-1.84-.3-.75-.45-1.62-.45-2.63h12.06v-1.49M406.39,100.16c-.69-.71-1.68-1.22-2.96-1.51-.42-.1-.94-.21-1.57-.32-.63-.12-1.2-.23-1.71-.35-.92-.21-1.58-.49-1.99-.83-.42-.34-.63-.85-.63-1.52,0-.76.35-1.33,1.04-1.72s1.54-.58,2.55-.58,1.95.18,2.96.53c1.01.36,1.86.79,2.56,1.31h.15v-2.94c-.66-.34-1.5-.63-2.5-.87-1-.24-1.99-.36-2.97-.36-1.04,0-1.99.13-2.83.4-.84.27-1.54.63-2.09,1.09-.57.47-.99,1-1.27,1.6-.28.6-.42,1.23-.42,1.9,0,1.07.3,1.98.9,2.72.6.74,1.62,1.3,3.05,1.68.52.14,1.09.26,1.72.38.63.12,1.14.22,1.53.31,1.05.23,1.77.52,2.14.85.37.33.56.82.56,1.47,0,.84-.34,1.45-1.03,1.85-.68.39-1.63.59-2.84.59-.98,0-2-.19-3.06-.58-1.06-.39-2.03-.91-2.9-1.56h-.15v3.09c.68.34,1.53.66,2.54.94,1.01.29,2.12.43,3.33.43,2.14,0,3.83-.48,5.06-1.44,1.24-.96,1.85-2.18,1.85-3.68,0-1.19-.35-2.15-1.04-2.87M379.89,97.13c0-2-.46-3.54-1.39-4.6-.93-1.06-2.28-1.6-4.04-1.6-.97,0-1.91.2-2.83.6-.92.4-1.81.96-2.67,1.67v-8.25h-2.75v22.79h2.75v-12.22c.75-.58,1.54-1.05,2.36-1.42.82-.37,1.61-.56,2.36-.56s1.33.1,1.79.3c.46.2.81.51,1.05.92.23.37.4.89.48,1.55.09.66.13,1.37.13,2.12v9.32h2.75v-10.62M362.88,105.13h-.15c-.21.09-.57.2-1.05.33-.49.13-.96.2-1.41.2-.77,0-1.35-.09-1.72-.27-.38-.18-.67-.47-.89-.86-.23-.42-.37-.87-.41-1.36-.04-.48-.06-1.15-.06-2.01v-7.46h5.68v-2.31h-5.68v-4.7h-2.75v4.7h-1.86v2.31h1.86v8.7c0,1.98.43,3.42,1.3,4.32.87.9,2.14,1.35,3.81,1.35.48,0,1.02-.04,1.63-.13.61-.09,1.17-.2,1.69-.34v-2.48M345.96,104.04c-.86,1.04-2.06,1.55-3.59,1.55-.71,0-1.35-.06-1.91-.19-.56-.13-1.23-.37-2.01-.72v-9.27c.73-.56,1.5-1.01,2.3-1.35.8-.34,1.6-.51,2.39-.51,1.4,0,2.43.49,3.11,1.46.67.98,1.01,2.45,1.01,4.42s-.43,3.56-1.29,4.6M348.45,93.17c-1.1-1.49-2.63-2.23-4.61-2.23-1.04,0-2.01.21-2.92.62-.91.42-1.74.93-2.47,1.55v-1.71h-2.75v22.4h2.75v-6.86c.71.39,1.41.68,2.1.86.69.19,1.46.28,2.31.28.98,0,1.9-.2,2.78-.59.87-.39,1.63-.95,2.28-1.68.69-.76,1.23-1.69,1.61-2.79.38-1.1.57-2.31.57-3.64,0-2.65-.55-4.71-1.65-6.2M319.47,97.75c.12-1.29.61-2.37,1.49-3.24.87-.87,2.05-1.3,3.52-1.3s2.56.4,3.27,1.19,1.08,1.91,1.09,3.35h-9.37M331.52,98.36c0-2.37-.6-4.2-1.79-5.49-1.2-1.29-2.9-1.93-5.1-1.93-2.38,0-4.3.79-5.76,2.36-1.46,1.57-2.19,3.7-2.19,6.37s.76,4.79,2.29,6.26c1.52,1.47,3.64,2.2,6.36,2.2,1.06,0,2.08-.13,3.05-.4.97-.26,1.91-.59,2.84-.98v-3h-.15c-.48.43-1.28.87-2.41,1.31-1.13.44-2.25.67-3.36.67-.84,0-1.61-.12-2.31-.35-.7-.23-1.3-.59-1.81-1.05-.53-.48-.94-1.09-1.25-1.84-.3-.75-.45-1.62-.45-2.63h12.06v-1.49M309.51,101.07c-.54,1.13-1.35,2.05-2.44,2.74-.87.56-1.82.94-2.86,1.14-1.04.21-2.26.31-3.65.31h-2.72v-16.83h2.72c1.35,0,2.5.09,3.47.29.97.19,1.88.53,2.74,1.02,1.18.67,2.07,1.6,2.67,2.77.6,1.17.89,2.61.89,4.32s-.27,3.12-.81,4.25M312.11,91.37c-.83-1.54-1.99-2.78-3.47-3.71-.87-.54-1.93-.96-3.19-1.27-1.25-.31-2.95-.46-5.08-.46h-5.45v21.81h5.51c2,0,3.62-.14,4.84-.41,1.23-.27,2.34-.72,3.33-1.33,1.44-.89,2.59-2.14,3.45-3.75.86-1.61,1.3-3.41,1.3-5.39,0-2.12-.41-3.95-1.24-5.49" style="fill: #444;"/>
    <polyline points="278 102.05 278 101.05 267 101.05 267 91.05 277 91.05 277 102.05 278 102.05 278 101.05 278 102.05 279 102.05 279 89.05 265 89.05 265 103.05 279 103.05 279 102.05 278 102.05" style="fill: #ab63fa;"/>
    <path d="M439.22,99.17c-.84.05-1.83.12-2.97.22-1.14.1-2.04.24-2.7.42-.79.22-1.43.57-1.92,1.05-.49.47-.73,1.13-.73,1.96,0,.94.28,1.64.85,2.12.57.47,1.43.71,2.59.71.97,0,1.85-.19,2.65-.56.8-.38,1.54-.83,2.23-1.35v-4.56M343.14,93.56c-.79,0-1.59.17-2.39.51-.8.34-1.57.79-2.3,1.35v9.27c.78.35,1.45.59,2.01.72.56.13,1.2.19,1.91.19,1.53,0,2.73-.52,3.59-1.55s1.29-2.57,1.29-4.6-.34-3.45-1.01-4.42c-.67-.98-1.71-1.46-3.11-1.46M324.48,93.2c-1.47,0-2.65.43-3.52,1.3-.87.87-1.37,1.95-1.49,3.24h9.37c0-1.45-.37-2.56-1.09-3.35s-1.81-1.19-3.27-1.19M418.02,93.2c-1.47,0-2.65.43-3.52,1.3-.87.87-1.37,1.95-1.49,3.24h9.37c0-1.45-.37-2.56-1.09-3.35s-1.81-1.19-3.27-1.19M300.55,88.43h-2.72v16.83h2.72c1.4,0,2.61-.1,3.65-.31,1.04-.21,1.99-.59,2.86-1.14,1.08-.69,1.9-1.61,2.44-2.74.54-1.13.81-2.55.81-4.25s-.3-3.15-.89-4.32c-.6-1.17-1.48-2.09-2.67-2.77-.86-.49-1.77-.83-2.74-1.02-.97-.19-2.12-.29-3.47-.29M450.01,93.81c1.09-.88,2.06-1.5,2.89-1.87.83-.37,1.69-.55,2.56-.55.48,0,.83.01,1.04.04.21.03.54.07.97.14v2.83h-.15c-.41-.1-.81-.17-1.19-.21-.39-.04-.84-.07-1.37-.07-.85,0-1.67.19-2.46.56-.79.38-1.55.86-2.29,1.46v11.62h-2.75v-16.36h2.75v2.42M466.92,108.12c-1.18,0-2.27-.17-3.25-.52-.99-.35-1.83-.87-2.53-1.57-.71-.7-1.26-1.59-1.66-2.67-.39-1.07-.59-2.33-.59-3.76,0-2.68.73-4.78,2.2-6.3,1.47-1.52,3.41-2.29,5.82-2.29.94,0,1.86.13,2.76.4.9.26,1.73.59,2.48.97v3.06h-.15c-.84-.65-1.71-1.16-2.6-1.51-.89-.35-1.77-.53-2.61-.53-1.56,0-2.8.53-3.7,1.57-.9,1.05-1.36,2.59-1.36,4.62s.44,3.49,1.33,4.55c.88,1.06,2.13,1.59,3.73,1.59.56,0,1.12-.07,1.7-.22.58-.15,1.09-.34,1.55-.57.4-.21.78-.42,1.13-.65.35-.23.63-.43.84-.59h.15v3.03c-.92.44-1.79.78-2.61,1.03-.83.24-1.7.37-2.63.37M400.75,105.82c1.21,0,2.16-.2,2.84-.59.68-.39,1.03-1.01,1.03-1.85,0-.64-.19-1.13-.56-1.47-.37-.33-1.08-.62-2.14-.85-.39-.09-.9-.19-1.53-.31-.63-.12-1.2-.24-1.72-.38-1.44-.38-2.45-.94-3.05-1.68-.6-.74-.9-1.64-.9-2.72,0-.67.14-1.31.42-1.9.28-.6.7-1.13,1.27-1.6.55-.46,1.24-.82,2.09-1.09.84-.27,1.79-.4,2.83-.4.98,0,1.97.12,2.97.36,1,.24,1.83.53,2.5.87v2.94h-.15c-.7-.52-1.56-.95-2.56-1.31-1.01-.36-1.99-.53-2.96-.53s-1.86.19-2.55.58-1.04.96-1.04,1.72c0,.67.21,1.18.63,1.52.41.34,1.07.62,1.99.83.51.12,1.08.23,1.71.35.63.12,1.15.22,1.57.32,1.28.29,2.27.8,2.96,1.51.69.72,1.04,1.68,1.04,2.87,0,1.49-.62,2.72-1.85,3.68-1.24.96-2.92,1.44-5.06,1.44-1.21,0-2.32-.14-3.33-.43-1.01-.29-1.86-.6-2.54-.94v-3.09h.15c.87.65,1.84,1.17,2.9,1.56,1.06.39,2.09.58,3.06.58M429.5,94.54v-2.8c.54-.15,1.31-.31,2.33-.48s2.02-.26,3-.26c1.15,0,2.16.1,3.01.29.85.19,1.59.52,2.22.97.62.45,1.08,1.03,1.41,1.74.32.71.48,1.6.48,2.65v11.1h-2.74v-1.74c-.24.17-.57.4-.99.7s-.82.53-1.21.71c-.46.22-.99.41-1.58.56-.6.15-1.29.23-2.09.23-1.47,0-2.72-.49-3.75-1.46s-1.54-2.22-1.54-3.74c0-1.24.27-2.24.8-3.01.53-.77,1.29-1.37,2.28-1.81,1-.44,2.19-.74,3.59-.89,1.4-.16,2.9-.27,4.5-.35v-.42c0-.63-.11-1.14-.33-1.55-.22-.41-.53-.73-.95-.97-.39-.22-.86-.38-1.41-.45s-1.12-.12-1.71-.12c-.72,0-1.53.1-2.42.29-.89.19-1.81.47-2.75.83h-.15M325.31,108.13c-2.71,0-4.83-.73-6.36-2.2-1.52-1.47-2.29-3.56-2.29-6.26s.73-4.8,2.19-6.37c1.46-1.57,3.38-2.36,5.76-2.36,2.21,0,3.91.64,5.1,1.93,1.2,1.29,1.79,3.12,1.79,5.49v1.49h-12.06c0,1.01.15,1.88.45,2.63.3.75.72,1.36,1.25,1.84.51.47,1.11.82,1.81,1.05.7.23,1.47.35,2.31.35,1.11,0,2.23-.22,3.36-.67,1.13-.44,1.93-.88,2.41-1.31h.15v3c-.93.39-1.88.72-2.84.98-.97.26-1.98.4-3.05.4M338.45,93.1c.73-.62,1.56-1.13,2.47-1.55.91-.41,1.89-.62,2.92-.62,1.97,0,3.51.75,4.61,2.23,1.1,1.49,1.65,3.56,1.65,6.2,0,1.33-.19,2.54-.57,3.64-.38,1.1-.92,2.03-1.61,2.79-.64.72-1.4,1.28-2.28,1.68-.87.4-1.8.59-2.78.59-.85,0-1.62-.09-2.31-.28-.69-.19-1.39-.47-2.1-.86v6.86h-2.75v-22.4h2.75v1.71M418.86,108.13c-2.71,0-4.83-.73-6.36-2.2-1.52-1.47-2.29-3.56-2.29-6.26s.73-4.8,2.19-6.37c1.46-1.57,3.38-2.36,5.76-2.36,2.21,0,3.91.64,5.1,1.93,1.2,1.29,1.79,3.12,1.79,5.49v1.49h-12.06c0,1.01.15,1.88.45,2.63.3.75.72,1.36,1.25,1.84.51.47,1.11.82,1.81,1.05.7.23,1.47.35,2.31.35,1.11,0,2.23-.22,3.36-.67,1.13-.44,1.93-.88,2.41-1.31h.15v3c-.93.39-1.88.72-2.84.98-.97.26-1.98.4-3.05.4M265,103.05v-14h14v14h-14M352.59,93.7v-2.31h1.86v-4.7h2.75v4.7h5.68v2.31h-5.68v7.46c0,.86.02,1.53.06,2.01.04.48.18.94.41,1.36.21.39.51.68.89.86.38.18.95.27,1.72.27.45,0,.92-.07,1.41-.2.49-.13.84-.24,1.05-.33h.15v2.48c-.52.14-1.08.25-1.69.34-.61.09-1.15.13-1.63.13-1.67,0-2.94-.45-3.81-1.35-.87-.9-1.3-2.34-1.3-4.32v-8.7h-1.86M294.93,107.75v-21.81h5.45c2.13,0,3.82.15,5.08.46,1.25.31,2.32.73,3.19,1.27,1.48.93,2.64,2.16,3.47,3.71.83,1.54,1.24,3.37,1.24,5.49,0,1.98-.43,3.78-1.3,5.39-.86,1.61-2.01,2.86-3.45,3.75-1,.62-2.11,1.06-3.33,1.33-1.23.27-2.84.41-4.84.41h-5.51M366.21,107.75v-22.79h2.75v8.25c.86-.71,1.75-1.27,2.67-1.67.92-.4,1.86-.6,2.83-.6,1.77,0,3.12.53,4.04,1.6.93,1.06,1.39,2.6,1.39,4.6v10.62h-2.75v-9.32c0-.75-.04-1.46-.13-2.12-.09-.66-.25-1.17-.48-1.55-.24-.41-.6-.71-1.05-.92-.46-.2-1.05-.3-1.79-.3s-1.54.19-2.36.56c-.82.37-1.61.84-2.36,1.42v12.22h-2.75M475.69,107.75v-22.79h2.75v8.25c.86-.71,1.75-1.27,2.67-1.67.92-.4,1.86-.6,2.83-.6,1.77,0,3.12.53,4.04,1.6s1.39,2.6,1.39,4.6v10.62h-2.75v-9.32c0-.75-.04-1.46-.13-2.12-.09-.66-.25-1.17-.48-1.55-.24-.41-.6-.71-1.05-.92-.46-.2-1.05-.3-1.79-.3s-1.54.19-2.36.56c-.82.37-1.61.84-2.36,1.42v12.22h-2.75M520.25,75.05H252v42h268.25v-42" style="fill: #fff;"/>
    <path d="M455.46,91.39c-.87,0-1.72.18-2.56.55-.84.37-1.8.99-2.89,1.87v-2.42h-2.75v16.36h2.75v-11.62c.73-.6,1.49-1.08,2.29-1.46.79-.38,1.61-.56,2.46-.56.53,0,.98.02,1.37.07.39.04.78.12,1.19.21h.15v-2.83c-.43-.07-.75-.11-.97-.14-.21-.02-.56-.04-1.04-.04M466.92,91.01c-2.41,0-4.35.76-5.82,2.29-1.47,1.52-2.2,3.62-2.2,6.3,0,1.44.2,2.69.59,3.76.39,1.07.94,1.96,1.66,2.67.7.7,1.55,1.23,2.53,1.57.99.35,2.07.52,3.25.52.93,0,1.8-.12,2.63-.37.83-.24,1.7-.59,2.61-1.03v-3.03h-.15c-.21.17-.48.36-.84.59-.35.23-.73.45-1.13.65-.46.23-.98.42-1.55.57-.58.15-1.14.22-1.7.22-1.6,0-2.84-.53-3.73-1.59-.88-1.06-1.33-2.58-1.33-4.55s.45-3.57,1.36-4.62c.9-1.05,2.14-1.57,3.7-1.57.85,0,1.72.18,2.61.53.89.35,1.76.85,2.6,1.51h.15v-3.06c-.75-.38-1.58-.7-2.48-.97-.9-.26-1.82-.4-2.76-.4M401.32,90.99c-1.04,0-1.99.13-2.83.4-.84.27-1.54.63-2.09,1.09-.57.47-.99,1-1.27,1.6-.28.6-.42,1.23-.42,1.9,0,1.07.3,1.98.9,2.72.6.74,1.62,1.3,3.05,1.68.52.14,1.09.26,1.72.38.63.12,1.14.22,1.53.31,1.05.23,1.77.52,2.14.85.37.33.56.82.56,1.47,0,.84-.34,1.45-1.03,1.85-.68.39-1.63.59-2.84.59-.98,0-2-.19-3.06-.58-1.06-.39-2.03-.91-2.9-1.56h-.15v3.09c.68.34,1.53.66,2.54.94,1.01.29,2.12.43,3.33.43,2.14,0,3.83-.48,5.06-1.44,1.24-.96,1.85-2.18,1.85-3.68,0-1.19-.35-2.15-1.04-2.87-.69-.71-1.68-1.22-2.96-1.51-.42-.1-.94-.21-1.57-.32-.63-.12-1.2-.23-1.71-.35-.92-.21-1.58-.49-1.99-.83-.42-.34-.63-.85-.63-1.52,0-.76.35-1.33,1.04-1.72s1.54-.58,2.55-.58,1.95.18,2.96.53c1.01.36,1.86.79,2.56,1.31h.15v-2.94c-.66-.34-1.5-.63-2.5-.87-1-.24-1.99-.36-2.97-.36M434.34,105.64c-1.16,0-2.03-.24-2.59-.71-.57-.47-.85-1.18-.85-2.12,0-.83.24-1.48.73-1.96.49-.47,1.13-.82,1.92-1.05.66-.19,1.56-.33,2.7-.42,1.14-.1,2.13-.17,2.97-.22v4.56c-.68.53-1.43.98-2.23,1.35-.8.38-1.68.56-2.65.56M434.84,90.99c-.99,0-1.99.09-3,.26s-1.79.34-2.33.48v2.8h.15c.95-.36,1.87-.64,2.75-.83.89-.19,1.69-.29,2.42-.29.6,0,1.17.04,1.71.12s1.02.23,1.41.45c.41.23.73.56.95.97.22.41.33.93.33,1.55v.42c-1.6.08-3.1.2-4.5.35-1.4.16-2.59.45-3.59.89-.99.44-1.75,1.04-2.28,1.81-.53.77-.8,1.77-.8,3.01,0,1.51.51,2.76,1.54,3.74s2.28,1.46,3.75,1.46c.8,0,1.5-.08,2.09-.23.6-.15,1.12-.34,1.58-.56.39-.18.79-.41,1.21-.71s.74-.53.99-.7v1.74h2.74v-11.1c0-1.05-.16-1.94-.48-2.65-.32-.71-.79-1.29-1.41-1.74-.63-.46-1.36-.78-2.22-.97-.85-.19-1.86-.29-3.01-.29M319.47,97.75c.12-1.29.61-2.37,1.49-3.24.87-.87,2.05-1.3,3.52-1.3s2.56.4,3.27,1.19,1.08,1.91,1.09,3.35h-9.37M324.62,90.93c-2.38,0-4.3.79-5.76,2.36-1.46,1.57-2.19,3.7-2.19,6.37s.76,4.79,2.29,6.26c1.52,1.47,3.64,2.2,6.36,2.2,1.06,0,2.08-.13,3.05-.4.97-.26,1.91-.59,2.84-.98v-3h-.15c-.48.43-1.28.87-2.41,1.31-1.13.44-2.25.67-3.36.67-.84,0-1.61-.12-2.31-.35-.7-.23-1.3-.59-1.81-1.05-.53-.48-.94-1.09-1.25-1.84-.3-.75-.45-1.62-.45-2.63h12.06v-1.49c0-2.37-.6-4.2-1.79-5.49-1.2-1.29-2.9-1.93-5.1-1.93M342.38,105.6c-.71,0-1.35-.06-1.91-.19-.56-.13-1.23-.37-2.01-.72v-9.27c.73-.56,1.5-1.01,2.3-1.35.8-.34,1.6-.51,2.39-.51,1.4,0,2.43.49,3.11,1.46.67.98,1.01,2.45,1.01,4.42s-.43,3.56-1.29,4.6-2.06,1.55-3.59,1.55M343.84,90.93c-1.04,0-2.01.21-2.92.62-.91.42-1.74.93-2.47,1.55v-1.71h-2.75v22.4h2.75v-6.86c.71.39,1.41.68,2.1.86.69.19,1.46.28,2.31.28.98,0,1.9-.2,2.78-.59.87-.39,1.63-.95,2.28-1.68.69-.76,1.23-1.69,1.61-2.79.38-1.1.57-2.31.57-3.64,0-2.65-.55-4.71-1.65-6.2-1.1-1.49-2.63-2.23-4.61-2.23M413.01,97.75c.12-1.29.61-2.37,1.49-3.24.87-.87,2.05-1.3,3.52-1.3s2.56.4,3.27,1.19,1.08,1.91,1.09,3.35h-9.37M418.17,90.93c-2.38,0-4.3.79-5.76,2.36-1.46,1.57-2.19,3.7-2.19,6.37s.76,4.79,2.29,6.26c1.52,1.47,3.64,2.2,6.36,2.2,1.06,0,2.08-.13,3.05-.4.97-.26,1.91-.59,2.84-.98v-3h-.15c-.48.43-1.28.87-2.41,1.31-1.13.44-2.25.67-3.36.67-.84,0-1.61-.12-2.31-.35-.7-.23-1.3-.59-1.81-1.05-.53-.48-.94-1.09-1.25-1.84-.3-.75-.45-1.62-.45-2.63h12.06v-1.49c0-2.37-.6-4.2-1.79-5.49-1.2-1.29-2.9-1.93-5.1-1.93M357.2,86.69h-2.75v4.7h-1.86v2.31h1.86v8.7c0,1.98.43,3.42,1.3,4.32.87.9,2.14,1.35,3.81,1.35.48,0,1.02-.04,1.63-.13.61-.09,1.17-.2,1.69-.34v-2.48h-.15c-.21.09-.57.2-1.05.33-.49.13-.96.2-1.41.2-.77,0-1.35-.09-1.72-.27-.38-.18-.67-.47-.89-.86-.23-.42-.37-.87-.41-1.36-.04-.48-.06-1.15-.06-2.01v-7.46h5.68v-2.31h-5.68v-4.7M297.83,105.26v-16.83h2.72c1.35,0,2.5.09,3.47.29.97.19,1.88.53,2.74,1.02,1.18.67,2.07,1.6,2.67,2.77.6,1.17.89,2.61.89,4.32s-.27,3.12-.81,4.25c-.54,1.13-1.35,2.05-2.44,2.74-.87.56-1.82.94-2.86,1.14-1.04.21-2.26.31-3.65.31h-2.72M300.38,85.94h-5.45v21.81h5.51c2,0,3.62-.14,4.84-.41,1.23-.27,2.34-.72,3.33-1.33,1.44-.89,2.59-2.14,3.45-3.75.86-1.61,1.3-3.41,1.3-5.39,0-2.12-.41-3.95-1.24-5.49-.83-1.54-1.99-2.78-3.47-3.71-.87-.54-1.93-.96-3.19-1.27-1.25-.31-2.95-.46-5.08-.46M368.96,84.96h-2.75v22.79h2.75v-12.22c.75-.58,1.54-1.05,2.36-1.42.82-.37,1.61-.56,2.36-.56s1.33.1,1.79.3c.46.2.81.51,1.05.92.23.37.4.89.48,1.55.09.66.13,1.37.13,2.12v9.32h2.75v-10.62c0-2-.46-3.54-1.39-4.6-.93-1.06-2.28-1.6-4.04-1.6-.97,0-1.91.2-2.83.6-.92.4-1.81.96-2.67,1.67v-8.25M478.45,84.96h-2.75v22.79h2.75v-12.22c.75-.58,1.54-1.05,2.36-1.42.82-.37,1.61-.56,2.36-.56s1.33.1,1.79.3c.46.2.81.51,1.05.92.23.37.4.89.48,1.55.09.66.13,1.37.13,2.12v9.32h2.75v-10.62c0-2-.46-3.54-1.39-4.6s-2.28-1.6-4.04-1.6c-.97,0-1.91.2-2.83.6-.92.4-1.81.96-2.67,1.67v-8.25" style="fill: #444;"/>
    <polyline points="277 91.05 267 91.05 267 101.05 277 101.05 277 91.05" style="fill: #d5b1fc;"/>
    <path d="M278,102.05h0v-1,1h1-1M267,101.05v-10h10v10h-10M279,89.05h-14v14h14v-14" style="fill: #ab63fa;"/>
    <path d="M517.64,139.13c0-2-.46-3.54-1.39-4.6-.93-1.06-2.28-1.6-4.04-1.6-.97,0-1.91.2-2.83.6-.92.4-1.81.96-2.67,1.67v-8.25h-2.75v22.79h2.75v-12.22c.75-.58,1.54-1.05,2.36-1.42.82-.37,1.61-.56,2.36-.56s1.33.1,1.79.3c.46.2.81.51,1.05.92.23.37.4.89.48,1.54.09.66.13,1.37.13,2.12v9.32h2.75v-10.62M500.43,145.69h-.15c-.21.17-.48.36-.83.59-.35.23-.73.45-1.13.65-.46.23-.98.42-1.55.57-.58.15-1.14.22-1.7.22-1.6,0-2.84-.53-3.73-1.59-.88-1.06-1.33-2.58-1.33-4.55s.45-3.57,1.35-4.62c.9-1.05,2.14-1.57,3.7-1.57.85,0,1.72.18,2.61.53.89.35,1.76.85,2.6,1.51h.15v-3.06c-.75-.38-1.58-.7-2.48-.97-.9-.26-1.82-.4-2.76-.4-2.41,0-4.35.76-5.82,2.29-1.47,1.52-2.2,3.62-2.2,6.3,0,1.44.2,2.69.59,3.76.39,1.07.94,1.96,1.66,2.67.7.7,1.55,1.23,2.53,1.57.99.35,2.07.52,3.25.52.93,0,1.8-.12,2.63-.37.83-.24,1.7-.59,2.61-1.03v-3.03M485.74,133.56c-.43-.07-.75-.11-.97-.14-.21-.02-.56-.04-1.04-.04-.87,0-1.72.18-2.56.55-.83.37-1.8.99-2.89,1.87v-2.42h-2.75v16.36h2.75v-11.62c.73-.6,1.49-1.08,2.29-1.46.79-.38,1.61-.56,2.46-.56.53,0,.98.02,1.37.07.39.04.78.12,1.19.21h.15v-2.83M465.26,147.08c-.8.38-1.68.56-2.65.56-1.16,0-2.03-.24-2.59-.71-.57-.47-.85-1.18-.85-2.12,0-.83.24-1.48.73-1.96.49-.47,1.13-.82,1.92-1.05.66-.19,1.56-.33,2.7-.42,1.14-.1,2.13-.17,2.97-.22v4.56c-.68.53-1.43.98-2.23,1.35M470.23,138.65c0-1.05-.16-1.94-.48-2.65-.32-.71-.79-1.29-1.41-1.74-.62-.46-1.36-.78-2.22-.97-.85-.19-1.86-.29-3.01-.29-.99,0-1.99.09-3,.26-1.02.18-1.79.34-2.33.48v2.8h.15c.95-.36,1.87-.64,2.75-.83.89-.19,1.69-.29,2.42-.29.6,0,1.17.04,1.71.12.55.08,1.02.23,1.41.45.41.23.72.56.94.97.22.41.33.93.33,1.55v.42c-1.6.08-3.1.2-4.5.35-1.4.16-2.59.45-3.59.89-.99.44-1.75,1.04-2.28,1.81s-.8,1.77-.8,3.01c0,1.51.51,2.76,1.54,3.74,1.03.98,2.28,1.46,3.75,1.46.8,0,1.5-.08,2.09-.23.6-.15,1.12-.34,1.58-.56.39-.18.79-.41,1.21-.71.42-.3.74-.53.99-.7v1.74h2.74v-11.1M441.28,139.75c.12-1.29.61-2.37,1.49-3.24.87-.87,2.05-1.3,3.52-1.3s2.56.4,3.27,1.19c.72.79,1.08,1.91,1.09,3.35h-9.37M453.34,140.36c0-2.37-.6-4.2-1.79-5.49-1.2-1.29-2.9-1.93-5.1-1.93-2.38,0-4.3.79-5.76,2.36-1.46,1.57-2.19,3.7-2.19,6.37s.76,4.79,2.29,6.26c1.52,1.47,3.64,2.21,6.36,2.21,1.06,0,2.08-.13,3.05-.4.97-.26,1.91-.59,2.84-.98v-3h-.15c-.48.43-1.28.87-2.41,1.31-1.13.44-2.25.67-3.36.67-.84,0-1.61-.12-2.31-.35-.7-.23-1.3-.59-1.81-1.05-.53-.48-.94-1.09-1.24-1.84-.3-.75-.45-1.62-.45-2.63h12.06v-1.49M434.66,142.16c-.69-.71-1.68-1.22-2.96-1.51-.42-.1-.94-.21-1.57-.32-.63-.12-1.2-.23-1.71-.35-.92-.21-1.58-.49-1.99-.83-.42-.34-.63-.85-.63-1.52,0-.76.35-1.33,1.04-1.72.69-.39,1.54-.58,2.55-.58s1.95.18,2.96.53c1.01.36,1.86.79,2.56,1.31h.15v-2.94c-.66-.34-1.5-.63-2.5-.87-1-.24-1.99-.36-2.97-.36-1.04,0-1.99.13-2.83.4-.84.27-1.54.63-2.09,1.09-.57.47-.99,1-1.27,1.6-.28.6-.42,1.23-.42,1.9,0,1.07.3,1.98.9,2.72.6.74,1.62,1.3,3.05,1.68.52.14,1.09.26,1.72.38.63.12,1.14.22,1.53.31,1.05.23,1.77.52,2.14.85.37.33.56.82.56,1.46,0,.84-.34,1.46-1.03,1.85-.68.39-1.63.59-2.84.59-.98,0-2-.19-3.06-.58-1.06-.39-2.03-.91-2.9-1.56h-.15v3.09c.68.34,1.53.66,2.54.94,1.01.29,2.12.43,3.33.43,2.14,0,3.83-.48,5.06-1.44,1.24-.96,1.85-2.18,1.85-3.68,0-1.19-.35-2.15-1.04-2.87M408.16,139.13c0-2-.46-3.54-1.39-4.6s-2.28-1.6-4.04-1.6c-.97,0-1.91.2-2.83.6-.92.4-1.81.96-2.67,1.67v-8.25h-2.75v22.79h2.75v-12.22c.75-.58,1.54-1.05,2.36-1.42.82-.37,1.61-.56,2.36-.56s1.33.1,1.79.3c.46.2.81.51,1.05.92.23.37.4.89.48,1.54.09.66.13,1.37.13,2.12v9.32h2.75v-10.62M391.16,147.13h-.15c-.22.09-.57.2-1.05.33-.49.13-.96.2-1.41.2-.77,0-1.35-.09-1.72-.27-.38-.18-.67-.47-.89-.86-.23-.42-.37-.87-.41-1.36-.04-.48-.06-1.15-.06-2.01v-7.46h5.68v-2.31h-5.68v-4.7h-2.75v4.7h-1.86v2.31h1.86v8.7c0,1.98.43,3.42,1.3,4.32.87.9,2.14,1.35,3.81,1.35.48,0,1.02-.04,1.63-.13.61-.09,1.17-.2,1.69-.34v-2.48M372.24,147.06c-.8.35-1.59.52-2.37.52-1.46,0-2.53-.51-3.19-1.52-.66-1.01-1-2.49-1-4.43s.43-3.5,1.29-4.57c.86-1.07,2.06-1.61,3.6-1.61.69,0,1.33.06,1.92.19.59.13,1.25.36,1.99.69v9.39c-.69.55-1.44.99-2.24,1.34M377.24,126.96h-2.75v7.09c-.73-.38-1.43-.66-2.09-.84-.66-.18-1.43-.27-2.29-.27-.95,0-1.86.2-2.75.59-.88.39-1.66.96-2.32,1.7-.67.76-1.21,1.68-1.6,2.77-.4,1.08-.59,2.32-.59,3.71,0,2.67.57,4.75,1.72,6.25,1.15,1.5,2.7,2.26,4.65,2.26,1.01,0,1.94-.19,2.8-.57.86-.38,1.68-.91,2.48-1.6v1.71h2.75v-22.79M353.7,147.08c-.8.38-1.68.56-2.65.56-1.16,0-2.03-.24-2.59-.71-.57-.47-.85-1.18-.85-2.12,0-.83.24-1.48.73-1.96.49-.47,1.13-.82,1.92-1.05.66-.19,1.56-.33,2.7-.42,1.14-.1,2.13-.17,2.97-.22v4.56c-.68.53-1.43.98-2.23,1.35M358.67,138.65c0-1.05-.16-1.94-.48-2.65-.32-.71-.79-1.29-1.41-1.74-.63-.46-1.36-.78-2.22-.97-.85-.19-1.86-.29-3.01-.29-.99,0-1.99.09-3,.26-1.02.18-1.79.34-2.33.48v2.8h.15c.95-.36,1.87-.64,2.75-.83.89-.19,1.69-.29,2.42-.29.6,0,1.17.04,1.71.12.55.08,1.02.23,1.41.45.41.23.73.56.94.97.22.41.33.93.33,1.55v.42c-1.6.08-3.1.2-4.5.35s-2.59.45-3.59.89c-.99.44-1.75,1.04-2.28,1.81s-.8,1.77-.8,3.01c0,1.51.51,2.76,1.54,3.74,1.03.98,2.28,1.46,3.75,1.46.8,0,1.5-.08,2.09-.23.6-.15,1.12-.34,1.58-.56.39-.18.79-.41,1.21-.71.42-.3.74-.53.99-.7v1.74h2.74v-11.1M329.72,139.75c.12-1.29.61-2.37,1.49-3.24s2.05-1.3,3.52-1.3,2.56.4,3.27,1.19c.72.79,1.08,1.91,1.09,3.35h-9.37M341.78,140.36c0-2.37-.6-4.2-1.79-5.49-1.2-1.29-2.9-1.93-5.1-1.93-2.38,0-4.3.79-5.76,2.36-1.46,1.57-2.19,3.7-2.19,6.37s.76,4.79,2.29,6.26c1.52,1.47,3.64,2.21,6.36,2.21,1.06,0,2.08-.13,3.05-.4.97-.26,1.91-.59,2.84-.98v-3h-.15c-.48.43-1.28.87-2.41,1.31-1.13.44-2.25.67-3.36.67-.84,0-1.61-.12-2.31-.35-.7-.23-1.3-.59-1.81-1.05-.53-.48-.94-1.09-1.25-1.84-.3-.75-.45-1.62-.45-2.63h12.06v-1.49M325.49,133.56c-.43-.07-.75-.11-.97-.14-.21-.02-.56-.04-1.04-.04-.87,0-1.72.18-2.56.55-.83.37-1.8.99-2.89,1.87v-2.42h-2.75v16.36h2.75v-11.62c.73-.6,1.49-1.08,2.29-1.46.79-.38,1.61-.56,2.46-.56.53,0,.98.02,1.37.07.39.04.78.12,1.19.21h.15v-2.83M307.98,145.05c-.25.49-.65.92-1.2,1.3-.52.35-1.18.59-1.99.72-.81.13-1.85.2-3.12.2h-3.84v-8.12h4.56c.96,0,1.77.04,2.44.11.67.07,1.24.23,1.71.48.69.36,1.17.8,1.44,1.32.26.52.4,1.22.4,2.09,0,.77-.13,1.4-.38,1.89M306.22,134.86c-.19.46-.52.84-.97,1.14-.46.29-.96.49-1.49.58-.54.09-1.26.14-2.17.14h-3.75v-6.3h3.46c.97,0,1.78.03,2.43.1.65.06,1.21.23,1.67.49.39.22.67.52.85.88.18.36.26.81.26,1.33,0,.63-.1,1.18-.29,1.65M310.11,139.28c-.85-.99-2.01-1.64-3.49-1.94v-.12c.88-.44,1.58-1.02,2.11-1.75.53-.73.79-1.61.79-2.64,0-.92-.18-1.71-.54-2.37-.36-.66-.94-1.2-1.74-1.62-.72-.37-1.48-.62-2.27-.73-.79-.12-1.98-.18-3.57-.18h-6.46v21.81h7.73c1.51,0,2.76-.14,3.74-.41.98-.27,1.88-.73,2.7-1.38.69-.54,1.25-1.22,1.66-2.05.41-.83.62-1.79.62-2.87,0-1.51-.42-2.77-1.27-3.76" style="fill: #444;"/>
    <polyline points="278 144.05 278 143.05 267 143.05 267 133.05 277 133.05 277 144.05 278 144.05 278 143.05 278 144.05 279 144.05 279 131.05 265 131.05 265 145.05 279 145.05 279 144.05 278 144.05" style="fill: #ffa15a;"/>
    <path d="M355.93,141.17c-.84.05-1.83.12-2.97.22-1.14.1-2.04.24-2.7.42-.79.22-1.43.57-1.92,1.05-.49.47-.73,1.13-.73,1.96,0,.94.28,1.64.85,2.12.57.47,1.43.71,2.59.71.97,0,1.85-.19,2.65-.56.8-.38,1.54-.83,2.23-1.35v-4.56M467.49,141.17c-.84.05-1.83.12-2.97.22-1.14.1-2.04.24-2.7.42-.79.22-1.43.57-1.92,1.05-.49.47-.73,1.13-.73,1.96,0,.94.28,1.64.85,2.12.57.47,1.43.71,2.59.71.97,0,1.85-.19,2.65-.56.8-.38,1.54-.83,2.23-1.35v-4.56M302.39,139.16h-4.56v8.12h3.84c1.27,0,2.31-.07,3.12-.2.81-.13,1.47-.37,1.99-.72.55-.38.95-.82,1.2-1.3.25-.49.38-1.12.38-1.89,0-.88-.13-1.58-.4-2.09-.26-.52-.74-.96-1.44-1.32-.47-.24-1.04-.4-1.71-.48-.67-.07-1.48-.11-2.44-.11M370.57,135.45c-1.54,0-2.74.54-3.6,1.61-.86,1.07-1.29,2.6-1.29,4.57s.33,3.42,1,4.43c.66,1.01,1.73,1.52,3.19,1.52.78,0,1.57-.17,2.37-.52s1.55-.79,2.24-1.34v-9.39c-.74-.33-1.41-.56-1.99-.69-.59-.13-1.23-.19-1.92-.19M334.73,135.2c-1.47,0-2.65.43-3.52,1.3s-1.37,1.95-1.49,3.24h9.37c0-1.45-.37-2.56-1.09-3.35-.72-.79-1.81-1.19-3.27-1.19M446.29,135.2c-1.47,0-2.65.43-3.52,1.3-.87.87-1.37,1.95-1.49,3.24h9.37c0-1.45-.37-2.56-1.09-3.35-.72-.79-1.81-1.19-3.27-1.19M301.29,130.41h-3.46v6.3h3.75c.91,0,1.63-.05,2.17-.14.54-.09,1.04-.29,1.49-.58.46-.29.78-.67.97-1.14.19-.46.29-1.01.29-1.65,0-.53-.09-.97-.26-1.33-.18-.36-.46-.65-.85-.88-.46-.26-1.02-.43-1.67-.49-.65-.06-1.46-.1-2.43-.1M318.03,135.81c1.09-.88,2.06-1.5,2.89-1.87.83-.37,1.69-.55,2.56-.55.48,0,.83.01,1.04.04.22.03.54.07.97.14v2.83h-.15c-.41-.1-.81-.17-1.19-.21-.39-.04-.84-.07-1.37-.07-.85,0-1.67.19-2.46.56-.79.38-1.55.86-2.29,1.46v11.62h-2.75v-16.36h2.75v2.42M478.28,135.81c1.09-.88,2.06-1.5,2.89-1.87.84-.37,1.69-.55,2.56-.55.48,0,.83.01,1.04.04.22.03.54.07.97.14v2.83h-.15c-.41-.1-.81-.17-1.19-.21-.39-.04-.84-.07-1.37-.07-.85,0-1.67.19-2.46.56-.79.38-1.55.86-2.29,1.46v11.62h-2.75v-16.36h2.75v2.42M495.19,150.12c-1.18,0-2.27-.17-3.25-.52-.99-.35-1.83-.87-2.53-1.57-.71-.7-1.26-1.59-1.66-2.67-.39-1.07-.59-2.33-.59-3.76,0-2.68.73-4.78,2.2-6.3,1.47-1.52,3.41-2.29,5.82-2.29.94,0,1.86.13,2.76.4.9.26,1.73.59,2.48.97v3.06h-.15c-.84-.65-1.71-1.16-2.6-1.51-.89-.35-1.77-.53-2.61-.53-1.56,0-2.8.53-3.7,1.57-.9,1.05-1.35,2.59-1.35,4.62s.44,3.49,1.33,4.55c.88,1.06,2.13,1.59,3.73,1.59.56,0,1.12-.07,1.7-.22.58-.15,1.09-.34,1.55-.57.4-.21.78-.42,1.13-.65.35-.23.63-.43.83-.59h.15v3.03c-.92.44-1.79.78-2.61,1.03-.83.24-1.7.37-2.63.37M346.21,136.54v-2.8c.54-.15,1.31-.31,2.33-.48,1.02-.18,2.02-.26,3-.26,1.15,0,2.16.1,3.01.29.85.19,1.59.52,2.22.97.62.45,1.08,1.03,1.41,1.74.32.71.48,1.6.48,2.65v11.1h-2.74v-1.74c-.24.17-.57.4-.99.7-.42.3-.82.53-1.21.71-.46.22-.99.41-1.58.56-.6.15-1.29.23-2.09.23-1.47,0-2.72-.49-3.75-1.46-1.03-.98-1.54-2.22-1.54-3.74,0-1.24.27-2.24.8-3.01s1.29-1.37,2.28-1.81c1-.44,2.19-.74,3.59-.89s2.9-.27,4.5-.35v-.42c0-.63-.11-1.14-.33-1.55-.22-.41-.53-.73-.94-.97-.39-.22-.86-.38-1.41-.45-.55-.08-1.12-.12-1.71-.12-.72,0-1.53.1-2.42.29-.89.19-1.81.47-2.75.83h-.15M429.02,147.82c1.21,0,2.16-.2,2.84-.59.68-.39,1.03-1.01,1.03-1.85,0-.64-.19-1.13-.56-1.46-.37-.33-1.08-.62-2.14-.85-.39-.09-.9-.19-1.53-.31-.63-.12-1.2-.24-1.72-.38-1.44-.38-2.45-.94-3.05-1.68-.6-.74-.9-1.64-.9-2.72,0-.67.14-1.31.42-1.9.28-.6.7-1.13,1.27-1.6.55-.46,1.24-.82,2.09-1.09.84-.27,1.79-.4,2.83-.4.98,0,1.97.12,2.97.36,1,.24,1.83.53,2.5.87v2.94h-.15c-.7-.52-1.56-.95-2.56-1.31-1.01-.36-1.99-.53-2.96-.53s-1.86.19-2.55.58c-.69.39-1.04.96-1.04,1.72,0,.67.21,1.18.63,1.52.41.34,1.07.62,1.99.83.51.12,1.08.23,1.71.35.63.12,1.15.22,1.57.32,1.28.29,2.27.8,2.96,1.51.69.72,1.04,1.68,1.04,2.87,0,1.49-.62,2.72-1.85,3.68-1.24.96-2.92,1.44-5.06,1.44-1.21,0-2.32-.14-3.33-.43-1.01-.29-1.86-.6-2.54-.94v-3.09h.15c.87.65,1.84,1.17,2.9,1.56,1.06.39,2.08.58,3.06.58M457.78,136.54v-2.8c.54-.15,1.31-.31,2.33-.48,1.02-.18,2.02-.26,3-.26,1.15,0,2.16.1,3.01.29.85.19,1.59.52,2.22.97.62.45,1.08,1.03,1.41,1.74.32.71.48,1.6.48,2.65v11.1h-2.74v-1.74c-.24.17-.57.4-.99.7-.42.3-.82.53-1.21.71-.46.22-.99.41-1.58.56-.6.15-1.29.23-2.09.23-1.47,0-2.72-.49-3.75-1.46-1.03-.98-1.54-2.22-1.54-3.74,0-1.24.27-2.24.8-3.01s1.29-1.37,2.28-1.81c1-.44,2.19-.74,3.59-.89,1.4-.16,2.9-.27,4.5-.35v-.42c0-.63-.11-1.14-.33-1.55-.22-.41-.53-.73-.94-.97-.39-.22-.86-.38-1.41-.45-.55-.08-1.12-.12-1.71-.12-.72,0-1.53.1-2.42.29-.89.19-1.81.47-2.75.83h-.15M335.56,150.13c-2.71,0-4.83-.73-6.36-2.21-1.52-1.47-2.29-3.56-2.29-6.26s.73-4.8,2.19-6.37c1.46-1.57,3.38-2.36,5.76-2.36,2.21,0,3.91.64,5.1,1.93,1.2,1.29,1.79,3.12,1.79,5.49v1.49h-12.06c0,1.01.15,1.88.45,2.63.3.75.72,1.36,1.25,1.84.51.47,1.11.82,1.81,1.05.7.23,1.47.35,2.31.35,1.11,0,2.23-.22,3.36-.67,1.13-.44,1.93-.88,2.41-1.31h.15v3c-.93.39-1.88.72-2.84.98-.97.26-1.98.4-3.05.4M447.13,150.13c-2.71,0-4.83-.73-6.36-2.21-1.52-1.47-2.29-3.56-2.29-6.26s.73-4.8,2.19-6.37c1.46-1.57,3.38-2.36,5.76-2.36,2.21,0,3.91.64,5.1,1.93,1.2,1.29,1.79,3.12,1.79,5.49v1.49h-12.06c0,1.01.15,1.88.45,2.63.3.75.72,1.36,1.24,1.84.51.47,1.11.82,1.81,1.05.7.23,1.47.35,2.31.35,1.11,0,2.23-.22,3.36-.67,1.13-.44,1.93-.88,2.41-1.31h.15v3c-.93.39-1.88.72-2.84.98-.97.26-1.98.4-3.05.4M265,145.05v-14h14v14h-14M380.86,135.7v-2.31h1.86v-4.7h2.75v4.7h5.68v2.31h-5.68v7.46c0,.86.02,1.53.06,2.01.04.48.18.94.41,1.36.21.39.51.68.89.86.38.18.95.27,1.72.27.45,0,.92-.07,1.41-.2.49-.13.84-.24,1.05-.33h.15v2.48c-.52.14-1.08.25-1.69.34-.61.09-1.15.13-1.63.13-1.67,0-2.94-.45-3.81-1.35-.87-.9-1.3-2.34-1.3-4.32v-8.7h-1.86M294.93,149.75v-21.81h6.46c1.59,0,2.78.06,3.57.18.79.12,1.55.36,2.27.73.8.42,1.38.96,1.74,1.62.36.66.54,1.45.54,2.37,0,1.04-.26,1.92-.79,2.64-.53.73-1.23,1.31-2.11,1.75v.12c1.47.3,2.64.95,3.49,1.94.85.99,1.27,2.24,1.27,3.76,0,1.08-.21,2.04-.62,2.87-.41.83-.96,1.51-1.66,2.05-.82.64-1.72,1.1-2.7,1.38-.98.27-2.23.41-3.74.41h-7.73M374.49,134.05v-7.09h2.75v22.79h-2.75v-1.71c-.79.68-1.62,1.22-2.48,1.6-.86.38-1.79.57-2.8.57-1.95,0-3.5-.75-4.65-2.26-1.15-1.5-1.72-3.59-1.72-6.25,0-1.39.2-2.62.59-3.71.4-1.08.93-2.01,1.6-2.77.66-.74,1.44-1.31,2.32-1.7.88-.39,1.8-.59,2.75-.59.86,0,1.62.09,2.29.27.66.18,1.36.46,2.09.84M394.48,149.75v-22.79h2.75v8.25c.86-.71,1.75-1.27,2.67-1.67.92-.4,1.86-.6,2.83-.6,1.77,0,3.12.53,4.04,1.6s1.39,2.6,1.39,4.6v10.62h-2.75v-9.32c0-.75-.04-1.46-.13-2.12-.09-.66-.25-1.17-.48-1.54-.24-.41-.6-.71-1.05-.92-.46-.2-1.05-.3-1.79-.3s-1.54.19-2.36.56c-.82.37-1.61.84-2.36,1.42v12.22h-2.75M503.96,149.75v-22.79h2.75v8.25c.86-.71,1.75-1.27,2.67-1.67.92-.4,1.86-.6,2.83-.6,1.77,0,3.12.53,4.04,1.6.93,1.06,1.39,2.6,1.39,4.6v10.62h-2.75v-9.32c0-.75-.04-1.46-.13-2.12-.09-.66-.25-1.17-.48-1.54-.24-.41-.6-.71-1.05-.92-.46-.2-1.05-.3-1.79-.3s-1.54.19-2.36.56c-.82.37-1.61.84-2.36,1.42v12.22h-2.75M520.25,117.05H252v42h268.25v-42" style="fill: #fff;"/>
    <path d="M323.48,133.39c-.87,0-1.72.18-2.56.55-.83.37-1.8.99-2.89,1.87v-2.42h-2.75v16.36h2.75v-11.62c.73-.6,1.49-1.08,2.29-1.46.79-.38,1.61-.56,2.46-.56.53,0,.98.02,1.37.07.39.04.78.12,1.19.21h.15v-2.83c-.43-.07-.75-.11-.97-.14-.21-.02-.56-.04-1.04-.04M483.73,133.39c-.87,0-1.72.18-2.56.55-.83.37-1.8.99-2.89,1.87v-2.42h-2.75v16.36h2.75v-11.62c.73-.6,1.49-1.08,2.29-1.46.79-.38,1.61-.56,2.46-.56.53,0,.98.02,1.37.07.39.04.78.12,1.19.21h.15v-2.83c-.43-.07-.75-.11-.97-.14-.21-.02-.56-.04-1.04-.04M495.19,133.01c-2.41,0-4.35.76-5.82,2.29-1.47,1.52-2.2,3.62-2.2,6.3,0,1.44.2,2.69.59,3.76.39,1.07.94,1.96,1.66,2.67.7.7,1.55,1.23,2.53,1.57.99.35,2.07.52,3.25.52.93,0,1.8-.12,2.63-.37.83-.24,1.7-.59,2.61-1.03v-3.03h-.15c-.21.17-.48.36-.83.59-.35.23-.73.45-1.13.65-.46.23-.98.42-1.55.57-.58.15-1.14.22-1.7.22-1.6,0-2.84-.53-3.73-1.59-.88-1.06-1.33-2.58-1.33-4.55s.45-3.57,1.35-4.62c.9-1.05,2.14-1.57,3.7-1.57.85,0,1.72.18,2.61.53.89.35,1.76.85,2.6,1.51h.15v-3.06c-.75-.38-1.58-.7-2.48-.97-.9-.26-1.82-.4-2.76-.4M351.05,147.64c-1.16,0-2.03-.24-2.59-.71-.57-.47-.85-1.18-.85-2.12,0-.83.24-1.48.73-1.96.49-.47,1.13-.82,1.92-1.05.66-.19,1.56-.33,2.7-.42,1.14-.1,2.13-.17,2.97-.22v4.56c-.68.53-1.43.98-2.23,1.35-.8.38-1.68.56-2.65.56M351.55,132.99c-.99,0-1.99.09-3,.26-1.02.18-1.79.34-2.33.48v2.8h.15c.95-.36,1.87-.64,2.75-.83.89-.19,1.69-.29,2.42-.29.6,0,1.17.04,1.71.12.55.08,1.02.23,1.41.45.41.23.73.56.94.97.22.41.33.93.33,1.55v.42c-1.6.08-3.1.2-4.5.35s-2.59.45-3.59.89c-.99.44-1.75,1.04-2.28,1.81s-.8,1.77-.8,3.01c0,1.51.51,2.76,1.54,3.74,1.03.98,2.28,1.46,3.75,1.46.8,0,1.5-.08,2.09-.23.6-.15,1.12-.34,1.58-.56.39-.18.79-.41,1.21-.71.42-.3.74-.53.99-.7v1.74h2.74v-11.1c0-1.05-.16-1.94-.48-2.65-.32-.71-.79-1.29-1.41-1.74-.63-.46-1.36-.78-2.22-.97-.85-.19-1.86-.29-3.01-.29M429.59,132.99c-1.04,0-1.99.13-2.83.4-.84.27-1.54.63-2.09,1.09-.57.47-.99,1-1.27,1.6-.28.6-.42,1.23-.42,1.9,0,1.07.3,1.98.9,2.72.6.74,1.62,1.3,3.05,1.68.52.14,1.09.26,1.72.38.63.12,1.14.22,1.53.31,1.05.23,1.77.52,2.14.85.37.33.56.82.56,1.46,0,.84-.34,1.46-1.03,1.85-.68.39-1.63.59-2.84.59-.98,0-2-.19-3.06-.58-1.06-.39-2.03-.91-2.9-1.56h-.15v3.09c.68.34,1.53.66,2.54.94,1.01.29,2.12.43,3.33.43,2.14,0,3.83-.48,5.06-1.44,1.24-.96,1.85-2.18,1.85-3.68,0-1.19-.35-2.15-1.04-2.87-.69-.71-1.68-1.22-2.96-1.51-.42-.1-.94-.21-1.57-.32-.63-.12-1.2-.23-1.71-.35-.92-.21-1.58-.49-1.99-.83-.42-.34-.63-.85-.63-1.52,0-.76.35-1.33,1.04-1.72.69-.39,1.54-.58,2.55-.58s1.95.18,2.96.53c1.01.36,1.86.79,2.56,1.31h.15v-2.94c-.66-.34-1.5-.63-2.5-.87-1-.24-1.99-.36-2.97-.36M462.61,147.64c-1.16,0-2.03-.24-2.59-.71-.57-.47-.85-1.18-.85-2.12,0-.83.24-1.48.73-1.96.49-.47,1.13-.82,1.92-1.05.66-.19,1.56-.33,2.7-.42,1.14-.1,2.13-.17,2.97-.22v4.56c-.68.53-1.43.98-2.23,1.35-.8.38-1.68.56-2.65.56M463.11,132.99c-.99,0-1.99.09-3,.26-1.02.18-1.79.34-2.33.48v2.8h.15c.95-.36,1.87-.64,2.75-.83.89-.19,1.69-.29,2.42-.29.6,0,1.17.04,1.71.12.55.08,1.02.23,1.41.45.41.23.72.56.94.97.22.41.33.93.33,1.55v.42c-1.6.08-3.1.2-4.5.35-1.4.16-2.59.45-3.59.89-.99.44-1.75,1.04-2.28,1.81s-.8,1.77-.8,3.01c0,1.51.51,2.76,1.54,3.74,1.03.98,2.28,1.46,3.75,1.46.8,0,1.5-.08,2.09-.23.6-.15,1.12-.34,1.58-.56.39-.18.79-.41,1.21-.71.42-.3.74-.53.99-.7v1.74h2.74v-11.1c0-1.05-.16-1.94-.48-2.65-.32-.71-.79-1.29-1.41-1.74-.62-.46-1.36-.78-2.22-.97-.85-.19-1.86-.29-3.01-.29M329.72,139.75c.12-1.29.61-2.37,1.49-3.24s2.05-1.3,3.52-1.3,2.56.4,3.27,1.19c.72.79,1.08,1.91,1.09,3.35h-9.37M334.88,132.93c-2.38,0-4.3.79-5.76,2.36-1.46,1.57-2.19,3.7-2.19,6.37s.76,4.79,2.29,6.26c1.52,1.47,3.64,2.21,6.36,2.21,1.06,0,2.08-.13,3.05-.4.97-.26,1.91-.59,2.84-.98v-3h-.15c-.48.43-1.28.87-2.41,1.31-1.13.44-2.25.67-3.36.67-.84,0-1.61-.12-2.31-.35-.7-.23-1.3-.59-1.81-1.05-.53-.48-.94-1.09-1.25-1.84-.3-.75-.45-1.62-.45-2.63h12.06v-1.49c0-2.37-.6-4.2-1.79-5.49-1.2-1.29-2.9-1.93-5.1-1.93M441.28,139.75c.12-1.29.61-2.37,1.49-3.24.87-.87,2.05-1.3,3.52-1.3s2.56.4,3.27,1.19c.72.79,1.08,1.91,1.09,3.35h-9.37M446.44,132.93c-2.38,0-4.3.79-5.76,2.36-1.46,1.57-2.19,3.7-2.19,6.37s.76,4.79,2.29,6.26c1.52,1.47,3.64,2.21,6.36,2.21,1.06,0,2.08-.13,3.05-.4.97-.26,1.91-.59,2.84-.98v-3h-.15c-.48.43-1.28.87-2.41,1.31-1.13.44-2.25.67-3.36.67-.84,0-1.61-.12-2.31-.35-.7-.23-1.3-.59-1.81-1.05-.53-.48-.94-1.09-1.24-1.84-.3-.75-.45-1.62-.45-2.63h12.06v-1.49c0-2.37-.6-4.2-1.79-5.49-1.2-1.29-2.9-1.93-5.1-1.93M385.47,128.69h-2.75v4.7h-1.86v2.31h1.86v8.7c0,1.98.43,3.42,1.3,4.32.87.9,2.14,1.35,3.81,1.35.48,0,1.02-.04,1.63-.13.61-.09,1.17-.2,1.69-.34v-2.48h-.15c-.22.09-.57.2-1.05.33-.49.13-.96.2-1.41.2-.77,0-1.35-.09-1.72-.27-.38-.18-.67-.47-.89-.86-.23-.42-.37-.87-.41-1.36-.04-.48-.06-1.15-.06-2.01v-7.46h5.68v-2.31h-5.68v-4.7M297.83,147.28v-8.12h4.56c.96,0,1.77.04,2.44.11.67.07,1.24.23,1.71.48.69.36,1.17.8,1.44,1.32.26.52.4,1.22.4,2.09,0,.77-.13,1.4-.38,1.89-.25.49-.65.92-1.2,1.3-.52.35-1.18.59-1.99.72-.81.13-1.85.2-3.12.2h-3.84M297.83,136.71v-6.3h3.46c.97,0,1.78.03,2.43.1.65.06,1.21.23,1.67.49.39.22.67.52.85.88.18.36.26.81.26,1.33,0,.63-.1,1.18-.29,1.65-.19.46-.52.84-.97,1.14-.46.29-.96.49-1.49.58-.54.09-1.26.14-2.17.14h-3.75M301.39,127.94h-6.46v21.81h7.73c1.51,0,2.76-.14,3.74-.41.98-.27,1.88-.73,2.7-1.38.69-.54,1.25-1.22,1.66-2.05.41-.83.62-1.79.62-2.87,0-1.51-.42-2.77-1.27-3.76-.85-.99-2.01-1.64-3.49-1.94v-.12c.88-.44,1.58-1.02,2.11-1.75.53-.73.79-1.61.79-2.64,0-.92-.18-1.71-.54-2.37-.36-.66-.94-1.2-1.74-1.62-.72-.37-1.48-.62-2.27-.73-.79-.12-1.98-.18-3.57-.18M369.87,147.58c-1.46,0-2.53-.51-3.19-1.52-.66-1.01-1-2.49-1-4.43s.43-3.5,1.29-4.57c.86-1.07,2.06-1.61,3.6-1.61.69,0,1.33.06,1.92.19.59.13,1.25.36,1.99.69v9.39c-.69.55-1.44.99-2.24,1.34s-1.59.52-2.37.52M377.24,126.96h-2.75v7.09c-.73-.38-1.43-.66-2.09-.84-.66-.18-1.43-.27-2.29-.27-.95,0-1.86.2-2.75.59-.88.39-1.66.96-2.32,1.7-.67.76-1.21,1.68-1.6,2.77-.4,1.08-.59,2.32-.59,3.71,0,2.67.57,4.75,1.72,6.25,1.15,1.5,2.7,2.26,4.65,2.26,1.01,0,1.94-.19,2.8-.57.86-.38,1.68-.91,2.48-1.6v1.71h2.75v-22.79M397.23,126.96h-2.75v22.79h2.75v-12.22c.75-.58,1.54-1.05,2.36-1.42.82-.37,1.61-.56,2.36-.56s1.33.1,1.79.3c.46.2.81.51,1.05.92.23.37.4.89.48,1.54.09.66.13,1.37.13,2.12v9.32h2.75v-10.62c0-2-.46-3.54-1.39-4.6s-2.28-1.6-4.04-1.6c-.97,0-1.91.2-2.83.6-.92.4-1.81.96-2.67,1.67v-8.25M506.72,126.96h-2.75v22.79h2.75v-12.22c.75-.58,1.54-1.05,2.36-1.42.82-.37,1.61-.56,2.36-.56s1.33.1,1.79.3c.46.2.81.51,1.05.92.23.37.4.89.48,1.54.09.66.13,1.37.13,2.12v9.32h2.75v-10.62c0-2-.46-3.54-1.39-4.6-.93-1.06-2.28-1.6-4.04-1.6-.97,0-1.91.2-2.83.6-.92.4-1.81.96-2.67,1.67v-8.25" style="fill: #444;"/>
    <polyline points="277 133.05 267 133.05 267 143.05 277 143.05 277 133.05" style="fill: #ffd0ac;"/>
    <path d="M278,144.05h0v-1,1h1-1M267,143.05v-10h10v10h-10M279,131.05h-14v14h14v-14" style="fill: #ffa15a;"/>
  </g>
  <path d="M636.75,780.04c.14-1.55.74-2.84,1.78-3.88s2.46-1.56,4.23-1.56,3.07.47,3.93,1.42,1.3,2.29,1.31,4.03h-11.25ZM651.22,780.78c0-2.85-.72-5.04-2.15-6.59s-3.48-2.32-6.13-2.32c-2.86,0-5.17.94-6.92,2.83s-2.63,4.44-2.63,7.65.91,5.75,2.74,7.51,4.37,2.65,7.63,2.65c1.28,0,2.5-.16,3.66-.47s2.3-.71,3.41-1.18v-3.6h-.18c-.57.52-1.54,1.04-2.89,1.57s-2.7.8-4.03.8c-1.01,0-1.93-.14-2.77-.42s-1.56-.7-2.17-1.27c-.63-.57-1.13-1.31-1.49-2.21s-.54-1.95-.54-3.16h14.47v-1.79ZM630.8,788.9h-.18c-.26.11-.68.24-1.27.4s-1.15.24-1.69.24c-.93,0-1.61-.11-2.07-.33s-.81-.56-1.06-1.03c-.28-.5-.45-1.05-.49-1.63s-.07-1.39-.07-2.42v-8.95h6.82v-2.78h-6.82v-5.64h-3.3v5.64h-2.23v2.78h2.23v10.44c0,2.38.52,4.11,1.56,5.19s2.57,1.62,4.57,1.62c.57,0,1.23-.05,1.96-.16s1.41-.24,2.03-.4v-2.97ZM608.28,788.84c-.96.45-2.02.68-3.18.68-1.39,0-2.43-.28-3.11-.85s-1.02-1.42-1.02-2.54c0-1,.29-1.78.88-2.35s1.35-.99,2.3-1.26c.8-.22,1.88-.39,3.24-.51s2.55-.21,3.56-.26v5.47c-.82.63-1.71,1.17-2.67,1.63ZM614.24,778.73c0-1.27-.19-2.33-.58-3.18s-.95-1.55-1.69-2.09c-.75-.55-1.64-.94-2.66-1.17s-2.23-.34-3.61-.34c-1.18,0-2.38.11-3.6.32s-2.15.4-2.79.58v3.36h.18c1.14-.43,2.24-.76,3.3-.99s2.03-.34,2.9-.34c.71,0,1.4.05,2.06.14s1.22.28,1.69.54c.49.28.87.67,1.13,1.16s.4,1.11.4,1.86v.51c-1.92.09-3.72.23-5.4.42s-3.11.54-4.31,1.07c-1.18.53-2.09,1.25-2.73,2.17s-.96,2.12-.96,3.61c0,1.82.62,3.31,1.85,4.48s2.73,1.76,4.5,1.76c.96,0,1.8-.09,2.51-.27s1.35-.41,1.9-.68c.47-.21.95-.5,1.45-.85s.89-.64,1.19-.83v2.09h3.29v-13.32ZM586.51,788.14c-.97.37-1.93.55-2.89.55-1.79,0-3.08-.57-3.85-1.71s-1.16-2.81-1.16-5.01c0-2.32.52-4.09,1.56-5.31s2.47-1.83,4.29-1.83c.75,0,1.5.08,2.26.25s1.57.45,2.45.85v10.71c-.81.62-1.7,1.12-2.66,1.49ZM592.48,772.42h-3.09l-.21.84c-.86-.47-1.67-.82-2.43-1.05s-1.72-.34-2.86-.34c-1.08,0-2.16.23-3.25.69s-2.02,1.11-2.78,1.94c-.82.89-1.47,1.95-1.94,3.17s-.71,2.68-.71,4.37c0,3.08.69,5.47,2.07,7.16s3.24,2.54,5.58,2.54c1.41,0,2.56-.2,3.47-.59s1.86-.99,2.86-1.78v1.79c0,.8-.09,1.52-.26,2.16s-.47,1.2-.88,1.65c-.41.48-.98.86-1.72,1.12s-1.67.4-2.79.4-2.34-.16-3.52-.47-2.03-.57-2.57-.78h-.18v3.38c.96.27,1.94.48,2.93.62s2.01.22,3.05.22c3.14,0,5.47-.78,6.98-2.34s2.27-4,2.27-7.33v-17.4ZM557.07,780.04c.14-1.55.74-2.84,1.78-3.88s2.46-1.56,4.23-1.56,3.07.47,3.93,1.42,1.3,2.29,1.31,4.03h-11.25ZM571.54,780.78c0-2.85-.72-5.04-2.15-6.59s-3.48-2.32-6.13-2.32c-2.86,0-5.17.94-6.92,2.83s-2.63,4.44-2.63,7.65.91,5.75,2.74,7.51,4.37,2.65,7.63,2.65c1.28,0,2.5-.16,3.66-.47s2.3-.71,3.41-1.18v-3.6h-.18c-.57.52-1.54,1.04-2.89,1.57s-2.7.8-4.03.8c-1.01,0-1.93-.14-2.77-.42s-1.56-.7-2.17-1.27c-.63-.57-1.13-1.31-1.49-2.21s-.54-1.95-.54-3.16h14.47v-1.79ZM551.99,772.63c-.52-.08-.9-.14-1.16-.17s-.67-.04-1.25-.04c-1.04,0-2.07.22-3.07.66s-2.16,1.19-3.47,2.24v-2.9h-3.3v19.63h3.3v-13.94c.88-.71,1.79-1.3,2.74-1.75s1.93-.68,2.95-.68c.63,0,1.18.03,1.64.08s.94.14,1.43.25h.18v-3.39ZM527.27,788.14c-.97.37-1.93.55-2.89.55-1.79,0-3.08-.57-3.85-1.71s-1.16-2.81-1.16-5.01c0-2.32.52-4.09,1.56-5.31s2.47-1.83,4.29-1.83c.75,0,1.5.08,2.26.25s1.57.45,2.45.85v10.71c-.81.62-1.7,1.12-2.66,1.49ZM533.24,772.42h-3.09l-.21.84c-.86-.47-1.67-.82-2.43-1.05s-1.72-.34-2.86-.34c-1.08,0-2.16.23-3.25.69s-2.02,1.11-2.78,1.94c-.82.89-1.47,1.95-1.94,3.17s-.71,2.68-.71,4.37c0,3.08.69,5.47,2.07,7.16s3.24,2.54,5.58,2.54c1.41,0,2.56-.2,3.47-.59s1.86-.99,2.86-1.78v1.79c0,.8-.09,1.52-.26,2.16s-.47,1.2-.88,1.65c-.41.48-.98.86-1.72,1.12s-1.67.4-2.79.4-2.34-.16-3.52-.47-2.03-.57-2.57-.78h-.18v3.38c.96.27,1.94.48,2.93.62s2.01.22,3.05.22c3.14,0,5.47-.78,6.98-2.34s2.27-4,2.27-7.33v-17.4ZM504.84,788.14c-.97.37-1.93.55-2.89.55-1.79,0-3.08-.57-3.85-1.71s-1.16-2.81-1.16-5.01c0-2.32.52-4.09,1.56-5.31s2.47-1.83,4.29-1.83c.75,0,1.5.08,2.26.25s1.57.45,2.45.85v10.71c-.81.62-1.7,1.12-2.66,1.49ZM510.81,772.42h-3.09l-.21.84c-.86-.47-1.67-.82-2.43-1.05s-1.72-.34-2.86-.34c-1.08,0-2.16.23-3.25.69s-2.02,1.11-2.78,1.94c-.82.89-1.47,1.95-1.94,3.17s-.71,2.68-.71,4.37c0,3.08.69,5.47,2.07,7.16s3.24,2.54,5.58,2.54c1.41,0,2.56-.2,3.47-.59s1.86-.99,2.86-1.78v1.79c0,.8-.09,1.52-.26,2.16s-.47,1.2-.88,1.65c-.41.48-.98.86-1.72,1.12s-1.67.4-2.79.4-2.34-.16-3.52-.47-2.03-.57-2.57-.78h-.18v3.38c.96.27,1.94.48,2.93.62s2.01.22,3.05.22c3.14,0,5.47-.78,6.98-2.34s2.27-4,2.27-7.33v-17.4ZM474.63,781.77l4.61-12.85,4.59,12.85h-9.19ZM481.65,765.88h-4.64l-9.53,26.17h3.53l2.57-7.29h11.32l2.57,7.29h3.71l-9.53-26.17Z" style="fill: #444;"/>
  <path d="M33.33,209.85v3.43H12.5v-3.43h-2.67v10.34h2.67v-3.43h20.83v3.43h2.67v-10.34h-2.67ZM19.63,230.97c.64.25,1.2.64,1.7,1.17.53.57.89,1.27,1.08,2.09s.29,1.78.29,2.88v3.52h-9.88v-4.1c0-.94.07-1.75.2-2.44s.37-1.29.71-1.79c.4-.61.89-1.05,1.47-1.31s1.25-.4,2-.4c.98,0,1.8.13,2.43.38ZM24.56,232.29c-.64-1.66-1.6-2.97-2.87-3.92s-2.85-1.42-4.74-1.42c-1.39,0-2.55.27-3.45.8s-1.66,1.27-2.26,2.22c-.53.84-.89,1.79-1.1,2.85s-.31,2.37-.31,3.96v7.33h26.17v-3.48h-10.41v-4.9l10.41-8.75v-4.52l-11.44,9.84ZM25.72,264.62l-12.85-4.61,12.85-4.59v9.19ZM9.83,257.61v4.64l26.17,9.53v-3.53l-7.29-2.57v-11.32l7.29-2.57v-3.71l-26.17,9.53ZM16.37,289.42l14.55,6.08-14.55,6.03v3.59l18.69-7.82,8.19,3.66v-3.53l-26.88-11.46v3.46ZM32.85,306.76v.18c.11.26.24.68.4,1.27s.24,1.15.24,1.69c0,.93-.11,1.61-.33,2.07s-.56.81-1.03,1.06c-.5.28-1.05.45-1.63.49s-1.39.07-2.42.07h-8.95v-6.82h-2.78v6.82h-5.64v3.3h5.64v2.23h2.78v-2.23h10.44c2.38,0,4.11-.52,5.19-1.56s1.62-2.57,1.62-4.57c0-.57-.05-1.23-.16-1.96s-.24-1.41-.4-2.03h-2.97ZM16.37,323.49v3.3h19.63v-3.3h-19.63ZM9.65,323.28v3.73h3.43v-3.73h-3.43ZM23.26,333.19c-2.4,0-4.24.56-5.52,1.67s-1.92,2.73-1.92,4.85c0,1.16.24,2.29.72,3.39s1.15,2.17,2,3.2h-2.18v3.3h19.63v-3.3h-14.66c-.69-.9-1.26-1.85-1.71-2.83s-.67-1.93-.67-2.83.12-1.59.36-2.14.61-.97,1.1-1.27c.45-.28,1.06-.47,1.85-.58s1.64-.16,2.54-.16h11.18v-3.3h-12.74ZM16.37,356.12v3.3h14.66c.69.88,1.26,1.83,1.71,2.84s.67,1.95.67,2.8c0,.96-.12,1.69-.35,2.2s-.61.91-1.12,1.23c-.5.3-1.11.5-1.82.6s-1.56.14-2.56.14h-11.18v3.3h12.74c2.44,0,4.29-.57,5.55-1.72s1.89-2.75,1.89-4.82c0-1.23-.23-2.36-.7-3.38s-1.14-2.09-2.02-3.2h2.18v-3.3h-19.63ZM23.26,378.76c-2.34,0-4.17.51-5.48,1.54s-1.96,2.62-1.96,4.77c0,1.25.25,2.43.75,3.53s1.31,2.32,2.43,3.66c-1,.46-1.78,1.15-2.34,2.08s-.84,2.07-.84,3.4c0,1.16.24,2.25.72,3.28s1.15,2.05,2,3.08h-2.18v3.3h19.63v-3.3h-14.66c-.69-.9-1.26-1.81-1.71-2.72s-.67-1.81-.67-2.72c0-.95.13-1.68.38-2.18s.63-.89,1.13-1.16c.47-.25,1.09-.41,1.87-.48s1.6-.11,2.47-.11h11.18v-3.3h-12.57c-.35,0-.71.01-1.06.04s-.67.05-.94.09c-.71-.93-1.3-1.85-1.77-2.78s-.69-1.85-.69-2.78.13-1.68.39-2.18.64-.89,1.14-1.16c.47-.25,1.1-.41,1.88-.48s1.6-.11,2.44-.11h11.18v-3.3h-12.74ZM23.26,413.77c-2.34,0-4.17.51-5.48,1.54s-1.96,2.62-1.96,4.77c0,1.25.25,2.43.75,3.53s1.31,2.32,2.43,3.66c-1,.46-1.78,1.15-2.34,2.08s-.84,2.07-.84,3.4c0,1.16.24,2.25.72,3.28s1.15,2.05,2,3.08h-2.18v3.3h19.63v-3.3h-14.66c-.69-.9-1.26-1.81-1.71-2.72s-.67-1.81-.67-2.72c0-.95.13-1.68.38-2.18s.63-.89,1.13-1.16c.47-.25,1.09-.41,1.87-.48s1.6-.11,2.47-.11h11.18v-3.3h-12.57c-.35,0-.71.01-1.06.04s-.67.05-.94.09c-.71-.93-1.3-1.85-1.77-2.78s-.69-1.85-.69-2.78.13-1.68.39-2.18.64-.89,1.14-1.16c.47-.25,1.1-.41,1.88-.48s1.6-.11,2.44-.11h11.18v-3.3h-12.74ZM31.81,452.45c1.26,1,1.89,2.38,1.89,4.14s-.64,3.17-1.91,4.17-3.14,1.49-5.6,1.49-4.43-.5-5.67-1.49-1.85-2.38-1.85-4.17.62-3.15,1.85-4.15,3.13-1.49,5.67-1.49,4.36.5,5.62,1.5ZM18.61,450c-1.86,1.64-2.79,3.84-2.79,6.59s.93,4.98,2.79,6.62,4.39,2.45,7.58,2.45,5.72-.82,7.58-2.45,2.78-3.84,2.78-6.62-.93-4.95-2.78-6.59-4.38-2.46-7.58-2.46-5.73.82-7.58,2.46ZM30.02,468.93v.25c1.15,1.28,2.01,2.65,2.58,4.11s.86,3.04.86,4.71c0,1.22-.21,2.38-.62,3.47s-1.06,2.05-1.92,2.87c-.83.79-1.91,1.43-3.23,1.92s-2.91.75-4.75.75-3.31-.23-4.65-.68-2.45-1.08-3.33-1.89c-.9-.83-1.57-1.78-2-2.84s-.64-2.25-.64-3.58c0-1.62.28-3.13.83-4.55s1.43-2.85,2.64-4.29v-.26h-4.13c-.86,1.71-1.45,3.27-1.79,4.67s-.51,2.8-.51,4.21c0,1.92.3,3.67.9,5.25s1.46,2.92,2.6,4.03c1.17,1.15,2.61,2.03,4.31,2.64s3.63.91,5.78.91c2.27,0,4.27-.32,5.99-.95s3.13-1.51,4.25-2.64c1.14-1.15,1.97-2.5,2.5-4.05s.8-3.28.8-5.18c0-1.01-.08-1.93-.24-2.77s-.35-1.61-.57-2.33c-.27-.84-.53-1.53-.77-2.05s-.51-1.1-.79-1.75h-4.08Z" style="fill: #444;"/>
</svg>