<?xml version="1.0" encoding="UTF-8"?>
<svg id="Layer_1" data-name="Layer 1" xmlns="http://www.w3.org/2000/svg" width="1000" height="800" xmlns:xlink="http://www.w3.org/1999/xlink" viewBox="0 0 1000 800">
  <defs>
    <clipPath id="clippath">
      <polyline points="120 0 1000 0 1000 700 120 700 120 0" style="fill: none;"/>
    </clipPath>
    <clipPath id="clippath-1">
      <polyline points="648 501 922 501 922 595 648 595 648 501" style="fill: none;"/>
    </clipPath>
  </defs>
  <polyline points="0 0 1000 0 1000 800 0 800 0 0" style="fill: #fff;"/>
  <polyline points="120 629.56 1000 629.56 1000 628.56 120 628.56 120 629.56" style="fill: #eee;"/>
  <polyline points="120 529.72 1000 529.72 1000 528.72 120 528.72 120 529.72" style="fill: #eee;"/>
  <polyline points="120 429.87 1000 429.87 1000 428.87 120 428.87 120 429.87" style="fill: #eee;"/>
  <polyline points="120 330.03 1000 330.03 1000 329.03 120 329.03 120 330.03" style="fill: #eee;"/>
  <polyline points="120 230.19 1000 230.19 1000 229.19 120 229.19 120 230.19" style="fill: #eee;"/>
  <polyline points="120 130.35 1000 130.35 1000 129.35 120 129.35 120 130.35" style="fill: #eee;"/>
  <polyline points="120 30.51 1000 30.51 1000 29.51 120 29.51" style="fill: #eee;"/>
  <g style="clip-path: url(#clippath);">
    <path d="M218.45,230.19h-53.9v33.95h53.9v-33.95M218.45,130.35h-53.9v98.84h53.9v-32.95h-53.9,53.9v-65.89M191.5,87.92h0v25.95h-26.95v15.48h53.9v-15.48h-26.95v-25.95M191.5,87.92h-13.47,13.47M204.98,87.92h-13.48,13.48" style="fill: #d5b1fc;"/>
    <polyline points="218.45 229.19 164.55 229.19 164.55 230.19 218.45 230.19 218.45 229.19" style="fill: #cca8f4;"/>
    <polyline points="218.45 129.35 164.55 129.35 164.55 130.35 218.45 130.35 218.45 129.35" style="fill: #cca8f4;"/>
    <path d="M164.55,197.24h53.9v-2h-53.9v2ZM164.55,264.14v1h54.9V112.87h-55.9v152.27h1v-1h1V114.87h51.9v148.27h-52.9v1h1-1ZM190.5,264.14v43.43h2v-43.43h-2ZM192.5,113.87v-25.95h-2v25.95h2ZM178.03,308.57h26.95v-2h-26.95v2ZM178.03,88.92h26.95v-2h-26.95v2Z" style="fill: #ab63fa;"/>
    <path d="M438.45,130.35h-53.9v43.93h53.9v-43.93M411.5,50.97h0v6h-26.95v72.38h53.9v-7.99h-53.9,53.9V56.97h-26.95v-6M411.5,50.97h-13.48,13.48M424.98,50.97h-13.48,13.48" style="fill: #d5b1fc;"/>
    <polyline points="438.45 129.35 384.55 129.35 384.55 130.35 438.45 130.35 438.45 129.35" style="fill: #cca8f4;"/>
    <path d="M384.55,122.36h53.9v-2h-53.9v2ZM384.55,174.28v1h54.9V55.97h-55.9v119.31h1v-1h1V57.97h51.9v115.31s-52.9,0-52.9,0v1h1-1ZM410.5,174.28v29.45h2v-29.45h-2ZM412.5,56.97v-6h-2v6h2ZM398.02,204.73h26.96v-2h-26.96v2ZM398.02,51.97h26.96v-2h-26.96v2Z" style="fill: #ab63fa;"/>
    <path d="M631.5,130.35h0v30.45-30.45M631.5,115.37v13.98-13.98M631.5,37h0v6.49h-26.95v71.88h53.9v-47.42h-53.9,53.9v-24.46h-26.95v-6.49M631.5,37h-13.47,13.47M644.98,37h-13.48,13.48" style="fill: #d5b1fc;"/>
    <path d="M604.55,68.95h53.9v-2h-53.9v2ZM604.55,115.37v1h54.9V42.49h-55.9v73.88h1v-1h1V44.49h51.9v69.88h-52.9v1h1-1ZM630.5,115.37v45.43h2v-45.43h-2ZM632.5,43.49v-6.49h-2v6.49h2ZM618.03,161.8h26.95v-2h-26.95v2ZM618.03,38h26.95v-2h-26.95v2Z" style="fill: #ab63fa;"/>
    <path d="M864.98,120.86h-26.95,26.95M851.5,86.42v34.44-34.44M851.5,35h0v3.49h-26.95v47.93h53.9v-32.95h-53.9,53.9v-14.98h-26.95v-3.49M851.5,35h-13.47,13.47M864.98,35h-13.48,13.48" style="fill: #d5b1fc;"/>
    <path d="M824.55,54.47h53.9v-2h-53.9v2ZM824.55,86.42v1h54.9v-49.93h-55.9v49.93h1v-1h1v-46.93h51.9v45.93h-52.9s0,1,0,1h1-1ZM850.5,86.42v34.44h2v-34.44h-2ZM852.5,38.49v-3.49h-2v3.49h2ZM838.03,121.86h26.95v-2h-26.95v2ZM838.03,36h26.95v-2h-26.95v2Z" style="fill: #ab63fa;"/>
    <path d="M295.45,529.72h-53.9v84.86h53.9v-84.86M295.45,429.87h-53.9v98.85h53.9v-63.4h-53.9,53.9v-35.45M295.45,330.03h-53.9v98.84h53.9v-98.84M268.5,230.19h0v57.91h-26.95v40.93h53.9v-40.93h-26.95v-57.91M268.5,220.71h0v8.48-8.48M268.5,220.71h-13.47,13.47M281.98,220.71h-13.48,13.48" style="fill: #ffd0ac;"/>
    <polyline points="295.45 528.72 241.55 528.72 241.55 529.72 295.45 529.72 295.45 528.72" style="fill: #f7c7a4;"/>
    <polyline points="295.45 428.87 241.55 428.87 241.55 429.87 295.45 429.87 295.45 428.87" style="fill: #f7c7a4;"/>
    <polyline points="295.45 329.03 241.55 329.03 241.55 330.03 295.45 330.03 295.45 329.03" style="fill: #f7c7a4;"/>
    <path d="M241.55,466.32h53.9v-2h-53.9v2ZM241.55,614.58v1h54.9v-328.48h-55.9v328.48h1v-1h1v-325.48h51.9s0,324.48,0,324.48h-52.9v1h1-1ZM267.5,614.58v50.42h2v-50.42h-2ZM269.5,288.1v-67.39h-2v67.39h2ZM255.03,666h26.95v-2h-26.95v2ZM255.03,221.71h26.95v-2h-26.95v2Z" style="fill: #ffa15a;"/>
    <path d="M515.45,429.87h-53.9v4h53.9v-4M515.45,330.03h-53.9v98.84h53.9v-98.84M515.45,230.19h-53.9v98.84h53.9v-28.45h-53.9,53.9v-70.39M488.5,130.35h0v33.94h-26.95v64.9h53.9v-64.9h-26.95v-33.94M488.5,114.87h0v14.48-14.48M488.5,114.87h-13.47,13.47M501.98,114.87h-13.48,13.48" style="fill: #ffd0ac;"/>
    <polyline points="515.45 428.87 461.55 428.87 461.55 429.87 515.45 429.87 515.45 428.87" style="fill: #f7c7a4;"/>
    <polyline points="515.45 329.03 461.55 329.03 461.55 330.03 515.45 330.03 515.45 329.03" style="fill: #f7c7a4;"/>
    <polyline points="515.45 229.19 461.55 229.19 461.55 230.19 515.45 230.19 515.45 229.19" style="fill: #f7c7a4;"/>
    <path d="M461.55,301.58h53.9v-2h-53.9v2ZM461.55,433.87v1h54.9V163.29h-55.9v271.58h1v-1h1V165.29h51.9v267.58h-52.9v1h1-1ZM487.5,433.87v45.42h2v-45.42h-2ZM489.5,164.29v-49.42h-2v49.42h2ZM475.03,480.29h26.95v-2h-26.95v2ZM475.03,115.87h26.95v-2h-26.95v2Z" style="fill: #ffa15a;"/>
    <path d="M735.45,230.19h-53.9v88.36h53.9v-88.36M735.45,130.35h-53.9v98.84h53.9v-13.98h-53.9,53.9v-84.86M708.5,73.94h0v37.94h-26.95v17.47h53.9v-17.47h-26.95v-37.94M708.5,73.94h-13.47,13.47M721.97,73.94h-13.47,13.47" style="fill: #ffd0ac;"/>
    <polyline points="735.45 229.19 681.55 229.19 681.55 230.19 735.45 230.19 735.45 229.19" style="fill: #f7c7a4;"/>
    <polyline points="735.45 129.35 681.55 129.35 681.55 130.35 735.45 130.35 735.45 129.35" style="fill: #f7c7a4;"/>
    <path d="M681.55,216.21h53.9v-2h-53.9v2ZM681.55,318.55v1h54.9V110.88h-55.9v208.67h1v-1h1V112.88h51.9v204.67h-52.9v1h1-1ZM707.5,318.55v44.93h2v-44.93h-2ZM709.5,111.88v-37.94h-2v37.94h2ZM695.03,364.48h26.94v-2h-26.94v2ZM695.03,74.94h26.94v-2h-26.94v2Z" style="fill: #ffa15a;"/>
    <path d="M955.45,230.19h-53.9v13.98h53.9v-13.98M955.45,130.35h-53.9v98.84h53.9v-65.89h-53.9,53.9v-32.95M928.5,57.96h0v36.94h-26.95v34.45h53.9v-34.45h-26.95v-36.94M928.5,57.96h-13.47,13.47M941.97,57.96h-13.47,13.47" style="fill: #ffd0ac;"/>
    <polyline points="955.45 229.19 901.55 229.19 901.55 230.19 955.45 230.19 955.45 229.19" style="fill: #f7c7a4;"/>
    <polyline points="955.45 129.35 901.55 129.35 901.55 130.35 955.45 130.35 955.45 129.35" style="fill: #f7c7a4;"/>
    <path d="M901.55,164.3h53.9v-2h-53.9v2ZM901.55,244.17v1h54.9V93.9h-55.9v151.27h1v-1h1V95.9h51.9v147.27h-52.9v1h1-1ZM927.5,244.17v38.44h2v-38.44h-2ZM929.5,94.9v-36.94h-2v36.94h2ZM915.03,283.61h26.94v-2h-26.94v2ZM915.03,58.96h26.94v-2h-26.94v2Z" style="fill: #ffa15a;"/>
  </g>
  <path d="M261.3,720.88c-.43-.85-1.04-1.54-1.82-2.08-.74-.51-1.56-.86-2.45-1.06s-1.92-.3-3.11-.3c-.32,0-.7,0-1.14.03s-.87.05-1.29.09v-5.8h10.3v-2.56h-13.12v11.24c.58-.12,1.26-.23,2.06-.35s1.62-.18,2.48-.18,1.71.08,2.44.23c.73.15,1.35.41,1.85.78.46.31.82.73,1.08,1.25s.39,1.15.39,1.9-.11,1.45-.33,2.04-.54,1.09-.97,1.51c-.51.49-1.09.83-1.74,1.03s-1.32.29-2.01.29c-1.04,0-2.09-.18-3.16-.54-1.07-.36-2.01-.79-2.81-1.3h-.21v3.09c.76.35,1.69.65,2.8.9,1.1.25,2.25.37,3.44.37,1.28,0,2.4-.18,3.38-.55.97-.37,1.81-.89,2.51-1.57.64-.63,1.15-1.42,1.52-2.34s.56-1.9.56-2.92c0-1.28-.21-2.34-.64-3.19ZM237.76,728.47c-.61.38-1.37.57-2.29.57-.98,0-1.76-.2-2.35-.6s-1.05-.98-1.37-1.74c-.35-.81-.58-1.73-.69-2.75s-.16-2.3-.16-3.82c0-1.39.06-2.66.18-3.82s.35-2.1.68-2.83c.35-.77.83-1.35,1.43-1.73s1.36-.57,2.28-.57,1.69.19,2.28.57,1.06.95,1.4,1.7c.35.76.59,1.69.71,2.78s.18,2.38.18,3.87-.06,2.79-.18,3.86c-.12,1.07-.35,2-.7,2.79-.33.77-.8,1.35-1.41,1.73ZM241.21,711.57c-1.21-1.88-3.12-2.82-5.73-2.82s-4.49.93-5.71,2.78-1.83,4.71-1.83,8.59.6,6.7,1.81,8.55,3.12,2.78,5.73,2.78,4.48-.92,5.71-2.75c1.23-1.83,1.84-4.7,1.84-8.62s-.6-6.64-1.81-8.52ZM222.21,726.83h-3.5v4.17h3.5v-4.17ZM207.77,728.47c-.61.38-1.37.57-2.29.57-.98,0-1.76-.2-2.35-.6s-1.05-.98-1.37-1.74c-.35-.81-.58-1.73-.69-2.75s-.16-2.3-.16-3.82c0-1.39.06-2.66.18-3.82s.35-2.1.68-2.83c.35-.77.83-1.35,1.43-1.73s1.36-.57,2.28-.57,1.69.19,2.28.57,1.06.95,1.4,1.7c.35.76.59,1.69.71,2.78s.18,2.38.18,3.87-.06,2.79-.18,3.86c-.12,1.07-.35,2-.7,2.79-.33.77-.8,1.35-1.41,1.73ZM211.22,711.57c-1.21-1.88-3.12-2.82-5.73-2.82s-4.49.93-5.71,2.78-1.83,4.71-1.83,8.59.6,6.7,1.81,8.55,3.12,2.78,5.73,2.78,4.48-.92,5.71-2.75c1.23-1.83,1.84-4.7,1.84-8.62s-.6-6.64-1.81-8.52Z" style="fill: #444;"/>
  <path d="M471.34,728.77h-4.45v-19.66h-2.27c-.04.63-.19,1.14-.45,1.52-.26.38-.61.69-1.06.93-.36.2-.89.34-1.6.45-.7.1-1.36.15-1.98.15v1.99h4.54v14.62h-4.54v2.23h11.81v-2.23ZM451.75,726.83h-3.5v4.17h3.5v-4.17ZM437.31,728.47c-.61.38-1.37.57-2.29.57-.98,0-1.76-.2-2.35-.6s-1.05-.98-1.37-1.74c-.35-.81-.58-1.73-.69-2.75s-.16-2.3-.16-3.82c0-1.39.06-2.66.18-3.82s.35-2.1.68-2.83c.35-.77.83-1.35,1.43-1.73s1.36-.57,2.28-.57,1.69.19,2.28.57,1.06.95,1.4,1.7c.35.76.59,1.69.71,2.78s.18,2.38.18,3.87-.06,2.79-.18,3.86c-.12,1.07-.35,2-.7,2.79-.33.77-.8,1.35-1.41,1.73ZM440.76,711.57c-1.21-1.88-3.12-2.82-5.73-2.82s-4.49.93-5.71,2.78-1.83,4.71-1.83,8.59.6,6.7,1.81,8.55,3.12,2.78,5.73,2.78,4.48-.92,5.71-2.75c1.23-1.83,1.84-4.7,1.84-8.62s-.6-6.64-1.81-8.52Z" style="fill: #444;"/>
  <path d="M701.3,720.88c-.43-.85-1.04-1.54-1.82-2.08-.74-.51-1.56-.86-2.45-1.06s-1.92-.3-3.11-.3c-.32,0-.7,0-1.14.03s-.87.05-1.29.09v-5.8h10.3v-2.56h-13.12v11.24c.58-.12,1.26-.23,2.06-.35s1.62-.18,2.48-.18,1.71.08,2.44.23c.73.15,1.35.41,1.85.78.46.31.82.73,1.08,1.25s.39,1.15.39,1.9-.11,1.45-.33,2.04-.54,1.09-.97,1.51c-.51.49-1.09.83-1.74,1.03s-1.32.29-2.01.29c-1.04,0-2.09-.18-3.16-.54-1.07-.36-2.01-.79-2.81-1.3h-.21v3.09c.76.35,1.69.65,2.8.9,1.1.25,2.25.37,3.44.37,1.28,0,2.4-.18,3.38-.55.97-.37,1.81-.89,2.51-1.57.64-.63,1.15-1.42,1.52-2.34s.56-1.9.56-2.92c0-1.28-.21-2.34-.64-3.19ZM681.8,728.77h-4.45v-19.66h-2.27c-.04.63-.19,1.14-.45,1.52-.26.38-.61.69-1.06.93-.36.2-.89.34-1.6.45-.7.1-1.36.15-1.98.15v1.99h4.54v14.62h-4.54v2.23h11.81v-2.23ZM662.21,726.83h-3.5v4.17h3.5v-4.17ZM647.77,728.47c-.61.38-1.37.57-2.29.57-.98,0-1.76-.2-2.35-.6s-1.05-.98-1.37-1.74c-.35-.81-.58-1.73-.69-2.75s-.16-2.3-.16-3.82c0-1.39.06-2.66.18-3.82s.35-2.1.68-2.83c.35-.77.83-1.35,1.43-1.73s1.36-.57,2.28-.57,1.69.19,2.28.57,1.06.95,1.4,1.7c.35.76.59,1.69.71,2.78s.18,2.38.18,3.87-.06,2.79-.18,3.86c-.12,1.07-.35,2-.7,2.79-.33.77-.8,1.35-1.41,1.73ZM651.22,711.57c-1.21-1.88-3.12-2.82-5.73-2.82s-4.49.93-5.71,2.78-1.83,4.71-1.83,8.59.6,6.7,1.81,8.55,3.12,2.78,5.73,2.78,4.48-.92,5.71-2.75c1.23-1.83,1.84-4.7,1.84-8.62s-.6-6.64-1.81-8.52Z" style="fill: #444;"/>
  <path d="M912.58,728.49h-11.73c.97-.82,2.01-1.71,3.12-2.67s2.19-1.96,3.24-2.98c.73-.71,1.35-1.36,1.87-1.95s.96-1.18,1.34-1.79c.41-.64.72-1.33.93-2.04.21-.72.31-1.49.31-2.32,0-1.85-.63-3.31-1.9-4.39s-3.02-1.62-5.26-1.62c-1.08,0-2.2.14-3.36.42s-2.08.6-2.78.94v3.08h.15c.99-.64,2-1.12,3.03-1.44s2-.47,2.89-.47c1.34,0,2.38.32,3.13.96s1.12,1.53,1.12,2.66c0,1.24-.35,2.39-1.04,3.46-.69,1.07-1.98,2.51-3.85,4.33-.89.87-1.85,1.74-2.88,2.62s-2.06,1.76-3.08,2.64v3.06h14.77v-2.5ZM891.75,726.83h-3.5v4.17h3.5v-4.17ZM877.31,728.47c-.61.38-1.37.57-2.29.57-.98,0-1.76-.2-2.35-.6s-1.05-.98-1.37-1.74c-.35-.81-.58-1.73-.69-2.75s-.16-2.3-.16-3.82c0-1.39.06-2.66.18-3.82s.35-2.1.68-2.83c.35-.77.83-1.35,1.43-1.73s1.36-.57,2.28-.57,1.69.19,2.28.57,1.06.95,1.4,1.7c.35.76.59,1.69.71,2.78s.18,2.38.18,3.87-.06,2.79-.18,3.86c-.12,1.07-.35,2-.7,2.79-.33.77-.8,1.35-1.41,1.73ZM880.76,711.57c-1.21-1.88-3.12-2.82-5.73-2.82s-4.49.93-5.71,2.78-1.83,4.71-1.83,8.59.6,6.7,1.81,8.55,3.12,2.78,5.73,2.78,4.48-.92,5.71-2.75c1.23-1.83,1.84-4.7,1.84-8.62s-.6-6.64-1.81-8.52Z" style="fill: #444;"/>
  <path d="M103.05,631.08l8.45-9.84v9.84h-8.45ZM117.55,631.08h-3.24v-13.33h-2.7l-10.56,12.3v3.37h10.44v6.14h2.81v-6.14h3.24v-2.34ZM96.22,635.38h-3.5v4.17h3.5v-4.17ZM81.78,637.03c-.61.38-1.37.57-2.29.57-.98,0-1.76-.2-2.35-.6s-1.05-.98-1.37-1.74c-.35-.81-.58-1.73-.69-2.75s-.16-2.3-.16-3.82c0-1.39.06-2.66.18-3.82s.35-2.1.68-2.83c.35-.77.83-1.35,1.43-1.73s1.36-.57,2.28-.57,1.69.19,2.28.57,1.06.95,1.4,1.7c.35.76.59,1.69.71,2.78s.18,2.38.18,3.87-.06,2.79-.18,3.86c-.12,1.07-.35,2-.7,2.79-.33.77-.8,1.35-1.41,1.73ZM85.23,620.13c-1.21-1.88-3.12-2.82-5.73-2.82s-4.49.93-5.71,2.78-1.83,4.71-1.83,8.59.6,6.7,1.81,8.55,3.12,2.78,5.73,2.78,4.48-.92,5.71-2.75c1.23-1.83,1.84-4.7,1.84-8.62s-.6-6.64-1.81-8.52Z" style="fill: #444;"/>
  <path d="M116.23,529.6c-.43-.85-1.04-1.54-1.82-2.08-.74-.51-1.56-.86-2.45-1.06s-1.92-.3-3.11-.3c-.32,0-.7,0-1.14.03s-.87.05-1.29.09v-5.8h10.3v-2.56h-13.12v11.24c.58-.12,1.26-.23,2.06-.35s1.62-.18,2.48-.18,1.71.08,2.44.23c.73.15,1.35.41,1.85.78.46.31.82.73,1.08,1.25s.39,1.15.39,1.9-.11,1.45-.33,2.04-.54,1.09-.97,1.51c-.51.49-1.09.83-1.74,1.03s-1.32.29-2.01.29c-1.04,0-2.09-.18-3.16-.54-1.07-.36-2.01-.79-2.81-1.3h-.21v3.09c.76.35,1.69.65,2.8.9,1.1.25,2.25.37,3.44.37,1.28,0,2.4-.18,3.38-.55.97-.37,1.81-.89,2.51-1.57.64-.63,1.15-1.42,1.52-2.34s.56-1.9.56-2.92c0-1.28-.21-2.34-.64-3.19ZM96.22,535.54h-3.5v4.17h3.5v-4.17ZM81.78,537.19c-.61.38-1.37.57-2.29.57-.98,0-1.76-.2-2.35-.6s-1.05-.98-1.37-1.74c-.35-.81-.58-1.73-.69-2.75s-.16-2.3-.16-3.82c0-1.39.06-2.66.18-3.82s.35-2.1.68-2.83c.35-.77.83-1.35,1.43-1.73s1.36-.57,2.28-.57,1.69.19,2.28.57,1.06.95,1.4,1.7c.35.76.59,1.69.71,2.78s.18,2.38.18,3.87-.06,2.79-.18,3.86c-.12,1.07-.35,2-.7,2.79-.33.77-.8,1.35-1.41,1.73ZM85.23,520.29c-1.21-1.88-3.12-2.82-5.73-2.82s-4.49.93-5.71,2.78-1.83,4.71-1.83,8.59.6,6.7,1.81,8.55,3.12,2.78,5.73,2.78,4.48-.92,5.71-2.75c1.23-1.83,1.84-4.7,1.84-8.62s-.6-6.64-1.81-8.52Z" style="fill: #444;"/>
  <path d="M113.18,436.64c-.81.87-1.92,1.3-3.34,1.3-.62,0-1.18-.1-1.71-.3-.52-.2-1.01-.51-1.46-.94-.56-.52-.99-1.22-1.31-2.12-.32-.89-.48-2.11-.48-3.66,0-.3,0-.55.01-.75,0-.2.02-.41.04-.62.75-.41,1.48-.71,2.2-.91s1.48-.29,2.31-.29c.6,0,1.17.05,1.71.15s1.04.3,1.49.62c.62.44,1.06.96,1.33,1.55s.4,1.35.4,2.26c0,1.62-.41,2.86-1.22,3.73ZM116.72,429.48c-.43-.91-1.08-1.66-1.94-2.26-.74-.52-1.47-.86-2.18-1.03s-1.53-.26-2.45-.26c-1.04,0-1.97.13-2.76.39-.8.26-1.6.64-2.42,1.14.21-2.24.93-4.01,2.18-5.33,1.25-1.31,2.92-1.97,5.02-1.97.58,0,1.14.07,1.69.2.55.13.96.27,1.24.42h.15v-2.8c-.4-.13-.8-.21-1.19-.26s-.87-.07-1.45-.07c-1.81,0-3.39.31-4.75.93s-2.47,1.48-3.33,2.58c-.91,1.16-1.57,2.49-1.98,3.98s-.62,3.21-.62,5.14.23,3.5.68,4.83,1.1,2.41,1.94,3.22c.67.65,1.45,1.15,2.33,1.48s1.86.5,2.93.5c2.12,0,3.91-.7,5.37-2.1,1.46-1.4,2.19-3.21,2.19-5.43,0-1.3-.22-2.4-.65-3.31ZM96.22,435.7h-3.5v4.17h3.5v-4.17ZM81.78,437.34c-.61.38-1.37.57-2.29.57-.98,0-1.76-.2-2.35-.6s-1.05-.98-1.37-1.74c-.35-.81-.58-1.73-.69-2.75s-.16-2.3-.16-3.82c0-1.39.06-2.66.18-3.82s.35-2.1.68-2.83c.35-.77.83-1.35,1.43-1.73s1.36-.57,2.28-.57,1.69.19,2.28.57,1.06.95,1.4,1.7c.35.76.59,1.69.71,2.78s.18,2.38.18,3.87-.06,2.79-.18,3.86c-.12,1.07-.35,2-.7,2.79-.33.77-.8,1.35-1.41,1.73ZM85.23,420.44c-1.21-1.88-3.12-2.82-5.73-2.82s-4.49.93-5.71,2.78-1.83,4.71-1.83,8.59.6,6.7,1.81,8.55,3.12,2.78,5.73,2.78,4.48-.92,5.71-2.75c1.23-1.83,1.84-4.7,1.84-8.62s-.6-6.64-1.81-8.52Z" style="fill: #444;"/>
  <path d="M117.11,318.22h-14.93v2.56h12.42l-10.5,19.25h3.13l9.87-18.54v-3.27ZM96.22,335.86h-3.5v4.17h3.5v-4.17ZM81.78,337.5c-.61.38-1.37.57-2.29.57-.98,0-1.76-.2-2.35-.6s-1.05-.98-1.37-1.74c-.35-.81-.58-1.73-.69-2.75s-.16-2.3-.16-3.82c0-1.39.06-2.66.18-3.82s.35-2.1.68-2.83c.35-.77.83-1.35,1.43-1.73s1.36-.57,2.28-.57,1.69.19,2.28.57,1.06.95,1.4,1.7c.35.76.59,1.69.71,2.78s.18,2.38.18,3.87-.06,2.79-.18,3.86c-.12,1.07-.35,2-.7,2.79-.33.77-.8,1.35-1.41,1.73ZM85.23,320.6c-1.21-1.88-3.12-2.82-5.73-2.82s-4.49.93-5.71,2.78-1.83,4.71-1.83,8.59.6,6.7,1.81,8.55,3.12,2.78,5.73,2.78,4.48-.92,5.71-2.75c1.23-1.83,1.84-4.7,1.84-8.62s-.6-6.64-1.81-8.52Z" style="fill: #444;"/>
  <path d="M112.91,237.41c-.85.73-1.99,1.1-3.42,1.1s-2.55-.43-3.46-1.29-1.36-1.95-1.36-3.27c0-1.04.27-1.96.8-2.78s1.24-1.47,2.12-1.95c.91.33,1.64.59,2.18.78s1.05.39,1.51.6c1.15.55,1.93,1.09,2.32,1.63.4.54.59,1.26.59,2.16,0,1.28-.43,2.29-1.28,3.02ZM113.18,225.86c-.37.69-1.04,1.36-2.01,2.01-.64-.19-1.31-.42-1.98-.7s-1.2-.51-1.56-.69c-.8-.4-1.4-.86-1.79-1.37-.4-.51-.59-1.12-.59-1.82,0-1,.39-1.79,1.18-2.37s1.79-.88,3.02-.88,2.28.31,3.08.93c.81.62,1.21,1.45,1.21,2.5,0,.91-.19,1.71-.56,2.4ZM116.13,230.83c-.72-.86-1.77-1.58-3.13-2.17v-.09c1.19-.54,2.09-1.28,2.71-2.23.62-.95.92-1.92.92-2.91,0-1.61-.65-2.94-1.95-3.98s-3.04-1.57-5.21-1.57-3.79.55-5.14,1.64-2.02,2.46-2.02,4.1c0,1.11.28,2.04.84,2.78s1.43,1.43,2.6,2.05v.09c-1.28.58-2.27,1.35-2.97,2.34-.7.98-1.05,2.08-1.05,3.29,0,1.9.7,3.47,2.1,4.69s3.28,1.83,5.65,1.83c2.23,0,4.07-.62,5.54-1.88s2.2-2.82,2.2-4.7c0-1.33-.36-2.42-1.08-3.28ZM96.22,236.02h-3.5v4.17h3.5v-4.17ZM81.78,237.66c-.61.38-1.37.57-2.29.57-.98,0-1.76-.2-2.35-.6s-1.05-.98-1.37-1.74c-.35-.81-.58-1.73-.69-2.75s-.16-2.3-.16-3.82c0-1.39.06-2.66.18-3.82s.35-2.1.68-2.83c.35-.77.83-1.35,1.43-1.73s1.36-.57,2.28-.57,1.69.19,2.28.57,1.06.95,1.4,1.7c.35.76.59,1.69.71,2.78s.18,2.38.18,3.87-.06,2.79-.18,3.86c-.12,1.07-.35,2-.7,2.79-.33.77-.8,1.35-1.41,1.73ZM85.23,220.76c-1.21-1.88-3.12-2.82-5.73-2.82s-4.49.93-5.71,2.78-1.83,4.71-1.83,8.59.6,6.7,1.81,8.55,3.12,2.78,5.73,2.78,4.48-.92,5.71-2.75c1.23-1.83,1.84-4.7,1.84-8.62s-.6-6.64-1.81-8.52Z" style="fill: #444;"/>
  <path d="M114.04,128.27c-.01.2-.03.4-.04.61-.68.39-1.42.69-2.2.89s-1.55.31-2.31.31c-.64,0-1.23-.05-1.76-.15-.53-.1-1.01-.31-1.45-.61-.62-.44-1.07-.95-1.33-1.54s-.4-1.34-.4-2.27c0-1.59.41-2.83,1.22-3.71s1.93-1.32,3.33-1.32c.62,0,1.19.1,1.71.29.53.19,1.02.51,1.48.95.55.51.98,1.22,1.29,2.14s.47,2.13.47,3.65c0,.31,0,.57-.02.77ZM116.35,123.19c-.45-1.28-1.09-2.32-1.92-3.13-.67-.65-1.46-1.14-2.36-1.47s-1.88-.49-2.93-.49c-2.11,0-3.9.7-5.36,2.09s-2.2,3.21-2.2,5.43c0,1.28.22,2.38.65,3.3s1.08,1.67,1.94,2.27c.73.51,1.46.85,2.19,1.03s1.54.26,2.44.26c.95,0,1.82-.12,2.62-.35s1.66-.62,2.56-1.17c-.2,2.28-.91,4.06-2.13,5.35s-2.92,1.94-5.08,1.94c-.63,0-1.21-.07-1.73-.2-.52-.13-.92-.27-1.2-.42h-.15v2.8c.35.12.75.2,1.2.26s.93.08,1.44.08c1.81,0,3.38-.3,4.72-.91s2.45-1.46,3.34-2.58c.88-1.09,1.54-2.42,1.97-3.97s.65-3.28.65-5.19c0-2.02-.22-3.67-.67-4.94ZM96.22,136.17h-3.5v4.17h3.5v-4.17ZM81.78,137.82c-.61.38-1.37.57-2.29.57-.98,0-1.76-.2-2.35-.6s-1.05-.98-1.37-1.74c-.35-.81-.58-1.73-.69-2.75s-.16-2.3-.16-3.82c0-1.39.06-2.66.18-3.82s.35-2.1.68-2.83c.35-.77.83-1.35,1.43-1.73s1.36-.57,2.28-.57,1.69.19,2.28.57,1.06.95,1.4,1.7c.35.76.59,1.69.71,2.78s.18,2.38.18,3.87-.06,2.79-.18,3.86c-.12,1.07-.35,2-.7,2.79-.33.77-.8,1.35-1.41,1.73ZM85.23,120.92c-1.21-1.88-3.12-2.82-5.73-2.82s-4.49.93-5.71,2.78-1.83,4.71-1.83,8.59.6,6.7,1.81,8.55,3.12,2.78,5.73,2.78,4.48-.92,5.71-2.75c1.23-1.83,1.84-4.7,1.84-8.62s-.6-6.64-1.81-8.52Z" style="fill: #444;"/>
  <path d="M115.81,38.28h-4.45v-19.66h-2.27c-.04.63-.19,1.14-.45,1.52-.26.38-.61.69-1.06.93-.36.2-.89.34-1.6.45-.7.1-1.36.15-1.98.15v1.99h4.54v14.62h-4.54v2.23h11.81v-2.23Z" style="fill: #444;"/>
  <polyline points="648 501 922 501 922 595 648 595 648 501" style="fill: #fff;"/>
  <g style="clip-path: url(#clippath-1);">
    <path d="M885.37,528.08c0-2-.46-3.54-1.39-4.6-.93-1.06-2.28-1.6-4.04-1.6-.97,0-1.91.2-2.83.6-.92.4-1.81.96-2.67,1.67v-8.25h-2.75v22.79h2.75v-12.22c.75-.58,1.54-1.05,2.36-1.42.82-.37,1.61-.56,2.36-.56s1.33.1,1.79.3c.46.2.81.51,1.05.92.23.37.4.89.48,1.54.09.66.13,1.37.13,2.12v9.32h2.75v-10.62M868.16,534.64h-.15c-.21.17-.48.36-.83.59-.35.23-.73.45-1.13.65-.46.23-.98.42-1.55.57-.58.15-1.14.22-1.7.22-1.6,0-2.84-.53-3.73-1.59-.88-1.06-1.33-2.58-1.33-4.55s.45-3.57,1.36-4.62c.9-1.05,2.14-1.57,3.7-1.57.85,0,1.72.18,2.61.53.89.35,1.76.85,2.6,1.51h.15v-3.06c-.75-.38-1.58-.7-2.48-.97-.9-.26-1.82-.4-2.76-.4-2.41,0-4.35.76-5.82,2.29-1.47,1.52-2.2,3.62-2.2,6.3,0,1.44.2,2.69.59,3.76.39,1.07.94,1.96,1.66,2.67.7.7,1.55,1.23,2.53,1.57.99.35,2.07.52,3.25.52.93,0,1.8-.12,2.63-.37.83-.24,1.7-.59,2.61-1.03v-3.03M853.47,522.51c-.43-.07-.75-.11-.97-.14-.21-.02-.56-.04-1.04-.04-.87,0-1.72.18-2.56.55-.83.37-1.8.99-2.89,1.87v-2.42h-2.75v16.36h2.75v-11.62c.73-.6,1.49-1.08,2.29-1.46.79-.38,1.61-.56,2.46-.56.53,0,.98.02,1.37.07.39.05.78.12,1.19.21h.15v-2.83M832.99,536.03c-.8.38-1.68.56-2.65.56-1.16,0-2.03-.24-2.59-.71-.57-.47-.85-1.18-.85-2.12,0-.83.24-1.48.73-1.96.49-.47,1.13-.82,1.92-1.05.66-.19,1.57-.33,2.7-.42,1.14-.1,2.13-.17,2.97-.22v4.56c-.68.53-1.43.98-2.23,1.35M837.96,527.6c0-1.05-.16-1.94-.48-2.65-.32-.71-.79-1.29-1.41-1.74-.62-.46-1.36-.78-2.22-.97-.85-.19-1.86-.29-3.01-.29-.99,0-1.99.09-3,.26-1.02.18-1.79.34-2.33.48v2.8h.15c.95-.36,1.87-.64,2.75-.83.89-.19,1.69-.29,2.42-.29.6,0,1.17.04,1.71.12.55.08,1.02.23,1.41.45.41.23.72.56.94.97.22.41.33.93.33,1.55v.42c-1.6.08-3.1.2-4.5.35-1.4.16-2.59.45-3.59.89-.99.44-1.75,1.04-2.28,1.81-.53.77-.8,1.77-.8,3.01,0,1.51.51,2.76,1.54,3.74,1.03.98,2.28,1.46,3.75,1.46.8,0,1.5-.08,2.09-.23.6-.15,1.12-.34,1.58-.56.39-.18.79-.41,1.21-.71.42-.3.74-.53.99-.7v1.74h2.74v-11.1M809.01,528.7c.12-1.29.61-2.37,1.49-3.24.87-.87,2.05-1.3,3.52-1.3s2.56.4,3.27,1.19c.72.79,1.08,1.91,1.09,3.35h-9.38M821.07,529.31c0-2.37-.6-4.2-1.79-5.49-1.2-1.29-2.9-1.93-5.11-1.93-2.38,0-4.3.79-5.76,2.36-1.46,1.57-2.19,3.7-2.19,6.37s.76,4.79,2.29,6.26c1.52,1.47,3.64,2.2,6.36,2.2,1.06,0,2.08-.13,3.05-.4.97-.26,1.91-.59,2.84-.98v-3h-.15c-.48.43-1.28.87-2.41,1.31-1.13.44-2.25.67-3.36.67-.84,0-1.61-.12-2.31-.35-.7-.23-1.3-.59-1.81-1.05-.53-.48-.94-1.09-1.25-1.84-.3-.75-.45-1.62-.45-2.63h12.06v-1.49M802.39,531.11c-.69-.71-1.68-1.22-2.96-1.51-.42-.1-.94-.21-1.57-.32-.63-.12-1.2-.23-1.71-.35-.92-.22-1.58-.49-1.99-.84-.42-.34-.63-.85-.63-1.52,0-.76.35-1.34,1.04-1.72.69-.39,1.54-.58,2.55-.58s1.95.18,2.96.53c1.01.36,1.86.79,2.56,1.31h.15v-2.94c-.66-.34-1.5-.63-2.5-.87-1-.24-1.99-.36-2.97-.36-1.04,0-1.99.13-2.83.4-.84.27-1.54.63-2.09,1.09-.57.47-.99,1-1.27,1.6-.28.6-.42,1.23-.42,1.9,0,1.07.3,1.98.9,2.72.6.74,1.62,1.3,3.05,1.68.52.14,1.09.26,1.72.38.63.12,1.14.22,1.53.31,1.05.23,1.77.52,2.14.85.37.33.56.82.56,1.46,0,.84-.34,1.46-1.03,1.85-.68.39-1.63.59-2.84.59-.98,0-2-.19-3.06-.58-1.06-.39-2.03-.91-2.9-1.56h-.15v3.09c.68.34,1.53.66,2.54.94,1.01.29,2.12.43,3.33.43,2.14,0,3.83-.48,5.06-1.44,1.24-.96,1.85-2.18,1.85-3.68,0-1.19-.35-2.15-1.04-2.87M775.89,528.08c0-2-.46-3.54-1.39-4.6-.93-1.06-2.28-1.6-4.04-1.6-.97,0-1.91.2-2.83.6-.92.4-1.81.96-2.67,1.67v-8.25h-2.75v22.79h2.75v-12.22c.75-.58,1.54-1.05,2.36-1.42.82-.37,1.61-.56,2.36-.56s1.33.1,1.79.3c.46.2.81.51,1.05.92.23.37.4.89.48,1.54.09.66.13,1.37.13,2.12v9.32h2.75v-10.62M758.88,536.08h-.15c-.21.09-.57.2-1.05.33-.49.13-.96.2-1.41.2-.77,0-1.35-.09-1.72-.27-.38-.18-.67-.47-.89-.86-.23-.42-.37-.87-.41-1.36-.04-.48-.06-1.15-.06-2.01v-7.46h5.68v-2.31h-5.68v-4.7h-2.75v4.7h-1.86v2.31h1.86v8.7c0,1.98.43,3.42,1.3,4.32.87.9,2.14,1.35,3.81,1.35.48,0,1.02-.04,1.63-.13s1.17-.2,1.69-.34v-2.48M741.96,534.99c-.86,1.04-2.06,1.55-3.59,1.55-.71,0-1.35-.06-1.91-.19-.56-.13-1.23-.37-2.01-.72v-9.27c.73-.56,1.5-1.01,2.3-1.35.8-.34,1.6-.51,2.39-.51,1.4,0,2.43.49,3.11,1.46.67.98,1.01,2.45,1.01,4.42s-.43,3.56-1.29,4.6M744.45,524.12c-1.1-1.49-2.63-2.23-4.61-2.23-1.04,0-2.01.21-2.92.62-.91.42-1.74.93-2.47,1.54v-1.71h-2.75v22.4h2.75v-6.86c.71.39,1.41.68,2.1.86.69.19,1.46.28,2.31.28.98,0,1.9-.2,2.78-.59.87-.39,1.63-.95,2.28-1.68.69-.76,1.23-1.69,1.61-2.79.38-1.1.57-2.31.57-3.64,0-2.65-.55-4.71-1.65-6.2M715.47,528.7c.12-1.29.61-2.37,1.49-3.24.87-.87,2.05-1.3,3.52-1.3s2.56.4,3.27,1.19c.72.79,1.08,1.91,1.09,3.35h-9.37M727.52,529.31c0-2.37-.6-4.2-1.79-5.49-1.2-1.29-2.9-1.93-5.11-1.93-2.38,0-4.3.79-5.76,2.36-1.46,1.57-2.19,3.7-2.19,6.37s.76,4.79,2.29,6.26c1.52,1.47,3.64,2.2,6.36,2.2,1.06,0,2.08-.13,3.05-.4.97-.26,1.91-.59,2.84-.98v-3h-.15c-.48.43-1.28.87-2.41,1.31-1.13.44-2.25.67-3.36.67-.84,0-1.61-.12-2.31-.35-.7-.23-1.3-.59-1.81-1.05-.53-.48-.94-1.09-1.25-1.84-.3-.75-.45-1.62-.45-2.63h12.06v-1.49M705.51,532.02c-.54,1.13-1.36,2.05-2.44,2.74-.87.56-1.82.94-2.86,1.14-1.04.21-2.26.31-3.65.31h-2.72v-16.83h2.72c1.35,0,2.5.09,3.47.29.97.19,1.88.53,2.74,1.02,1.18.67,2.07,1.6,2.67,2.77.6,1.17.89,2.61.89,4.32s-.27,3.12-.81,4.25M708.11,522.32c-.83-1.54-1.99-2.78-3.47-3.71-.87-.54-1.93-.96-3.19-1.27-1.25-.31-2.95-.46-5.08-.46h-5.45v21.81h5.51c2,0,3.62-.14,4.84-.41,1.23-.27,2.34-.72,3.33-1.33,1.44-.89,2.59-2.14,3.45-3.75.86-1.61,1.3-3.41,1.3-5.39,0-2.12-.42-3.95-1.25-5.49" style="fill: #444;"/>
    <polyline points="674 533 674 532 663 532 663 522 673 522 673 533 674 533 674 532 674 533 675 533 675 520 661 520 661 534 675 534 675 533 674 533" style="fill: #ab63fa;"/>
    <path d="M835.22,530.12c-.84.05-1.83.12-2.97.22-1.14.1-2.04.24-2.7.42-.79.22-1.43.57-1.92,1.05-.49.47-.73,1.13-.73,1.96,0,.94.28,1.64.85,2.12.57.47,1.43.71,2.59.71.97,0,1.85-.19,2.65-.56.8-.38,1.54-.83,2.23-1.35v-4.56M739.14,524.51c-.79,0-1.59.17-2.39.51-.8.34-1.57.79-2.3,1.35v9.27c.78.35,1.45.59,2.01.72.56.13,1.2.19,1.91.19,1.53,0,2.73-.52,3.59-1.55.86-1.04,1.29-2.57,1.29-4.6s-.34-3.45-1.01-4.42c-.67-.98-1.71-1.46-3.11-1.46M720.48,524.15c-1.47,0-2.65.43-3.52,1.3-.87.87-1.37,1.95-1.49,3.24h9.37c0-1.45-.37-2.56-1.09-3.35-.72-.79-1.81-1.19-3.27-1.19M814.02,524.15c-1.47,0-2.65.43-3.52,1.3-.87.87-1.37,1.95-1.49,3.24h9.38c0-1.45-.37-2.56-1.09-3.35-.72-.79-1.81-1.19-3.27-1.19M696.55,519.38h-2.72v16.83h2.72c1.4,0,2.61-.1,3.65-.31,1.04-.21,1.99-.59,2.86-1.14,1.08-.69,1.9-1.61,2.44-2.74.54-1.13.81-2.55.81-4.25s-.3-3.15-.89-4.32c-.6-1.17-1.48-2.09-2.67-2.77-.86-.49-1.77-.83-2.74-1.02-.97-.19-2.12-.29-3.47-.29M846.01,524.75c1.09-.88,2.06-1.5,2.89-1.87.83-.37,1.69-.55,2.56-.55.48,0,.83.01,1.04.04.22.03.54.07.97.14v2.83h-.15c-.41-.1-.81-.17-1.19-.21-.39-.04-.84-.07-1.37-.07-.85,0-1.67.19-2.46.56-.79.38-1.55.86-2.29,1.46v11.62h-2.75v-16.36h2.75v2.42M862.92,539.07c-1.18,0-2.27-.17-3.25-.52-.99-.35-1.83-.87-2.53-1.57-.71-.7-1.26-1.59-1.66-2.67-.39-1.07-.59-2.33-.59-3.76,0-2.68.74-4.78,2.2-6.3,1.47-1.52,3.41-2.29,5.82-2.29.94,0,1.86.13,2.76.4.9.26,1.73.59,2.48.97v3.06h-.15c-.84-.65-1.71-1.16-2.6-1.51-.89-.35-1.77-.53-2.61-.53-1.56,0-2.8.53-3.7,1.57-.9,1.05-1.36,2.59-1.36,4.62s.44,3.49,1.33,4.55c.88,1.06,2.13,1.59,3.73,1.59.56,0,1.12-.07,1.7-.22.58-.15,1.09-.34,1.55-.57.4-.21.78-.42,1.13-.65.35-.23.63-.43.83-.59h.15v3.03c-.92.44-1.79.78-2.61,1.03-.83.24-1.7.37-2.63.37M796.75,536.77c1.21,0,2.16-.2,2.84-.59.68-.39,1.03-1.01,1.03-1.85,0-.64-.19-1.13-.56-1.46-.37-.33-1.08-.62-2.14-.85-.39-.09-.9-.19-1.53-.31-.63-.12-1.2-.24-1.72-.38-1.44-.38-2.45-.94-3.05-1.68-.6-.74-.9-1.64-.9-2.72,0-.67.14-1.31.42-1.9.28-.6.7-1.13,1.27-1.6.55-.46,1.24-.82,2.09-1.09.84-.27,1.79-.4,2.83-.4.98,0,1.97.12,2.97.36,1,.24,1.83.53,2.5.87v2.94h-.15c-.7-.52-1.56-.95-2.56-1.31-1.01-.36-1.99-.53-2.96-.53s-1.86.19-2.55.58c-.69.39-1.04.96-1.04,1.72,0,.67.21,1.18.63,1.52.41.34,1.07.62,1.99.84.51.12,1.08.23,1.71.35.63.12,1.15.22,1.57.32,1.28.29,2.27.8,2.96,1.51.69.72,1.04,1.68,1.04,2.87,0,1.49-.62,2.72-1.85,3.68-1.24.96-2.92,1.44-5.06,1.44-1.21,0-2.32-.14-3.33-.43-1.01-.29-1.86-.6-2.54-.94v-3.09h.15c.87.65,1.84,1.17,2.9,1.56,1.06.39,2.08.58,3.06.58M825.51,525.49v-2.8c.54-.15,1.31-.31,2.33-.48,1.02-.18,2.02-.26,3-.26,1.15,0,2.16.1,3.01.29.85.19,1.59.52,2.22.97.62.45,1.08,1.03,1.41,1.74.32.71.48,1.6.48,2.65v11.1h-2.74v-1.74c-.24.17-.57.4-.99.7-.42.3-.82.53-1.21.71-.46.22-.99.41-1.58.56-.6.15-1.29.23-2.09.23-1.47,0-2.72-.49-3.75-1.46-1.03-.98-1.54-2.22-1.54-3.74,0-1.24.27-2.24.8-3.01.53-.77,1.29-1.37,2.28-1.81,1-.44,2.19-.74,3.59-.89,1.4-.16,2.9-.27,4.5-.35v-.42c0-.63-.11-1.14-.33-1.55-.22-.41-.53-.73-.94-.97-.39-.22-.86-.38-1.41-.45-.55-.08-1.12-.12-1.71-.12-.72,0-1.53.1-2.42.29-.89.19-1.81.47-2.75.83h-.15M721.31,539.08c-2.71,0-4.83-.73-6.36-2.2-1.52-1.47-2.29-3.56-2.29-6.26s.73-4.8,2.19-6.37c1.46-1.57,3.38-2.36,5.76-2.36,2.21,0,3.91.64,5.11,1.93,1.2,1.29,1.79,3.12,1.79,5.49v1.49h-12.06c0,1.01.15,1.88.45,2.63.3.75.72,1.36,1.25,1.84.51.47,1.11.82,1.81,1.05.7.23,1.47.35,2.31.35,1.11,0,2.23-.22,3.36-.67,1.13-.44,1.93-.88,2.41-1.31h.15v3c-.93.39-1.88.72-2.84.98-.97.26-1.98.4-3.05.4M734.45,524.05c.73-.62,1.56-1.13,2.47-1.54.91-.42,1.89-.62,2.92-.62,1.97,0,3.51.75,4.61,2.23,1.1,1.49,1.65,3.56,1.65,6.2,0,1.33-.19,2.54-.57,3.64-.38,1.1-.92,2.03-1.61,2.79-.64.72-1.4,1.28-2.28,1.68-.87.4-1.8.59-2.78.59-.85,0-1.62-.09-2.31-.28-.69-.19-1.39-.47-2.1-.86v6.86h-2.75v-22.4h2.75v1.71M814.86,539.08c-2.71,0-4.83-.73-6.36-2.2-1.52-1.47-2.29-3.56-2.29-6.26s.73-4.8,2.19-6.37c1.46-1.57,3.38-2.36,5.76-2.36,2.21,0,3.91.64,5.11,1.93,1.2,1.29,1.79,3.12,1.79,5.49v1.49h-12.06c0,1.01.15,1.88.45,2.63.3.75.72,1.36,1.25,1.84.51.47,1.11.82,1.81,1.05.7.23,1.47.35,2.31.35,1.11,0,2.23-.22,3.36-.67,1.13-.44,1.93-.88,2.41-1.31h.15v3c-.93.39-1.87.72-2.84.98-.97.26-1.98.4-3.05.4M661,534v-14h14v14h-14M748.59,524.65v-2.31h1.86v-4.7h2.75v4.7h5.68v2.31h-5.68v7.46c0,.86.02,1.53.06,2.01.04.48.18.94.41,1.36.21.39.51.68.89.86.38.18.95.27,1.72.27.45,0,.92-.07,1.41-.2.49-.13.84-.24,1.05-.33h.15v2.48c-.52.14-1.08.25-1.69.34s-1.15.13-1.63.13c-1.67,0-2.94-.45-3.81-1.35-.87-.9-1.3-2.34-1.3-4.32v-8.7h-1.86M690.93,538.7v-21.81h5.45c2.13,0,3.82.15,5.08.46,1.25.31,2.32.73,3.19,1.27,1.48.93,2.64,2.16,3.47,3.71.83,1.54,1.25,3.37,1.25,5.49,0,1.98-.43,3.78-1.3,5.39-.86,1.61-2.01,2.86-3.45,3.75-1,.62-2.11,1.06-3.33,1.33-1.23.27-2.84.41-4.84.41h-5.51M762.21,538.7v-22.79h2.75v8.25c.86-.71,1.75-1.27,2.67-1.67.92-.4,1.86-.6,2.83-.6,1.77,0,3.12.53,4.04,1.6.93,1.06,1.39,2.6,1.39,4.6v10.62h-2.75v-9.32c0-.75-.04-1.46-.13-2.12-.09-.66-.25-1.17-.48-1.54-.24-.41-.6-.71-1.05-.92-.46-.2-1.05-.3-1.79-.3s-1.54.19-2.36.56c-.82.37-1.61.84-2.36,1.42v12.22h-2.75M871.69,538.7v-22.79h2.75v8.25c.86-.71,1.75-1.27,2.67-1.67.92-.4,1.86-.6,2.83-.6,1.77,0,3.12.53,4.04,1.6.93,1.06,1.39,2.6,1.39,4.6v10.62h-2.75v-9.32c0-.75-.04-1.46-.13-2.12-.09-.66-.25-1.17-.48-1.54-.24-.41-.6-.71-1.05-.92-.46-.2-1.05-.3-1.79-.3s-1.54.19-2.36.56c-.82.37-1.61.84-2.36,1.42v12.22h-2.75M916.25,506h-268.25v42h268.25v-42" style="fill: #fff;"/>
    <path d="M851.46,522.34c-.87,0-1.72.18-2.56.55-.83.37-1.8.99-2.89,1.87v-2.42h-2.75v16.36h2.75v-11.62c.73-.6,1.49-1.08,2.29-1.46.79-.38,1.61-.56,2.46-.56.53,0,.98.02,1.37.07.39.05.78.12,1.19.21h.15v-2.83c-.43-.07-.75-.11-.97-.14-.21-.02-.56-.04-1.04-.04M862.92,521.96c-2.41,0-4.35.76-5.82,2.29-1.47,1.52-2.2,3.62-2.2,6.3,0,1.44.2,2.69.59,3.76.39,1.07.94,1.96,1.66,2.67.7.7,1.55,1.23,2.53,1.57.99.35,2.07.52,3.25.52.93,0,1.8-.12,2.63-.37.83-.24,1.7-.59,2.61-1.03v-3.03h-.15c-.21.17-.48.36-.83.59-.35.23-.73.45-1.13.65-.46.23-.98.42-1.55.57-.58.15-1.14.22-1.7.22-1.6,0-2.84-.53-3.73-1.59-.88-1.06-1.33-2.58-1.33-4.55s.45-3.57,1.36-4.62c.9-1.05,2.14-1.57,3.7-1.57.85,0,1.72.18,2.61.53.89.35,1.76.85,2.6,1.51h.15v-3.06c-.75-.38-1.58-.7-2.48-.97-.9-.26-1.82-.4-2.76-.4M797.32,521.94c-1.04,0-1.99.13-2.83.4-.84.27-1.54.63-2.09,1.09-.57.47-.99,1-1.27,1.6-.28.6-.42,1.23-.42,1.9,0,1.07.3,1.98.9,2.72.6.74,1.62,1.3,3.05,1.68.52.14,1.09.26,1.72.38.63.12,1.14.22,1.53.31,1.05.23,1.77.52,2.14.85.37.33.56.82.56,1.46,0,.84-.34,1.46-1.03,1.85-.68.39-1.63.59-2.84.59-.98,0-2-.19-3.06-.58-1.06-.39-2.03-.91-2.9-1.56h-.15v3.09c.68.34,1.53.66,2.54.94,1.01.29,2.12.43,3.33.43,2.14,0,3.83-.48,5.06-1.44,1.24-.96,1.85-2.18,1.85-3.68,0-1.19-.35-2.15-1.04-2.87-.69-.71-1.68-1.22-2.96-1.51-.42-.1-.94-.21-1.57-.32-.63-.12-1.2-.23-1.71-.35-.92-.22-1.58-.49-1.99-.84-.42-.34-.63-.85-.63-1.52,0-.76.35-1.34,1.04-1.72.69-.39,1.54-.58,2.55-.58s1.95.18,2.96.53c1.01.36,1.86.79,2.56,1.31h.15v-2.94c-.66-.34-1.5-.63-2.5-.87-1-.24-1.99-.36-2.97-.36M830.34,536.59c-1.16,0-2.03-.24-2.59-.71-.57-.47-.85-1.18-.85-2.12,0-.83.24-1.48.73-1.96.49-.47,1.13-.82,1.92-1.05.66-.19,1.57-.33,2.7-.42,1.14-.1,2.13-.17,2.97-.22v4.56c-.68.53-1.43.98-2.23,1.35-.8.38-1.68.56-2.65.56M830.84,521.94c-.99,0-1.99.09-3,.26-1.02.18-1.79.34-2.33.48v2.8h.15c.95-.36,1.87-.64,2.75-.83.89-.19,1.69-.29,2.42-.29.6,0,1.17.04,1.71.12.55.08,1.02.23,1.41.45.41.23.72.56.94.97.22.41.33.93.33,1.55v.42c-1.6.08-3.1.2-4.5.35-1.4.16-2.59.45-3.59.89-.99.44-1.75,1.04-2.28,1.81-.53.77-.8,1.77-.8,3.01,0,1.51.51,2.76,1.54,3.74,1.03.98,2.28,1.46,3.75,1.46.8,0,1.5-.08,2.09-.23.6-.15,1.12-.34,1.58-.56.39-.18.79-.41,1.21-.71.42-.3.74-.53.99-.7v1.74h2.74v-11.1c0-1.05-.16-1.94-.48-2.65-.32-.71-.79-1.29-1.41-1.74-.62-.46-1.36-.78-2.22-.97-.85-.19-1.86-.29-3.01-.29M715.47,528.7c.12-1.29.61-2.37,1.49-3.24.87-.87,2.05-1.3,3.52-1.3s2.56.4,3.27,1.19c.72.79,1.08,1.91,1.09,3.35h-9.37M720.62,521.88c-2.38,0-4.3.79-5.76,2.36-1.46,1.57-2.19,3.7-2.19,6.37s.76,4.79,2.29,6.26c1.52,1.47,3.64,2.2,6.36,2.2,1.06,0,2.08-.13,3.05-.4.97-.26,1.91-.59,2.84-.98v-3h-.15c-.48.43-1.28.87-2.41,1.31-1.13.44-2.25.67-3.36.67-.84,0-1.61-.12-2.31-.35-.7-.23-1.3-.59-1.81-1.05-.53-.48-.94-1.09-1.25-1.84-.3-.75-.45-1.62-.45-2.63h12.06v-1.49c0-2.37-.6-4.2-1.79-5.49-1.2-1.29-2.9-1.93-5.11-1.93M738.38,536.55c-.71,0-1.35-.06-1.91-.19-.56-.13-1.23-.37-2.01-.72v-9.27c.73-.56,1.5-1.01,2.3-1.35.8-.34,1.6-.51,2.39-.51,1.4,0,2.43.49,3.11,1.46.67.98,1.01,2.45,1.01,4.42s-.43,3.56-1.29,4.6c-.86,1.04-2.06,1.55-3.59,1.55M739.84,521.88c-1.04,0-2.01.21-2.92.62-.91.42-1.74.93-2.47,1.54v-1.71h-2.75v22.4h2.75v-6.86c.71.39,1.41.68,2.1.86.69.19,1.46.28,2.31.28.98,0,1.9-.2,2.78-.59.87-.39,1.63-.95,2.28-1.68.69-.76,1.23-1.69,1.61-2.79.38-1.1.57-2.31.57-3.64,0-2.65-.55-4.71-1.65-6.2-1.1-1.49-2.63-2.23-4.61-2.23M809.01,528.7c.12-1.29.61-2.37,1.49-3.24.87-.87,2.05-1.3,3.52-1.3s2.56.4,3.27,1.19c.72.79,1.08,1.91,1.09,3.35h-9.38M814.17,521.88c-2.38,0-4.3.79-5.76,2.36-1.46,1.57-2.19,3.7-2.19,6.37s.76,4.79,2.29,6.26c1.52,1.47,3.64,2.2,6.36,2.2,1.06,0,2.08-.13,3.05-.4.97-.26,1.91-.59,2.84-.98v-3h-.15c-.48.43-1.28.87-2.41,1.31-1.13.44-2.25.67-3.36.67-.84,0-1.61-.12-2.31-.35-.7-.23-1.3-.59-1.81-1.05-.53-.48-.94-1.09-1.25-1.84-.3-.75-.45-1.62-.45-2.63h12.06v-1.49c0-2.37-.6-4.2-1.79-5.49-1.2-1.29-2.9-1.93-5.11-1.93M753.2,517.64h-2.75v4.7h-1.86v2.31h1.86v8.7c0,1.98.43,3.42,1.3,4.32.87.9,2.14,1.35,3.81,1.35.48,0,1.02-.04,1.63-.13s1.17-.2,1.69-.34v-2.48h-.15c-.21.09-.57.2-1.05.33-.49.13-.96.2-1.41.2-.77,0-1.35-.09-1.72-.27-.38-.18-.67-.47-.89-.86-.23-.42-.37-.87-.41-1.36-.04-.48-.06-1.15-.06-2.01v-7.46h5.68v-2.31h-5.68v-4.7M693.83,536.21v-16.83h2.72c1.35,0,2.5.09,3.47.29.97.19,1.88.53,2.74,1.02,1.18.67,2.07,1.6,2.67,2.77.6,1.17.89,2.61.89,4.32s-.27,3.12-.81,4.25c-.54,1.13-1.36,2.05-2.44,2.74-.87.56-1.82.94-2.86,1.14-1.04.21-2.26.31-3.65.31h-2.72M696.38,516.89h-5.45v21.81h5.51c2,0,3.62-.14,4.84-.41,1.23-.27,2.34-.72,3.33-1.33,1.44-.89,2.59-2.14,3.45-3.75.86-1.61,1.3-3.41,1.3-5.39,0-2.12-.42-3.95-1.25-5.49-.83-1.54-1.99-2.78-3.47-3.71-.87-.54-1.93-.96-3.19-1.27-1.25-.31-2.95-.46-5.08-.46M764.96,515.91h-2.75v22.79h2.75v-12.22c.75-.58,1.54-1.05,2.36-1.42.82-.37,1.61-.56,2.36-.56s1.33.1,1.79.3c.46.2.81.51,1.05.92.23.37.4.89.48,1.54.09.66.13,1.37.13,2.12v9.32h2.75v-10.62c0-2-.46-3.54-1.39-4.6-.93-1.06-2.28-1.6-4.04-1.6-.97,0-1.91.2-2.83.6-.92.4-1.81.96-2.67,1.67v-8.25M874.45,515.91h-2.75v22.79h2.75v-12.22c.75-.58,1.54-1.05,2.36-1.42.82-.37,1.61-.56,2.36-.56s1.33.1,1.79.3c.46.2.81.51,1.05.92.23.37.4.89.48,1.54.09.66.13,1.37.13,2.12v9.32h2.75v-10.62c0-2-.46-3.54-1.39-4.6-.93-1.06-2.28-1.6-4.04-1.6-.97,0-1.91.2-2.83.6-.92.4-1.81.96-2.67,1.67v-8.25" style="fill: #444;"/>
    <polyline points="673 522 663 522 663 532 673 532 673 522" style="fill: #d5b1fc;"/>
    <path d="M674,533h0v-1,1h1-1M663,532v-10h10v10h-10M675,520h-14v14h14v-14" style="fill: #ab63fa;"/>
    <path d="M913.64,570.08c0-2-.46-3.54-1.39-4.6-.93-1.06-2.28-1.6-4.04-1.6-.97,0-1.91.2-2.83.6-.92.4-1.81.96-2.67,1.67v-8.25h-2.75v22.79h2.75v-12.22c.75-.58,1.54-1.05,2.36-1.42s1.61-.56,2.36-.56,1.33.1,1.79.3c.46.2.81.51,1.05.92.23.37.4.89.48,1.54.09.66.13,1.37.13,2.12v9.32h2.75v-10.62M896.43,576.64h-.15c-.21.17-.48.36-.83.59-.35.23-.73.45-1.13.65-.46.23-.98.42-1.55.57-.58.15-1.14.22-1.7.22-1.6,0-2.84-.53-3.73-1.59-.88-1.06-1.33-2.58-1.33-4.55s.45-3.57,1.36-4.62c.9-1.05,2.14-1.57,3.7-1.57.85,0,1.72.18,2.61.53.89.35,1.76.85,2.6,1.51h.15v-3.06c-.75-.38-1.58-.7-2.48-.97-.9-.26-1.82-.4-2.76-.4-2.41,0-4.35.76-5.82,2.29-1.47,1.52-2.2,3.62-2.2,6.3,0,1.44.2,2.69.59,3.76.39,1.07.94,1.96,1.66,2.67.7.7,1.55,1.23,2.53,1.57.99.35,2.07.52,3.25.52.93,0,1.8-.12,2.63-.37.83-.24,1.7-.59,2.61-1.03v-3.03M881.74,564.51c-.43-.07-.75-.11-.97-.14-.21-.02-.56-.04-1.04-.04-.87,0-1.72.18-2.56.55-.84.37-1.8.99-2.89,1.87v-2.42h-2.75v16.36h2.75v-11.62c.73-.6,1.49-1.08,2.29-1.46.79-.38,1.61-.56,2.46-.56.53,0,.98.02,1.37.07.39.05.78.12,1.19.21h.15v-2.83M861.26,578.03c-.8.38-1.68.56-2.65.56-1.16,0-2.03-.24-2.59-.71-.57-.47-.85-1.18-.85-2.12,0-.83.24-1.48.73-1.96.49-.47,1.13-.82,1.92-1.05.66-.19,1.56-.33,2.7-.42,1.14-.1,2.13-.17,2.97-.22v4.56c-.68.53-1.43.98-2.23,1.35M866.23,569.6c0-1.05-.16-1.94-.48-2.65-.32-.71-.79-1.29-1.41-1.74-.63-.46-1.36-.78-2.22-.97-.85-.19-1.86-.29-3.01-.29-.99,0-1.99.09-3,.26-1.02.18-1.79.34-2.33.48v2.8h.15c.95-.36,1.87-.64,2.75-.83.89-.19,1.69-.29,2.42-.29.6,0,1.17.04,1.71.12.55.08,1.02.23,1.41.45.41.23.73.56.94.97.22.41.33.93.33,1.55v.42c-1.6.08-3.1.2-4.5.35-1.4.16-2.59.45-3.59.89-.99.44-1.75,1.04-2.28,1.81-.53.77-.8,1.77-.8,3.01,0,1.51.51,2.76,1.54,3.74s2.28,1.46,3.75,1.46c.8,0,1.5-.08,2.09-.23.6-.15,1.12-.34,1.58-.56.39-.18.79-.41,1.21-.71.42-.3.74-.53.99-.7v1.74h2.74v-11.1M837.28,570.7c.12-1.29.61-2.37,1.49-3.24.87-.87,2.05-1.3,3.52-1.3s2.56.4,3.27,1.19c.72.79,1.08,1.91,1.09,3.35h-9.37M849.34,571.31c0-2.37-.6-4.2-1.79-5.49-1.2-1.29-2.9-1.93-5.1-1.93-2.38,0-4.3.79-5.76,2.36-1.46,1.57-2.19,3.7-2.19,6.37s.76,4.79,2.29,6.26c1.52,1.47,3.64,2.21,6.36,2.21,1.06,0,2.08-.13,3.05-.4.97-.26,1.91-.59,2.84-.98v-3h-.15c-.48.43-1.28.87-2.41,1.31-1.13.44-2.25.67-3.36.67-.84,0-1.61-.12-2.31-.35-.7-.23-1.3-.59-1.81-1.05-.53-.48-.94-1.09-1.25-1.84-.3-.75-.45-1.62-.45-2.63h12.06v-1.49M830.66,573.11c-.69-.71-1.68-1.22-2.96-1.51-.42-.1-.95-.21-1.57-.32-.63-.12-1.2-.23-1.71-.35-.92-.22-1.58-.49-1.99-.84-.42-.34-.63-.85-.63-1.52,0-.76.35-1.34,1.04-1.72.69-.39,1.54-.58,2.55-.58s1.95.18,2.96.53c1.01.36,1.86.79,2.56,1.31h.15v-2.94c-.66-.34-1.5-.63-2.5-.87-1-.24-1.99-.36-2.97-.36-1.04,0-1.99.13-2.83.4-.84.27-1.54.63-2.09,1.09-.57.47-.99,1-1.27,1.6-.28.6-.42,1.23-.42,1.9,0,1.07.3,1.98.9,2.72.6.74,1.62,1.3,3.05,1.68.52.14,1.09.26,1.72.38.63.12,1.14.22,1.53.31,1.05.23,1.77.52,2.14.85.37.33.56.82.56,1.46,0,.84-.34,1.46-1.03,1.85-.68.39-1.63.59-2.84.59-.98,0-2-.19-3.06-.58-1.06-.39-2.03-.91-2.9-1.56h-.15v3.09c.68.34,1.53.66,2.54.94,1.01.29,2.12.43,3.33.43,2.14,0,3.83-.48,5.06-1.44s1.85-2.18,1.85-3.68c0-1.19-.35-2.15-1.04-2.87M804.16,570.08c0-2-.46-3.54-1.39-4.6-.93-1.06-2.28-1.6-4.04-1.6-.97,0-1.91.2-2.83.6-.92.4-1.81.96-2.67,1.67v-8.25h-2.75v22.79h2.75v-12.22c.75-.58,1.54-1.05,2.36-1.42.82-.37,1.61-.56,2.36-.56s1.33.1,1.79.3c.46.2.81.51,1.05.92.23.37.4.89.48,1.54.09.66.13,1.37.13,2.12v9.32h2.75v-10.62M787.16,578.08h-.15c-.21.09-.57.2-1.05.33-.49.13-.96.2-1.41.2-.77,0-1.35-.09-1.72-.27-.38-.18-.67-.47-.89-.86-.23-.42-.37-.87-.41-1.36-.04-.48-.06-1.15-.06-2.01v-7.46h5.68v-2.31h-5.68v-4.7h-2.75v4.7h-1.86v2.31h1.86v8.7c0,1.98.43,3.42,1.3,4.32.87.9,2.14,1.35,3.81,1.35.48,0,1.02-.04,1.63-.13.61-.09,1.17-.2,1.69-.34v-2.48M768.24,578.01c-.8.35-1.59.52-2.37.52-1.46,0-2.53-.51-3.19-1.52-.66-1.01-1-2.49-1-4.43s.43-3.5,1.29-4.57c.86-1.07,2.06-1.61,3.6-1.61.69,0,1.33.06,1.92.19.59.13,1.25.36,1.99.69v9.39c-.69.55-1.44.99-2.24,1.34M773.24,557.91h-2.75v7.09c-.73-.38-1.43-.66-2.09-.84-.66-.18-1.43-.27-2.29-.27-.95,0-1.86.2-2.75.59-.88.39-1.66.96-2.32,1.7-.67.76-1.21,1.68-1.6,2.77-.4,1.08-.59,2.32-.59,3.71,0,2.67.57,4.75,1.72,6.25,1.15,1.5,2.7,2.26,4.65,2.26,1.01,0,1.94-.19,2.8-.57.86-.38,1.68-.91,2.48-1.6v1.71h2.75v-22.79M749.7,578.03c-.8.38-1.68.56-2.65.56-1.16,0-2.03-.24-2.59-.71-.57-.47-.85-1.18-.85-2.12,0-.83.24-1.48.73-1.96.49-.47,1.13-.82,1.92-1.05.66-.19,1.57-.33,2.7-.42,1.14-.1,2.13-.17,2.97-.22v4.56c-.68.53-1.43.98-2.23,1.35M754.67,569.6c0-1.05-.16-1.94-.48-2.65-.32-.71-.79-1.29-1.41-1.74-.62-.46-1.36-.78-2.22-.97-.85-.19-1.86-.29-3.01-.29-.99,0-1.99.09-3,.26-1.02.18-1.79.34-2.33.48v2.8h.15c.95-.36,1.87-.64,2.75-.83.89-.19,1.69-.29,2.42-.29.6,0,1.17.04,1.71.12.55.08,1.02.23,1.41.45.41.23.72.56.94.97.22.41.33.93.33,1.55v.42c-1.6.08-3.1.2-4.5.35-1.4.16-2.59.45-3.59.89-.99.44-1.75,1.04-2.28,1.81-.53.77-.8,1.77-.8,3.01,0,1.51.51,2.76,1.54,3.74s2.28,1.46,3.75,1.46c.8,0,1.5-.08,2.09-.23.6-.15,1.12-.34,1.58-.56.39-.18.79-.41,1.21-.71.42-.3.74-.53.99-.7v1.74h2.74v-11.1M725.72,570.7c.12-1.29.61-2.37,1.49-3.24.87-.87,2.05-1.3,3.52-1.3s2.56.4,3.27,1.19c.72.79,1.08,1.91,1.09,3.35h-9.37M737.78,571.31c0-2.37-.6-4.2-1.79-5.49-1.2-1.29-2.9-1.93-5.11-1.93-2.38,0-4.3.79-5.76,2.36-1.46,1.57-2.19,3.7-2.19,6.37s.76,4.79,2.29,6.26c1.52,1.47,3.64,2.21,6.36,2.21,1.06,0,2.08-.13,3.05-.4.97-.26,1.91-.59,2.84-.98v-3h-.15c-.48.43-1.28.87-2.41,1.31-1.13.44-2.25.67-3.36.67-.84,0-1.61-.12-2.31-.35-.7-.23-1.3-.59-1.81-1.05-.53-.48-.94-1.09-1.25-1.84-.3-.75-.45-1.62-.45-2.63h12.06v-1.49M721.49,564.51c-.43-.07-.75-.11-.97-.14-.21-.02-.56-.04-1.04-.04-.87,0-1.72.18-2.56.55-.83.37-1.8.99-2.89,1.87v-2.42h-2.75v16.36h2.75v-11.62c.73-.6,1.49-1.08,2.29-1.46.79-.38,1.61-.56,2.46-.56.53,0,.98.02,1.37.07.39.05.78.12,1.19.21h.15v-2.83M703.98,576c-.25.49-.65.92-1.2,1.3-.52.35-1.18.59-1.99.72-.81.13-1.85.2-3.12.2h-3.84v-8.12h4.56c.96,0,1.77.04,2.44.11.67.07,1.24.23,1.71.48.69.36,1.17.8,1.44,1.32.26.52.4,1.22.4,2.09,0,.77-.13,1.4-.38,1.89M702.22,565.81c-.19.46-.52.84-.97,1.14-.46.29-.96.49-1.49.58-.54.09-1.26.14-2.17.14h-3.75v-6.3h3.46c.97,0,1.78.03,2.43.1.65.06,1.21.23,1.67.49.39.22.67.52.85.88.18.36.26.81.26,1.33,0,.63-.1,1.18-.29,1.65M706.11,570.23c-.85-.99-2.01-1.64-3.49-1.94v-.12c.88-.44,1.58-1.02,2.11-1.75.53-.73.79-1.61.79-2.64,0-.92-.18-1.71-.54-2.37-.36-.66-.94-1.2-1.74-1.62-.72-.37-1.48-.62-2.27-.73s-1.98-.18-3.57-.18h-6.46v21.81h7.73c1.51,0,2.76-.14,3.74-.41.98-.27,1.88-.73,2.7-1.38.69-.54,1.24-1.22,1.66-2.05.41-.83.62-1.79.62-2.87,0-1.51-.42-2.77-1.27-3.76" style="fill: #444;"/>
    <polyline points="674 575 674 574 663 574 663 564 673 564 673 575 674 575 674 574 674 575 675 575 675 562 661 562 661 576 675 576 675 575 674 575" style="fill: #ffa15a;"/>
    <path d="M751.93,572.12c-.84.05-1.83.12-2.97.22-1.14.1-2.04.24-2.7.42-.79.22-1.43.57-1.92,1.05-.49.47-.73,1.13-.73,1.96,0,.94.28,1.64.85,2.12.57.47,1.43.71,2.59.71.97,0,1.85-.19,2.65-.56.8-.38,1.54-.83,2.23-1.35v-4.56M863.49,572.12c-.84.05-1.83.12-2.97.22-1.14.1-2.04.24-2.7.42-.79.22-1.43.57-1.92,1.05-.49.47-.73,1.13-.73,1.96,0,.94.28,1.64.85,2.12.57.47,1.43.71,2.59.71.97,0,1.85-.19,2.65-.56.8-.38,1.54-.83,2.23-1.35v-4.56M698.39,570.11h-4.56v8.12h3.84c1.27,0,2.31-.07,3.12-.2.81-.13,1.47-.37,1.99-.72.55-.38.95-.82,1.2-1.3.25-.49.38-1.12.38-1.89,0-.88-.13-1.58-.4-2.09-.26-.52-.74-.96-1.44-1.32-.47-.24-1.04-.4-1.71-.48-.67-.07-1.48-.11-2.44-.11M766.57,566.4c-1.54,0-2.74.54-3.6,1.61-.86,1.07-1.29,2.6-1.29,4.57s.33,3.42,1,4.43c.66,1.01,1.73,1.52,3.19,1.52.78,0,1.57-.17,2.37-.52s1.55-.79,2.24-1.34v-9.39c-.74-.33-1.41-.56-1.99-.69-.59-.13-1.23-.19-1.92-.19M730.73,566.15c-1.47,0-2.65.43-3.52,1.3-.87.87-1.37,1.95-1.49,3.24h9.37c0-1.45-.37-2.56-1.09-3.35-.72-.79-1.81-1.19-3.27-1.19M842.29,566.15c-1.47,0-2.65.43-3.52,1.3-.87.87-1.37,1.95-1.49,3.24h9.37c0-1.45-.37-2.56-1.09-3.35-.72-.79-1.81-1.19-3.27-1.19M697.29,561.36h-3.46v6.3h3.75c.91,0,1.63-.05,2.17-.14.54-.09,1.04-.29,1.49-.58.46-.29.78-.67.97-1.14.19-.46.29-1.01.29-1.65,0-.53-.09-.97-.26-1.33-.18-.36-.46-.65-.85-.88-.46-.26-1.02-.43-1.67-.49-.65-.06-1.46-.1-2.43-.1M714.03,566.75c1.09-.88,2.06-1.5,2.89-1.87.84-.37,1.69-.55,2.56-.55.48,0,.83.01,1.04.04.21.03.54.07.97.14v2.83h-.15c-.41-.1-.81-.17-1.19-.21-.39-.04-.84-.07-1.37-.07-.85,0-1.67.19-2.46.56-.79.38-1.55.86-2.29,1.46v11.62h-2.75v-16.36h2.75v2.42M874.28,566.75c1.09-.88,2.06-1.5,2.89-1.87.83-.37,1.69-.55,2.56-.55.48,0,.83.01,1.04.04.21.03.54.07.97.14v2.83h-.15c-.41-.1-.81-.17-1.19-.21-.39-.04-.84-.07-1.37-.07-.85,0-1.67.19-2.46.56-.79.38-1.55.86-2.29,1.46v11.62h-2.75v-16.36h2.75v2.42M891.19,581.07c-1.18,0-2.27-.17-3.25-.52-.99-.35-1.83-.87-2.53-1.57-.71-.7-1.26-1.59-1.66-2.67-.39-1.07-.59-2.33-.59-3.76,0-2.68.73-4.78,2.2-6.3,1.47-1.52,3.41-2.29,5.82-2.29.94,0,1.86.13,2.76.4.9.26,1.73.59,2.48.97v3.06h-.15c-.84-.65-1.71-1.16-2.6-1.51-.89-.35-1.77-.53-2.61-.53-1.56,0-2.8.53-3.7,1.57-.9,1.05-1.36,2.59-1.36,4.62s.44,3.49,1.33,4.55c.88,1.06,2.13,1.59,3.73,1.59.56,0,1.12-.07,1.7-.22.58-.15,1.09-.34,1.55-.57.4-.21.78-.42,1.13-.65.35-.23.63-.43.83-.59h.15v3.03c-.92.44-1.79.78-2.61,1.03-.83.24-1.7.37-2.63.37M742.21,567.49v-2.8c.54-.15,1.31-.31,2.33-.48,1.02-.18,2.02-.26,3-.26,1.15,0,2.16.1,3.01.29.85.19,1.59.52,2.22.97.62.45,1.08,1.03,1.41,1.74.32.71.48,1.6.48,2.65v11.1h-2.74v-1.74c-.24.17-.57.4-.99.7-.42.3-.82.53-1.21.71-.46.22-.99.41-1.58.56-.6.15-1.29.23-2.09.23-1.47,0-2.72-.49-3.75-1.46s-1.54-2.22-1.54-3.74c0-1.24.27-2.24.8-3.01.53-.77,1.29-1.37,2.28-1.81,1-.44,2.19-.74,3.59-.89,1.4-.16,2.9-.27,4.5-.35v-.42c0-.62-.11-1.14-.33-1.55-.22-.41-.53-.73-.94-.97-.39-.22-.86-.38-1.41-.45-.55-.08-1.12-.12-1.71-.12-.72,0-1.53.1-2.42.29-.89.19-1.81.47-2.75.83h-.15M825.02,578.77c1.21,0,2.16-.2,2.84-.59.68-.39,1.03-1.01,1.03-1.85,0-.64-.19-1.13-.56-1.46-.37-.33-1.08-.62-2.14-.85-.39-.09-.9-.19-1.53-.31-.63-.12-1.2-.24-1.72-.38-1.44-.38-2.45-.94-3.05-1.68-.6-.74-.9-1.64-.9-2.72,0-.67.14-1.31.42-1.9.28-.6.7-1.13,1.27-1.6.55-.46,1.24-.82,2.09-1.09.84-.27,1.79-.4,2.83-.4.98,0,1.97.12,2.97.36,1,.24,1.83.53,2.5.87v2.94h-.15c-.7-.52-1.56-.95-2.56-1.31-1.01-.36-1.99-.53-2.96-.53s-1.86.19-2.55.58c-.69.39-1.04.96-1.04,1.72,0,.67.21,1.18.63,1.52.41.34,1.07.62,1.99.84.51.12,1.08.23,1.71.35.63.12,1.15.22,1.57.32,1.28.29,2.27.8,2.96,1.51.69.72,1.04,1.68,1.04,2.87,0,1.49-.62,2.72-1.85,3.68s-2.92,1.44-5.06,1.44c-1.21,0-2.32-.14-3.33-.43-1.01-.29-1.86-.6-2.54-.94v-3.09h.15c.87.65,1.84,1.17,2.9,1.56,1.06.39,2.09.58,3.06.58M853.78,567.49v-2.8c.54-.15,1.31-.31,2.33-.48,1.02-.18,2.02-.26,3-.26,1.15,0,2.16.1,3.01.29.85.19,1.59.52,2.22.97.62.45,1.08,1.03,1.41,1.74.32.71.48,1.6.48,2.65v11.1h-2.74v-1.74c-.24.17-.57.4-.99.7-.42.3-.82.53-1.21.71-.46.22-.99.41-1.58.56-.6.15-1.29.23-2.09.23-1.47,0-2.72-.49-3.75-1.46s-1.54-2.22-1.54-3.74c0-1.24.27-2.24.8-3.01.53-.77,1.29-1.37,2.28-1.81,1-.44,2.19-.74,3.59-.89,1.4-.16,2.9-.27,4.5-.35v-.42c0-.62-.11-1.14-.33-1.55-.22-.41-.53-.73-.94-.97-.39-.22-.86-.38-1.41-.45-.55-.08-1.12-.12-1.71-.12-.72,0-1.53.1-2.42.29-.89.19-1.81.47-2.75.83h-.15M731.56,581.08c-2.71,0-4.83-.73-6.36-2.21-1.52-1.47-2.29-3.56-2.29-6.26s.73-4.8,2.19-6.37c1.46-1.57,3.38-2.36,5.76-2.36,2.21,0,3.91.64,5.11,1.93,1.2,1.29,1.79,3.12,1.79,5.49v1.49h-12.06c0,1.01.15,1.88.45,2.63.3.75.72,1.36,1.25,1.84.51.47,1.11.82,1.81,1.05.7.23,1.47.35,2.31.35,1.11,0,2.23-.22,3.36-.67,1.13-.44,1.93-.88,2.41-1.31h.15v3c-.93.39-1.88.72-2.84.98-.97.26-1.98.4-3.05.4M843.13,581.08c-2.71,0-4.83-.73-6.36-2.21-1.52-1.47-2.29-3.56-2.29-6.26s.73-4.8,2.19-6.37c1.46-1.57,3.38-2.36,5.76-2.36,2.21,0,3.91.64,5.1,1.93,1.2,1.29,1.79,3.12,1.79,5.49v1.49h-12.06c0,1.01.15,1.88.45,2.63.3.75.72,1.36,1.25,1.84.51.47,1.11.82,1.81,1.05.7.23,1.47.35,2.31.35,1.11,0,2.23-.22,3.36-.67,1.13-.44,1.93-.88,2.41-1.31h.15v3c-.93.39-1.88.72-2.84.98-.97.26-1.98.4-3.05.4M661,576v-14h14v14h-14M776.86,566.65v-2.31h1.86v-4.7h2.75v4.7h5.68v2.31h-5.68v7.46c0,.86.02,1.53.06,2.01.04.48.18.94.41,1.36.21.39.51.68.89.86.38.18.95.27,1.72.27.45,0,.92-.07,1.41-.2.49-.13.84-.24,1.05-.33h.15v2.48c-.52.14-1.08.25-1.69.34-.61.09-1.15.13-1.63.13-1.67,0-2.94-.45-3.81-1.35-.87-.9-1.3-2.34-1.3-4.32v-8.7h-1.86M690.93,580.7v-21.81h6.46c1.59,0,2.78.06,3.57.18s1.55.36,2.27.73c.8.42,1.38.96,1.74,1.62.36.66.54,1.45.54,2.37,0,1.04-.26,1.92-.79,2.64-.53.73-1.23,1.31-2.11,1.75v.12c1.47.3,2.64.95,3.49,1.94.85.99,1.27,2.24,1.27,3.76,0,1.08-.21,2.04-.62,2.87-.41.83-.96,1.51-1.66,2.05-.82.64-1.72,1.1-2.7,1.38-.98.27-2.23.41-3.74.41h-7.73M770.49,565v-7.09h2.75v22.79h-2.75v-1.71c-.79.68-1.62,1.22-2.48,1.6-.86.38-1.79.57-2.8.57-1.95,0-3.5-.75-4.65-2.26-1.15-1.5-1.72-3.59-1.72-6.25,0-1.39.2-2.62.59-3.71.4-1.08.93-2.01,1.6-2.77.66-.74,1.44-1.31,2.32-1.7.88-.39,1.8-.59,2.75-.59.86,0,1.62.09,2.29.27.66.18,1.36.46,2.09.84M790.48,580.7v-22.79h2.75v8.25c.86-.71,1.75-1.27,2.67-1.67.92-.4,1.86-.6,2.83-.6,1.77,0,3.12.53,4.04,1.6.93,1.06,1.39,2.6,1.39,4.6v10.62h-2.75v-9.32c0-.75-.04-1.46-.13-2.12-.09-.66-.25-1.17-.48-1.54-.24-.41-.6-.71-1.05-.92-.46-.2-1.05-.3-1.79-.3s-1.54.19-2.36.56c-.82.37-1.61.84-2.36,1.42v12.22h-2.75M899.96,580.7v-22.79h2.75v8.25c.86-.71,1.75-1.27,2.67-1.67.92-.4,1.86-.6,2.83-.6,1.77,0,3.12.53,4.04,1.6.93,1.06,1.39,2.6,1.39,4.6v10.62h-2.75v-9.32c0-.75-.04-1.46-.13-2.12-.09-.66-.25-1.17-.48-1.54-.24-.41-.6-.71-1.05-.92-.46-.2-1.05-.3-1.79-.3s-1.54.19-2.36.56-1.61.84-2.36,1.42v12.22h-2.75M916.25,548h-268.25v42h268.25v-42" style="fill: #fff;"/>
    <path d="M719.48,564.34c-.87,0-1.72.18-2.56.55-.83.37-1.8.99-2.89,1.87v-2.42h-2.75v16.36h2.75v-11.62c.73-.6,1.49-1.08,2.29-1.46.79-.38,1.61-.56,2.46-.56.53,0,.98.02,1.37.07.39.05.78.12,1.19.21h.15v-2.83c-.43-.07-.75-.11-.97-.14-.21-.02-.56-.04-1.04-.04M879.73,564.34c-.87,0-1.72.18-2.56.55-.84.37-1.8.99-2.89,1.87v-2.42h-2.75v16.36h2.75v-11.62c.73-.6,1.49-1.08,2.29-1.46.79-.38,1.61-.56,2.46-.56.53,0,.98.02,1.37.07.39.05.78.12,1.19.21h.15v-2.83c-.43-.07-.75-.11-.97-.14-.21-.02-.56-.04-1.04-.04M891.19,563.96c-2.41,0-4.35.76-5.82,2.29-1.47,1.52-2.2,3.62-2.2,6.3,0,1.44.2,2.69.59,3.76.39,1.07.94,1.96,1.66,2.67.7.7,1.55,1.23,2.53,1.57.99.35,2.07.52,3.25.52.93,0,1.8-.12,2.63-.37.83-.24,1.7-.59,2.61-1.03v-3.03h-.15c-.21.17-.48.36-.83.59-.35.23-.73.45-1.13.65-.46.23-.98.42-1.55.57-.58.15-1.14.22-1.7.22-1.6,0-2.84-.53-3.73-1.59-.88-1.06-1.33-2.58-1.33-4.55s.45-3.57,1.36-4.62c.9-1.05,2.14-1.57,3.7-1.57.85,0,1.72.18,2.61.53.89.35,1.76.85,2.6,1.51h.15v-3.06c-.75-.38-1.58-.7-2.48-.97-.9-.26-1.82-.4-2.76-.4M747.05,578.59c-1.16,0-2.03-.24-2.59-.71-.57-.47-.85-1.18-.85-2.12,0-.83.24-1.48.73-1.96.49-.47,1.13-.82,1.92-1.05.66-.19,1.57-.33,2.7-.42,1.14-.1,2.13-.17,2.97-.22v4.56c-.68.53-1.43.98-2.23,1.35-.8.38-1.68.56-2.65.56M747.55,563.94c-.99,0-1.99.09-3,.26-1.02.18-1.79.34-2.33.48v2.8h.15c.95-.36,1.87-.64,2.75-.83.89-.19,1.69-.29,2.42-.29.6,0,1.17.04,1.71.12.55.08,1.02.23,1.41.45.41.23.72.56.94.97.22.41.33.93.33,1.55v.42c-1.6.08-3.1.2-4.5.35-1.4.16-2.59.45-3.59.89-.99.44-1.75,1.04-2.28,1.81-.53.77-.8,1.77-.8,3.01,0,1.51.51,2.76,1.54,3.74s2.28,1.46,3.75,1.46c.8,0,1.5-.08,2.09-.23.6-.15,1.12-.34,1.58-.56.39-.18.79-.41,1.21-.71.42-.3.74-.53.99-.7v1.74h2.74v-11.1c0-1.05-.16-1.94-.48-2.65-.32-.71-.79-1.29-1.41-1.74-.62-.46-1.36-.78-2.22-.97-.85-.19-1.86-.29-3.01-.29M825.59,563.94c-1.04,0-1.99.13-2.83.4-.84.27-1.54.63-2.09,1.09-.57.47-.99,1-1.27,1.6-.28.6-.42,1.23-.42,1.9,0,1.07.3,1.98.9,2.72.6.74,1.62,1.3,3.05,1.68.52.14,1.09.26,1.72.38.63.12,1.14.22,1.53.31,1.05.23,1.77.52,2.14.85.37.33.56.82.56,1.46,0,.84-.34,1.46-1.03,1.85-.68.39-1.63.59-2.84.59-.98,0-2-.19-3.06-.58-1.06-.39-2.03-.91-2.9-1.56h-.15v3.09c.68.34,1.53.66,2.54.94,1.01.29,2.12.43,3.33.43,2.14,0,3.83-.48,5.06-1.44s1.85-2.18,1.85-3.68c0-1.19-.35-2.15-1.04-2.87-.69-.71-1.68-1.22-2.96-1.51-.42-.1-.95-.21-1.57-.32-.63-.12-1.2-.23-1.71-.35-.92-.22-1.58-.49-1.99-.84-.42-.34-.63-.85-.63-1.52,0-.76.35-1.34,1.04-1.72.69-.39,1.54-.58,2.55-.58s1.95.18,2.96.53c1.01.36,1.86.79,2.56,1.31h.15v-2.94c-.66-.34-1.5-.63-2.5-.87-1-.24-1.99-.36-2.97-.36M858.61,578.59c-1.16,0-2.03-.24-2.59-.71-.57-.47-.85-1.18-.85-2.12,0-.83.24-1.48.73-1.96.49-.47,1.13-.82,1.92-1.05.66-.19,1.56-.33,2.7-.42,1.14-.1,2.13-.17,2.97-.22v4.56c-.68.53-1.43.98-2.23,1.35-.8.38-1.68.56-2.65.56M859.11,563.94c-.99,0-1.99.09-3,.26-1.02.18-1.79.34-2.33.48v2.8h.15c.95-.36,1.87-.64,2.75-.83.89-.19,1.69-.29,2.42-.29.6,0,1.17.04,1.71.12.55.08,1.02.23,1.41.45.41.23.73.56.94.97.22.41.33.93.33,1.55v.42c-1.6.08-3.1.2-4.5.35-1.4.16-2.59.45-3.59.89-.99.44-1.75,1.04-2.28,1.81-.53.77-.8,1.77-.8,3.01,0,1.51.51,2.76,1.54,3.74s2.28,1.46,3.75,1.46c.8,0,1.5-.08,2.09-.23.6-.15,1.12-.34,1.58-.56.39-.18.79-.41,1.21-.71.42-.3.74-.53.99-.7v1.74h2.74v-11.1c0-1.05-.16-1.94-.48-2.65-.32-.71-.79-1.29-1.41-1.74-.63-.46-1.36-.78-2.22-.97-.85-.19-1.86-.29-3.01-.29M725.72,570.7c.12-1.29.61-2.37,1.49-3.24.87-.87,2.05-1.3,3.52-1.3s2.56.4,3.27,1.19c.72.79,1.08,1.91,1.09,3.35h-9.37M730.88,563.88c-2.38,0-4.3.79-5.76,2.36-1.46,1.57-2.19,3.7-2.19,6.37s.76,4.79,2.29,6.26c1.52,1.47,3.64,2.21,6.36,2.21,1.06,0,2.08-.13,3.05-.4.97-.26,1.91-.59,2.84-.98v-3h-.15c-.48.43-1.28.87-2.41,1.31-1.13.44-2.25.67-3.36.67-.84,0-1.61-.12-2.31-.35-.7-.23-1.3-.59-1.81-1.05-.53-.48-.94-1.09-1.25-1.84-.3-.75-.45-1.62-.45-2.63h12.06v-1.49c0-2.37-.6-4.2-1.79-5.49-1.2-1.29-2.9-1.93-5.11-1.93M837.28,570.7c.12-1.29.61-2.37,1.49-3.24.87-.87,2.05-1.3,3.52-1.3s2.56.4,3.27,1.19c.72.79,1.08,1.91,1.09,3.35h-9.37M842.44,563.88c-2.38,0-4.3.79-5.76,2.36-1.46,1.57-2.19,3.7-2.19,6.37s.76,4.79,2.29,6.26c1.52,1.47,3.64,2.21,6.36,2.21,1.06,0,2.08-.13,3.05-.4.97-.26,1.91-.59,2.84-.98v-3h-.15c-.48.43-1.28.87-2.41,1.31-1.13.44-2.25.67-3.36.67-.84,0-1.61-.12-2.31-.35-.7-.23-1.3-.59-1.81-1.05-.53-.48-.94-1.09-1.25-1.84-.3-.75-.45-1.62-.45-2.63h12.06v-1.49c0-2.37-.6-4.2-1.79-5.49-1.2-1.29-2.9-1.93-5.1-1.93M781.47,559.64h-2.75v4.7h-1.86v2.31h1.86v8.7c0,1.98.43,3.42,1.3,4.32.87.9,2.14,1.35,3.81,1.35.48,0,1.02-.04,1.63-.13.61-.09,1.17-.2,1.69-.34v-2.48h-.15c-.21.09-.57.2-1.05.33-.49.13-.96.2-1.41.2-.77,0-1.35-.09-1.72-.27-.38-.18-.67-.47-.89-.86-.23-.42-.37-.87-.41-1.36-.04-.48-.06-1.15-.06-2.01v-7.46h5.68v-2.31h-5.68v-4.7M693.83,578.22v-8.12h4.56c.96,0,1.77.04,2.44.11.67.07,1.24.23,1.71.48.69.36,1.17.8,1.44,1.32.26.52.4,1.22.4,2.09,0,.77-.13,1.4-.38,1.89-.25.49-.65.92-1.2,1.3-.52.35-1.18.59-1.99.72-.81.13-1.85.2-3.12.2h-3.84M693.83,567.66v-6.3h3.46c.97,0,1.78.03,2.43.1.65.06,1.21.23,1.67.49.39.22.67.52.85.88.18.36.26.81.26,1.33,0,.63-.1,1.18-.29,1.65-.19.46-.52.84-.97,1.14-.46.29-.96.49-1.49.58-.54.09-1.26.14-2.17.14h-3.75M697.39,558.89h-6.46v21.81h7.73c1.51,0,2.76-.14,3.74-.41.98-.27,1.88-.73,2.7-1.38.69-.54,1.24-1.22,1.66-2.05.41-.83.62-1.79.62-2.87,0-1.51-.42-2.77-1.27-3.76-.85-.99-2.01-1.64-3.49-1.94v-.12c.88-.44,1.58-1.02,2.11-1.75.53-.73.79-1.61.79-2.64,0-.92-.18-1.71-.54-2.37-.36-.66-.94-1.2-1.74-1.62-.72-.37-1.48-.62-2.27-.73s-1.98-.18-3.57-.18M765.87,578.53c-1.46,0-2.53-.51-3.19-1.52-.66-1.01-1-2.49-1-4.43s.43-3.5,1.29-4.57c.86-1.07,2.06-1.61,3.6-1.61.69,0,1.33.06,1.92.19.59.13,1.25.36,1.99.69v9.39c-.69.55-1.44.99-2.24,1.34s-1.59.52-2.37.52M773.24,557.91h-2.75v7.09c-.73-.38-1.43-.66-2.09-.84-.66-.18-1.43-.27-2.29-.27-.95,0-1.86.2-2.75.59-.88.39-1.66.96-2.32,1.7-.67.76-1.21,1.68-1.6,2.77-.4,1.08-.59,2.32-.59,3.71,0,2.67.57,4.75,1.72,6.25,1.15,1.5,2.7,2.26,4.65,2.26,1.01,0,1.94-.19,2.8-.57.86-.38,1.68-.91,2.48-1.6v1.71h2.75v-22.79M793.23,557.91h-2.75v22.79h2.75v-12.22c.75-.58,1.54-1.05,2.36-1.42.82-.37,1.61-.56,2.36-.56s1.33.1,1.79.3c.46.2.81.51,1.05.92.23.37.4.89.48,1.54.09.66.13,1.37.13,2.12v9.32h2.75v-10.62c0-2-.46-3.54-1.39-4.6-.93-1.06-2.28-1.6-4.04-1.6-.97,0-1.91.2-2.83.6-.92.4-1.81.96-2.67,1.67v-8.25M902.72,557.91h-2.75v22.79h2.75v-12.22c.75-.58,1.54-1.05,2.36-1.42s1.61-.56,2.36-.56,1.33.1,1.79.3c.46.2.81.51,1.05.92.23.37.4.89.48,1.54.09.66.13,1.37.13,2.12v9.32h2.75v-10.62c0-2-.46-3.54-1.39-4.6-.93-1.06-2.28-1.6-4.04-1.6-.97,0-1.91.2-2.83.6-.92.4-1.81.96-2.67,1.67v-8.25" style="fill: #444;"/>
    <polyline points="673 564 663 564 663 574 673 574 673 564" style="fill: #ffd0ac;"/>
    <path d="M674,575h0v-1,1h1-1M663,574v-10h10v10h-10M675,562h-14v14h14v-14" style="fill: #ffa15a;"/>
  </g>
  <path d="M685.28,779.99c.14-1.55.74-2.84,1.78-3.88s2.46-1.56,4.23-1.56,3.07.47,3.93,1.42,1.3,2.29,1.31,4.03h-11.25ZM699.75,780.73c0-2.85-.72-5.04-2.15-6.59s-3.48-2.32-6.13-2.32c-2.86,0-5.17.94-6.92,2.83s-2.63,4.44-2.63,7.65.91,5.75,2.74,7.51,4.37,2.65,7.63,2.65c1.28,0,2.5-.16,3.66-.47s2.3-.71,3.41-1.18v-3.6h-.18c-.57.52-1.54,1.04-2.89,1.57s-2.7.8-4.03.8c-1.01,0-1.93-.14-2.77-.42s-1.56-.7-2.17-1.27c-.63-.57-1.13-1.31-1.49-2.21s-.54-1.95-.54-3.16h14.47v-1.79ZM679.32,788.85h-.18c-.26.11-.68.24-1.27.4s-1.15.24-1.69.24c-.93,0-1.61-.11-2.07-.33s-.81-.56-1.06-1.03c-.28-.5-.45-1.05-.49-1.63s-.07-1.39-.07-2.42v-8.95h6.82v-2.78h-6.82v-5.64h-3.3v5.64h-2.23v2.78h2.23v10.44c0,2.38.52,4.11,1.56,5.19s2.57,1.62,4.57,1.62c.57,0,1.23-.05,1.96-.16s1.41-.24,2.03-.4v-2.97ZM656.8,788.79c-.96.45-2.02.68-3.18.68-1.39,0-2.43-.28-3.11-.85s-1.02-1.42-1.02-2.54c0-1,.29-1.78.88-2.35s1.35-.99,2.3-1.26c.8-.22,1.88-.39,3.24-.51s2.55-.21,3.56-.26v5.47c-.82.63-1.71,1.17-2.67,1.63ZM662.76,778.68c0-1.27-.19-2.33-.58-3.18s-.95-1.55-1.69-2.09c-.75-.55-1.64-.94-2.66-1.17s-2.23-.34-3.61-.34c-1.18,0-2.38.11-3.6.32s-2.15.4-2.79.58v3.36h.18c1.14-.43,2.24-.76,3.3-.99s2.03-.34,2.9-.34c.71,0,1.4.05,2.06.14s1.22.28,1.69.54c.49.28.87.67,1.13,1.16s.4,1.11.4,1.86v.51c-1.92.09-3.72.23-5.4.42s-3.11.54-4.31,1.07c-1.18.53-2.09,1.25-2.73,2.17s-.96,2.12-.96,3.61c0,1.82.62,3.31,1.85,4.48s2.73,1.76,4.5,1.76c.96,0,1.8-.09,2.51-.27s1.35-.41,1.9-.68c.47-.21.95-.5,1.45-.85s.89-.64,1.19-.83v2.09h3.29v-13.32ZM645.03,772.58c-.52-.08-.9-.14-1.16-.17s-.67-.04-1.25-.04c-1.04,0-2.07.22-3.07.66s-2.16,1.19-3.47,2.24v-2.9h-3.3v19.63h3.3v-13.94c.88-.71,1.79-1.3,2.74-1.75s1.93-.68,2.95-.68c.63,0,1.18.03,1.64.08s.94.14,1.43.25h.18v-3.39ZM613.75,779.26c0-2.4-.56-4.24-1.67-5.52s-2.73-1.92-4.85-1.92c-1.16,0-2.29.24-3.39.72s-2.17,1.15-3.2,2v-2.18h-3.3v19.63h3.3v-14.66c.9-.69,1.85-1.26,2.83-1.71s1.93-.67,2.83-.67,1.59.12,2.14.36.97.61,1.27,1.1c.28.45.47,1.06.58,1.85s.16,1.64.16,2.54v11.18h3.3v-12.74ZM587.31,787.81c-1,1.26-2.38,1.89-4.14,1.89s-3.17-.64-4.17-1.91-1.49-3.14-1.49-5.6.5-4.43,1.49-5.67,2.38-1.85,4.17-1.85,3.15.62,4.15,1.85,1.49,3.13,1.49,5.67-.5,4.36-1.5,5.62ZM589.76,774.61c-1.64-1.86-3.84-2.79-6.59-2.79s-4.98.93-6.62,2.79-2.45,4.39-2.45,7.58.82,5.72,2.45,7.58,3.84,2.78,6.62,2.78,4.95-.93,6.59-2.78,2.46-4.38,2.46-7.58-.82-5.73-2.46-7.58ZM568.95,772.37h-3.3v19.63h3.3v-19.63ZM569.16,765.65h-3.73v3.43h3.73v-3.43ZM561.62,788.85h-.18c-.26.11-.68.24-1.27.4s-1.15.24-1.69.24c-.93,0-1.61-.11-2.07-.33s-.81-.56-1.06-1.03c-.28-.5-.45-1.05-.49-1.63s-.07-1.39-.07-2.42v-8.95h6.82v-2.78h-6.82v-5.64h-3.3v5.64h-2.23v2.78h2.23v10.44c0,2.38.52,4.11,1.56,5.19s2.57,1.62,4.57,1.62c.57,0,1.23-.05,1.96-.16s1.41-.24,2.03-.4v-2.97ZM539.1,788.79c-.96.45-2.02.68-3.18.68-1.39,0-2.43-.28-3.11-.85s-1.02-1.42-1.02-2.54c0-1,.29-1.78.88-2.35s1.35-.99,2.3-1.26c.8-.22,1.88-.39,3.24-.51s2.55-.21,3.56-.26v5.47c-.82.63-1.71,1.17-2.67,1.63ZM545.06,778.68c0-1.27-.19-2.33-.58-3.18s-.95-1.55-1.69-2.09c-.75-.55-1.64-.94-2.66-1.17s-2.23-.34-3.61-.34c-1.18,0-2.38.11-3.6.32s-2.15.4-2.79.58v3.36h.18c1.14-.43,2.24-.76,3.3-.99s2.03-.34,2.9-.34c.71,0,1.4.05,2.06.14s1.22.28,1.69.54c.49.28.87.67,1.13,1.16s.4,1.11.4,1.86v.51c-1.92.09-3.72.23-5.4.42s-3.11.54-4.31,1.07c-1.18.53-2.09,1.25-2.73,2.17s-.96,2.12-.96,3.61c0,1.82.62,3.31,1.85,4.48s2.73,1.76,4.5,1.76c.96,0,1.8-.09,2.51-.27s1.35-.41,1.9-.68c.47-.21.95-.5,1.45-.85s.89-.64,1.19-.83v2.09h3.29v-13.32ZM523.26,764.65h-3.3v27.35h3.3v-27.35ZM513.42,772.37h-3.3v14.66c-.88.69-1.83,1.26-2.84,1.71s-1.95.67-2.8.67c-.96,0-1.69-.12-2.2-.35s-.91-.61-1.23-1.12c-.3-.5-.5-1.11-.6-1.82s-.14-1.56-.14-2.56v-11.18h-3.3v12.74c0,2.44.57,4.29,1.72,5.55s2.75,1.89,4.82,1.89c1.23,0,2.36-.23,3.38-.7s2.09-1.14,3.2-2.02v2.18h3.3v-19.63ZM492.9,787.13h-.18c-.25.2-.58.44-1,.71s-.87.54-1.35.78c-.55.28-1.17.51-1.86.69s-1.37.26-2.04.26c-1.92,0-3.41-.64-4.47-1.91s-1.59-3.09-1.59-5.46.54-4.29,1.63-5.55,2.56-1.89,4.44-1.89c1.02,0,2.07.21,3.14.63s2.11,1.03,3.12,1.81h.18v-3.67c-.9-.46-1.9-.84-2.98-1.16s-2.19-.47-3.31-.47c-2.89,0-5.22.91-6.99,2.74s-2.65,4.35-2.65,7.56c0,1.72.23,3.23.7,4.52s1.13,2.36,1.99,3.2c.84.84,1.86,1.47,3.04,1.89s2.48.62,3.9.62c1.11,0,2.17-.15,3.16-.44s2.04-.7,3.14-1.23v-3.64ZM471.85,764.65h-3.3v27.35h3.3v-27.35ZM456.18,788.79c-.96.45-2.02.68-3.18.68-1.39,0-2.43-.28-3.11-.85s-1.02-1.42-1.02-2.54c0-1,.29-1.78.88-2.35s1.35-.99,2.3-1.26c.8-.22,1.88-.39,3.24-.51s2.55-.21,3.56-.26v5.47c-.82.63-1.71,1.17-2.67,1.63ZM462.14,778.68c0-1.27-.19-2.33-.58-3.18s-.95-1.55-1.69-2.09c-.75-.55-1.64-.94-2.66-1.17s-2.23-.34-3.61-.34c-1.18,0-2.38.11-3.6.32s-2.15.4-2.79.58v3.36h.18c1.14-.43,2.24-.76,3.3-.99s2.03-.34,2.9-.34c.71,0,1.4.05,2.06.14s1.22.28,1.69.54c.49.28.87.67,1.13,1.16s.4,1.11.4,1.86v.51c-1.92.09-3.72.23-5.4.42s-3.11.54-4.31,1.07c-1.18.53-2.09,1.25-2.73,2.17s-.96,2.12-.96,3.61c0,1.82.62,3.31,1.85,4.48s2.73,1.76,4.5,1.76c.96,0,1.8-.09,2.51-.27s1.35-.41,1.9-.68c.47-.21.95-.5,1.45-.85s.89-.64,1.19-.83v2.09h3.29v-13.32ZM442.23,786.02h-.25c-1.28,1.15-2.65,2.01-4.11,2.58s-3.04.86-4.71.86c-1.22,0-2.38-.21-3.47-.62s-2.05-1.06-2.87-1.92c-.79-.83-1.43-1.91-1.92-3.23s-.75-2.91-.75-4.75.23-3.31.68-4.65,1.08-2.45,1.89-3.33c.83-.9,1.78-1.57,2.84-2s2.25-.64,3.58-.64c1.62,0,3.13.28,4.55.83s2.85,1.43,4.29,2.64h.26v-4.13c-1.71-.86-3.27-1.45-4.67-1.79s-2.8-.51-4.21-.51c-1.92,0-3.67.3-5.25.9s-2.92,1.46-4.03,2.6c-1.15,1.17-2.03,2.61-2.64,4.31s-.91,3.63-.91,5.78c0,2.27.32,4.27.95,5.99s1.51,3.13,2.64,4.25c1.15,1.14,2.5,1.97,4.05,2.5s3.28.8,5.18.8c1.01,0,1.93-.08,2.77-.24s1.61-.35,2.33-.57c.84-.27,1.53-.53,2.05-.77s1.1-.51,1.75-.79v-4.08Z" style="fill: #444;"/>
  <path d="M8.65,218.74v3.3h27.35v-3.3H8.65ZM8.65,228.62v3.3h27.35v-3.3H8.65ZM32.79,244.29c.45.96.68,2.02.68,3.18,0,1.39-.28,2.43-.85,3.11s-1.42,1.02-2.54,1.02c-1,0-1.78-.29-2.35-.88s-.99-1.35-1.26-2.3c-.22-.8-.39-1.88-.51-3.24s-.21-2.55-.26-3.56h5.47c.63.82,1.17,1.71,1.63,2.67ZM22.68,238.33c-1.27,0-2.33.19-3.18.58s-1.55.95-2.09,1.69c-.55.75-.94,1.64-1.17,2.66s-.34,2.23-.34,3.61c0,1.18.11,2.38.32,3.6s.4,2.15.58,2.79h3.36v-.18c-.43-1.14-.76-2.24-.99-3.3s-.34-2.03-.34-2.9c0-.71.05-1.4.14-2.06s.28-1.22.54-1.69c.28-.49.67-.87,1.16-1.13s1.11-.4,1.86-.4h.51c.09,1.92.23,3.72.42,5.4s.54,3.11,1.07,4.31c.53,1.18,1.25,2.09,2.17,2.73s2.12.96,3.61.96c1.82,0,3.31-.62,4.48-1.85s1.76-2.73,1.76-4.5c0-.96-.09-1.8-.27-2.51s-.41-1.35-.68-1.9c-.21-.47-.5-.95-.85-1.45s-.64-.89-.83-1.19h2.09v-3.29h-13.32ZM31.13,257.82v.18c.2.25.44.58.71,1s.54.87.78,1.35c.28.55.51,1.17.69,1.86s.26,1.37.26,2.04c0,1.92-.64,3.41-1.91,4.47s-3.09,1.59-5.46,1.59-4.29-.54-5.55-1.63-1.89-2.56-1.89-4.44c0-1.02.21-2.07.63-3.14s1.03-2.11,1.81-3.12v-.18h-3.67c-.46.9-.84,1.9-1.16,2.98s-.47,2.19-.47,3.31c0,2.89.91,5.22,2.74,6.99s4.35,2.65,7.56,2.65c1.72,0,3.23-.23,4.52-.7s2.36-1.13,3.2-1.99c.84-.84,1.47-1.86,1.89-3.04s.62-2.48.62-3.9c0-1.11-.15-2.17-.44-3.16s-.7-2.04-1.23-3.14h-3.64ZM23.99,291.82c-1.55-.14-2.84-.74-3.88-1.78s-1.56-2.46-1.56-4.23.47-3.07,1.42-3.93,2.29-1.3,4.03-1.31v11.25ZM24.73,277.35c-2.85,0-5.04.72-6.59,2.15s-2.32,3.48-2.32,6.13c0,2.86.94,5.17,2.83,6.92s4.44,2.63,7.65,2.63,5.75-.91,7.51-2.74,2.65-4.37,2.65-7.63c0-1.28-.16-2.5-.47-3.66s-.71-2.3-1.18-3.41h-3.6v.18c.52.57,1.04,1.54,1.57,2.89s.8,2.7.8,4.03c0,1.01-.14,1.93-.42,2.77s-.7,1.56-1.27,2.17c-.57.63-1.31,1.13-2.21,1.49s-1.95.54-3.16.54v-14.47h-1.79ZM16.58,296.9c-.08.52-.14.9-.17,1.16s-.04.67-.04,1.25c0,1.04.22,2.07.66,3.07s1.19,2.16,2.24,3.47h-2.9v3.3h19.63v-3.3h-13.94c-.71-.88-1.3-1.79-1.75-2.74s-.68-1.93-.68-2.95c0-.63.03-1.18.08-1.64s.14-.94.25-1.43v-.18h-3.39ZM23.26,328.17c-2.4,0-4.24.56-5.52,1.67s-1.92,2.73-1.92,4.85c0,1.16.24,2.29.72,3.39s1.15,2.17,2,3.2h-2.18v3.3h19.63v-3.3h-14.66c-.69-.9-1.26-1.85-1.71-2.83s-.67-1.93-.67-2.83.12-1.59.36-2.14.61-.97,1.1-1.27c.45-.28,1.06-.47,1.85-.58s1.64-.16,2.54-.16h11.18v-3.3h-12.74ZM31.81,354.61c1.26,1,1.89,2.38,1.89,4.14s-.64,3.17-1.91,4.17-3.14,1.49-5.6,1.49-4.43-.5-5.67-1.49-1.85-2.38-1.85-4.17.62-3.15,1.85-4.15,3.13-1.49,5.67-1.49,4.36.5,5.62,1.5ZM18.61,352.16c-1.86,1.64-2.79,3.84-2.79,6.59s.93,4.98,2.79,6.62,4.39,2.45,7.58,2.45,5.72-.82,7.58-2.45,2.78-3.84,2.78-6.62-.93-4.95-2.78-6.59-4.38-2.46-7.58-2.46-5.73.82-7.58,2.46ZM16.37,372.97v3.3h19.63v-3.3h-19.63ZM9.65,372.76v3.73h3.43v-3.73h-3.43ZM32.85,380.3v.18c.11.26.24.68.4,1.27s.24,1.15.24,1.69c0,.93-.11,1.61-.33,2.07s-.56.81-1.03,1.06c-.5.28-1.05.45-1.63.49s-1.39.07-2.42.07h-8.95v-6.82h-2.78v6.82h-5.64v3.3h5.64v2.23h2.78v-2.23h10.44c2.38,0,4.11-.52,5.19-1.56s1.62-2.57,1.62-4.57c0-.57-.05-1.23-.16-1.96s-.24-1.41-.4-2.03h-2.97ZM31.13,394.74v.18c.2.25.44.58.71,1s.54.87.78,1.35c.28.55.51,1.17.69,1.86s.26,1.37.26,2.04c0,1.92-.64,3.41-1.91,4.47s-3.09,1.59-5.46,1.59-4.29-.54-5.55-1.63-1.89-2.56-1.89-4.44c0-1.02.21-2.07.63-3.14s1.03-2.11,1.81-3.12v-.18h-3.67c-.46.9-.84,1.9-1.16,2.98s-.47,2.19-.47,3.31c0,2.89.91,5.22,2.74,6.99s4.35,2.65,7.56,2.65c1.72,0,3.23-.23,4.52-.7s2.36-1.13,3.2-1.99c.84-.84,1.47-1.86,1.89-3.04s.62-2.48.62-3.9c0-1.11-.15-2.17-.44-3.16s-.7-2.04-1.23-3.14h-3.64ZM23.99,428.73c-1.55-.14-2.84-.74-3.88-1.78s-1.56-2.46-1.56-4.23.47-3.07,1.42-3.93,2.29-1.3,4.03-1.31v11.25ZM24.73,414.27c-2.85,0-5.04.72-6.59,2.15s-2.32,3.48-2.32,6.13c0,2.86.94,5.17,2.83,6.92s4.44,2.63,7.65,2.63,5.75-.91,7.51-2.74,2.65-4.37,2.65-7.63c0-1.28-.16-2.5-.47-3.66s-.71-2.3-1.18-3.41h-3.6v.18c.52.57,1.04,1.54,1.57,2.89s.8,2.7.8,4.03c0,1.01-.14,1.93-.42,2.77s-.7,1.56-1.27,2.17c-.57.63-1.31,1.13-2.21,1.49s-1.95.54-3.16.54v-14.47h-1.79ZM8.82,432.79c-.09.49-.18,1.03-.25,1.63s-.11,1.26-.11,2c0,2.19.62,3.87,1.87,5.03s3.04,1.74,5.37,1.74h.65v2.23h2.78v-2.23h16.86v-3.3h-16.86v-5.85h-2.78v5.96h-.67c-1.64,0-2.77-.32-3.4-.96s-.94-1.67-.94-3.08c0-.45.06-.96.17-1.55s.22-1.06.33-1.42v-.18h-3.02ZM23.26,449.72c-2.4,0-4.24.56-5.52,1.67s-1.92,2.73-1.92,4.85c0,1.16.24,2.29.72,3.39s1.15,2.17,2,3.2h-2.18v3.3h19.63v-3.3h-14.66c-.69-.9-1.26-1.85-1.71-2.83s-.67-1.93-.67-2.83.12-1.59.36-2.14.61-.97,1.1-1.27c.45-.28,1.06-.47,1.85-.58s1.64-.16,2.54-.16h11.18v-3.3h-12.74ZM33.33,471.8v3.43H12.5v-3.43h-2.67v10.34h2.67v-3.43h20.83v3.43h2.67v-10.34h-2.67Z" style="fill: #444;"/>
</svg>