<?xml version="1.0" encoding="UTF-8"?>
<svg id="Layer_1" data-name="Layer 1" xmlns="http://www.w3.org/2000/svg" width="1000" height="800" xmlns:xlink="http://www.w3.org/1999/xlink" viewBox="0 0 1000 800">
  <defs>
    <clipPath id="clippath">
      <rect x="120" width="880" height="700" style="fill: none;"/>
    </clipPath>
    <clipPath id="clippath-1">
      <rect x="648" y="494" width="287" height="136" style="fill: none;"/>
    </clipPath>
    <clipPath id="clippath-2">
      <rect x="738.39" y="509.44" width="188.04" height="22.71" style="fill: none;"/>
    </clipPath>
    <clipPath id="clippath-3">
      <rect x="740.94" y="551.5" width="90.87" height="22.59" style="fill: none;"/>
    </clipPath>
    <clipPath id="clippath-4">
      <rect x="738.39" y="593.5" width="180.59" height="22.65" style="fill: none;"/>
    </clipPath>
  </defs>
  <polyline points="0 0 1000 0 1000 800 0 800 0 0" style="fill: #fff;"/>
  <polyline points="317.24 0 317.24 700 318.24 700 318.24 0" style="fill: #eee;"/>
  <polyline points="469.27 0 469.27 700 470.27 700 470.27 0" style="fill: #eee;"/>
  <polyline points="621.29 0 621.29 700 622.29 700 622.29 0" style="fill: #eee;"/>
  <polyline points="773.31 0 773.31 700 774.31 700 774.31 0 773.31 0" style="fill: #eee;"/>
  <polyline points="925.34 0 925.34 700 926.34 700 926.34 0 925.34 0" style="fill: #eee;"/>
  <polyline points="120 601.66 1000 601.66 1000 600.66 120 600.66 120 601.66" style="fill: #eee;"/>
  <polyline points="120 529.97 1000 529.97 1000 528.97 120 528.97 120 529.97" style="fill: #eee;"/>
  <polyline points="120 458.29 1000 458.29 1000 457.29 120 457.29" style="fill: #eee;"/>
  <polyline points="120 386.61 1000 386.61 1000 385.61 120 385.61" style="fill: #eee;"/>
  <polyline points="120 314.92 1000 314.92 1000 313.92 120 313.92" style="fill: #eee;"/>
  <polyline points="120 243.24 1000 243.24 1000 242.24 120 242.24" style="fill: #eee;"/>
  <polyline points="120 171.56 1000 171.56 1000 170.56 120 170.56" style="fill: #eee;"/>
  <polyline points="120 99.88 1000 99.88 1000 98.88 120 98.88" style="fill: #eee;"/>
  <polyline points="120 28.19 1000 28.19 1000 27.19 120 27.19" style="fill: #eee;"/>
  <polyline points="165.22 0 165.22 700 166.22 700 166.22 0" style="fill: #444;"/>
  <polyline points="120 673.34 1000 673.34 1000 672.34 120 672.34" style="fill: #444;"/>
  <g style="clip-path: url(#clippath);">
    <g>
      <circle cx="182.2" cy="552.38" r="4" style="fill: #00cc96;"/>
      <circle cx="197.3" cy="522.94" r="4" style="fill: #00cc96;"/>
      <circle cx="232.4" cy="389.31" r="4" style="fill: #00cc96;"/>
      <circle cx="243.61" cy="354.34" r="4" style="fill: #00cc96;"/>
      <circle cx="291.94" cy="295.42" r="4" style="fill: #00cc96;"/>
      <circle cx="374.69" cy="225.77" r="4" style="fill: #00cc96;"/>
      <circle cx="461.56" cy="175.99" r="4" style="fill: #00cc96;"/>
      <circle cx="589.7" cy="98.38" r="4" style="fill: #00cc96;"/>
      <circle cx="699.97" cy="80.46" r="4" style="fill: #00cc96;"/>
      <polygon points="183.98 553.29 199.18 523.66 234.32 389.87 245.4 355.31 293.37 296.83 375.84 227.42 462.57 177.71 590.4 100.29 700.29 82.43 699.65 78.49 589 96.47 460.55 174.27 373.54 224.12 290.51 294.01 241.82 353.37 230.48 388.75 195.42 522.22 180.42 551.47 183.98 553.29" style="fill: #00cc96;"/>
      <circle cx="169" cy="660" r="4" style="fill: #ff6692;"/>
      <circle cx="210.22" cy="574.12" r="4" style="fill: #ff6692;"/>
      <circle cx="252.65" cy="504.2" r="4" style="fill: #ff6692;"/>
      <circle cx="280.8" cy="453.02" r="4" style="fill: #ff6692;"/>
      <circle cx="321.52" cy="410.64" r="4" style="fill: #ff6692;"/>
      <circle cx="357.63" cy="374.17" r="4" style="fill: #ff6692;"/>
      <circle cx="398.1" cy="348.83" r="4" style="fill: #ff6692;"/>
      <circle cx="439.01" cy="321.7" r="4" style="fill: #ff6692;"/>
      <circle cx="478.64" cy="293.78" r="4" style="fill: #ff6692;"/>
      <circle cx="512.13" cy="273.77" r="4" style="fill: #ff6692;"/>
      <circle cx="554.09" cy="254.51" r="4" style="fill: #ff6692;"/>
      <circle cx="753.12" cy="176.84" r="4" style="fill: #ff6692;"/>
      <circle cx="951" cy="138.56" r="4" style="fill: #ff6692;"/>
      <polygon points="170.8 660.87 211.98 575.07 254.38 505.2 282.43 454.22 322.95 412.04 358.89 375.74 399.18 350.51 440.14 323.35 479.73 295.46 513.06 275.54 554.87 256.35 753.68 178.77 951.38 140.52 950.62 136.6 752.56 174.91 553.31 252.67 511.2 272 477.55 292.1 437.88 320.05 397.02 347.15 356.37 372.6 320.09 409.24 279.17 451.82 250.92 503.2 208.46 573.17 167.2 659.13 170.8 660.87" style="fill: #ff6692;"/>
      <circle cx="173.32" cy="581.4" r="4" style="fill: gray;"/>
      <circle cx="241.73" cy="260.97" r="4" style="fill: gray;"/>
      <circle cx="317.74" cy="185.49" r="4" style="fill: gray;"/>
      <circle cx="393.76" cy="123.24" r="4" style="fill: gray;"/>
      <circle cx="469.77" cy="96.12" r="4" style="fill: gray;"/>
      <circle cx="545.78" cy="82.45" r="4" style="fill: gray;"/>
      <circle cx="621.79" cy="64.55" r="4" style="fill: gray;"/>
      <circle cx="697.8" cy="53.76" r="4" style="fill: gray;"/>
      <circle cx="773.81" cy="42.47" r="4" style="fill: gray;"/>
      <circle cx="849.83" cy="40" r="4" style="fill: gray;"/>
      <path d="M835.18,42.48l11.99-.39-.13-4-11.99.39.13,4ZM811.19,43.26l11.99-.39-.13-4-11.99.39.13,4ZM787.2,44.04l11.99-.39-.13-4-11.99.39.13,4ZM763.54,45.98l10.44-1.52,1.22-.04-.13-4-1.45.05-10.66,1.55.57,3.96s.01,0,.01,0ZM739.79,49.43l11.88-1.72-.57-3.96-11.88,1.72.57,3.96ZM716.04,52.88l11.88-1.72-.57-3.96-11.88,1.72.57,3.96ZM692.29,56.33l11.88-1.72-.57-3.96-11.88,1.72.57,3.96ZM668.54,59.78l11.88-1.72-.57-3.96-11.88,1.72.57,3.96ZM644.79,63.23l11.88-1.72-.57-3.96-11.88,1.72.57,3.96ZM621.23,66.74l.94-.22,10.75-1.56-.57-3.96-10.92,1.59-1.11.26.92,3.89h-.01ZM597.87,72.24l11.68-2.75-.92-3.89-11.68,2.75.92,3.89ZM574.51,77.74l11.68-2.75-.92-3.89-11.68,2.75.92,3.89ZM551.14,83.24l11.68-2.75-.92-3.89-11.68,2.75.92,3.89ZM527.47,87.77l11.81-2.12-.71-3.94-11.81,2.12.71,3.94ZM503.85,92.02l11.81-2.12-.71-3.94-11.81,2.12.71,3.94ZM480.23,96.27l11.81-2.12-.71-3.94-11.81,2.12.71,3.94ZM457.51,102.62l11.3-4.03-1.34-3.77-11.3,4.03,1.34,3.77ZM434.91,110.68l11.3-4.03-1.34-3.77-11.3,4.03,1.34,3.77ZM412.3,118.75l11.3-4.03-1.34-3.77-11.3,4.03,1.34,3.77ZM391.14,127.97l3.62-2.97,6.24-2.23-1.34-3.77-6.89,2.46-4.16,3.4,2.53,3.09v.02h0ZM372.57,143.18l9.28-7.6-2.53-3.09-9.28,7.6,2.53,3.09ZM354,158.38l9.28-7.6-2.53-3.09-9.28,7.6,2.53,3.09ZM335.43,173.59l9.28-7.6-2.53-3.09-9.28,7.6,2.53,3.09ZM317.18,188.86l1.9-1.89,7.07-5.79-2.53-3.09-7.21,5.91-2.03,2.02,2.82,2.84h-.02ZM300.15,205.77l8.51-8.46-2.82-2.84-8.51,8.46,2.82,2.84ZM283.12,222.68l8.51-8.46-2.82-2.84-8.51,8.46,2.82,2.84ZM266.09,239.6l8.51-8.46-2.82-2.84-8.51,8.46,2.82,2.84ZM249.06,256.51l8.51-8.46-2.82-2.84-8.51,8.46,2.82,2.84h0ZM240.42,276.69l2.51-11.74-3.91-.84-2.51,11.74,3.91.84ZM235.41,300.16l2.51-11.74-3.91-.84-2.51,11.74,3.91.84ZM230.4,323.64l2.51-11.74-3.91-.84-2.51,11.74,3.91.84ZM225.39,347.11l2.51-11.74-3.91-.84-2.51,11.74,3.91.84ZM220.37,370.58l2.51-11.74-3.91-.84-2.51,11.74,3.91.84ZM215.36,394.05l2.51-11.74-3.91-.84-2.51,11.74,3.91.84ZM210.35,417.52l2.51-11.74-3.91-.84-2.51,11.74,3.91.84ZM205.34,440.99l2.51-11.74-3.91-.84-2.51,11.74,3.91.84ZM200.33,464.46l2.51-11.74-3.91-.84-2.51,11.74,3.91.84ZM195.32,487.93l2.51-11.74-3.91-.84-2.51,11.74,3.91.84ZM190.31,511.4l2.51-11.74-3.91-.84-2.51,11.74,3.91.84ZM185.3,534.88l2.51-11.74-3.91-.84-2.51,11.74,3.91.84ZM180.29,558.35l2.51-11.74-3.91-.84-2.51,11.74,3.91.84ZM175.28,581.82l2.51-11.74-3.91-.84-2.51,11.74,3.91.84Z" style="fill: gray;"/>
    </g>
  </g>
  <path d="M173.28,720.09c0,3.92-.61,6.79-1.84,8.62s-3.13,2.75-5.71,2.75-4.53-.93-5.73-2.78c-1.21-1.86-1.81-4.71-1.81-8.55s.61-6.74,1.83-8.59,3.12-2.78,5.71-2.78,4.53.94,5.73,2.82c1.21,1.88,1.81,4.72,1.81,8.52h0ZM169.43,726.74c.34-.79.57-1.72.7-2.79.12-1.07.18-2.36.18-3.86s-.06-2.77-.18-3.87-.36-2.02-.71-2.78c-.34-.75-.81-1.32-1.4-1.7s-1.35-.57-2.28-.57-1.68.19-2.28.57-1.08.96-1.43,1.73c-.33.72-.56,1.67-.68,2.83-.12,1.16-.18,2.44-.18,3.82,0,1.52.05,2.8.16,3.82s.34,1.94.69,2.75c.32.76.78,1.34,1.37,1.74s1.38.6,2.35.6c.92,0,1.68-.19,2.29-.57s1.07-.96,1.41-1.73h-.01Z" style="fill: #444;"/>
  <g>
    <path d="M300.77,720.09c0,3.92-.61,6.79-1.84,8.62s-3.13,2.75-5.71,2.75-4.53-.93-5.73-2.78c-1.21-1.86-1.81-4.71-1.81-8.55s.61-6.74,1.83-8.59,3.12-2.78,5.71-2.78,4.53.94,5.73,2.82c1.21,1.88,1.81,4.72,1.81,8.52h.01ZM296.92,726.74c.34-.79.57-1.72.7-2.79.12-1.07.18-2.36.18-3.86s-.06-2.77-.18-3.87-.36-2.02-.71-2.78c-.34-.75-.81-1.32-1.4-1.7s-1.35-.57-2.28-.57-1.68.19-2.28.57-1.08.96-1.43,1.73c-.33.72-.56,1.67-.68,2.83-.12,1.16-.18,2.44-.18,3.82,0,1.52.05,2.8.16,3.82s.34,1.94.69,2.75c.32.76.78,1.34,1.37,1.74s1.38.6,2.35.6c.92,0,1.68-.19,2.29-.57s1.07-.96,1.41-1.73h-.01Z" style="fill: #444;"/>
    <path d="M309.95,731h-3.5v-4.17h3.5v4.17Z" style="fill: #444;"/>
    <path d="M330.75,720.09c0,3.92-.61,6.79-1.84,8.62s-3.13,2.75-5.71,2.75-4.53-.93-5.73-2.78c-1.21-1.86-1.81-4.71-1.81-8.55s.61-6.74,1.83-8.59,3.12-2.78,5.71-2.78,4.53.94,5.73,2.82c1.21,1.88,1.81,4.72,1.81,8.52h.01ZM326.9,726.74c.34-.79.57-1.72.7-2.79.12-1.07.18-2.36.18-3.86s-.06-2.77-.18-3.87-.36-2.02-.71-2.78c-.34-.75-.81-1.32-1.4-1.7s-1.35-.57-2.28-.57-1.68.19-2.28.57-1.08.96-1.43,1.73c-.33.72-.56,1.67-.68,2.83-.12,1.16-.18,2.44-.18,3.82,0,1.52.05,2.8.16,3.82s.34,1.94.69,2.75c.32.76.78,1.34,1.37,1.74s1.38.6,2.35.6c.92,0,1.68-.19,2.29-.57s1.07-.96,1.41-1.73h-.01Z" style="fill: #444;"/>
    <path d="M349.86,731h-14.77v-3.06c1.03-.88,2.05-1.76,3.08-2.64s1.99-1.75,2.88-2.62c1.88-1.82,3.16-3.26,3.85-4.33s1.04-2.22,1.04-3.46c0-1.13-.37-2.02-1.12-2.66-.75-.64-1.79-.96-3.13-.96-.89,0-1.85.16-2.89.47s-2.05.79-3.03,1.44h-.15v-3.08c.69-.34,1.62-.65,2.78-.94,1.16-.28,2.28-.42,3.36-.42,2.24,0,3.99.54,5.26,1.62s1.9,2.54,1.9,4.39c0,.83-.11,1.6-.31,2.32-.21.72-.52,1.4-.93,2.04-.38.61-.83,1.2-1.34,1.79-.51.59-1.13,1.24-1.87,1.95-1.04,1.03-2.12,2.02-3.24,2.98s-2.15,1.85-3.12,2.67h11.73v2.5h.02,0Z" style="fill: #444;"/>
  </g>
  <g>
    <path d="M452.8,720.09c0,3.92-.61,6.79-1.84,8.62s-3.13,2.75-5.71,2.75-4.53-.93-5.73-2.78c-1.21-1.86-1.81-4.71-1.81-8.55s.61-6.74,1.83-8.59,3.12-2.78,5.71-2.78,4.53.94,5.73,2.82c1.21,1.88,1.81,4.72,1.81,8.52h.01ZM448.95,726.74c.34-.79.57-1.72.7-2.79.12-1.07.18-2.36.18-3.86s-.06-2.77-.18-3.87-.36-2.02-.71-2.78c-.34-.75-.81-1.32-1.4-1.7s-1.35-.57-2.28-.57-1.68.19-2.28.57-1.08.96-1.43,1.73c-.33.72-.56,1.67-.68,2.83-.12,1.16-.18,2.44-.18,3.82,0,1.52.05,2.8.16,3.82s.34,1.94.69,2.75c.32.76.78,1.34,1.37,1.74s1.38.6,2.35.6c.92,0,1.68-.19,2.29-.57s1.07-.96,1.41-1.73h-.01Z" style="fill: #444;"/>
    <path d="M461.98,731h-3.5v-4.17h3.5v4.17Z" style="fill: #444;"/>
    <path d="M482.79,720.09c0,3.92-.61,6.79-1.84,8.62s-3.13,2.75-5.71,2.75-4.53-.93-5.73-2.78c-1.21-1.86-1.81-4.71-1.81-8.55s.61-6.74,1.83-8.59,3.12-2.78,5.71-2.78,4.53.94,5.73,2.82c1.21,1.88,1.81,4.72,1.81,8.52h.01ZM478.93,726.74c.34-.79.57-1.72.7-2.79.12-1.07.18-2.36.18-3.86s-.06-2.77-.18-3.87-.36-2.02-.71-2.78c-.34-.75-.81-1.32-1.4-1.7s-1.35-.57-2.28-.57-1.68.19-2.28.57-1.08.96-1.43,1.73c-.33.72-.56,1.67-.68,2.83-.12,1.16-.18,2.44-.18,3.82,0,1.52.05,2.8.16,3.82s.34,1.94.69,2.75c.32.76.78,1.34,1.37,1.74s1.38.6,2.35.6c.92,0,1.68-.19,2.29-.57s1.07-.96,1.41-1.73h-.01Z" style="fill: #444;"/>
    <path d="M502.38,724.86h-3.24v6.14h-2.81v-6.14h-10.44v-3.37l10.56-12.3h2.7v13.33h3.24v2.34h-.01ZM496.33,722.52v-9.84l-8.45,9.84h8.45Z" style="fill: #444;"/>
  </g>
  <g>
    <path d="M604.82,720.09c0,3.92-.61,6.79-1.84,8.62-1.22,1.83-3.13,2.75-5.71,2.75s-4.53-.93-5.73-2.78c-1.21-1.86-1.81-4.71-1.81-8.55s.61-6.74,1.83-8.59,3.12-2.78,5.71-2.78,4.53.94,5.73,2.82c1.21,1.88,1.81,4.72,1.81,8.52h.01ZM600.97,726.74c.34-.79.57-1.72.7-2.79.12-1.07.18-2.36.18-3.86s-.06-2.77-.18-3.87c-.12-1.09-.36-2.02-.71-2.78-.34-.75-.81-1.32-1.4-1.7s-1.35-.57-2.28-.57-1.68.19-2.28.57c-.6.38-1.08.96-1.43,1.73-.33.72-.56,1.67-.68,2.83-.12,1.16-.18,2.44-.18,3.82,0,1.52.05,2.8.16,3.82s.34,1.94.69,2.75c.32.76.78,1.34,1.37,1.74.59.4,1.38.6,2.35.6.92,0,1.68-.19,2.29-.57s1.07-.96,1.41-1.73h0Z" style="fill: #444;"/>
    <path d="M614,731h-3.5v-4.17h3.5v4.17Z" style="fill: #444;"/>
    <path d="M634.8,720.09c0,3.92-.61,6.79-1.84,8.62-1.23,1.83-3.13,2.75-5.71,2.75s-4.53-.93-5.73-2.78c-1.21-1.86-1.81-4.71-1.81-8.55s.61-6.74,1.83-8.59,3.12-2.78,5.71-2.78,4.53.94,5.73,2.82c1.21,1.88,1.81,4.72,1.81,8.52h.01ZM630.95,726.74c.34-.79.57-1.72.7-2.79.12-1.07.18-2.36.18-3.86s-.06-2.77-.18-3.87c-.12-1.09-.36-2.02-.71-2.78-.34-.75-.81-1.32-1.4-1.7s-1.35-.57-2.28-.57-1.68.19-2.28.57c-.6.38-1.08.96-1.43,1.73-.33.72-.56,1.67-.68,2.83-.12,1.16-.18,2.44-.18,3.82,0,1.52.05,2.8.16,3.82s.34,1.94.69,2.75c.32.76.78,1.34,1.37,1.74.59.4,1.38.6,2.35.6.92,0,1.68-.19,2.29-.57s1.07-.96,1.41-1.73h0Z" style="fill: #444;"/>
    <path d="M654.23,723.92c0,2.22-.73,4.03-2.19,5.43-1.46,1.4-3.25,2.1-5.37,2.1-1.07,0-2.05-.17-2.93-.5s-1.65-.83-2.33-1.48c-.84-.81-1.49-1.88-1.94-3.22-.45-1.34-.68-2.95-.68-4.83s.21-3.65.62-5.14,1.08-2.82,1.98-3.98c.86-1.1,1.97-1.96,3.33-2.58s2.94-.93,4.75-.93c.58,0,1.06.02,1.45.07s.79.14,1.19.26v2.8h-.15c-.27-.15-.69-.29-1.24-.42s-1.12-.2-1.69-.2c-2.1,0-3.78.66-5.03,1.97s-1.98,3.09-2.18,5.33c.82-.5,1.63-.88,2.42-1.14s1.72-.39,2.76-.39c.93,0,1.74.09,2.45.26s1.43.51,2.18,1.03c.86.6,1.51,1.35,1.94,2.26.43.91.65,2.01.65,3.31h.01ZM651.26,724.04c0-.91-.13-1.66-.4-2.26-.27-.6-.71-1.11-1.33-1.55-.45-.31-.95-.52-1.49-.62s-1.12-.15-1.71-.15c-.83,0-1.6.1-2.31.29s-1.45.5-2.2.91c-.02.21-.03.42-.04.62,0,.2-.02.45-.02.75,0,1.54.16,2.76.48,3.66.32.89.75,1.6,1.31,2.12.45.43.94.75,1.46.94.52.2,1.09.3,1.71.3,1.42,0,2.53-.43,3.34-1.3.81-.86,1.22-2.11,1.22-3.73l-.02.02h0Z" style="fill: #444;"/>
  </g>
  <g>
    <path d="M756.84,720.09c0,3.92-.61,6.79-1.84,8.62-1.23,1.83-3.13,2.75-5.71,2.75s-4.53-.93-5.73-2.78c-1.21-1.86-1.81-4.71-1.81-8.55s.61-6.74,1.83-8.59,3.12-2.78,5.71-2.78,4.53.94,5.73,2.82c1.21,1.88,1.81,4.72,1.81,8.52h.01ZM752.99,726.74c.34-.79.57-1.72.7-2.79.12-1.07.18-2.36.18-3.86s-.06-2.77-.18-3.87-.36-2.02-.71-2.78c-.34-.75-.81-1.32-1.4-1.7s-1.35-.57-2.28-.57-1.68.19-2.28.57c-.6.38-1.08.96-1.43,1.73-.33.72-.56,1.67-.68,2.83-.12,1.16-.18,2.44-.18,3.82,0,1.52.05,2.8.16,3.82s.34,1.94.69,2.75c.32.76.78,1.34,1.37,1.74s1.38.6,2.35.6c.92,0,1.68-.19,2.29-.57s1.07-.96,1.41-1.73h0Z" style="fill: #444;"/>
    <path d="M766.02,731h-3.5v-4.17h3.5v4.17Z" style="fill: #444;"/>
    <path d="M786.83,720.09c0,3.92-.61,6.79-1.84,8.62-1.23,1.83-3.13,2.75-5.71,2.75s-4.53-.93-5.73-2.78c-1.21-1.86-1.81-4.71-1.81-8.55s.61-6.74,1.83-8.59,3.12-2.78,5.71-2.78,4.53.94,5.73,2.82c1.21,1.88,1.81,4.72,1.81,8.52h.01ZM782.97,726.74c.34-.79.57-1.72.7-2.79.12-1.07.18-2.36.18-3.86s-.06-2.77-.18-3.87-.36-2.02-.71-2.78c-.34-.75-.81-1.32-1.4-1.7s-1.35-.57-2.28-.57-1.68.19-2.28.57c-.6.38-1.08.96-1.43,1.73-.33.72-.56,1.67-.68,2.83-.12,1.16-.18,2.44-.18,3.82,0,1.52.05,2.8.16,3.82s.34,1.94.69,2.75c.32.76.78,1.34,1.37,1.74s1.38.6,2.35.6c.92,0,1.68-.19,2.29-.57s1.07-.96,1.41-1.73h0Z" style="fill: #444;"/>
    <path d="M806.09,724.92c0,1.88-.74,3.45-2.21,4.7s-3.32,1.88-5.54,1.88c-2.36,0-4.25-.61-5.65-1.83s-2.1-2.78-2.1-4.69c0-1.21.35-2.31,1.05-3.29s1.69-1.76,2.97-2.34v-.09c-1.17-.62-2.04-1.31-2.6-2.05s-.84-1.67-.84-2.78c0-1.64.67-3.01,2.02-4.1s3.06-1.64,5.14-1.64,3.92.52,5.21,1.57,1.95,2.37,1.95,3.98c0,.99-.31,1.96-.92,2.91-.62.95-1.52,1.7-2.71,2.23v.09c1.37.59,2.41,1.31,3.13,2.17s1.08,1.95,1.08,3.28h.02,0ZM803.07,725.2c0-.9-.2-1.62-.59-2.16s-1.17-1.09-2.32-1.63c-.46-.21-.96-.42-1.51-.6s-1.27-.44-2.18-.78c-.88.48-1.58,1.13-2.12,1.95-.53.82-.8,1.75-.8,2.78,0,1.32.45,2.41,1.36,3.27s2.06,1.29,3.46,1.29,2.57-.37,3.42-1.1,1.28-1.74,1.28-3.02h0ZM802.62,714.27c0-1.04-.4-1.88-1.21-2.5s-1.83-.93-3.08-.93-2.24.29-3.03.88-1.18,1.38-1.18,2.37c0,.7.2,1.31.59,1.82.4.51.99.97,1.79,1.37.36.18.88.41,1.56.69s1.34.52,1.98.7c.97-.64,1.64-1.31,2.01-2.01s.56-1.49.56-2.4h.01Z" style="fill: #444;"/>
  </g>
  <g>
    <path d="M918.41,720.09c0,3.92-.61,6.79-1.84,8.62-1.22,1.83-3.13,2.75-5.71,2.75s-4.53-.93-5.73-2.78c-1.21-1.86-1.81-4.71-1.81-8.55s.61-6.74,1.83-8.59,3.12-2.78,5.71-2.78,4.53.94,5.73,2.82c1.21,1.88,1.81,4.72,1.81,8.52h.01ZM914.55,726.74c.34-.79.57-1.72.7-2.79.12-1.07.18-2.36.18-3.86s-.06-2.77-.18-3.87c-.12-1.09-.36-2.02-.71-2.78-.34-.75-.81-1.32-1.4-1.7s-1.35-.57-2.28-.57-1.68.19-2.28.57c-.6.38-1.08.96-1.43,1.73-.33.72-.56,1.67-.68,2.83-.12,1.16-.18,2.44-.18,3.82,0,1.52.05,2.8.16,3.82s.34,1.94.69,2.75c.32.76.78,1.34,1.37,1.74.59.4,1.38.6,2.35.6.92,0,1.68-.19,2.29-.57s1.07-.96,1.41-1.73h0Z" style="fill: #444;"/>
    <path d="M927.59,731h-3.5v-4.17h3.5v4.17Z" style="fill: #444;"/>
    <path d="M947.18,731h-11.81v-2.23h4.54v-14.62h-4.54v-1.99c.62,0,1.27-.05,1.98-.15.7-.1,1.24-.25,1.6-.45.45-.24.8-.55,1.06-.93s.41-.88.45-1.52h2.27v19.66h4.45v2.23h0Z" style="fill: #444;"/>
  </g>
  <path d="M117.02,672.43c0,3.92-.61,6.79-1.84,8.62-1.23,1.83-3.13,2.75-5.71,2.75s-4.53-.93-5.73-2.78c-1.21-1.86-1.81-4.71-1.81-8.55s.61-6.74,1.83-8.59,3.12-2.78,5.71-2.78,4.53.94,5.73,2.82c1.21,1.88,1.81,4.72,1.81,8.52h0ZM113.17,679.08c.34-.79.57-1.72.7-2.79.12-1.07.18-2.36.18-3.86s-.06-2.77-.18-3.87-.36-2.02-.71-2.78c-.34-.75-.81-1.32-1.4-1.7s-1.35-.57-2.28-.57-1.68.19-2.28.57-1.08.96-1.43,1.73c-.33.72-.56,1.67-.68,2.83-.12,1.16-.18,2.44-.18,3.82,0,1.52.05,2.8.16,3.82s.34,1.94.69,2.75c.32.76.78,1.34,1.37,1.74s1.38.6,2.35.6c.92,0,1.68-.19,2.29-.57s1.07-.96,1.41-1.73h-.01Z" style="fill: #444;"/>
  <g>
    <path d="M87.04,600.75c0,3.92-.61,6.79-1.84,8.62-1.23,1.83-3.13,2.75-5.71,2.75s-4.53-.93-5.73-2.78c-1.21-1.86-1.81-4.71-1.81-8.55s.61-6.74,1.83-8.59,3.12-2.78,5.71-2.78,4.53.94,5.73,2.82c1.21,1.88,1.81,4.72,1.81,8.52h0ZM83.18,607.4c.34-.79.57-1.72.7-2.79.12-1.07.18-2.36.18-3.86s-.06-2.77-.18-3.87-.36-2.02-.71-2.78c-.34-.75-.81-1.32-1.4-1.7s-1.35-.57-2.28-.57-1.68.19-2.28.57-1.08.96-1.43,1.73c-.33.72-.56,1.67-.68,2.83-.12,1.16-.18,2.44-.18,3.82,0,1.52.05,2.8.16,3.82s.34,1.94.69,2.75c.32.76.78,1.34,1.37,1.74s1.38.6,2.35.6c.92,0,1.68-.19,2.29-.57s1.07-.96,1.41-1.73h-.01Z" style="fill: #444;"/>
    <path d="M96.22,611.66h-3.5v-4.17h3.5v4.17Z" style="fill: #444;"/>
    <path d="M115.81,611.66h-11.81v-2.23h4.54v-14.62h-4.54v-1.99c.62,0,1.27-.05,1.98-.15.7-.1,1.24-.25,1.6-.45.45-.24.8-.55,1.06-.93.26-.38.41-.88.45-1.52h2.27v19.66h4.45v2.23h0Z" style="fill: #444;"/>
  </g>
  <g>
    <path d="M87.04,529.06c0,3.92-.61,6.79-1.84,8.62-1.23,1.83-3.13,2.75-5.71,2.75s-4.53-.93-5.73-2.78c-1.21-1.86-1.81-4.71-1.81-8.55s.61-6.74,1.83-8.59c1.22-1.85,3.12-2.78,5.71-2.78s4.53.94,5.73,2.82,1.81,4.72,1.81,8.52h0ZM83.18,535.71c.34-.79.57-1.72.7-2.79.12-1.07.18-2.36.18-3.86s-.06-2.77-.18-3.87-.36-2.02-.71-2.78c-.34-.75-.81-1.32-1.4-1.7s-1.35-.57-2.28-.57-1.68.19-2.28.57-1.08.96-1.43,1.73c-.33.72-.56,1.67-.68,2.83-.12,1.16-.18,2.44-.18,3.82,0,1.52.05,2.8.16,3.82s.34,1.94.69,2.75c.32.76.78,1.34,1.37,1.74s1.38.6,2.35.6c.92,0,1.68-.19,2.29-.57s1.07-.96,1.41-1.73h-.01Z" style="fill: #444;"/>
    <path d="M96.22,539.97h-3.5v-4.17h3.5v4.17Z" style="fill: #444;"/>
    <path d="M117.05,539.97h-14.77v-3.06c1.03-.88,2.05-1.76,3.08-2.64s1.99-1.75,2.88-2.62c1.88-1.82,3.16-3.26,3.85-4.33.69-1.07,1.04-2.22,1.04-3.46,0-1.13-.37-2.02-1.12-2.66-.75-.64-1.79-.96-3.13-.96-.89,0-1.85.16-2.89.47s-2.05.79-3.03,1.44h-.15v-3.08c.69-.34,1.62-.65,2.78-.94,1.16-.28,2.28-.42,3.36-.42,2.24,0,3.99.54,5.26,1.62,1.27,1.08,1.9,2.54,1.9,4.39,0,.83-.11,1.6-.31,2.32-.21.72-.52,1.4-.93,2.04-.38.61-.83,1.2-1.34,1.79-.51.59-1.13,1.24-1.87,1.95-1.04,1.03-2.12,2.02-3.24,2.98-1.11.96-2.15,1.85-3.12,2.67h11.73v2.5h.02Z" style="fill: #444;"/>
  </g>
  <g>
    <path d="M87.04,457.38c0,3.92-.61,6.79-1.84,8.62-1.23,1.83-3.13,2.75-5.71,2.75s-4.53-.93-5.73-2.78c-1.21-1.86-1.81-4.71-1.81-8.55s.61-6.74,1.83-8.59,3.12-2.78,5.71-2.78,4.53.94,5.73,2.82,1.81,4.72,1.81,8.52h0ZM83.18,464.03c.34-.79.57-1.72.7-2.79.12-1.07.18-2.36.18-3.86s-.06-2.77-.18-3.87-.36-2.02-.71-2.78c-.34-.75-.81-1.32-1.4-1.7s-1.35-.57-2.28-.57-1.68.19-2.28.57-1.08.96-1.43,1.73c-.33.72-.56,1.67-.68,2.83-.12,1.16-.18,2.44-.18,3.82,0,1.52.05,2.8.16,3.82s.34,1.94.69,2.75c.32.76.78,1.34,1.37,1.74s1.38.6,2.35.6c.92,0,1.68-.19,2.29-.57s1.07-.96,1.41-1.73h-.01Z" style="fill: #444;"/>
    <path d="M96.22,468.29h-3.5v-4.17h3.5v4.17Z" style="fill: #444;"/>
    <path d="M115.13,457.79c.47.42.85.95,1.16,1.58s.45,1.46.45,2.46-.18,1.91-.54,2.74-.87,1.55-1.52,2.17c-.73.68-1.59,1.19-2.58,1.52-.99.33-2.08.49-3.26.49s-2.4-.14-3.57-.43c-1.17-.29-2.13-.6-2.89-.95v-3.06h.22c.83.55,1.81,1,2.93,1.36s2.21.54,3.25.54c.62,0,1.27-.1,1.96-.31s1.25-.51,1.68-.91c.45-.43.78-.9,1-1.42.22-.52.33-1.17.33-1.96s-.12-1.43-.37-1.94-.59-.92-1.03-1.21c-.44-.3-.97-.51-1.6-.62-.62-.11-1.3-.17-2.02-.17h-1.32v-2.43h1.03c1.48,0,2.67-.31,3.55-.93s1.33-1.53,1.33-2.72c0-.53-.11-.99-.34-1.38-.22-.4-.54-.72-.94-.97-.42-.25-.87-.43-1.35-.53s-1.02-.15-1.63-.15c-.93,0-1.91.17-2.96.5s-2.03.8-2.96,1.41h-.15v-3.06c.69-.34,1.62-.66,2.78-.94,1.16-.29,2.28-.43,3.36-.43s2,.1,2.81.29,1.54.51,2.2.94c.7.47,1.24,1.04,1.6,1.7s.54,1.44.54,2.33c0,1.21-.43,2.27-1.28,3.17s-1.86,1.47-3.02,1.71v.21c.47.08,1.01.24,1.61.49.61.25,1.12.56,1.54.93v-.02h0Z" style="fill: #444;"/>
  </g>
  <g>
    <path d="M87.04,385.7c0,3.92-.61,6.79-1.84,8.62s-3.13,2.75-5.71,2.75-4.53-.93-5.73-2.78c-1.21-1.86-1.81-4.71-1.81-8.55s.61-6.74,1.83-8.59,3.12-2.78,5.71-2.78,4.53.94,5.73,2.82,1.81,4.72,1.81,8.52h0ZM83.18,392.35c.34-.79.57-1.72.7-2.79s.18-2.36.18-3.86-.06-2.77-.18-3.87-.36-2.02-.71-2.78c-.34-.75-.81-1.32-1.4-1.7s-1.35-.57-2.28-.57-1.68.19-2.28.57-1.08.96-1.43,1.73c-.33.72-.56,1.67-.68,2.83-.12,1.16-.18,2.44-.18,3.82,0,1.52.05,2.8.16,3.82s.34,1.94.69,2.75c.32.76.78,1.34,1.37,1.74s1.38.6,2.35.6c.92,0,1.68-.19,2.29-.57s1.07-.96,1.41-1.73h-.01Z" style="fill: #444;"/>
    <path d="M96.22,396.61h-3.5v-4.17h3.5v4.17Z" style="fill: #444;"/>
    <path d="M117.55,390.47h-3.24v6.14h-2.81v-6.14h-10.44v-3.37l10.56-12.3h2.7v13.33h3.24v2.34h0ZM111.5,388.13v-9.84l-8.45,9.84h8.45Z" style="fill: #444;"/>
  </g>
  <g>
    <path d="M87.04,314.01c0,3.92-.61,6.79-1.84,8.62s-3.13,2.75-5.71,2.75-4.53-.93-5.73-2.78c-1.21-1.86-1.81-4.71-1.81-8.55s.61-6.74,1.83-8.59,3.12-2.78,5.71-2.78,4.53.94,5.73,2.82,1.81,4.72,1.81,8.52h0ZM83.18,320.66c.34-.79.57-1.72.7-2.79s.18-2.36.18-3.86-.06-2.77-.18-3.87-.36-2.02-.71-2.78c-.34-.75-.81-1.32-1.4-1.7s-1.35-.57-2.28-.57-1.68.19-2.28.57-1.08.96-1.43,1.73c-.33.72-.56,1.67-.68,2.83-.12,1.16-.18,2.44-.18,3.82,0,1.52.05,2.8.16,3.82s.34,1.94.69,2.75c.32.76.78,1.34,1.37,1.74s1.38.6,2.35.6c.92,0,1.68-.19,2.29-.57s1.07-.96,1.41-1.73h-.01Z" style="fill: #444;"/>
    <path d="M96.22,324.92h-3.5v-4.17h3.5v4.17Z" style="fill: #444;"/>
    <path d="M116.88,317.99c0,1.02-.19,1.99-.56,2.92s-.88,1.71-1.52,2.34c-.7.68-1.54,1.21-2.51,1.57s-2.1.55-3.38.55c-1.19,0-2.34-.12-3.44-.37s-2.04-.55-2.8-.9v-3.09h.21c.8.51,1.74.94,2.81,1.3s2.13.53,3.16.53c.69,0,1.36-.1,2.01-.29.65-.2,1.23-.54,1.74-1.03.43-.42.75-.92.97-1.51s.33-1.26.33-2.04-.13-1.39-.39-1.9-.62-.93-1.08-1.25c-.51-.37-1.13-.63-1.85-.78s-1.54-.23-2.44-.23-1.69.06-2.48.18-1.48.23-2.06.35v-11.24h13.12v2.56h-10.3v5.8c.42-.04.85-.07,1.29-.09s.82-.03,1.14-.03c1.18,0,2.22.1,3.11.3s1.7.55,2.45,1.06c.78.54,1.39,1.23,1.82,2.08s.64,1.91.64,3.19v.02h.01Z" style="fill: #444;"/>
  </g>
  <g>
    <path d="M87.04,242.33c0,3.92-.61,6.79-1.84,8.62s-3.13,2.75-5.71,2.75-4.53-.93-5.73-2.78c-1.21-1.86-1.81-4.71-1.81-8.55s.61-6.74,1.83-8.59,3.12-2.78,5.71-2.78,4.53.94,5.73,2.82,1.81,4.72,1.81,8.52h0ZM83.18,248.98c.34-.79.57-1.72.7-2.79s.18-2.36.18-3.86-.06-2.77-.18-3.87-.36-2.02-.71-2.78c-.34-.75-.81-1.32-1.4-1.7s-1.35-.57-2.28-.57-1.68.19-2.28.57-1.08.96-1.43,1.73c-.33.72-.56,1.67-.68,2.83s-.18,2.44-.18,3.82c0,1.52.05,2.8.16,3.82s.34,1.94.69,2.75c.32.76.78,1.34,1.37,1.74s1.38.6,2.35.6c.92,0,1.68-.19,2.29-.57s1.07-.96,1.41-1.73h-.01Z" style="fill: #444;"/>
    <path d="M96.22,253.24h-3.5v-4.17h3.5v4.17Z" style="fill: #444;"/>
    <path d="M117.37,246.17c0,2.22-.73,4.03-2.19,5.43s-3.25,2.1-5.37,2.1c-1.07,0-2.05-.17-2.93-.5s-1.66-.83-2.33-1.48c-.84-.81-1.49-1.88-1.94-3.22-.45-1.34-.68-2.95-.68-4.83s.21-3.65.62-5.14,1.08-2.82,1.99-3.98c.86-1.1,1.97-1.97,3.33-2.59s2.94-.93,4.75-.93c.58,0,1.06.02,1.45.07s.79.14,1.19.26v2.8h-.15c-.27-.15-.69-.29-1.24-.42s-1.12-.2-1.69-.2c-2.1,0-3.77.66-5.02,1.97s-1.98,3.09-2.18,5.32c.82-.5,1.63-.88,2.42-1.14s1.72-.39,2.76-.39c.93,0,1.75.09,2.45.26s1.43.52,2.18,1.03c.86.6,1.51,1.35,1.94,2.26.43.91.65,2.01.65,3.31h0ZM114.4,246.28c0-.91-.13-1.66-.4-2.26-.27-.6-.71-1.11-1.33-1.55-.45-.31-.95-.52-1.49-.62s-1.12-.15-1.71-.15c-.83,0-1.6.1-2.31.29s-1.45.5-2.2.91c-.02.21-.03.42-.04.62s-.01.45-.01.75c0,1.54.16,2.76.48,3.65s.75,1.6,1.31,2.12c.45.43.93.74,1.46.94.52.2,1.09.3,1.71.3,1.42,0,2.53-.43,3.34-1.3s1.22-2.11,1.22-3.73l-.03.03Z" style="fill: #444;"/>
  </g>
  <g>
    <path d="M87.04,170.65c0,3.92-.61,6.79-1.84,8.62s-3.13,2.75-5.71,2.75-4.53-.93-5.73-2.78c-1.21-1.86-1.81-4.71-1.81-8.55s.61-6.74,1.83-8.59,3.12-2.78,5.71-2.78,4.53.94,5.73,2.82,1.81,4.72,1.81,8.52h0ZM83.18,177.3c.34-.79.57-1.72.7-2.79s.18-2.36.18-3.86-.06-2.77-.18-3.87-.36-2.02-.71-2.78c-.34-.75-.81-1.32-1.4-1.7s-1.35-.57-2.28-.57-1.68.19-2.28.57-1.08.96-1.43,1.73c-.33.72-.56,1.67-.68,2.83s-.18,2.44-.18,3.82c0,1.52.05,2.8.16,3.82s.34,1.94.69,2.75c.32.76.78,1.34,1.37,1.74s1.38.6,2.35.6c.92,0,1.68-.19,2.29-.57s1.07-.96,1.41-1.73h-.01Z" style="fill: #444;"/>
    <path d="M96.22,181.56h-3.5v-4.17h3.5v4.17Z" style="fill: #444;"/>
    <path d="M117.11,163.01l-9.87,18.54h-3.13l10.5-19.25h-12.42v-2.56h14.93v3.27h-.01Z" style="fill: #444;"/>
  </g>
  <g>
    <path d="M87.04,98.97c0,3.92-.61,6.79-1.84,8.62s-3.13,2.75-5.71,2.75-4.53-.93-5.73-2.78c-1.21-1.86-1.81-4.71-1.81-8.55s.61-6.74,1.83-8.59,3.12-2.78,5.71-2.78,4.53.94,5.73,2.82,1.81,4.72,1.81,8.52h0ZM83.18,105.62c.34-.79.57-1.72.7-2.79s.18-2.36.18-3.86-.06-2.77-.18-3.87-.36-2.02-.71-2.78c-.34-.75-.81-1.32-1.4-1.7s-1.35-.57-2.28-.57-1.68.19-2.28.57-1.08.96-1.43,1.73c-.33.72-.56,1.67-.68,2.83s-.18,2.44-.18,3.82c0,1.52.05,2.8.16,3.82s.34,1.94.69,2.75c.32.76.78,1.34,1.37,1.74s1.38.6,2.35.6c.92,0,1.68-.19,2.29-.57s1.07-.96,1.41-1.73h-.01Z" style="fill: #444;"/>
    <path d="M96.22,109.88h-3.5v-4.17h3.5v4.17Z" style="fill: #444;"/>
    <path d="M117.21,103.8c0,1.88-.74,3.45-2.21,4.7s-3.32,1.88-5.54,1.88c-2.36,0-4.25-.61-5.65-1.83s-2.1-2.78-2.1-4.69c0-1.21.35-2.31,1.05-3.29s1.69-1.76,2.97-2.34v-.09c-1.17-.62-2.04-1.31-2.6-2.05s-.84-1.67-.84-2.78c0-1.64.67-3.01,2.02-4.1s3.06-1.64,5.14-1.64,3.92.52,5.21,1.57,1.95,2.37,1.95,3.98c0,.99-.31,1.96-.92,2.91s-1.52,1.7-2.71,2.23v.09c1.37.59,2.41,1.31,3.13,2.17s1.08,1.95,1.08,3.28h.02ZM114.2,104.08c0-.9-.2-1.62-.59-2.16s-1.17-1.09-2.32-1.63c-.46-.21-.96-.42-1.51-.6s-1.27-.44-2.18-.78c-.88.48-1.58,1.13-2.12,1.95-.53.82-.8,1.75-.8,2.78,0,1.32.45,2.41,1.36,3.27s2.06,1.29,3.46,1.29,2.57-.37,3.42-1.1c.85-.73,1.28-1.74,1.28-3.02ZM113.74,93.15c0-1.04-.4-1.88-1.21-2.5s-1.83-.93-3.08-.93-2.24.29-3.03.88-1.18,1.38-1.18,2.37c0,.7.2,1.31.59,1.82.4.51.99.97,1.79,1.37.36.18.88.41,1.56.69s1.34.52,1.98.7c.97-.64,1.64-1.31,2.01-2.01s.56-1.49.56-2.4h.01Z" style="fill: #444;"/>
  </g>
  <g>
    <path d="M87.04,27.28c0,3.92-.61,6.79-1.84,8.62s-3.13,2.75-5.71,2.75-4.53-.93-5.73-2.78c-1.21-1.86-1.81-4.71-1.81-8.55s.61-6.74,1.83-8.59,3.12-2.78,5.71-2.78,4.53.94,5.73,2.82,1.81,4.72,1.81,8.52h0ZM83.18,33.93c.34-.79.57-1.72.7-2.79s.18-2.36.18-3.86-.06-2.77-.18-3.87-.36-2.02-.71-2.78c-.34-.75-.81-1.32-1.4-1.7s-1.35-.57-2.28-.57-1.68.19-2.28.57-1.08.96-1.43,1.73c-.33.72-.56,1.67-.68,2.83s-.18,2.44-.18,3.82c0,1.52.05,2.8.16,3.82s.34,1.94.69,2.75c.32.76.78,1.34,1.37,1.74s1.38.6,2.35.6c.92,0,1.68-.19,2.29-.57s1.07-.96,1.41-1.73h-.01Z" style="fill: #444;"/>
    <path d="M96.22,38.19h-3.5v-4.17h3.5v4.17Z" style="fill: #444;"/>
    <path d="M117.02,25.97c0,1.9-.22,3.63-.65,5.19-.44,1.55-1.09,2.88-1.97,3.97-.89,1.11-2,1.97-3.34,2.58s-2.91.91-4.72.91c-.51,0-.99-.03-1.44-.08s-.85-.14-1.2-.26v-2.8h.15c.28.15.68.29,1.2.42s1.09.2,1.73.2c2.16,0,3.85-.65,5.08-1.94,1.22-1.29,1.94-3.08,2.13-5.35-.91.55-1.76.94-2.56,1.17s-1.67.35-2.62.35c-.9,0-1.71-.09-2.44-.26s-1.46-.52-2.19-1.03c-.86-.6-1.51-1.35-1.94-2.27s-.65-2.02-.65-3.3c0-2.23.73-4.04,2.2-5.43s3.25-2.09,5.36-2.09c1.05,0,2.03.16,2.93.49s1.68.82,2.36,1.47c.83.81,1.47,1.85,1.92,3.13s.67,2.92.67,4.94h0ZM114.06,25.34c0-1.51-.16-2.73-.47-3.65s-.74-1.63-1.29-2.14c-.46-.44-.95-.75-1.48-.94s-1.1-.29-1.71-.29c-1.41,0-2.52.44-3.33,1.32s-1.22,2.11-1.22,3.71c0,.93.13,1.68.4,2.27s.71,1.1,1.33,1.54c.44.3.92.51,1.45.61s1.11.15,1.76.15c.76,0,1.53-.1,2.31-.31s1.51-.5,2.2-.89c0-.21.02-.41.04-.61.02-.2.02-.46.02-.77h0Z" style="fill: #444;"/>
  </g>
  <polyline points="648 494 935 494 935 630 648 630 648 494" style="fill: #fff;"/>
  <g style="clip-path: url(#clippath-1);">
    <g>
      <g>
        <path d="M758.13,531.7h-3.09l-2.14-6.08h-9.43l-2.14,6.08h-2.94l7.94-21.81h3.87l7.94,21.81h0ZM752,523.13l-3.82-10.71-3.84,10.71h7.66Z" style="fill: #444;"/>
        <path d="M778.08,531.7h-3.59l-10.34-19.51v19.51h-2.71v-21.81h4.5l9.43,17.81v-17.81h2.71v21.81h0Z" style="fill: #444;"/>
        <path d="M802.31,520.82c0,1.98-.43,3.78-1.3,5.39-.86,1.61-2.01,2.86-3.45,3.75-1,.62-2.11,1.06-3.33,1.33-1.23.27-2.84.41-4.84.41h-5.51v-21.81h5.45c2.13,0,3.82.15,5.08.46,1.25.31,2.32.73,3.19,1.27,1.48.93,2.64,2.16,3.47,3.71s1.25,3.37,1.25,5.49h0ZM799.27,520.77c0-1.71-.3-3.15-.89-4.32s-1.48-2.09-2.67-2.77c-.86-.49-1.77-.83-2.74-1.02s-2.12-.29-3.47-.29h-2.72v16.83h2.72c1.4,0,2.62-.1,3.65-.31,1.04-.21,2-.59,2.86-1.14,1.08-.69,1.9-1.61,2.44-2.74s.81-2.55.81-4.25h0Z" style="fill: #444;"/>
        <path d="M833.8,512.39c.89.98,1.57,2.17,2.04,3.59s.71,3.02.71,4.82-.24,3.41-.72,4.83c-.48,1.42-1.16,2.6-2.03,3.55-.9.99-1.96,1.73-3.19,2.23s-2.62.75-4.2.75-2.93-.25-4.18-.76c-1.26-.51-2.32-1.25-3.2-2.21s-1.56-2.15-2.03-3.56-.71-3.01-.71-4.82.23-3.37.7-4.78,1.15-2.62,2.05-3.63c.86-.96,1.93-1.69,3.2-2.2,1.28-.51,2.66-.76,4.17-.76s2.97.26,4.21.77c1.25.51,2.3,1.24,3.17,2.19h.01ZM833.54,520.8c0-2.83-.63-5.02-1.9-6.56s-3-2.31-5.2-2.31-3.96.77-5.22,2.31c-1.27,1.54-1.9,3.72-1.9,6.56s.64,5.05,1.93,6.57,3.02,2.28,5.19,2.28,3.89-.76,5.18-2.28c1.28-1.52,1.93-3.71,1.93-6.57h0Z" style="fill: #444;"/>
        <path d="M859.2,531.7h-3.76l-7.29-8.67h-4.09v8.67h-2.9v-21.81h6.11c1.32,0,2.42.09,3.3.26s1.67.48,2.37.92c.79.5,1.41,1.13,1.85,1.88.44.76.67,1.72.67,2.88,0,1.57-.4,2.89-1.19,3.95s-1.88,1.86-3.27,2.39l8.2,9.54h0ZM852.42,516.03c0-.62-.11-1.18-.33-1.66-.22-.48-.58-.89-1.09-1.22-.42-.28-.92-.48-1.49-.59-.58-.11-1.25-.17-2.04-.17h-3.41v8.23h2.93c.92,0,1.72-.08,2.4-.24.68-.16,1.26-.46,1.74-.9.44-.41.76-.88.97-1.41.21-.53.32-1.21.32-2.03h0Z" style="fill: #444;"/>
        <path d="M886.36,531.7h-13.8v-21.81h2.9v19.23h10.9v2.58h0Z" style="fill: #444;"/>
        <path d="M905.11,525.47c0,.85-.2,1.69-.59,2.52s-.95,1.53-1.66,2.11c-.78.62-1.69,1.11-2.73,1.46-1.04.35-2.29.53-3.76.53-1.57,0-2.99-.15-4.24-.44s-2.53-.73-3.83-1.3v-3.63h.21c1.1.92,2.38,1.63,3.82,2.12s2.8.75,4.07.75c1.8,0,3.2-.34,4.2-1.01s1.5-1.57,1.5-2.7c0-.97-.24-1.68-.71-2.14s-1.19-.82-2.16-1.07c-.73-.2-1.53-.36-2.38-.48s-1.76-.29-2.72-.48c-1.93-.41-3.37-1.11-4.3-2.1s-1.4-2.28-1.4-3.87c0-1.83.77-3.32,2.31-4.49s3.5-1.75,5.87-1.75c1.53,0,2.94.15,4.22.44s2.41.65,3.4,1.08v3.43h-.21c-.83-.7-1.92-1.29-3.27-1.75-1.35-.46-2.74-.7-4.15-.7-1.55,0-2.8.32-3.74.97s-1.41,1.47-1.41,2.49c0,.91.23,1.62.7,2.14s1.29.91,2.48,1.19c.62.14,1.51.3,2.67.5s2.13.4,2.93.6c1.62.43,2.84,1.08,3.66,1.95s1.23,2.08,1.23,3.65v-.02h0Z" style="fill: #444;"/>
        <path d="M926.45,531.7h-2.9v-10.68h-10.88v10.68h-2.9v-21.81h2.9v8.55h10.88v-8.55h2.9v21.81Z" style="fill: #444;"/>
      </g>
      <polyline points="653 522 733 522 733 518 653 518 653 522" style="fill: #00cc96;"/>
      <path d="M653,522v-4h80v4h-80M738.39,532.15v-22.71h188.04v22.71h-188.04M929.39,499h-281.39v42h281.39v-42" style="fill: #fff;"/>
      <g style="clip-path: url(#clippath-2);">
        <g>
          <rect x="738.39" y="509.44" width="188.04" height="22.71" style="fill: #fff;"/>
          <g>
            <path d="M758.13,531.7h-3.09l-2.14-6.08h-9.43l-2.14,6.08h-2.94l7.94-21.81h3.87l7.94,21.81h0ZM752,523.13l-3.82-10.71-3.84,10.71h7.66Z" style="fill: #444;"/>
            <path d="M778.08,531.7h-3.59l-10.34-19.51v19.51h-2.71v-21.81h4.5l9.43,17.81v-17.81h2.71v21.81h0Z" style="fill: #444;"/>
            <path d="M802.31,520.82c0,1.98-.43,3.78-1.3,5.39-.86,1.61-2.01,2.86-3.45,3.75-1,.62-2.11,1.06-3.33,1.33-1.23.27-2.84.41-4.84.41h-5.51v-21.81h5.45c2.13,0,3.82.15,5.08.46,1.25.31,2.32.73,3.19,1.27,1.48.93,2.64,2.16,3.47,3.71s1.25,3.37,1.25,5.49h0ZM799.27,520.77c0-1.71-.3-3.15-.89-4.32s-1.48-2.09-2.67-2.77c-.86-.49-1.77-.83-2.74-1.02s-2.12-.29-3.47-.29h-2.72v16.83h2.72c1.4,0,2.62-.1,3.65-.31,1.04-.21,2-.59,2.86-1.14,1.08-.69,1.9-1.61,2.44-2.74s.81-2.55.81-4.25h0Z" style="fill: #444;"/>
            <path d="M833.8,512.39c.89.98,1.57,2.17,2.04,3.59s.71,3.02.71,4.82-.24,3.41-.72,4.83c-.48,1.42-1.16,2.6-2.03,3.55-.9.99-1.96,1.73-3.19,2.23s-2.62.75-4.2.75-2.93-.25-4.18-.76c-1.26-.51-2.32-1.25-3.2-2.21s-1.56-2.15-2.03-3.56-.71-3.01-.71-4.82.23-3.37.7-4.78,1.15-2.62,2.05-3.63c.86-.96,1.93-1.69,3.2-2.2,1.28-.51,2.66-.76,4.17-.76s2.97.26,4.21.77c1.25.51,2.3,1.24,3.17,2.19h.01ZM833.54,520.8c0-2.83-.63-5.02-1.9-6.56s-3-2.31-5.2-2.31-3.96.77-5.22,2.31c-1.27,1.54-1.9,3.72-1.9,6.56s.64,5.05,1.93,6.57,3.02,2.28,5.19,2.28,3.89-.76,5.18-2.28c1.28-1.52,1.93-3.71,1.93-6.57h0Z" style="fill: #444;"/>
            <path d="M859.2,531.7h-3.76l-7.29-8.67h-4.09v8.67h-2.9v-21.81h6.11c1.32,0,2.42.09,3.3.26s1.67.48,2.37.92c.79.5,1.41,1.13,1.85,1.88.44.76.67,1.72.67,2.88,0,1.57-.4,2.89-1.19,3.95s-1.88,1.86-3.27,2.39l8.2,9.54h0ZM852.42,516.03c0-.62-.11-1.18-.33-1.66-.22-.48-.58-.89-1.09-1.22-.42-.28-.92-.48-1.49-.59-.58-.11-1.25-.17-2.04-.17h-3.41v8.23h2.93c.92,0,1.72-.08,2.4-.24.68-.16,1.26-.46,1.74-.9.44-.41.76-.88.97-1.41.21-.53.32-1.21.32-2.03h0Z" style="fill: #444;"/>
            <path d="M886.36,531.7h-13.8v-21.81h2.9v19.23h10.9v2.58h0Z" style="fill: #444;"/>
            <path d="M905.11,525.47c0,.85-.2,1.69-.59,2.52s-.95,1.53-1.66,2.11c-.78.62-1.69,1.11-2.73,1.46-1.04.35-2.29.53-3.76.53-1.57,0-2.99-.15-4.24-.44s-2.53-.73-3.83-1.3v-3.63h.21c1.1.92,2.38,1.63,3.82,2.12s2.8.75,4.07.75c1.8,0,3.2-.34,4.2-1.01s1.5-1.57,1.5-2.7c0-.97-.24-1.68-.71-2.14s-1.19-.82-2.16-1.07c-.73-.2-1.53-.36-2.38-.48s-1.76-.29-2.72-.48c-1.93-.41-3.37-1.11-4.3-2.1s-1.4-2.28-1.4-3.87c0-1.83.77-3.32,2.31-4.49s3.5-1.75,5.87-1.75c1.53,0,2.94.15,4.22.44s2.41.65,3.4,1.08v3.43h-.21c-.83-.7-1.92-1.29-3.27-1.75-1.35-.46-2.74-.7-4.15-.7-1.55,0-2.8.32-3.74.97s-1.41,1.47-1.41,2.49c0,.91.23,1.62.7,2.14s1.29.91,2.48,1.19c.62.14,1.51.3,2.67.5s2.13.4,2.93.6c1.62.43,2.84,1.08,3.66,1.95s1.23,2.08,1.23,3.65v-.02h0Z" style="fill: #444;"/>
            <path d="M926.45,531.7h-2.9v-10.68h-10.88v10.68h-2.9v-21.81h2.9v8.55h10.88v-8.55h2.9v21.81Z" style="fill: #444;"/>
          </g>
        </g>
      </g>
      <polyline points="733 518 653 518 653 522 733 522 733 518" style="fill: #00cc96;"/>
      <g>
        <path d="M757.61,573.7h-2.9v-10.68h-10.88v10.68h-2.9v-21.81h2.9v8.55h10.88v-8.55h2.9v21.81Z" style="fill: #444;"/>
        <path d="M780.11,573.7h-3.59l-10.34-19.51v19.51h-2.71v-21.81h4.5l9.43,17.81v-17.81h2.71v21.81h0Z" style="fill: #444;"/>
        <path d="M801.76,567.47c0,.85-.2,1.69-.59,2.52s-.95,1.53-1.66,2.11c-.78.62-1.69,1.11-2.73,1.46-1.04.35-2.29.53-3.76.53-1.57,0-2.99-.15-4.24-.44s-2.53-.73-3.83-1.3v-3.63h.21c1.1.92,2.38,1.63,3.82,2.12s2.8.75,4.07.75c1.8,0,3.2-.34,4.2-1.01s1.5-1.57,1.5-2.7c0-.97-.24-1.68-.71-2.14s-1.19-.82-2.16-1.07c-.73-.2-1.53-.36-2.38-.48s-1.76-.29-2.72-.48c-1.93-.41-3.37-1.11-4.3-2.1s-1.4-2.28-1.4-3.87c0-1.83.77-3.32,2.31-4.49s3.5-1.75,5.87-1.75c1.53,0,2.94.15,4.22.44s2.41.65,3.4,1.08v3.43h-.21c-.83-.7-1.92-1.29-3.27-1.75-1.35-.46-2.74-.7-4.15-.7-1.55,0-2.8.32-3.74.97s-1.41,1.47-1.41,2.49c0,.91.23,1.62.7,2.14s1.29.91,2.48,1.19c.62.14,1.51.3,2.67.5s2.13.4,2.93.6c1.62.43,2.84,1.08,3.66,1.95s1.23,2.08,1.23,3.65v-.02h0Z" style="fill: #444;"/>
        <path d="M831.81,551.89l-5.67,21.81h-3.27l-4.58-18.11-4.48,18.11h-3.19l-5.77-21.81h2.97l4.58,18.13,4.51-18.13h2.94l4.56,18.31,4.56-18.31h2.84Z" style="fill: #444;"/>
      </g>
      <polyline points="653 564 733 564 733 560 653 560 653 564" style="fill: #ff6692;"/>
      <path d="M653,564v-4h80v4h-80M740.94,574.09v-22.59h90.87v22.59h-90.87M929.39,541h-281.39v42h281.39v-42" style="fill: #fff;"/>
      <g style="clip-path: url(#clippath-3);">
        <g>
          <rect x="740.94" y="551.5" width="90.87" height="22.59" style="fill: #fff;"/>
          <g>
            <path d="M757.61,573.7h-2.9v-10.68h-10.88v10.68h-2.9v-21.81h2.9v8.55h10.88v-8.55h2.9v21.81Z" style="fill: #444;"/>
            <path d="M780.11,573.7h-3.59l-10.34-19.51v19.51h-2.71v-21.81h4.5l9.43,17.81v-17.81h2.71v21.81h0Z" style="fill: #444;"/>
            <path d="M801.76,567.47c0,.85-.2,1.69-.59,2.52s-.95,1.53-1.66,2.11c-.78.62-1.69,1.11-2.73,1.46-1.04.35-2.29.53-3.76.53-1.57,0-2.99-.15-4.24-.44s-2.53-.73-3.83-1.3v-3.63h.21c1.1.92,2.38,1.63,3.82,2.12s2.8.75,4.07.75c1.8,0,3.2-.34,4.2-1.01s1.5-1.57,1.5-2.7c0-.97-.24-1.68-.71-2.14s-1.19-.82-2.16-1.07c-.73-.2-1.53-.36-2.38-.48s-1.76-.29-2.72-.48c-1.93-.41-3.37-1.11-4.3-2.1s-1.4-2.28-1.4-3.87c0-1.83.77-3.32,2.31-4.49s3.5-1.75,5.87-1.75c1.53,0,2.94.15,4.22.44s2.41.65,3.4,1.08v3.43h-.21c-.83-.7-1.92-1.29-3.27-1.75-1.35-.46-2.74-.7-4.15-.7-1.55,0-2.8.32-3.74.97s-1.41,1.47-1.41,2.49c0,.91.23,1.62.7,2.14s1.29.91,2.48,1.19c.62.14,1.51.3,2.67.5s2.13.4,2.93.6c1.62.43,2.84,1.08,3.66,1.95s1.23,2.08,1.23,3.65v-.02h0Z" style="fill: #444;"/>
            <path d="M831.81,551.89l-5.67,21.81h-3.27l-4.58-18.11-4.48,18.11h-3.19l-5.77-21.81h2.97l4.58,18.13,4.51-18.13h2.94l4.56,18.31,4.56-18.31h2.84Z" style="fill: #444;"/>
          </g>
        </g>
      </g>
      <polyline points="733 560 653 560 653 564 733 564 733 560" style="fill: #ff6692;"/>
      <g>
        <path d="M758.13,615.7h-3.09l-2.14-6.08h-9.43l-2.14,6.08h-2.94l7.94-21.81h3.87l7.94,21.81h0ZM752,607.13l-3.82-10.71-3.84,10.71h7.66Z" style="fill: #444;"/>
        <path d="M773.32,614.67c-.92.44-1.79.78-2.61,1.03-.83.24-1.7.37-2.63.37-1.18,0-2.27-.17-3.25-.52-.99-.35-1.83-.87-2.53-1.58-.71-.7-1.26-1.59-1.66-2.67s-.59-2.33-.59-3.76c0-2.68.73-4.78,2.2-6.3s3.41-2.29,5.82-2.29c.94,0,1.86.13,2.76.4s1.73.59,2.48.97v3.06h-.15c-.84-.65-1.71-1.16-2.6-1.51-.89-.35-1.76-.53-2.61-.53-1.56,0-2.8.53-3.7,1.58s-1.36,2.59-1.36,4.62.44,3.49,1.33,4.55c.88,1.06,2.13,1.59,3.73,1.59.56,0,1.12-.07,1.7-.22s1.09-.34,1.55-.57c.4-.21.78-.42,1.13-.65s.63-.43.83-.59h.15v3.03h0Z" style="fill: #444;"/>
        <path d="M788.95,614.67c-.92.44-1.79.78-2.61,1.03-.83.24-1.7.37-2.63.37-1.18,0-2.27-.17-3.25-.52-.99-.35-1.83-.87-2.53-1.58-.71-.7-1.26-1.59-1.66-2.67s-.59-2.33-.59-3.76c0-2.68.73-4.78,2.2-6.3s3.41-2.29,5.82-2.29c.94,0,1.86.13,2.76.4s1.73.59,2.48.97v3.06h-.15c-.84-.65-1.71-1.16-2.6-1.51-.89-.35-1.76-.53-2.61-.53-1.56,0-2.8.53-3.7,1.58s-1.36,2.59-1.36,4.62.44,3.49,1.33,4.55c.88,1.06,2.13,1.59,3.73,1.59.56,0,1.12-.07,1.7-.22s1.09-.34,1.55-.57c.4-.21.78-.42,1.13-.65s.63-.43.83-.59h.15v3.03h0Z" style="fill: #444;"/>
        <path d="M806.04,615.7h-2.75v-1.82c-.93.73-1.82,1.29-2.67,1.68s-1.79.59-2.81.59c-1.72,0-3.06-.52-4.01-1.57s-1.44-2.59-1.44-4.62v-10.62h2.75v9.32c0,.83.04,1.54.12,2.13s.24,1.1.5,1.52c.26.43.61.74,1.03.94s1.03.29,1.83.29c.71,0,1.49-.19,2.34-.56s1.63-.84,2.37-1.42v-12.22h2.75v16.36h-.01Z" style="fill: #444;"/>
        <path d="M821.67,602.34h-.15c-.41-.1-.81-.17-1.19-.21-.39-.04-.84-.07-1.37-.07-.85,0-1.67.19-2.46.56s-1.55.86-2.29,1.46v11.62h-2.75v-16.36h2.75v2.42c1.09-.88,2.06-1.5,2.89-1.87s1.69-.55,2.56-.55c.48,0,.83.01,1.04.04s.54.07.97.14v2.83h0Z" style="fill: #444;"/>
        <path d="M836.47,615.7h-2.74v-1.74c-.24.17-.57.4-.99.7s-.82.54-1.21.71c-.46.22-.99.41-1.58.56-.6.15-1.29.23-2.09.23-1.47,0-2.72-.49-3.75-1.46s-1.54-2.22-1.54-3.74c0-1.24.27-2.24.8-3.01.53-.77,1.29-1.37,2.28-1.81,1-.44,2.19-.74,3.59-.89s2.9-.27,4.5-.35v-.42c0-.62-.11-1.14-.33-1.55-.22-.41-.53-.73-.94-.97-.39-.22-.86-.38-1.41-.45s-1.12-.12-1.71-.12c-.72,0-1.53.09-2.42.29-.89.19-1.81.47-2.75.83h-.15v-2.8c.54-.15,1.31-.31,2.33-.48s2.02-.26,3-.26c1.15,0,2.16.09,3.01.29.85.19,1.59.51,2.22.97.62.45,1.08,1.03,1.41,1.74s.48,1.6.48,2.65v11.1-.02h0ZM833.73,611.67v-4.56c-.84.05-1.83.12-2.97.22s-2.04.24-2.7.42c-.79.22-1.43.57-1.92,1.05s-.73,1.12-.73,1.96c0,.94.28,1.64.85,2.12s1.43.71,2.59.71c.97,0,1.85-.19,2.65-.56s1.54-.83,2.23-1.36h0Z" style="fill: #444;"/>
        <path d="M850.27,615.55c-.52.14-1.08.25-1.69.34s-1.15.13-1.63.13c-1.67,0-2.94-.45-3.81-1.35s-1.3-2.34-1.3-4.32v-8.7h-1.86v-2.31h1.86v-4.7h2.75v4.7h5.68v2.31h-5.68v7.46c0,.86.02,1.53.06,2.01s.18.93.41,1.35c.21.39.51.68.89.86s.95.27,1.72.27c.45,0,.92-.07,1.41-.2s.84-.24,1.05-.33h.15v2.48h0Z" style="fill: #444;"/>
        <path d="M867.29,607.8h-12.06c0,1.01.15,1.88.45,2.63s.72,1.36,1.25,1.84c.51.47,1.11.82,1.81,1.05s1.47.35,2.31.35c1.11,0,2.23-.22,3.36-.67,1.13-.44,1.93-.88,2.41-1.31h.15v3c-.93.39-1.88.72-2.84.98s-1.98.4-3.05.4c-2.71,0-4.83-.73-6.36-2.2s-2.29-3.56-2.29-6.26.73-4.8,2.19-6.37,3.38-2.36,5.76-2.36c2.21,0,3.91.64,5.1,1.93s1.79,3.12,1.79,5.49v1.49h.02ZM864.61,605.7c0-1.45-.37-2.56-1.09-3.35-.72-.79-1.81-1.19-3.27-1.19s-2.65.43-3.52,1.3c-.88.87-1.37,1.95-1.49,3.24h9.38,0Z" style="fill: #444;"/>
        <path d="M899.08,614.12c-.54.23-1.02.45-1.46.66-.44.21-1,.42-1.71.64-.6.19-1.24.34-1.94.48-.7.13-1.47.2-2.31.2-1.58,0-3.02-.22-4.31-.67-1.29-.44-2.42-1.14-3.38-2.09-.94-.93-1.67-2.11-2.2-3.54s-.79-3.09-.79-4.99c0-1.8.25-3.4.76-4.82s1.24-2.61,2.2-3.59c.93-.95,2.05-1.67,3.36-2.17s2.77-.75,4.37-.75c1.17,0,2.34.14,3.51.42,1.17.28,2.46.78,3.89,1.49v3.44h-.22c-1.2-1.01-2.39-1.74-3.57-2.2s-2.45-.69-3.79-.69c-1.1,0-2.1.18-2.98.54s-1.67.91-2.37,1.66c-.67.73-1.2,1.66-1.58,2.78-.38,1.12-.56,2.41-.56,3.88s.21,2.85.62,3.96.95,2,1.6,2.7c.68.72,1.48,1.26,2.4,1.6.91.35,1.88.52,2.89.52,1.4,0,2.71-.24,3.93-.72s2.36-1.2,3.43-2.15h.21v3.4h0Z" style="fill: #444;"/>
        <path d="M919.03,609.47c0,.85-.2,1.69-.59,2.52s-.95,1.53-1.66,2.11c-.78.62-1.69,1.11-2.73,1.46-1.04.35-2.29.53-3.76.53-1.57,0-2.99-.15-4.24-.44s-2.53-.73-3.83-1.3v-3.63h.21c1.1.92,2.38,1.63,3.82,2.12s2.8.75,4.07.75c1.8,0,3.2-.34,4.2-1.01s1.5-1.57,1.5-2.7c0-.97-.24-1.68-.71-2.14s-1.19-.82-2.16-1.07c-.73-.2-1.53-.36-2.38-.48s-1.76-.29-2.72-.48c-1.93-.41-3.37-1.11-4.3-2.1s-1.4-2.28-1.4-3.87c0-1.83.77-3.32,2.31-4.49s3.5-1.75,5.87-1.75c1.53,0,2.94.15,4.22.44s2.41.65,3.4,1.08v3.43h-.21c-.83-.7-1.92-1.29-3.27-1.75-1.35-.46-2.74-.7-4.15-.7-1.55,0-2.8.32-3.74.97s-1.41,1.47-1.41,2.49c0,.91.23,1.62.7,2.14s1.29.91,2.48,1.19c.62.14,1.51.3,2.67.5s2.13.4,2.93.6c1.62.43,2.84,1.08,3.66,1.95s1.23,2.08,1.23,3.65v-.02h0Z" style="fill: #444;"/>
      </g>
      <path d="M725,606h8v-4h-8v4M701,606h12v-4h-12v4M677,606h12v-4h-12v4M653,606h12v-4h-12v4" style="fill: gray;"/>
      <path d="M653,606v-4h12v4h-12M677,606v-4h12v4h-12M701,606v-4h12v4h-12M725,606v-4h8v4h-8M738.39,616.15v-22.65h180.59v22.65h-180.59M929.39,583h-281.39v42h281.39v-42" style="fill: #fff;"/>
      <g style="clip-path: url(#clippath-4);">
        <g>
          <rect x="738.39" y="593.5" width="180.59" height="22.65" style="fill: #fff;"/>
          <g>
            <path d="M758.13,615.7h-3.09l-2.14-6.08h-9.43l-2.14,6.08h-2.94l7.94-21.81h3.87l7.94,21.81h0ZM752,607.13l-3.82-10.71-3.84,10.71h7.66Z" style="fill: #444;"/>
            <path d="M773.32,614.67c-.92.44-1.79.78-2.61,1.03-.83.24-1.7.37-2.63.37-1.18,0-2.27-.17-3.25-.52-.99-.35-1.83-.87-2.53-1.58-.71-.7-1.26-1.59-1.66-2.67s-.59-2.33-.59-3.76c0-2.68.73-4.78,2.2-6.3s3.41-2.29,5.82-2.29c.94,0,1.86.13,2.76.4s1.73.59,2.48.97v3.06h-.15c-.84-.65-1.71-1.16-2.6-1.51-.89-.35-1.76-.53-2.61-.53-1.56,0-2.8.53-3.7,1.58s-1.36,2.59-1.36,4.62.44,3.49,1.33,4.55c.88,1.06,2.13,1.59,3.73,1.59.56,0,1.12-.07,1.7-.22s1.09-.34,1.55-.57c.4-.21.78-.42,1.13-.65s.63-.43.83-.59h.15v3.03h0Z" style="fill: #444;"/>
            <path d="M788.95,614.67c-.92.44-1.79.78-2.61,1.03-.83.24-1.7.37-2.63.37-1.18,0-2.27-.17-3.25-.52-.99-.35-1.83-.87-2.53-1.58-.71-.7-1.26-1.59-1.66-2.67s-.59-2.33-.59-3.76c0-2.68.73-4.78,2.2-6.3s3.41-2.29,5.82-2.29c.94,0,1.86.13,2.76.4s1.73.59,2.48.97v3.06h-.15c-.84-.65-1.71-1.16-2.6-1.51-.89-.35-1.76-.53-2.61-.53-1.56,0-2.8.53-3.7,1.58s-1.36,2.59-1.36,4.62.44,3.49,1.33,4.55c.88,1.06,2.13,1.59,3.73,1.59.56,0,1.12-.07,1.7-.22s1.09-.34,1.55-.57c.4-.21.78-.42,1.13-.65s.63-.43.83-.59h.15v3.03h0Z" style="fill: #444;"/>
            <path d="M806.04,615.7h-2.75v-1.82c-.93.73-1.82,1.29-2.67,1.68s-1.79.59-2.81.59c-1.72,0-3.06-.52-4.01-1.57s-1.44-2.59-1.44-4.62v-10.62h2.75v9.32c0,.83.04,1.54.12,2.13s.24,1.1.5,1.52c.26.43.61.74,1.03.94s1.03.29,1.83.29c.71,0,1.49-.19,2.34-.56s1.63-.84,2.37-1.42v-12.22h2.75v16.36h-.01Z" style="fill: #444;"/>
            <path d="M821.67,602.34h-.15c-.41-.1-.81-.17-1.19-.21-.39-.04-.84-.07-1.37-.07-.85,0-1.67.19-2.46.56s-1.55.86-2.29,1.46v11.62h-2.75v-16.36h2.75v2.42c1.09-.88,2.06-1.5,2.89-1.87s1.69-.55,2.56-.55c.48,0,.83.01,1.04.04s.54.07.97.14v2.83h0Z" style="fill: #444;"/>
            <path d="M836.47,615.7h-2.74v-1.74c-.24.17-.57.4-.99.7s-.82.54-1.21.71c-.46.22-.99.41-1.58.56-.6.15-1.29.23-2.09.23-1.47,0-2.72-.49-3.75-1.46s-1.54-2.22-1.54-3.74c0-1.24.27-2.24.8-3.01.53-.77,1.29-1.37,2.28-1.81,1-.44,2.19-.74,3.59-.89s2.9-.27,4.5-.35v-.42c0-.62-.11-1.14-.33-1.55-.22-.41-.53-.73-.94-.97-.39-.22-.86-.38-1.41-.45s-1.12-.12-1.71-.12c-.72,0-1.53.09-2.42.29-.89.19-1.81.47-2.75.83h-.15v-2.8c.54-.15,1.31-.31,2.33-.48s2.02-.26,3-.26c1.15,0,2.16.09,3.01.29.85.19,1.59.51,2.22.97.62.45,1.08,1.03,1.41,1.74s.48,1.6.48,2.65v11.1-.02h0ZM833.73,611.67v-4.56c-.84.05-1.83.12-2.97.22s-2.04.24-2.7.42c-.79.22-1.43.57-1.92,1.05s-.73,1.12-.73,1.96c0,.94.28,1.64.85,2.12s1.43.71,2.59.71c.97,0,1.85-.19,2.65-.56s1.54-.83,2.23-1.36h0Z" style="fill: #444;"/>
            <path d="M850.27,615.55c-.52.14-1.08.25-1.69.34s-1.15.13-1.63.13c-1.67,0-2.94-.45-3.81-1.35s-1.3-2.34-1.3-4.32v-8.7h-1.86v-2.31h1.86v-4.7h2.75v4.7h5.68v2.31h-5.68v7.46c0,.86.02,1.53.06,2.01s.18.93.41,1.35c.21.39.51.68.89.86s.95.27,1.72.27c.45,0,.92-.07,1.41-.2s.84-.24,1.05-.33h.15v2.48h0Z" style="fill: #444;"/>
            <path d="M867.29,607.8h-12.06c0,1.01.15,1.88.45,2.63s.72,1.36,1.25,1.84c.51.47,1.11.82,1.81,1.05s1.47.35,2.31.35c1.11,0,2.23-.22,3.36-.67,1.13-.44,1.93-.88,2.41-1.31h.15v3c-.93.39-1.88.72-2.84.98s-1.98.4-3.05.4c-2.71,0-4.83-.73-6.36-2.2s-2.29-3.56-2.29-6.26.73-4.8,2.19-6.37,3.38-2.36,5.76-2.36c2.21,0,3.91.64,5.1,1.93s1.79,3.12,1.79,5.49v1.49h.02ZM864.61,605.7c0-1.45-.37-2.56-1.09-3.35-.72-.79-1.81-1.19-3.27-1.19s-2.65.43-3.52,1.3c-.88.87-1.37,1.95-1.49,3.24h9.38,0Z" style="fill: #444;"/>
            <path d="M899.08,614.12c-.54.23-1.02.45-1.46.66-.44.21-1,.42-1.71.64-.6.19-1.24.34-1.94.48-.7.13-1.47.2-2.31.2-1.58,0-3.02-.22-4.31-.67-1.29-.44-2.42-1.14-3.38-2.09-.94-.93-1.67-2.11-2.2-3.54s-.79-3.09-.79-4.99c0-1.8.25-3.4.76-4.82s1.24-2.61,2.2-3.59c.93-.95,2.05-1.67,3.36-2.17s2.77-.75,4.37-.75c1.17,0,2.34.14,3.51.42,1.17.28,2.46.78,3.89,1.49v3.44h-.22c-1.2-1.01-2.39-1.74-3.57-2.2s-2.45-.69-3.79-.69c-1.1,0-2.1.18-2.98.54s-1.67.91-2.37,1.66c-.67.73-1.2,1.66-1.58,2.78-.38,1.12-.56,2.41-.56,3.88s.21,2.85.62,3.96.95,2,1.6,2.7c.68.72,1.48,1.26,2.4,1.6.91.35,1.88.52,2.89.52,1.4,0,2.71-.24,3.93-.72s2.36-1.2,3.43-2.15h.21v3.4h0Z" style="fill: #444;"/>
            <path d="M919.03,609.47c0,.85-.2,1.69-.59,2.52s-.95,1.53-1.66,2.11c-.78.62-1.69,1.11-2.73,1.46-1.04.35-2.29.53-3.76.53-1.57,0-2.99-.15-4.24-.44s-2.53-.73-3.83-1.3v-3.63h.21c1.1.92,2.38,1.63,3.82,2.12s2.8.75,4.07.75c1.8,0,3.2-.34,4.2-1.01s1.5-1.57,1.5-2.7c0-.97-.24-1.68-.71-2.14s-1.19-.82-2.16-1.07c-.73-.2-1.53-.36-2.38-.48s-1.76-.29-2.72-.48c-1.93-.41-3.37-1.11-4.3-2.1s-1.4-2.28-1.4-3.87c0-1.83.77-3.32,2.31-4.49s3.5-1.75,5.87-1.75c1.53,0,2.94.15,4.22.44s2.41.65,3.4,1.08v3.43h-.21c-.83-.7-1.92-1.29-3.27-1.75-1.35-.46-2.74-.7-4.15-.7-1.55,0-2.8.32-3.74.97s-1.41,1.47-1.41,2.49c0,.91.23,1.62.7,2.14s1.29.91,2.48,1.19c.62.14,1.51.3,2.67.5s2.13.4,2.93.6c1.62.43,2.84,1.08,3.66,1.95s1.23,2.08,1.23,3.65v-.02h0Z" style="fill: #444;"/>
          </g>
        </g>
      </g>
      <path d="M665,602h-12v4h12v-4M689,602h-12v4h12v-4M713,602h-12v4h12v-4M733,602h-8v4h8v-4" style="fill: gray;"/>
    </g>
  </g>
  <g>
    <path d="M442.23,790.1c-.64.28-1.23.54-1.75.79s-1.2.5-2.05.77c-.71.22-1.49.41-2.33.57s-1.76.24-2.77.24c-1.9,0-3.62-.27-5.18-.8s-2.9-1.37-4.05-2.5c-1.12-1.11-2-2.53-2.64-4.25s-.95-3.71-.95-5.99c0-2.16.3-4.08.91-5.78s1.49-3.13,2.64-4.31c1.11-1.14,2.46-2,4.03-2.6s3.33-.9,5.25-.9c1.41,0,2.81.17,4.21.51s2.96.94,4.67,1.79v4.13h-.26c-1.44-1.21-2.87-2.09-4.29-2.64s-2.94-.83-4.55-.83c-1.32,0-2.52.21-3.58.64s-2.01,1.09-2.84,2c-.81.88-1.44,1.99-1.89,3.33s-.68,2.89-.68,4.65.25,3.42.75,4.75,1.14,2.4,1.92,3.23c.82.87,1.78,1.51,2.87,1.92s2.25.62,3.47.62c1.68,0,3.25-.29,4.71-.86s2.84-1.44,4.11-2.58h.25v4.08l.02.02h0Z" style="fill: #444;"/>
    <path d="M462.14,792h-3.29v-2.09c-.29.2-.69.48-1.19.83s-.98.64-1.45.85c-.55.27-1.18.5-1.9.68s-1.55.27-2.51.27c-1.77,0-3.27-.59-4.5-1.76s-1.85-2.67-1.85-4.48c0-1.49.32-2.69.96-3.61s1.55-1.64,2.73-2.17c1.2-.53,2.63-.88,4.31-1.07s3.47-.33,5.4-.42v-.51c0-.75-.13-1.37-.4-1.86s-.64-.88-1.13-1.16c-.47-.27-1.03-.45-1.69-.54s-1.34-.14-2.06-.14c-.87,0-1.83.11-2.9.34s-2.17.56-3.3.99h-.18v-3.36c.64-.18,1.58-.37,2.79-.58s2.42-.32,3.6-.32c1.38,0,2.59.11,3.61.34s1.91.62,2.66,1.17c.74.54,1.3,1.24,1.69,2.09s.58,1.92.58,3.18v13.32h.02ZM458.86,787.17v-5.47c-1.01.06-2.19.15-3.56.26s-2.45.29-3.24.51c-.95.27-1.72.69-2.3,1.26s-.88,1.35-.88,2.35c0,1.12.34,1.97,1.02,2.54s1.72.85,3.11.85c1.16,0,2.22-.23,3.18-.68s1.85-.99,2.67-1.63h0Z" style="fill: #444;"/>
    <path d="M471.85,792h-3.3v-27.35h3.3v27.35Z" style="fill: #444;"/>
    <path d="M492.9,790.77c-1.1.53-2.15.94-3.14,1.23s-2.04.44-3.16.44c-1.42,0-2.72-.21-3.9-.62s-2.2-1.05-3.04-1.89c-.86-.84-1.52-1.91-1.99-3.2s-.7-2.79-.7-4.52c0-3.21.88-5.73,2.65-7.56s4.09-2.74,6.99-2.74c1.12,0,2.23.16,3.31.47s2.08.7,2.98,1.16v3.67h-.18c-1.01-.79-2.05-1.39-3.12-1.81s-2.12-.63-3.14-.63c-1.88,0-3.35.63-4.44,1.89s-1.63,3.11-1.63,5.55.53,4.19,1.59,5.46,2.55,1.91,4.47,1.91c.67,0,1.35-.09,2.04-.26s1.31-.4,1.86-.69c.48-.25.93-.51,1.35-.78s.76-.51,1-.71h.18v3.64h.02Z" style="fill: #444;"/>
    <path d="M513.42,792h-3.3v-2.18c-1.11.88-2.18,1.55-3.2,2.02s-2.14.7-3.38.7c-2.06,0-3.67-.63-4.82-1.89s-1.72-3.11-1.72-5.55v-12.74h3.3v11.18c0,1,.05,1.85.14,2.56s.29,1.32.6,1.82c.32.52.73.89,1.23,1.12s1.24.35,2.2.35c.86,0,1.79-.22,2.8-.67s1.96-1.01,2.84-1.71v-14.66h3.3v19.65h.01Z" style="fill: #444;"/>
    <path d="M523.26,792h-3.3v-27.35h3.3v27.35Z" style="fill: #444;"/>
    <path d="M545.06,792h-3.29v-2.09c-.29.2-.69.48-1.19.83s-.98.64-1.45.85c-.55.27-1.18.5-1.9.68s-1.55.27-2.51.27c-1.77,0-3.27-.59-4.5-1.76s-1.85-2.67-1.85-4.48c0-1.49.32-2.69.96-3.61s1.55-1.64,2.73-2.17c1.2-.53,2.63-.88,4.31-1.07s3.47-.33,5.4-.42v-.51c0-.75-.13-1.37-.4-1.86s-.64-.88-1.13-1.16c-.47-.27-1.03-.45-1.69-.54s-1.34-.14-2.06-.14c-.87,0-1.83.11-2.9.34s-2.17.56-3.3.99h-.18v-3.36c.64-.18,1.58-.37,2.79-.58s2.42-.32,3.6-.32c1.38,0,2.59.11,3.61.34s1.91.62,2.66,1.17c.74.54,1.3,1.24,1.69,2.09s.58,1.92.58,3.18v13.32h.02ZM541.77,787.17v-5.47c-1.01.06-2.19.15-3.56.26s-2.45.29-3.24.51c-.95.27-1.72.69-2.3,1.26s-.88,1.35-.88,2.35c0,1.12.34,1.97,1.02,2.54s1.72.85,3.11.85c1.16,0,2.22-.23,3.18-.68s1.85-.99,2.67-1.63h0Z" style="fill: #444;"/>
    <path d="M561.62,791.82c-.62.16-1.3.3-2.03.4s-1.39.16-1.96.16c-2,0-3.53-.54-4.57-1.62s-1.56-2.81-1.56-5.19v-10.44h-2.23v-2.78h2.23v-5.64h3.3v5.64h6.82v2.78h-6.82v8.95c0,1.03.02,1.84.07,2.42s.21,1.12.49,1.63c.26.47.61.81,1.06,1.03s1.14.33,2.07.33c.54,0,1.1-.08,1.69-.24s1.01-.29,1.27-.4h.18v2.97h0Z" style="fill: #444;"/>
    <path d="M569.16,769.08h-3.73v-3.43h3.73v3.43ZM568.95,792h-3.3v-19.63h3.3v19.63Z" style="fill: #444;"/>
    <path d="M592.22,782.19c0,3.2-.82,5.72-2.46,7.58s-3.84,2.78-6.59,2.78-4.98-.93-6.62-2.78-2.45-4.38-2.45-7.58.82-5.73,2.45-7.58,3.84-2.79,6.62-2.79,4.95.93,6.59,2.79,2.46,4.39,2.46,7.58ZM588.81,782.19c0-2.54-.5-4.43-1.49-5.67s-2.38-1.85-4.15-1.85-3.18.62-4.17,1.85-1.49,3.13-1.49,5.67.5,4.33,1.49,5.6,2.38,1.91,4.17,1.91,3.14-.63,4.14-1.89,1.5-3.13,1.5-5.62h0Z" style="fill: #444;"/>
    <path d="M613.75,792h-3.3v-11.18c0-.9-.05-1.75-.16-2.54s-.3-1.41-.58-1.85c-.29-.49-.71-.86-1.27-1.1s-1.27-.36-2.14-.36-1.85.22-2.83.67-1.93,1.01-2.83,1.71v14.66h-3.3v-19.63h3.3v2.18c1.03-.86,2.1-1.52,3.2-2s2.23-.72,3.39-.72c2.12,0,3.74.64,4.85,1.92s1.67,3.12,1.67,5.52v12.74-.02h0Z" style="fill: #444;"/>
    <path d="M645.03,775.97h-.18c-.49-.12-.97-.2-1.43-.25s-1.01-.08-1.64-.08c-1.02,0-2,.23-2.95.68s-1.86,1.03-2.74,1.75v13.94h-3.3v-19.63h3.3v2.9c1.31-1.05,2.47-1.8,3.47-2.24s2.02-.66,3.07-.66c.57,0,.99.01,1.25.04s.64.08,1.16.17v3.39h0Z" style="fill: #444;"/>
    <path d="M662.78,792h-3.29v-2.09c-.29.2-.69.48-1.19.83s-.98.64-1.45.85c-.55.27-1.18.5-1.9.68s-1.55.27-2.51.27c-1.77,0-3.27-.59-4.5-1.76s-1.85-2.67-1.85-4.48c0-1.49.32-2.69.96-3.61s1.55-1.64,2.73-2.17c1.2-.53,2.63-.88,4.31-1.07s3.47-.33,5.4-.42v-.51c0-.75-.13-1.37-.4-1.86s-.64-.88-1.13-1.16c-.47-.27-1.03-.45-1.69-.54s-1.34-.14-2.06-.14c-.87,0-1.83.11-2.9.34s-2.17.56-3.3.99h-.18v-3.36c.64-.18,1.58-.37,2.79-.58s2.42-.32,3.6-.32c1.38,0,2.59.11,3.61.34s1.91.62,2.66,1.17c.74.54,1.3,1.24,1.69,2.09s.58,1.92.58,3.18v13.32h.02ZM659.5,787.17v-5.47c-1.01.06-2.19.15-3.56.26s-2.45.29-3.24.51c-.95.27-1.72.69-2.3,1.26s-.88,1.35-.88,2.35c0,1.12.34,1.97,1.02,2.54s1.72.85,3.11.85c1.16,0,2.22-.23,3.18-.68s1.85-.99,2.67-1.63h0Z" style="fill: #444;"/>
    <path d="M679.34,791.82c-.62.16-1.3.3-2.03.4s-1.39.16-1.96.16c-2,0-3.53-.54-4.57-1.62s-1.56-2.81-1.56-5.19v-10.44h-2.23v-2.78h2.23v-5.64h3.3v5.64h6.82v2.78h-6.82v8.95c0,1.03.02,1.84.07,2.42s.21,1.12.49,1.63c.26.47.61.81,1.06,1.03s1.14.33,2.07.33c.54,0,1.1-.08,1.69-.24s1.01-.29,1.27-.4h.18v2.97h0Z" style="fill: #444;"/>
    <path d="M699.77,782.53h-14.47c0,1.21.18,2.26.54,3.16s.86,1.63,1.49,2.21c.61.56,1.33.98,2.17,1.27s1.76.42,2.77.42c1.34,0,2.68-.27,4.03-.8s2.32-1.06,2.89-1.57h.18v3.6c-1.11.47-2.25.86-3.41,1.18s-2.38.47-3.66.47c-3.26,0-5.8-.88-7.63-2.65s-2.74-4.27-2.74-7.51.88-5.76,2.63-7.65,4.06-2.83,6.92-2.83c2.65,0,4.69.77,6.13,2.32s2.15,3.74,2.15,6.59v1.79h0ZM696.55,779.99c-.01-1.73-.45-3.08-1.31-4.03s-2.17-1.42-3.93-1.42-3.18.52-4.23,1.56-1.64,2.34-1.78,3.88h11.25Z" style="fill: #444;"/>
  </g>
  <g>
    <path d="M36,471.8v10.34h-2.67v-3.43H12.5v3.43h-2.67v-10.34h2.67v3.43h20.83v-3.43h2.67Z" style="fill: #444;"/>
    <path d="M36,449.72v3.3h-11.18c-.9,0-1.75.05-2.54.16s-1.41.3-1.85.58c-.49.29-.86.71-1.1,1.27s-.36,1.27-.36,2.14.22,1.85.67,2.83,1.01,1.93,1.71,2.83h14.66v3.3h-19.63v-3.3h2.18c-.86-1.03-1.52-2.1-2-3.2s-.72-2.23-.72-3.39c0-2.12.64-3.74,1.92-4.85s3.12-1.67,5.52-1.67h12.74-.02,0Z" style="fill: #444;"/>
    <path d="M11.85,432.79v.18c-.11.36-.21.84-.33,1.42s-.17,1.1-.17,1.55c0,1.42.31,2.45.94,3.08s1.76.96,3.4.96h.67v-5.96h2.78v5.85h16.86v3.3h-16.86v2.23h-2.78v-2.23h-.65c-2.33,0-4.12-.58-5.37-1.74s-1.87-2.84-1.87-5.03c0-.74.04-1.4.11-2s.15-1.13.25-1.63h3.02v.02h0Z" style="fill: #444;"/>
    <path d="M26.53,414.27v14.47c1.21,0,2.26-.18,3.16-.54s1.63-.86,2.21-1.49c.56-.61.98-1.33,1.27-2.17s.42-1.76.42-2.77c0-1.34-.27-2.68-.8-4.03s-1.06-2.32-1.57-2.89v-.18h3.6c.47,1.11.86,2.25,1.18,3.41s.47,2.38.47,3.66c0,3.26-.88,5.8-2.65,7.63s-4.27,2.74-7.51,2.74-5.76-.88-7.65-2.63-2.83-4.06-2.83-6.92c0-2.65.77-4.69,2.32-6.13s3.74-2.15,6.59-2.15h1.79ZM23.99,417.48c-1.73.01-3.08.45-4.03,1.31s-1.42,2.17-1.42,3.93.52,3.18,1.56,4.23,2.34,1.64,3.88,1.78v-11.25h.01Z" style="fill: #444;"/>
    <path d="M34.77,394.74c.53,1.1.94,2.15,1.23,3.14s.44,2.04.44,3.16c0,1.42-.21,2.72-.62,3.9s-1.05,2.2-1.89,3.04c-.84.86-1.91,1.52-3.2,1.99s-2.79.7-4.52.7c-3.21,0-5.73-.88-7.56-2.65s-2.74-4.09-2.74-6.99c0-1.12.16-2.23.47-3.31s.7-2.08,1.16-2.98h3.67v.18c-.79,1.01-1.39,2.05-1.81,3.12s-.63,2.12-.63,3.14c0,1.88.63,3.35,1.89,4.44s3.11,1.63,5.55,1.63,4.19-.53,5.46-1.59c1.27-1.06,1.91-2.55,1.91-4.47,0-.67-.09-1.35-.26-2.04s-.4-1.31-.69-1.86c-.25-.48-.51-.93-.78-1.35s-.51-.76-.71-1v-.18h3.64v-.02h-.01Z" style="fill: #444;"/>
    <path d="M35.82,380.3c.16.62.3,1.3.4,2.03s.16,1.39.16,1.96c0,2-.54,3.53-1.62,4.57s-2.81,1.56-5.19,1.56h-10.44v2.23h-2.78v-2.23h-5.64v-3.3h5.64v-6.82h2.78v6.82h8.95c1.03,0,1.84-.02,2.42-.07s1.12-.21,1.63-.49c.47-.26.81-.61,1.03-1.06s.33-1.14.33-2.07c0-.54-.08-1.1-.24-1.69s-.29-1.01-.4-1.27v-.18h2.97Z" style="fill: #444;"/>
    <path d="M13.08,372.76v3.73h-3.43v-3.73h3.43ZM36,372.97v3.3h-19.63v-3.3h19.63Z" style="fill: #444;"/>
    <path d="M26.19,349.7c3.2,0,5.72.82,7.58,2.46s2.78,3.84,2.78,6.59-.93,4.98-2.78,6.62-4.38,2.45-7.58,2.45-5.73-.82-7.58-2.45-2.79-3.84-2.79-6.62.93-4.95,2.79-6.59,4.39-2.46,7.58-2.46ZM26.19,353.11c-2.54,0-4.43.5-5.67,1.49s-1.85,2.38-1.85,4.15.62,3.18,1.85,4.17,3.13,1.49,5.67,1.49,4.33-.5,5.6-1.49,1.91-2.38,1.91-4.17-.63-3.14-1.89-4.14-3.13-1.5-5.62-1.5h0Z" style="fill: #444;"/>
    <path d="M36,328.17v3.3h-11.18c-.9,0-1.75.05-2.54.16s-1.41.3-1.85.58c-.49.29-.86.71-1.1,1.27s-.36,1.27-.36,2.14.22,1.85.67,2.83,1.01,1.93,1.71,2.83h14.66v3.3h-19.63v-3.3h2.18c-.86-1.03-1.52-2.1-2-3.2s-.72-2.23-.72-3.39c0-2.12.64-3.74,1.92-4.85s3.12-1.67,5.52-1.67h12.74-.02,0Z" style="fill: #444;"/>
    <path d="M19.97,296.9v.18c-.12.49-.2.97-.25,1.43s-.08,1.01-.08,1.64c0,1.02.23,2,.68,2.95s1.03,1.86,1.75,2.74h13.94v3.3h-19.63v-3.3h2.9c-1.05-1.31-1.8-2.47-2.24-3.47s-.66-2.02-.66-3.07c0-.57.01-.99.04-1.25s.08-.64.17-1.16h3.39-.01Z" style="fill: #444;"/>
    <path d="M26.53,277.35v14.47c1.21,0,2.26-.18,3.16-.54s1.63-.86,2.21-1.49c.56-.61.98-1.33,1.27-2.17s.42-1.76.42-2.77c0-1.34-.27-2.68-.8-4.03s-1.06-2.32-1.57-2.89v-.18h3.6c.47,1.11.86,2.25,1.18,3.41s.47,2.38.47,3.66c0,3.26-.88,5.8-2.65,7.63s-4.27,2.74-7.51,2.74-5.76-.88-7.65-2.63-2.83-4.06-2.83-6.92c0-2.65.77-4.69,2.32-6.13s3.74-2.15,6.59-2.15h1.79ZM23.99,280.57c-1.73.01-3.08.45-4.03,1.31s-1.42,2.17-1.42,3.93.52,3.18,1.56,4.23,2.34,1.64,3.88,1.78v-11.25h.01Z" style="fill: #444;"/>
    <path d="M34.77,257.82c.53,1.1.94,2.15,1.23,3.14s.44,2.04.44,3.16c0,1.42-.21,2.72-.62,3.9s-1.05,2.2-1.89,3.04c-.84.86-1.91,1.52-3.2,1.99s-2.79.7-4.52.7c-3.21,0-5.73-.88-7.56-2.65s-2.74-4.09-2.74-6.99c0-1.12.16-2.23.47-3.31s.7-2.08,1.16-2.98h3.67v.18c-.79,1.01-1.39,2.05-1.81,3.12s-.63,2.12-.63,3.14c0,1.88.63,3.35,1.89,4.44s3.11,1.63,5.55,1.63,4.19-.53,5.46-1.59c1.27-1.06,1.91-2.55,1.91-4.47,0-.67-.09-1.35-.26-2.04s-.4-1.31-.69-1.86c-.25-.48-.51-.93-.78-1.35s-.51-.76-.71-1v-.18h3.64v-.02h-.01Z" style="fill: #444;"/>
    <path d="M36,238.33v3.29h-2.09c.2.29.48.69.83,1.19s.64.98.85,1.45c.27.55.5,1.18.68,1.9s.27,1.55.27,2.51c0,1.77-.59,3.27-1.76,4.5s-2.67,1.85-4.48,1.85c-1.49,0-2.69-.32-3.61-.96s-1.64-1.55-2.17-2.73c-.53-1.2-.88-2.63-1.07-4.31s-.33-3.47-.42-5.4h-.51c-.75,0-1.37.13-1.86.4s-.88.64-1.16,1.13c-.27.47-.45,1.03-.54,1.69s-.14,1.34-.14,2.06c0,.87.11,1.83.34,2.9s.56,2.17.99,3.3v.18h-3.36c-.18-.64-.37-1.58-.58-2.79s-.32-2.42-.32-3.6c0-1.38.11-2.59.34-3.61s.62-1.91,1.17-2.66c.54-.74,1.24-1.3,2.09-1.69s1.92-.58,3.18-.58h13.32v-.02h0ZM31.17,241.61h-5.47c.06,1.01.15,2.19.26,3.56s.29,2.45.51,3.24c.27.95.69,1.72,1.26,2.3s1.35.88,2.35.88c1.12,0,1.97-.34,2.54-1.02s.85-1.72.85-3.11c0-1.16-.23-2.22-.68-3.18s-.99-1.85-1.63-2.67h0Z" style="fill: #444;"/>
    <path d="M36,228.62v3.3H8.65v-3.3h27.35Z" style="fill: #444;"/>
    <path d="M36,218.74v3.3H8.65v-3.3h27.35Z" style="fill: #444;"/>
  </g>
</svg>