<?xml version="1.0" encoding="UTF-8"?>
<svg id="Layer_1" data-name="Layer 1" xmlns="http://www.w3.org/2000/svg" width="1000" height="800" xmlns:xlink="http://www.w3.org/1999/xlink" viewBox="0 0 1000 800">
  <defs>
    <clipPath id="clippath">
      <rect x="120" width="880" height="700" style="fill: none;"/>
    </clipPath>
    <clipPath id="clippath-1">
      <rect x="736" y="447" width="221" height="183" style="fill: none;"/>
    </clipPath>
    <clipPath id="clippath-2">
      <rect x="854.22" y="516.89" width="71.95" height="22.71" style="fill: none;"/>
    </clipPath>
    <clipPath id="clippath-3">
      <rect x="854.31" y="558.89" width="71.86" height="22.71" style="fill: none;"/>
    </clipPath>
    <clipPath id="clippath-4">
      <rect x="852.99" y="600.89" width="73.18" height="22.71" style="fill: none;"/>
    </clipPath>
  </defs>
  <polyline points="0 0 1000 0 1000 800 0 800 0 0" style="fill: #fff;"/>
  <polyline points="258.03 0 258.03 700 259.03 700 259.03 0" style="fill: #eee;"/>
  <polyline points="351.96 0 351.96 700 352.96 700 352.96 0" style="fill: #eee;"/>
  <polyline points="445.89 0 445.89 700 446.89 700 446.89 0" style="fill: #eee;"/>
  <polyline points="539.82 0 539.82 700 540.82 700 540.82 0" style="fill: #eee;"/>
  <polyline points="633.75 0 633.75 700 634.75 700 634.75 0" style="fill: #eee;"/>
  <polyline points="727.68 0 727.68 700 728.68 700 728.68 0" style="fill: #eee;"/>
  <polyline points="821.6 0 821.6 700 822.6 700 822.6 0 821.6 0" style="fill: #eee;"/>
  <polyline points="915.53 0 915.53 700 916.53 700 916.53 0" style="fill: #eee;"/>
  <polyline points="120 579.07 1000 579.07 1000 578.07 120 578.07 120 579.07" style="fill: #eee;"/>
  <polyline points="120 478.73 1000 478.73 1000 477.73 120 477.73" style="fill: #eee;"/>
  <polyline points="120 378.39 1000 378.39 1000 377.39 120 377.39" style="fill: #eee;"/>
  <polyline points="120 278.05 1000 278.05 1000 277.05 120 277.05" style="fill: #eee;"/>
  <polyline points="120 177.71 1000 177.71 1000 176.71 120 176.71" style="fill: #eee;"/>
  <polyline points="120 77.37 1000 77.37 1000 76.37 120 76.37" style="fill: #eee;"/>
  <polyline points="164.11 0 164.11 700 165.11 700 165.11 0" style="fill: #444;"/>
  <polyline points="120 679.41 1000 679.41 1000 678.41 120 678.41" style="fill: #444;"/>
  <g style="clip-path: url(#clippath);">
    <g>
      <circle cx="205.3" cy="604.96" r="4" style="fill: #636efa;"/>
      <circle cx="298.91" cy="520.55" r="4" style="fill: #636efa;"/>
      <circle cx="362.95" cy="442.82" r="4" style="fill: #636efa;"/>
      <circle cx="422.88" cy="350.48" r="4" style="fill: #636efa;"/>
      <circle cx="750.14" cy="124.9" r="4" style="fill: #636efa;"/>
      <circle cx="951" cy="40" r="4" style="fill: #636efa;"/>
      <circle cx="182.09" cy="633.81" r="4" style="fill: #00cc96;"/>
      <circle cx="195.22" cy="626.66" r="4" style="fill: #00cc96;"/>
      <circle cx="205.83" cy="585.97" r="4" style="fill: #00cc96;"/>
      <circle cx="225.54" cy="538.22" r="4" style="fill: #00cc96;"/>
      <circle cx="292.18" cy="454" r="4" style="fill: #00cc96;"/>
      <circle cx="340.98" cy="398.96" r="4" style="fill: #00cc96;"/>
      <circle cx="452.76" cy="312.25" r="4" style="fill: #00cc96;"/>
      <circle cx="560.97" cy="188.63" r="4" style="fill: #00cc96;"/>
      <circle cx="680.29" cy="165.99" r="4" style="fill: #00cc96;"/>
      <circle cx="169" cy="660" r="4" style="fill: #ab63fa;"/>
      <circle cx="170.63" cy="645.39" r="4" style="fill: #ab63fa;"/>
      <circle cx="172.03" cy="622.31" r="4" style="fill: #ab63fa;"/>
      <circle cx="187.58" cy="594.28" r="4" style="fill: #ab63fa;"/>
      <circle cx="198.88" cy="569.16" r="4" style="fill: #ab63fa;"/>
      <circle cx="221.4" cy="533.8" r="4" style="fill: #ab63fa;"/>
      <circle cx="232.93" cy="488.48" r="4" style="fill: #ab63fa;"/>
      <circle cx="268.52" cy="461.79" r="4" style="fill: #ab63fa;"/>
      <circle cx="317.79" cy="400.37" r="4" style="fill: #ab63fa;"/>
      <polygon points="206.64 606.45 300.36 521.94 364.57 444 424.34 351.9 751.11 126.66 951.78 41.84 950.22 38.16 749.17 123.14 421.42 349.06 361.33 441.64 297.46 519.16 203.96 603.47 206.64 606.45" style="fill: #636efa;"/>
      <polygon points="183.05 635.57 196.94 628 207.73 586.61 227.28 539.24 293.71 455.29 342.35 400.43 454.14 313.71 562.02 190.47 680.66 167.95 679.92 164.03 559.92 186.79 451.38 310.79 339.61 397.49 290.65 452.72 223.8 537.2 203.93 585.33 193.5 625.32 181.13 632.05 183.05 635.57" style="fill: #00cc96;"/>
      <polygon points="170.99 660.22 172.62 645.56 174 622.88 189.37 595.18 200.64 570.11 223.26 534.6 234.69 489.66 269.92 463.24 319.35 401.62 316.23 399.12 267.12 460.34 231.17 487.3 219.54 533 197.12 568.21 185.79 593.38 170.06 621.74 168.64 645.22 167.01 659.78 170.99 660.22" style="fill: #ab63fa;"/>
    </g>
  </g>
  <path d="M172.17,720.09c0,3.92-.61,6.79-1.84,8.62s-3.13,2.75-5.71,2.75-4.53-.93-5.73-2.78c-1.21-1.86-1.81-4.71-1.81-8.55s.61-6.74,1.83-8.59,3.12-2.78,5.71-2.78,4.53.94,5.73,2.82c1.21,1.88,1.81,4.72,1.81,8.52h0ZM168.32,726.74c.34-.79.57-1.72.7-2.79.12-1.07.18-2.36.18-3.86s-.06-2.77-.18-3.87-.36-2.02-.71-2.78c-.34-.75-.81-1.32-1.4-1.7s-1.35-.57-2.28-.57-1.68.19-2.28.57-1.08.96-1.43,1.73c-.33.72-.56,1.67-.68,2.83-.12,1.16-.18,2.44-.18,3.82,0,1.52.05,2.8.16,3.82s.34,1.94.69,2.75c.32.76.78,1.34,1.37,1.74s1.38.6,2.35.6c.92,0,1.68-.19,2.29-.57s1.07-.96,1.41-1.73h-.01Z" style="fill: #444;"/>
  <g>
    <path d="M241.56,720.09c0,3.92-.61,6.79-1.84,8.62s-3.13,2.75-5.71,2.75-4.53-.93-5.73-2.78c-1.21-1.86-1.81-4.71-1.81-8.55s.61-6.74,1.83-8.59,3.12-2.78,5.71-2.78,4.53.94,5.73,2.82c1.21,1.88,1.81,4.72,1.81,8.52h0ZM237.71,726.74c.34-.79.57-1.72.7-2.79.12-1.07.18-2.36.18-3.86s-.06-2.77-.18-3.87-.36-2.02-.71-2.78c-.34-.75-.81-1.32-1.4-1.7s-1.35-.57-2.28-.57-1.68.19-2.28.57-1.08.96-1.43,1.73c-.33.72-.56,1.67-.68,2.83-.12,1.16-.18,2.44-.18,3.82,0,1.52.05,2.8.16,3.82s.34,1.94.69,2.75c.32.76.78,1.34,1.37,1.74s1.38.6,2.35.6c.92,0,1.68-.19,2.29-.57s1.07-.96,1.41-1.73h-.01Z" style="fill: #444;"/>
    <path d="M250.74,731h-3.5v-4.17h3.5v4.17Z" style="fill: #444;"/>
    <path d="M271.54,720.09c0,3.92-.61,6.79-1.84,8.62s-3.13,2.75-5.71,2.75-4.53-.93-5.73-2.78c-1.21-1.86-1.81-4.71-1.81-8.55s.61-6.74,1.83-8.59,3.12-2.78,5.71-2.78,4.53.94,5.73,2.82c1.21,1.88,1.81,4.72,1.81,8.52h.01ZM267.69,726.74c.34-.79.57-1.72.7-2.79.12-1.07.18-2.36.18-3.86s-.06-2.77-.18-3.87-.36-2.02-.71-2.78c-.34-.75-.81-1.32-1.4-1.7s-1.35-.57-2.28-.57-1.68.19-2.28.57-1.08.96-1.43,1.73c-.33.72-.56,1.67-.68,2.83-.12,1.16-.18,2.44-.18,3.82,0,1.52.05,2.8.16,3.82s.34,1.94.69,2.75c.32.76.78,1.34,1.37,1.74s1.38.6,2.35.6c.92,0,1.68-.19,2.29-.57s1.07-.96,1.41-1.73h-.01Z" style="fill: #444;"/>
    <path d="M290.65,731h-14.77v-3.06c1.03-.88,2.05-1.76,3.08-2.64s1.99-1.75,2.88-2.62c1.88-1.82,3.16-3.26,3.85-4.33s1.04-2.22,1.04-3.46c0-1.13-.37-2.02-1.12-2.66-.75-.64-1.79-.96-3.13-.96-.89,0-1.85.16-2.89.47s-2.05.79-3.03,1.44h-.15v-3.08c.69-.34,1.62-.65,2.78-.94,1.16-.28,2.28-.42,3.36-.42,2.24,0,3.99.54,5.26,1.62s1.9,2.54,1.9,4.39c0,.83-.11,1.6-.31,2.32-.21.72-.52,1.4-.93,2.04-.38.61-.83,1.2-1.34,1.79-.51.59-1.13,1.24-1.87,1.95-1.04,1.03-2.12,2.02-3.24,2.98s-2.15,1.85-3.12,2.67h11.73v2.5h.02,0Z" style="fill: #444;"/>
  </g>
  <g>
    <path d="M335.49,720.09c0,3.92-.61,6.79-1.84,8.62s-3.13,2.75-5.71,2.75-4.53-.93-5.73-2.78c-1.21-1.86-1.81-4.71-1.81-8.55s.61-6.74,1.83-8.59,3.12-2.78,5.71-2.78,4.53.94,5.73,2.82c1.21,1.88,1.81,4.72,1.81,8.52h.01ZM331.64,726.74c.34-.79.57-1.72.7-2.79.12-1.07.18-2.36.18-3.86s-.06-2.77-.18-3.87-.36-2.02-.71-2.78c-.34-.75-.81-1.32-1.4-1.7s-1.35-.57-2.28-.57-1.68.19-2.28.57-1.08.96-1.43,1.73c-.33.72-.56,1.67-.68,2.83-.12,1.16-.18,2.44-.18,3.82,0,1.52.05,2.8.16,3.82s.34,1.94.69,2.75c.32.76.78,1.34,1.37,1.74s1.38.6,2.35.6c.92,0,1.68-.19,2.29-.57s1.07-.96,1.41-1.73h-.01Z" style="fill: #444;"/>
    <path d="M344.67,731h-3.5v-4.17h3.5v4.17Z" style="fill: #444;"/>
    <path d="M365.48,720.09c0,3.92-.61,6.79-1.84,8.62s-3.13,2.75-5.71,2.75-4.53-.93-5.73-2.78c-1.21-1.86-1.81-4.71-1.81-8.55s.61-6.74,1.83-8.59,3.12-2.78,5.71-2.78,4.53.94,5.73,2.82c1.21,1.88,1.81,4.72,1.81,8.52h.01ZM361.62,726.74c.34-.79.57-1.72.7-2.79.12-1.07.18-2.36.18-3.86s-.06-2.77-.18-3.87-.36-2.02-.71-2.78c-.34-.75-.81-1.32-1.4-1.7s-1.35-.57-2.28-.57-1.68.19-2.28.57-1.08.96-1.43,1.73c-.33.72-.56,1.67-.68,2.83-.12,1.16-.18,2.44-.18,3.82,0,1.52.05,2.8.16,3.82s.34,1.94.69,2.75c.32.76.78,1.34,1.37,1.74s1.38.6,2.35.6c.92,0,1.68-.19,2.29-.57s1.07-.96,1.41-1.73h-.01Z" style="fill: #444;"/>
    <path d="M385.07,724.86h-3.24v6.14h-2.81v-6.14h-10.44v-3.37l10.56-12.3h2.7v13.33h3.24v2.34h-.01ZM379.02,722.52v-9.84l-8.45,9.84h8.45Z" style="fill: #444;"/>
  </g>
  <g>
    <path d="M429.42,720.09c0,3.92-.61,6.79-1.84,8.62s-3.13,2.75-5.71,2.75-4.53-.93-5.73-2.78c-1.21-1.86-1.81-4.71-1.81-8.55s.61-6.74,1.83-8.59,3.12-2.78,5.71-2.78,4.53.94,5.73,2.82c1.21,1.88,1.81,4.72,1.81,8.52h.01ZM425.57,726.74c.34-.79.57-1.72.7-2.79.12-1.07.18-2.36.18-3.86s-.06-2.77-.18-3.87-.36-2.02-.71-2.78c-.34-.75-.81-1.32-1.4-1.7s-1.35-.57-2.28-.57-1.68.19-2.28.57-1.08.96-1.43,1.73c-.33.72-.56,1.67-.68,2.83-.12,1.16-.18,2.44-.18,3.82,0,1.52.05,2.8.16,3.82s.34,1.94.69,2.75c.32.76.78,1.34,1.37,1.74s1.38.6,2.35.6c.92,0,1.68-.19,2.29-.57s1.07-.96,1.41-1.73h-.01Z" style="fill: #444;"/>
    <path d="M438.6,731h-3.5v-4.17h3.5v4.17Z" style="fill: #444;"/>
    <path d="M459.41,720.09c0,3.92-.61,6.79-1.84,8.62s-3.13,2.75-5.71,2.75-4.53-.93-5.73-2.78c-1.21-1.86-1.81-4.71-1.81-8.55s.61-6.74,1.83-8.59,3.12-2.78,5.71-2.78,4.53.94,5.73,2.82c1.21,1.88,1.81,4.72,1.81,8.52h.01ZM455.55,726.74c.34-.79.57-1.72.7-2.79.12-1.07.18-2.36.18-3.86s-.06-2.77-.18-3.87-.36-2.02-.71-2.78c-.34-.75-.81-1.32-1.4-1.7s-1.35-.57-2.28-.57-1.68.19-2.28.57-1.08.96-1.43,1.73c-.33.72-.56,1.67-.68,2.83-.12,1.16-.18,2.44-.18,3.82,0,1.52.05,2.8.16,3.82s.34,1.94.69,2.75c.32.76.78,1.34,1.37,1.74s1.38.6,2.35.6c.92,0,1.68-.19,2.29-.57s1.07-.96,1.41-1.73h-.01Z" style="fill: #444;"/>
    <path d="M478.83,723.92c0,2.22-.73,4.03-2.19,5.43-1.46,1.4-3.25,2.1-5.37,2.1-1.07,0-2.05-.17-2.93-.5s-1.66-.83-2.33-1.48c-.84-.81-1.49-1.88-1.94-3.22-.45-1.34-.68-2.95-.68-4.83s.21-3.65.62-5.14,1.08-2.82,1.99-3.98c.86-1.1,1.97-1.96,3.33-2.58s2.94-.93,4.75-.93c.58,0,1.06.02,1.45.07s.79.14,1.19.26v2.8h-.15c-.27-.15-.69-.29-1.24-.42s-1.12-.2-1.69-.2c-2.1,0-3.77.66-5.02,1.97s-1.98,3.09-2.18,5.33c.82-.5,1.63-.88,2.42-1.14.8-.26,1.72-.39,2.76-.39.93,0,1.75.09,2.45.26s1.43.51,2.18,1.03c.86.6,1.51,1.35,1.94,2.26.43.91.65,2.01.65,3.31h-.01ZM475.86,724.04c0-.91-.13-1.66-.4-2.26-.27-.6-.71-1.11-1.33-1.55-.45-.31-.95-.52-1.49-.62s-1.12-.15-1.71-.15c-.83,0-1.6.1-2.31.29s-1.45.5-2.2.91c-.02.21-.03.42-.04.62,0,.2-.01.45-.01.75,0,1.54.16,2.76.48,3.66.32.89.75,1.6,1.31,2.12.45.43.93.75,1.46.94.52.2,1.09.3,1.71.3,1.42,0,2.53-.43,3.34-1.3.81-.86,1.22-2.11,1.22-3.73l-.03.02h0Z" style="fill: #444;"/>
  </g>
  <g>
    <path d="M523.35,720.09c0,3.92-.61,6.79-1.84,8.62-1.23,1.83-3.13,2.75-5.71,2.75s-4.53-.93-5.73-2.78c-1.21-1.86-1.81-4.71-1.81-8.55s.61-6.74,1.83-8.59,3.12-2.78,5.71-2.78,4.53.94,5.73,2.82c1.21,1.88,1.81,4.72,1.81,8.52h.01ZM519.5,726.74c.34-.79.57-1.72.7-2.79.12-1.07.18-2.36.18-3.86s-.06-2.77-.18-3.87-.36-2.02-.71-2.78c-.34-.75-.81-1.32-1.4-1.7s-1.35-.57-2.28-.57-1.68.19-2.28.57c-.6.38-1.08.96-1.43,1.73-.33.72-.56,1.67-.68,2.83-.12,1.16-.18,2.44-.18,3.82,0,1.52.05,2.8.16,3.82s.34,1.94.69,2.75c.32.76.78,1.34,1.37,1.74s1.38.6,2.35.6c.92,0,1.68-.19,2.29-.57s1.07-.96,1.41-1.73h0Z" style="fill: #444;"/>
    <path d="M532.53,731h-3.5v-4.17h3.5v4.17Z" style="fill: #444;"/>
    <path d="M553.33,720.09c0,3.92-.61,6.79-1.84,8.62-1.23,1.83-3.13,2.75-5.71,2.75s-4.53-.93-5.73-2.78c-1.21-1.86-1.81-4.71-1.81-8.55s.61-6.74,1.83-8.59,3.12-2.78,5.71-2.78,4.53.94,5.73,2.82c1.21,1.88,1.81,4.72,1.81,8.52h.01ZM549.48,726.74c.34-.79.57-1.72.7-2.79.12-1.07.18-2.36.18-3.86s-.06-2.77-.18-3.87-.36-2.02-.71-2.78c-.34-.75-.81-1.32-1.4-1.7s-1.35-.57-2.28-.57-1.68.19-2.28.57c-.6.38-1.08.96-1.43,1.73-.33.72-.56,1.67-.68,2.83-.12,1.16-.18,2.44-.18,3.82,0,1.52.05,2.8.16,3.82s.34,1.94.69,2.75c.32.76.78,1.34,1.37,1.74s1.38.6,2.35.6c.92,0,1.68-.19,2.29-.57s1.07-.96,1.41-1.73h0Z" style="fill: #444;"/>
    <path d="M572.6,724.92c0,1.88-.74,3.45-2.21,4.7s-3.32,1.88-5.54,1.88c-2.36,0-4.25-.61-5.65-1.83s-2.1-2.78-2.1-4.69c0-1.21.35-2.31,1.05-3.29s1.69-1.76,2.97-2.34v-.09c-1.17-.62-2.04-1.31-2.6-2.05s-.84-1.67-.84-2.78c0-1.64.67-3.01,2.02-4.1s3.06-1.64,5.14-1.64,3.92.52,5.21,1.57,1.95,2.37,1.95,3.98c0,.99-.31,1.96-.92,2.91-.62.95-1.52,1.7-2.71,2.23v.09c1.37.59,2.41,1.31,3.13,2.17s1.08,1.95,1.08,3.28h.02,0ZM569.58,725.2c0-.9-.2-1.62-.59-2.16s-1.17-1.09-2.32-1.63c-.46-.21-.96-.42-1.51-.6s-1.27-.44-2.18-.78c-.88.48-1.58,1.13-2.12,1.95-.53.82-.8,1.75-.8,2.78,0,1.32.45,2.41,1.36,3.27s2.06,1.29,3.46,1.29,2.57-.37,3.42-1.1,1.28-1.74,1.28-3.02h0ZM569.13,714.27c0-1.04-.4-1.88-1.21-2.5s-1.83-.93-3.08-.93-2.24.29-3.03.88-1.18,1.38-1.18,2.37c0,.7.2,1.31.59,1.82.4.51.99.97,1.79,1.37.36.18.88.41,1.56.69s1.34.52,1.98.7c.97-.64,1.64-1.31,2.01-2.01s.56-1.49.56-2.4h.01Z" style="fill: #444;"/>
  </g>
  <g>
    <path d="M626.82,720.09c0,3.92-.61,6.79-1.84,8.62-1.22,1.83-3.13,2.75-5.71,2.75s-4.53-.93-5.73-2.78c-1.21-1.86-1.81-4.71-1.81-8.55s.61-6.74,1.83-8.59,3.12-2.78,5.71-2.78,4.53.94,5.73,2.82c1.21,1.88,1.81,4.72,1.81,8.52h.01ZM622.96,726.74c.34-.79.57-1.72.7-2.79.12-1.07.18-2.36.18-3.86s-.06-2.77-.18-3.87c-.12-1.09-.36-2.02-.71-2.78-.34-.75-.81-1.32-1.4-1.7s-1.35-.57-2.28-.57-1.68.19-2.28.57c-.6.38-1.08.96-1.43,1.73-.33.72-.56,1.67-.68,2.83-.12,1.16-.18,2.44-.18,3.82,0,1.52.05,2.8.16,3.82s.34,1.94.69,2.75c.32.76.78,1.34,1.37,1.74.59.4,1.38.6,2.35.6.92,0,1.68-.19,2.29-.57s1.07-.96,1.41-1.73h0Z" style="fill: #444;"/>
    <path d="M636,731h-3.5v-4.17h3.5v4.17Z" style="fill: #444;"/>
    <path d="M655.59,731h-11.81v-2.23h4.54v-14.62h-4.54v-1.99c.62,0,1.27-.05,1.98-.15.7-.1,1.24-.25,1.6-.45.45-.24.8-.55,1.06-.93s.41-.88.45-1.52h2.27v19.66h4.45v2.23h0Z" style="fill: #444;"/>
  </g>
  <g>
    <path d="M711.21,720.09c0,3.92-.61,6.79-1.84,8.62-1.23,1.83-3.13,2.75-5.71,2.75s-4.53-.93-5.73-2.78c-1.21-1.86-1.81-4.71-1.81-8.55s.61-6.74,1.83-8.59,3.12-2.78,5.71-2.78,4.53.94,5.73,2.82c1.21,1.88,1.81,4.72,1.81,8.52h.01ZM707.36,726.74c.34-.79.57-1.72.7-2.79.12-1.07.18-2.36.18-3.86s-.06-2.77-.18-3.87-.36-2.02-.71-2.78c-.34-.75-.81-1.32-1.4-1.7s-1.35-.57-2.28-.57-1.68.19-2.28.57c-.6.38-1.08.96-1.43,1.73-.33.72-.56,1.67-.68,2.83-.12,1.16-.18,2.44-.18,3.82,0,1.52.05,2.8.16,3.82s.34,1.94.69,2.75c.32.76.78,1.34,1.37,1.74s1.38.6,2.35.6c.92,0,1.68-.19,2.29-.57s1.07-.96,1.41-1.73h0Z" style="fill: #444;"/>
    <path d="M720.39,731h-3.5v-4.17h3.5v4.17Z" style="fill: #444;"/>
    <path d="M739.98,731h-11.81v-2.23h4.54v-14.62h-4.54v-1.99c.62,0,1.27-.05,1.98-.15.7-.1,1.24-.25,1.6-.45.45-.24.8-.55,1.06-.93s.41-.88.45-1.52h2.27v19.66h4.45v2.23h0Z" style="fill: #444;"/>
    <path d="M760.3,731h-14.77v-3.06c1.03-.88,2.05-1.76,3.08-2.64s1.99-1.75,2.88-2.62c1.88-1.82,3.16-3.26,3.85-4.33s1.04-2.22,1.04-3.46c0-1.13-.37-2.02-1.12-2.66-.75-.64-1.79-.96-3.13-.96-.89,0-1.85.16-2.89.47s-2.05.79-3.03,1.44h-.15v-3.08c.69-.34,1.62-.65,2.78-.94,1.16-.28,2.28-.42,3.36-.42,2.24,0,3.99.54,5.26,1.62s1.9,2.54,1.9,4.39c0,.83-.11,1.6-.31,2.32-.21.72-.52,1.4-.93,2.04-.38.61-.83,1.2-1.34,1.79-.51.59-1.13,1.24-1.87,1.95-1.04,1.03-2.12,2.02-3.24,2.98s-2.15,1.85-3.12,2.67h11.73v2.5h.02Z" style="fill: #444;"/>
  </g>
  <g>
    <path d="M805.13,720.09c0,3.92-.61,6.79-1.84,8.62-1.23,1.83-3.13,2.75-5.71,2.75s-4.53-.93-5.73-2.78c-1.21-1.86-1.81-4.71-1.81-8.55s.61-6.74,1.83-8.59,3.12-2.78,5.71-2.78,4.53.94,5.73,2.82c1.21,1.88,1.81,4.72,1.81,8.52h.01ZM801.28,726.74c.34-.79.57-1.72.7-2.79.12-1.07.18-2.36.18-3.86s-.06-2.77-.18-3.87-.36-2.02-.71-2.78c-.34-.75-.81-1.32-1.4-1.7s-1.35-.57-2.28-.57-1.68.19-2.28.57c-.6.38-1.08.96-1.43,1.73-.33.72-.56,1.67-.68,2.83-.12,1.16-.18,2.44-.18,3.82,0,1.52.05,2.8.16,3.82s.34,1.94.69,2.75c.32.76.78,1.34,1.37,1.74s1.38.6,2.35.6c.92,0,1.68-.19,2.29-.57s1.07-.96,1.41-1.73h0Z" style="fill: #444;"/>
    <path d="M814.31,731h-3.5v-4.17h3.5v4.17Z" style="fill: #444;"/>
    <path d="M833.9,731h-11.81v-2.23h4.54v-14.62h-4.54v-1.99c.62,0,1.27-.05,1.98-.15.7-.1,1.24-.25,1.6-.45.45-.24.8-.55,1.06-.93s.41-.88.45-1.52h2.27v19.66h4.45v2.23h0Z" style="fill: #444;"/>
    <path d="M854.71,724.86h-3.24v6.14h-2.81v-6.14h-10.44v-3.37l10.56-12.3h2.7v13.33h3.24v2.34h-.01ZM848.67,722.52v-9.84l-8.45,9.84h8.45Z" style="fill: #444;"/>
  </g>
  <g>
    <path d="M899.06,720.09c0,3.92-.61,6.79-1.84,8.62-1.23,1.83-3.13,2.75-5.71,2.75s-4.53-.93-5.73-2.78c-1.21-1.86-1.81-4.71-1.81-8.55s.61-6.74,1.83-8.59,3.12-2.78,5.71-2.78,4.53.94,5.73,2.82c1.21,1.88,1.81,4.72,1.81,8.52h.01ZM895.21,726.74c.34-.79.57-1.72.7-2.79.12-1.07.18-2.36.18-3.86s-.06-2.77-.18-3.87-.36-2.02-.71-2.78c-.34-.75-.81-1.32-1.4-1.7s-1.35-.57-2.28-.57-1.68.19-2.28.57c-.6.38-1.08.96-1.43,1.73-.33.72-.56,1.67-.68,2.83-.12,1.16-.18,2.44-.18,3.82,0,1.52.05,2.8.16,3.82s.34,1.94.69,2.75c.32.76.78,1.34,1.37,1.74s1.38.6,2.35.6c.92,0,1.68-.19,2.29-.57s1.07-.96,1.41-1.73h0Z" style="fill: #444;"/>
    <path d="M908.24,731h-3.5v-4.17h3.5v4.17Z" style="fill: #444;"/>
    <path d="M927.83,731h-11.81v-2.23h4.54v-14.62h-4.54v-1.99c.62,0,1.27-.05,1.98-.15.7-.1,1.24-.25,1.6-.45.45-.24.8-.55,1.06-.93s.41-.88.45-1.52h2.27v19.66h4.45v2.23h0Z" style="fill: #444;"/>
    <path d="M948.47,723.92c0,2.22-.73,4.03-2.19,5.43-1.46,1.4-3.25,2.1-5.37,2.1-1.07,0-2.05-.17-2.93-.5s-1.66-.83-2.33-1.48c-.84-.81-1.49-1.88-1.94-3.22-.45-1.34-.68-2.95-.68-4.83s.21-3.65.62-5.14,1.08-2.82,1.99-3.98c.86-1.1,1.97-1.96,3.33-2.58s2.94-.93,4.75-.93c.58,0,1.06.02,1.45.07s.79.14,1.19.26v2.8h-.15c-.27-.15-.69-.29-1.24-.42s-1.12-.2-1.69-.2c-2.1,0-3.77.66-5.02,1.97s-1.98,3.09-2.18,5.33c.82-.5,1.63-.88,2.42-1.14.8-.26,1.72-.39,2.76-.39.93,0,1.75.09,2.45.26s1.43.51,2.18,1.03c.86.6,1.51,1.35,1.94,2.26.43.91.65,2.01.65,3.31h-.01ZM945.5,724.04c0-.91-.13-1.66-.4-2.26-.27-.6-.71-1.11-1.33-1.55-.45-.31-.95-.52-1.49-.62s-1.12-.15-1.71-.15c-.83,0-1.6.1-2.31.29s-1.45.5-2.2.91c-.02.21-.03.42-.04.62,0,.2-.01.45-.01.75,0,1.54.16,2.76.48,3.66.32.89.75,1.6,1.31,2.12.45.43.93.75,1.46.94.52.2,1.09.3,1.71.3,1.42,0,2.53-.43,3.34-1.3.81-.86,1.22-2.11,1.22-3.73l-.03.02h0Z" style="fill: #444;"/>
  </g>
  <path d="M117.02,678.5c0,3.92-.61,6.79-1.84,8.62-1.23,1.83-3.13,2.75-5.71,2.75s-4.53-.93-5.73-2.78c-1.21-1.86-1.81-4.71-1.81-8.55s.61-6.74,1.83-8.59,3.12-2.78,5.71-2.78,4.53.94,5.73,2.82c1.21,1.88,1.81,4.72,1.81,8.52h0ZM113.17,685.15c.34-.79.57-1.72.7-2.79.12-1.07.18-2.36.18-3.86s-.06-2.77-.18-3.87-.36-2.02-.71-2.78c-.34-.75-.81-1.32-1.4-1.7s-1.35-.57-2.28-.57-1.68.19-2.28.57-1.08.96-1.43,1.73c-.33.72-.56,1.67-.68,2.83-.12,1.16-.18,2.44-.18,3.82,0,1.52.05,2.8.16,3.82s.34,1.94.69,2.75c.32.76.78,1.34,1.37,1.74s1.38.6,2.35.6c.92,0,1.68-.19,2.29-.57s1.07-.96,1.41-1.73h-.01Z" style="fill: #444;"/>
  <g>
    <path d="M87.04,578.16c0,3.92-.61,6.79-1.84,8.62-1.23,1.83-3.13,2.75-5.71,2.75s-4.53-.93-5.73-2.78c-1.21-1.86-1.81-4.71-1.81-8.55s.61-6.74,1.83-8.59,3.12-2.78,5.71-2.78,4.53.94,5.73,2.82c1.21,1.88,1.81,4.72,1.81,8.52h0ZM83.18,584.81c.34-.79.57-1.72.7-2.79.12-1.07.18-2.36.18-3.86s-.06-2.77-.18-3.87-.36-2.02-.71-2.78c-.34-.75-.81-1.32-1.4-1.7s-1.35-.57-2.28-.57-1.68.19-2.28.57-1.08.96-1.43,1.73c-.33.72-.56,1.67-.68,2.83-.12,1.16-.18,2.44-.18,3.82,0,1.52.05,2.8.16,3.82s.34,1.94.69,2.75c.32.76.78,1.34,1.37,1.74s1.38.6,2.35.6c.92,0,1.68-.19,2.29-.57s1.07-.96,1.41-1.73h-.01Z" style="fill: #444;"/>
    <path d="M96.22,589.07h-3.5v-4.17h3.5v4.17Z" style="fill: #444;"/>
    <path d="M115.81,589.07h-11.81v-2.23h4.54v-14.62h-4.54v-1.99c.62,0,1.27-.05,1.98-.15.7-.1,1.24-.25,1.6-.45.45-.24.8-.55,1.06-.93.26-.38.41-.88.45-1.52h2.27v19.66h4.45v2.23h0Z" style="fill: #444;"/>
  </g>
  <g>
    <path d="M87.04,477.82c0,3.92-.61,6.79-1.84,8.62-1.23,1.83-3.13,2.75-5.71,2.75s-4.53-.93-5.73-2.78c-1.21-1.86-1.81-4.71-1.81-8.55s.61-6.74,1.83-8.59,3.12-2.78,5.71-2.78,4.53.94,5.73,2.82c1.21,1.88,1.81,4.72,1.81,8.52h0ZM83.18,484.47c.34-.79.57-1.72.7-2.79.12-1.07.18-2.36.18-3.86s-.06-2.77-.18-3.87-.36-2.02-.71-2.78c-.34-.75-.81-1.32-1.4-1.7s-1.35-.57-2.28-.57-1.68.19-2.28.57-1.08.96-1.43,1.73c-.33.72-.56,1.67-.68,2.83-.12,1.16-.18,2.44-.18,3.82,0,1.52.05,2.8.16,3.82s.34,1.94.69,2.75c.32.76.78,1.34,1.37,1.74s1.38.6,2.35.6c.92,0,1.68-.19,2.29-.57s1.07-.96,1.41-1.73h-.01Z" style="fill: #444;"/>
    <path d="M96.22,488.73h-3.5v-4.17h3.5v4.17Z" style="fill: #444;"/>
    <path d="M117.05,488.73h-14.77v-3.06c1.03-.88,2.05-1.76,3.08-2.64s1.99-1.75,2.88-2.62c1.88-1.82,3.16-3.26,3.85-4.33.69-1.07,1.04-2.22,1.04-3.46,0-1.13-.37-2.02-1.12-2.66s-1.79-.96-3.13-.96c-.89,0-1.85.16-2.89.47s-2.05.79-3.03,1.44h-.15v-3.08c.69-.34,1.62-.65,2.78-.94,1.16-.28,2.28-.42,3.36-.42,2.24,0,3.99.54,5.26,1.62s1.9,2.54,1.9,4.39c0,.83-.11,1.6-.31,2.32-.21.72-.52,1.4-.93,2.04-.38.61-.83,1.2-1.34,1.79-.51.59-1.13,1.24-1.87,1.95-1.04,1.03-2.12,2.02-3.24,2.98s-2.15,1.85-3.12,2.67h11.73v2.5h.02Z" style="fill: #444;"/>
  </g>
  <g>
    <path d="M87.04,377.48c0,3.92-.61,6.79-1.84,8.62s-3.13,2.75-5.71,2.75-4.53-.93-5.73-2.78c-1.21-1.86-1.81-4.71-1.81-8.55s.61-6.74,1.83-8.59,3.12-2.78,5.71-2.78,4.53.94,5.73,2.82,1.81,4.72,1.81,8.52h0ZM83.18,384.13c.34-.79.57-1.72.7-2.79s.18-2.36.18-3.86-.06-2.77-.18-3.87-.36-2.02-.71-2.78c-.34-.75-.81-1.32-1.4-1.7s-1.35-.57-2.28-.57-1.68.19-2.28.57-1.08.96-1.43,1.73c-.33.72-.56,1.67-.68,2.83-.12,1.16-.18,2.44-.18,3.82,0,1.52.05,2.8.16,3.82s.34,1.94.69,2.75c.32.76.78,1.34,1.37,1.74s1.38.6,2.35.6c.92,0,1.68-.19,2.29-.57s1.07-.96,1.41-1.73h-.01Z" style="fill: #444;"/>
    <path d="M96.22,388.39h-3.5v-4.17h3.5v4.17Z" style="fill: #444;"/>
    <path d="M115.13,377.89c.47.42.85.95,1.16,1.58s.45,1.46.45,2.46-.18,1.91-.54,2.74-.87,1.55-1.52,2.17c-.73.68-1.59,1.19-2.58,1.52-.99.33-2.08.49-3.26.49s-2.4-.14-3.57-.43-2.13-.6-2.89-.94v-3.06h.22c.83.55,1.81,1,2.93,1.36s2.21.54,3.25.54c.62,0,1.27-.1,1.96-.31s1.25-.51,1.68-.91c.45-.43.78-.9,1-1.42.22-.52.33-1.17.33-1.96s-.12-1.43-.37-1.94-.59-.92-1.03-1.21c-.44-.3-.97-.51-1.6-.62s-1.3-.17-2.02-.17h-1.32v-2.43h1.03c1.48,0,2.67-.31,3.55-.93s1.33-1.53,1.33-2.72c0-.53-.11-.99-.34-1.38s-.54-.72-.94-.97c-.42-.25-.87-.43-1.35-.53s-1.02-.15-1.63-.15c-.93,0-1.91.17-2.96.5s-2.03.8-2.96,1.41h-.15v-3.06c.69-.34,1.62-.66,2.78-.94,1.16-.29,2.28-.43,3.36-.43s2,.1,2.81.29,1.54.51,2.2.94c.7.47,1.24,1.04,1.6,1.7s.54,1.44.54,2.33c0,1.21-.43,2.27-1.28,3.17s-1.86,1.47-3.02,1.71v.21c.47.08,1.01.24,1.61.49s1.12.56,1.54.93v-.03h0Z" style="fill: #444;"/>
  </g>
  <g>
    <path d="M87.04,277.14c0,3.92-.61,6.79-1.84,8.62s-3.13,2.75-5.71,2.75-4.53-.93-5.73-2.78c-1.21-1.86-1.81-4.71-1.81-8.55s.61-6.74,1.83-8.59,3.12-2.78,5.71-2.78,4.53.94,5.73,2.82,1.81,4.72,1.81,8.52h0ZM83.18,283.79c.34-.79.57-1.72.7-2.79s.18-2.36.18-3.86-.06-2.77-.18-3.87-.36-2.02-.71-2.78c-.34-.75-.81-1.32-1.4-1.7s-1.35-.57-2.28-.57-1.68.19-2.28.57-1.08.96-1.43,1.73c-.33.72-.56,1.67-.68,2.83-.12,1.16-.18,2.44-.18,3.82,0,1.52.05,2.8.16,3.82s.34,1.94.69,2.75c.32.76.78,1.34,1.37,1.74s1.38.6,2.35.6c.92,0,1.68-.19,2.29-.57s1.07-.96,1.41-1.73h-.01Z" style="fill: #444;"/>
    <path d="M96.22,288.05h-3.5v-4.17h3.5v4.17Z" style="fill: #444;"/>
    <path d="M117.55,281.91h-3.24v6.14h-2.81v-6.14h-10.44v-3.37l10.56-12.3h2.7v13.33h3.24v2.34h0ZM111.5,279.57v-9.84l-8.45,9.84h8.45Z" style="fill: #444;"/>
  </g>
  <g>
    <path d="M87.04,176.8c0,3.92-.61,6.79-1.84,8.62s-3.13,2.75-5.71,2.75-4.53-.93-5.73-2.78c-1.21-1.86-1.81-4.71-1.81-8.55s.61-6.74,1.83-8.59,3.12-2.78,5.71-2.78,4.53.94,5.73,2.82,1.81,4.72,1.81,8.52h0ZM83.18,183.45c.34-.79.57-1.72.7-2.79s.18-2.36.18-3.86-.06-2.77-.18-3.87-.36-2.02-.71-2.78c-.34-.75-.81-1.32-1.4-1.7s-1.35-.57-2.28-.57-1.68.19-2.28.57-1.08.96-1.43,1.73c-.33.72-.56,1.67-.68,2.83s-.18,2.44-.18,3.82c0,1.52.05,2.8.16,3.82s.34,1.94.69,2.75c.32.76.78,1.34,1.37,1.74s1.38.6,2.35.6c.92,0,1.68-.19,2.29-.57s1.07-.96,1.41-1.73h-.01Z" style="fill: #444;"/>
    <path d="M96.22,187.71h-3.5v-4.17h3.5v4.17Z" style="fill: #444;"/>
    <path d="M116.88,180.78c0,1.02-.19,1.99-.56,2.92s-.88,1.71-1.52,2.34c-.7.68-1.54,1.21-2.51,1.57s-2.1.55-3.38.55c-1.19,0-2.34-.12-3.44-.37s-2.04-.55-2.8-.9v-3.09h.21c.8.51,1.74.94,2.81,1.3s2.13.53,3.16.53c.69,0,1.36-.1,2.01-.29.65-.2,1.23-.54,1.74-1.03.43-.42.75-.92.97-1.51s.33-1.26.33-2.04-.13-1.39-.39-1.9-.62-.93-1.08-1.25c-.51-.37-1.13-.63-1.85-.78s-1.54-.23-2.44-.23-1.69.06-2.48.18-1.48.23-2.06.35v-11.24h13.12v2.56h-10.3v5.8c.42-.04.85-.07,1.29-.09s.82-.03,1.14-.03c1.18,0,2.22.1,3.11.3s1.7.55,2.45,1.06c.78.54,1.39,1.23,1.82,2.08s.64,1.91.64,3.19v.02h.01Z" style="fill: #444;"/>
  </g>
  <g>
    <path d="M87.04,76.46c0,3.92-.61,6.79-1.84,8.62s-3.13,2.75-5.71,2.75-4.53-.93-5.73-2.78c-1.21-1.86-1.81-4.71-1.81-8.55s.61-6.74,1.83-8.59,3.12-2.78,5.71-2.78,4.53.94,5.73,2.82,1.81,4.72,1.81,8.52h0ZM83.18,83.11c.34-.79.57-1.72.7-2.79s.18-2.36.18-3.86-.06-2.77-.18-3.87-.36-2.02-.71-2.78c-.34-.75-.81-1.32-1.4-1.7s-1.35-.57-2.28-.57-1.68.19-2.28.57-1.08.96-1.43,1.73c-.33.72-.56,1.67-.68,2.83s-.18,2.44-.18,3.82c0,1.52.05,2.8.16,3.82s.34,1.94.69,2.75c.32.76.78,1.34,1.37,1.74s1.38.6,2.35.6c.92,0,1.68-.19,2.29-.57s1.07-.96,1.41-1.73h-.01Z" style="fill: #444;"/>
    <path d="M96.22,87.37h-3.5v-4.17h3.5v4.17Z" style="fill: #444;"/>
    <path d="M117.37,80.29c0,2.22-.73,4.03-2.19,5.43s-3.25,2.1-5.37,2.1c-1.07,0-2.05-.17-2.93-.5s-1.66-.83-2.33-1.48c-.84-.81-1.49-1.88-1.94-3.22-.45-1.34-.68-2.95-.68-4.83s.21-3.65.62-5.14,1.08-2.82,1.99-3.98c.86-1.1,1.97-1.97,3.33-2.59s2.94-.93,4.75-.93c.58,0,1.06.02,1.45.07s.79.14,1.19.26v2.8h-.15c-.27-.15-.69-.29-1.24-.42s-1.12-.2-1.69-.2c-2.1,0-3.77.66-5.02,1.97s-1.98,3.09-2.18,5.32c.82-.5,1.63-.88,2.42-1.14s1.72-.39,2.76-.39c.93,0,1.75.09,2.45.26s1.43.52,2.18,1.03c.86.6,1.51,1.35,1.94,2.26s.65,2.01.65,3.31h0ZM114.4,80.41c0-.91-.13-1.66-.4-2.26-.27-.6-.71-1.11-1.33-1.55-.45-.31-.95-.52-1.49-.62s-1.12-.15-1.71-.15c-.83,0-1.6.1-2.31.29s-1.45.5-2.2.91c-.02.21-.03.42-.04.62s-.01.45-.01.75c0,1.54.16,2.76.48,3.65s.75,1.6,1.31,2.12c.45.43.93.74,1.46.94.52.2,1.09.3,1.71.3,1.42,0,2.53-.43,3.34-1.3s1.22-2.11,1.22-3.73l-.03.03Z" style="fill: #444;"/>
  </g>
  <polyline points="736 447 957 447 957 630 736 630 736 447" style="fill: #fff;"/>
  <g style="clip-path: url(#clippath-1);">
    <g>
      <g>
        <path d="M761.54,493.8h-3.48v-12.81h-13.06v12.81h-3.48v-26.17h3.48v10.27h13.06v-10.27h3.48v26.17Z" style="fill: #444;"/>
        <path d="M783.56,493.8h-3.29v-2.09c-.29.2-.69.48-1.19.83s-.98.64-1.45.85c-.55.27-1.18.5-1.9.68s-1.55.27-2.51.27c-1.77,0-3.27-.59-4.5-1.76s-1.85-2.67-1.85-4.48c0-1.49.32-2.69.96-3.61s1.55-1.64,2.73-2.17c1.2-.53,2.63-.88,4.31-1.07s3.47-.33,5.4-.42v-.51c0-.75-.13-1.37-.4-1.86s-.64-.88-1.13-1.16c-.47-.27-1.03-.45-1.69-.54s-1.34-.14-2.06-.14c-.87,0-1.83.11-2.9.34s-2.17.56-3.3.99h-.18v-3.36c.64-.18,1.58-.37,2.79-.58s2.42-.32,3.6-.32c1.38,0,2.59.11,3.61.34s1.91.62,2.66,1.17c.74.54,1.3,1.24,1.69,2.09s.58,1.92.58,3.18v13.32h.02ZM780.28,488.97v-5.47c-1.01.06-2.19.15-3.56.26s-2.45.29-3.24.51c-.95.27-1.72.69-2.3,1.26s-.88,1.35-.88,2.35c0,1.12.34,1.97,1.02,2.54s1.72.85,3.11.85c1.16,0,2.22-.23,3.18-.68s1.85-.99,2.67-1.63h0Z" style="fill: #444;"/>
        <path d="M803.95,488.14c0,1.79-.74,3.26-2.22,4.41s-3.51,1.72-6.07,1.72c-1.45,0-2.79-.17-4-.52s-2.23-.72-3.05-1.13v-3.71h.18c1.04.79,2.2,1.41,3.48,1.87s2.5.69,3.67.69c1.45,0,2.59-.23,3.41-.7s1.23-1.21,1.23-2.21c0-.77-.22-1.36-.67-1.76s-1.3-.74-2.57-1.02c-.47-.11-1.08-.23-1.84-.37s-1.44-.29-2.07-.46c-1.72-.46-2.94-1.13-3.67-2.01s-1.08-1.97-1.08-3.26c0-.81.17-1.57.5-2.29s.84-1.35,1.52-1.92c.66-.55,1.49-.99,2.5-1.31s2.15-.48,3.4-.48c1.17,0,2.36.14,3.56.43s2.2.64,3,1.05v3.53h-.18c-.84-.62-1.87-1.15-3.08-1.57s-2.39-.64-3.55-.64-2.23.23-3.06.69-1.25,1.15-1.25,2.07c0,.81.25,1.42.76,1.83.49.41,1.29.74,2.39,1,.61.14,1.29.28,2.05.42s1.39.27,1.89.39c1.54.35,2.72.96,3.55,1.81.83.87,1.25,2.02,1.25,3.45h.02Z" style="fill: #444;"/>
        <path d="M825.1,493.8h-3.3v-11.18c0-.9-.05-1.75-.16-2.54s-.3-1.41-.58-1.85c-.29-.49-.71-.86-1.27-1.1s-1.27-.36-2.14-.36-1.85.22-2.83.67-1.93,1.01-2.83,1.71v14.66h-3.3v-27.35h3.3v9.9c1.03-.86,2.1-1.52,3.2-2s2.23-.72,3.39-.72c2.12,0,3.74.64,4.85,1.92s1.67,3.12,1.67,5.52v12.74-.02h0Z" style="fill: #444;"/>
        <path d="M847.46,493.8h-3.3v-27.35h3.3v27.35Z" style="fill: #444;"/>
        <path d="M870.43,484.33h-14.47c0,1.21.18,2.26.54,3.16s.86,1.63,1.49,2.21c.61.56,1.33.98,2.17,1.27s1.76.42,2.77.42c1.34,0,2.68-.27,4.03-.8s2.32-1.06,2.89-1.57h.18v3.6c-1.11.47-2.25.86-3.41,1.18s-2.38.47-3.66.47c-3.26,0-5.8-.88-7.63-2.65s-2.74-4.27-2.74-7.51.88-5.76,2.63-7.65,4.06-2.83,6.92-2.83c2.65,0,4.69.77,6.13,2.32s2.15,3.74,2.15,6.59v1.79h0ZM867.22,481.79c-.01-1.73-.45-3.08-1.31-4.03s-2.17-1.42-3.93-1.42-3.18.52-4.23,1.56-1.64,2.34-1.78,3.88h11.25Z" style="fill: #444;"/>
        <path d="M891.86,493.8h-3.3v-11.18c0-.9-.05-1.75-.16-2.54s-.3-1.41-.58-1.85c-.29-.49-.71-.86-1.27-1.1s-1.27-.36-2.14-.36-1.85.22-2.83.67-1.93,1.01-2.83,1.71v14.66h-3.3v-19.63h3.3v2.18c1.03-.86,2.1-1.52,3.2-2s2.23-.72,3.39-.72c2.12,0,3.74.64,4.85,1.92s1.67,3.12,1.67,5.52v12.74-.02h0Z" style="fill: #444;"/>
        <path d="M914.15,491.57c0,3.33-.76,5.77-2.27,7.33s-3.84,2.34-6.98,2.34c-1.04,0-2.06-.07-3.05-.22s-1.97-.35-2.93-.62v-3.38h.18c.54.21,1.39.47,2.57.78s2.34.47,3.52.47,2.06-.13,2.79-.4,1.31-.64,1.72-1.12c.41-.46.7-1.01.88-1.65s.26-1.37.26-2.16v-1.79c-1,.8-1.95,1.39-2.86,1.78s-2.07.59-3.47.59c-2.34,0-4.2-.85-5.58-2.54s-2.07-4.08-2.07-7.16c0-1.69.24-3.14.71-4.37s1.12-2.28,1.94-3.17c.76-.83,1.69-1.48,2.78-1.94s2.17-.69,3.25-.69c1.14,0,2.09.11,2.86.34s1.58.58,2.43,1.05l.21-.84h3.09v17.4l.02-.03h0ZM910.85,488.4v-10.71c-.88-.4-1.7-.68-2.45-.85s-1.51-.25-2.26-.25c-1.82,0-3.25.61-4.29,1.83s-1.56,2.99-1.56,5.31.39,3.87,1.16,5.01,2.06,1.71,3.85,1.71c.96,0,1.92-.18,2.89-.55s1.85-.86,2.66-1.49h0Z" style="fill: #444;"/>
        <path d="M930.85,493.62c-.62.16-1.3.3-2.03.4s-1.39.16-1.96.16c-2,0-3.53-.54-4.57-1.62s-1.56-2.81-1.56-5.19v-10.44h-2.23v-2.78h2.23v-5.64h3.3v5.64h6.82v2.78h-6.82v8.95c0,1.03.02,1.84.07,2.42s.21,1.12.49,1.63c.26.47.61.81,1.06,1.03s1.14.33,2.07.33c.54,0,1.1-.08,1.69-.24s1.01-.29,1.27-.4h.18v2.97h0Z" style="fill: #444;"/>
        <path d="M951.26,493.8h-3.3v-11.18c0-.9-.05-1.75-.16-2.54s-.3-1.41-.58-1.85c-.29-.49-.71-.86-1.27-1.1s-1.27-.36-2.14-.36-1.85.22-2.83.67-1.93,1.01-2.83,1.71v14.66h-3.3v-27.35h3.3v9.9c1.03-.86,2.1-1.52,3.2-2s2.23-.72,3.39-.72c2.12,0,3.74.64,4.85,1.92s1.67,3.12,1.67,5.52v12.74-.02h0Z" style="fill: #444;"/>
      </g>
      <g style="clip-path: url(#clippath-2);">
        <g>
          <rect x="854.22" y="516.89" width="71.95" height="22.71" style="fill: #fff;"/>
          <g>
            <path d="M868.97,539.15h-14.77v-3.06c1.03-.88,2.05-1.76,3.08-2.64s1.99-1.75,2.88-2.62c1.88-1.82,3.16-3.26,3.85-4.33s1.04-2.22,1.04-3.46c0-1.13-.37-2.02-1.12-2.66-.75-.64-1.79-.96-3.13-.96-.89,0-1.85.16-2.89.47s-2.05.79-3.03,1.44h-.15v-3.08c.69-.34,1.62-.65,2.78-.94,1.16-.28,2.28-.42,3.36-.42,2.24,0,3.99.54,5.26,1.62s1.9,2.54,1.9,4.39c0,.83-.11,1.6-.31,2.32-.21.72-.52,1.4-.93,2.04-.38.61-.83,1.2-1.34,1.79-.51.59-1.13,1.24-1.87,1.95-1.04,1.03-2.12,2.02-3.24,2.98s-2.15,1.85-3.12,2.67h11.73v2.5h.02Z" style="fill: #444;"/>
            <path d="M888.02,528.24c0,3.92-.61,6.79-1.84,8.62-1.23,1.83-3.13,2.75-5.71,2.75s-4.53-.93-5.73-2.78c-1.21-1.86-1.81-4.71-1.81-8.55s.61-6.74,1.83-8.59,3.12-2.78,5.71-2.78,4.53.94,5.73,2.82c1.21,1.88,1.81,4.72,1.81,8.52h.01ZM884.16,534.89c.34-.79.57-1.72.7-2.79.12-1.07.18-2.36.18-3.86s-.06-2.77-.18-3.87-.36-2.02-.71-2.78c-.34-.75-.81-1.32-1.4-1.7s-1.35-.57-2.28-.57-1.68.19-2.28.57c-.6.38-1.08.96-1.43,1.73-.33.72-.56,1.67-.68,2.83-.12,1.16-.18,2.44-.18,3.82,0,1.52.05,2.8.16,3.82s.34,1.94.69,2.75c.32.76.78,1.34,1.37,1.74s1.38.6,2.35.6c.92,0,1.68-.19,2.29-.57s1.07-.96,1.41-1.73h0Z" style="fill: #444;"/>
            <path d="M907.09,528.24c0,3.92-.61,6.79-1.84,8.62-1.23,1.83-3.13,2.75-5.71,2.75s-4.53-.93-5.73-2.78c-1.21-1.86-1.81-4.71-1.81-8.55s.61-6.74,1.83-8.59,3.12-2.78,5.71-2.78,4.53.94,5.73,2.82c1.21,1.88,1.81,4.72,1.81,8.52h.01ZM903.24,534.89c.34-.79.57-1.72.7-2.79.12-1.07.18-2.36.18-3.86s-.06-2.77-.18-3.87-.36-2.02-.71-2.78c-.34-.75-.81-1.32-1.4-1.7s-1.35-.57-2.28-.57-1.68.19-2.28.57c-.6.38-1.08.96-1.43,1.73-.33.72-.56,1.67-.68,2.83-.12,1.16-.18,2.44-.18,3.82,0,1.52.05,2.8.16,3.82s.34,1.94.69,2.75c.32.76.78,1.34,1.37,1.74s1.38.6,2.35.6c.92,0,1.68-.19,2.29-.57s1.07-.96,1.41-1.73h0Z" style="fill: #444;"/>
            <path d="M926.16,528.24c0,3.92-.61,6.79-1.84,8.62-1.23,1.83-3.13,2.75-5.71,2.75s-4.53-.93-5.73-2.78c-1.21-1.86-1.81-4.71-1.81-8.55s.61-6.74,1.83-8.59,3.12-2.78,5.71-2.78,4.53.94,5.73,2.82c1.21,1.88,1.81,4.72,1.81,8.52h.01ZM922.31,534.89c.34-.79.57-1.72.7-2.79.12-1.07.18-2.36.18-3.86s-.06-2.77-.18-3.87-.36-2.02-.71-2.78c-.34-.75-.81-1.32-1.4-1.7s-1.35-.57-2.28-.57-1.68.19-2.28.57c-.6.38-1.08.96-1.43,1.73-.33.72-.56,1.67-.68,2.83-.12,1.16-.18,2.44-.18,3.82,0,1.52.05,2.8.16,3.82s.34,1.94.69,2.75c.32.76.78,1.34,1.37,1.74s1.38.6,2.35.6c.92,0,1.68-.19,2.29-.57s1.07-.96,1.41-1.73h0Z" style="fill: #444;"/>
          </g>
        </g>
      </g>
      <polyline points="846.85 525.45 766.85 525.45 766.85 529.45 846.85 529.45 846.85 525.45" style="fill: #636efa;"/>
      <g>
        <path d="M867.06,570.65c.47.42.85.95,1.16,1.58s.45,1.46.45,2.46-.18,1.91-.54,2.74-.87,1.55-1.52,2.17c-.73.68-1.59,1.19-2.58,1.52s-2.08.49-3.26.49-2.4-.14-3.57-.43-2.13-.6-2.89-.94v-3.06h.22c.83.55,1.81,1,2.93,1.36s2.21.54,3.25.54c.62,0,1.27-.1,1.96-.31s1.25-.51,1.68-.91c.45-.43.78-.9,1-1.42.22-.52.33-1.17.33-1.96s-.12-1.43-.37-1.94-.59-.92-1.03-1.21c-.44-.3-.97-.51-1.6-.62s-1.3-.17-2.02-.17h-1.32v-2.43h1.03c1.48,0,2.67-.31,3.55-.93s1.33-1.53,1.33-2.72c0-.53-.11-.99-.34-1.38-.22-.39-.54-.72-.94-.97-.42-.25-.87-.43-1.35-.53s-1.02-.15-1.63-.15c-.93,0-1.91.17-2.96.5s-2.03.8-2.96,1.41h-.15v-3.06c.69-.34,1.62-.66,2.78-.95,1.16-.29,2.28-.43,3.36-.43s2,.1,2.81.29,1.54.51,2.2.94c.7.47,1.24,1.04,1.6,1.7s.54,1.44.54,2.33c0,1.21-.43,2.27-1.28,3.17-.85.9-1.86,1.47-3.02,1.71v.21c.47.08,1.01.24,1.61.49.61.25,1.12.56,1.54.93v-.02h0Z" style="fill: #444;"/>
        <path d="M888.02,570.24c0,3.92-.61,6.79-1.84,8.62-1.23,1.83-3.13,2.75-5.71,2.75s-4.53-.93-5.73-2.78c-1.21-1.86-1.81-4.71-1.81-8.55s.61-6.74,1.83-8.59,3.12-2.78,5.71-2.78,4.53.94,5.73,2.82c1.21,1.88,1.81,4.72,1.81,8.52h.01ZM884.16,576.89c.34-.79.57-1.72.7-2.79.12-1.07.18-2.36.18-3.86s-.06-2.77-.18-3.87-.36-2.02-.71-2.78c-.34-.75-.81-1.32-1.4-1.7s-1.35-.57-2.28-.57-1.68.19-2.28.57c-.6.38-1.08.96-1.43,1.73-.33.72-.56,1.67-.68,2.83-.12,1.16-.18,2.44-.18,3.82,0,1.52.05,2.8.16,3.82s.34,1.94.69,2.75c.32.76.78,1.34,1.37,1.74s1.38.6,2.35.6c.92,0,1.68-.19,2.29-.57s1.07-.96,1.41-1.73h0Z" style="fill: #444;"/>
        <path d="M907.09,570.24c0,3.92-.61,6.79-1.84,8.62-1.23,1.83-3.13,2.75-5.71,2.75s-4.53-.93-5.73-2.78c-1.21-1.86-1.81-4.71-1.81-8.55s.61-6.74,1.83-8.59,3.12-2.78,5.71-2.78,4.53.94,5.73,2.82c1.21,1.88,1.81,4.72,1.81,8.52h.01ZM903.24,576.89c.34-.79.57-1.72.7-2.79.12-1.07.18-2.36.18-3.86s-.06-2.77-.18-3.87-.36-2.02-.71-2.78c-.34-.75-.81-1.32-1.4-1.7s-1.35-.57-2.28-.57-1.68.19-2.28.57c-.6.38-1.08.96-1.43,1.73-.33.72-.56,1.67-.68,2.83-.12,1.16-.18,2.44-.18,3.82,0,1.52.05,2.8.16,3.82s.34,1.94.69,2.75c.32.76.78,1.34,1.37,1.74s1.38.6,2.35.6c.92,0,1.68-.19,2.29-.57s1.07-.96,1.41-1.73h0Z" style="fill: #444;"/>
        <path d="M926.16,570.24c0,3.92-.61,6.79-1.84,8.62-1.23,1.83-3.13,2.75-5.71,2.75s-4.53-.93-5.73-2.78c-1.21-1.86-1.81-4.71-1.81-8.55s.61-6.74,1.83-8.59,3.12-2.78,5.71-2.78,4.53.94,5.73,2.82c1.21,1.88,1.81,4.72,1.81,8.52h.01ZM922.31,576.89c.34-.79.57-1.72.7-2.79.12-1.07.18-2.36.18-3.86s-.06-2.77-.18-3.87-.36-2.02-.71-2.78c-.34-.75-.81-1.32-1.4-1.7s-1.35-.57-2.28-.57-1.68.19-2.28.57c-.6.38-1.08.96-1.43,1.73-.33.72-.56,1.67-.68,2.83-.12,1.16-.18,2.44-.18,3.82,0,1.52.05,2.8.16,3.82s.34,1.94.69,2.75c.32.76.78,1.34,1.37,1.74s1.38.6,2.35.6c.92,0,1.68-.19,2.29-.57s1.07-.96,1.41-1.73h0Z" style="fill: #444;"/>
      </g>
      <polyline points="766.85 571.45 846.85 571.45 846.85 567.45 766.85 567.45 766.85 571.45" style="fill: #ef553b;"/>
      <path d="M766.85,571.45v-4h80v4h-80M854.31,581.6v-22.71h71.86v22.71h-71.86M928.15,548.45h-166.3v42h166.3v-42" style="fill: #fff;"/>
      <g style="clip-path: url(#clippath-3);">
        <g>
          <rect x="854.31" y="558.89" width="71.86" height="22.71" style="fill: #fff;"/>
          <g>
            <path d="M867.06,570.65c.47.42.85.95,1.16,1.58s.45,1.46.45,2.46-.18,1.91-.54,2.74-.87,1.55-1.52,2.17c-.73.68-1.59,1.19-2.58,1.52s-2.08.49-3.26.49-2.4-.14-3.57-.43-2.13-.6-2.89-.94v-3.06h.22c.83.55,1.81,1,2.93,1.36s2.21.54,3.25.54c.62,0,1.27-.1,1.96-.31s1.25-.51,1.68-.91c.45-.43.78-.9,1-1.42.22-.52.33-1.17.33-1.96s-.12-1.43-.37-1.94-.59-.92-1.03-1.21c-.44-.3-.97-.51-1.6-.62s-1.3-.17-2.02-.17h-1.32v-2.43h1.03c1.48,0,2.67-.31,3.55-.93s1.33-1.53,1.33-2.72c0-.53-.11-.99-.34-1.38-.22-.39-.54-.72-.94-.97-.42-.25-.87-.43-1.35-.53s-1.02-.15-1.63-.15c-.93,0-1.91.17-2.96.5s-2.03.8-2.96,1.41h-.15v-3.06c.69-.34,1.62-.66,2.78-.95,1.16-.29,2.28-.43,3.36-.43s2,.1,2.81.29,1.54.51,2.2.94c.7.47,1.24,1.04,1.6,1.7s.54,1.44.54,2.33c0,1.21-.43,2.27-1.28,3.17-.85.9-1.86,1.47-3.02,1.71v.21c.47.08,1.01.24,1.61.49.61.25,1.12.56,1.54.93v-.02h0Z" style="fill: #444;"/>
            <path d="M888.02,570.24c0,3.92-.61,6.79-1.84,8.62-1.23,1.83-3.13,2.75-5.71,2.75s-4.53-.93-5.73-2.78c-1.21-1.86-1.81-4.71-1.81-8.55s.61-6.74,1.83-8.59,3.12-2.78,5.71-2.78,4.53.94,5.73,2.82c1.21,1.88,1.81,4.72,1.81,8.52h.01ZM884.16,576.89c.34-.79.57-1.72.7-2.79.12-1.07.18-2.36.18-3.86s-.06-2.77-.18-3.87-.36-2.02-.71-2.78c-.34-.75-.81-1.32-1.4-1.7s-1.35-.57-2.28-.57-1.68.19-2.28.57c-.6.38-1.08.96-1.43,1.73-.33.72-.56,1.67-.68,2.83-.12,1.16-.18,2.44-.18,3.82,0,1.52.05,2.8.16,3.82s.34,1.94.69,2.75c.32.76.78,1.34,1.37,1.74s1.38.6,2.35.6c.92,0,1.68-.19,2.29-.57s1.07-.96,1.41-1.73h0Z" style="fill: #444;"/>
            <path d="M907.09,570.24c0,3.92-.61,6.79-1.84,8.62-1.23,1.83-3.13,2.75-5.71,2.75s-4.53-.93-5.73-2.78c-1.21-1.86-1.81-4.71-1.81-8.55s.61-6.74,1.83-8.59,3.12-2.78,5.71-2.78,4.53.94,5.73,2.82c1.21,1.88,1.81,4.72,1.81,8.52h.01ZM903.24,576.89c.34-.79.57-1.72.7-2.79.12-1.07.18-2.36.18-3.86s-.06-2.77-.18-3.87-.36-2.02-.71-2.78c-.34-.75-.81-1.32-1.4-1.7s-1.35-.57-2.28-.57-1.68.19-2.28.57c-.6.38-1.08.96-1.43,1.73-.33.72-.56,1.67-.68,2.83-.12,1.16-.18,2.44-.18,3.82,0,1.52.05,2.8.16,3.82s.34,1.94.69,2.75c.32.76.78,1.34,1.37,1.74s1.38.6,2.35.6c.92,0,1.68-.19,2.29-.57s1.07-.96,1.41-1.73h0Z" style="fill: #444;"/>
            <path d="M926.16,570.24c0,3.92-.61,6.79-1.84,8.62-1.23,1.83-3.13,2.75-5.71,2.75s-4.53-.93-5.73-2.78c-1.21-1.86-1.81-4.71-1.81-8.55s.61-6.74,1.83-8.59,3.12-2.78,5.71-2.78,4.53.94,5.73,2.82c1.21,1.88,1.81,4.72,1.81,8.52h.01ZM922.31,576.89c.34-.79.57-1.72.7-2.79.12-1.07.18-2.36.18-3.86s-.06-2.77-.18-3.87-.36-2.02-.71-2.78c-.34-.75-.81-1.32-1.4-1.7s-1.35-.57-2.28-.57-1.68.19-2.28.57c-.6.38-1.08.96-1.43,1.73-.33.72-.56,1.67-.68,2.83-.12,1.16-.18,2.44-.18,3.82,0,1.52.05,2.8.16,3.82s.34,1.94.69,2.75c.32.76.78,1.34,1.37,1.74s1.38.6,2.35.6c.92,0,1.68-.19,2.29-.57s1.07-.96,1.41-1.73h0Z" style="fill: #444;"/>
          </g>
        </g>
      </g>
      <polyline points="846.85 567.45 766.85 567.45 766.85 571.45 846.85 571.45 846.85 567.45" style="fill: #00cc96;"/>
      <g>
        <path d="M869.47,617.01h-3.24v6.14h-2.81v-6.14h-10.44v-3.37l10.56-12.3h2.7v13.33h3.24v2.34h-.01ZM863.42,614.67v-9.84l-8.45,9.84h8.45Z" style="fill: #444;"/>
        <path d="M888.02,612.24c0,3.92-.61,6.79-1.84,8.62-1.23,1.83-3.13,2.75-5.71,2.75s-4.53-.93-5.73-2.78c-1.21-1.86-1.81-4.71-1.81-8.55s.61-6.74,1.83-8.59,3.12-2.78,5.71-2.78,4.53.94,5.73,2.82c1.21,1.88,1.81,4.72,1.81,8.52h.01ZM884.16,618.89c.34-.79.57-1.72.7-2.79.12-1.07.18-2.36.18-3.86s-.06-2.77-.18-3.87-.36-2.02-.71-2.78c-.34-.75-.81-1.32-1.4-1.7s-1.35-.57-2.28-.57-1.68.19-2.28.57c-.6.38-1.08.96-1.43,1.73-.33.72-.56,1.67-.68,2.83-.12,1.16-.18,2.44-.18,3.82,0,1.52.05,2.8.16,3.82s.34,1.94.69,2.75c.32.76.78,1.34,1.37,1.74s1.38.6,2.35.6c.92,0,1.68-.19,2.29-.57s1.07-.96,1.41-1.73h0Z" style="fill: #444;"/>
        <path d="M907.09,612.24c0,3.92-.61,6.79-1.84,8.62-1.23,1.83-3.13,2.75-5.71,2.75s-4.53-.93-5.73-2.78c-1.21-1.86-1.81-4.71-1.81-8.55s.61-6.74,1.83-8.59,3.12-2.78,5.71-2.78,4.53.94,5.73,2.82c1.21,1.88,1.81,4.72,1.81,8.52h.01ZM903.24,618.89c.34-.79.57-1.72.7-2.79.12-1.07.18-2.36.18-3.86s-.06-2.77-.18-3.87-.36-2.02-.71-2.78c-.34-.75-.81-1.32-1.4-1.7s-1.35-.57-2.28-.57-1.68.19-2.28.57c-.6.38-1.08.96-1.43,1.73-.33.72-.56,1.67-.68,2.83-.12,1.16-.18,2.44-.18,3.82,0,1.52.05,2.8.16,3.82s.34,1.94.69,2.75c.32.76.78,1.34,1.37,1.74s1.38.6,2.35.6c.92,0,1.68-.19,2.29-.57s1.07-.96,1.41-1.73h0Z" style="fill: #444;"/>
        <path d="M926.16,612.24c0,3.92-.61,6.79-1.84,8.62-1.23,1.83-3.13,2.75-5.71,2.75s-4.53-.93-5.73-2.78c-1.21-1.86-1.81-4.71-1.81-8.55s.61-6.74,1.83-8.59,3.12-2.78,5.71-2.78,4.53.94,5.73,2.82c1.21,1.88,1.81,4.72,1.81,8.52h.01ZM922.31,618.89c.34-.79.57-1.72.7-2.79.12-1.07.18-2.36.18-3.86s-.06-2.77-.18-3.87-.36-2.02-.71-2.78c-.34-.75-.81-1.32-1.4-1.7s-1.35-.57-2.28-.57-1.68.19-2.28.57c-.6.38-1.08.96-1.43,1.73-.33.72-.56,1.67-.68,2.83-.12,1.16-.18,2.44-.18,3.82,0,1.52.05,2.8.16,3.82s.34,1.94.69,2.75c.32.76.78,1.34,1.37,1.74s1.38.6,2.35.6c.92,0,1.68-.19,2.29-.57s1.07-.96,1.41-1.73h0Z" style="fill: #444;"/>
      </g>
      <polyline points="766.85 613.45 846.85 613.45 846.85 609.45 766.85 609.45 766.85 613.45" style="fill: #00cc96;"/>
      <path d="M766.85,613.45v-4h80v4h-80M852.99,623.6v-22.71h73.18v22.71h-73.18M928.15,590.45h-166.3v42h166.3v-42" style="fill: #fff;"/>
      <g style="clip-path: url(#clippath-4);">
        <g>
          <rect x="852.99" y="600.89" width="73.18" height="22.71" style="fill: #fff;"/>
          <g>
            <path d="M869.47,617.01h-3.24v6.14h-2.81v-6.14h-10.44v-3.37l10.56-12.3h2.7v13.33h3.24v2.34h-.01ZM863.42,614.67v-9.84l-8.45,9.84h8.45Z" style="fill: #444;"/>
            <path d="M888.02,612.24c0,3.92-.61,6.79-1.84,8.62-1.23,1.83-3.13,2.75-5.71,2.75s-4.53-.93-5.73-2.78c-1.21-1.86-1.81-4.71-1.81-8.55s.61-6.74,1.83-8.59,3.12-2.78,5.71-2.78,4.53.94,5.73,2.82c1.21,1.88,1.81,4.72,1.81,8.52h.01ZM884.16,618.89c.34-.79.57-1.72.7-2.79.12-1.07.18-2.36.18-3.86s-.06-2.77-.18-3.87-.36-2.02-.71-2.78c-.34-.75-.81-1.32-1.4-1.7s-1.35-.57-2.28-.57-1.68.19-2.28.57c-.6.38-1.08.96-1.43,1.73-.33.72-.56,1.67-.68,2.83-.12,1.16-.18,2.44-.18,3.82,0,1.52.05,2.8.16,3.82s.34,1.94.69,2.75c.32.76.78,1.34,1.37,1.74s1.38.6,2.35.6c.92,0,1.68-.19,2.29-.57s1.07-.96,1.41-1.73h0Z" style="fill: #444;"/>
            <path d="M907.09,612.24c0,3.92-.61,6.79-1.84,8.62-1.23,1.83-3.13,2.75-5.71,2.75s-4.53-.93-5.73-2.78c-1.21-1.86-1.81-4.71-1.81-8.55s.61-6.74,1.83-8.59,3.12-2.78,5.71-2.78,4.53.94,5.73,2.82c1.21,1.88,1.81,4.72,1.81,8.52h.01ZM903.24,618.89c.34-.79.57-1.72.7-2.79.12-1.07.18-2.36.18-3.86s-.06-2.77-.18-3.87-.36-2.02-.71-2.78c-.34-.75-.81-1.32-1.4-1.7s-1.35-.57-2.28-.57-1.68.19-2.28.57c-.6.38-1.08.96-1.43,1.73-.33.72-.56,1.67-.68,2.83-.12,1.16-.18,2.44-.18,3.82,0,1.52.05,2.8.16,3.82s.34,1.94.69,2.75c.32.76.78,1.34,1.37,1.74s1.38.6,2.35.6c.92,0,1.68-.19,2.29-.57s1.07-.96,1.41-1.73h0Z" style="fill: #444;"/>
            <path d="M926.16,612.24c0,3.92-.61,6.79-1.84,8.62-1.23,1.83-3.13,2.75-5.71,2.75s-4.53-.93-5.73-2.78c-1.21-1.86-1.81-4.71-1.81-8.55s.61-6.74,1.83-8.59,3.12-2.78,5.71-2.78,4.53.94,5.73,2.82c1.21,1.88,1.81,4.72,1.81,8.52h.01ZM922.31,618.89c.34-.79.57-1.72.7-2.79.12-1.07.18-2.36.18-3.86s-.06-2.77-.18-3.87-.36-2.02-.71-2.78c-.34-.75-.81-1.32-1.4-1.7s-1.35-.57-2.28-.57-1.68.19-2.28.57c-.6.38-1.08.96-1.43,1.73-.33.72-.56,1.67-.68,2.83-.12,1.16-.18,2.44-.18,3.82,0,1.52.05,2.8.16,3.82s.34,1.94.69,2.75c.32.76.78,1.34,1.37,1.74s1.38.6,2.35.6c.92,0,1.68-.19,2.29-.57s1.07-.96,1.41-1.73h0Z" style="fill: #444;"/>
          </g>
        </g>
      </g>
      <polyline points="846.85 609.45 766.85 609.45 766.85 613.45 846.85 613.45 846.85 609.45" style="fill: #ab63fa;"/>
    </g>
  </g>
  <g>
    <path d="M442.23,790.1c-.64.28-1.23.54-1.75.79s-1.2.5-2.05.77c-.71.22-1.49.41-2.33.57s-1.76.24-2.77.24c-1.9,0-3.62-.27-5.18-.8s-2.9-1.37-4.05-2.5c-1.12-1.11-2-2.53-2.64-4.25s-.95-3.71-.95-5.99c0-2.16.3-4.08.91-5.78s1.49-3.13,2.64-4.31c1.11-1.14,2.46-2,4.03-2.6s3.33-.9,5.25-.9c1.41,0,2.81.17,4.21.51s2.96.94,4.67,1.79v4.13h-.26c-1.44-1.21-2.87-2.09-4.29-2.64s-2.94-.83-4.55-.83c-1.32,0-2.52.21-3.58.64s-2.01,1.09-2.84,2c-.81.88-1.44,1.99-1.89,3.33s-.68,2.89-.68,4.65.25,3.42.75,4.75,1.14,2.4,1.92,3.23c.82.87,1.78,1.51,2.87,1.92s2.25.62,3.47.62c1.68,0,3.25-.29,4.71-.86s2.84-1.44,4.11-2.58h.25v4.08l.02.02h0Z" style="fill: #444;"/>
    <path d="M462.14,792h-3.29v-2.09c-.29.2-.69.48-1.19.83s-.98.64-1.45.85c-.55.27-1.18.5-1.9.68s-1.55.27-2.51.27c-1.77,0-3.27-.59-4.5-1.76s-1.85-2.67-1.85-4.48c0-1.49.32-2.69.96-3.61s1.55-1.64,2.73-2.17c1.2-.53,2.63-.88,4.31-1.07s3.47-.33,5.4-.42v-.51c0-.75-.13-1.37-.4-1.86s-.64-.88-1.13-1.16c-.47-.27-1.03-.45-1.69-.54s-1.34-.14-2.06-.14c-.87,0-1.83.11-2.9.34s-2.17.56-3.3.99h-.18v-3.36c.64-.18,1.58-.37,2.79-.58s2.42-.32,3.6-.32c1.38,0,2.59.11,3.61.34s1.91.62,2.66,1.17c.74.54,1.3,1.24,1.69,2.09s.58,1.92.58,3.18v13.32h.02ZM458.86,787.17v-5.47c-1.01.06-2.19.15-3.56.26s-2.45.29-3.24.51c-.95.27-1.72.69-2.3,1.26s-.88,1.35-.88,2.35c0,1.12.34,1.97,1.02,2.54s1.72.85,3.11.85c1.16,0,2.22-.23,3.18-.68s1.85-.99,2.67-1.63h0Z" style="fill: #444;"/>
    <path d="M471.85,792h-3.3v-27.35h3.3v27.35Z" style="fill: #444;"/>
    <path d="M492.9,790.77c-1.1.53-2.15.94-3.14,1.23s-2.04.44-3.16.44c-1.42,0-2.72-.21-3.9-.62s-2.2-1.05-3.04-1.89c-.86-.84-1.52-1.91-1.99-3.2s-.7-2.79-.7-4.52c0-3.21.88-5.73,2.65-7.56s4.09-2.74,6.99-2.74c1.12,0,2.23.16,3.31.47s2.08.7,2.98,1.16v3.67h-.18c-1.01-.79-2.05-1.39-3.12-1.81s-2.12-.63-3.14-.63c-1.88,0-3.35.63-4.44,1.89s-1.63,3.11-1.63,5.55.53,4.19,1.59,5.46,2.55,1.91,4.47,1.91c.67,0,1.35-.09,2.04-.26s1.31-.4,1.86-.69c.48-.25.93-.51,1.35-.78s.76-.51,1-.71h.18v3.64h.02Z" style="fill: #444;"/>
    <path d="M513.42,792h-3.3v-2.18c-1.11.88-2.18,1.55-3.2,2.02s-2.14.7-3.38.7c-2.06,0-3.67-.63-4.82-1.89s-1.72-3.11-1.72-5.55v-12.74h3.3v11.18c0,1,.05,1.85.14,2.56s.29,1.32.6,1.82c.32.52.73.89,1.23,1.12s1.24.35,2.2.35c.86,0,1.79-.22,2.8-.67s1.96-1.01,2.84-1.71v-14.66h3.3v19.65h.01Z" style="fill: #444;"/>
    <path d="M523.26,792h-3.3v-27.35h3.3v27.35Z" style="fill: #444;"/>
    <path d="M545.06,792h-3.29v-2.09c-.29.2-.69.48-1.19.83s-.98.64-1.45.85c-.55.27-1.18.5-1.9.68s-1.55.27-2.51.27c-1.77,0-3.27-.59-4.5-1.76s-1.85-2.67-1.85-4.48c0-1.49.32-2.69.96-3.61s1.55-1.64,2.73-2.17c1.2-.53,2.63-.88,4.31-1.07s3.47-.33,5.4-.42v-.51c0-.75-.13-1.37-.4-1.86s-.64-.88-1.13-1.16c-.47-.27-1.03-.45-1.69-.54s-1.34-.14-2.06-.14c-.87,0-1.83.11-2.9.34s-2.17.56-3.3.99h-.18v-3.36c.64-.18,1.58-.37,2.79-.58s2.42-.32,3.6-.32c1.38,0,2.59.11,3.61.34s1.91.62,2.66,1.17c.74.54,1.3,1.24,1.69,2.09s.58,1.92.58,3.18v13.32h.02ZM541.77,787.17v-5.47c-1.01.06-2.19.15-3.56.26s-2.45.29-3.24.51c-.95.27-1.72.69-2.3,1.26s-.88,1.35-.88,2.35c0,1.12.34,1.97,1.02,2.54s1.72.85,3.11.85c1.16,0,2.22-.23,3.18-.68s1.85-.99,2.67-1.63h0Z" style="fill: #444;"/>
    <path d="M561.62,791.82c-.62.16-1.3.3-2.03.4s-1.39.16-1.96.16c-2,0-3.53-.54-4.57-1.62s-1.56-2.81-1.56-5.19v-10.44h-2.23v-2.78h2.23v-5.64h3.3v5.64h6.82v2.78h-6.82v8.95c0,1.03.02,1.84.07,2.42s.21,1.12.49,1.63c.26.47.61.81,1.06,1.03s1.14.33,2.07.33c.54,0,1.1-.08,1.69-.24s1.01-.29,1.27-.4h.18v2.97h0Z" style="fill: #444;"/>
    <path d="M569.16,769.08h-3.73v-3.43h3.73v3.43ZM568.95,792h-3.3v-19.63h3.3v19.63Z" style="fill: #444;"/>
    <path d="M592.22,782.19c0,3.2-.82,5.72-2.46,7.58s-3.84,2.78-6.59,2.78-4.98-.93-6.62-2.78-2.45-4.38-2.45-7.58.82-5.73,2.45-7.58,3.84-2.79,6.62-2.79,4.95.93,6.59,2.79,2.46,4.39,2.46,7.58ZM588.81,782.19c0-2.54-.5-4.43-1.49-5.67s-2.38-1.85-4.15-1.85-3.18.62-4.17,1.85-1.49,3.13-1.49,5.67.5,4.33,1.49,5.6,2.38,1.91,4.17,1.91,3.14-.63,4.14-1.89,1.5-3.13,1.5-5.62h0Z" style="fill: #444;"/>
    <path d="M613.75,792h-3.3v-11.18c0-.9-.05-1.75-.16-2.54s-.3-1.41-.58-1.85c-.29-.49-.71-.86-1.27-1.1s-1.27-.36-2.14-.36-1.85.22-2.83.67-1.93,1.01-2.83,1.71v14.66h-3.3v-19.63h3.3v2.18c1.03-.86,2.1-1.52,3.2-2s2.23-.72,3.39-.72c2.12,0,3.74.64,4.85,1.92s1.67,3.12,1.67,5.52v12.74-.02h0Z" style="fill: #444;"/>
    <path d="M645.03,775.97h-.18c-.49-.12-.97-.2-1.43-.25s-1.01-.08-1.64-.08c-1.02,0-2,.23-2.95.68s-1.86,1.03-2.74,1.75v13.94h-3.3v-19.63h3.3v2.9c1.31-1.05,2.47-1.8,3.47-2.24s2.02-.66,3.07-.66c.57,0,.99.01,1.25.04s.64.08,1.16.17v3.39h0Z" style="fill: #444;"/>
    <path d="M662.78,792h-3.29v-2.09c-.29.2-.69.48-1.19.83s-.98.64-1.45.85c-.55.27-1.18.5-1.9.68s-1.55.27-2.51.27c-1.77,0-3.27-.59-4.5-1.76s-1.85-2.67-1.85-4.48c0-1.49.32-2.69.96-3.61s1.55-1.64,2.73-2.17c1.2-.53,2.63-.88,4.31-1.07s3.47-.33,5.4-.42v-.51c0-.75-.13-1.37-.4-1.86s-.64-.88-1.13-1.16c-.47-.27-1.03-.45-1.69-.54s-1.34-.14-2.06-.14c-.87,0-1.83.11-2.9.34s-2.17.56-3.3.99h-.18v-3.36c.64-.18,1.58-.37,2.79-.58s2.42-.32,3.6-.32c1.38,0,2.59.11,3.61.34s1.91.62,2.66,1.17c.74.54,1.3,1.24,1.69,2.09s.58,1.92.58,3.18v13.32h.02ZM659.5,787.17v-5.47c-1.01.06-2.19.15-3.56.26s-2.45.29-3.24.51c-.95.27-1.72.69-2.3,1.26s-.88,1.35-.88,2.35c0,1.12.34,1.97,1.02,2.54s1.72.85,3.11.85c1.16,0,2.22-.23,3.18-.68s1.85-.99,2.67-1.63h0Z" style="fill: #444;"/>
    <path d="M679.34,791.82c-.62.16-1.3.3-2.03.4s-1.39.16-1.96.16c-2,0-3.53-.54-4.57-1.62s-1.56-2.81-1.56-5.19v-10.44h-2.23v-2.78h2.23v-5.64h3.3v5.64h6.82v2.78h-6.82v8.95c0,1.03.02,1.84.07,2.42s.21,1.12.49,1.63c.26.47.61.81,1.06,1.03s1.14.33,2.07.33c.54,0,1.1-.08,1.69-.24s1.01-.29,1.27-.4h.18v2.97h0Z" style="fill: #444;"/>
    <path d="M699.77,782.53h-14.47c0,1.21.18,2.26.54,3.16s.86,1.63,1.49,2.21c.61.56,1.33.98,2.17,1.27s1.76.42,2.77.42c1.34,0,2.68-.27,4.03-.8s2.32-1.06,2.89-1.57h.18v3.6c-1.11.47-2.25.86-3.41,1.18s-2.38.47-3.66.47c-3.26,0-5.8-.88-7.63-2.65s-2.74-4.27-2.74-7.51.88-5.76,2.63-7.65,4.06-2.83,6.92-2.83c2.65,0,4.69.77,6.13,2.32s2.15,3.74,2.15,6.59v1.79h0ZM696.55,779.99c-.01-1.73-.45-3.08-1.31-4.03s-2.17-1.42-3.93-1.42-3.18.52-4.23,1.56-1.64,2.34-1.78,3.88h11.25Z" style="fill: #444;"/>
  </g>
  <g>
    <path d="M34.1,468.88c.28.64.54,1.23.79,1.75s.5,1.2.77,2.05c.22.71.41,1.49.57,2.33s.24,1.76.24,2.77c0,1.9-.27,3.62-.8,5.18s-1.37,2.9-2.5,4.05c-1.11,1.12-2.53,2-4.25,2.64s-3.71.95-5.99.95c-2.16,0-4.08-.3-5.78-.91s-3.13-1.49-4.31-2.64c-1.14-1.11-2-2.46-2.6-4.03s-.9-3.33-.9-5.25c0-1.41.17-2.81.51-4.21s.94-2.96,1.79-4.67h4.13v.26c-1.21,1.44-2.09,2.87-2.64,4.29s-.83,2.94-.83,4.55c0,1.32.21,2.52.64,3.58s1.09,2.01,2,2.84c.88.81,1.99,1.44,3.33,1.89s2.89.68,4.65.68,3.42-.25,4.75-.75,2.4-1.14,3.23-1.92c.87-.82,1.51-1.78,1.92-2.87s.62-2.25.62-3.47c0-1.68-.29-3.25-.86-4.71s-1.44-2.84-2.58-4.11v-.25h4.08l.02-.02h0Z" style="fill: #444;"/>
    <path d="M26.19,447.49c3.2,0,5.72.82,7.58,2.46s2.78,3.84,2.78,6.59-.93,4.98-2.78,6.62-4.38,2.45-7.58,2.45-5.73-.82-7.58-2.45-2.79-3.84-2.79-6.62.93-4.95,2.79-6.59,4.39-2.46,7.58-2.46ZM26.19,450.9c-2.54,0-4.43.5-5.67,1.49s-1.85,2.38-1.85,4.15.62,3.18,1.85,4.17,3.13,1.49,5.67,1.49,4.33-.5,5.6-1.49,1.91-2.38,1.91-4.17-.63-3.14-1.89-4.14-3.13-1.5-5.62-1.5h0Z" style="fill: #444;"/>
    <path d="M36,413.72v3.3h-11.18c-.84,0-1.66.04-2.44.11s-1.41.24-1.88.48c-.5.27-.88.66-1.14,1.16s-.39,1.23-.39,2.18.23,1.85.69,2.78,1.05,1.85,1.77,2.78c.27-.04.58-.06.94-.09s.71-.04,1.06-.04h12.57v3.3h-11.18c-.87,0-1.69.04-2.47.11s-1.4.24-1.87.48c-.5.27-.88.66-1.13,1.16s-.38,1.23-.38,2.18.22,1.81.67,2.72,1.01,1.81,1.71,2.72h14.66v3.3h-19.63v-3.3h2.18c-.86-1.03-1.52-2.06-2-3.08s-.72-2.12-.72-3.28c0-1.34.28-2.47.84-3.4s1.34-1.63,2.34-2.08c-1.12-1.34-1.94-2.55-2.43-3.66s-.75-2.28-.75-3.53c0-2.16.65-3.75,1.96-4.77s3.13-1.54,5.48-1.54h12.74-.02Z" style="fill: #444;"/>
    <path d="M36,378.71v3.3h-11.18c-.84,0-1.66.04-2.44.11s-1.41.24-1.88.48c-.5.27-.88.66-1.14,1.16s-.39,1.23-.39,2.18.23,1.85.69,2.78,1.05,1.85,1.77,2.78c.27-.04.58-.06.94-.09s.71-.04,1.06-.04h12.57v3.3h-11.18c-.87,0-1.69.04-2.47.11s-1.4.24-1.87.48c-.5.27-.88.66-1.13,1.16s-.38,1.23-.38,2.18.22,1.81.67,2.72,1.01,1.81,1.71,2.72h14.66v3.3h-19.63v-3.3h2.18c-.86-1.03-1.52-2.06-2-3.08s-.72-2.12-.72-3.28c0-1.34.28-2.47.84-3.4s1.34-1.63,2.34-2.08c-1.12-1.34-1.94-2.55-2.43-3.66s-.75-2.28-.75-3.53c0-2.16.65-3.75,1.96-4.77s3.13-1.54,5.48-1.54h12.74-.02Z" style="fill: #444;"/>
    <path d="M36,356.06v3.3h-2.18c.88,1.11,1.55,2.18,2.02,3.2s.7,2.14.7,3.38c0,2.06-.63,3.67-1.89,4.82s-3.11,1.72-5.55,1.72h-12.74v-3.3h11.18c1,0,1.85-.05,2.56-.14s1.32-.29,1.82-.6c.52-.32.89-.73,1.12-1.23s.35-1.24.35-2.2c0-.86-.22-1.79-.67-2.8s-1.01-1.96-1.71-2.84h-14.66v-3.3h19.65Z" style="fill: #444;"/>
    <path d="M36,333.14v3.3h-11.18c-.9,0-1.75.05-2.54.16s-1.41.3-1.85.58c-.49.29-.86.71-1.1,1.27s-.36,1.27-.36,2.14.22,1.85.67,2.83,1.01,1.93,1.71,2.83h14.66v3.3h-19.63v-3.3h2.18c-.86-1.03-1.52-2.1-2-3.2s-.72-2.23-.72-3.39c0-2.12.64-3.74,1.92-4.85s3.12-1.67,5.52-1.67h12.74-.02,0Z" style="fill: #444;"/>
    <path d="M13.08,323.23v3.73h-3.43v-3.73h3.43ZM36,323.44v3.3h-19.63v-3.3h19.63Z" style="fill: #444;"/>
    <path d="M35.82,306.71c.16.62.3,1.3.4,2.03s.16,1.39.16,1.96c0,2-.54,3.53-1.62,4.57s-2.81,1.56-5.19,1.56h-10.44v2.23h-2.78v-2.23h-5.64v-3.3h5.64v-6.82h2.78v6.82h8.95c1.03,0,1.84-.02,2.42-.07s1.12-.21,1.63-.49c.47-.26.81-.61,1.03-1.06s.33-1.14.33-2.07c0-.54-.08-1.1-.24-1.69s-.29-1.01-.4-1.27v-.18h2.97Z" style="fill: #444;"/>
    <path d="M16.37,285.88l26.88,11.46v3.53l-8.19-3.66-18.69,7.82v-3.59l14.55-6.03-14.55-6.08v-3.46h0Z" style="fill: #444;"/>
    <path d="M36,248v3.71l-7.29,2.57v11.32l7.29,2.57v3.53l-26.17-9.53v-4.64l26.17-9.53ZM25.72,255.34l-12.85,4.59,12.85,4.61v-9.19h0Z" style="fill: #444;"/>
    <path d="M36,222.37v4.52l-10.41,8.75v4.9h10.41v3.48H9.83v-7.33c0-1.58.1-2.9.31-3.96s.57-2,1.1-2.85c.6-.95,1.35-1.69,2.26-2.22s2.06-.8,3.45-.8c1.89,0,3.47.47,4.74,1.42s2.23,2.26,2.87,3.92l11.44-9.84h0ZM17.19,230.51c-.75,0-1.42.13-2,.4s-1.07.7-1.47,1.31c-.34.5-.58,1.1-.71,1.79s-.2,1.51-.2,2.44v4.1h9.88v-3.52c0-1.1-.1-2.06-.29-2.88s-.55-1.52-1.08-2.09c-.49-.53-1.06-.92-1.7-1.17s-1.45-.38-2.43-.38h0Z" style="fill: #444;"/>
    <path d="M36,209.76v10.34h-2.67v-3.43H12.5v3.43h-2.67v-10.34h2.67v3.43h20.83v-3.43h2.67Z" style="fill: #444;"/>
  </g>
</svg>