<?xml version="1.0" encoding="UTF-8"?>
<svg id="Layer_1" data-name="Layer 1" xmlns="http://www.w3.org/2000/svg" width="1000" height="800" xmlns:xlink="http://www.w3.org/1999/xlink" viewBox="0 0 1000 800">
  <defs>
    <clipPath id="clippath">
      <rect x="120" width="880" height="700" style="fill: none;"/>
    </clipPath>
    <clipPath id="clippath-1">
      <rect x="648" y="494" width="287" height="136" style="fill: none;"/>
    </clipPath>
    <clipPath id="clippath-2">
      <rect x="738.39" y="509.44" width="188.04" height="22.71" style="fill: none;"/>
    </clipPath>
    <clipPath id="clippath-3">
      <rect x="740.94" y="551.5" width="90.87" height="22.59" style="fill: none;"/>
    </clipPath>
    <clipPath id="clippath-4">
      <rect x="738.39" y="593.5" width="180.59" height="22.65" style="fill: none;"/>
    </clipPath>
  </defs>
  <polyline points="0 0 1000 0 1000 800 0 800 0 0" style="fill: #fff;"/>
  <polyline points="317.24 0 317.24 700 318.24 700 318.24 0" style="fill: #eee;"/>
  <polyline points="469.27 0 469.27 700 470.27 700 470.27 0" style="fill: #eee;"/>
  <polyline points="621.29 0 621.29 700 622.29 700 622.29 0" style="fill: #eee;"/>
  <polyline points="773.31 0 773.31 700 774.31 700 774.31 0 773.31 0" style="fill: #eee;"/>
  <polyline points="925.34 0 925.34 700 926.34 700 926.34 0 925.34 0" style="fill: #eee;"/>
  <polyline points="120 590.14 1000 590.14 1000 589.14 120 589.14 120 590.14" style="fill: #eee;"/>
  <polyline points="120 456.69 1000 456.69 1000 455.69 120 455.69" style="fill: #eee;"/>
  <polyline points="120 323.25 1000 323.25 1000 322.25 120 322.25" style="fill: #eee;"/>
  <polyline points="120 189.81 1000 189.81 1000 188.81 120 188.81" style="fill: #eee;"/>
  <polyline points="120 56.37 1000 56.37 1000 55.37 120 55.37" style="fill: #eee;"/>
  <polyline points="165.22 0 165.22 700 166.22 700 166.22 0" style="fill: #444;"/>
  <g style="clip-path: url(#clippath);">
    <g>
      <circle cx="182.2" cy="660" r="4" style="fill: #00cc96;"/>
      <circle cx="197.3" cy="629.14" r="4" style="fill: #00cc96;"/>
      <circle cx="232.4" cy="591.33" r="4" style="fill: #00cc96;"/>
      <circle cx="243.61" cy="539.18" r="4" style="fill: #00cc96;"/>
      <circle cx="291.94" cy="477.95" r="4" style="fill: #00cc96;"/>
      <circle cx="374.69" cy="447.74" r="4" style="fill: #00cc96;"/>
      <circle cx="461.56" cy="330.65" r="4" style="fill: #00cc96;"/>
      <circle cx="589.7" cy="219.57" r="4" style="fill: #00cc96;"/>
      <circle cx="699.97" cy="179.16" r="4" style="fill: #00cc96;"/>
      <polygon points="184 660.88 198.97 630.28 234.24 592.29 245.47 540.05 293.16 479.63 375.94 449.41 463.04 332.02 590.73 221.32 700.66 181.04 699.28 177.28 588.67 217.82 460.08 329.28 373.44 446.07 290.72 476.27 241.75 538.31 230.56 590.37 195.63 628 180.4 659.12 184 660.88" style="fill: #00cc96;"/>
      <circle cx="169" cy="571.15" r="4" style="fill: #ff6692;"/>
      <circle cx="210.22" cy="480.35" r="4" style="fill: #ff6692;"/>
      <circle cx="252.65" cy="435.72" r="4" style="fill: #ff6692;"/>
      <circle cx="321.52" cy="430" r="4" style="fill: #ff6692;"/>
      <circle cx="357.63" cy="419.13" r="4" style="fill: #ff6692;"/>
      <circle cx="398.1" cy="388.44" r="4" style="fill: #ff6692;"/>
      <circle cx="439.01" cy="381.08" r="4" style="fill: #ff6692;"/>
      <circle cx="478.64" cy="368.14" r="4" style="fill: #ff6692;"/>
      <circle cx="512.13" cy="343.7" r="4" style="fill: #ff6692;"/>
      <circle cx="554.09" cy="334.39" r="4" style="fill: #ff6692;"/>
      <circle cx="753.12" cy="205.23" r="4" style="fill: #ff6692;"/>
      <circle cx="951" cy="166.73" r="4" style="fill: #ff6692;"/>
      <polygon points="170.82 571.98 211.9 481.48 253.57 437.65 321.9 431.98 358.55 420.94 398.93 390.32 439.5 383.02 479.56 369.94 512.97 345.56 554.88 336.26 753.88 207.12 951.38 168.69 950.62 164.77 752.36 203.34 553.3 332.52 511.29 341.84 477.72 366.34 438.52 379.14 397.27 386.56 356.71 417.32 321.14 428.02 251.73 433.79 208.54 479.22 167.18 570.32 170.82 571.98" style="fill: #ff6692;"/>
      <circle cx="173.32" cy="597.61" r="4" style="fill: gray;"/>
      <circle cx="241.73" cy="451.72" r="4" style="fill: gray;"/>
      <circle cx="317.74" cy="364.17" r="4" style="fill: gray;"/>
      <circle cx="393.76" cy="274.84" r="4" style="fill: gray;"/>
      <circle cx="469.77" cy="212.38" r="4" style="fill: gray;"/>
      <circle cx="545.78" cy="181.14" r="4" style="fill: gray;"/>
      <circle cx="621.79" cy="121.76" r="4" style="fill: gray;"/>
      <circle cx="697.8" cy="101.66" r="4" style="fill: gray;"/>
      <circle cx="773.81" cy="55.33" r="4" style="fill: gray;"/>
      <circle cx="849.83" cy="40" r="4" style="fill: gray;"/>
      <path d="M845.74,42.87l4.49-.9-.79-3.92-4.49.9s.79,3.92.79,3.92ZM822.21,47.61l11.76-2.37-.79-3.92-11.76,2.37.79,3.92ZM798.69,52.35l11.76-2.37-.79-3.92-11.76,2.37.79,3.92ZM775.16,57.1l11.76-2.37-.79-3.92-11.76,2.37.79,3.92ZM755.19,69.02l10.25-6.25-2.08-3.42-10.25,6.25,2.08,3.42ZM734.7,81.51l10.25-6.25-2.08-3.42-10.25,6.25,2.08,3.42ZM714.2,94.01l10.25-6.25-2.08-3.42-10.25,6.25,2.08,3.42ZM692.5,105.13l6.09-1.61,5.36-3.27-2.08-3.42-4.87,2.97-5.53,1.46,1.02,3.87s.01,0,.01,0ZM669.3,111.27l11.6-3.07-1.02-3.87-11.6,3.07,1.02,3.87ZM646.1,117.4l11.6-3.07-1.02-3.87-11.6,3.07,1.02,3.87ZM622.89,123.54l11.6-3.07-1.02-3.87-11.6,3.07,1.02,3.87ZM604.59,137.73l9.46-7.39-2.46-3.15-9.46,7.39,2.46,3.15ZM585.68,152.51l9.46-7.39-2.46-3.15-9.46,7.39,2.46,3.15ZM566.76,167.28l9.46-7.39-2.46-3.15-9.46,7.39,2.46,3.15ZM547.85,182.06l9.46-7.39-2.46-3.15-9.46,7.39,2.46,3.15ZM525.33,191.71l11.1-4.56-1.52-3.7-11.1,4.56,1.52,3.7ZM503.13,200.83l11.1-4.56-1.52-3.7-11.1,4.56,1.52,3.7h0ZM480.93,209.95l11.1-4.56-1.52-3.7-11.1,4.56,1.52,3.7ZM461.19,222.02l9.27-7.62-2.54-3.09-9.27,7.62,2.54,3.09ZM442.64,237.26l9.27-7.62-2.54-3.09-9.27,7.62,2.54,3.09ZM424.1,252.5l9.27-7.62-2.54-3.09-9.27,7.62,2.54,3.09ZM405.56,267.73l9.27-7.62-2.54-3.09-9.27,7.62,2.54,3.09ZM388.56,284.04l6.61-7.76,1.12-.92-2.54-3.09-1.39,1.15-6.84,8.04,3.05,2.59h0ZM373.01,302.31l7.78-9.14-3.05-2.59-7.78,9.14,3.05,2.59ZM357.45,320.59l7.78-9.14-3.05-2.59-7.78,9.14,3.05,2.59ZM341.9,338.87l7.78-9.14-3.05-2.59-7.78,9.14,3.05,2.59ZM326.34,357.15l7.78-9.14-3.05-2.59-7.78,9.14,3.05,2.59ZM310.68,375.35l7.87-9.06-3.02-2.62-7.87,9.06,3.02,2.62ZM294.94,393.48l7.87-9.06-3.02-2.62-7.87,9.06,3.02,2.62ZM279.21,411.6l7.87-9.06-3.02-2.62-7.87,9.06,3.02,2.62ZM263.48,429.72l7.87-9.06-3.02-2.62-7.87,9.06,3.02,2.62ZM247.74,447.85l7.87-9.06-3.02-2.62-7.87,9.06,3.02,2.62ZM236.27,468.08l5.09-10.86-3.62-1.7-5.09,10.86,3.62,1.7ZM226.08,489.81l5.09-10.86-3.62-1.7-5.09,10.86,3.62,1.7ZM215.89,511.54l5.09-10.86-3.62-1.7-5.09,10.86,3.62,1.7ZM205.7,533.27l5.09-10.86-3.62-1.7-5.09,10.86,3.62,1.7ZM195.51,555l5.09-10.86-3.62-1.7-5.09,10.86,3.62,1.7ZM185.32,576.73l5.09-10.86-3.62-1.7-5.09,10.86,3.62,1.7ZM175.13,598.46l5.09-10.86-3.62-1.7-5.09,10.86,3.62,1.7Z" style="fill: gray;"/>
    </g>
  </g>
  <path d="M173.28,720.09c0,3.92-.61,6.79-1.84,8.62s-3.13,2.75-5.71,2.75-4.53-.93-5.73-2.78c-1.21-1.86-1.81-4.71-1.81-8.55s.61-6.74,1.83-8.59,3.12-2.78,5.71-2.78,4.53.94,5.73,2.82c1.21,1.88,1.81,4.72,1.81,8.52h0ZM169.43,726.74c.34-.79.57-1.72.7-2.79.12-1.07.18-2.36.18-3.86s-.06-2.77-.18-3.87-.36-2.02-.71-2.78c-.34-.75-.81-1.32-1.4-1.7s-1.35-.57-2.28-.57-1.68.19-2.28.57-1.08.96-1.43,1.73c-.33.72-.56,1.67-.68,2.83-.12,1.16-.18,2.44-.18,3.82,0,1.52.05,2.8.16,3.82s.34,1.94.69,2.75c.32.76.78,1.34,1.37,1.74s1.38.6,2.35.6c.92,0,1.68-.19,2.29-.57s1.07-.96,1.41-1.73h-.01Z" style="fill: #444;"/>
  <g>
    <path d="M300.77,720.09c0,3.92-.61,6.79-1.84,8.62s-3.13,2.75-5.71,2.75-4.53-.93-5.73-2.78c-1.21-1.86-1.81-4.71-1.81-8.55s.61-6.74,1.83-8.59,3.12-2.78,5.71-2.78,4.53.94,5.73,2.82c1.21,1.88,1.81,4.72,1.81,8.52h.01ZM296.92,726.74c.34-.79.57-1.72.7-2.79.12-1.07.18-2.36.18-3.86s-.06-2.77-.18-3.87-.36-2.02-.71-2.78c-.34-.75-.81-1.32-1.4-1.7s-1.35-.57-2.28-.57-1.68.19-2.28.57-1.08.96-1.43,1.73c-.33.72-.56,1.67-.68,2.83-.12,1.16-.18,2.44-.18,3.82,0,1.52.05,2.8.16,3.82s.34,1.94.69,2.75c.32.76.78,1.34,1.37,1.74s1.38.6,2.35.6c.92,0,1.68-.19,2.29-.57s1.07-.96,1.41-1.73h-.01Z" style="fill: #444;"/>
    <path d="M309.95,731h-3.5v-4.17h3.5v4.17Z" style="fill: #444;"/>
    <path d="M330.75,720.09c0,3.92-.61,6.79-1.84,8.62s-3.13,2.75-5.71,2.75-4.53-.93-5.73-2.78c-1.21-1.86-1.81-4.71-1.81-8.55s.61-6.74,1.83-8.59,3.12-2.78,5.71-2.78,4.53.94,5.73,2.82c1.21,1.88,1.81,4.72,1.81,8.52h.01ZM326.9,726.74c.34-.79.57-1.72.7-2.79.12-1.07.18-2.36.18-3.86s-.06-2.77-.18-3.87-.36-2.02-.71-2.78c-.34-.75-.81-1.32-1.4-1.7s-1.35-.57-2.28-.57-1.68.19-2.28.57-1.08.96-1.43,1.73c-.33.72-.56,1.67-.68,2.83-.12,1.16-.18,2.44-.18,3.82,0,1.52.05,2.8.16,3.82s.34,1.94.69,2.75c.32.76.78,1.34,1.37,1.74s1.38.6,2.35.6c.92,0,1.68-.19,2.29-.57s1.07-.96,1.41-1.73h-.01Z" style="fill: #444;"/>
    <path d="M349.86,731h-14.77v-3.06c1.03-.88,2.05-1.76,3.08-2.64s1.99-1.75,2.88-2.62c1.88-1.82,3.16-3.26,3.85-4.33s1.04-2.22,1.04-3.46c0-1.13-.37-2.02-1.12-2.66-.75-.64-1.79-.96-3.13-.96-.89,0-1.85.16-2.89.47s-2.05.79-3.03,1.44h-.15v-3.08c.69-.34,1.62-.65,2.78-.94,1.16-.28,2.28-.42,3.36-.42,2.24,0,3.99.54,5.26,1.62s1.9,2.54,1.9,4.39c0,.83-.11,1.6-.31,2.32-.21.72-.52,1.4-.93,2.04-.38.61-.83,1.2-1.34,1.79-.51.59-1.13,1.24-1.87,1.95-1.04,1.03-2.12,2.02-3.24,2.98s-2.15,1.85-3.12,2.67h11.73v2.5h.02,0Z" style="fill: #444;"/>
  </g>
  <g>
    <path d="M452.8,720.09c0,3.92-.61,6.79-1.84,8.62s-3.13,2.75-5.71,2.75-4.53-.93-5.73-2.78c-1.21-1.86-1.81-4.71-1.81-8.55s.61-6.74,1.83-8.59,3.12-2.78,5.71-2.78,4.53.94,5.73,2.82c1.21,1.88,1.81,4.72,1.81,8.52h.01ZM448.95,726.74c.34-.79.57-1.72.7-2.79.12-1.07.18-2.36.18-3.86s-.06-2.77-.18-3.87-.36-2.02-.71-2.78c-.34-.75-.81-1.32-1.4-1.7s-1.35-.57-2.28-.57-1.68.19-2.28.57-1.08.96-1.43,1.73c-.33.72-.56,1.67-.68,2.83-.12,1.16-.18,2.44-.18,3.82,0,1.52.05,2.8.16,3.82s.34,1.94.69,2.75c.32.76.78,1.34,1.37,1.74s1.38.6,2.35.6c.92,0,1.68-.19,2.29-.57s1.07-.96,1.41-1.73h-.01Z" style="fill: #444;"/>
    <path d="M461.98,731h-3.5v-4.17h3.5v4.17Z" style="fill: #444;"/>
    <path d="M482.79,720.09c0,3.92-.61,6.79-1.84,8.62s-3.13,2.75-5.71,2.75-4.53-.93-5.73-2.78c-1.21-1.86-1.81-4.71-1.81-8.55s.61-6.74,1.83-8.59,3.12-2.78,5.71-2.78,4.53.94,5.73,2.82c1.21,1.88,1.81,4.72,1.81,8.52h.01ZM478.93,726.74c.34-.79.57-1.72.7-2.79.12-1.07.18-2.36.18-3.86s-.06-2.77-.18-3.87-.36-2.02-.71-2.78c-.34-.75-.81-1.32-1.4-1.7s-1.35-.57-2.28-.57-1.68.19-2.28.57-1.08.96-1.43,1.73c-.33.72-.56,1.67-.68,2.83-.12,1.16-.18,2.44-.18,3.82,0,1.52.05,2.8.16,3.82s.34,1.94.69,2.75c.32.76.78,1.34,1.37,1.74s1.38.6,2.35.6c.92,0,1.68-.19,2.29-.57s1.07-.96,1.41-1.73h-.01Z" style="fill: #444;"/>
    <path d="M502.38,724.86h-3.24v6.14h-2.81v-6.14h-10.44v-3.37l10.56-12.3h2.7v13.33h3.24v2.34h-.01ZM496.33,722.52v-9.84l-8.45,9.84h8.45Z" style="fill: #444;"/>
  </g>
  <g>
    <path d="M604.82,720.09c0,3.92-.61,6.79-1.84,8.62-1.22,1.83-3.13,2.75-5.71,2.75s-4.53-.93-5.73-2.78c-1.21-1.86-1.81-4.71-1.81-8.55s.61-6.74,1.83-8.59,3.12-2.78,5.71-2.78,4.53.94,5.73,2.82c1.21,1.88,1.81,4.72,1.81,8.52h.01ZM600.97,726.74c.34-.79.57-1.72.7-2.79.12-1.07.18-2.36.18-3.86s-.06-2.77-.18-3.87c-.12-1.09-.36-2.02-.71-2.78-.34-.75-.81-1.32-1.4-1.7s-1.35-.57-2.28-.57-1.68.19-2.28.57c-.6.38-1.08.96-1.43,1.73-.33.72-.56,1.67-.68,2.83-.12,1.16-.18,2.44-.18,3.82,0,1.52.05,2.8.16,3.82s.34,1.94.69,2.75c.32.76.78,1.34,1.37,1.74.59.4,1.38.6,2.35.6.92,0,1.68-.19,2.29-.57s1.07-.96,1.41-1.73h0Z" style="fill: #444;"/>
    <path d="M614,731h-3.5v-4.17h3.5v4.17Z" style="fill: #444;"/>
    <path d="M634.8,720.09c0,3.92-.61,6.79-1.84,8.62-1.23,1.83-3.13,2.75-5.71,2.75s-4.53-.93-5.73-2.78c-1.21-1.86-1.81-4.71-1.81-8.55s.61-6.74,1.83-8.59,3.12-2.78,5.71-2.78,4.53.94,5.73,2.82c1.21,1.88,1.81,4.72,1.81,8.52h.01ZM630.95,726.74c.34-.79.57-1.72.7-2.79.12-1.07.18-2.36.18-3.86s-.06-2.77-.18-3.87c-.12-1.09-.36-2.02-.71-2.78-.34-.75-.81-1.32-1.4-1.7s-1.35-.57-2.28-.57-1.68.19-2.28.57c-.6.38-1.08.96-1.43,1.73-.33.72-.56,1.67-.68,2.83-.12,1.16-.18,2.44-.18,3.82,0,1.52.05,2.8.16,3.82s.34,1.94.69,2.75c.32.76.78,1.34,1.37,1.74.59.4,1.38.6,2.35.6.92,0,1.68-.19,2.29-.57s1.07-.96,1.41-1.73h0Z" style="fill: #444;"/>
    <path d="M654.23,723.92c0,2.22-.73,4.03-2.19,5.43-1.46,1.4-3.25,2.1-5.37,2.1-1.07,0-2.05-.17-2.93-.5s-1.65-.83-2.33-1.48c-.84-.81-1.49-1.88-1.94-3.22-.45-1.34-.68-2.95-.68-4.83s.21-3.65.62-5.14,1.08-2.82,1.98-3.98c.86-1.1,1.97-1.96,3.33-2.58s2.94-.93,4.75-.93c.58,0,1.06.02,1.45.07s.79.14,1.19.26v2.8h-.15c-.27-.15-.69-.29-1.24-.42s-1.12-.2-1.69-.2c-2.1,0-3.78.66-5.03,1.97s-1.98,3.09-2.18,5.33c.82-.5,1.63-.88,2.42-1.14s1.72-.39,2.76-.39c.93,0,1.74.09,2.45.26s1.43.51,2.18,1.03c.86.6,1.51,1.35,1.94,2.26.43.91.65,2.01.65,3.31h.01ZM651.26,724.04c0-.91-.13-1.66-.4-2.26-.27-.6-.71-1.11-1.33-1.55-.45-.31-.95-.52-1.49-.62s-1.12-.15-1.71-.15c-.83,0-1.6.1-2.31.29s-1.45.5-2.2.91c-.02.21-.03.42-.04.62,0,.2-.02.45-.02.75,0,1.54.16,2.76.48,3.66.32.89.75,1.6,1.31,2.12.45.43.94.75,1.46.94.52.2,1.09.3,1.71.3,1.42,0,2.53-.43,3.34-1.3.81-.86,1.22-2.11,1.22-3.73l-.02.02h0Z" style="fill: #444;"/>
  </g>
  <g>
    <path d="M756.84,720.09c0,3.92-.61,6.79-1.84,8.62-1.23,1.83-3.13,2.75-5.71,2.75s-4.53-.93-5.73-2.78c-1.21-1.86-1.81-4.71-1.81-8.55s.61-6.74,1.83-8.59,3.12-2.78,5.71-2.78,4.53.94,5.73,2.82c1.21,1.88,1.81,4.72,1.81,8.52h.01ZM752.99,726.74c.34-.79.57-1.72.7-2.79.12-1.07.18-2.36.18-3.86s-.06-2.77-.18-3.87-.36-2.02-.71-2.78c-.34-.75-.81-1.32-1.4-1.7s-1.35-.57-2.28-.57-1.68.19-2.28.57c-.6.38-1.08.96-1.43,1.73-.33.72-.56,1.67-.68,2.83-.12,1.16-.18,2.44-.18,3.82,0,1.52.05,2.8.16,3.82s.34,1.94.69,2.75c.32.76.78,1.34,1.37,1.74s1.38.6,2.35.6c.92,0,1.68-.19,2.29-.57s1.07-.96,1.41-1.73h0Z" style="fill: #444;"/>
    <path d="M766.02,731h-3.5v-4.17h3.5v4.17Z" style="fill: #444;"/>
    <path d="M786.83,720.09c0,3.92-.61,6.79-1.84,8.62-1.23,1.83-3.13,2.75-5.71,2.75s-4.53-.93-5.73-2.78c-1.21-1.86-1.81-4.71-1.81-8.55s.61-6.74,1.83-8.59,3.12-2.78,5.71-2.78,4.53.94,5.73,2.82c1.21,1.88,1.81,4.72,1.81,8.52h.01ZM782.97,726.74c.34-.79.57-1.72.7-2.79.12-1.07.18-2.36.18-3.86s-.06-2.77-.18-3.87-.36-2.02-.71-2.78c-.34-.75-.81-1.32-1.4-1.7s-1.35-.57-2.28-.57-1.68.19-2.28.57c-.6.38-1.08.96-1.43,1.73-.33.72-.56,1.67-.68,2.83-.12,1.16-.18,2.44-.18,3.82,0,1.52.05,2.8.16,3.82s.34,1.94.69,2.75c.32.76.78,1.34,1.37,1.74s1.38.6,2.35.6c.92,0,1.68-.19,2.29-.57s1.07-.96,1.41-1.73h0Z" style="fill: #444;"/>
    <path d="M806.09,724.92c0,1.88-.74,3.45-2.21,4.7s-3.32,1.88-5.54,1.88c-2.36,0-4.25-.61-5.65-1.83s-2.1-2.78-2.1-4.69c0-1.21.35-2.31,1.05-3.29s1.69-1.76,2.97-2.34v-.09c-1.17-.62-2.04-1.31-2.6-2.05s-.84-1.67-.84-2.78c0-1.64.67-3.01,2.02-4.1s3.06-1.64,5.14-1.64,3.92.52,5.21,1.57,1.95,2.37,1.95,3.98c0,.99-.31,1.96-.92,2.91-.62.95-1.52,1.7-2.71,2.23v.09c1.37.59,2.41,1.31,3.13,2.17s1.08,1.95,1.08,3.28h.02,0ZM803.07,725.2c0-.9-.2-1.62-.59-2.16s-1.17-1.09-2.32-1.63c-.46-.21-.96-.42-1.51-.6s-1.27-.44-2.18-.78c-.88.48-1.58,1.13-2.12,1.95-.53.82-.8,1.75-.8,2.78,0,1.32.45,2.41,1.36,3.27s2.06,1.29,3.46,1.29,2.57-.37,3.42-1.1,1.28-1.74,1.28-3.02h0ZM802.62,714.27c0-1.04-.4-1.88-1.21-2.5s-1.83-.93-3.08-.93-2.24.29-3.03.88-1.18,1.38-1.18,2.37c0,.7.2,1.31.59,1.82.4.51.99.97,1.79,1.37.36.18.88.41,1.56.69s1.34.52,1.98.7c.97-.64,1.64-1.31,2.01-2.01s.56-1.49.56-2.4h.01Z" style="fill: #444;"/>
  </g>
  <g>
    <path d="M918.41,720.09c0,3.92-.61,6.79-1.84,8.62-1.22,1.83-3.13,2.75-5.71,2.75s-4.53-.93-5.73-2.78c-1.21-1.86-1.81-4.71-1.81-8.55s.61-6.74,1.83-8.59,3.12-2.78,5.71-2.78,4.53.94,5.73,2.82c1.21,1.88,1.81,4.72,1.81,8.52h.01ZM914.55,726.74c.34-.79.57-1.72.7-2.79.12-1.07.18-2.36.18-3.86s-.06-2.77-.18-3.87c-.12-1.09-.36-2.02-.71-2.78-.34-.75-.81-1.32-1.4-1.7s-1.35-.57-2.28-.57-1.68.19-2.28.57c-.6.38-1.08.96-1.43,1.73-.33.72-.56,1.67-.68,2.83-.12,1.16-.18,2.44-.18,3.82,0,1.52.05,2.8.16,3.82s.34,1.94.69,2.75c.32.76.78,1.34,1.37,1.74.59.4,1.38.6,2.35.6.92,0,1.68-.19,2.29-.57s1.07-.96,1.41-1.73h0Z" style="fill: #444;"/>
    <path d="M927.59,731h-3.5v-4.17h3.5v4.17Z" style="fill: #444;"/>
    <path d="M947.18,731h-11.81v-2.23h4.54v-14.62h-4.54v-1.99c.62,0,1.27-.05,1.98-.15.7-.1,1.24-.25,1.6-.45.45-.24.8-.55,1.06-.93s.41-.88.45-1.52h2.27v19.66h4.45v2.23h0Z" style="fill: #444;"/>
  </g>
  <g>
    <path d="M67.96,589.23c0,3.92-.61,6.79-1.84,8.62-1.23,1.83-3.13,2.75-5.71,2.75s-4.53-.93-5.73-2.78c-1.21-1.86-1.81-4.71-1.81-8.55s.61-6.74,1.83-8.59c1.22-1.85,3.12-2.78,5.71-2.78s4.53.94,5.73,2.82,1.81,4.72,1.81,8.52h0ZM64.11,595.88c.34-.79.57-1.72.7-2.79.12-1.07.18-2.36.18-3.86s-.06-2.77-.18-3.87-.36-2.02-.71-2.78c-.34-.75-.81-1.32-1.4-1.7s-1.35-.57-2.28-.57-1.68.19-2.28.57-1.08.96-1.43,1.73c-.33.72-.56,1.67-.68,2.83-.12,1.16-.18,2.44-.18,3.82,0,1.52.05,2.8.16,3.82s.34,1.94.69,2.75c.32.76.78,1.34,1.37,1.74s1.38.6,2.35.6c.92,0,1.68-.19,2.29-.57s1.07-.96,1.41-1.73h0Z" style="fill: #444;"/>
    <path d="M77.15,600.14h-3.5v-4.17h3.5v4.17Z" style="fill: #444;"/>
    <path d="M97.95,589.23c0,3.92-.61,6.79-1.84,8.62-1.23,1.83-3.13,2.75-5.71,2.75s-4.53-.93-5.73-2.78c-1.21-1.86-1.81-4.71-1.81-8.55s.61-6.74,1.83-8.59c1.22-1.85,3.12-2.78,5.71-2.78s4.53.94,5.73,2.82,1.81,4.72,1.81,8.52h0ZM94.1,595.88c.34-.79.57-1.72.7-2.79.12-1.07.18-2.36.18-3.86s-.06-2.77-.18-3.87-.36-2.02-.71-2.78c-.34-.75-.81-1.32-1.4-1.7s-1.35-.57-2.28-.57-1.68.19-2.28.57-1.08.96-1.43,1.73c-.33.72-.56,1.67-.68,2.83-.12,1.16-.18,2.44-.18,3.82,0,1.52.05,2.8.16,3.82s.34,1.94.69,2.75c.32.76.78,1.34,1.37,1.74s1.38.6,2.35.6c.92,0,1.68-.19,2.29-.57s1.07-.96,1.41-1.73h-.01Z" style="fill: #444;"/>
    <path d="M116.88,593.21c0,1.02-.19,1.99-.56,2.92s-.88,1.71-1.52,2.34c-.7.68-1.54,1.21-2.51,1.58s-2.1.55-3.38.55c-1.19,0-2.34-.12-3.44-.37-1.1-.25-2.04-.55-2.8-.9v-3.09h.21c.8.51,1.74.94,2.81,1.3s2.13.53,3.16.53c.69,0,1.36-.1,2.01-.29.65-.2,1.23-.54,1.74-1.03.43-.42.75-.92.97-1.51s.33-1.26.33-2.04-.13-1.39-.39-1.9-.62-.93-1.08-1.25c-.51-.37-1.13-.63-1.85-.78s-1.54-.23-2.44-.23-1.69.06-2.48.18-1.48.23-2.06.35v-11.24h13.12v2.56h-10.3v5.8c.42-.04.85-.07,1.29-.09s.82-.03,1.14-.03c1.18,0,2.22.1,3.11.3s1.7.55,2.45,1.06c.78.54,1.39,1.23,1.82,2.08s.64,1.91.64,3.19h.01Z" style="fill: #444;"/>
  </g>
  <g>
    <path d="M87.04,455.78c0,3.92-.61,6.79-1.84,8.62-1.23,1.83-3.13,2.75-5.71,2.75s-4.53-.93-5.73-2.78c-1.21-1.86-1.81-4.71-1.81-8.55s.61-6.74,1.83-8.59,3.12-2.78,5.71-2.78,4.53.94,5.73,2.82,1.81,4.72,1.81,8.52h0ZM83.18,462.43c.34-.79.57-1.72.7-2.79.12-1.07.18-2.36.18-3.86s-.06-2.77-.18-3.87-.36-2.02-.71-2.78c-.34-.75-.81-1.32-1.4-1.7s-1.35-.57-2.28-.57-1.68.19-2.28.57-1.08.96-1.43,1.73c-.33.72-.56,1.67-.68,2.83-.12,1.16-.18,2.44-.18,3.82,0,1.52.05,2.8.16,3.82s.34,1.94.69,2.75c.32.76.78,1.34,1.37,1.74s1.38.6,2.35.6c.92,0,1.68-.19,2.29-.57s1.07-.96,1.41-1.73h-.01Z" style="fill: #444;"/>
    <path d="M96.22,466.69h-3.5v-4.17h3.5v4.17Z" style="fill: #444;"/>
    <path d="M115.81,466.69h-11.81v-2.23h4.54v-14.62h-4.54v-1.99c.62,0,1.27-.05,1.98-.15.7-.1,1.24-.25,1.6-.45.45-.24.8-.55,1.06-.93.26-.38.41-.88.45-1.52h2.27v19.66h4.45v2.23h0Z" style="fill: #444;"/>
  </g>
  <g>
    <path d="M67.96,322.34c0,3.92-.61,6.79-1.84,8.62s-3.13,2.75-5.71,2.75-4.53-.93-5.73-2.78c-1.21-1.86-1.81-4.71-1.81-8.55s.61-6.74,1.83-8.59,3.12-2.78,5.71-2.78,4.53.94,5.73,2.82,1.81,4.72,1.81,8.52h0ZM64.11,328.99c.34-.79.57-1.72.7-2.79s.18-2.36.18-3.86-.06-2.77-.18-3.87-.36-2.02-.71-2.78c-.34-.75-.81-1.32-1.4-1.7s-1.35-.57-2.28-.57-1.68.19-2.28.57-1.08.96-1.43,1.73c-.33.72-.56,1.67-.68,2.83-.12,1.16-.18,2.44-.18,3.82,0,1.52.05,2.8.16,3.82s.34,1.94.69,2.75c.32.76.78,1.34,1.37,1.74s1.38.6,2.35.6c.92,0,1.68-.19,2.29-.57s1.07-.96,1.41-1.73h0Z" style="fill: #444;"/>
    <path d="M77.15,333.25h-3.5v-4.17h3.5v4.17Z" style="fill: #444;"/>
    <path d="M96.73,333.25h-11.81v-2.23h4.54v-14.62h-4.54v-1.99c.62,0,1.27-.05,1.98-.15s1.24-.25,1.6-.45c.45-.24.8-.55,1.06-.93.26-.38.41-.88.45-1.52h2.27v19.66h4.45v2.23h0Z" style="fill: #444;"/>
    <path d="M116.88,326.32c0,1.02-.19,1.99-.56,2.92s-.88,1.71-1.52,2.34c-.7.68-1.54,1.21-2.51,1.57s-2.1.55-3.38.55c-1.19,0-2.34-.12-3.44-.37s-2.04-.55-2.8-.9v-3.09h.21c.8.51,1.74.94,2.81,1.3s2.13.53,3.16.53c.69,0,1.36-.1,2.01-.29.65-.2,1.23-.54,1.74-1.03.43-.42.75-.92.97-1.51s.33-1.26.33-2.04-.13-1.39-.39-1.9-.62-.93-1.08-1.25c-.51-.37-1.13-.63-1.85-.78s-1.54-.23-2.44-.23-1.69.06-2.48.18-1.48.23-2.06.35v-11.24h13.12v2.56h-10.3v5.8c.42-.04.85-.07,1.29-.09s.82-.03,1.14-.03c1.18,0,2.22.1,3.11.3s1.7.55,2.45,1.06c.78.54,1.39,1.23,1.82,2.08s.64,1.91.64,3.19v.02h.01Z" style="fill: #444;"/>
  </g>
  <g>
    <path d="M87.04,188.9c0,3.92-.61,6.79-1.84,8.62s-3.13,2.75-5.71,2.75-4.53-.93-5.73-2.78c-1.21-1.86-1.81-4.71-1.81-8.55s.61-6.74,1.83-8.59,3.12-2.78,5.71-2.78,4.53.94,5.73,2.82,1.81,4.72,1.81,8.52h0ZM83.18,195.55c.34-.79.57-1.72.7-2.79s.18-2.36.18-3.86-.06-2.77-.18-3.87-.36-2.02-.71-2.78c-.34-.75-.81-1.32-1.4-1.7s-1.35-.57-2.28-.57-1.68.19-2.28.57-1.08.96-1.43,1.73c-.33.72-.56,1.67-.68,2.83s-.18,2.44-.18,3.82c0,1.52.05,2.8.16,3.82s.34,1.94.69,2.75c.32.76.78,1.34,1.37,1.74s1.38.6,2.35.6c.92,0,1.68-.19,2.29-.57s1.07-.96,1.41-1.73h-.01Z" style="fill: #444;"/>
    <path d="M96.22,199.81h-3.5v-4.17h3.5v4.17Z" style="fill: #444;"/>
    <path d="M117.05,199.81h-14.77v-3.06c1.03-.88,2.05-1.76,3.08-2.64s1.99-1.75,2.88-2.62c1.88-1.82,3.16-3.26,3.85-4.33s1.04-2.22,1.04-3.46c0-1.13-.37-2.02-1.12-2.66s-1.79-.96-3.13-.96c-.89,0-1.85.16-2.89.47s-2.05.79-3.03,1.44h-.15v-3.08c.69-.34,1.62-.65,2.78-.94,1.16-.28,2.28-.42,3.36-.42,2.24,0,3.99.54,5.26,1.62s1.9,2.54,1.9,4.39c0,.83-.11,1.6-.31,2.32-.21.72-.52,1.4-.93,2.04-.38.61-.83,1.2-1.34,1.79-.51.59-1.13,1.24-1.87,1.95-1.04,1.03-2.12,2.02-3.24,2.98s-2.15,1.85-3.12,2.67h11.73v2.5h.02Z" style="fill: #444;"/>
  </g>
  <g>
    <path d="M67.96,55.46c0,3.92-.61,6.79-1.84,8.62s-3.13,2.75-5.71,2.75-4.53-.93-5.73-2.78c-1.21-1.86-1.81-4.71-1.81-8.55s.61-6.74,1.83-8.59,3.12-2.78,5.71-2.78,4.53.94,5.73,2.82,1.81,4.72,1.81,8.52h0ZM64.11,62.11c.34-.79.57-1.72.7-2.79s.18-2.36.18-3.86-.06-2.77-.18-3.87-.36-2.02-.71-2.78c-.34-.75-.81-1.32-1.4-1.7s-1.35-.57-2.28-.57-1.68.19-2.28.57-1.08.96-1.43,1.73c-.33.72-.56,1.67-.68,2.83s-.18,2.44-.18,3.82c0,1.52.05,2.8.16,3.82s.34,1.94.69,2.75c.32.76.78,1.34,1.37,1.74.59.4,1.38.6,2.35.6.92,0,1.68-.19,2.29-.57s1.07-.96,1.41-1.73h0Z" style="fill: #444;"/>
    <path d="M77.15,66.37h-3.5v-4.17h3.5v4.17Z" style="fill: #444;"/>
    <path d="M97.98,66.37h-14.77v-3.06c1.03-.88,2.05-1.76,3.08-2.64s1.99-1.75,2.88-2.62c1.88-1.82,3.16-3.26,3.85-4.33s1.04-2.22,1.04-3.46c0-1.13-.37-2.02-1.12-2.66s-1.79-.96-3.13-.96c-.89,0-1.85.16-2.89.47s-2.05.79-3.03,1.44h-.15v-3.08c.69-.34,1.62-.65,2.78-.94,1.16-.28,2.28-.42,3.36-.42,2.24,0,3.99.54,5.26,1.62s1.9,2.54,1.9,4.39c0,.83-.11,1.6-.31,2.32-.21.72-.52,1.4-.93,2.04-.38.61-.83,1.2-1.34,1.79-.51.59-1.13,1.24-1.87,1.95-1.04,1.03-2.12,2.02-3.24,2.98s-2.15,1.85-3.12,2.67h11.73v2.5h.02Z" style="fill: #444;"/>
    <path d="M116.88,59.44c0,1.02-.19,1.99-.56,2.92s-.88,1.71-1.52,2.34c-.7.68-1.54,1.21-2.51,1.57s-2.1.55-3.38.55c-1.19,0-2.34-.12-3.44-.37s-2.04-.55-2.8-.9v-3.09h.21c.8.51,1.74.94,2.81,1.3s2.13.53,3.16.53c.69,0,1.36-.1,2.01-.29.65-.2,1.23-.54,1.74-1.03.43-.42.75-.92.97-1.51s.33-1.26.33-2.04-.13-1.39-.39-1.9-.62-.93-1.08-1.25c-.51-.37-1.13-.63-1.85-.78s-1.54-.23-2.44-.23-1.69.06-2.48.18-1.48.23-2.06.35v-11.24h13.12v2.56h-10.3v5.8c.42-.04.85-.07,1.29-.09s.82-.03,1.14-.03c1.18,0,2.22.1,3.11.3s1.7.55,2.45,1.06c.78.54,1.39,1.23,1.82,2.08s.64,1.91.64,3.19v.02h.01Z" style="fill: #444;"/>
  </g>
  <polyline points="648 494 935 494 935 630 648 630 648 494" style="fill: #fff;"/>
  <g style="clip-path: url(#clippath-1);">
    <g>
      <g>
        <path d="M758.13,531.7h-3.09l-2.14-6.08h-9.43l-2.14,6.08h-2.94l7.94-21.81h3.87l7.94,21.81h0ZM752,523.13l-3.82-10.71-3.84,10.71h7.66Z" style="fill: #444;"/>
        <path d="M778.08,531.7h-3.59l-10.34-19.51v19.51h-2.71v-21.81h4.5l9.43,17.81v-17.81h2.71v21.81h0Z" style="fill: #444;"/>
        <path d="M802.31,520.82c0,1.98-.43,3.78-1.3,5.39-.86,1.61-2.01,2.86-3.45,3.75-1,.62-2.11,1.06-3.33,1.33-1.23.27-2.84.41-4.84.41h-5.51v-21.81h5.45c2.13,0,3.82.15,5.08.46,1.25.31,2.32.73,3.19,1.27,1.48.93,2.64,2.16,3.47,3.71s1.25,3.37,1.25,5.49h0ZM799.27,520.77c0-1.71-.3-3.15-.89-4.32s-1.48-2.09-2.67-2.77c-.86-.49-1.77-.83-2.74-1.02s-2.12-.29-3.47-.29h-2.72v16.83h2.72c1.4,0,2.62-.1,3.65-.31,1.04-.21,2-.59,2.86-1.14,1.08-.69,1.9-1.61,2.44-2.74s.81-2.55.81-4.25h0Z" style="fill: #444;"/>
        <path d="M833.8,512.39c.89.98,1.57,2.17,2.04,3.59s.71,3.02.71,4.82-.24,3.41-.72,4.83c-.48,1.42-1.16,2.6-2.03,3.55-.9.99-1.96,1.73-3.19,2.23s-2.62.75-4.2.75-2.93-.25-4.18-.76c-1.26-.51-2.32-1.25-3.2-2.21s-1.56-2.15-2.03-3.56-.71-3.01-.71-4.82.23-3.37.7-4.78,1.15-2.62,2.05-3.63c.86-.96,1.93-1.69,3.2-2.2,1.28-.51,2.66-.76,4.17-.76s2.97.26,4.21.77c1.25.51,2.3,1.24,3.17,2.19h.01ZM833.54,520.8c0-2.83-.63-5.02-1.9-6.56s-3-2.31-5.2-2.31-3.96.77-5.22,2.31c-1.27,1.54-1.9,3.72-1.9,6.56s.64,5.05,1.93,6.57,3.02,2.28,5.19,2.28,3.89-.76,5.18-2.28c1.28-1.52,1.93-3.71,1.93-6.57h0Z" style="fill: #444;"/>
        <path d="M859.2,531.7h-3.76l-7.29-8.67h-4.09v8.67h-2.9v-21.81h6.11c1.32,0,2.42.09,3.3.26s1.67.48,2.37.92c.79.5,1.41,1.13,1.85,1.88.44.76.67,1.72.67,2.88,0,1.57-.4,2.89-1.19,3.95s-1.88,1.86-3.27,2.39l8.2,9.54h0ZM852.42,516.03c0-.62-.11-1.18-.33-1.66-.22-.48-.58-.89-1.09-1.22-.42-.28-.92-.48-1.49-.59-.58-.11-1.25-.17-2.04-.17h-3.41v8.23h2.93c.92,0,1.72-.08,2.4-.24.68-.16,1.26-.46,1.74-.9.44-.41.76-.88.97-1.41.21-.53.32-1.21.32-2.03h0Z" style="fill: #444;"/>
        <path d="M886.36,531.7h-13.8v-21.81h2.9v19.23h10.9v2.58h0Z" style="fill: #444;"/>
        <path d="M905.11,525.47c0,.85-.2,1.69-.59,2.52s-.95,1.53-1.66,2.11c-.78.62-1.69,1.11-2.73,1.46-1.04.35-2.29.53-3.76.53-1.57,0-2.99-.15-4.24-.44s-2.53-.73-3.83-1.3v-3.63h.21c1.1.92,2.38,1.63,3.82,2.12s2.8.75,4.07.75c1.8,0,3.2-.34,4.2-1.01s1.5-1.57,1.5-2.7c0-.97-.24-1.68-.71-2.14s-1.19-.82-2.16-1.07c-.73-.2-1.53-.36-2.38-.48s-1.76-.29-2.72-.48c-1.93-.41-3.37-1.11-4.3-2.1s-1.4-2.28-1.4-3.87c0-1.83.77-3.32,2.31-4.49s3.5-1.75,5.87-1.75c1.53,0,2.94.15,4.22.44s2.41.65,3.4,1.08v3.43h-.21c-.83-.7-1.92-1.29-3.27-1.75-1.35-.46-2.74-.7-4.15-.7-1.55,0-2.8.32-3.74.97s-1.41,1.47-1.41,2.49c0,.91.23,1.62.7,2.14s1.29.91,2.48,1.19c.62.14,1.51.3,2.67.5s2.13.4,2.93.6c1.62.43,2.84,1.08,3.66,1.95s1.23,2.08,1.23,3.65v-.02h0Z" style="fill: #444;"/>
        <path d="M926.45,531.7h-2.9v-10.68h-10.88v10.68h-2.9v-21.81h2.9v8.55h10.88v-8.55h2.9v21.81Z" style="fill: #444;"/>
      </g>
      <polyline points="653 522 733 522 733 518 653 518 653 522" style="fill: #00cc96;"/>
      <path d="M653,522v-4h80v4h-80M738.39,532.15v-22.71h188.04v22.71h-188.04M929.39,499h-281.39v42h281.39v-42" style="fill: #fff;"/>
      <g style="clip-path: url(#clippath-2);">
        <g>
          <rect x="738.39" y="509.44" width="188.04" height="22.71" style="fill: #fff;"/>
          <g>
            <path d="M758.13,531.7h-3.09l-2.14-6.08h-9.43l-2.14,6.08h-2.94l7.94-21.81h3.87l7.94,21.81h0ZM752,523.13l-3.82-10.71-3.84,10.71h7.66Z" style="fill: #444;"/>
            <path d="M778.08,531.7h-3.59l-10.34-19.51v19.51h-2.71v-21.81h4.5l9.43,17.81v-17.81h2.71v21.81h0Z" style="fill: #444;"/>
            <path d="M802.31,520.82c0,1.98-.43,3.78-1.3,5.39-.86,1.61-2.01,2.86-3.45,3.75-1,.62-2.11,1.06-3.33,1.33-1.23.27-2.84.41-4.84.41h-5.51v-21.81h5.45c2.13,0,3.82.15,5.08.46,1.25.31,2.32.73,3.19,1.27,1.48.93,2.64,2.16,3.47,3.71s1.25,3.37,1.25,5.49h0ZM799.27,520.77c0-1.71-.3-3.15-.89-4.32s-1.48-2.09-2.67-2.77c-.86-.49-1.77-.83-2.74-1.02s-2.12-.29-3.47-.29h-2.72v16.83h2.72c1.4,0,2.62-.1,3.65-.31,1.04-.21,2-.59,2.86-1.14,1.08-.69,1.9-1.61,2.44-2.74s.81-2.55.81-4.25h0Z" style="fill: #444;"/>
            <path d="M833.8,512.39c.89.98,1.57,2.17,2.04,3.59s.71,3.02.71,4.82-.24,3.41-.72,4.83c-.48,1.42-1.16,2.6-2.03,3.55-.9.99-1.96,1.73-3.19,2.23s-2.62.75-4.2.75-2.93-.25-4.18-.76c-1.26-.51-2.32-1.25-3.2-2.21s-1.56-2.15-2.03-3.56-.71-3.01-.71-4.82.23-3.37.7-4.78,1.15-2.62,2.05-3.63c.86-.96,1.93-1.69,3.2-2.2,1.28-.51,2.66-.76,4.17-.76s2.97.26,4.21.77c1.25.51,2.3,1.24,3.17,2.19h.01ZM833.54,520.8c0-2.83-.63-5.02-1.9-6.56s-3-2.31-5.2-2.31-3.96.77-5.22,2.31c-1.27,1.54-1.9,3.72-1.9,6.56s.64,5.05,1.93,6.57,3.02,2.28,5.19,2.28,3.89-.76,5.18-2.28c1.28-1.52,1.93-3.71,1.93-6.57h0Z" style="fill: #444;"/>
            <path d="M859.2,531.7h-3.76l-7.29-8.67h-4.09v8.67h-2.9v-21.81h6.11c1.32,0,2.42.09,3.3.26s1.67.48,2.37.92c.79.5,1.41,1.13,1.85,1.88.44.76.67,1.72.67,2.88,0,1.57-.4,2.89-1.19,3.95s-1.88,1.86-3.27,2.39l8.2,9.54h0ZM852.42,516.03c0-.62-.11-1.18-.33-1.66-.22-.48-.58-.89-1.09-1.22-.42-.28-.92-.48-1.49-.59-.58-.11-1.25-.17-2.04-.17h-3.41v8.23h2.93c.92,0,1.72-.08,2.4-.24.68-.16,1.26-.46,1.74-.9.44-.41.76-.88.97-1.41.21-.53.32-1.21.32-2.03h0Z" style="fill: #444;"/>
            <path d="M886.36,531.7h-13.8v-21.81h2.9v19.23h10.9v2.58h0Z" style="fill: #444;"/>
            <path d="M905.11,525.47c0,.85-.2,1.69-.59,2.52s-.95,1.53-1.66,2.11c-.78.62-1.69,1.11-2.73,1.46-1.04.35-2.29.53-3.76.53-1.57,0-2.99-.15-4.24-.44s-2.53-.73-3.83-1.3v-3.63h.21c1.1.92,2.38,1.63,3.82,2.12s2.8.75,4.07.75c1.8,0,3.2-.34,4.2-1.01s1.5-1.57,1.5-2.7c0-.97-.24-1.68-.71-2.14s-1.19-.82-2.16-1.07c-.73-.2-1.53-.36-2.38-.48s-1.76-.29-2.72-.48c-1.93-.41-3.37-1.11-4.3-2.1s-1.4-2.28-1.4-3.87c0-1.83.77-3.32,2.31-4.49s3.5-1.75,5.87-1.75c1.53,0,2.94.15,4.22.44s2.41.65,3.4,1.08v3.43h-.21c-.83-.7-1.92-1.29-3.27-1.75-1.35-.46-2.74-.7-4.15-.7-1.55,0-2.8.32-3.74.97s-1.41,1.47-1.41,2.49c0,.91.23,1.62.7,2.14s1.29.91,2.48,1.19c.62.14,1.51.3,2.67.5s2.13.4,2.93.6c1.62.43,2.84,1.08,3.66,1.95s1.23,2.08,1.23,3.65v-.02h0Z" style="fill: #444;"/>
            <path d="M926.45,531.7h-2.9v-10.68h-10.88v10.68h-2.9v-21.81h2.9v8.55h10.88v-8.55h2.9v21.81Z" style="fill: #444;"/>
          </g>
        </g>
      </g>
      <polyline points="733 518 653 518 653 522 733 522 733 518" style="fill: #00cc96;"/>
      <g>
        <path d="M757.61,573.7h-2.9v-10.68h-10.88v10.68h-2.9v-21.81h2.9v8.55h10.88v-8.55h2.9v21.81Z" style="fill: #444;"/>
        <path d="M780.11,573.7h-3.59l-10.34-19.51v19.51h-2.71v-21.81h4.5l9.43,17.81v-17.81h2.71v21.81h0Z" style="fill: #444;"/>
        <path d="M801.76,567.47c0,.85-.2,1.69-.59,2.52s-.95,1.53-1.66,2.11c-.78.62-1.69,1.11-2.73,1.46-1.04.35-2.29.53-3.76.53-1.57,0-2.99-.15-4.24-.44s-2.53-.73-3.83-1.3v-3.63h.21c1.1.92,2.38,1.63,3.82,2.12s2.8.75,4.07.75c1.8,0,3.2-.34,4.2-1.01s1.5-1.57,1.5-2.7c0-.97-.24-1.68-.71-2.14s-1.19-.82-2.16-1.07c-.73-.2-1.53-.36-2.38-.48s-1.76-.29-2.72-.48c-1.93-.41-3.37-1.11-4.3-2.1s-1.4-2.28-1.4-3.87c0-1.83.77-3.32,2.31-4.49s3.5-1.75,5.87-1.75c1.53,0,2.94.15,4.22.44s2.41.65,3.4,1.08v3.43h-.21c-.83-.7-1.92-1.29-3.27-1.75-1.35-.46-2.74-.7-4.15-.7-1.55,0-2.8.32-3.74.97s-1.41,1.47-1.41,2.49c0,.91.23,1.62.7,2.14s1.29.91,2.48,1.19c.62.14,1.51.3,2.67.5s2.13.4,2.93.6c1.62.43,2.84,1.08,3.66,1.95s1.23,2.08,1.23,3.65v-.02h0Z" style="fill: #444;"/>
        <path d="M831.81,551.89l-5.67,21.81h-3.27l-4.58-18.11-4.48,18.11h-3.19l-5.77-21.81h2.97l4.58,18.13,4.51-18.13h2.94l4.56,18.31,4.56-18.31h2.84Z" style="fill: #444;"/>
      </g>
      <polyline points="653 564 733 564 733 560 653 560 653 564" style="fill: #ff6692;"/>
      <path d="M653,564v-4h80v4h-80M740.94,574.09v-22.59h90.87v22.59h-90.87M929.39,541h-281.39v42h281.39v-42" style="fill: #fff;"/>
      <g style="clip-path: url(#clippath-3);">
        <g>
          <rect x="740.94" y="551.5" width="90.87" height="22.59" style="fill: #fff;"/>
          <g>
            <path d="M757.61,573.7h-2.9v-10.68h-10.88v10.68h-2.9v-21.81h2.9v8.55h10.88v-8.55h2.9v21.81Z" style="fill: #444;"/>
            <path d="M780.11,573.7h-3.59l-10.34-19.51v19.51h-2.71v-21.81h4.5l9.43,17.81v-17.81h2.71v21.81h0Z" style="fill: #444;"/>
            <path d="M801.76,567.47c0,.85-.2,1.69-.59,2.52s-.95,1.53-1.66,2.11c-.78.62-1.69,1.11-2.73,1.46-1.04.35-2.29.53-3.76.53-1.57,0-2.99-.15-4.24-.44s-2.53-.73-3.83-1.3v-3.63h.21c1.1.92,2.38,1.63,3.82,2.12s2.8.75,4.07.75c1.8,0,3.2-.34,4.2-1.01s1.5-1.57,1.5-2.7c0-.97-.24-1.68-.71-2.14s-1.19-.82-2.16-1.07c-.73-.2-1.53-.36-2.38-.48s-1.76-.29-2.72-.48c-1.93-.41-3.37-1.11-4.3-2.1s-1.4-2.28-1.4-3.87c0-1.83.77-3.32,2.31-4.49s3.5-1.75,5.87-1.75c1.53,0,2.94.15,4.22.44s2.41.65,3.4,1.08v3.43h-.21c-.83-.7-1.92-1.29-3.27-1.75-1.35-.46-2.74-.7-4.15-.7-1.55,0-2.8.32-3.74.97s-1.41,1.47-1.41,2.49c0,.91.23,1.62.7,2.14s1.29.91,2.48,1.19c.62.14,1.51.3,2.67.5s2.13.4,2.93.6c1.62.43,2.84,1.08,3.66,1.95s1.23,2.08,1.23,3.65v-.02h0Z" style="fill: #444;"/>
            <path d="M831.81,551.89l-5.67,21.81h-3.27l-4.58-18.11-4.48,18.11h-3.19l-5.77-21.81h2.97l4.58,18.13,4.51-18.13h2.94l4.56,18.31,4.56-18.31h2.84Z" style="fill: #444;"/>
          </g>
        </g>
      </g>
      <polyline points="733 560 653 560 653 564 733 564 733 560" style="fill: #ff6692;"/>
      <g>
        <path d="M758.13,615.7h-3.09l-2.14-6.08h-9.43l-2.14,6.08h-2.94l7.94-21.81h3.87l7.94,21.81h0ZM752,607.13l-3.82-10.71-3.84,10.71h7.66Z" style="fill: #444;"/>
        <path d="M773.32,614.67c-.92.44-1.79.78-2.61,1.03-.83.24-1.7.37-2.63.37-1.18,0-2.27-.17-3.25-.52-.99-.35-1.83-.87-2.53-1.58-.71-.7-1.26-1.59-1.66-2.67s-.59-2.33-.59-3.76c0-2.68.73-4.78,2.2-6.3s3.41-2.29,5.82-2.29c.94,0,1.86.13,2.76.4s1.73.59,2.48.97v3.06h-.15c-.84-.65-1.71-1.16-2.6-1.51-.89-.35-1.76-.53-2.61-.53-1.56,0-2.8.53-3.7,1.58s-1.36,2.59-1.36,4.62.44,3.49,1.33,4.55c.88,1.06,2.13,1.59,3.73,1.59.56,0,1.12-.07,1.7-.22s1.09-.34,1.55-.57c.4-.21.78-.42,1.13-.65s.63-.43.83-.59h.15v3.03h0Z" style="fill: #444;"/>
        <path d="M788.95,614.67c-.92.44-1.79.78-2.61,1.03-.83.24-1.7.37-2.63.37-1.18,0-2.27-.17-3.25-.52-.99-.35-1.83-.87-2.53-1.58-.71-.7-1.26-1.59-1.66-2.67s-.59-2.33-.59-3.76c0-2.68.73-4.78,2.2-6.3s3.41-2.29,5.82-2.29c.94,0,1.86.13,2.76.4s1.73.59,2.48.97v3.06h-.15c-.84-.65-1.71-1.16-2.6-1.51-.89-.35-1.76-.53-2.61-.53-1.56,0-2.8.53-3.7,1.58s-1.36,2.59-1.36,4.62.44,3.49,1.33,4.55c.88,1.06,2.13,1.59,3.73,1.59.56,0,1.12-.07,1.7-.22s1.09-.34,1.55-.57c.4-.21.78-.42,1.13-.65s.63-.43.83-.59h.15v3.03h0Z" style="fill: #444;"/>
        <path d="M806.04,615.7h-2.75v-1.82c-.93.73-1.82,1.29-2.67,1.68s-1.79.59-2.81.59c-1.72,0-3.06-.52-4.01-1.57s-1.44-2.59-1.44-4.62v-10.62h2.75v9.32c0,.83.04,1.54.12,2.13s.24,1.1.5,1.52c.26.43.61.74,1.03.94s1.03.29,1.83.29c.71,0,1.49-.19,2.34-.56s1.63-.84,2.37-1.42v-12.22h2.75v16.36h-.01Z" style="fill: #444;"/>
        <path d="M821.67,602.34h-.15c-.41-.1-.81-.17-1.19-.21-.39-.04-.84-.07-1.37-.07-.85,0-1.67.19-2.46.56s-1.55.86-2.29,1.46v11.62h-2.75v-16.36h2.75v2.42c1.09-.88,2.06-1.5,2.89-1.87s1.69-.55,2.56-.55c.48,0,.83.01,1.04.04s.54.07.97.14v2.83h0Z" style="fill: #444;"/>
        <path d="M836.47,615.7h-2.74v-1.74c-.24.17-.57.4-.99.7s-.82.54-1.21.71c-.46.22-.99.41-1.58.56-.6.15-1.29.23-2.09.23-1.47,0-2.72-.49-3.75-1.46s-1.54-2.22-1.54-3.74c0-1.24.27-2.24.8-3.01.53-.77,1.29-1.37,2.28-1.81,1-.44,2.19-.74,3.59-.89s2.9-.27,4.5-.35v-.42c0-.62-.11-1.14-.33-1.55-.22-.41-.53-.73-.94-.97-.39-.22-.86-.38-1.41-.45s-1.12-.12-1.71-.12c-.72,0-1.53.09-2.42.29-.89.19-1.81.47-2.75.83h-.15v-2.8c.54-.15,1.31-.31,2.33-.48s2.02-.26,3-.26c1.15,0,2.16.09,3.01.29.85.19,1.59.51,2.22.97.62.45,1.08,1.03,1.41,1.74s.48,1.6.48,2.65v11.1-.02h0ZM833.73,611.67v-4.56c-.84.05-1.83.12-2.97.22s-2.04.24-2.7.42c-.79.22-1.43.57-1.92,1.05s-.73,1.12-.73,1.96c0,.94.28,1.64.85,2.12s1.43.71,2.59.71c.97,0,1.85-.19,2.65-.56s1.54-.83,2.23-1.36h0Z" style="fill: #444;"/>
        <path d="M850.27,615.55c-.52.14-1.08.25-1.69.34s-1.15.13-1.63.13c-1.67,0-2.94-.45-3.81-1.35s-1.3-2.34-1.3-4.32v-8.7h-1.86v-2.31h1.86v-4.7h2.75v4.7h5.68v2.31h-5.68v7.46c0,.86.02,1.53.06,2.01s.18.93.41,1.35c.21.39.51.68.89.86s.95.27,1.72.27c.45,0,.92-.07,1.41-.2s.84-.24,1.05-.33h.15v2.48h0Z" style="fill: #444;"/>
        <path d="M867.29,607.8h-12.06c0,1.01.15,1.88.45,2.63s.72,1.36,1.25,1.84c.51.47,1.11.82,1.81,1.05s1.47.35,2.31.35c1.11,0,2.23-.22,3.36-.67,1.13-.44,1.93-.88,2.41-1.31h.15v3c-.93.39-1.88.72-2.84.98s-1.98.4-3.05.4c-2.71,0-4.83-.73-6.36-2.2s-2.29-3.56-2.29-6.26.73-4.8,2.19-6.37,3.38-2.36,5.76-2.36c2.21,0,3.91.64,5.1,1.93s1.79,3.12,1.79,5.49v1.49h.02ZM864.61,605.7c0-1.45-.37-2.56-1.09-3.35-.72-.79-1.81-1.19-3.27-1.19s-2.65.43-3.52,1.3c-.88.87-1.37,1.95-1.49,3.24h9.38,0Z" style="fill: #444;"/>
        <path d="M899.08,614.12c-.54.23-1.02.45-1.46.66-.44.21-1,.42-1.71.64-.6.19-1.24.34-1.94.48-.7.13-1.47.2-2.31.2-1.58,0-3.02-.22-4.31-.67-1.29-.44-2.42-1.14-3.38-2.09-.94-.93-1.67-2.11-2.2-3.54s-.79-3.09-.79-4.99c0-1.8.25-3.4.76-4.82s1.24-2.61,2.2-3.59c.93-.95,2.05-1.67,3.36-2.17s2.77-.75,4.37-.75c1.17,0,2.34.14,3.51.42,1.17.28,2.46.78,3.89,1.49v3.44h-.22c-1.2-1.01-2.39-1.74-3.57-2.2s-2.45-.69-3.79-.69c-1.1,0-2.1.18-2.98.54s-1.67.91-2.37,1.66c-.67.73-1.2,1.66-1.58,2.78-.38,1.12-.56,2.41-.56,3.88s.21,2.85.62,3.96.95,2,1.6,2.7c.68.72,1.48,1.26,2.4,1.6.91.35,1.88.52,2.89.52,1.4,0,2.71-.24,3.93-.72s2.36-1.2,3.43-2.15h.21v3.4h0Z" style="fill: #444;"/>
        <path d="M919.03,609.47c0,.85-.2,1.69-.59,2.52s-.95,1.53-1.66,2.11c-.78.62-1.69,1.11-2.73,1.46-1.04.35-2.29.53-3.76.53-1.57,0-2.99-.15-4.24-.44s-2.53-.73-3.83-1.3v-3.63h.21c1.1.92,2.38,1.63,3.82,2.12s2.8.75,4.07.75c1.8,0,3.2-.34,4.2-1.01s1.5-1.57,1.5-2.7c0-.97-.24-1.68-.71-2.14s-1.19-.82-2.16-1.07c-.73-.2-1.53-.36-2.38-.48s-1.76-.29-2.72-.48c-1.93-.41-3.37-1.11-4.3-2.1s-1.4-2.28-1.4-3.87c0-1.83.77-3.32,2.31-4.49s3.5-1.75,5.87-1.75c1.53,0,2.94.15,4.22.44s2.41.65,3.4,1.08v3.43h-.21c-.83-.7-1.92-1.29-3.27-1.75-1.35-.46-2.74-.7-4.15-.7-1.55,0-2.8.32-3.74.97s-1.41,1.47-1.41,2.49c0,.91.23,1.62.7,2.14s1.29.91,2.48,1.19c.62.14,1.51.3,2.67.5s2.13.4,2.93.6c1.62.43,2.84,1.08,3.66,1.95s1.23,2.08,1.23,3.65v-.02h0Z" style="fill: #444;"/>
      </g>
      <path d="M725,606h8v-4h-8v4M701,606h12v-4h-12v4M677,606h12v-4h-12v4M653,606h12v-4h-12v4" style="fill: gray;"/>
      <path d="M653,606v-4h12v4h-12M677,606v-4h12v4h-12M701,606v-4h12v4h-12M725,606v-4h8v4h-8M738.39,616.15v-22.65h180.59v22.65h-180.59M929.39,583h-281.39v42h281.39v-42" style="fill: #fff;"/>
      <g style="clip-path: url(#clippath-4);">
        <g>
          <rect x="738.39" y="593.5" width="180.59" height="22.65" style="fill: #fff;"/>
          <g>
            <path d="M758.13,615.7h-3.09l-2.14-6.08h-9.43l-2.14,6.08h-2.94l7.94-21.81h3.87l7.94,21.81h0ZM752,607.13l-3.82-10.71-3.84,10.71h7.66Z" style="fill: #444;"/>
            <path d="M773.32,614.67c-.92.44-1.79.78-2.61,1.03-.83.24-1.7.37-2.63.37-1.18,0-2.27-.17-3.25-.52-.99-.35-1.83-.87-2.53-1.58-.71-.7-1.26-1.59-1.66-2.67s-.59-2.33-.59-3.76c0-2.68.73-4.78,2.2-6.3s3.41-2.29,5.82-2.29c.94,0,1.86.13,2.76.4s1.73.59,2.48.97v3.06h-.15c-.84-.65-1.71-1.16-2.6-1.51-.89-.35-1.76-.53-2.61-.53-1.56,0-2.8.53-3.7,1.58s-1.36,2.59-1.36,4.62.44,3.49,1.33,4.55c.88,1.06,2.13,1.59,3.73,1.59.56,0,1.12-.07,1.7-.22s1.09-.34,1.55-.57c.4-.21.78-.42,1.13-.65s.63-.43.83-.59h.15v3.03h0Z" style="fill: #444;"/>
            <path d="M788.95,614.67c-.92.44-1.79.78-2.61,1.03-.83.24-1.7.37-2.63.37-1.18,0-2.27-.17-3.25-.52-.99-.35-1.83-.87-2.53-1.58-.71-.7-1.26-1.59-1.66-2.67s-.59-2.33-.59-3.76c0-2.68.73-4.78,2.2-6.3s3.41-2.29,5.82-2.29c.94,0,1.86.13,2.76.4s1.73.59,2.48.97v3.06h-.15c-.84-.65-1.71-1.16-2.6-1.51-.89-.35-1.76-.53-2.61-.53-1.56,0-2.8.53-3.7,1.58s-1.36,2.59-1.36,4.62.44,3.49,1.33,4.55c.88,1.06,2.13,1.59,3.73,1.59.56,0,1.12-.07,1.7-.22s1.09-.34,1.55-.57c.4-.21.78-.42,1.13-.65s.63-.43.83-.59h.15v3.03h0Z" style="fill: #444;"/>
            <path d="M806.04,615.7h-2.75v-1.82c-.93.73-1.82,1.29-2.67,1.68s-1.79.59-2.81.59c-1.72,0-3.06-.52-4.01-1.57s-1.44-2.59-1.44-4.62v-10.62h2.75v9.32c0,.83.04,1.54.12,2.13s.24,1.1.5,1.52c.26.43.61.74,1.03.94s1.03.29,1.83.29c.71,0,1.49-.19,2.34-.56s1.63-.84,2.37-1.42v-12.22h2.75v16.36h-.01Z" style="fill: #444;"/>
            <path d="M821.67,602.34h-.15c-.41-.1-.81-.17-1.19-.21-.39-.04-.84-.07-1.37-.07-.85,0-1.67.19-2.46.56s-1.55.86-2.29,1.46v11.62h-2.75v-16.36h2.75v2.42c1.09-.88,2.06-1.5,2.89-1.87s1.69-.55,2.56-.55c.48,0,.83.01,1.04.04s.54.07.97.14v2.83h0Z" style="fill: #444;"/>
            <path d="M836.47,615.7h-2.74v-1.74c-.24.17-.57.4-.99.7s-.82.54-1.21.71c-.46.22-.99.41-1.58.56-.6.15-1.29.23-2.09.23-1.47,0-2.72-.49-3.75-1.46s-1.54-2.22-1.54-3.74c0-1.24.27-2.24.8-3.01.53-.77,1.29-1.37,2.28-1.81,1-.44,2.19-.74,3.59-.89s2.9-.27,4.5-.35v-.42c0-.62-.11-1.14-.33-1.55-.22-.41-.53-.73-.94-.97-.39-.22-.86-.38-1.41-.45s-1.12-.12-1.71-.12c-.72,0-1.53.09-2.42.29-.89.19-1.81.47-2.75.83h-.15v-2.8c.54-.15,1.31-.31,2.33-.48s2.02-.26,3-.26c1.15,0,2.16.09,3.01.29.85.19,1.59.51,2.22.97.62.45,1.08,1.03,1.41,1.74s.48,1.6.48,2.65v11.1-.02h0ZM833.73,611.67v-4.56c-.84.05-1.83.12-2.97.22s-2.04.24-2.7.42c-.79.22-1.43.57-1.92,1.05s-.73,1.12-.73,1.96c0,.94.28,1.64.85,2.12s1.43.71,2.59.71c.97,0,1.85-.19,2.65-.56s1.54-.83,2.23-1.36h0Z" style="fill: #444;"/>
            <path d="M850.27,615.55c-.52.14-1.08.25-1.69.34s-1.15.13-1.63.13c-1.67,0-2.94-.45-3.81-1.35s-1.3-2.34-1.3-4.32v-8.7h-1.86v-2.31h1.86v-4.7h2.75v4.7h5.68v2.31h-5.68v7.46c0,.86.02,1.53.06,2.01s.18.93.41,1.35c.21.39.51.68.89.86s.95.27,1.72.27c.45,0,.92-.07,1.41-.2s.84-.24,1.05-.33h.15v2.48h0Z" style="fill: #444;"/>
            <path d="M867.29,607.8h-12.06c0,1.01.15,1.88.45,2.63s.72,1.36,1.25,1.84c.51.47,1.11.82,1.81,1.05s1.47.35,2.31.35c1.11,0,2.23-.22,3.36-.67,1.13-.44,1.93-.88,2.41-1.31h.15v3c-.93.39-1.88.72-2.84.98s-1.98.4-3.05.4c-2.71,0-4.83-.73-6.36-2.2s-2.29-3.56-2.29-6.26.73-4.8,2.19-6.37,3.38-2.36,5.76-2.36c2.21,0,3.91.64,5.1,1.93s1.79,3.12,1.79,5.49v1.49h.02ZM864.61,605.7c0-1.45-.37-2.56-1.09-3.35-.72-.79-1.81-1.19-3.27-1.19s-2.65.43-3.52,1.3c-.88.87-1.37,1.95-1.49,3.24h9.38,0Z" style="fill: #444;"/>
            <path d="M899.08,614.12c-.54.23-1.02.45-1.46.66-.44.21-1,.42-1.71.64-.6.19-1.24.34-1.94.48-.7.13-1.47.2-2.31.2-1.58,0-3.02-.22-4.31-.67-1.29-.44-2.42-1.14-3.38-2.09-.94-.93-1.67-2.11-2.2-3.54s-.79-3.09-.79-4.99c0-1.8.25-3.4.76-4.82s1.24-2.61,2.2-3.59c.93-.95,2.05-1.67,3.36-2.17s2.77-.75,4.37-.75c1.17,0,2.34.14,3.51.42,1.17.28,2.46.78,3.89,1.49v3.44h-.22c-1.2-1.01-2.39-1.74-3.57-2.2s-2.45-.69-3.79-.69c-1.1,0-2.1.18-2.98.54s-1.67.91-2.37,1.66c-.67.73-1.2,1.66-1.58,2.78-.38,1.12-.56,2.41-.56,3.88s.21,2.85.62,3.96.95,2,1.6,2.7c.68.72,1.48,1.26,2.4,1.6.91.35,1.88.52,2.89.52,1.4,0,2.71-.24,3.93-.72s2.36-1.2,3.43-2.15h.21v3.4h0Z" style="fill: #444;"/>
            <path d="M919.03,609.47c0,.85-.2,1.69-.59,2.52s-.95,1.53-1.66,2.11c-.78.62-1.69,1.11-2.73,1.46-1.04.35-2.29.53-3.76.53-1.57,0-2.99-.15-4.24-.44s-2.53-.73-3.83-1.3v-3.63h.21c1.1.92,2.38,1.63,3.82,2.12s2.8.75,4.07.75c1.8,0,3.2-.34,4.2-1.01s1.5-1.57,1.5-2.7c0-.97-.24-1.68-.71-2.14s-1.19-.82-2.16-1.07c-.73-.2-1.53-.36-2.38-.48s-1.76-.29-2.72-.48c-1.93-.41-3.37-1.11-4.3-2.1s-1.4-2.28-1.4-3.87c0-1.83.77-3.32,2.31-4.49s3.5-1.75,5.87-1.75c1.53,0,2.94.15,4.22.44s2.41.65,3.4,1.08v3.43h-.21c-.83-.7-1.92-1.29-3.27-1.75-1.35-.46-2.74-.7-4.15-.7-1.55,0-2.8.32-3.74.97s-1.41,1.47-1.41,2.49c0,.91.23,1.62.7,2.14s1.29.91,2.48,1.19c.62.14,1.51.3,2.67.5s2.13.4,2.93.6c1.62.43,2.84,1.08,3.66,1.95s1.23,2.08,1.23,3.65v-.02h0Z" style="fill: #444;"/>
          </g>
        </g>
      </g>
      <path d="M665,602h-12v4h12v-4M689,602h-12v4h12v-4M713,602h-12v4h12v-4M733,602h-8v4h8v-4" style="fill: gray;"/>
    </g>
  </g>
  <g>
    <path d="M442.23,790.1c-.64.28-1.23.54-1.75.79s-1.2.5-2.05.77c-.71.22-1.49.41-2.33.57s-1.76.24-2.77.24c-1.9,0-3.62-.27-5.18-.8s-2.9-1.37-4.05-2.5c-1.12-1.11-2-2.53-2.64-4.25s-.95-3.71-.95-5.99c0-2.16.3-4.08.91-5.78s1.49-3.13,2.64-4.31c1.11-1.14,2.46-2,4.03-2.6s3.33-.9,5.25-.9c1.41,0,2.81.17,4.21.51s2.96.94,4.67,1.79v4.13h-.26c-1.44-1.21-2.87-2.09-4.29-2.64s-2.94-.83-4.55-.83c-1.32,0-2.52.21-3.58.64s-2.01,1.09-2.84,2c-.81.88-1.44,1.99-1.89,3.33s-.68,2.89-.68,4.65.25,3.42.75,4.75,1.14,2.4,1.92,3.23c.82.87,1.78,1.51,2.87,1.92s2.25.62,3.47.62c1.68,0,3.25-.29,4.71-.86s2.84-1.44,4.11-2.58h.25v4.08l.02.02h0Z" style="fill: #444;"/>
    <path d="M462.14,792h-3.29v-2.09c-.29.2-.69.48-1.19.83s-.98.64-1.45.85c-.55.27-1.18.5-1.9.68s-1.55.27-2.51.27c-1.77,0-3.27-.59-4.5-1.76s-1.85-2.67-1.85-4.48c0-1.49.32-2.69.96-3.61s1.55-1.64,2.73-2.17c1.2-.53,2.63-.88,4.31-1.07s3.47-.33,5.4-.42v-.51c0-.75-.13-1.37-.4-1.86s-.64-.88-1.13-1.16c-.47-.27-1.03-.45-1.69-.54s-1.34-.14-2.06-.14c-.87,0-1.83.11-2.9.34s-2.17.56-3.3.99h-.18v-3.36c.64-.18,1.58-.37,2.79-.58s2.42-.32,3.6-.32c1.38,0,2.59.11,3.61.34s1.91.62,2.66,1.17c.74.54,1.3,1.24,1.69,2.09s.58,1.92.58,3.18v13.32h.02ZM458.86,787.17v-5.47c-1.01.06-2.19.15-3.56.26s-2.45.29-3.24.51c-.95.27-1.72.69-2.3,1.26s-.88,1.35-.88,2.35c0,1.12.34,1.97,1.02,2.54s1.72.85,3.11.85c1.16,0,2.22-.23,3.18-.68s1.85-.99,2.67-1.63h0Z" style="fill: #444;"/>
    <path d="M471.85,792h-3.3v-27.35h3.3v27.35Z" style="fill: #444;"/>
    <path d="M492.9,790.77c-1.1.53-2.15.94-3.14,1.23s-2.04.44-3.16.44c-1.42,0-2.72-.21-3.9-.62s-2.2-1.05-3.04-1.89c-.86-.84-1.52-1.91-1.99-3.2s-.7-2.79-.7-4.52c0-3.21.88-5.73,2.65-7.56s4.09-2.74,6.99-2.74c1.12,0,2.23.16,3.31.47s2.08.7,2.98,1.16v3.67h-.18c-1.01-.79-2.05-1.39-3.12-1.81s-2.12-.63-3.14-.63c-1.88,0-3.35.63-4.44,1.89s-1.63,3.11-1.63,5.55.53,4.19,1.59,5.46,2.55,1.91,4.47,1.91c.67,0,1.35-.09,2.04-.26s1.31-.4,1.86-.69c.48-.25.93-.51,1.35-.78s.76-.51,1-.71h.18v3.64h.02Z" style="fill: #444;"/>
    <path d="M513.42,792h-3.3v-2.18c-1.11.88-2.18,1.55-3.2,2.02s-2.14.7-3.38.7c-2.06,0-3.67-.63-4.82-1.89s-1.72-3.11-1.72-5.55v-12.74h3.3v11.18c0,1,.05,1.85.14,2.56s.29,1.32.6,1.82c.32.52.73.89,1.23,1.12s1.24.35,2.2.35c.86,0,1.79-.22,2.8-.67s1.96-1.01,2.84-1.71v-14.66h3.3v19.65h.01Z" style="fill: #444;"/>
    <path d="M523.26,792h-3.3v-27.35h3.3v27.35Z" style="fill: #444;"/>
    <path d="M545.06,792h-3.29v-2.09c-.29.2-.69.48-1.19.83s-.98.64-1.45.85c-.55.27-1.18.5-1.9.68s-1.55.27-2.51.27c-1.77,0-3.27-.59-4.5-1.76s-1.85-2.67-1.85-4.48c0-1.49.32-2.69.96-3.61s1.55-1.64,2.73-2.17c1.2-.53,2.63-.88,4.31-1.07s3.47-.33,5.4-.42v-.51c0-.75-.13-1.37-.4-1.86s-.64-.88-1.13-1.16c-.47-.27-1.03-.45-1.69-.54s-1.34-.14-2.06-.14c-.87,0-1.83.11-2.9.34s-2.17.56-3.3.99h-.18v-3.36c.64-.18,1.58-.37,2.79-.58s2.42-.32,3.6-.32c1.38,0,2.59.11,3.61.34s1.91.62,2.66,1.17c.74.54,1.3,1.24,1.69,2.09s.58,1.92.58,3.18v13.32h.02ZM541.77,787.17v-5.47c-1.01.06-2.19.15-3.56.26s-2.45.29-3.24.51c-.95.27-1.72.69-2.3,1.26s-.88,1.35-.88,2.35c0,1.12.34,1.97,1.02,2.54s1.72.85,3.11.85c1.16,0,2.22-.23,3.18-.68s1.85-.99,2.67-1.63h0Z" style="fill: #444;"/>
    <path d="M561.62,791.82c-.62.16-1.3.3-2.03.4s-1.39.16-1.96.16c-2,0-3.53-.54-4.57-1.62s-1.56-2.81-1.56-5.19v-10.44h-2.23v-2.78h2.23v-5.64h3.3v5.64h6.82v2.78h-6.82v8.95c0,1.03.02,1.84.07,2.42s.21,1.12.49,1.63c.26.47.61.81,1.06,1.03s1.14.33,2.07.33c.54,0,1.1-.08,1.69-.24s1.01-.29,1.27-.4h.18v2.97h0Z" style="fill: #444;"/>
    <path d="M569.16,769.08h-3.73v-3.43h3.73v3.43ZM568.95,792h-3.3v-19.63h3.3v19.63Z" style="fill: #444;"/>
    <path d="M592.22,782.19c0,3.2-.82,5.72-2.46,7.58s-3.84,2.78-6.59,2.78-4.98-.93-6.62-2.78-2.45-4.38-2.45-7.58.82-5.73,2.45-7.58,3.84-2.79,6.62-2.79,4.95.93,6.59,2.79,2.46,4.39,2.46,7.58ZM588.81,782.19c0-2.54-.5-4.43-1.49-5.67s-2.38-1.85-4.15-1.85-3.18.62-4.17,1.85-1.49,3.13-1.49,5.67.5,4.33,1.49,5.6,2.38,1.91,4.17,1.91,3.14-.63,4.14-1.89,1.5-3.13,1.5-5.62h0Z" style="fill: #444;"/>
    <path d="M613.75,792h-3.3v-11.18c0-.9-.05-1.75-.16-2.54s-.3-1.41-.58-1.85c-.29-.49-.71-.86-1.27-1.1s-1.27-.36-2.14-.36-1.85.22-2.83.67-1.93,1.01-2.83,1.71v14.66h-3.3v-19.63h3.3v2.18c1.03-.86,2.1-1.52,3.2-2s2.23-.72,3.39-.72c2.12,0,3.74.64,4.85,1.92s1.67,3.12,1.67,5.52v12.74-.02h0Z" style="fill: #444;"/>
    <path d="M645.03,775.97h-.18c-.49-.12-.97-.2-1.43-.25s-1.01-.08-1.64-.08c-1.02,0-2,.23-2.95.68s-1.86,1.03-2.74,1.75v13.94h-3.3v-19.63h3.3v2.9c1.31-1.05,2.47-1.8,3.47-2.24s2.02-.66,3.07-.66c.57,0,.99.01,1.25.04s.64.08,1.16.17v3.39h0Z" style="fill: #444;"/>
    <path d="M662.78,792h-3.29v-2.09c-.29.2-.69.48-1.19.83s-.98.64-1.45.85c-.55.27-1.18.5-1.9.68s-1.55.27-2.51.27c-1.77,0-3.27-.59-4.5-1.76s-1.85-2.67-1.85-4.48c0-1.49.32-2.69.96-3.61s1.55-1.64,2.73-2.17c1.2-.53,2.63-.88,4.31-1.07s3.47-.33,5.4-.42v-.51c0-.75-.13-1.37-.4-1.86s-.64-.88-1.13-1.16c-.47-.27-1.03-.45-1.69-.54s-1.34-.14-2.06-.14c-.87,0-1.83.11-2.9.34s-2.17.56-3.3.99h-.18v-3.36c.64-.18,1.58-.37,2.79-.58s2.42-.32,3.6-.32c1.38,0,2.59.11,3.61.34s1.91.62,2.66,1.17c.74.54,1.3,1.24,1.69,2.09s.58,1.92.58,3.18v13.32h.02ZM659.5,787.17v-5.47c-1.01.06-2.19.15-3.56.26s-2.45.29-3.24.51c-.95.27-1.72.69-2.3,1.26s-.88,1.35-.88,2.35c0,1.12.34,1.97,1.02,2.54s1.72.85,3.11.85c1.16,0,2.22-.23,3.18-.68s1.85-.99,2.67-1.63h0Z" style="fill: #444;"/>
    <path d="M679.34,791.82c-.62.16-1.3.3-2.03.4s-1.39.16-1.96.16c-2,0-3.53-.54-4.57-1.62s-1.56-2.81-1.56-5.19v-10.44h-2.23v-2.78h2.23v-5.64h3.3v5.64h6.82v2.78h-6.82v8.95c0,1.03.02,1.84.07,2.42s.21,1.12.49,1.63c.26.47.61.81,1.06,1.03s1.14.33,2.07.33c.54,0,1.1-.08,1.69-.24s1.01-.29,1.27-.4h.18v2.97h0Z" style="fill: #444;"/>
    <path d="M699.77,782.53h-14.47c0,1.21.18,2.26.54,3.16s.86,1.63,1.49,2.21c.61.56,1.33.98,2.17,1.27s1.76.42,2.77.42c1.34,0,2.68-.27,4.03-.8s2.32-1.06,2.89-1.57h.18v3.6c-1.11.47-2.25.86-3.41,1.18s-2.38.47-3.66.47c-3.26,0-5.8-.88-7.63-2.65s-2.74-4.27-2.74-7.51.88-5.76,2.63-7.65,4.06-2.83,6.92-2.83c2.65,0,4.69.77,6.13,2.32s2.15,3.74,2.15,6.59v1.79h0ZM696.55,779.99c-.01-1.73-.45-3.08-1.31-4.03s-2.17-1.42-3.93-1.42-3.18.52-4.23,1.56-1.64,2.34-1.78,3.88h11.25Z" style="fill: #444;"/>
  </g>
  <g>
    <path d="M34.1,468.88c.28.64.54,1.23.79,1.75s.5,1.2.77,2.05c.22.71.41,1.49.57,2.33s.24,1.76.24,2.77c0,1.9-.27,3.62-.8,5.18s-1.37,2.9-2.5,4.05c-1.11,1.12-2.53,2-4.25,2.64s-3.71.95-5.99.95c-2.16,0-4.08-.3-5.78-.91s-3.13-1.49-4.31-2.64c-1.14-1.11-2-2.46-2.6-4.03s-.9-3.33-.9-5.25c0-1.41.17-2.81.51-4.21s.94-2.96,1.79-4.67h4.13v.26c-1.21,1.44-2.09,2.87-2.64,4.29s-.83,2.94-.83,4.55c0,1.32.21,2.52.64,3.58s1.09,2.01,2,2.84c.88.81,1.99,1.44,3.33,1.89s2.89.68,4.65.68,3.42-.25,4.75-.75,2.4-1.14,3.23-1.92c.87-.82,1.51-1.78,1.92-2.87s.62-2.25.62-3.47c0-1.68-.29-3.25-.86-4.71s-1.44-2.84-2.58-4.11v-.25h4.08l.02-.02h0Z" style="fill: #444;"/>
    <path d="M26.19,447.49c3.2,0,5.72.82,7.58,2.46s2.78,3.84,2.78,6.59-.93,4.98-2.78,6.62-4.38,2.45-7.58,2.45-5.73-.82-7.58-2.45-2.79-3.84-2.79-6.62.93-4.95,2.79-6.59,4.39-2.46,7.58-2.46ZM26.19,450.9c-2.54,0-4.43.5-5.67,1.49s-1.85,2.38-1.85,4.15.62,3.18,1.85,4.17,3.13,1.49,5.67,1.49,4.33-.5,5.6-1.49,1.91-2.38,1.91-4.17-.63-3.14-1.89-4.14-3.13-1.5-5.62-1.5h0Z" style="fill: #444;"/>
    <path d="M36,413.72v3.3h-11.18c-.84,0-1.66.04-2.44.11s-1.41.24-1.88.48c-.5.27-.88.66-1.14,1.16s-.39,1.23-.39,2.18.23,1.85.69,2.78,1.05,1.85,1.77,2.78c.27-.04.58-.06.94-.09s.71-.04,1.06-.04h12.57v3.3h-11.18c-.87,0-1.69.04-2.47.11s-1.4.24-1.87.48c-.5.27-.88.66-1.13,1.16s-.38,1.23-.38,2.18.22,1.81.67,2.72,1.01,1.81,1.71,2.72h14.66v3.3h-19.63v-3.3h2.18c-.86-1.03-1.52-2.06-2-3.08s-.72-2.12-.72-3.28c0-1.34.28-2.47.84-3.4s1.34-1.63,2.34-2.08c-1.12-1.34-1.94-2.55-2.43-3.66s-.75-2.28-.75-3.53c0-2.16.65-3.75,1.96-4.77s3.13-1.54,5.48-1.54h12.74-.02Z" style="fill: #444;"/>
    <path d="M36,378.71v3.3h-11.18c-.84,0-1.66.04-2.44.11s-1.41.24-1.88.48c-.5.27-.88.66-1.14,1.16s-.39,1.23-.39,2.18.23,1.85.69,2.78,1.05,1.85,1.77,2.78c.27-.04.58-.06.94-.09s.71-.04,1.06-.04h12.57v3.3h-11.18c-.87,0-1.69.04-2.47.11s-1.4.24-1.87.48c-.5.27-.88.66-1.13,1.16s-.38,1.23-.38,2.18.22,1.81.67,2.72,1.01,1.81,1.71,2.72h14.66v3.3h-19.63v-3.3h2.18c-.86-1.03-1.52-2.06-2-3.08s-.72-2.12-.72-3.28c0-1.34.28-2.47.84-3.4s1.34-1.63,2.34-2.08c-1.12-1.34-1.94-2.55-2.43-3.66s-.75-2.28-.75-3.53c0-2.16.65-3.75,1.96-4.77s3.13-1.54,5.48-1.54h12.74-.02Z" style="fill: #444;"/>
    <path d="M36,356.06v3.3h-2.18c.88,1.11,1.55,2.18,2.02,3.2s.7,2.14.7,3.38c0,2.06-.63,3.67-1.89,4.82s-3.11,1.72-5.55,1.72h-12.74v-3.3h11.18c1,0,1.85-.05,2.56-.14s1.32-.29,1.82-.6c.52-.32.89-.73,1.12-1.23s.35-1.24.35-2.2c0-.86-.22-1.79-.67-2.8s-1.01-1.96-1.71-2.84h-14.66v-3.3h19.65Z" style="fill: #444;"/>
    <path d="M36,333.14v3.3h-11.18c-.9,0-1.75.05-2.54.16s-1.41.3-1.85.58c-.49.29-.86.71-1.1,1.27s-.36,1.27-.36,2.14.22,1.85.67,2.83,1.01,1.93,1.71,2.83h14.66v3.3h-19.63v-3.3h2.18c-.86-1.03-1.52-2.1-2-3.2s-.72-2.23-.72-3.39c0-2.12.64-3.74,1.92-4.85s3.12-1.67,5.52-1.67h12.74-.02,0Z" style="fill: #444;"/>
    <path d="M13.08,323.23v3.73h-3.43v-3.73h3.43ZM36,323.44v3.3h-19.63v-3.3h19.63Z" style="fill: #444;"/>
    <path d="M35.82,306.71c.16.62.3,1.3.4,2.03s.16,1.39.16,1.96c0,2-.54,3.53-1.62,4.57s-2.81,1.56-5.19,1.56h-10.44v2.23h-2.78v-2.23h-5.64v-3.3h5.64v-6.82h2.78v6.82h8.95c1.03,0,1.84-.02,2.42-.07s1.12-.21,1.63-.49c.47-.26.81-.61,1.03-1.06s.33-1.14.33-2.07c0-.54-.08-1.1-.24-1.69s-.29-1.01-.4-1.27v-.18h2.97Z" style="fill: #444;"/>
    <path d="M16.37,285.88l26.88,11.46v3.53l-8.19-3.66-18.69,7.82v-3.59l14.55-6.03-14.55-6.08v-3.46h0Z" style="fill: #444;"/>
    <path d="M36,248v3.71l-7.29,2.57v11.32l7.29,2.57v3.53l-26.17-9.53v-4.64l26.17-9.53ZM25.72,255.34l-12.85,4.59,12.85,4.61v-9.19h0Z" style="fill: #444;"/>
    <path d="M36,222.37v4.52l-10.41,8.75v4.9h10.41v3.48H9.83v-7.33c0-1.58.1-2.9.31-3.96s.57-2,1.1-2.85c.6-.95,1.35-1.69,2.26-2.22s2.06-.8,3.45-.8c1.89,0,3.47.47,4.74,1.42s2.23,2.26,2.87,3.92l11.44-9.84h0ZM17.19,230.51c-.75,0-1.42.13-2,.4s-1.07.7-1.47,1.31c-.34.5-.58,1.1-.71,1.79s-.2,1.51-.2,2.44v4.1h9.88v-3.52c0-1.1-.1-2.06-.29-2.88s-.55-1.52-1.08-2.09c-.49-.53-1.06-.92-1.7-1.17s-1.45-.38-2.43-.38h0Z" style="fill: #444;"/>
    <path d="M36,209.76v10.34h-2.67v-3.43H12.5v3.43h-2.67v-10.34h2.67v3.43h20.83v-3.43h2.67Z" style="fill: #444;"/>
  </g>
</svg>