<?xml version="1.0" encoding="UTF-8"?>
<svg id="Layer_1" data-name="Layer 1" xmlns="http://www.w3.org/2000/svg" width="1000" height="800.41" xmlns:xlink="http://www.w3.org/1999/xlink" viewBox="0 0 1000 800.41">
  <defs>
    <clipPath id="clippath">
      <rect x="120" y=".41" width="880" height="700" style="fill: none;"/>
    </clipPath>
    <clipPath id="clippath-1">
      <rect x="104.01" width="11.79" height=".41" style="fill: none;"/>
    </clipPath>
    <clipPath id="clippath-2">
      <rect x="104.01" y=".41" width="11.79" height="21.49" style="fill: none;"/>
    </clipPath>
    <clipPath id="clippath-3">
      <rect x="736" y="447.41" width="221" height="183" style="fill: none;"/>
    </clipPath>
    <clipPath id="clippath-4">
      <rect x="741.53" y="499.21" width="160.77" height="2.41" style="fill: none;"/>
    </clipPath>
  </defs>
  <polyline points="0 .41 1000 .41 1000 800.41 0 800.41 0 .41" style="fill: #fff;"/>
  <polyline points="258.03 .41 258.03 700.41 259.03 700.41 259.03 .41" style="fill: #eee;"/>
  <polyline points="351.96 .41 351.96 700.41 352.96 700.41 352.96 .41" style="fill: #eee;"/>
  <polyline points="445.89 .41 445.89 700.41 446.89 700.41 446.89 .41" style="fill: #eee;"/>
  <polyline points="539.82 .41 539.82 700.41 540.82 700.41 540.82 .41" style="fill: #eee;"/>
  <polyline points="633.75 .41 633.75 700.41 634.75 700.41 634.75 .41" style="fill: #eee;"/>
  <polyline points="727.68 .41 727.68 700.41 728.68 700.41 728.68 .41" style="fill: #eee;"/>
  <polyline points="821.6 .41 821.6 700.41 822.6 700.41 822.6 .41 821.6 .41" style="fill: #eee;"/>
  <polyline points="915.53 .41 915.53 700.41 916.53 700.41 916.53 .41" style="fill: #eee;"/>
  <polyline points="120 674.21 1000 674.21 1000 673.21 120 673.21" style="fill: #eee;"/>
  <polyline points="120 591.42 1000 591.42 1000 590.42 120 590.42 120 591.42" style="fill: #eee;"/>
  <polyline points="120 508.64 1000 508.64 1000 507.64 120 507.64 120 508.64" style="fill: #eee;"/>
  <polyline points="120 425.85 1000 425.85 1000 424.85 120 424.85" style="fill: #eee;"/>
  <polyline points="120 343.06 1000 343.06 1000 342.06 120 342.06" style="fill: #eee;"/>
  <polyline points="120 260.27 1000 260.27 1000 259.27 120 259.27" style="fill: #eee;"/>
  <polyline points="120 177.48 1000 177.48 1000 176.48 120 176.48" style="fill: #eee;"/>
  <polyline points="120 94.69 1000 94.69 1000 93.69 120 93.69" style="fill: #eee;"/>
  <polyline points="120 11.9 1000 11.9 1000 10.9 120 10.9" style="fill: #eee;"/>
  <polyline points="164.11 .41 164.11 700.41 165.11 700.41 165.11 .41" style="fill: #444;"/>
  <g style="clip-path: url(#clippath);">
    <g>
      <circle cx="205.3" cy="529.98" r="4" style="fill: #636efa;"/>
      <circle cx="298.91" cy="315.14" r="4" style="fill: #636efa;"/>
      <circle cx="362.95" cy="219.65" r="4" style="fill: #636efa;"/>
      <circle cx="422.88" cy="148.12" r="4" style="fill: #636efa;"/>
      <circle cx="750.14" cy="47.32" r="4" style="fill: #636efa;"/>
      <circle cx="951" cy="40.41" r="4" style="fill: #636efa;"/>
      <circle cx="182.09" cy="571.52" r="4" style="fill: #00cc96;"/>
      <circle cx="195.22" cy="496.79" r="4" style="fill: #00cc96;"/>
      <circle cx="205.83" cy="385.68" r="4" style="fill: #00cc96;"/>
      <circle cx="225.54" cy="296.76" r="4" style="fill: #00cc96;"/>
      <circle cx="292.18" cy="154.57" r="4" style="fill: #00cc96;"/>
      <circle cx="340.98" cy="149.41" r="4" style="fill: #00cc96;"/>
      <circle cx="452.76" cy="84.26" r="4" style="fill: #00cc96;"/>
      <circle cx="560.97" cy="50.01" r="4" style="fill: #00cc96;"/>
      <circle cx="680.29" cy="41.15" r="4" style="fill: #00cc96;"/>
      <circle cx="169" cy="660.41" r="4" style="fill: #ab63fa;"/>
      <circle cx="170.63" cy="586.23" r="4" style="fill: #ab63fa;"/>
      <circle cx="172.03" cy="552.3" r="4" style="fill: #ab63fa;"/>
      <circle cx="187.58" cy="405.31" r="4" style="fill: #ab63fa;"/>
      <circle cx="198.88" cy="305.33" r="4" style="fill: #ab63fa;"/>
      <circle cx="221.4" cy="265.95" r="4" style="fill: #ab63fa;"/>
      <circle cx="232.93" cy="237.85" r="4" style="fill: #ab63fa;"/>
      <circle cx="268.52" cy="148.02" r="4" style="fill: #ab63fa;"/>
      <circle cx="317.79" cy="145.19" r="4" style="fill: #ab63fa;"/>
      <polygon points="207.13 530.78 300.67 316.1 364.55 220.85 424.03 149.86 750.47 49.31 951.07 42.41 950.93 38.41 749.81 45.33 421.73 146.38 361.35 218.45 297.15 314.18 203.47 529.18 207.13 530.78" style="fill: #636efa;"/>
      <polygon points="184.06 571.87 197.2 497.06 207.81 385.99 227.44 297.41 293.51 156.44 341.62 151.35 453.58 86.1 561.35 51.99 680.44 43.14 680.14 39.15 560.59 48.03 451.94 82.42 340.34 147.47 290.85 152.7 223.64 296.11 203.85 385.37 193.24 496.52 180.12 571.17 184.06 571.87" style="fill: #00cc96;"/>
      <polygon points="171 660.47 174.03 552.43 189.57 405.52 189.57 405.53 200.82 305.96 223.2 266.83 234.79 238.6 269.91 149.94 317.9 147.19 317.68 143.19 267.13 146.1 231.07 237.1 219.6 265.07 196.94 304.69 185.59 405.09 170.03 552.17 167 660.35 171 660.47" style="fill: #ab63fa;"/>
    </g>
  </g>
  <path d="M172.17,720.5c0,3.92-.61,6.79-1.84,8.62s-3.13,2.75-5.71,2.75-4.53-.93-5.73-2.78c-1.21-1.86-1.81-4.71-1.81-8.55s.61-6.74,1.83-8.59,3.12-2.78,5.71-2.78,4.53.94,5.73,2.82c1.21,1.88,1.81,4.72,1.81,8.52h0ZM168.32,727.15c.34-.79.57-1.72.7-2.79.12-1.07.18-2.36.18-3.86s-.06-2.77-.18-3.87-.36-2.02-.71-2.78c-.34-.75-.81-1.32-1.4-1.7s-1.35-.57-2.28-.57-1.68.19-2.28.57-1.08.96-1.43,1.73c-.33.72-.56,1.67-.68,2.83-.12,1.16-.18,2.44-.18,3.82,0,1.52.05,2.8.16,3.82s.34,1.94.69,2.75c.32.76.78,1.34,1.37,1.74s1.38.6,2.35.6c.92,0,1.68-.19,2.29-.57s1.07-.96,1.41-1.73h-.01Z" style="fill: #444;"/>
  <g>
    <path d="M241.56,720.5c0,3.92-.61,6.79-1.84,8.62s-3.13,2.75-5.71,2.75-4.53-.93-5.73-2.78c-1.21-1.86-1.81-4.71-1.81-8.55s.61-6.74,1.83-8.59,3.12-2.78,5.71-2.78,4.53.94,5.73,2.82c1.21,1.88,1.81,4.72,1.81,8.52h0ZM237.71,727.15c.34-.79.57-1.72.7-2.79.12-1.07.18-2.36.18-3.86s-.06-2.77-.18-3.87-.36-2.02-.71-2.78c-.34-.75-.81-1.32-1.4-1.7s-1.35-.57-2.28-.57-1.68.19-2.28.57-1.08.96-1.43,1.73c-.33.72-.56,1.67-.68,2.83-.12,1.16-.18,2.44-.18,3.82,0,1.52.05,2.8.16,3.82s.34,1.94.69,2.75c.32.76.78,1.34,1.37,1.74s1.38.6,2.35.6c.92,0,1.68-.19,2.29-.57s1.07-.96,1.41-1.73h-.01Z" style="fill: #444;"/>
    <path d="M250.74,731.41h-3.5v-4.17h3.5v4.17Z" style="fill: #444;"/>
    <path d="M271.54,720.5c0,3.92-.61,6.79-1.84,8.62s-3.13,2.75-5.71,2.75-4.53-.93-5.73-2.78c-1.21-1.86-1.81-4.71-1.81-8.55s.61-6.74,1.83-8.59,3.12-2.78,5.71-2.78,4.53.94,5.73,2.82c1.21,1.88,1.81,4.72,1.81,8.52h.01ZM267.69,727.15c.34-.79.57-1.72.7-2.79.12-1.07.18-2.36.18-3.86s-.06-2.77-.18-3.87-.36-2.02-.71-2.78c-.34-.75-.81-1.32-1.4-1.7s-1.35-.57-2.28-.57-1.68.19-2.28.57-1.08.96-1.43,1.73c-.33.72-.56,1.67-.68,2.83-.12,1.16-.18,2.44-.18,3.82,0,1.52.05,2.8.16,3.82s.34,1.94.69,2.75c.32.76.78,1.34,1.37,1.74s1.38.6,2.35.6c.92,0,1.68-.19,2.29-.57s1.07-.96,1.41-1.73h-.01Z" style="fill: #444;"/>
    <path d="M290.65,731.41h-14.77v-3.06c1.03-.88,2.05-1.76,3.08-2.64s1.99-1.75,2.88-2.62c1.88-1.82,3.16-3.26,3.85-4.33s1.04-2.22,1.04-3.46c0-1.13-.37-2.02-1.12-2.66-.75-.64-1.79-.96-3.13-.96-.89,0-1.85.16-2.89.47s-2.05.79-3.03,1.44h-.15v-3.08c.69-.34,1.62-.65,2.78-.94,1.16-.28,2.28-.42,3.36-.42,2.24,0,3.99.54,5.26,1.62s1.9,2.54,1.9,4.39c0,.83-.11,1.6-.31,2.32-.21.72-.52,1.4-.93,2.04-.38.61-.83,1.2-1.34,1.79-.51.59-1.13,1.24-1.87,1.95-1.04,1.03-2.12,2.02-3.24,2.98s-2.15,1.85-3.12,2.67h11.73v2.5h.02,0Z" style="fill: #444;"/>
  </g>
  <g>
    <path d="M335.49,720.5c0,3.92-.61,6.79-1.84,8.62s-3.13,2.75-5.71,2.75-4.53-.93-5.73-2.78c-1.21-1.86-1.81-4.71-1.81-8.55s.61-6.74,1.83-8.59,3.12-2.78,5.71-2.78,4.53.94,5.73,2.82c1.21,1.88,1.81,4.72,1.81,8.52h.01ZM331.64,727.15c.34-.79.57-1.72.7-2.79.12-1.07.18-2.36.18-3.86s-.06-2.77-.18-3.87-.36-2.02-.71-2.78c-.34-.75-.81-1.32-1.4-1.7s-1.35-.57-2.28-.57-1.68.19-2.28.57-1.08.96-1.43,1.73c-.33.72-.56,1.67-.68,2.83-.12,1.16-.18,2.44-.18,3.82,0,1.52.05,2.8.16,3.82s.34,1.94.69,2.75c.32.76.78,1.34,1.37,1.74s1.38.6,2.35.6c.92,0,1.68-.19,2.29-.57s1.07-.96,1.41-1.73h-.01Z" style="fill: #444;"/>
    <path d="M344.67,731.41h-3.5v-4.17h3.5v4.17Z" style="fill: #444;"/>
    <path d="M365.48,720.5c0,3.92-.61,6.79-1.84,8.62s-3.13,2.75-5.71,2.75-4.53-.93-5.73-2.78c-1.21-1.86-1.81-4.71-1.81-8.55s.61-6.74,1.83-8.59,3.12-2.78,5.71-2.78,4.53.94,5.73,2.82c1.21,1.88,1.81,4.72,1.81,8.52h.01ZM361.62,727.15c.34-.79.57-1.72.7-2.79.12-1.07.18-2.36.18-3.86s-.06-2.77-.18-3.87-.36-2.02-.71-2.78c-.34-.75-.81-1.32-1.4-1.7s-1.35-.57-2.28-.57-1.68.19-2.28.57-1.08.96-1.43,1.73c-.33.72-.56,1.67-.68,2.83-.12,1.16-.18,2.44-.18,3.82,0,1.52.05,2.8.16,3.82s.34,1.94.69,2.75c.32.76.78,1.34,1.37,1.74s1.38.6,2.35.6c.92,0,1.68-.19,2.29-.57s1.07-.96,1.41-1.73h-.01Z" style="fill: #444;"/>
    <path d="M385.07,725.27h-3.24v6.14h-2.81v-6.14h-10.44v-3.37l10.56-12.3h2.7v13.33h3.24v2.34h-.01ZM379.02,722.93v-9.84l-8.45,9.84h8.45Z" style="fill: #444;"/>
  </g>
  <g>
    <path d="M429.42,720.5c0,3.92-.61,6.79-1.84,8.62s-3.13,2.75-5.71,2.75-4.53-.93-5.73-2.78c-1.21-1.86-1.81-4.71-1.81-8.55s.61-6.74,1.83-8.59,3.12-2.78,5.71-2.78,4.53.94,5.73,2.82c1.21,1.88,1.81,4.72,1.81,8.52h.01ZM425.57,727.15c.34-.79.57-1.72.7-2.79.12-1.07.18-2.36.18-3.86s-.06-2.77-.18-3.87-.36-2.02-.71-2.78c-.34-.75-.81-1.32-1.4-1.7s-1.35-.57-2.28-.57-1.68.19-2.28.57-1.08.96-1.43,1.73c-.33.72-.56,1.67-.68,2.83-.12,1.16-.18,2.44-.18,3.82,0,1.52.05,2.8.16,3.82s.34,1.94.69,2.75c.32.76.78,1.34,1.37,1.74s1.38.6,2.35.6c.92,0,1.68-.19,2.29-.57s1.07-.96,1.41-1.73h-.01Z" style="fill: #444;"/>
    <path d="M438.6,731.41h-3.5v-4.17h3.5v4.17Z" style="fill: #444;"/>
    <path d="M459.41,720.5c0,3.92-.61,6.79-1.84,8.62s-3.13,2.75-5.71,2.75-4.53-.93-5.73-2.78c-1.21-1.86-1.81-4.71-1.81-8.55s.61-6.74,1.83-8.59,3.12-2.78,5.71-2.78,4.53.94,5.73,2.82c1.21,1.88,1.81,4.72,1.81,8.52h.01ZM455.55,727.15c.34-.79.57-1.72.7-2.79.12-1.07.18-2.36.18-3.86s-.06-2.77-.18-3.87-.36-2.02-.71-2.78c-.34-.75-.81-1.32-1.4-1.7s-1.35-.57-2.28-.57-1.68.19-2.28.57-1.08.96-1.43,1.73c-.33.72-.56,1.67-.68,2.83-.12,1.16-.18,2.44-.18,3.82,0,1.52.05,2.8.16,3.82s.34,1.94.69,2.75c.32.76.78,1.34,1.37,1.74s1.38.6,2.35.6c.92,0,1.68-.19,2.29-.57s1.07-.96,1.41-1.73h-.01Z" style="fill: #444;"/>
    <path d="M478.83,724.33c0,2.22-.73,4.03-2.19,5.43-1.46,1.4-3.25,2.1-5.37,2.1-1.07,0-2.05-.17-2.93-.5s-1.66-.83-2.33-1.48c-.84-.81-1.49-1.88-1.94-3.22-.45-1.34-.68-2.95-.68-4.83s.21-3.65.62-5.14,1.08-2.82,1.99-3.98c.86-1.1,1.97-1.96,3.33-2.58s2.94-.93,4.75-.93c.58,0,1.06.02,1.45.07s.79.14,1.19.26v2.8h-.15c-.27-.15-.69-.29-1.24-.42s-1.12-.2-1.69-.2c-2.1,0-3.77.66-5.02,1.97s-1.98,3.09-2.18,5.33c.82-.5,1.63-.88,2.42-1.14.8-.26,1.72-.39,2.76-.39.93,0,1.75.09,2.45.26s1.43.51,2.18,1.03c.86.6,1.51,1.35,1.94,2.26.43.91.65,2.01.65,3.31h-.01ZM475.86,724.45c0-.91-.13-1.66-.4-2.26-.27-.6-.71-1.11-1.33-1.55-.45-.31-.95-.52-1.49-.62s-1.12-.15-1.71-.15c-.83,0-1.6.1-2.31.29s-1.45.5-2.2.91c-.02.21-.03.42-.04.62,0,.2-.01.45-.01.75,0,1.54.16,2.76.48,3.66.32.89.75,1.6,1.31,2.12.45.43.93.75,1.46.94.52.2,1.09.3,1.71.3,1.42,0,2.53-.43,3.34-1.3.81-.86,1.22-2.11,1.22-3.73l-.03.02h0Z" style="fill: #444;"/>
  </g>
  <g>
    <path d="M523.35,720.5c0,3.92-.61,6.79-1.84,8.62-1.23,1.83-3.13,2.75-5.71,2.75s-4.53-.93-5.73-2.78c-1.21-1.86-1.81-4.71-1.81-8.55s.61-6.74,1.83-8.59,3.12-2.78,5.71-2.78,4.53.94,5.73,2.82c1.21,1.88,1.81,4.72,1.81,8.52h.01ZM519.5,727.15c.34-.79.57-1.72.7-2.79.12-1.07.18-2.36.18-3.86s-.06-2.77-.18-3.87-.36-2.02-.71-2.78c-.34-.75-.81-1.32-1.4-1.7s-1.35-.57-2.28-.57-1.68.19-2.28.57c-.6.38-1.08.96-1.43,1.73-.33.72-.56,1.67-.68,2.83-.12,1.16-.18,2.44-.18,3.82,0,1.52.05,2.8.16,3.82s.34,1.94.69,2.75c.32.76.78,1.34,1.37,1.74s1.38.6,2.35.6c.92,0,1.68-.19,2.29-.57s1.07-.96,1.41-1.73h0Z" style="fill: #444;"/>
    <path d="M532.53,731.41h-3.5v-4.17h3.5v4.17Z" style="fill: #444;"/>
    <path d="M553.33,720.5c0,3.92-.61,6.79-1.84,8.62-1.23,1.83-3.13,2.75-5.71,2.75s-4.53-.93-5.73-2.78c-1.21-1.86-1.81-4.71-1.81-8.55s.61-6.74,1.83-8.59,3.12-2.78,5.71-2.78,4.53.94,5.73,2.82c1.21,1.88,1.81,4.72,1.81,8.52h.01ZM549.48,727.15c.34-.79.57-1.72.7-2.79.12-1.07.18-2.36.18-3.86s-.06-2.77-.18-3.87-.36-2.02-.71-2.78c-.34-.75-.81-1.32-1.4-1.7s-1.35-.57-2.28-.57-1.68.19-2.28.57c-.6.38-1.08.96-1.43,1.73-.33.72-.56,1.67-.68,2.83-.12,1.16-.18,2.44-.18,3.82,0,1.52.05,2.8.16,3.82s.34,1.94.69,2.75c.32.76.78,1.34,1.37,1.74s1.38.6,2.35.6c.92,0,1.68-.19,2.29-.57s1.07-.96,1.41-1.73h0Z" style="fill: #444;"/>
    <path d="M572.6,725.33c0,1.88-.74,3.45-2.21,4.7s-3.32,1.88-5.54,1.88c-2.36,0-4.25-.61-5.65-1.83s-2.1-2.78-2.1-4.69c0-1.21.35-2.31,1.05-3.29s1.69-1.76,2.97-2.34v-.09c-1.17-.62-2.04-1.31-2.6-2.05s-.84-1.67-.84-2.78c0-1.64.67-3.01,2.02-4.1s3.06-1.64,5.14-1.64,3.92.52,5.21,1.57,1.95,2.37,1.95,3.98c0,.99-.31,1.96-.92,2.91-.62.95-1.52,1.7-2.71,2.23v.09c1.37.59,2.41,1.31,3.13,2.17s1.08,1.95,1.08,3.28h.02,0ZM569.58,725.61c0-.9-.2-1.62-.59-2.16s-1.17-1.09-2.32-1.63c-.46-.21-.96-.42-1.51-.6s-1.27-.44-2.18-.78c-.88.48-1.58,1.13-2.12,1.95-.53.82-.8,1.75-.8,2.78,0,1.32.45,2.41,1.36,3.27s2.06,1.29,3.46,1.29,2.57-.37,3.42-1.1,1.28-1.74,1.28-3.02h0ZM569.13,714.68c0-1.04-.4-1.88-1.21-2.5s-1.83-.93-3.08-.93-2.24.29-3.03.88-1.18,1.38-1.18,2.37c0,.7.2,1.31.59,1.82.4.51.99.97,1.79,1.37.36.18.88.41,1.56.69s1.34.52,1.98.7c.97-.64,1.64-1.31,2.01-2.01s.56-1.49.56-2.4h.01Z" style="fill: #444;"/>
  </g>
  <g>
    <path d="M626.82,720.5c0,3.92-.61,6.79-1.84,8.62-1.22,1.83-3.13,2.75-5.71,2.75s-4.53-.93-5.73-2.78c-1.21-1.86-1.81-4.71-1.81-8.55s.61-6.74,1.83-8.59,3.12-2.78,5.71-2.78,4.53.94,5.73,2.82c1.21,1.88,1.81,4.72,1.81,8.52h.01ZM622.96,727.15c.34-.79.57-1.72.7-2.79.12-1.07.18-2.36.18-3.86s-.06-2.77-.18-3.87c-.12-1.09-.36-2.02-.71-2.78-.34-.75-.81-1.32-1.4-1.7s-1.35-.57-2.28-.57-1.68.19-2.28.57c-.6.38-1.08.96-1.43,1.73-.33.72-.56,1.67-.68,2.83-.12,1.16-.18,2.44-.18,3.82,0,1.52.05,2.8.16,3.82s.34,1.94.69,2.75c.32.76.78,1.34,1.37,1.74.59.4,1.38.6,2.35.6.92,0,1.68-.19,2.29-.57s1.07-.96,1.41-1.73h0Z" style="fill: #444;"/>
    <path d="M636,731.41h-3.5v-4.17h3.5v4.17Z" style="fill: #444;"/>
    <path d="M655.59,731.41h-11.81v-2.23h4.54v-14.62h-4.54v-1.99c.62,0,1.27-.05,1.98-.15.7-.1,1.24-.25,1.6-.45.45-.24.8-.55,1.06-.93s.41-.88.45-1.52h2.27v19.66h4.45v2.23h0Z" style="fill: #444;"/>
  </g>
  <g>
    <path d="M711.21,720.5c0,3.92-.61,6.79-1.84,8.62-1.23,1.83-3.13,2.75-5.71,2.75s-4.53-.93-5.73-2.78c-1.21-1.86-1.81-4.71-1.81-8.55s.61-6.74,1.83-8.59,3.12-2.78,5.71-2.78,4.53.94,5.73,2.82c1.21,1.88,1.81,4.72,1.81,8.52h.01ZM707.36,727.15c.34-.79.57-1.72.7-2.79.12-1.07.18-2.36.18-3.86s-.06-2.77-.18-3.87-.36-2.02-.71-2.78c-.34-.75-.81-1.32-1.4-1.7s-1.35-.57-2.28-.57-1.68.19-2.28.57c-.6.38-1.08.96-1.43,1.73-.33.72-.56,1.67-.68,2.83-.12,1.16-.18,2.44-.18,3.82,0,1.52.05,2.8.16,3.82s.34,1.94.69,2.75c.32.76.78,1.34,1.37,1.74s1.38.6,2.35.6c.92,0,1.68-.19,2.29-.57s1.07-.96,1.41-1.73h0Z" style="fill: #444;"/>
    <path d="M720.39,731.41h-3.5v-4.17h3.5v4.17Z" style="fill: #444;"/>
    <path d="M739.98,731.41h-11.81v-2.23h4.54v-14.62h-4.54v-1.99c.62,0,1.27-.05,1.98-.15.7-.1,1.24-.25,1.6-.45.45-.24.8-.55,1.06-.93s.41-.88.45-1.52h2.27v19.66h4.45v2.23h0Z" style="fill: #444;"/>
    <path d="M760.3,731.41h-14.77v-3.06c1.03-.88,2.05-1.76,3.08-2.64s1.99-1.75,2.88-2.62c1.88-1.82,3.16-3.26,3.85-4.33s1.04-2.22,1.04-3.46c0-1.13-.37-2.02-1.12-2.66-.75-.64-1.79-.96-3.13-.96-.89,0-1.85.16-2.89.47s-2.05.79-3.03,1.44h-.15v-3.08c.69-.34,1.62-.65,2.78-.94,1.16-.28,2.28-.42,3.36-.42,2.24,0,3.99.54,5.26,1.62s1.9,2.54,1.9,4.39c0,.83-.11,1.6-.31,2.32-.21.72-.52,1.4-.93,2.04-.38.61-.83,1.2-1.34,1.79-.51.59-1.13,1.24-1.87,1.95-1.04,1.03-2.12,2.02-3.24,2.98s-2.15,1.85-3.12,2.67h11.73v2.5h.02Z" style="fill: #444;"/>
  </g>
  <g>
    <path d="M805.13,720.5c0,3.92-.61,6.79-1.84,8.62-1.23,1.83-3.13,2.75-5.71,2.75s-4.53-.93-5.73-2.78c-1.21-1.86-1.81-4.71-1.81-8.55s.61-6.74,1.83-8.59,3.12-2.78,5.71-2.78,4.53.94,5.73,2.82c1.21,1.88,1.81,4.72,1.81,8.52h.01ZM801.28,727.15c.34-.79.57-1.72.7-2.79.12-1.07.18-2.36.18-3.86s-.06-2.77-.18-3.87-.36-2.02-.71-2.78c-.34-.75-.81-1.32-1.4-1.7s-1.35-.57-2.28-.57-1.68.19-2.28.57c-.6.38-1.08.96-1.43,1.73-.33.72-.56,1.67-.68,2.83-.12,1.16-.18,2.44-.18,3.82,0,1.52.05,2.8.16,3.82s.34,1.94.69,2.75c.32.76.78,1.34,1.37,1.74s1.38.6,2.35.6c.92,0,1.68-.19,2.29-.57s1.07-.96,1.41-1.73h0Z" style="fill: #444;"/>
    <path d="M814.31,731.41h-3.5v-4.17h3.5v4.17Z" style="fill: #444;"/>
    <path d="M833.9,731.41h-11.81v-2.23h4.54v-14.62h-4.54v-1.99c.62,0,1.27-.05,1.98-.15.7-.1,1.24-.25,1.6-.45.45-.24.8-.55,1.06-.93s.41-.88.45-1.52h2.27v19.66h4.45v2.23h0Z" style="fill: #444;"/>
    <path d="M854.71,725.27h-3.24v6.14h-2.81v-6.14h-10.44v-3.37l10.56-12.3h2.7v13.33h3.24v2.34h-.01ZM848.67,722.93v-9.84l-8.45,9.84h8.45Z" style="fill: #444;"/>
  </g>
  <g>
    <path d="M899.06,720.5c0,3.92-.61,6.79-1.84,8.62-1.23,1.83-3.13,2.75-5.71,2.75s-4.53-.93-5.73-2.78c-1.21-1.86-1.81-4.71-1.81-8.55s.61-6.74,1.83-8.59,3.12-2.78,5.71-2.78,4.53.94,5.73,2.82c1.21,1.88,1.81,4.72,1.81,8.52h.01ZM895.21,727.15c.34-.79.57-1.72.7-2.79.12-1.07.18-2.36.18-3.86s-.06-2.77-.18-3.87-.36-2.02-.71-2.78c-.34-.75-.81-1.32-1.4-1.7s-1.35-.57-2.28-.57-1.68.19-2.28.57c-.6.38-1.08.96-1.43,1.73-.33.72-.56,1.67-.68,2.83-.12,1.16-.18,2.44-.18,3.82,0,1.52.05,2.8.16,3.82s.34,1.94.69,2.75c.32.76.78,1.34,1.37,1.74s1.38.6,2.35.6c.92,0,1.68-.19,2.29-.57s1.07-.96,1.41-1.73h0Z" style="fill: #444;"/>
    <path d="M908.24,731.41h-3.5v-4.17h3.5v4.17Z" style="fill: #444;"/>
    <path d="M927.83,731.41h-11.81v-2.23h4.54v-14.62h-4.54v-1.99c.62,0,1.27-.05,1.98-.15.7-.1,1.24-.25,1.6-.45.45-.24.8-.55,1.06-.93s.41-.88.45-1.52h2.27v19.66h4.45v2.23h0Z" style="fill: #444;"/>
    <path d="M948.47,724.33c0,2.22-.73,4.03-2.19,5.43-1.46,1.4-3.25,2.1-5.37,2.1-1.07,0-2.05-.17-2.93-.5s-1.66-.83-2.33-1.48c-.84-.81-1.49-1.88-1.94-3.22-.45-1.34-.68-2.95-.68-4.83s.21-3.65.62-5.14,1.08-2.82,1.99-3.98c.86-1.1,1.97-1.96,3.33-2.58s2.94-.93,4.75-.93c.58,0,1.06.02,1.45.07s.79.14,1.19.26v2.8h-.15c-.27-.15-.69-.29-1.24-.42s-1.12-.2-1.69-.2c-2.1,0-3.77.66-5.02,1.97s-1.98,3.09-2.18,5.33c.82-.5,1.63-.88,2.42-1.14.8-.26,1.72-.39,2.76-.39.93,0,1.75.09,2.45.26s1.43.51,2.18,1.03c.86.6,1.51,1.35,1.94,2.26.43.91.65,2.01.65,3.31h-.01ZM945.5,724.45c0-.91-.13-1.66-.4-2.26-.27-.6-.71-1.11-1.33-1.55-.45-.31-.95-.52-1.49-.62s-1.12-.15-1.71-.15c-.83,0-1.6.1-2.31.29s-1.45.5-2.2.91c-.02.21-.03.42-.04.62,0,.2-.01.45-.01.75,0,1.54.16,2.76.48,3.66.32.89.75,1.6,1.31,2.12.45.43.93.75,1.46.94.52.2,1.09.3,1.71.3,1.42,0,2.53-.43,3.34-1.3.81-.86,1.22-2.11,1.22-3.73l-.03.02h0Z" style="fill: #444;"/>
  </g>
  <g>
    <path d="M87.04,673.3c0,3.92-.61,6.79-1.84,8.62-1.23,1.83-3.13,2.75-5.71,2.75s-4.53-.93-5.73-2.78c-1.21-1.86-1.81-4.71-1.81-8.55s.61-6.74,1.83-8.59c1.22-1.85,3.12-2.78,5.71-2.78s4.53.94,5.73,2.82,1.81,4.72,1.81,8.52h0ZM83.18,679.95c.34-.79.57-1.72.7-2.79.12-1.07.18-2.36.18-3.86s-.06-2.77-.18-3.87-.36-2.02-.71-2.78c-.34-.75-.81-1.32-1.4-1.7s-1.35-.57-2.28-.57-1.68.19-2.28.57-1.08.96-1.43,1.73c-.33.72-.56,1.67-.68,2.83-.12,1.16-.18,2.44-.18,3.82,0,1.52.05,2.8.16,3.82s.34,1.94.69,2.75c.32.76.78,1.34,1.37,1.74s1.38.6,2.35.6c.92,0,1.68-.19,2.29-.57s1.07-.96,1.41-1.73h-.01Z" style="fill: #444;"/>
    <path d="M96.22,684.21h-3.5v-4.17h3.5v4.17Z" style="fill: #444;"/>
    <path d="M117.05,684.21h-14.77v-3.06c1.03-.88,2.05-1.76,3.08-2.64s1.99-1.75,2.88-2.62c1.88-1.82,3.16-3.26,3.85-4.33.69-1.07,1.04-2.22,1.04-3.46,0-1.13-.37-2.02-1.12-2.66-.75-.64-1.79-.96-3.13-.96-.89,0-1.85.16-2.89.47s-2.05.79-3.03,1.44h-.15v-3.08c.69-.34,1.62-.65,2.78-.94,1.16-.28,2.28-.42,3.36-.42,2.24,0,3.99.54,5.26,1.62,1.27,1.08,1.9,2.54,1.9,4.39,0,.83-.11,1.6-.31,2.32-.21.72-.52,1.4-.93,2.04-.38.61-.83,1.2-1.34,1.79-.51.59-1.13,1.24-1.87,1.95-1.04,1.03-2.12,2.02-3.24,2.98-1.11.96-2.15,1.85-3.12,2.67h11.73v2.5h.02Z" style="fill: #444;"/>
  </g>
  <g>
    <path d="M87.04,590.51c0,3.92-.61,6.79-1.84,8.62-1.23,1.83-3.13,2.75-5.71,2.75s-4.53-.93-5.73-2.78c-1.21-1.86-1.81-4.71-1.81-8.55s.61-6.74,1.83-8.59,3.12-2.78,5.71-2.78,4.53.94,5.73,2.82c1.21,1.88,1.81,4.72,1.81,8.52h0ZM83.18,597.16c.34-.79.57-1.72.7-2.79.12-1.07.18-2.36.18-3.86s-.06-2.77-.18-3.87-.36-2.02-.71-2.78c-.34-.75-.81-1.32-1.4-1.7s-1.35-.57-2.28-.57-1.68.19-2.28.57-1.08.96-1.43,1.73c-.33.72-.56,1.67-.68,2.83-.12,1.16-.18,2.44-.18,3.82,0,1.52.05,2.8.16,3.82s.34,1.94.69,2.75c.32.76.78,1.34,1.37,1.74s1.38.6,2.35.6c.92,0,1.68-.19,2.29-.57s1.07-.96,1.41-1.73h-.01Z" style="fill: #444;"/>
    <path d="M96.22,601.42h-3.5v-4.17h3.5v4.17Z" style="fill: #444;"/>
    <path d="M115.13,590.92c.47.42.85.95,1.16,1.58s.45,1.46.45,2.46-.18,1.91-.54,2.74-.87,1.55-1.52,2.17c-.73.68-1.59,1.19-2.58,1.52-.99.33-2.08.49-3.26.49s-2.4-.14-3.57-.43-2.13-.6-2.89-.94v-3.06h.22c.83.55,1.81,1,2.93,1.36s2.21.54,3.25.54c.62,0,1.27-.1,1.96-.31s1.25-.51,1.68-.91c.45-.43.78-.9,1-1.42.22-.52.33-1.17.33-1.96s-.12-1.43-.37-1.94-.59-.92-1.03-1.21c-.44-.3-.97-.51-1.6-.62s-1.3-.17-2.02-.17h-1.32v-2.43h1.03c1.48,0,2.67-.31,3.55-.93.88-.62,1.33-1.53,1.33-2.72,0-.53-.11-.99-.34-1.38-.22-.39-.54-.72-.94-.97-.42-.25-.87-.43-1.35-.53s-1.02-.15-1.63-.15c-.93,0-1.91.17-2.96.5s-2.03.8-2.96,1.41h-.15v-3.06c.69-.34,1.62-.66,2.78-.95,1.16-.29,2.28-.43,3.36-.43s2,.1,2.81.29,1.54.51,2.2.94c.7.47,1.24,1.04,1.6,1.7s.54,1.44.54,2.33c0,1.21-.43,2.27-1.28,3.17-.85.9-1.86,1.47-3.02,1.71v.21c.47.08,1.01.24,1.61.49.61.25,1.12.56,1.54.93v-.02h0Z" style="fill: #444;"/>
  </g>
  <g>
    <path d="M87.04,507.73c0,3.92-.61,6.79-1.84,8.62-1.23,1.83-3.13,2.75-5.71,2.75s-4.53-.93-5.73-2.78c-1.21-1.86-1.81-4.71-1.81-8.55s.61-6.74,1.83-8.59,3.12-2.78,5.71-2.78,4.53.94,5.73,2.82c1.21,1.88,1.81,4.72,1.81,8.52h0ZM83.18,514.38c.34-.79.57-1.72.7-2.79.12-1.07.18-2.36.18-3.86s-.06-2.77-.18-3.87-.36-2.02-.71-2.78c-.34-.75-.81-1.32-1.4-1.7s-1.35-.57-2.28-.57-1.68.19-2.28.57-1.08.96-1.43,1.73c-.33.72-.56,1.67-.68,2.83-.12,1.16-.18,2.44-.18,3.82,0,1.52.05,2.8.16,3.82s.34,1.94.69,2.75c.32.76.78,1.34,1.37,1.74s1.38.6,2.35.6c.92,0,1.68-.19,2.29-.57s1.07-.96,1.41-1.73h-.01Z" style="fill: #444;"/>
    <path d="M96.22,518.64h-3.5v-4.17h3.5v4.17Z" style="fill: #444;"/>
    <path d="M117.55,512.5h-3.24v6.14h-2.81v-6.14h-10.44v-3.37l10.56-12.3h2.7v13.33h3.24v2.34h0ZM111.5,510.16v-9.84l-8.45,9.84h8.45Z" style="fill: #444;"/>
  </g>
  <g>
    <path d="M87.04,424.94c0,3.92-.61,6.79-1.84,8.62-1.23,1.83-3.13,2.75-5.71,2.75s-4.53-.93-5.73-2.78c-1.21-1.86-1.81-4.71-1.81-8.55s.61-6.74,1.83-8.59,3.12-2.78,5.71-2.78,4.53.94,5.73,2.82,1.81,4.72,1.81,8.52h0ZM83.18,431.59c.34-.79.57-1.72.7-2.79.12-1.07.18-2.36.18-3.86s-.06-2.77-.18-3.87-.36-2.02-.71-2.78c-.34-.75-.81-1.32-1.4-1.7s-1.35-.57-2.28-.57-1.68.19-2.28.57-1.08.96-1.43,1.73c-.33.72-.56,1.67-.68,2.83-.12,1.16-.18,2.44-.18,3.82,0,1.52.05,2.8.16,3.82s.34,1.94.69,2.75c.32.76.78,1.34,1.37,1.74s1.38.6,2.35.6c.92,0,1.68-.19,2.29-.57s1.07-.96,1.41-1.73h-.01Z" style="fill: #444;"/>
    <path d="M96.22,435.85h-3.5v-4.17h3.5v4.17Z" style="fill: #444;"/>
    <path d="M116.88,428.92c0,1.02-.19,1.99-.56,2.92s-.88,1.71-1.52,2.34c-.7.68-1.54,1.21-2.51,1.58s-2.1.55-3.38.55c-1.19,0-2.34-.12-3.44-.37-1.1-.25-2.04-.55-2.8-.9v-3.09h.21c.8.51,1.74.94,2.81,1.3s2.13.53,3.16.53c.69,0,1.36-.1,2.01-.29.65-.2,1.23-.54,1.74-1.03.43-.42.75-.92.97-1.51s.33-1.26.33-2.04-.13-1.39-.39-1.9-.62-.93-1.08-1.25c-.51-.37-1.13-.63-1.85-.78s-1.54-.23-2.44-.23-1.69.06-2.48.18-1.48.23-2.06.35v-11.24h13.12v2.56h-10.3v5.8c.42-.04.85-.07,1.29-.09s.82-.03,1.14-.03c1.18,0,2.22.1,3.11.3.89.2,1.7.55,2.45,1.06.78.54,1.39,1.23,1.82,2.08s.64,1.91.64,3.19h.01Z" style="fill: #444;"/>
  </g>
  <g>
    <path d="M87.04,342.15c0,3.92-.61,6.79-1.84,8.62s-3.13,2.75-5.71,2.75-4.53-.93-5.73-2.78c-1.21-1.86-1.81-4.71-1.81-8.55s.61-6.74,1.83-8.59,3.12-2.78,5.71-2.78,4.53.94,5.73,2.82,1.81,4.72,1.81,8.52h0ZM83.18,348.8c.34-.79.57-1.72.7-2.79s.18-2.36.18-3.86-.06-2.77-.18-3.87-.36-2.02-.71-2.78c-.34-.75-.81-1.32-1.4-1.7s-1.35-.57-2.28-.57-1.68.19-2.28.57-1.08.96-1.43,1.73c-.33.72-.56,1.67-.68,2.83-.12,1.16-.18,2.44-.18,3.82,0,1.52.05,2.8.16,3.82s.34,1.94.69,2.75c.32.76.78,1.34,1.37,1.74s1.38.6,2.35.6c.92,0,1.68-.19,2.29-.57s1.07-.96,1.41-1.73h-.01Z" style="fill: #444;"/>
    <path d="M96.22,353.06h-3.5v-4.17h3.5v4.17Z" style="fill: #444;"/>
    <path d="M117.37,345.98c0,2.22-.73,4.03-2.19,5.43s-3.25,2.1-5.37,2.1c-1.07,0-2.05-.17-2.93-.5s-1.66-.83-2.33-1.48c-.84-.81-1.49-1.88-1.94-3.22-.45-1.34-.68-2.95-.68-4.83s.21-3.65.62-5.14,1.08-2.82,1.99-3.98c.86-1.1,1.97-1.97,3.33-2.59s2.94-.93,4.75-.93c.58,0,1.06.02,1.45.07s.79.14,1.19.26v2.8h-.15c-.27-.15-.69-.29-1.24-.42s-1.12-.2-1.69-.2c-2.1,0-3.77.66-5.02,1.97s-1.98,3.09-2.18,5.32c.82-.5,1.63-.88,2.42-1.14s1.72-.39,2.76-.39c.93,0,1.75.09,2.45.26s1.43.52,2.18,1.03c.86.6,1.51,1.35,1.94,2.26s.65,2.01.65,3.31h0ZM114.4,346.1c0-.91-.13-1.66-.4-2.26-.27-.6-.71-1.11-1.33-1.55-.45-.31-.95-.52-1.49-.62s-1.12-.15-1.71-.15c-.83,0-1.6.1-2.31.29s-1.45.5-2.2.91c-.02.21-.03.42-.04.62s-.01.45-.01.75c0,1.54.16,2.76.48,3.65s.75,1.6,1.31,2.12c.45.43.93.74,1.46.94.52.2,1.09.3,1.71.3,1.42,0,2.53-.43,3.34-1.3s1.22-2.11,1.22-3.73l-.03.03Z" style="fill: #444;"/>
  </g>
  <g>
    <path d="M87.04,259.36c0,3.92-.61,6.79-1.84,8.62s-3.13,2.75-5.71,2.75-4.53-.93-5.73-2.78c-1.21-1.86-1.81-4.71-1.81-8.55s.61-6.74,1.83-8.59,3.12-2.78,5.71-2.78,4.53.94,5.73,2.82,1.81,4.72,1.81,8.52h0ZM83.18,266.01c.34-.79.57-1.72.7-2.79s.18-2.36.18-3.86-.06-2.77-.18-3.87-.36-2.02-.71-2.78c-.34-.75-.81-1.32-1.4-1.7s-1.35-.57-2.28-.57-1.68.19-2.28.57-1.08.96-1.43,1.73c-.33.72-.56,1.67-.68,2.83-.12,1.16-.18,2.44-.18,3.82,0,1.52.05,2.8.16,3.82s.34,1.94.69,2.75c.32.76.78,1.34,1.37,1.74s1.38.6,2.35.6c.92,0,1.68-.19,2.29-.57s1.07-.96,1.41-1.73h-.01Z" style="fill: #444;"/>
    <path d="M96.22,270.27h-3.5v-4.17h3.5v4.17Z" style="fill: #444;"/>
    <path d="M117.11,251.72l-9.87,18.54h-3.13l10.5-19.25h-12.42v-2.56h14.93v3.27h-.01Z" style="fill: #444;"/>
  </g>
  <g>
    <path d="M87.04,176.57c0,3.92-.61,6.79-1.84,8.62s-3.13,2.75-5.71,2.75-4.53-.93-5.73-2.78c-1.21-1.86-1.81-4.71-1.81-8.55s.61-6.74,1.83-8.59,3.12-2.78,5.71-2.78,4.53.94,5.73,2.82,1.81,4.72,1.81,8.52h0ZM83.18,183.22c.34-.79.57-1.72.7-2.79s.18-2.36.18-3.86-.06-2.77-.18-3.87-.36-2.02-.71-2.78c-.34-.75-.81-1.32-1.4-1.7s-1.35-.57-2.28-.57-1.68.19-2.28.57-1.08.96-1.43,1.73c-.33.72-.56,1.67-.68,2.83s-.18,2.44-.18,3.82c0,1.52.05,2.8.16,3.82s.34,1.94.69,2.75c.32.76.78,1.34,1.37,1.74s1.38.6,2.35.6c.92,0,1.68-.19,2.29-.57s1.07-.96,1.41-1.73h-.01Z" style="fill: #444;"/>
    <path d="M96.22,187.48h-3.5v-4.17h3.5v4.17Z" style="fill: #444;"/>
    <path d="M117.21,181.4c0,1.88-.74,3.45-2.21,4.7s-3.32,1.88-5.54,1.88c-2.36,0-4.25-.61-5.65-1.83s-2.1-2.78-2.1-4.69c0-1.21.35-2.31,1.05-3.29s1.69-1.76,2.97-2.34v-.09c-1.17-.62-2.04-1.31-2.6-2.05s-.84-1.67-.84-2.78c0-1.64.67-3.01,2.02-4.1s3.06-1.64,5.14-1.64,3.92.52,5.21,1.57,1.95,2.37,1.95,3.98c0,.99-.31,1.96-.92,2.91s-1.52,1.7-2.71,2.23v.09c1.37.59,2.41,1.31,3.13,2.17s1.08,1.95,1.08,3.28h.02ZM114.2,181.68c0-.9-.2-1.62-.59-2.16-.39-.54-1.17-1.09-2.32-1.63-.46-.21-.96-.42-1.51-.6s-1.27-.44-2.18-.78c-.88.48-1.58,1.13-2.12,1.95-.53.82-.8,1.75-.8,2.78,0,1.32.45,2.41,1.36,3.27s2.06,1.29,3.46,1.29,2.57-.37,3.42-1.1c.85-.73,1.28-1.74,1.28-3.02h0ZM113.74,170.75c0-1.04-.4-1.88-1.21-2.5s-1.83-.93-3.08-.93-2.24.29-3.03.88-1.18,1.38-1.18,2.37c0,.7.2,1.31.59,1.82.4.51.99.97,1.79,1.37.36.18.88.41,1.56.69s1.34.52,1.98.7c.97-.64,1.64-1.31,2.01-2.01s.56-1.49.56-2.4h.01Z" style="fill: #444;"/>
  </g>
  <g>
    <path d="M87.04,93.78c0,3.92-.61,6.79-1.84,8.62s-3.13,2.75-5.71,2.75-4.53-.93-5.73-2.78c-1.21-1.86-1.81-4.71-1.81-8.55s.61-6.74,1.83-8.59,3.12-2.78,5.71-2.78,4.53.94,5.73,2.82,1.81,4.72,1.81,8.52h0ZM83.18,100.43c.34-.79.57-1.72.7-2.79s.18-2.36.18-3.86-.06-2.77-.18-3.87-.36-2.02-.71-2.78c-.34-.75-.81-1.32-1.4-1.7s-1.35-.57-2.28-.57-1.68.19-2.28.57-1.08.96-1.43,1.73c-.33.72-.56,1.67-.68,2.83s-.18,2.44-.18,3.82c0,1.52.05,2.8.16,3.82s.34,1.94.69,2.75c.32.76.78,1.34,1.37,1.74s1.38.6,2.35.6c.92,0,1.68-.19,2.29-.57s1.07-.96,1.41-1.73h-.01Z" style="fill: #444;"/>
    <path d="M96.22,104.69h-3.5v-4.17h3.5v4.17Z" style="fill: #444;"/>
    <path d="M117.02,92.47c0,1.9-.22,3.63-.65,5.19-.44,1.55-1.09,2.88-1.97,3.97-.89,1.11-2,1.97-3.34,2.58s-2.91.91-4.72.91c-.51,0-.99-.03-1.44-.08s-.85-.14-1.2-.26v-2.8h.15c.28.15.68.29,1.2.42s1.09.2,1.73.2c2.16,0,3.85-.65,5.08-1.94,1.22-1.29,1.94-3.08,2.13-5.35-.91.55-1.76.94-2.56,1.17s-1.67.35-2.62.35c-.9,0-1.71-.09-2.44-.26s-1.46-.52-2.19-1.03c-.86-.6-1.51-1.35-1.94-2.27s-.65-2.02-.65-3.3c0-2.23.73-4.04,2.2-5.43s3.25-2.09,5.36-2.09c1.05,0,2.03.16,2.93.49s1.68.82,2.36,1.47c.83.81,1.47,1.85,1.92,3.13s.67,2.92.67,4.94h0ZM114.06,91.84c0-1.51-.16-2.73-.47-3.65s-.74-1.63-1.29-2.14c-.46-.44-.95-.75-1.48-.94s-1.1-.29-1.71-.29c-1.41,0-2.52.44-3.33,1.32s-1.22,2.11-1.22,3.71c0,.93.13,1.68.4,2.27s.71,1.1,1.33,1.54c.44.3.92.51,1.45.61s1.11.15,1.76.15c.76,0,1.53-.1,2.31-.31s1.51-.5,2.2-.89c0-.21.02-.41.04-.61.02-.2.02-.46.02-.77h0Z" style="fill: #444;"/>
  </g>
  <g style="clip-path: url(#clippath-1);">
    <path d="M115.81,21.9h-11.81v-2.23h4.54V5.05h-4.54v-1.99c.62,0,1.27-.05,1.98-.15s1.24-.25,1.6-.45c.45-.24.8-.55,1.06-.93.26-.38.41-.88.45-1.52h2.27v19.66h4.45s0,2.23,0,2.23Z" style="fill: #fff;"/>
  </g>
  <g style="clip-path: url(#clippath-2);">
    <g>
      <rect x="104.01" y=".41" width="11.79" height="21.49" style="fill: #fff;"/>
      <path d="M115.81,21.9h-11.81v-2.23h4.54V5.05h-4.54v-1.99c.62,0,1.27-.05,1.98-.15s1.24-.25,1.6-.45c.45-.24.8-.55,1.06-.93.26-.38.41-.88.45-1.52h2.27v19.66h4.45s0,2.23,0,2.23Z" style="fill: #fff;"/>
    </g>
  </g>
  <g style="clip-path: url(#clippath-3);">
    <g>
      <g>
        <path d="M761.54,494.21h-3.48v-12.81h-13.06v12.81h-3.48v-26.17h3.48v10.27h13.06v-10.27h3.48v26.17Z" style="fill: #444;"/>
        <path d="M783.56,494.21h-3.29v-2.09c-.29.2-.69.48-1.19.83s-.98.64-1.45.85c-.55.27-1.18.5-1.9.68s-1.55.27-2.51.27c-1.77,0-3.27-.59-4.5-1.76s-1.85-2.67-1.85-4.48c0-1.49.32-2.69.96-3.61s1.55-1.64,2.73-2.17c1.2-.53,2.63-.88,4.31-1.07s3.47-.33,5.4-.42v-.51c0-.75-.13-1.37-.4-1.86s-.64-.88-1.13-1.16c-.47-.27-1.03-.45-1.69-.54s-1.34-.14-2.06-.14c-.87,0-1.83.11-2.9.34s-2.17.56-3.3.99h-.18v-3.36c.64-.18,1.58-.37,2.79-.58s2.42-.32,3.6-.32c1.38,0,2.59.11,3.61.34s1.91.62,2.66,1.17c.74.54,1.3,1.24,1.69,2.09s.58,1.92.58,3.18v13.32h.02ZM780.28,489.38v-5.47c-1.01.06-2.19.15-3.56.26s-2.45.29-3.24.51c-.95.27-1.72.69-2.3,1.26s-.88,1.35-.88,2.35c0,1.12.34,1.97,1.02,2.54s1.72.85,3.11.85c1.16,0,2.22-.23,3.18-.68s1.85-.99,2.67-1.63h0Z" style="fill: #444;"/>
        <path d="M803.95,488.55c0,1.79-.74,3.26-2.22,4.41s-3.51,1.72-6.07,1.72c-1.45,0-2.79-.17-4-.52s-2.23-.72-3.05-1.13v-3.71h.18c1.04.79,2.2,1.41,3.48,1.87s2.5.69,3.67.69c1.45,0,2.59-.23,3.41-.7s1.23-1.21,1.23-2.21c0-.77-.22-1.36-.67-1.76s-1.3-.74-2.57-1.02c-.47-.11-1.08-.23-1.84-.37s-1.44-.29-2.07-.46c-1.72-.46-2.94-1.13-3.67-2.01s-1.08-1.97-1.08-3.26c0-.81.17-1.57.5-2.29s.84-1.35,1.52-1.92c.66-.55,1.49-.99,2.5-1.31s2.15-.48,3.4-.48c1.17,0,2.36.14,3.56.43s2.2.64,3,1.05v3.53h-.18c-.84-.62-1.87-1.15-3.08-1.57s-2.39-.64-3.55-.64-2.23.23-3.06.69-1.25,1.15-1.25,2.07c0,.81.25,1.42.76,1.83.49.41,1.29.74,2.39,1,.61.14,1.29.28,2.05.42s1.39.27,1.89.39c1.54.35,2.72.96,3.55,1.81.83.87,1.25,2.02,1.25,3.45h.02Z" style="fill: #444;"/>
        <path d="M825.1,494.21h-3.3v-11.18c0-.9-.05-1.75-.16-2.54s-.3-1.41-.58-1.85c-.29-.49-.71-.86-1.27-1.1s-1.27-.36-2.14-.36-1.85.22-2.83.67-1.93,1.01-2.83,1.71v14.66h-3.3v-27.35h3.3v9.9c1.03-.86,2.1-1.52,3.2-2s2.23-.72,3.39-.72c2.12,0,3.74.64,4.85,1.92s1.67,3.12,1.67,5.52v12.74-.02h0Z" style="fill: #444;"/>
        <path d="M847.46,494.21h-3.3v-27.35h3.3v27.35Z" style="fill: #444;"/>
        <path d="M870.43,484.73h-14.47c0,1.21.18,2.26.54,3.16s.86,1.63,1.49,2.21c.61.56,1.33.98,2.17,1.27s1.76.42,2.77.42c1.34,0,2.68-.27,4.03-.8s2.32-1.06,2.89-1.57h.18v3.6c-1.11.47-2.25.86-3.41,1.18s-2.38.47-3.66.47c-3.26,0-5.8-.88-7.63-2.65s-2.74-4.27-2.74-7.51.88-5.76,2.63-7.65,4.06-2.83,6.92-2.83c2.65,0,4.69.77,6.13,2.32s2.15,3.74,2.15,6.59v1.79h0ZM867.22,482.2c-.01-1.73-.45-3.08-1.31-4.03s-2.17-1.42-3.93-1.42-3.18.52-4.23,1.56-1.64,2.34-1.78,3.88h11.25Z" style="fill: #444;"/>
        <path d="M891.86,494.21h-3.3v-11.18c0-.9-.05-1.75-.16-2.54s-.3-1.41-.58-1.85c-.29-.49-.71-.86-1.27-1.1s-1.27-.36-2.14-.36-1.85.22-2.83.67-1.93,1.01-2.83,1.71v14.66h-3.3v-19.63h3.3v2.18c1.03-.86,2.1-1.52,3.2-2s2.23-.72,3.39-.72c2.12,0,3.74.64,4.85,1.92s1.67,3.12,1.67,5.52v12.74-.02h0Z" style="fill: #444;"/>
        <path d="M914.15,491.98c0,3.33-.76,5.77-2.27,7.33s-3.84,2.34-6.98,2.34c-1.04,0-2.06-.07-3.05-.22s-1.97-.35-2.93-.62v-3.38h.18c.54.21,1.39.47,2.57.78s2.34.47,3.52.47,2.06-.13,2.79-.4,1.31-.64,1.72-1.12c.41-.46.7-1.01.88-1.65s.26-1.37.26-2.16v-1.79c-1,.8-1.95,1.39-2.86,1.78s-2.07.59-3.47.59c-2.34,0-4.2-.85-5.58-2.54s-2.07-4.08-2.07-7.16c0-1.69.24-3.14.71-4.37s1.12-2.28,1.94-3.17c.76-.83,1.69-1.48,2.78-1.94s2.17-.69,3.25-.69c1.14,0,2.09.11,2.86.34s1.58.58,2.43,1.05l.21-.84h3.09v17.4l.02-.03h0ZM910.85,488.81v-10.71c-.88-.4-1.7-.68-2.45-.85s-1.51-.25-2.26-.25c-1.82,0-3.25.61-4.29,1.83s-1.56,2.99-1.56,5.31.39,3.87,1.16,5.01,2.06,1.71,3.85,1.71c.96,0,1.92-.18,2.89-.55s1.85-.86,2.66-1.49h0Z" style="fill: #444;"/>
        <path d="M930.85,494.03c-.62.16-1.3.3-2.03.4s-1.39.16-1.96.16c-2,0-3.53-.54-4.57-1.62s-1.56-2.81-1.56-5.19v-10.44h-2.23v-2.78h2.23v-5.64h3.3v5.64h6.82v2.78h-6.82v8.95c0,1.03.02,1.84.07,2.42s.21,1.12.49,1.63c.26.47.61.81,1.06,1.03s1.14.33,2.07.33c.54,0,1.1-.08,1.69-.24s1.01-.29,1.27-.4h.18v2.97h0Z" style="fill: #444;"/>
        <path d="M951.26,494.21h-3.3v-11.18c0-.9-.05-1.75-.16-2.54s-.3-1.41-.58-1.85c-.29-.49-.71-.86-1.27-1.1s-1.27-.36-2.14-.36-1.85.22-2.83.67-1.93,1.01-2.83,1.71v14.66h-3.3v-27.35h3.3v9.9c1.03-.86,2.1-1.52,3.2-2s2.23-.72,3.39-.72c2.12,0,3.74.64,4.85,1.92s1.67,3.12,1.67,5.52v12.74-.02h0Z" style="fill: #444;"/>
      </g>
      <g>
        <path d="M861.03,540.47h-14.77v-3.06c1.03-.88,2.05-1.76,3.08-2.64s1.99-1.75,2.88-2.62c1.88-1.82,3.16-3.26,3.85-4.33s1.04-2.22,1.04-3.46c0-1.13-.37-2.02-1.12-2.66-.75-.64-1.79-.96-3.13-.96-.89,0-1.85.16-2.89.47s-2.05.79-3.03,1.44h-.15v-3.08c.69-.34,1.62-.65,2.78-.94,1.16-.28,2.28-.42,3.36-.42,2.24,0,3.99.54,5.26,1.62s1.9,2.54,1.9,4.39c0,.83-.11,1.6-.31,2.32-.21.72-.52,1.4-.93,2.04-.38.61-.83,1.2-1.34,1.79-.51.59-1.13,1.24-1.87,1.95-1.04,1.03-2.12,2.02-3.24,2.98s-2.15,1.85-3.12,2.67h11.73v2.5h.02Z" style="fill: #444;"/>
        <path d="M880.08,529.56c0,3.92-.61,6.79-1.84,8.62-1.23,1.83-3.13,2.75-5.71,2.75s-4.53-.93-5.73-2.78c-1.21-1.86-1.81-4.71-1.81-8.55s.61-6.74,1.83-8.59,3.12-2.78,5.71-2.78,4.53.94,5.73,2.82c1.21,1.88,1.81,4.72,1.81,8.52h.01ZM876.22,536.21c.34-.79.57-1.72.7-2.79.12-1.07.18-2.36.18-3.86s-.06-2.77-.18-3.87-.36-2.02-.71-2.78c-.34-.75-.81-1.32-1.4-1.7s-1.35-.57-2.28-.57-1.68.19-2.28.57c-.6.38-1.08.96-1.43,1.73-.33.72-.56,1.67-.68,2.83-.12,1.16-.18,2.44-.18,3.82,0,1.52.05,2.8.16,3.82s.34,1.94.69,2.75c.32.76.78,1.34,1.37,1.74s1.38.6,2.35.6c.92,0,1.68-.19,2.29-.57s1.07-.96,1.41-1.73h0Z" style="fill: #444;"/>
        <path d="M899.15,529.56c0,3.92-.61,6.79-1.84,8.62-1.23,1.83-3.13,2.75-5.71,2.75s-4.53-.93-5.73-2.78c-1.21-1.86-1.81-4.71-1.81-8.55s.61-6.74,1.83-8.59,3.12-2.78,5.71-2.78,4.53.94,5.73,2.82c1.21,1.88,1.81,4.72,1.81,8.52h.01ZM895.3,536.21c.34-.79.57-1.72.7-2.79.12-1.07.18-2.36.18-3.86s-.06-2.77-.18-3.87-.36-2.02-.71-2.78c-.34-.75-.81-1.32-1.4-1.7s-1.35-.57-2.28-.57-1.68.19-2.28.57c-.6.38-1.08.96-1.43,1.73-.33.72-.56,1.67-.68,2.83-.12,1.16-.18,2.44-.18,3.82,0,1.52.05,2.8.16,3.82s.34,1.94.69,2.75c.32.76.78,1.34,1.37,1.74s1.38.6,2.35.6c.92,0,1.68-.19,2.29-.57s1.07-.96,1.41-1.73h0Z" style="fill: #444;"/>
        <path d="M918.22,529.56c0,3.92-.61,6.79-1.84,8.62-1.23,1.83-3.13,2.75-5.71,2.75s-4.53-.93-5.73-2.78c-1.21-1.86-1.81-4.71-1.81-8.55s.61-6.74,1.83-8.59,3.12-2.78,5.71-2.78,4.53.94,5.73,2.82c1.21,1.88,1.81,4.72,1.81,8.52h.01ZM914.37,536.21c.34-.79.57-1.72.7-2.79.12-1.07.18-2.36.18-3.86s-.06-2.77-.18-3.87-.36-2.02-.71-2.78c-.34-.75-.81-1.32-1.4-1.7s-1.35-.57-2.28-.57-1.68.19-2.28.57c-.6.38-1.08.96-1.43,1.73-.33.72-.56,1.67-.68,2.83-.12,1.16-.18,2.44-.18,3.82,0,1.52.05,2.8.16,3.82s.34,1.94.69,2.75c.32.76.78,1.34,1.37,1.74s1.38.6,2.35.6c.92,0,1.68-.19,2.29-.57s1.07-.96,1.41-1.73h0Z" style="fill: #444;"/>
      </g>
      <polyline points="758.91 530.77 838.91 530.77 838.91 526.77 758.91 526.77 758.91 530.77" style="fill: #636efa;"/>
      <path d="M758.91,530.77v-4h80v4h-80M846.28,540.92v-22.71h71.95v22.71h-71.95M759.44,507.77h-5.53v42h166.3v-39.58h-160.77v-2.42" style="fill: #fff;"/>
      <g style="clip-path: url(#clippath-4);">
        <g>
          <rect x="741.53" y="499.21" width="160.77" height="2.42" style="fill: #fff;"/>
          <g>
            <path d="M761.54,494.21h-3.48v-12.81h-13.06v12.81h-3.48v-26.17h3.48v10.27h13.06v-10.27h3.48v26.17Z" style="fill: #444;"/>
            <path d="M783.56,494.21h-3.29v-2.09c-.29.2-.69.48-1.19.83s-.98.64-1.45.85c-.55.27-1.18.5-1.9.68s-1.55.27-2.51.27c-1.77,0-3.27-.59-4.5-1.76s-1.85-2.67-1.85-4.48c0-1.49.32-2.69.96-3.61s1.55-1.64,2.73-2.17c1.2-.53,2.63-.88,4.31-1.07s3.47-.33,5.4-.42v-.51c0-.75-.13-1.37-.4-1.86s-.64-.88-1.13-1.16c-.47-.27-1.03-.45-1.69-.54s-1.34-.14-2.06-.14c-.87,0-1.83.11-2.9.34s-2.17.56-3.3.99h-.18v-3.36c.64-.18,1.58-.37,2.79-.58s2.42-.32,3.6-.32c1.38,0,2.59.11,3.61.34s1.91.62,2.66,1.17c.74.54,1.3,1.24,1.69,2.09s.58,1.92.58,3.18v13.32h.02ZM780.28,489.38v-5.47c-1.01.06-2.19.15-3.56.26s-2.45.29-3.24.51c-.95.27-1.72.69-2.3,1.26s-.88,1.35-.88,2.35c0,1.12.34,1.97,1.02,2.54s1.72.85,3.11.85c1.16,0,2.22-.23,3.18-.68s1.85-.99,2.67-1.63h0Z" style="fill: #444;"/>
            <path d="M803.95,488.55c0,1.79-.74,3.26-2.22,4.41s-3.51,1.72-6.07,1.72c-1.45,0-2.79-.17-4-.52s-2.23-.72-3.05-1.13v-3.71h.18c1.04.79,2.2,1.41,3.48,1.87s2.5.69,3.67.69c1.45,0,2.59-.23,3.41-.7s1.23-1.21,1.23-2.21c0-.77-.22-1.36-.67-1.76s-1.3-.74-2.57-1.02c-.47-.11-1.08-.23-1.84-.37s-1.44-.29-2.07-.46c-1.72-.46-2.94-1.13-3.67-2.01s-1.08-1.97-1.08-3.26c0-.81.17-1.57.5-2.29s.84-1.35,1.52-1.92c.66-.55,1.49-.99,2.5-1.31s2.15-.48,3.4-.48c1.17,0,2.36.14,3.56.43s2.2.64,3,1.05v3.53h-.18c-.84-.62-1.87-1.15-3.08-1.57s-2.39-.64-3.55-.64-2.23.23-3.06.69-1.25,1.15-1.25,2.07c0,.81.25,1.42.76,1.83.49.41,1.29.74,2.39,1,.61.14,1.29.28,2.05.42s1.39.27,1.89.39c1.54.35,2.72.96,3.55,1.81.83.87,1.25,2.02,1.25,3.45h.02Z" style="fill: #444;"/>
            <path d="M825.1,494.21h-3.3v-11.18c0-.9-.05-1.75-.16-2.54s-.3-1.41-.58-1.85c-.29-.49-.71-.86-1.27-1.1s-1.27-.36-2.14-.36-1.85.22-2.83.67-1.93,1.01-2.83,1.71v14.66h-3.3v-27.35h3.3v9.9c1.03-.86,2.1-1.52,3.2-2s2.23-.72,3.39-.72c2.12,0,3.74.64,4.85,1.92s1.67,3.12,1.67,5.52v12.74-.02h0Z" style="fill: #444;"/>
            <path d="M847.46,494.21h-3.3v-27.35h3.3v27.35Z" style="fill: #444;"/>
            <path d="M870.43,484.73h-14.47c0,1.21.18,2.26.54,3.16s.86,1.63,1.49,2.21c.61.56,1.33.98,2.17,1.27s1.76.42,2.77.42c1.34,0,2.68-.27,4.03-.8s2.32-1.06,2.89-1.57h.18v3.6c-1.11.47-2.25.86-3.41,1.18s-2.38.47-3.66.47c-3.26,0-5.8-.88-7.63-2.65s-2.74-4.27-2.74-7.51.88-5.76,2.63-7.65,4.06-2.83,6.92-2.83c2.65,0,4.69.77,6.13,2.32s2.15,3.74,2.15,6.59v1.79h0ZM867.22,482.2c-.01-1.73-.45-3.08-1.31-4.03s-2.17-1.42-3.93-1.42-3.18.52-4.23,1.56-1.64,2.34-1.78,3.88h11.25Z" style="fill: #444;"/>
            <path d="M891.86,494.21h-3.3v-11.18c0-.9-.05-1.75-.16-2.54s-.3-1.41-.58-1.85c-.29-.49-.71-.86-1.27-1.1s-1.27-.36-2.14-.36-1.85.22-2.83.67-1.93,1.01-2.83,1.71v14.66h-3.3v-19.63h3.3v2.18c1.03-.86,2.1-1.52,3.2-2s2.23-.72,3.39-.72c2.12,0,3.74.64,4.85,1.92s1.67,3.12,1.67,5.52v12.74-.02h0Z" style="fill: #444;"/>
            <path d="M914.15,491.98c0,3.33-.76,5.77-2.27,7.33s-3.84,2.34-6.98,2.34c-1.04,0-2.06-.07-3.05-.22s-1.97-.35-2.93-.62v-3.38h.18c.54.21,1.39.47,2.57.78s2.34.47,3.52.47,2.06-.13,2.79-.4,1.31-.64,1.72-1.12c.41-.46.7-1.01.88-1.65s.26-1.37.26-2.16v-1.79c-1,.8-1.95,1.39-2.86,1.78s-2.07.59-3.47.59c-2.34,0-4.2-.85-5.58-2.54s-2.07-4.08-2.07-7.16c0-1.69.24-3.14.71-4.37s1.12-2.28,1.94-3.17c.76-.83,1.69-1.48,2.78-1.94s2.17-.69,3.25-.69c1.14,0,2.09.11,2.86.34s1.58.58,2.43,1.05l.21-.84h3.09v17.4l.02-.03h0ZM910.85,488.81v-10.71c-.88-.4-1.7-.68-2.45-.85s-1.51-.25-2.26-.25c-1.82,0-3.25.61-4.29,1.83s-1.56,2.99-1.56,5.31.39,3.87,1.16,5.01,2.06,1.71,3.85,1.71c.96,0,1.92-.18,2.89-.55s1.85-.86,2.66-1.49h0Z" style="fill: #444;"/>
            <path d="M930.85,494.03c-.62.16-1.3.3-2.03.4s-1.39.16-1.96.16c-2,0-3.53-.54-4.57-1.62s-1.56-2.81-1.56-5.19v-10.44h-2.23v-2.78h2.23v-5.64h3.3v5.64h6.82v2.78h-6.82v8.95c0,1.03.02,1.84.07,2.42s.21,1.12.49,1.63c.26.47.61.81,1.06,1.03s1.14.33,2.07.33c.54,0,1.1-.08,1.69-.24s1.01-.29,1.27-.4h.18v2.97h0Z" style="fill: #444;"/>
            <path d="M951.26,494.21h-3.3v-11.18c0-.9-.05-1.75-.16-2.54s-.3-1.41-.58-1.85c-.29-.49-.71-.86-1.27-1.1s-1.27-.36-2.14-.36-1.85.22-2.83.67-1.93,1.01-2.83,1.71v14.66h-3.3v-27.35h3.3v9.9c1.03-.86,2.1-1.52,3.2-2s2.23-.72,3.39-.72c2.12,0,3.74.64,4.85,1.92s1.67,3.12,1.67,5.52v12.74-.02h0Z" style="fill: #444;"/>
          </g>
        </g>
      </g>
      <g>
        <path d="M859.12,571.97c.47.42.85.95,1.16,1.58s.45,1.46.45,2.46-.18,1.91-.54,2.74-.87,1.55-1.52,2.17c-.73.68-1.59,1.19-2.58,1.52s-2.08.49-3.26.49-2.4-.14-3.57-.43-2.13-.6-2.89-.94v-3.06h.22c.83.55,1.81,1,2.93,1.36s2.21.54,3.25.54c.62,0,1.27-.1,1.96-.31s1.25-.51,1.68-.91c.45-.43.78-.9,1-1.42.22-.52.33-1.17.33-1.96s-.12-1.43-.37-1.94-.59-.92-1.03-1.21c-.44-.3-.97-.51-1.6-.62s-1.3-.17-2.02-.17h-1.32v-2.43h1.03c1.48,0,2.67-.31,3.55-.93s1.33-1.53,1.33-2.72c0-.53-.11-.99-.34-1.38-.22-.39-.54-.72-.94-.97-.42-.25-.87-.43-1.35-.53s-1.02-.15-1.63-.15c-.93,0-1.91.17-2.96.5s-2.03.8-2.96,1.41h-.15v-3.06c.69-.34,1.62-.66,2.78-.95,1.16-.29,2.28-.43,3.36-.43s2,.1,2.81.29,1.54.51,2.2.94c.7.47,1.24,1.04,1.6,1.7s.54,1.44.54,2.33c0,1.21-.43,2.27-1.28,3.17-.85.9-1.86,1.47-3.02,1.71v.21c.47.08,1.01.24,1.61.49.61.25,1.12.56,1.54.93v-.02h0Z" style="fill: #444;"/>
        <path d="M880.08,571.56c0,3.92-.61,6.79-1.84,8.62-1.23,1.83-3.13,2.75-5.71,2.75s-4.53-.93-5.73-2.78c-1.21-1.86-1.81-4.71-1.81-8.55s.61-6.74,1.83-8.59,3.12-2.78,5.71-2.78,4.53.94,5.73,2.82c1.21,1.88,1.81,4.72,1.81,8.52h.01ZM876.22,578.21c.34-.79.57-1.72.7-2.79.12-1.07.18-2.36.18-3.86s-.06-2.77-.18-3.87-.36-2.02-.71-2.78c-.34-.75-.81-1.32-1.4-1.7s-1.35-.57-2.28-.57-1.68.19-2.28.57c-.6.38-1.08.96-1.43,1.73-.33.72-.56,1.67-.68,2.83-.12,1.16-.18,2.44-.18,3.82,0,1.52.05,2.8.16,3.82s.34,1.94.69,2.75c.32.76.78,1.34,1.37,1.74s1.38.6,2.35.6c.92,0,1.68-.19,2.29-.57s1.07-.96,1.41-1.73h0Z" style="fill: #444;"/>
        <path d="M899.15,571.56c0,3.92-.61,6.79-1.84,8.62-1.23,1.83-3.13,2.75-5.71,2.75s-4.53-.93-5.73-2.78c-1.21-1.86-1.81-4.71-1.81-8.55s.61-6.74,1.83-8.59,3.12-2.78,5.71-2.78,4.53.94,5.73,2.82c1.21,1.88,1.81,4.72,1.81,8.52h.01ZM895.3,578.21c.34-.79.57-1.72.7-2.79.12-1.07.18-2.36.18-3.86s-.06-2.77-.18-3.87-.36-2.02-.71-2.78c-.34-.75-.81-1.32-1.4-1.7s-1.35-.57-2.28-.57-1.68.19-2.28.57c-.6.38-1.08.96-1.43,1.73-.33.72-.56,1.67-.68,2.83-.12,1.16-.18,2.44-.18,3.82,0,1.52.05,2.8.16,3.82s.34,1.94.69,2.75c.32.76.78,1.34,1.37,1.74s1.38.6,2.35.6c.92,0,1.68-.19,2.29-.57s1.07-.96,1.41-1.73h0Z" style="fill: #444;"/>
        <path d="M918.22,571.56c0,3.92-.61,6.79-1.84,8.62-1.23,1.83-3.13,2.75-5.71,2.75s-4.53-.93-5.73-2.78c-1.21-1.86-1.81-4.71-1.81-8.55s.61-6.74,1.83-8.59,3.12-2.78,5.71-2.78,4.53.94,5.73,2.82c1.21,1.88,1.81,4.72,1.81,8.52h.01ZM914.37,578.21c.34-.79.57-1.72.7-2.79.12-1.07.18-2.36.18-3.86s-.06-2.77-.18-3.87-.36-2.02-.71-2.78c-.34-.75-.81-1.32-1.4-1.7s-1.35-.57-2.28-.57-1.68.19-2.28.57c-.6.38-1.08.96-1.43,1.73-.33.72-.56,1.67-.68,2.83-.12,1.16-.18,2.44-.18,3.82,0,1.52.05,2.8.16,3.82s.34,1.94.69,2.75c.32.76.78,1.34,1.37,1.74s1.38.6,2.35.6c.92,0,1.68-.19,2.29-.57s1.07-.96,1.41-1.73h0Z" style="fill: #444;"/>
      </g>
      <polyline points="758.91 572.77 838.91 572.77 838.91 568.77 758.91 568.77 758.91 572.77" style="fill: #00cc96;"/>
      <path d="M758.91,572.77v-4h80v4h-80M846.37,582.92v-22.71h71.86v22.71h-71.86M920.21,549.77h-166.3v42h166.3v-42" style="fill: #fff;"/>
      <g>
        <path d="M861.53,618.33h-3.24v6.14h-2.81v-6.14h-10.44v-3.37l10.56-12.3h2.7v13.33h3.24v2.34h-.01ZM855.48,615.99v-9.84l-8.45,9.84h8.45Z" style="fill: #444;"/>
        <path d="M880.08,613.56c0,3.92-.61,6.79-1.84,8.62-1.23,1.83-3.13,2.75-5.71,2.75s-4.53-.93-5.73-2.78c-1.21-1.86-1.81-4.71-1.81-8.55s.61-6.74,1.83-8.59,3.12-2.78,5.71-2.78,4.53.94,5.73,2.82c1.21,1.88,1.81,4.72,1.81,8.52h.01ZM876.22,620.21c.34-.79.57-1.72.7-2.79.12-1.07.18-2.36.18-3.86s-.06-2.77-.18-3.87-.36-2.02-.71-2.78c-.34-.75-.81-1.32-1.4-1.7s-1.35-.57-2.28-.57-1.68.19-2.28.57c-.6.38-1.08.96-1.43,1.73-.33.72-.56,1.67-.68,2.83-.12,1.16-.18,2.44-.18,3.82,0,1.52.05,2.8.16,3.82s.34,1.94.69,2.75c.32.76.78,1.34,1.37,1.74s1.38.6,2.35.6c.92,0,1.68-.19,2.29-.57s1.07-.96,1.41-1.73h0Z" style="fill: #444;"/>
        <path d="M899.15,613.56c0,3.92-.61,6.79-1.84,8.62-1.23,1.83-3.13,2.75-5.71,2.75s-4.53-.93-5.73-2.78c-1.21-1.86-1.81-4.71-1.81-8.55s.61-6.74,1.83-8.59,3.12-2.78,5.71-2.78,4.53.94,5.73,2.82c1.21,1.88,1.81,4.72,1.81,8.52h.01ZM895.3,620.21c.34-.79.57-1.72.7-2.79.12-1.07.18-2.36.18-3.86s-.06-2.77-.18-3.87-.36-2.02-.71-2.78c-.34-.75-.81-1.32-1.4-1.7s-1.35-.57-2.28-.57-1.68.19-2.28.57c-.6.38-1.08.96-1.43,1.73-.33.72-.56,1.67-.68,2.83-.12,1.16-.18,2.44-.18,3.82,0,1.52.05,2.8.16,3.82s.34,1.94.69,2.75c.32.76.78,1.34,1.37,1.74s1.38.6,2.35.6c.92,0,1.68-.19,2.29-.57s1.07-.96,1.41-1.73h0Z" style="fill: #444;"/>
        <path d="M918.22,613.56c0,3.92-.61,6.79-1.84,8.62-1.23,1.83-3.13,2.75-5.71,2.75s-4.53-.93-5.73-2.78c-1.21-1.86-1.81-4.71-1.81-8.55s.61-6.74,1.83-8.59,3.12-2.78,5.71-2.78,4.53.94,5.73,2.82c1.21,1.88,1.81,4.72,1.81,8.52h.01ZM914.37,620.21c.34-.79.57-1.72.7-2.79.12-1.07.18-2.36.18-3.86s-.06-2.77-.18-3.87-.36-2.02-.71-2.78c-.34-.75-.81-1.32-1.4-1.7s-1.35-.57-2.28-.57-1.68.19-2.28.57c-.6.38-1.08.96-1.43,1.73-.33.72-.56,1.67-.68,2.83-.12,1.16-.18,2.44-.18,3.82,0,1.52.05,2.8.16,3.82s.34,1.94.69,2.75c.32.76.78,1.34,1.37,1.74s1.38.6,2.35.6c.92,0,1.68-.19,2.29-.57s1.07-.96,1.41-1.73h0Z" style="fill: #444;"/>
      </g>
      <polyline points="758.91 614.77 838.91 614.77 838.91 610.77 758.91 610.77 758.91 614.77" style="fill: #ab63fa;"/>
      <path d="M758.91,614.77v-4h80v4h-80M845.05,624.92v-22.71h73.18v22.71h-73.18M920.21,591.77h-166.3v42h166.3v-42" style="fill: #fff;"/>
    </g>
  </g>
  <g>
    <path d="M442.23,790.51c-.64.28-1.23.54-1.75.79s-1.2.5-2.05.77c-.71.22-1.49.41-2.33.57s-1.76.24-2.77.24c-1.9,0-3.62-.27-5.18-.8s-2.9-1.37-4.05-2.5c-1.12-1.11-2-2.53-2.64-4.25s-.95-3.71-.95-5.99c0-2.16.3-4.08.91-5.78s1.49-3.13,2.64-4.31c1.11-1.14,2.46-2,4.03-2.6s3.33-.9,5.25-.9c1.41,0,2.81.17,4.21.51s2.96.94,4.67,1.79v4.13h-.26c-1.44-1.21-2.87-2.09-4.29-2.64s-2.94-.83-4.55-.83c-1.32,0-2.52.21-3.58.64s-2.01,1.09-2.84,2c-.81.88-1.44,1.99-1.89,3.33s-.68,2.89-.68,4.65.25,3.42.75,4.75,1.14,2.4,1.92,3.23c.82.87,1.78,1.51,2.87,1.92s2.25.62,3.47.62c1.68,0,3.25-.29,4.71-.86s2.84-1.44,4.11-2.58h.25v4.08l.02.02h0Z" style="fill: #444;"/>
    <path d="M462.14,792.41h-3.29v-2.09c-.29.2-.69.48-1.19.83s-.98.64-1.45.85c-.55.27-1.18.5-1.9.68s-1.55.27-2.51.27c-1.77,0-3.27-.59-4.5-1.76s-1.85-2.67-1.85-4.48c0-1.49.32-2.69.96-3.61s1.55-1.64,2.73-2.17c1.2-.53,2.63-.88,4.31-1.07s3.47-.33,5.4-.42v-.51c0-.75-.13-1.37-.4-1.86s-.64-.88-1.13-1.16c-.47-.27-1.03-.45-1.69-.54s-1.34-.14-2.06-.14c-.87,0-1.83.11-2.9.34s-2.17.56-3.3.99h-.18v-3.36c.64-.18,1.58-.37,2.79-.58s2.42-.32,3.6-.32c1.38,0,2.59.11,3.61.34s1.91.62,2.66,1.17c.74.54,1.3,1.24,1.69,2.09s.58,1.92.58,3.18v13.32h.02ZM458.86,787.58v-5.47c-1.01.06-2.19.15-3.56.26s-2.45.29-3.24.51c-.95.27-1.72.69-2.3,1.26s-.88,1.35-.88,2.35c0,1.12.34,1.97,1.02,2.54s1.72.85,3.11.85c1.16,0,2.22-.23,3.18-.68s1.85-.99,2.67-1.63h0Z" style="fill: #444;"/>
    <path d="M471.85,792.41h-3.3v-27.35h3.3v27.35Z" style="fill: #444;"/>
    <path d="M492.9,791.18c-1.1.53-2.15.94-3.14,1.23s-2.04.44-3.16.44c-1.42,0-2.72-.21-3.9-.62s-2.2-1.05-3.04-1.89c-.86-.84-1.52-1.91-1.99-3.2s-.7-2.79-.7-4.52c0-3.21.88-5.73,2.65-7.56s4.09-2.74,6.99-2.74c1.12,0,2.23.16,3.31.47s2.08.7,2.98,1.16v3.67h-.18c-1.01-.79-2.05-1.39-3.12-1.81s-2.12-.63-3.14-.63c-1.88,0-3.35.63-4.44,1.89s-1.63,3.11-1.63,5.55.53,4.19,1.59,5.46,2.55,1.91,4.47,1.91c.67,0,1.35-.09,2.04-.26s1.31-.4,1.86-.69c.48-.25.93-.51,1.35-.78s.76-.51,1-.71h.18v3.64h.02Z" style="fill: #444;"/>
    <path d="M513.42,792.41h-3.3v-2.18c-1.11.88-2.18,1.55-3.2,2.02s-2.14.7-3.38.7c-2.06,0-3.67-.63-4.82-1.89s-1.72-3.11-1.72-5.55v-12.74h3.3v11.18c0,1,.05,1.85.14,2.56s.29,1.32.6,1.82c.32.52.73.89,1.23,1.12s1.24.35,2.2.35c.86,0,1.79-.22,2.8-.67s1.96-1.01,2.84-1.71v-14.66h3.3v19.65h.01Z" style="fill: #444;"/>
    <path d="M523.26,792.41h-3.3v-27.35h3.3v27.35Z" style="fill: #444;"/>
    <path d="M545.06,792.41h-3.29v-2.09c-.29.2-.69.48-1.19.83s-.98.64-1.45.85c-.55.27-1.18.5-1.9.68s-1.55.27-2.51.27c-1.77,0-3.27-.59-4.5-1.76s-1.85-2.67-1.85-4.48c0-1.49.32-2.69.96-3.61s1.55-1.64,2.73-2.17c1.2-.53,2.63-.88,4.31-1.07s3.47-.33,5.4-.42v-.51c0-.75-.13-1.37-.4-1.86s-.64-.88-1.13-1.16c-.47-.27-1.03-.45-1.69-.54s-1.34-.14-2.06-.14c-.87,0-1.83.11-2.9.34s-2.17.56-3.3.99h-.18v-3.36c.64-.18,1.58-.37,2.79-.58s2.42-.32,3.6-.32c1.38,0,2.59.11,3.61.34s1.91.62,2.66,1.17c.74.54,1.3,1.24,1.69,2.09s.58,1.92.58,3.18v13.32h.02ZM541.77,787.58v-5.47c-1.01.06-2.19.15-3.56.26s-2.45.29-3.24.51c-.95.27-1.72.69-2.3,1.26s-.88,1.35-.88,2.35c0,1.12.34,1.97,1.02,2.54s1.72.85,3.11.85c1.16,0,2.22-.23,3.18-.68s1.85-.99,2.67-1.63h0Z" style="fill: #444;"/>
    <path d="M561.62,792.23c-.62.16-1.3.3-2.03.4s-1.39.16-1.96.16c-2,0-3.53-.54-4.57-1.62s-1.56-2.81-1.56-5.19v-10.44h-2.23v-2.78h2.23v-5.64h3.3v5.64h6.82v2.78h-6.82v8.95c0,1.03.02,1.84.07,2.42s.21,1.12.49,1.63c.26.47.61.81,1.06,1.03s1.14.33,2.07.33c.54,0,1.1-.08,1.69-.24s1.01-.29,1.27-.4h.18v2.97h0Z" style="fill: #444;"/>
    <path d="M569.16,769.49h-3.73v-3.43h3.73v3.43ZM568.95,792.41h-3.3v-19.63h3.3v19.63Z" style="fill: #444;"/>
    <path d="M592.22,782.6c0,3.2-.82,5.72-2.46,7.58s-3.84,2.78-6.59,2.78-4.98-.93-6.62-2.78-2.45-4.38-2.45-7.58.82-5.73,2.45-7.58,3.84-2.79,6.62-2.79,4.95.93,6.59,2.79,2.46,4.39,2.46,7.58ZM588.81,782.6c0-2.54-.5-4.43-1.49-5.67s-2.38-1.85-4.15-1.85-3.18.62-4.17,1.85-1.49,3.13-1.49,5.67.5,4.33,1.49,5.6,2.38,1.91,4.17,1.91,3.14-.63,4.14-1.89,1.5-3.13,1.5-5.62h0Z" style="fill: #444;"/>
    <path d="M613.75,792.41h-3.3v-11.18c0-.9-.05-1.75-.16-2.54s-.3-1.41-.58-1.85c-.29-.49-.71-.86-1.27-1.1s-1.27-.36-2.14-.36-1.85.22-2.83.67-1.93,1.01-2.83,1.71v14.66h-3.3v-19.63h3.3v2.18c1.03-.86,2.1-1.52,3.2-2s2.23-.72,3.39-.72c2.12,0,3.74.64,4.85,1.92s1.67,3.12,1.67,5.52v12.74-.02h0Z" style="fill: #444;"/>
    <path d="M645.03,776.38h-.18c-.49-.12-.97-.2-1.43-.25s-1.01-.08-1.64-.08c-1.02,0-2,.23-2.95.68s-1.86,1.03-2.74,1.75v13.94h-3.3v-19.63h3.3v2.9c1.31-1.05,2.47-1.8,3.47-2.24s2.02-.66,3.07-.66c.57,0,.99.01,1.25.04s.64.08,1.16.17v3.39h0Z" style="fill: #444;"/>
    <path d="M662.78,792.41h-3.29v-2.09c-.29.2-.69.48-1.19.83s-.98.64-1.45.85c-.55.27-1.18.5-1.9.68s-1.55.27-2.51.27c-1.77,0-3.27-.59-4.5-1.76s-1.85-2.67-1.85-4.48c0-1.49.32-2.69.96-3.61s1.55-1.64,2.73-2.17c1.2-.53,2.63-.88,4.31-1.07s3.47-.33,5.4-.42v-.51c0-.75-.13-1.37-.4-1.86s-.64-.88-1.13-1.16c-.47-.27-1.03-.45-1.69-.54s-1.34-.14-2.06-.14c-.87,0-1.83.11-2.9.34s-2.17.56-3.3.99h-.18v-3.36c.64-.18,1.58-.37,2.79-.58s2.42-.32,3.6-.32c1.38,0,2.59.11,3.61.34s1.91.62,2.66,1.17c.74.54,1.3,1.24,1.69,2.09s.58,1.92.58,3.18v13.32h.02ZM659.5,787.58v-5.47c-1.01.06-2.19.15-3.56.26s-2.45.29-3.24.51c-.95.27-1.72.69-2.3,1.26s-.88,1.35-.88,2.35c0,1.12.34,1.97,1.02,2.54s1.72.85,3.11.85c1.16,0,2.22-.23,3.18-.68s1.85-.99,2.67-1.63h0Z" style="fill: #444;"/>
    <path d="M679.34,792.23c-.62.16-1.3.3-2.03.4s-1.39.16-1.96.16c-2,0-3.53-.54-4.57-1.62s-1.56-2.81-1.56-5.19v-10.44h-2.23v-2.78h2.23v-5.64h3.3v5.64h6.82v2.78h-6.82v8.95c0,1.03.02,1.84.07,2.42s.21,1.12.49,1.63c.26.47.61.81,1.06,1.03s1.14.33,2.07.33c.54,0,1.1-.08,1.69-.24s1.01-.29,1.27-.4h.18v2.97h0Z" style="fill: #444;"/>
    <path d="M699.77,782.93h-14.47c0,1.21.18,2.26.54,3.16s.86,1.63,1.49,2.21c.61.56,1.33.98,2.17,1.27s1.76.42,2.77.42c1.34,0,2.68-.27,4.03-.8s2.32-1.06,2.89-1.57h.18v3.6c-1.11.47-2.25.86-3.41,1.18s-2.38.47-3.66.47c-3.26,0-5.8-.88-7.63-2.65s-2.74-4.27-2.74-7.51.88-5.76,2.63-7.65,4.06-2.83,6.92-2.83c2.65,0,4.69.77,6.13,2.32s2.15,3.74,2.15,6.59v1.79h0ZM696.55,780.4c-.01-1.73-.45-3.08-1.31-4.03s-2.17-1.42-3.93-1.42-3.18.52-4.23,1.56-1.64,2.34-1.78,3.88h11.25Z" style="fill: #444;"/>
  </g>
  <g>
    <path d="M36,472.21v10.34h-2.67v-3.43H12.5v3.43h-2.67v-10.34h2.67v3.43h20.83v-3.43h2.67Z" style="fill: #444;"/>
    <path d="M36,450.13v3.3h-11.18c-.9,0-1.75.05-2.54.16s-1.41.3-1.85.58c-.49.29-.86.71-1.1,1.27s-.36,1.27-.36,2.14.22,1.85.67,2.83,1.01,1.93,1.71,2.83h14.66v3.3h-19.63v-3.3h2.18c-.86-1.03-1.52-2.1-2-3.2s-.72-2.23-.72-3.39c0-2.12.64-3.74,1.92-4.85s3.12-1.67,5.52-1.67h12.74-.02,0Z" style="fill: #444;"/>
    <path d="M11.85,433.2v.18c-.11.36-.21.84-.33,1.42s-.17,1.1-.17,1.55c0,1.42.31,2.45.94,3.08s1.76.96,3.4.96h.67v-5.96h2.78v5.85h16.86v3.3h-16.86v2.23h-2.78v-2.23h-.65c-2.33,0-4.12-.58-5.37-1.74s-1.87-2.84-1.87-5.03c0-.74.04-1.4.11-2s.15-1.13.25-1.63h3.02v.02h0Z" style="fill: #444;"/>
    <path d="M26.53,414.67v14.47c1.21,0,2.26-.18,3.16-.54s1.63-.86,2.21-1.49c.56-.61.98-1.33,1.27-2.17s.42-1.76.42-2.77c0-1.34-.27-2.68-.8-4.03s-1.06-2.32-1.57-2.89v-.18h3.6c.47,1.11.86,2.25,1.18,3.41s.47,2.38.47,3.66c0,3.26-.88,5.8-2.65,7.63s-4.27,2.74-7.51,2.74-5.76-.88-7.65-2.63-2.83-4.06-2.83-6.92c0-2.65.77-4.69,2.32-6.13s3.74-2.15,6.59-2.15h1.79ZM23.99,417.89c-1.73.01-3.08.45-4.03,1.31s-1.42,2.17-1.42,3.93.52,3.18,1.56,4.23,2.34,1.64,3.88,1.78v-11.25h.01Z" style="fill: #444;"/>
    <path d="M34.77,395.15c.53,1.1.94,2.15,1.23,3.14s.44,2.04.44,3.16c0,1.42-.21,2.72-.62,3.9s-1.05,2.2-1.89,3.04c-.84.86-1.91,1.52-3.2,1.99s-2.79.7-4.52.7c-3.21,0-5.73-.88-7.56-2.65s-2.74-4.09-2.74-6.99c0-1.12.16-2.23.47-3.31s.7-2.08,1.16-2.98h3.67v.18c-.79,1.01-1.39,2.05-1.81,3.12s-.63,2.12-.63,3.14c0,1.88.63,3.35,1.89,4.44s3.11,1.63,5.55,1.63,4.19-.53,5.46-1.59c1.27-1.06,1.91-2.55,1.91-4.47,0-.67-.09-1.35-.26-2.04s-.4-1.31-.69-1.86c-.25-.48-.51-.93-.78-1.35s-.51-.76-.71-1v-.18h3.64v-.02h-.01Z" style="fill: #444;"/>
    <path d="M35.82,380.71c.16.62.3,1.3.4,2.03s.16,1.39.16,1.96c0,2-.54,3.53-1.62,4.57s-2.81,1.56-5.19,1.56h-10.44v2.23h-2.78v-2.23h-5.64v-3.3h5.64v-6.82h2.78v6.82h8.95c1.03,0,1.84-.02,2.42-.07s1.12-.21,1.63-.49c.47-.26.81-.61,1.03-1.06s.33-1.14.33-2.07c0-.54-.08-1.1-.24-1.69s-.29-1.01-.4-1.27v-.18h2.97Z" style="fill: #444;"/>
    <path d="M13.08,373.17v3.73h-3.43v-3.73h3.43ZM36,373.38v3.3h-19.63v-3.3h19.63Z" style="fill: #444;"/>
    <path d="M26.19,350.11c3.2,0,5.72.82,7.58,2.46s2.78,3.84,2.78,6.59-.93,4.98-2.78,6.62-4.38,2.45-7.58,2.45-5.73-.82-7.58-2.45-2.79-3.84-2.79-6.62.93-4.95,2.79-6.59,4.39-2.46,7.58-2.46ZM26.19,353.52c-2.54,0-4.43.5-5.67,1.49s-1.85,2.38-1.85,4.15.62,3.18,1.85,4.17,3.13,1.49,5.67,1.49,4.33-.5,5.6-1.49,1.91-2.38,1.91-4.17-.63-3.14-1.89-4.14-3.13-1.5-5.62-1.5h0Z" style="fill: #444;"/>
    <path d="M36,328.58v3.3h-11.18c-.9,0-1.75.05-2.54.16s-1.41.3-1.85.58c-.49.29-.86.71-1.1,1.27s-.36,1.27-.36,2.14.22,1.85.67,2.83,1.01,1.93,1.71,2.83h14.66v3.3h-19.63v-3.3h2.18c-.86-1.03-1.52-2.1-2-3.2s-.72-2.23-.72-3.39c0-2.12.64-3.74,1.92-4.85s3.12-1.67,5.52-1.67h12.74-.02,0Z" style="fill: #444;"/>
    <path d="M19.97,297.31v.18c-.12.49-.2.97-.25,1.43s-.08,1.01-.08,1.64c0,1.02.23,2,.68,2.95s1.03,1.86,1.75,2.74h13.94v3.3h-19.63v-3.3h2.9c-1.05-1.31-1.8-2.47-2.24-3.47s-.66-2.02-.66-3.07c0-.57.01-.99.04-1.25s.08-.64.17-1.16h3.39-.01Z" style="fill: #444;"/>
    <path d="M26.53,277.76v14.47c1.21,0,2.26-.18,3.16-.54s1.63-.86,2.21-1.49c.56-.61.98-1.33,1.27-2.17s.42-1.76.42-2.77c0-1.34-.27-2.68-.8-4.03s-1.06-2.32-1.57-2.89v-.18h3.6c.47,1.11.86,2.25,1.18,3.41s.47,2.38.47,3.66c0,3.26-.88,5.8-2.65,7.63s-4.27,2.74-7.51,2.74-5.76-.88-7.65-2.63-2.83-4.06-2.83-6.92c0-2.65.77-4.69,2.32-6.13s3.74-2.15,6.59-2.15h1.79ZM23.99,280.98c-1.73.01-3.08.45-4.03,1.31s-1.42,2.17-1.42,3.93.52,3.18,1.56,4.23,2.34,1.64,3.88,1.78v-11.25h.01Z" style="fill: #444;"/>
    <path d="M34.77,258.23c.53,1.1.94,2.15,1.23,3.14s.44,2.04.44,3.16c0,1.42-.21,2.72-.62,3.9s-1.05,2.2-1.89,3.04c-.84.86-1.91,1.52-3.2,1.99s-2.79.7-4.52.7c-3.21,0-5.73-.88-7.56-2.65s-2.74-4.09-2.74-6.99c0-1.12.16-2.23.47-3.31s.7-2.08,1.16-2.98h3.67v.18c-.79,1.01-1.39,2.05-1.81,3.12s-.63,2.12-.63,3.14c0,1.88.63,3.35,1.89,4.44s3.11,1.63,5.55,1.63,4.19-.53,5.46-1.59c1.27-1.06,1.91-2.55,1.91-4.47,0-.67-.09-1.35-.26-2.04s-.4-1.31-.69-1.86c-.25-.48-.51-.93-.78-1.35s-.51-.76-.71-1v-.18h3.64v-.02h-.01Z" style="fill: #444;"/>
    <path d="M36,238.74v3.29h-2.09c.2.29.48.69.83,1.19s.64.98.85,1.45c.27.55.5,1.18.68,1.9s.27,1.55.27,2.51c0,1.77-.59,3.27-1.76,4.5s-2.67,1.85-4.48,1.85c-1.49,0-2.69-.32-3.61-.96s-1.64-1.55-2.17-2.73c-.53-1.2-.88-2.63-1.07-4.31s-.33-3.47-.42-5.4h-.51c-.75,0-1.37.13-1.86.4s-.88.64-1.16,1.13c-.27.47-.45,1.03-.54,1.69s-.14,1.34-.14,2.06c0,.87.11,1.83.34,2.9s.56,2.17.99,3.3v.18h-3.36c-.18-.64-.37-1.58-.58-2.79s-.32-2.42-.32-3.6c0-1.38.11-2.59.34-3.61s.62-1.91,1.17-2.66c.54-.74,1.24-1.3,2.09-1.69s1.92-.58,3.18-.58h13.32v-.02h0ZM31.17,242.02h-5.47c.06,1.01.15,2.19.26,3.56s.29,2.45.51,3.24c.27.95.69,1.72,1.26,2.3s1.35.88,2.35.88c1.12,0,1.97-.34,2.54-1.02s.85-1.72.85-3.11c0-1.16-.23-2.22-.68-3.18s-.99-1.85-1.63-2.67h0Z" style="fill: #444;"/>
    <path d="M36,229.03v3.3H8.65v-3.3h27.35Z" style="fill: #444;"/>
    <path d="M36,219.15v3.3H8.65v-3.3h27.35Z" style="fill: #444;"/>
  </g>
</svg>