<?xml version="1.0" encoding="UTF-8"?>
<svg id="Layer_1" data-name="Layer 1" xmlns="http://www.w3.org/2000/svg" width="665.28" height="495.58" xmlns:xlink="http://www.w3.org/1999/xlink" viewBox="0 0 665.28 495.58">
  <defs>
    <clipPath id="clippath">
      <rect x="85.28" width="457" height="460" style="fill: none;"/>
    </clipPath>
    <clipPath id="clippath-1">
      <rect x="512.28" width="153" height="140.92" style="fill: none;"/>
    </clipPath>
  </defs>
  <polyline points="85.28 365.5 542.28 365.5 542.28 364.5 85.28 364.5" style="fill: #eee;"/>
  <polyline points="85.28 270.5 542.28 270.5 542.28 269.5 85.28 269.5" style="fill: #eee;"/>
  <polyline points="85.28 175.5 542.28 175.5 542.28 174.5 85.28 174.5" style="fill: #eee;"/>
  <polyline points="85.28 80.5 542.28 80.5 542.28 79.5 85.28 79.5" style="fill: #eee;"/>
  <polyline points="85.28 460.5 542.28 460.5 542.28 459.5 85.28 459.5" style="fill: #444;"/>
  <g style="clip-path: url(#clippath);">
    <g>
      <rect x="120.9" y="384" width="36.29" height="76" style="fill: #d3d3d3;"/>
      <rect x="255.31" y="327" width="36.29" height="133" style="fill: #d3d3d3;"/>
      <rect x="389.72" y="270" width="36.29" height="190" style="fill: #d3d3d3;"/>
      <rect x="161.22" y="365" width="36.29" height="95" style="fill: #a9a9a9;"/>
      <rect x="295.63" y="251" width="36.3" height="209" style="fill: #a9a9a9;"/>
      <rect x="430.05" y="213" width="36.29" height="247" style="fill: #a9a9a9;"/>
      <rect x="201.55" y="118" width="36.29" height="342" style="fill: gray;"/>
      <rect x="335.96" y="61" width="36.29" height="399" style="fill: gray;"/>
      <rect x="470.37" y="23" width="36.29" height="437" style="fill: gray;"/>
    </g>
  </g>
  <path d="M78.97,465.84c-.44.28-1,.42-1.68.42-.72,0-1.29-.15-1.72-.44s-.77-.72-1-1.28c-.26-.59-.43-1.27-.5-2.02-.08-.75-.12-1.69-.12-2.8,0-1.02.04-1.95.13-2.8.09-.85.26-1.54.5-2.07.26-.57.61-.99,1.05-1.27s1-.42,1.67-.42,1.24.14,1.67.42.77.69,1.03,1.25.43,1.24.52,2.04c.09.8.13,1.75.13,2.84s-.04,2.05-.13,2.83-.26,1.47-.51,2.05c-.24.57-.59.99-1.03,1.27v-.02ZM81.5,453.45c-.88-1.38-2.29-2.07-4.21-2.07s-3.29.68-4.19,2.04c-.9,1.36-1.34,3.46-1.34,6.3s.44,4.91,1.33,6.27c.88,1.36,2.29,2.04,4.21,2.04s3.29-.67,4.18-2.01c.9-1.34,1.35-3.45,1.35-6.32s-.44-4.87-1.33-6.25h0Z" style="fill: #444;"/>
  <path d="M82.25,365.28c-.32-.62-.76-1.13-1.33-1.53-.54-.37-1.14-.63-1.79-.78s-1.41-.22-2.28-.22c-.24,0-.52,0-.84.02s-.64.04-.95.06v-4.25h7.55v-1.88h-9.62v8.24c.42-.09.93-.17,1.51-.26s1.19-.13,1.82-.13,1.25.06,1.79.17c.53.11.99.3,1.36.58.34.23.6.53.79.91s.28.84.28,1.4-.08,1.06-.24,1.49-.4.8-.71,1.11c-.37.36-.8.61-1.27.75-.48.14-.97.21-1.48.21-.76,0-1.53-.13-2.32-.39s-1.48-.58-2.06-.95h-.15v2.27c.56.26,1.24.48,2.05.66.81.18,1.65.27,2.52.27.94,0,1.76-.13,2.48-.4.71-.27,1.33-.65,1.84-1.15.47-.47.84-1.04,1.12-1.72.27-.68.41-1.39.41-2.14,0-.94-.16-1.72-.47-2.34h-.01Z" style="fill: #444;"/>
  <path d="M78.97,275.84c-.44.28-1,.42-1.68.42-.72,0-1.29-.15-1.72-.44s-.77-.72-1-1.28c-.26-.59-.43-1.27-.5-2.02-.08-.75-.12-1.69-.12-2.8,0-1.02.04-1.95.13-2.8.09-.85.26-1.54.5-2.07.26-.57.61-.99,1.05-1.27s1-.42,1.67-.42,1.24.14,1.67.42.77.69,1.03,1.25.43,1.24.52,2.04c.09.8.13,1.75.13,2.84s-.04,2.05-.13,2.83-.26,1.47-.51,2.05c-.24.57-.59.99-1.03,1.27v-.02ZM81.5,263.45c-.88-1.38-2.29-2.07-4.21-2.07s-3.29.68-4.19,2.04c-.9,1.36-1.34,3.46-1.34,6.3s.44,4.91,1.33,6.27c.88,1.36,2.29,2.04,4.21,2.04s3.29-.67,4.18-2.01c.9-1.34,1.35-3.45,1.35-6.32s-.44-4.87-1.33-6.25h0ZM67.95,276.07h-3.27v-14.42h-1.67c-.03.47-.14.84-.33,1.11-.19.28-.45.5-.78.68-.27.14-.66.25-1.17.33-.52.08-1,.11-1.45.11v1.46h3.33v10.72h-3.33v1.63h8.66v-1.63h0Z" style="fill: #444;"/>
  <path d="M82.25,175.28c-.32-.62-.76-1.13-1.33-1.53-.54-.37-1.14-.63-1.79-.78s-1.41-.22-2.28-.22c-.24,0-.52,0-.84.02s-.64.04-.95.06v-4.25h7.55v-1.88h-9.62v8.24c.42-.09.93-.17,1.51-.26s1.19-.13,1.82-.13,1.25.06,1.79.17c.53.11.99.3,1.36.58.34.23.6.53.79.91s.28.84.28,1.4-.08,1.06-.24,1.49-.4.8-.71,1.11c-.37.36-.8.61-1.27.75-.48.14-.97.21-1.48.21-.76,0-1.53-.13-2.32-.39s-1.48-.58-2.06-.95h-.15v2.27c.56.26,1.24.48,2.05.66.81.18,1.65.27,2.52.27.94,0,1.76-.13,2.48-.4.71-.27,1.33-.65,1.84-1.15.47-.47.84-1.04,1.12-1.72.27-.68.41-1.39.41-2.14,0-.94-.16-1.72-.47-2.34h-.01ZM67.95,181.07h-3.27v-14.42h-1.67c-.03.47-.14.84-.33,1.11-.19.28-.45.5-.78.68-.27.14-.66.25-1.17.33-.52.08-1,.11-1.45.11v1.46h3.33v10.72h-3.33v1.63h8.66v-1.63h0Z" style="fill: #444;"/>
  <path d="M78.97,85.84c-.44.28-1,.42-1.68.42-.72,0-1.29-.15-1.72-.44s-.77-.72-1-1.28c-.26-.59-.43-1.27-.5-2.02-.08-.75-.12-1.69-.12-2.8,0-1.02.04-1.95.13-2.8.09-.85.26-1.54.5-2.07.26-.57.61-.99,1.05-1.27s1-.42,1.67-.42,1.24.14,1.67.42.77.69,1.03,1.25.43,1.24.52,2.04.13,1.75.13,2.84-.04,2.05-.13,2.83-.26,1.47-.51,2.05c-.24.57-.59.99-1.03,1.27v-.02ZM81.5,73.45c-.88-1.38-2.29-2.07-4.21-2.07s-3.29.68-4.19,2.04-1.34,3.46-1.34,6.3.44,4.91,1.33,6.27c.88,1.36,2.29,2.04,4.21,2.04s3.29-.67,4.18-2.01c.9-1.34,1.35-3.45,1.35-6.32s-.44-4.87-1.33-6.25ZM68.86,85.86h-8.6c.71-.6,1.47-1.25,2.29-1.96s1.61-1.43,2.37-2.19c.54-.52.99-1,1.37-1.43s.7-.87.98-1.31c.3-.47.53-.97.68-1.5s.23-1.09.23-1.7c0-1.35-.47-2.43-1.4-3.22s-2.22-1.19-3.86-1.19c-.79,0-1.62.1-2.47.31s-1.53.44-2.04.69v2.26h.11c.72-.47,1.46-.82,2.22-1.05s1.46-.34,2.12-.34c.98,0,1.75.23,2.29.7.55.47.82,1.12.82,1.95,0,.91-.25,1.76-.76,2.54s-1.45,1.84-2.83,3.17c-.65.64-1.36,1.28-2.11,1.92-.76.64-1.51,1.29-2.26,1.93v2.25h10.83v-1.84h.02Z" style="fill: #444;"/>
  <polyline points="551.28 0 665.28 0 665.28 105 551.28 105 551.28 0" style="fill: #fff;"/>
  <g style="clip-path: url(#clippath-1);">
    <g>
      <path d="M638.16,30.76l7.49-7.44h-3.42l-7.82,8.05v-14.39h-2.71v22.43h2.71v-5.38l1.76-1.68,6.46,7.05h3.57l-8.03-8.67M615.58,29.58c.12-1.28.6-2.34,1.46-3.18.86-.86,2.01-1.29,3.46-1.29s2.51.39,3.22,1.17,1.06,1.88,1.07,3.3h-9.22M627.46,30.18c0-2.34-.59-4.13-1.77-5.41s-2.86-1.91-5.02-1.91c-2.35,0-4.24.78-5.68,2.32s-2.16,3.64-2.16,6.27.75,4.71,2.25,6.16,3.58,2.17,6.25,2.17c1.05,0,2.05-.13,2.99-.39.95-.26,1.88-.58,2.79-.97v-2.95h-.15c-.47.43-1.26.86-2.38,1.29-1.11.44-2.21.66-3.31.66-.83,0-1.58-.12-2.27-.35s-1.28-.58-1.79-1.03c-.52-.47-.93-1.07-1.22-1.81-.3-.74-.44-1.6-.44-2.59h11.86v-1.48M598,29.58c.12-1.28.6-2.34,1.46-3.18.86-.86,2.01-1.29,3.46-1.29s2.51.39,3.22,1.17,1.06,1.88,1.07,3.3h-9.23M609.87,30.18c0-2.34-.59-4.13-1.77-5.41s-2.86-1.91-5.02-1.91c-2.35,0-4.24.78-5.68,2.32s-2.16,3.64-2.16,6.27.75,4.71,2.25,6.16,3.58,2.17,6.25,2.17c1.05,0,2.05-.13,2.99-.39.95-.26,1.88-.58,2.79-.97v-2.95h-.15c-.47.43-1.26.86-2.38,1.29-1.11.44-2.21.66-3.31.66-.83,0-1.58-.12-2.27-.35s-1.28-.58-1.79-1.03c-.52-.47-.93-1.07-1.22-1.81-.3-.74-.44-1.6-.44-2.59h11.86v-1.48M591.04,17.96l-4.48,18.02-4.48-18.02h-2.9l-4.44,17.85-4.51-17.85h-2.93l5.68,21.47h3.14l4.42-17.82,4.51,17.82h3.22l5.58-21.47h-2.79" style="fill: #444;"/>
      <polyline points="547.18 35.97 531.07 35.97 531.07 19.86 547.18 19.86 547.18 35.97" style="fill: #d3d3d3;"/>
      <path d="M602.93,25.11c-1.45,0-2.6.43-3.46,1.29s-1.34,1.92-1.46,3.18h9.23c0-1.42-.36-2.52-1.07-3.3-.71-.78-1.79-1.17-3.22-1.17M620.52,25.11c-1.45,0-2.6.43-3.46,1.29s-1.34,1.92-1.46,3.18h9.22c0-1.42-.36-2.52-1.07-3.3-.71-.78-1.79-1.17-3.22-1.17M603.76,39.81c-2.67,0-4.75-.72-6.25-2.17s-2.25-3.5-2.25-6.16.72-4.72,2.16-6.27,3.33-2.32,5.68-2.32c2.17,0,3.85.63,5.02,1.91,1.18,1.28,1.77,3.07,1.77,5.41v1.48h-11.86c0,.99.15,1.85.44,2.59.3.74.71,1.34,1.22,1.81.5.46,1.09.81,1.79,1.03.68.23,1.45.35,2.27.35,1.1,0,2.2-.21,3.31-.66,1.11-.44,1.91-.87,2.38-1.29h.15v2.95c-.91.39-1.85.71-2.79.97-.95.26-1.95.39-2.99.39M621.34,39.81c-2.67,0-4.75-.72-6.25-2.17s-2.25-3.5-2.25-6.16.72-4.72,2.16-6.27,3.33-2.32,5.68-2.32c2.17,0,3.85.63,5.02,1.91,1.18,1.28,1.77,3.07,1.77,5.41v1.48h-11.86c0,.99.15,1.85.44,2.59.3.74.71,1.34,1.22,1.81.5.46,1.09.81,1.79,1.03.68.23,1.45.35,2.27.35,1.1,0,2.2-.21,3.31-.66,1.11-.44,1.91-.87,2.38-1.29h.15v2.95c-.91.39-1.85.71-2.79.97-.95.26-1.95.39-2.99.39M531.07,35.97v-16.11h16.11v16.11h-16.11M593.83,17.96h0l-5.58,21.47h-3.22l-4.51-17.82-4.42,17.82h-3.14l-5.68-21.47h2.93l4.51,17.85,4.44-17.85h2.9l4.48,18.02,4.48-18.02h2.79M631.67,39.43v-22.43h2.71v14.39l7.82-8.05h3.42l-7.49,7.44,8.03,8.67h-3.57l-6.46-7.05-1.76,1.68v5.38h-2.71M657.78,6.71h-145.5v42.41h145.5V6.71" style="fill: #fff;"/>
      <path d="M598,29.58c.12-1.28.6-2.34,1.46-3.18.86-.86,2.01-1.29,3.46-1.29s2.51.39,3.22,1.17,1.06,1.88,1.07,3.3h-9.23M603.07,22.88c-2.35,0-4.24.78-5.68,2.32s-2.16,3.64-2.16,6.27.75,4.71,2.25,6.16,3.58,2.17,6.25,2.17c1.05,0,2.05-.13,2.99-.39.95-.26,1.88-.58,2.79-.97v-2.95h-.15c-.47.43-1.26.86-2.38,1.29-1.11.44-2.21.66-3.31.66-.83,0-1.58-.12-2.27-.35s-1.28-.58-1.79-1.03c-.52-.47-.93-1.07-1.22-1.81-.3-.74-.44-1.6-.44-2.59h11.86v-1.48c0-2.34-.59-4.13-1.77-5.41s-2.86-1.91-5.02-1.91M615.58,29.58c.12-1.28.6-2.34,1.46-3.18.86-.86,2.01-1.29,3.46-1.29s2.51.39,3.22,1.17,1.06,1.88,1.07,3.3h-9.22M620.67,22.88c-2.35,0-4.24.78-5.68,2.32s-2.16,3.64-2.16,6.27.75,4.71,2.25,6.16,3.58,2.17,6.25,2.17c1.05,0,2.05-.13,2.99-.39.95-.26,1.88-.58,2.79-.97v-2.95h-.15c-.47.43-1.26.86-2.38,1.29-1.11.44-2.21.66-3.31.66-.83,0-1.58-.12-2.27-.35s-1.28-.58-1.79-1.03c-.52-.47-.93-1.07-1.22-1.81-.3-.74-.44-1.6-.44-2.59h11.86v-1.48c0-2.34-.59-4.13-1.77-5.41s-2.86-1.91-5.02-1.91M593.83,17.96h-2.79l-4.48,18.02-4.48-18.02h-2.9l-4.44,17.85-4.51-17.85h-2.93l5.68,21.47h3.14l4.42-17.82,4.51,17.82h3.22l5.58-21.47M634.39,17h-2.71v22.43h2.71v-5.38l1.76-1.68,6.46,7.05h3.57l-8.03-8.67,7.49-7.44h-3.42l-7.82,8.05v-14.39" style="fill: #444;"/>
      <polyline points="547.18 19.86 531.07 19.86 531.07 35.97 547.18 35.97 547.18 19.86" style="fill: #d3d3d3;"/>
      <path d="M655.22,71.39c0-1.97-.46-3.48-1.37-4.52s-2.24-1.57-3.97-1.57c-.95,0-1.88.2-2.78.59-.9.39-1.79.94-2.63,1.64v-8.12h-2.71v22.43h2.71v-12.03c.74-.56,1.52-1.03,2.32-1.4s1.58-.55,2.32-.55,1.3.09,1.76.3.79.5,1.03.9c.23.36.39.87.47,1.52s.13,1.34.13,2.08v9.17h2.71v-10.46M638.48,79.26h-.15c-.21.08-.56.2-1.03.32-.48.13-.94.2-1.38.2-.77,0-1.33-.09-1.69-.27-.38-.17-.66-.46-.87-.85-.23-.42-.36-.86-.4-1.33-.04-.47-.05-1.14-.05-1.99v-7.34h5.6v-2.28h-5.6v-4.63h-2.71v4.63h-1.83v2.28h1.83v8.56c0,1.95.43,3.37,1.29,4.25.86.89,2.11,1.33,3.74,1.33.47,0,1.01-.04,1.61-.13.6-.08,1.15-.2,1.66-.34v-2.44M624.9,71.39c0-1.97-.46-3.48-1.37-4.52s-2.24-1.57-3.97-1.57c-.95,0-1.88.2-2.78.59-.9.39-1.79.94-2.63,1.64v-1.79h-2.71v16.11h2.71v-12.03c.74-.56,1.52-1.03,2.32-1.4s1.58-.55,2.32-.55,1.3.09,1.76.3.79.5,1.03.9c.23.36.39.87.47,1.52s.13,1.34.13,2.08v9.17h2.71v-10.46M603.21,78.41c-.82,1.03-1.96,1.56-3.4,1.56s-2.6-.52-3.42-1.56c-.82-1.05-1.22-2.58-1.22-4.59s.4-3.64,1.22-4.64c.81-1.01,1.96-1.52,3.42-1.52s2.59.51,3.41,1.52c.82,1.02,1.22,2.56,1.22,4.64s-.42,3.57-1.23,4.6M605.22,67.57c-1.34-1.53-3.15-2.28-5.41-2.28s-4.09.76-5.42,2.28c-1.34,1.52-2.01,3.6-2.01,6.21s.67,4.7,2.01,6.21,3.15,2.28,5.42,2.28,4.07-.76,5.41-2.28,2.01-3.58,2.01-6.21-.67-4.7-2.01-6.21M587.96,60.38h-3.96l-5.53,11.96-5.72-11.96h-3.89v21.47h2.67v-18.49l5.92,12.59h1.7l5.97-12.59v18.49h2.86v-21.47" style="fill: #444;"/>
      <polyline points="547.18 78.38 531.07 78.38 531.07 62.27 547.18 62.27 547.18 78.38" style="fill: #a9a9a9;"/>
      <path d="M599.81,67.63c-1.48,0-2.62.51-3.42,1.52-.82,1.02-1.22,2.56-1.22,4.64s.4,3.54,1.22,4.59c.82,1.05,1.96,1.56,3.42,1.56s2.58-.51,3.4-1.56c.82-1.03,1.23-2.56,1.23-4.6s-.4-3.64-1.22-4.64-1.95-1.52-3.41-1.52M599.81,82.28c-2.28,0-4.09-.76-5.42-2.28-1.34-1.52-2.01-3.58-2.01-6.21s.67-4.7,2.01-6.21c1.34-1.53,3.15-2.28,5.42-2.28s4.07.76,5.41,2.28,2.01,3.6,2.01,6.21-.67,4.7-2.01,6.21-3.15,2.28-5.41,2.28M614.15,67.52c.85-.7,1.72-1.25,2.63-1.64.9-.39,1.83-.59,2.78-.59,1.74,0,3.06.52,3.97,1.57s1.37,2.56,1.37,4.52v10.46h-2.71v-9.17c0-.74-.04-1.44-.13-2.08-.08-.64-.24-1.15-.47-1.52-.24-.4-.59-.7-1.03-.9-.46-.2-1.03-.3-1.76-.3s-1.52.19-2.32.55-1.58.83-2.32,1.4v12.03h-2.71v-16.11h2.71v1.79M531.07,78.38v-16.11h16.11v16.11h-16.11M628.35,68.02v-2.28h1.83v-4.63h2.71v4.63h5.6v2.28h-5.6v7.34c0,.85.01,1.5.05,1.99.04.48.17.93.4,1.33.21.39.5.67.87.85s.94.27,1.69.27c.44,0,.9-.07,1.38-.2.48-.13.83-.24,1.03-.32h.15v2.44c-.51.13-1.06.24-1.66.34-.6.08-1.14.13-1.61.13-1.64,0-2.9-.44-3.74-1.33-.86-.89-1.29-2.29-1.29-4.25v-8.56h-1.83M578.46,72.33l5.53-11.96h3.96v21.47h-2.86v-18.49l-5.97,12.59h-1.7l-5.92-12.59v18.49h-2.67v-21.47h3.89l5.72,11.96M641.75,81.84v-22.43h2.71v8.12c.85-.7,1.72-1.25,2.63-1.64.9-.39,1.83-.59,2.78-.59,1.74,0,3.06.52,3.97,1.57s1.37,2.56,1.37,4.52v10.46h-2.71v-9.17c0-.74-.04-1.44-.13-2.08-.08-.64-.24-1.15-.47-1.52-.24-.4-.59-.7-1.03-.9-.46-.2-1.03-.3-1.76-.3s-1.52.19-2.32.55-1.58.83-2.32,1.4v12.03h-2.71M657.78,49.12h-145.5v42.41h145.5v-42.41" style="fill: #fff;"/>
      <path d="M599.81,79.95c-1.46,0-2.6-.52-3.42-1.56-.82-1.05-1.22-2.58-1.22-4.59s.4-3.64,1.22-4.64c.81-1.01,1.96-1.52,3.42-1.52s2.59.51,3.41,1.52c.82,1.02,1.22,2.56,1.22,4.64s-.42,3.57-1.23,4.6-1.96,1.56-3.4,1.56M599.81,65.29c-2.28,0-4.09.76-5.42,2.28-1.34,1.52-2.01,3.6-2.01,6.21s.67,4.7,2.01,6.21,3.15,2.28,5.42,2.28,4.07-.76,5.41-2.28,2.01-3.58,2.01-6.21-.67-4.7-2.01-6.21c-1.34-1.53-3.15-2.28-5.41-2.28M619.56,65.29c-.95,0-1.88.2-2.78.59-.9.39-1.79.94-2.63,1.64v-1.79h-2.71v16.11h2.71v-12.03c.74-.56,1.52-1.03,2.32-1.4s1.58-.55,2.32-.55,1.3.09,1.76.3.79.5,1.03.9c.23.36.39.87.47,1.52s.13,1.34.13,2.08v9.17h2.71v-10.46c0-1.97-.46-3.48-1.37-4.52s-2.24-1.57-3.97-1.57M632.9,61.11h-2.71v4.63h-1.83v2.28h1.83v8.56c0,1.95.43,3.37,1.29,4.25.86.89,2.11,1.33,3.74,1.33.47,0,1.01-.04,1.61-.13.6-.08,1.15-.2,1.66-.34v-2.44h-.15c-.21.08-.56.2-1.03.32-.48.13-.94.2-1.38.2-.77,0-1.33-.09-1.69-.27-.38-.17-.66-.46-.87-.85-.23-.42-.36-.86-.4-1.33-.04-.47-.05-1.14-.05-1.99v-7.34h5.6v-2.28h-5.6v-4.63M587.96,60.38h-3.96l-5.53,11.96-5.72-11.96h-3.89v21.47h2.67v-18.49l5.92,12.59h1.7l5.97-12.59v18.49h2.86v-21.47M644.46,59.42h-2.71v22.43h2.71v-12.03c.74-.56,1.52-1.03,2.32-1.4s1.58-.55,2.32-.55,1.3.09,1.76.3.79.5,1.03.9c.23.36.39.87.47,1.52s.13,1.34.13,2.08v9.17h2.71v-10.46c0-1.97-.46-3.48-1.37-4.52s-2.24-1.57-3.97-1.57c-.95,0-1.88.2-2.78.59-.9.39-1.79.94-2.63,1.64v-8.12" style="fill: #444;"/>
      <polyline points="547.18 62.27 531.07 62.27 531.07 78.38 547.18 78.38 547.18 62.27" style="fill: #a9a9a9;"/>
      <path d="M630.29,108.32c-.43-.07-.74-.11-.95-.13-.21-.03-.55-.04-1.02-.04-.86,0-1.69.17-2.51.54-.82.36-1.77.97-2.85,1.84v-2.38h-2.71v16.11h2.71v-11.43c.72-.59,1.48-1.06,2.25-1.44s1.58-.55,2.42-.55c.52,0,.97.03,1.34.07.38.04.77.11,1.18.21h.15v-2.78M610.13,121.62c-.79.38-1.66.55-2.6.55-1.14,0-2-.23-2.55-.7-.56-.47-.83-1.15-.83-2.08,0-.82.24-1.46.72-1.92.48-.47,1.11-.81,1.89-1.03.66-.19,1.54-.32,2.66-.42,1.11-.09,2.09-.16,2.93-.21v4.48c-.67.52-1.41.97-2.19,1.33M615.03,113.33c0-1.03-.16-1.91-.47-2.6-.32-.7-.78-1.27-1.38-1.72-.62-.46-1.34-.76-2.19-.95s-1.83-.28-2.97-.28c-.97,0-1.96.08-2.95.26-1.01.17-1.76.34-2.3.47v2.75h.15c.93-.35,1.84-.63,2.71-.82s1.66-.28,2.38-.28c.59,0,1.15.04,1.69.12s.99.23,1.38.44c.4.23.71.55.93.95.21.4.32.91.32,1.53v.42c-1.57.08-3.05.19-4.43.35-1.37.15-2.55.44-3.53.89-.97.43-1.72,1.02-2.24,1.79-.52.75-.79,1.74-.79,2.97,0,1.49.51,2.71,1.52,3.68s2.24,1.44,3.69,1.44c.79,0,1.48-.08,2.07-.23s1.1-.34,1.56-.55c.39-.17.78-.4,1.19-.7.4-.3.74-.52.98-.68v1.72h2.7v-10.92M586.54,114.4c.12-1.27.6-2.34,1.46-3.18.86-.86,2.01-1.29,3.46-1.29s2.51.39,3.22,1.17,1.06,1.88,1.07,3.3h-9.22M598.4,115.01c0-2.34-.59-4.13-1.77-5.41s-2.86-1.91-5.02-1.91c-2.35,0-4.24.78-5.68,2.32s-2.16,3.64-2.16,6.27.75,4.71,2.25,6.16,3.58,2.17,6.25,2.17c1.05,0,2.05-.13,2.99-.39.95-.26,1.88-.58,2.79-.97v-2.95h-.15c-.47.43-1.26.86-2.38,1.29-1.11.44-2.21.66-3.31.66-.83,0-1.58-.12-2.27-.35-.68-.23-1.28-.58-1.79-1.03-.52-.47-.93-1.07-1.22-1.81-.3-.74-.44-1.6-.44-2.59h11.86v-1.48M581,102.78l-5.93,9.6-5.86-9.6h-3.15l7.58,12.36v9.11h2.86v-9.41l7.56-12.05h-3.05" style="fill: #444;"/>
      <polyline points="547.18 120.79 531.07 120.79 531.07 104.68 547.18 104.68 547.18 120.79" style="fill: gray;"/>
      <path d="M612.33,115.81c-.83.05-1.8.12-2.93.21-1.11.09-2.01.24-2.66.42-.78.23-1.41.56-1.89,1.03s-.72,1.11-.72,1.92c0,.93.28,1.61.83,2.08.55.47,1.41.7,2.55.7.95,0,1.83-.19,2.6-.55.79-.38,1.52-.82,2.19-1.33v-4.48M591.47,109.93c-1.45,0-2.6.43-3.46,1.29s-1.34,1.92-1.46,3.18h9.22c0-1.42-.36-2.52-1.07-3.3-.71-.78-1.79-1.17-3.22-1.17M622.95,110.52c1.07-.86,2.03-1.48,2.85-1.84.82-.36,1.66-.54,2.51-.54.47,0,.82,0,1.02.04.21.03.52.07.95.13v2.78h-.15c-.4-.09-.79-.16-1.18-.21-.38-.04-.83-.07-1.34-.07-.83,0-1.64.19-2.42.55-.78.38-1.53.85-2.25,1.44v11.43h-2.71v-16.11h2.71v2.38M602.77,111.25v-2.75c.52-.15,1.29-.31,2.3-.47.99-.17,1.99-.26,2.95-.26,1.13,0,2.12.09,2.97.28s1.57.51,2.19.95c.6.44,1.07,1.02,1.38,1.72.32.7.47,1.57.47,2.6v10.92h-2.7v-1.72c-.24.16-.56.39-.98.68-.4.3-.81.52-1.19.7-.46.23-.97.4-1.56.55s-1.28.23-2.07.23c-1.45,0-2.68-.48-3.69-1.44s-1.52-2.19-1.52-3.68c0-1.22.26-2.21.79-2.97.52-.75,1.28-1.34,2.24-1.79.98-.43,2.16-.72,3.53-.89,1.37-.15,2.85-.27,4.43-.35v-.42c0-.62-.11-1.13-.32-1.53s-.52-.72-.93-.95c-.39-.23-.85-.38-1.38-.44-.54-.08-1.1-.12-1.69-.12-.71,0-1.5.09-2.38.28s-1.79.46-2.71.82h-.15M592.3,124.63c-2.67,0-4.75-.72-6.25-2.17s-2.25-3.5-2.25-6.16.72-4.72,2.16-6.27,3.33-2.32,5.68-2.32c2.17,0,3.85.63,5.02,1.91,1.18,1.27,1.77,3.07,1.77,5.41v1.48h-11.86c0,.99.15,1.85.44,2.59.3.74.71,1.34,1.22,1.81.5.46,1.09.81,1.79,1.03.68.23,1.45.35,2.27.35,1.1,0,2.2-.21,3.31-.66,1.11-.44,1.91-.87,2.38-1.29h.15v2.95c-.91.39-1.85.71-2.79.97-.95.26-1.95.39-2.99.39M531.07,120.79v-16.11h16.11v16.11h-16.11M584.04,102.78h0l-7.56,12.05v9.41h-2.86v-9.11l-7.58-12.36h3.15l5.86,9.6,5.93-9.6h3.05M657.78,91.53h-145.5v42.41h145.5v-42.41" style="fill: #fff;"/>
      <path d="M628.32,108.15c-.86,0-1.69.17-2.51.54-.82.36-1.77.97-2.85,1.84v-2.38h-2.71v16.11h2.71v-11.43c.72-.59,1.48-1.06,2.25-1.44s1.58-.55,2.42-.55c.52,0,.97.03,1.34.07.38.04.77.11,1.18.21h.15v-2.78c-.43-.07-.74-.11-.95-.13-.21-.03-.55-.04-1.02-.04M607.53,122.17c-1.14,0-2-.23-2.55-.7-.56-.47-.83-1.15-.83-2.08,0-.82.24-1.46.72-1.92.48-.47,1.11-.81,1.89-1.03.66-.19,1.54-.32,2.66-.42,1.11-.09,2.09-.16,2.93-.21v4.48c-.67.52-1.41.97-2.19,1.33-.79.38-1.66.55-2.6.55M608.01,107.76c-.97,0-1.96.08-2.95.26-1.01.17-1.76.34-2.3.47v2.75h.15c.93-.35,1.84-.63,2.71-.82s1.66-.28,2.38-.28c.59,0,1.15.04,1.69.12s.99.23,1.38.44c.4.23.71.55.93.95.21.4.32.91.32,1.53v.42c-1.57.08-3.05.19-4.43.35-1.37.15-2.55.44-3.53.89-.97.43-1.72,1.02-2.24,1.79-.52.75-.79,1.74-.79,2.97,0,1.49.51,2.71,1.52,3.68s2.24,1.44,3.69,1.44c.79,0,1.48-.08,2.07-.23s1.1-.34,1.56-.55c.39-.17.78-.4,1.19-.7.4-.3.74-.52.98-.68v1.72h2.7v-10.92c0-1.03-.16-1.91-.47-2.6-.32-.7-.78-1.27-1.38-1.72-.62-.46-1.34-.76-2.19-.95s-1.83-.28-2.97-.28M586.54,114.4c.12-1.27.6-2.34,1.46-3.18.86-.86,2.01-1.29,3.46-1.29s2.51.39,3.22,1.17,1.06,1.88,1.07,3.3h-9.22M591.61,107.7c-2.35,0-4.24.78-5.68,2.32s-2.16,3.64-2.16,6.27.75,4.71,2.25,6.16,3.58,2.17,6.25,2.17c1.05,0,2.05-.13,2.99-.39.95-.26,1.88-.58,2.79-.97v-2.95h-.15c-.47.43-1.26.86-2.38,1.29-1.11.44-2.21.66-3.31.66-.83,0-1.58-.12-2.27-.35-.68-.23-1.28-.58-1.79-1.03-.52-.47-.93-1.07-1.22-1.81-.3-.74-.44-1.6-.44-2.59h11.86v-1.48c0-2.34-.59-4.13-1.77-5.41s-2.86-1.91-5.02-1.91M584.04,102.78h-3.05l-5.93,9.6-5.86-9.6h-3.15l7.58,12.36v9.11h2.86v-9.41l7.56-12.05" style="fill: #444;"/>
      <polyline points="547.18 104.68 531.07 104.68 531.07 120.79 547.18 120.79 547.18 104.68" style="fill: gray;"/>
    </g>
  </g>
  <path d="M25.95,158.47v.19c.12.28.25.73.43,1.35.16.62.25,1.23.25,1.81,0,.99-.12,1.74-.36,2.21-.24.49-.59.86-1.1,1.14-.53.3-1.13.47-1.74.53-.62.04-1.48.07-2.6.07h-9.59v-7.32h-2.98v7.32H2.21v3.55h6.06v2.39h2.98v-2.39h11.19c2.55,0,4.41-.56,5.57-1.68s1.74-2.75,1.74-4.9c0-.61-.06-1.32-.16-2.11s-.25-1.51-.43-2.18h-3.21ZM15.66,176.22c-2.58,0-4.54.59-5.92,1.8s-2.05,2.92-2.05,5.2c0,1.25.25,2.45.77,3.64s1.23,2.33,2.15,3.43h-2.33v3.55h21.05v-3.55h-15.72c-.74-.96-1.35-1.97-1.83-3.03s-.71-2.06-.71-3.03.13-1.71.39-2.3c.25-.59.65-1.04,1.17-1.35.47-.3,1.14-.5,1.99-.62s1.75-.16,2.72-.16h11.98v-3.55h-13.66ZM8.28,200.78v3.55h15.72c.74.94,1.35,1.96,1.83,3.04s.71,2.09.71,3c0,1.02-.12,1.81-.37,2.36s-.65.98-1.2,1.32c-.53.33-1.19.53-1.94.64-.76.1-1.68.15-2.75.15h-11.98v3.55h13.66c2.61,0,4.6-.61,5.95-1.84s2.02-2.95,2.02-5.17c0-1.32-.25-2.52-.76-3.62s-1.23-2.24-2.17-3.43h2.33v-3.55H8.28ZM24.83,228.99c1.35,1.07,2.02,2.55,2.02,4.44s-.68,3.4-2.05,4.47c-1.37,1.07-3.37,1.6-6,1.6s-4.75-.53-6.07-1.59c-1.32-1.07-1.99-2.55-1.99-4.48s.67-3.38,1.99-4.45,3.35-1.6,6.07-1.6,4.68.53,6.03,1.62h0ZM10.67,226.36c-1.99,1.77-2.98,4.11-2.98,7.07s.99,5.34,2.98,7.09,4.71,2.63,8.13,2.63,6.13-.88,8.12-2.63,2.98-4.11,2.98-7.09-.99-5.31-2.98-7.07-4.69-2.64-8.12-2.64-6.14.88-8.13,2.64ZM24.11,246.2v.19c.21.27.47.62.76,1.07.3.45.58.94.83,1.45.3.59.55,1.26.74,2s.28,1.47.28,2.18c0,2.06-.68,3.65-2.05,4.79-1.37,1.14-3.31,1.71-5.85,1.71s-4.6-.58-5.94-1.74c-1.35-1.16-2.03-2.75-2.03-4.76,0-1.1.22-2.21.68-3.37s1.1-2.27,1.94-3.34v-.19h-3.93c-.49.96-.91,2.03-1.25,3.19s-.5,2.35-.5,3.55c0,3.1.98,5.6,2.94,7.5s4.66,2.84,8.1,2.84c1.84,0,3.46-.25,4.84-.76s2.52-1.22,3.43-2.12c.91-.91,1.57-1.99,2.03-3.27.45-1.26.67-2.66.67-4.19,0-1.19-.16-2.32-.47-3.38s-.76-2.18-1.32-3.37h-3.9,0ZM16.46,296.21c-1.66-.15-3.04-.79-4.17-1.91s-1.68-2.64-1.68-4.53.5-3.3,1.53-4.22,2.45-1.4,4.32-1.41v12.05h0ZM17.25,280.7c-3.06,0-5.4.77-7.07,2.32s-2.49,3.73-2.49,6.56c0,3.06,1.01,5.54,3.03,7.42s4.75,2.82,8.19,2.82,6.16-.98,8.06-2.94c1.89-1.96,2.84-4.69,2.84-8.18,0-1.37-.16-2.67-.5-3.92s-.76-2.46-1.26-3.65h-3.86v.19c.55.61,1.11,1.65,1.69,3.1s.86,2.89.86,4.32c0,1.08-.15,2.06-.45,2.97s-.76,1.68-1.35,2.33c-.62.68-1.41,1.22-2.36,1.6-.96.39-2.09.58-3.38.58v-15.51h-1.94ZM25.87,311.72c.45,1.02.67,2.05.67,3.06,0,1.89-.65,3.25-1.94,4.11-1.31.86-3.21,1.28-5.7,1.28s-4.5-.55-5.88-1.66-2.08-2.66-2.08-4.63c0-.89.07-1.72.25-2.46s.46-1.6.89-2.57h12.08c.7.89,1.28,1.86,1.72,2.88h-.01ZM0,305.29v3.55h9.11c-.49.94-.85,1.84-1.08,2.7s-.34,1.84-.34,2.94c0,1.22.25,2.39.76,3.53s1.23,2.14,2.18,2.98c.98.86,2.17,1.56,3.56,2.06s2.98.76,4.76.76c3.43,0,6.12-.74,8.04-2.21s2.91-3.47,2.91-5.98c0-1.29-.25-2.49-.74-3.59s-1.17-2.17-2.05-3.19h2.21v-3.55H0ZM25.89,335.57c.49,1.02.73,2.17.73,3.41,0,1.5-.31,2.61-.92,3.34s-1.51,1.1-2.72,1.1c-1.07,0-1.9-.31-2.51-.94s-1.05-1.45-1.35-2.46c-.24-.86-.42-2.02-.55-3.47s-.22-2.73-.28-3.81h5.86c.68.88,1.26,1.84,1.74,2.86v-.03ZM15.04,329.19c-1.35,0-2.49.21-3.41.62s-1.66,1.02-2.24,1.81c-.59.8-1.01,1.75-1.25,2.85-.25,1.1-.37,2.39-.37,3.87,0,1.26.12,2.55.34,3.86s.43,2.3.62,3h3.59v-.19c-.46-1.22-.82-2.4-1.07-3.55-.25-1.14-.37-2.18-.37-3.1,0-.77.04-1.5.15-2.21s.3-1.31.58-1.81c.3-.53.71-.94,1.25-1.22s1.19-.43,2-.43h.55c.1,2.06.25,3.99.45,5.79s.58,3.34,1.14,4.62c.56,1.26,1.34,2.24,2.33,2.92s2.27,1.02,3.87,1.02c1.94,0,3.55-.65,4.81-1.97s1.89-2.92,1.89-4.82c0-1.02-.1-1.93-.3-2.7-.19-.77-.43-1.44-.73-2.03-.22-.5-.53-1.02-.92-1.56s-.68-.96-.89-1.28h2.24v-3.52h-14.28v.03ZM0,352.55v3.55h29.31v-3.55H0ZM22.92,361.13v.27c1.23,1.37,2.15,2.84,2.78,4.41s.92,3.25.92,5.05c0,1.31-.22,2.55-.67,3.73s-1.13,2.2-2.06,3.09c-.89.85-2.05,1.53-3.47,2.06s-3.12.8-5.09.8-3.55-.24-4.99-.73-2.63-1.16-3.58-2.02c-.96-.89-1.68-1.9-2.14-3.04-.46-1.14-.68-2.42-.68-3.83,0-1.74.3-3.35.89-4.88s1.53-3.06,2.82-4.6v-.28H3.22c-.92,1.84-1.56,3.5-1.91,5s-.55,3-.55,4.51c0,2.06.33,3.93.96,5.63s1.57,3.13,2.79,4.32c1.26,1.23,2.79,2.17,4.62,2.82s3.89.98,6.2.98c2.43,0,4.57-.34,6.41-1.02s3.35-1.62,4.56-2.82c1.22-1.23,2.11-2.67,2.69-4.35.56-1.66.86-3.52.86-5.55,0-1.08-.09-2.06-.25-2.97-.18-.89-.37-1.74-.61-2.49-.28-.91-.56-1.63-.83-2.2s-.55-1.19-.85-1.87h-4.39Z" style="fill: #444;"/>
  <path d="M253.71,469.04c-.39-.08-.82-.14-1.29-.19s-1-.08-1.59-.08c-1.74,0-3.07.49-3.99,1.48-.92.99-1.38,2.42-1.38,4.26v.52h-1.77v2.21h1.77v13.38h2.62v-13.38h4.65v-2.21h-4.73v-.53c0-1.3.25-2.21.77-2.7.51-.49,1.33-.74,2.46-.74.35,0,.77.04,1.23.13.47.09.84.17,1.13.26h.14v-2.4h-.04ZM242.84,475.2c-.42-.06-.71-.1-.92-.13-.21-.03-.53-.04-.99-.04-.83,0-1.64.17-2.43.52s-1.72.94-2.75,1.78v-2.3h-2.62v15.59h2.62v-11.07c.7-.57,1.43-1.03,2.18-1.39s1.53-.53,2.34-.53c.51,0,.94.03,1.3.06s.74.1,1.14.21h.14v-2.69h-.01ZM225.16,487.29c-.79,1-1.9,1.51-3.29,1.51s-2.52-.51-3.31-1.52-1.18-2.49-1.18-4.44.39-3.52,1.18-4.5c.78-.97,1.9-1.47,3.31-1.47s2.51.49,3.3,1.47c.79.99,1.18,2.48,1.18,4.5s-.4,3.46-1.2,4.46h0ZM227.11,476.81c-1.3-1.48-3.05-2.21-5.24-2.21s-3.96.74-5.25,2.21c-1.3,1.47-1.95,3.48-1.95,6.02s.65,4.55,1.95,6.02,3.05,2.21,5.25,2.21,3.94-.74,5.24-2.21,1.95-3.47,1.95-6.02-.65-4.55-1.95-6.02ZM205.84,488.06c-.77.32-1.52.49-2.26.49-1.39,0-2.4-.48-3.04-1.44-.64-.96-.95-2.38-.95-4.22s.4-3.33,1.23-4.35c.82-1.03,1.96-1.53,3.43-1.53.66,0,1.27.06,1.83.18s1.2.34,1.9.65v8.95c-.66.52-1.38.95-2.13,1.27h-.01ZM210.61,468.91h-2.62v6.76c-.7-.36-1.36-.64-2-.81-.64-.17-1.36-.26-2.18-.26-.9,0-1.78.18-2.61.56-.84.38-1.59.91-2.21,1.62-.64.73-1.16,1.61-1.53,2.64s-.57,2.21-.57,3.53c0,2.55.55,4.52,1.64,5.96,1.09,1.43,2.57,2.14,4.43,2.14.96,0,1.85-.18,2.66-.55s1.61-.87,2.36-1.52v1.64h2.62v-21.71h.01ZM192.76,468.91h-2.62v21.71h2.62v-21.71ZM174.65,481.08c.12-1.23.58-2.26,1.42-3.08.83-.83,1.95-1.25,3.35-1.25s2.43.38,3.12,1.13,1.03,1.82,1.04,3.2h-8.94.01ZM186.14,481.67c0-2.26-.57-4-1.72-5.24s-2.77-1.85-4.86-1.85c-2.27,0-4.11.75-5.5,2.25-1.39,1.49-2.09,3.52-2.09,6.07s.73,4.56,2.18,5.96,3.47,2.11,6.06,2.11c1.01,0,1.99-.13,2.9-.38s1.82-.56,2.7-.94v-2.86h-.14c-.45.42-1.22.83-2.3,1.25-1.08.43-2.14.64-3.21.64-.81,0-1.53-.12-2.2-.34-.66-.22-1.23-.56-1.73-1-.51-.45-.9-1.04-1.18-1.75-.29-.71-.43-1.55-.43-2.51h11.49v-1.43h.03ZM168.34,483.4c-.66-.68-1.6-1.16-2.82-1.44-.4-.09-.9-.19-1.49-.31s-1.14-.22-1.62-.34c-.87-.21-1.51-.47-1.9-.79-.4-.32-.6-.81-.6-1.46,0-.73.32-1.27.99-1.64s1.47-.55,2.43-.55,1.86.17,2.82.51,1.77.75,2.44,1.25h.14v-2.81c-.64-.32-1.43-.6-2.38-.83-.95-.23-1.9-.34-2.83-.34-1,0-1.9.13-2.7.38-.81.26-1.47.6-1.99,1.04-.55.44-.95.95-1.21,1.52s-.4,1.17-.4,1.82c0,1.03.29,1.88.86,2.59.57.7,1.55,1.23,2.91,1.6.49.13,1.04.25,1.64.36s1.09.21,1.46.3c1,.22,1.69.49,2.04.81s.53.78.53,1.39c0,.81-.32,1.39-.97,1.75-.65.38-1.56.56-2.7.56-.94,0-1.9-.18-2.92-.55-1.01-.36-1.94-.87-2.77-1.48h-.14v2.95c.65.32,1.46.62,2.42.9s2.03.42,3.17.42c2.04,0,3.65-.45,4.82-1.36,1.18-.91,1.77-2.08,1.77-3.51,0-1.13-.32-2.05-.99-2.74h.01ZM153.45,483.4c-.66-.68-1.6-1.16-2.82-1.44-.4-.09-.9-.19-1.49-.31s-1.14-.22-1.62-.34c-.87-.21-1.51-.47-1.9-.79-.4-.32-.6-.81-.6-1.46,0-.73.32-1.27.99-1.64s1.47-.55,2.43-.55,1.86.17,2.82.51,1.77.75,2.44,1.25h.14v-2.81c-.64-.32-1.43-.6-2.38-.83-.95-.23-1.9-.34-2.83-.34-1,0-1.9.13-2.7.38-.81.26-1.47.6-1.99,1.04-.55.44-.95.95-1.21,1.52s-.4,1.17-.4,1.82c0,1.03.29,1.88.86,2.59.57.7,1.55,1.23,2.91,1.6.49.13,1.04.25,1.64.36s1.09.21,1.46.3c1,.22,1.69.49,2.04.81s.53.78.53,1.39c0,.81-.32,1.39-.97,1.75-.65.38-1.56.56-2.7.56-.94,0-1.9-.18-2.92-.55-1.01-.36-1.94-.87-2.77-1.48h-.14v2.95c.65.32,1.46.62,2.42.9s2.03.42,3.17.42c2.04,0,3.65-.45,4.82-1.36,1.18-.91,1.77-2.08,1.77-3.51,0-1.13-.32-2.05-.99-2.74h.01ZM130.19,469.7h-2.78v2.72h2.78v-2.72ZM135.96,469.7h-2.78v2.72h2.78v-2.72ZM138.13,475.03h-2.62v11.64c-.7.55-1.46,1-2.25,1.35-.81.35-1.55.53-2.22.53-.77,0-1.35-.09-1.74-.27-.4-.18-.73-.48-.97-.9-.25-.4-.4-.88-.48-1.44s-.12-1.25-.12-2.03v-8.87h-2.62v10.12c0,1.94.45,3.4,1.36,4.4.91,1,2.18,1.51,3.82,1.51.97,0,1.87-.18,2.68-.56s1.65-.91,2.55-1.61v1.73h2.62v-15.59h0ZM117.28,484.25c-.52,1.08-1.29,1.95-2.33,2.61-.83.53-1.74.9-2.73,1.09s-2.16.3-3.48.3h-2.6v-16.03h2.6c1.29,0,2.39.09,3.31.27.92.18,1.79.51,2.61.97,1.13.64,1.98,1.52,2.55,2.64s.86,2.49.86,4.12-.26,2.96-.78,4.05v-.03ZM119.77,475.01c-.79-1.47-1.9-2.65-3.31-3.53-.83-.51-1.85-.91-3.04-1.21-1.2-.3-2.81-.44-4.83-.44h-5.2v20.79h5.25c1.91,0,3.44-.13,4.61-.39,1.17-.26,2.22-.69,3.17-1.27,1.36-.84,2.47-2.04,3.29-3.57s1.23-3.25,1.23-5.13c0-2.01-.39-3.77-1.18-5.24h.01Z" style="fill: #444;"/>
  <path d="M347.3,467.17l-4.7,18.89-4.7-18.89h-3.04l-4.66,18.71-4.73-18.71h-3.07l5.95,22.51h3.29l4.63-18.68,4.73,18.68h3.38l5.85-22.51h-2.94ZM313.81,475.6c-.21.55-.55,1.04-1,1.46-.49.45-1.1.76-1.8.93s-1.53.25-2.48.25h-3.02v-8.5h3.52c.8,0,1.51.06,2.1.17.59.11,1.11.32,1.55.6.52.34.9.76,1.13,1.27.23.49.34,1.07.34,1.72,0,.84-.11,1.55-.32,2.1h0ZM312.67,479.85c1.43-.55,2.56-1.38,3.38-2.48s1.22-2.45,1.22-4.07c0-1.2-.23-2.19-.69-2.97s-1.1-1.42-1.91-1.94c-.73-.45-1.55-.77-2.45-.94-.9-.18-2.04-.27-3.4-.27h-6.3v22.51h3v-8.95h4.22l7.53,8.95h3.88l-8.47-9.83h0ZM296.54,467.17h-2.8v18.37l-9.74-18.37h-4.64v22.51h2.8v-20.13l10.66,20.13h3.7v-22.51h.01Z" style="fill: #444;"/>
  <path d="M514.21,473.23l-5.06,12.1-5.01-12.1h-2.98l6.5,15.54-3.03,6.82h2.94l9.52-22.34h-2.88ZM497.98,478.95c0-2-.46-3.52-1.39-4.59s-2.27-1.59-4.03-1.59c-.97,0-1.9.2-2.82.6-.91.39-1.81.95-2.67,1.66v-1.81h-2.75v16.33h2.75v-12.19c.75-.57,1.54-1.05,2.35-1.42.82-.37,1.61-.56,2.35-.56s1.32.1,1.78.3.8.5,1.05.91c.23.37.39.88.48,1.54s.14,1.36.14,2.11v9.29h2.75v-10.6h0ZM474.08,486.89c-.8.38-1.69.56-2.64.56-1.16,0-2.03-.23-2.59-.71-.57-.48-.84-1.17-.84-2.11,0-.83.24-1.48.73-1.95.49-.48,1.13-.82,1.92-1.05.67-.19,1.56-.33,2.69-.42,1.13-.1,2.12-.16,2.97-.22v4.54c-.68.53-1.43.98-2.22,1.35h-.03ZM479.04,478.48c0-1.05-.16-1.93-.48-2.64s-.79-1.29-1.4-1.74c-.63-.46-1.36-.78-2.22-.97-.86-.19-1.85-.29-3.01-.29-.98,0-1.99.08-2.99.26-1.02.18-1.78.34-2.33.48v2.79h.15c.94-.35,1.86-.64,2.75-.83.88-.19,1.69-.29,2.41-.29.6,0,1.17.04,1.71.12.54.08,1.01.23,1.4.45.41.23.72.56.94.97s.33.93.33,1.55v.42c-1.59.08-3.09.19-4.49.35-1.39.15-2.59.45-3.58.9-.98.44-1.74,1.03-2.27,1.81-.53.76-.8,1.77-.8,3.01,0,1.51.52,2.75,1.54,3.73s2.27,1.46,3.74,1.46c.8,0,1.5-.08,2.1-.23.6-.15,1.12-.34,1.58-.56.39-.18.79-.41,1.21-.71.41-.3.75-.53.99-.69v1.74h2.73v-11.08h-.01ZM461.05,478.95c0-1.95-.42-3.47-1.28-4.56-.86-1.09-2.18-1.63-3.97-1.63-1.05,0-2.03.2-2.94.63-.91.41-1.93,1.09-3.03,2.03-.38-.83-.95-1.47-1.73-1.95s-1.71-.71-2.83-.71c-.97,0-1.88.2-2.72.6-.86.39-1.71.95-2.57,1.66v-1.81h-2.75v16.33h2.75v-12.19c.75-.57,1.5-1.05,2.26-1.42.75-.37,1.51-.56,2.26-.56.79,0,1.39.11,1.81.31.42.2.73.52.97.94.2.39.34.91.41,1.55.07.65.1,1.33.1,2.05v9.29h2.75v-10.45c0-.29,0-.59-.03-.88-.01-.3-.04-.56-.07-.79.78-.6,1.54-1.09,2.31-1.47s1.54-.57,2.31-.57,1.39.11,1.81.33.73.53.97.95c.2.39.34.91.41,1.56.07.65.1,1.33.1,2.03v9.29h2.75v-10.6l-.03.03ZM434.64,473.4c-.44-.07-.75-.11-.97-.14-.22-.03-.56-.04-1.03-.04-.87,0-1.71.18-2.54.54s-1.8.98-2.88,1.86v-2.41h-2.75v16.33h2.75v-11.59c.73-.6,1.5-1.07,2.29-1.46s1.61-.56,2.45-.56c.53,0,.98.03,1.36.07s.78.11,1.2.22h.15v-2.82h-.01ZM408.26,479.57c.12-1.29.61-2.37,1.48-3.22.87-.87,2.04-1.31,3.51-1.31s2.54.39,3.27,1.18,1.07,1.9,1.09,3.35h-9.36.01ZM420.29,480.18c0-2.37-.6-4.19-1.8-5.48s-2.9-1.93-5.09-1.93c-2.38,0-4.3.79-5.76,2.35-1.46,1.56-2.19,3.69-2.19,6.35s.76,4.78,2.29,6.25,3.63,2.2,6.34,2.2c1.06,0,2.08-.14,3.03-.39s1.9-.59,2.83-.98v-2.99h-.15c-.48.44-1.28.87-2.41,1.31-1.13.45-2.24.67-3.36.67-.84,0-1.61-.12-2.3-.35s-1.29-.59-1.81-1.05c-.53-.48-.94-1.09-1.24-1.84-.3-.75-.45-1.62-.45-2.63h12.03v-1.5h.03ZM401.79,478.6h-8.69v2.54h5.84v5.33c-.71.29-1.52.53-2.45.72-.93.19-1.86.27-2.8.27-2.56,0-4.57-.78-6.05-2.34-1.48-1.56-2.22-3.76-2.22-6.57,0-2.67.71-4.79,2.12-6.35,1.42-1.56,3.35-2.34,5.78-2.34,1.07,0,2.05.1,2.9.3.86.2,1.62.45,2.29.75.56.26,1.12.57,1.7.95.57.38,1.01.68,1.32.93h.26v-3.43c-1.5-.71-2.88-1.21-4.18-1.51-1.29-.3-2.56-.45-3.8-.45-3.55,0-6.34,1.01-8.37,3.02s-3.05,4.76-3.05,8.23c0,1.9.27,3.56.82,4.98s1.32,2.6,2.33,3.54c.99.94,2.19,1.63,3.61,2.11,1.42.46,2.97.71,4.67.71,1.32,0,2.68-.2,4.08-.61,1.4-.41,2.71-.88,3.89-1.43v-9.33h.01Z" style="fill: #444;"/>
</svg>