<?xml version="1.0" encoding="UTF-8"?>
<svg id="Layer_1" data-name="Layer 1" xmlns="http://www.w3.org/2000/svg" width="1000" height="800.05" xmlns:xlink="http://www.w3.org/1999/xlink" viewBox="0 0 1000 800.05">
  <defs>
    <clipPath id="clippath">
      <polyline points="120 .05 1000 .05 1000 700.05 120 700.05 120 .05" style="fill: none;"/>
    </clipPath>
    <clipPath id="clippath-1">
      <path d="M251.27,428.36h-71.87v56.1h71.87v-56.1M251.27,345.14h-71.87v82.22h71.87v-44.44h-71.87,71.87v-37.78M251.27,261.92h-71.87v82.22h71.87v-82.22M215.33,178.69h0v4.08h-35.93v78.15h71.87v-78.15h-35.94v-4.08M215.33,106.62h0v71.07-71.07M215.33,106.62h-17.96,17.96M233.3,106.62h-17.97,17.97" style="fill: none;"/>
    </clipPath>
    <clipPath id="clippath-2">
      <polyline points="164 .05 438 .05 438 94.05 164 94.05 164 .05" style="fill: none;"/>
    </clipPath>
  </defs>
  <polyline points="0 .05 1000 .05 1000 800.05 0 800.05 0 .05" style="fill: #fff;"/>
  <polyline points="120 678.03 1000 678.03 1000 677.03 120 677.03" style="fill: #eee;"/>
  <polyline points="120 594.81 1000 594.81 1000 593.81 120 593.81 120 594.81" style="fill: #eee;"/>
  <polyline points="120 511.59 1000 511.59 1000 510.59 120 510.59 120 511.59" style="fill: #eee;"/>
  <polyline points="120 428.36 1000 428.36 1000 427.36 120 427.36 120 428.36" style="fill: #eee;"/>
  <polyline points="120 345.14 1000 345.14 1000 344.14 120 344.14 120 345.14" style="fill: #eee;"/>
  <polyline points="120 261.92 1000 261.92 1000 260.92 120 260.92 120 261.92" style="fill: #eee;"/>
  <polyline points="120 178.69 1000 178.69 1000 177.69 120 177.69 120 178.69" style="fill: #eee;"/>
  <polyline points="120 95.47 1000 95.47 1000 94.47 120 94.47 120 95.47" style="fill: #eee;"/>
  <polyline points="120 12.25 1000 12.25 1000 11.25 120 11.25 120 12.25" style="fill: #eee;"/>
  <g style="clip-path: url(#clippath);">
    <g style="clip-path: url(#clippath-1);">
      <rect x="179.4" y="106.62" width="71.87" height="377.84" style="fill: #d5b1fc;"/>
    </g>
    <polyline points="251.27 427.36 179.4 427.36 179.4 428.36 251.27 428.36 251.27 427.36" style="fill: #cca8f4;"/>
    <polyline points="251.27 344.14 179.4 344.14 179.4 345.14 251.27 345.14 251.27 344.14" style="fill: #cca8f4;"/>
    <polyline points="251.27 260.92 179.4 260.92 179.4 261.92 251.27 261.92 251.27 260.92" style="fill: #cca8f4;"/>
    <path d="M179.4,383.92h71.87v-2h-71.87v2ZM179.4,484.46v1h72.87V181.77h-73.87v303.69h1v-1h1V183.77h69.87v299.69h-70.87v1h1-1ZM214.33,484.46v164.78h2v-164.78h-2ZM216.33,182.77v-76.15h-2v76.15h2ZM197.37,650.24h35.93v-2h-35.93v2ZM197.37,107.62h35.93v-2h-35.93v2Z" style="fill: #ab63fa;"/>
    <path d="M544.6,345.14h-71.87v37.37h71.87v-37.37M544.6,261.92h-71.87v82.22h71.87v-29.88h-71.87,71.87v-52.34M508.67,178.69h0v4.5h-35.94v77.73h71.87v-77.73h-35.93v-4.5M508.67,95.47h0v82.22-82.22M508.67,35.05h0v59.42-59.42M508.67,35.05h-17.97,17.97M526.63,35.05h-17.96,17.96" style="fill: #d5b1fc;"/>
    <polyline points="544.6 344.14 472.73 344.14 472.73 345.14 544.6 345.14 544.6 344.14" style="fill: #cca8f4;"/>
    <polyline points="544.6 260.92 472.73 260.92 472.73 261.92 544.6 261.92 544.6 260.92" style="fill: #cca8f4;"/>
    <path d="M472.73,315.26h71.87v-2h-71.87v2ZM472.73,382.51v1h72.87v-201.32h-73.87v201.32h1v-1h1v-198.32h69.87v197.32h-70.87s0,1,0,1h1-1ZM507.67,382.51v201.81h2v-201.81h-2ZM509.67,183.19V35.05h-2v148.14h2ZM490.7,585.32h35.93v-2h-35.93v2ZM490.7,36.05h35.93v-2h-35.93v2Z" style="fill: #ab63fa;"/>
    <path d="M837.93,428.36h-71.86v54.01h71.86v-54.01M837.93,345.14h-71.86v82.22h71.86v-66.07h-71.86,71.86v-16.15M837.93,261.92h-71.86v82.22h71.86v-82.22M802,178.69h0v64.83h-35.93v17.4h71.86v-17.4h-35.93v-64.83M802,95.47h0v82.22-82.22M802,50.86h0v43.61-43.61M802,50.86h-17.97,17.97M819.97,50.86h-17.97,17.97" style="fill: #d5b1fc;"/>
    <polyline points="837.93 427.36 766.07 427.36 766.07 428.36 837.93 428.36 837.93 427.36" style="fill: #cca8f4;"/>
    <polyline points="837.93 344.14 766.07 344.14 766.07 345.14 837.93 345.14 837.93 344.14" style="fill: #cca8f4;"/>
    <polyline points="837.93 260.92 766.07 260.92 766.07 261.92 837.93 261.92 837.93 260.92" style="fill: #cca8f4;"/>
    <path d="M766.07,362.29h71.86v-2h-71.86v2ZM766.07,482.37v1h72.86v-240.85h-73.86v240.85h1v-1h1v-237.85h69.86v236.85h-70.86v1h1-1ZM801,482.37v59.51h2v-59.51h-2ZM803,243.52V50.86h-2v192.66h2ZM784.03,542.88h35.94v-2h-35.94v2ZM784.03,51.86h35.94v-2h-35.94v2Z" style="fill: #ab63fa;"/>
    <path d="M353.93,511.59h-71.86v70.65h71.86v-69.07h-71.86,71.86v-1.58M353.93,428.36h-71.86v82.23h71.86v-82.23M353.93,345.14h-71.86v82.22h71.86v-82.22M318,261.92h0v82.22-82.22M318,178.69h0v82.23-82.23M318,120.77h0v56.92-56.92M318,120.77h-17.97,17.97M335.97,120.77h-17.97,17.97" style="fill: #ffd0ac;"/>
    <polyline points="353.93 510.59 282.07 510.59 282.07 511.59 353.93 511.59 353.93 510.59" style="fill: #f7c7a4;"/>
    <polyline points="353.93 427.36 282.07 427.36 282.07 428.36 353.93 428.36 353.93 427.36" style="fill: #f7c7a4;"/>
    <polyline points="318 344.14 318 344.14 318 344.64 282.07 344.64 282.07 345.14 353.93 345.14 353.93 344.64 318 344.64 318 344.14" style="fill: #f7c7a4;"/>
    <path d="M282.07,514.17h71.86v-2h-71.86v2ZM282.07,582.24v1h72.86v-239.6h-73.86v239.6h1v-1h1v-236.6h69.86v235.6s-70.86,0-70.86,0v1h1-1ZM317,582.24v82.81h2v-82.81h-2ZM319,344.64V120.77h-2v223.87h2ZM300.03,666.05h35.94v-2h-35.94v2ZM300.03,121.77h35.94v-2h-35.94v2Z" style="fill: #ffa15a;"/>
    <path d="M647.27,511.59h-71.87v13.23h71.87v-13.23M647.27,428.36h-71.87v82.23h71.87v-44.03h-71.87,71.87v-38.2M647.27,345.14h-71.87v82.22h71.87v-82.22M611.33,261.92h0v79.39h-35.93v2.83h71.87v-2.83h-35.94v-79.39M611.33,188.18h0v72.74-72.74M611.33,188.18h-17.96,17.96M629.3,188.18h-17.97,17.97" style="fill: #ffd0ac;"/>
    <polyline points="647.27 510.59 575.4 510.59 575.4 511.59 647.27 511.59 647.27 510.59" style="fill: #f7c7a4;"/>
    <polyline points="647.27 427.36 575.4 427.36 575.4 428.36 647.27 428.36 647.27 427.36" style="fill: #f7c7a4;"/>
    <polyline points="647.27 344.14 575.4 344.14 575.4 345.14 647.27 345.14 647.27 344.14" style="fill: #f7c7a4;"/>
    <path d="M575.4,467.56h71.87v-2h-71.87v2ZM575.4,524.82v1h72.87v-185.51h-73.87v185.51h1v-1h1v-182.51h69.87v181.51h-70.87v1h1-1ZM610.33,524.82v120.26h2v-120.26h-2ZM612.33,341.31v-153.13h-2v153.13h2ZM593.37,646.08h35.93v-2h-35.93v2ZM593.37,189.18h35.93v-2h-35.93v2Z" style="fill: #ffa15a;"/>
    <path d="M940.6,511.59h-71.87v44.85h71.87v-44.85M940.6,428.36h-71.87v82.23h71.87v-20.72h-71.87,71.87v-61.51M904.67,345.14h0v19.06h-35.94v63.16h71.87v-63.16h-35.93v-19.06M904.67,261.92h0v82.22-82.22M904.67,216.48h0v44.44-44.44M904.67,216.48h-17.97,17.97M922.63,216.48h-17.96,17.96" style="fill: #ffd0ac;"/>
    <polyline points="940.6 510.59 868.73 510.59 868.73 511.59 940.6 511.59 940.6 510.59" style="fill: #f7c7a4;"/>
    <polyline points="940.6 427.36 868.73 427.36 868.73 428.36 940.6 428.36 940.6 427.36" style="fill: #f7c7a4;"/>
    <path d="M868.73,490.87h71.87v-2h-71.87v2ZM868.73,556.44v1h72.87v-194.24h-73.87v194.24h1v-1h1v-191.24h69.87v190.24h-70.87v1h1-1ZM903.67,556.44v95.29h2v-95.29h-2ZM905.67,364.2v-147.72h-2v147.72h2ZM886.7,652.73h35.93v-2h-35.93v2ZM886.7,217.48h35.93v-2h-35.93v2Z" style="fill: #ffa15a;"/>
  </g>
  <path d="M297.58,728.52c-.61.38-1.37.57-2.29.57-.98,0-1.76-.2-2.35-.6s-1.05-.98-1.37-1.74c-.35-.81-.58-1.73-.69-2.75s-.16-2.3-.16-3.82c0-1.39.06-2.66.18-3.82s.35-2.1.68-2.83c.35-.77.83-1.35,1.43-1.73s1.36-.57,2.28-.57,1.69.19,2.28.57,1.06.95,1.4,1.7c.35.76.59,1.69.71,2.78s.18,2.38.18,3.87-.06,2.79-.18,3.86c-.12,1.07-.35,2-.7,2.79-.33.77-.8,1.35-1.41,1.73ZM301.03,711.62c-1.21-1.88-3.12-2.82-5.73-2.82s-4.49.93-5.71,2.78-1.83,4.71-1.83,8.59.6,6.7,1.81,8.55,3.12,2.78,5.73,2.78,4.48-.92,5.71-2.75c1.23-1.83,1.84-4.7,1.84-8.62s-.6-6.64-1.81-8.52ZM282.97,720.93c-.43-.85-1.04-1.54-1.82-2.08-.74-.51-1.56-.86-2.45-1.06s-1.92-.3-3.11-.3c-.32,0-.7,0-1.14.03s-.87.05-1.29.09v-5.8h10.3v-2.56h-13.12v11.24c.58-.12,1.26-.23,2.06-.35s1.62-.18,2.48-.18,1.71.08,2.44.23c.73.15,1.35.41,1.85.78.46.31.82.73,1.08,1.25s.39,1.15.39,1.9-.11,1.45-.33,2.04-.54,1.09-.97,1.51c-.51.49-1.09.83-1.74,1.03s-1.32.29-2.01.29c-1.04,0-2.09-.18-3.16-.54-1.07-.36-2.01-.79-2.81-1.3h-.21v3.09c.76.35,1.69.65,2.8.9,1.1.25,2.25.37,3.44.37,1.28,0,2.4-.18,3.38-.55.97-.37,1.81-.89,2.51-1.57.64-.63,1.15-1.42,1.52-2.34s.56-1.9.56-2.92c0-1.28-.21-2.34-.64-3.19ZM264.72,728.55h-11.73c.97-.82,2.01-1.71,3.12-2.67s2.19-1.96,3.24-2.98c.73-.71,1.35-1.36,1.87-1.95s.96-1.18,1.34-1.79c.41-.64.72-1.33.93-2.04.21-.72.31-1.49.31-2.32,0-1.85-.63-3.31-1.9-4.39s-3.02-1.62-5.26-1.62c-1.08,0-2.2.14-3.36.42s-2.08.6-2.78.94v3.08h.15c.99-.64,2-1.12,3.03-1.44s2-.47,2.89-.47c1.34,0,2.38.32,3.13.96s1.12,1.53,1.12,2.66c0,1.24-.35,2.39-1.04,3.46-.69,1.07-1.98,2.51-3.85,4.33-.89.87-1.85,1.74-2.88,2.62s-2.06,1.76-3.08,2.64v3.06h14.77v-2.5ZM244.4,728.82h-4.45v-19.66h-2.27c-.04.63-.19,1.14-.45,1.52-.26.38-.61.69-1.06.93-.36.2-.89.34-1.6.45-.7.1-1.36.15-1.98.15v1.99h4.54v14.62h-4.54v2.23h11.81v-2.23Z" style="fill: #444;"/>
  <path d="M590.91,728.52c-.61.38-1.37.57-2.29.57-.98,0-1.76-.2-2.35-.6s-1.05-.98-1.37-1.74c-.35-.81-.58-1.73-.69-2.75s-.16-2.3-.16-3.82c0-1.39.06-2.66.18-3.82s.35-2.1.68-2.83c.35-.77.83-1.35,1.43-1.73s1.36-.57,2.28-.57,1.69.19,2.28.57,1.06.95,1.4,1.7c.35.76.59,1.69.71,2.78s.18,2.38.18,3.87-.06,2.79-.18,3.86c-.12,1.07-.35,2-.7,2.79-.33.77-.8,1.35-1.41,1.73ZM594.36,711.62c-1.21-1.88-3.12-2.82-5.73-2.82s-4.49.93-5.71,2.78-1.83,4.71-1.83,8.59.6,6.7,1.81,8.55,3.12,2.78,5.73,2.78,4.48-.92,5.71-2.75c1.23-1.83,1.84-4.7,1.84-8.62s-.6-6.64-1.81-8.52ZM571.84,728.52c-.61.38-1.37.57-2.29.57-.98,0-1.76-.2-2.35-.6s-1.05-.98-1.37-1.74c-.35-.81-.58-1.73-.69-2.75s-.16-2.3-.16-3.82c0-1.39.06-2.66.18-3.82s.35-2.1.68-2.83c.35-.77.83-1.35,1.43-1.73s1.36-.57,2.28-.57,1.69.19,2.28.57,1.06.95,1.4,1.7c.35.76.59,1.69.71,2.78s.18,2.38.18,3.87-.06,2.79-.18,3.86c-.12,1.07-.35,2-.7,2.79-.33.77-.8,1.35-1.41,1.73ZM575.29,711.62c-1.21-1.88-3.12-2.82-5.73-2.82s-4.49.93-5.71,2.78-1.83,4.71-1.83,8.59.6,6.7,1.81,8.55,3.12,2.78,5.73,2.78,4.48-.92,5.71-2.75c1.23-1.83,1.84-4.7,1.84-8.62s-.6-6.64-1.81-8.52ZM557.23,720.93c-.43-.85-1.04-1.54-1.82-2.08-.74-.51-1.56-.86-2.45-1.06s-1.92-.3-3.11-.3c-.32,0-.7,0-1.14.03s-.87.05-1.29.09v-5.8h10.3v-2.56h-13.12v11.24c.58-.12,1.26-.23,2.06-.35s1.62-.18,2.48-.18,1.71.08,2.44.23c.73.15,1.35.41,1.85.78.46.31.82.73,1.08,1.25s.39,1.15.39,1.9-.11,1.45-.33,2.04-.54,1.09-.97,1.51c-.51.49-1.09.83-1.74,1.03s-1.32.29-2.01.29c-1.04,0-2.09-.18-3.16-.54-1.07-.36-2.01-.79-2.81-1.3h-.21v3.09c.76.35,1.69.65,2.8.9,1.1.25,2.25.37,3.44.37,1.28,0,2.4-.18,3.38-.55.97-.37,1.81-.89,2.51-1.57.64-.63,1.15-1.42,1.52-2.34s.56-1.9.56-2.92c0-1.28-.21-2.34-.64-3.19ZM538.98,728.55h-11.73c.97-.82,2.01-1.71,3.12-2.67s2.19-1.96,3.24-2.98c.73-.71,1.35-1.36,1.87-1.95s.96-1.18,1.34-1.79c.41-.64.72-1.33.93-2.04.21-.72.31-1.49.31-2.32,0-1.85-.63-3.31-1.9-4.39s-3.02-1.62-5.26-1.62c-1.08,0-2.2.14-3.36.42s-2.08.6-2.78.94v3.08h.15c.99-.64,2-1.12,3.03-1.44s2-.47,2.89-.47c1.34,0,2.38.32,3.13.96s1.12,1.53,1.12,2.66c0,1.24-.35,2.39-1.04,3.46-.69,1.07-1.98,2.51-3.85,4.33-.89.87-1.85,1.74-2.88,2.62s-2.06,1.76-3.08,2.64v3.06h14.77v-2.5Z" style="fill: #444;"/>
  <path d="M884.24,728.52c-.61.38-1.37.57-2.29.57-.98,0-1.76-.2-2.35-.6s-1.05-.98-1.37-1.74c-.35-.81-.58-1.73-.69-2.75s-.16-2.3-.16-3.82c0-1.39.06-2.66.18-3.82s.35-2.1.68-2.83c.35-.77.83-1.35,1.43-1.73s1.36-.57,2.28-.57,1.69.19,2.28.57,1.06.95,1.4,1.7c.35.76.59,1.69.71,2.78s.18,2.38.18,3.87-.06,2.79-.18,3.86c-.12,1.07-.35,2-.7,2.79-.33.77-.8,1.35-1.41,1.73ZM887.69,711.62c-1.21-1.88-3.12-2.82-5.73-2.82s-4.49.93-5.71,2.78-1.83,4.71-1.83,8.59.6,6.7,1.81,8.55,3.12,2.78,5.73,2.78,4.48-.92,5.71-2.75c1.23-1.83,1.84-4.7,1.84-8.62s-.6-6.64-1.81-8.52ZM865.17,728.52c-.61.38-1.37.57-2.29.57-.98,0-1.76-.2-2.35-.6s-1.05-.98-1.37-1.74c-.35-.81-.58-1.73-.69-2.75s-.16-2.3-.16-3.82c0-1.39.06-2.66.18-3.82s.35-2.1.68-2.83c.35-.77.83-1.35,1.43-1.73s1.36-.57,2.28-.57,1.69.19,2.28.57,1.06.95,1.4,1.7c.35.76.59,1.69.71,2.78s.18,2.38.18,3.87-.06,2.79-.18,3.86c-.12,1.07-.35,2-.7,2.79-.33.77-.8,1.35-1.41,1.73ZM868.62,711.62c-1.21-1.88-3.12-2.82-5.73-2.82s-4.49.93-5.71,2.78-1.83,4.71-1.83,8.59.6,6.7,1.81,8.55,3.12,2.78,5.73,2.78,4.48-.92,5.71-2.75c1.23-1.83,1.84-4.7,1.84-8.62s-.6-6.64-1.81-8.52ZM846.09,728.52c-.61.38-1.37.57-2.29.57-.98,0-1.76-.2-2.35-.6s-1.05-.98-1.37-1.74c-.35-.81-.58-1.73-.69-2.75s-.16-2.3-.16-3.82c0-1.39.06-2.66.18-3.82s.35-2.1.68-2.83c.35-.77.83-1.35,1.43-1.73s1.36-.57,2.28-.57,1.69.19,2.28.57,1.06.95,1.4,1.7c.35.76.59,1.69.71,2.78s.18,2.38.18,3.87-.06,2.79-.18,3.86c-.12,1.07-.35,2-.7,2.79-.33.77-.8,1.35-1.41,1.73ZM849.54,711.62c-1.21-1.88-3.12-2.82-5.73-2.82s-4.49.93-5.71,2.78-1.83,4.71-1.83,8.59.6,6.7,1.81,8.55,3.12,2.78,5.73,2.78,4.48-.92,5.71-2.75c1.23-1.83,1.84-4.7,1.84-8.62s-.6-6.64-1.81-8.52ZM831.49,720.93c-.43-.85-1.04-1.54-1.82-2.08-.74-.51-1.56-.86-2.45-1.06s-1.92-.3-3.11-.3c-.32,0-.7,0-1.14.03s-.87.05-1.29.09v-5.8h10.3v-2.56h-13.12v11.24c.58-.12,1.26-.23,2.06-.35s1.62-.18,2.48-.18,1.71.08,2.44.23c.73.15,1.35.41,1.85.78.46.31.82.73,1.08,1.25s.39,1.15.39,1.9-.11,1.45-.33,2.04-.54,1.09-.97,1.51c-.51.49-1.09.83-1.74,1.03s-1.32.29-2.01.29c-1.04,0-2.09-.18-3.16-.54-1.07-.36-2.01-.79-2.81-1.3h-.21v3.09c.76.35,1.69.65,2.8.9,1.1.25,2.25.37,3.44.37,1.28,0,2.4-.18,3.38-.55.97-.37,1.81-.89,2.51-1.57.64-.63,1.15-1.42,1.52-2.34s.56-1.9.56-2.92c0-1.28-.21-2.34-.64-3.19Z" style="fill: #444;"/>
  <path d="M115.81,685.8h-4.45v-19.66h-2.27c-.04.63-.19,1.14-.45,1.52-.26.38-.61.69-1.06.93-.36.2-.89.34-1.6.45-.7.1-1.36.15-1.98.15v1.99h4.54v14.62h-4.54v2.23h11.81v-2.23ZM96.22,683.86h-3.5v4.17h3.5v-4.17ZM81.78,685.5c-.61.38-1.37.57-2.29.57-.98,0-1.76-.2-2.35-.6s-1.05-.98-1.37-1.74c-.35-.81-.58-1.73-.69-2.75s-.16-2.3-.16-3.82c0-1.39.06-2.66.18-3.82s.35-2.1.68-2.83c.35-.77.83-1.35,1.43-1.73s1.36-.57,2.28-.57,1.69.19,2.28.57,1.06.95,1.4,1.7c.35.76.59,1.69.71,2.78s.18,2.38.18,3.87-.06,2.79-.18,3.86c-.12,1.07-.35,2-.7,2.79-.33.77-.8,1.35-1.41,1.73ZM85.23,668.6c-1.21-1.88-3.12-2.82-5.73-2.82s-4.49.93-5.71,2.78-1.83,4.71-1.83,8.59.6,6.7,1.81,8.55,3.12,2.78,5.73,2.78,4.48-.92,5.71-2.75c1.23-1.83,1.84-4.7,1.84-8.62s-.6-6.64-1.81-8.52Z" style="fill: #444;"/>
  <path d="M117.05,602.31h-11.73c.97-.82,2.01-1.71,3.12-2.67s2.19-1.96,3.24-2.98c.73-.71,1.35-1.36,1.87-1.95s.96-1.18,1.34-1.79c.41-.64.72-1.33.93-2.04.21-.72.31-1.49.31-2.32,0-1.85-.63-3.31-1.9-4.39s-3.02-1.62-5.26-1.62c-1.08,0-2.2.14-3.36.42s-2.08.6-2.78.94v3.08h.15c.99-.64,2-1.12,3.03-1.44s2-.47,2.89-.47c1.34,0,2.38.32,3.13.96s1.12,1.53,1.12,2.66c0,1.24-.35,2.39-1.04,3.46-.69,1.07-1.98,2.51-3.85,4.33-.89.87-1.85,1.74-2.88,2.62s-2.06,1.76-3.08,2.64v3.06h14.77v-2.5ZM96.22,600.64h-3.5v4.17h3.5v-4.17ZM81.78,602.28c-.61.38-1.37.57-2.29.57-.98,0-1.76-.2-2.35-.6s-1.05-.98-1.37-1.74c-.35-.81-.58-1.73-.69-2.75s-.16-2.3-.16-3.82c0-1.39.06-2.66.18-3.82s.35-2.1.68-2.83c.35-.77.83-1.35,1.43-1.73s1.36-.57,2.28-.57,1.69.19,2.28.57,1.06.95,1.4,1.7c.35.76.59,1.69.71,2.78s.18,2.38.18,3.87-.06,2.79-.18,3.86c-.12,1.07-.35,2-.7,2.79-.33.77-.8,1.35-1.41,1.73ZM85.23,585.38c-1.21-1.88-3.12-2.82-5.73-2.82s-4.49.93-5.71,2.78-1.83,4.71-1.83,8.59.6,6.7,1.81,8.55,3.12,2.78,5.73,2.78,4.48-.92,5.71-2.75c1.23-1.83,1.84-4.7,1.84-8.62s-.6-6.64-1.81-8.52Z" style="fill: #444;"/>
  <path d="M113.59,510.16c-.61-.25-1.14-.41-1.61-.49v-.21c1.16-.23,2.17-.8,3.02-1.71.85-.9,1.28-1.96,1.28-3.17,0-.89-.18-1.67-.54-2.33s-.89-1.23-1.6-1.7c-.65-.43-1.39-.74-2.2-.94s-1.75-.29-2.81-.29-2.2.14-3.36.43c-1.16.29-2.08.6-2.78.95v3.06h.15c.93-.61,1.91-1.07,2.96-1.41s2.03-.5,2.96-.5c.61,0,1.15.05,1.63.15s.93.27,1.35.53c.4.25.71.58.94.97.22.4.34.86.34,1.38,0,1.19-.44,2.1-1.33,2.72-.88.62-2.07.93-3.55.93h-1.03v2.43h1.32c.72,0,1.4.06,2.02.17s1.16.32,1.6.62c.44.29.78.7,1.03,1.21.25.51.37,1.16.37,1.94s-.11,1.45-.33,1.96-.55.99-1,1.42c-.43.4-.99.7-1.68.91s-1.35.31-1.96.31c-1.04,0-2.13-.18-3.25-.54s-2.1-.82-2.93-1.36h-.22v3.06c.75.34,1.71.66,2.89.94,1.17.29,2.36.43,3.57.43s2.27-.16,3.26-.49c.99-.33,1.85-.83,2.59-1.52.65-.62,1.16-1.34,1.52-2.17s.54-1.74.54-2.74-.15-1.83-.45-2.46-.69-1.16-1.16-1.58c-.42-.37-.93-.68-1.54-.93ZM96.22,517.42h-3.5v4.17h3.5v-4.17ZM81.78,519.06c-.61.38-1.37.57-2.29.57-.98,0-1.76-.2-2.35-.6s-1.05-.98-1.37-1.74c-.35-.81-.58-1.73-.69-2.75s-.16-2.3-.16-3.82c0-1.39.06-2.66.18-3.82s.35-2.1.68-2.83c.35-.77.83-1.35,1.43-1.73s1.36-.57,2.28-.57,1.69.19,2.28.57,1.06.95,1.4,1.7c.35.76.59,1.69.71,2.78s.18,2.38.18,3.87-.06,2.79-.18,3.86c-.12,1.07-.35,2-.7,2.79-.33.77-.8,1.35-1.41,1.73ZM85.23,502.16c-1.21-1.88-3.12-2.82-5.73-2.82s-4.49.93-5.71,2.78-1.83,4.71-1.83,8.59.6,6.7,1.81,8.55,3.12,2.78,5.73,2.78,4.48-.92,5.71-2.75c1.23-1.83,1.84-4.7,1.84-8.62s-.6-6.64-1.81-8.52Z" style="fill: #444;"/>
  <path d="M103.05,429.88l8.45-9.84v9.84h-8.45ZM117.55,429.88h-3.24v-13.33h-2.7l-10.56,12.3v3.37h10.44v6.14h2.81v-6.14h3.24v-2.34ZM96.22,434.19h-3.5v4.17h3.5v-4.17ZM81.78,435.83c-.61.38-1.37.57-2.29.57-.98,0-1.76-.2-2.35-.6s-1.05-.98-1.37-1.74c-.35-.81-.58-1.73-.69-2.75s-.16-2.3-.16-3.82c0-1.39.06-2.66.18-3.82s.35-2.1.68-2.83c.35-.77.83-1.35,1.43-1.73s1.36-.57,2.28-.57,1.69.19,2.28.57,1.06.95,1.4,1.7c.35.76.59,1.69.71,2.78s.18,2.38.18,3.87-.06,2.79-.18,3.86c-.12,1.07-.35,2-.7,2.79-.33.77-.8,1.35-1.41,1.73ZM85.23,418.93c-1.21-1.88-3.12-2.82-5.73-2.82s-4.49.93-5.71,2.78-1.83,4.71-1.83,8.59.6,6.7,1.81,8.55,3.12,2.78,5.73,2.78,4.48-.92,5.71-2.75c1.23-1.83,1.84-4.7,1.84-8.62s-.6-6.64-1.81-8.52Z" style="fill: #444;"/>
  <path d="M116.23,345.02c-.43-.85-1.04-1.54-1.82-2.08-.74-.51-1.56-.86-2.45-1.06s-1.92-.3-3.11-.3c-.32,0-.7,0-1.14.03s-.87.05-1.29.09v-5.8h10.3v-2.56h-13.12v11.24c.58-.12,1.26-.23,2.06-.35s1.62-.18,2.48-.18,1.71.08,2.44.23c.73.15,1.35.41,1.85.78.46.31.82.73,1.08,1.25s.39,1.15.39,1.9-.11,1.45-.33,2.04-.54,1.09-.97,1.51c-.51.49-1.09.83-1.74,1.03s-1.32.29-2.01.29c-1.04,0-2.09-.18-3.16-.54-1.07-.36-2.01-.79-2.81-1.3h-.21v3.09c.76.35,1.69.65,2.8.9,1.1.25,2.25.37,3.44.37,1.28,0,2.4-.18,3.38-.55.97-.37,1.81-.89,2.51-1.57.64-.63,1.15-1.42,1.52-2.34s.56-1.9.56-2.92c0-1.28-.21-2.34-.64-3.19ZM96.22,350.97h-3.5v4.17h3.5v-4.17ZM81.78,352.61c-.61.38-1.37.57-2.29.57-.98,0-1.76-.2-2.35-.6s-1.05-.98-1.37-1.74c-.35-.81-.58-1.73-.69-2.75s-.16-2.3-.16-3.82c0-1.39.06-2.66.18-3.82s.35-2.1.68-2.83c.35-.77.83-1.35,1.43-1.73s1.36-.57,2.28-.57,1.69.19,2.28.57,1.06.95,1.4,1.7c.35.76.59,1.69.71,2.78s.18,2.38.18,3.87-.06,2.79-.18,3.86c-.12,1.07-.35,2-.7,2.79-.33.77-.8,1.35-1.41,1.73ZM85.23,335.71c-1.21-1.88-3.12-2.82-5.73-2.82s-4.49.93-5.71,2.78-1.83,4.71-1.83,8.59.6,6.7,1.81,8.55,3.12,2.78,5.73,2.78,4.48-.92,5.71-2.75c1.23-1.83,1.84-4.7,1.84-8.62s-.6-6.64-1.81-8.52Z" style="fill: #444;"/>
  <path d="M113.18,268.69c-.81.87-1.92,1.3-3.34,1.3-.62,0-1.18-.1-1.71-.3-.52-.2-1.01-.51-1.46-.94-.56-.52-.99-1.22-1.31-2.12-.32-.89-.48-2.11-.48-3.66,0-.3,0-.55.01-.75,0-.2.02-.41.04-.62.75-.41,1.48-.71,2.2-.91s1.48-.29,2.31-.29c.6,0,1.17.05,1.71.15s1.04.3,1.49.62c.62.44,1.06.96,1.33,1.55s.4,1.35.4,2.26c0,1.62-.41,2.86-1.22,3.73ZM116.72,261.54c-.43-.91-1.08-1.66-1.94-2.26-.74-.52-1.47-.86-2.18-1.03s-1.53-.26-2.45-.26c-1.04,0-1.97.13-2.76.39-.8.26-1.6.64-2.42,1.14.21-2.24.93-4.01,2.18-5.33,1.25-1.31,2.92-1.97,5.02-1.97.58,0,1.14.07,1.69.2.55.13.96.27,1.24.42h.15v-2.8c-.4-.13-.8-.21-1.19-.26s-.87-.07-1.45-.07c-1.81,0-3.39.31-4.75.93s-2.47,1.48-3.33,2.58c-.91,1.16-1.57,2.49-1.98,3.98s-.62,3.21-.62,5.14.23,3.5.68,4.83,1.1,2.41,1.94,3.22c.67.65,1.45,1.15,2.33,1.48s1.86.5,2.93.5c2.12,0,3.91-.7,5.37-2.1,1.46-1.4,2.19-3.21,2.19-5.43,0-1.3-.22-2.4-.65-3.31ZM96.22,267.75h-3.5v4.17h3.5v-4.17ZM81.78,269.39c-.61.38-1.37.57-2.29.57-.98,0-1.76-.2-2.35-.6s-1.05-.98-1.37-1.74c-.35-.81-.58-1.73-.69-2.75s-.16-2.3-.16-3.82c0-1.39.06-2.66.18-3.82s.35-2.1.68-2.83c.35-.77.83-1.35,1.43-1.73s1.36-.57,2.28-.57,1.69.19,2.28.57,1.06.95,1.4,1.7c.35.76.59,1.69.71,2.78s.18,2.38.18,3.87-.06,2.79-.18,3.86c-.12,1.07-.35,2-.7,2.79-.33.77-.8,1.35-1.41,1.73ZM85.23,252.49c-1.21-1.88-3.12-2.82-5.73-2.82s-4.49.93-5.71,2.78-1.83,4.71-1.83,8.59.6,6.7,1.81,8.55,3.12,2.78,5.73,2.78,4.48-.92,5.71-2.75c1.23-1.83,1.84-4.7,1.84-8.62s-.6-6.64-1.81-8.52Z" style="fill: #444;"/>
  <path d="M117.11,166.88h-14.93v2.56h12.42l-10.5,19.25h3.13l9.87-18.54v-3.27ZM96.22,184.52h-3.5v4.17h3.5v-4.17ZM81.78,186.16c-.61.38-1.37.57-2.29.57-.98,0-1.76-.2-2.35-.6s-1.05-.98-1.37-1.74c-.35-.81-.58-1.73-.69-2.75s-.16-2.3-.16-3.82c0-1.39.06-2.66.18-3.82s.35-2.1.68-2.83c.35-.77.83-1.35,1.43-1.73s1.36-.57,2.28-.57,1.69.19,2.28.57,1.06.95,1.4,1.7c.35.76.59,1.69.71,2.78s.18,2.38.18,3.87-.06,2.79-.18,3.86c-.12,1.07-.35,2-.7,2.79-.33.77-.8,1.35-1.41,1.73ZM85.23,169.26c-1.21-1.88-3.12-2.82-5.73-2.82s-4.49.93-5.71,2.78-1.83,4.71-1.83,8.59.6,6.7,1.81,8.55,3.12,2.78,5.73,2.78,4.48-.92,5.71-2.75c1.23-1.83,1.84-4.7,1.84-8.62s-.6-6.64-1.81-8.52Z" style="fill: #444;"/>
  <path d="M112.91,102.69c-.85.73-1.99,1.1-3.42,1.1s-2.55-.43-3.46-1.29-1.36-1.95-1.36-3.27c0-1.04.27-1.96.8-2.78s1.24-1.47,2.12-1.95c.91.33,1.64.59,2.18.78s1.05.39,1.51.6c1.15.55,1.93,1.09,2.32,1.63.4.54.59,1.26.59,2.16,0,1.28-.43,2.29-1.28,3.02ZM113.18,91.14c-.37.69-1.04,1.36-2.01,2.01-.64-.19-1.31-.42-1.98-.7s-1.2-.51-1.56-.69c-.8-.4-1.4-.86-1.79-1.37-.4-.51-.59-1.12-.59-1.82,0-1,.39-1.79,1.18-2.37s1.79-.88,3.02-.88,2.28.31,3.08.93c.81.62,1.21,1.45,1.21,2.5,0,.91-.19,1.71-.56,2.4ZM116.13,96.11c-.72-.86-1.77-1.58-3.13-2.17v-.09c1.19-.54,2.09-1.28,2.71-2.23.62-.95.92-1.92.92-2.91,0-1.61-.65-2.94-1.95-3.98s-3.04-1.57-5.21-1.57-3.79.55-5.14,1.64-2.02,2.46-2.02,4.1c0,1.11.28,2.04.84,2.78s1.43,1.43,2.6,2.05v.09c-1.28.58-2.27,1.35-2.97,2.34-.7.98-1.05,2.08-1.05,3.29,0,1.9.7,3.47,2.1,4.69s3.28,1.83,5.65,1.83c2.23,0,4.07-.62,5.54-1.88s2.2-2.82,2.2-4.7c0-1.33-.36-2.42-1.08-3.28ZM96.22,101.3h-3.5v4.17h3.5v-4.17ZM81.78,102.94c-.61.38-1.37.57-2.29.57-.98,0-1.76-.2-2.35-.6s-1.05-.98-1.37-1.74c-.35-.81-.58-1.73-.69-2.75s-.16-2.3-.16-3.82c0-1.39.06-2.66.18-3.82s.35-2.1.68-2.83c.35-.77.83-1.35,1.43-1.73s1.36-.57,2.28-.57,1.69.19,2.28.57,1.06.95,1.4,1.7c.35.76.59,1.69.71,2.78s.18,2.38.18,3.87-.06,2.79-.18,3.86c-.12,1.07-.35,2-.7,2.79-.33.77-.8,1.35-1.41,1.73ZM85.23,86.04c-1.21-1.88-3.12-2.82-5.73-2.82s-4.49.93-5.71,2.78-1.83,4.71-1.83,8.59.6,6.7,1.81,8.55,3.12,2.78,5.73,2.78,4.48-.92,5.71-2.75c1.23-1.83,1.84-4.7,1.84-8.62s-.6-6.64-1.81-8.52Z" style="fill: #444;"/>
  <path d="M109.14,0c-.33,0-.65.02-.96.05h1.95c-.32-.03-.65-.05-.99-.05" style="fill: #fff;"/>
  <path d="M109.49,11.98c-.64,0-1.23-.05-1.76-.15-.53-.1-1.01-.31-1.45-.61-.63-.44-1.07-.95-1.33-1.54-.26-.59-.4-1.34-.4-2.27,0-1.59.41-2.83,1.22-3.71.82-.88,1.93-1.32,3.33-1.32.62,0,1.19.1,1.71.29.53.19,1.02.51,1.48.95.55.51.98,1.22,1.29,2.14.31.92.47,2.13.47,3.65,0,.31,0,.57-.02.77-.01.2-.03.4-.04.61-.68.39-1.42.69-2.2.89-.78.21-1.55.31-2.31.31M110.13.05h-1.95c-1.7.18-3.16.86-4.4,2.04-1.46,1.4-2.2,3.21-2.2,5.43,0,1.28.22,2.38.65,3.3.43.92,1.08,1.67,1.94,2.27.73.51,1.46.85,2.19,1.03.73.18,1.54.26,2.44.26.95,0,1.82-.12,2.62-.35.8-.23,1.66-.62,2.56-1.17-.2,2.28-.91,4.06-2.13,5.35-1.23,1.29-2.92,1.94-5.08,1.94-.63,0-1.21-.07-1.73-.2-.52-.13-.92-.27-1.2-.42h-.15v2.8c.35.12.75.2,1.2.26.45.05.93.08,1.44.08,1.81,0,3.38-.3,4.72-.91,1.34-.61,2.45-1.46,3.34-2.58.88-1.09,1.54-2.42,1.97-3.97.43-1.55.65-3.28.65-5.19,0-2.02-.22-3.67-.67-4.94-.45-1.28-1.09-2.32-1.92-3.13-.67-.65-1.46-1.14-2.36-1.47-.61-.22-1.26-.37-1.94-.44" style="fill: #fff;"/>
  <path d="M79.49,0c-.35,0-.69.02-1.01.05h2.03c-.33-.03-.66-.05-1.02-.05" style="fill: #fff;"/>
  <path d="M96.22,18.08h-3.5v4.17h3.5v-4.17M79.49,20.29c-.98,0-1.76-.2-2.35-.6-.59-.4-1.05-.98-1.37-1.74-.35-.81-.58-1.73-.69-2.75-.11-1.03-.16-2.3-.16-3.82,0-1.39.06-2.66.18-3.82.12-1.16.35-2.1.68-2.83.35-.77.83-1.35,1.43-1.73.6-.38,1.36-.57,2.28-.57s1.69.19,2.28.57c.59.38,1.06.95,1.4,1.7.35.76.59,1.69.71,2.78.12,1.09.18,2.38.18,3.87s-.06,2.79-.18,3.86c-.12,1.07-.35,2-.7,2.79-.33.77-.8,1.35-1.41,1.73-.61.38-1.37.57-2.29.57M80.51.05h-2.03c-2.08.22-3.64,1.13-4.7,2.73-1.22,1.85-1.83,4.71-1.83,8.59s.6,6.7,1.81,8.55c1.21,1.86,3.12,2.78,5.73,2.78s4.48-.91,5.71-2.75c1.23-1.83,1.84-4.7,1.84-8.62s-.6-6.64-1.81-8.52c-1.04-1.63-2.62-2.55-4.72-2.77" style="fill: #fff;"/>
  <polyline points="164 .05 438 .05 438 94.05 164 94.05 164 .05" style="fill: #fff;"/>
  <g style="clip-path: url(#clippath-2);">
    <path d="M401.37,27.13c0-2-.46-3.54-1.39-4.6-.93-1.06-2.28-1.6-4.04-1.6-.97,0-1.91.2-2.83.6-.92.4-1.81.96-2.67,1.67v-8.25h-2.75v22.79h2.75v-12.22c.75-.58,1.54-1.05,2.36-1.42.82-.37,1.61-.56,2.36-.56s1.33.1,1.79.3c.46.2.81.51,1.05.92.23.37.4.89.48,1.55.09.66.13,1.37.13,2.12v9.32h2.75v-10.62M384.16,33.69h-.15c-.21.17-.48.36-.83.59-.35.23-.73.45-1.13.65-.46.23-.98.42-1.55.57-.58.15-1.14.22-1.7.22-1.6,0-2.84-.53-3.73-1.59-.88-1.06-1.33-2.58-1.33-4.55s.45-3.57,1.35-4.62c.9-1.05,2.14-1.57,3.7-1.57.85,0,1.72.18,2.61.53.89.35,1.76.85,2.6,1.51h.15v-3.06c-.75-.38-1.58-.7-2.48-.97s-1.82-.4-2.76-.4c-2.41,0-4.35.76-5.82,2.29-1.47,1.52-2.2,3.62-2.2,6.3,0,1.44.2,2.69.59,3.76.39,1.07.94,1.96,1.66,2.67.7.7,1.55,1.23,2.53,1.57.99.35,2.07.52,3.25.52.93,0,1.8-.12,2.63-.37.83-.24,1.7-.59,2.61-1.03v-3.03M369.47,21.56c-.43-.07-.75-.11-.97-.14-.21-.02-.56-.04-1.04-.04-.87,0-1.72.18-2.56.55-.83.37-1.8.99-2.89,1.87v-2.42h-2.75v16.36h2.75v-11.62c.73-.6,1.49-1.08,2.29-1.46.79-.38,1.61-.56,2.46-.56.53,0,.98.02,1.37.07.39.05.78.12,1.19.21h.15v-2.83M348.99,35.08c-.8.38-1.68.56-2.65.56-1.16,0-2.03-.24-2.59-.71-.57-.47-.85-1.18-.85-2.12,0-.83.24-1.48.73-1.96.49-.47,1.13-.82,1.92-1.05.66-.19,1.56-.33,2.7-.42,1.14-.1,2.13-.17,2.97-.22v4.56c-.68.53-1.43.98-2.23,1.35M353.96,26.65c0-1.05-.16-1.94-.48-2.65-.32-.71-.79-1.29-1.41-1.74-.62-.46-1.36-.78-2.22-.97-.85-.19-1.86-.29-3.01-.29-.99,0-1.99.09-3,.26s-1.79.34-2.33.48v2.8h.15c.95-.36,1.87-.64,2.75-.83.89-.19,1.69-.29,2.42-.29.6,0,1.17.04,1.71.12.55.08,1.02.23,1.41.45.41.23.73.56.94.97.22.41.33.93.33,1.55v.42c-1.6.08-3.1.2-4.5.35-1.4.16-2.59.45-3.59.89-.99.44-1.75,1.04-2.28,1.81-.53.77-.8,1.77-.8,3.01,0,1.51.51,2.76,1.54,3.74,1.03.98,2.28,1.47,3.75,1.47.8,0,1.5-.08,2.09-.23.6-.15,1.12-.34,1.58-.56.39-.18.79-.41,1.21-.71s.74-.53.99-.7v1.74h2.74v-11.1M325.01,27.75c.12-1.29.61-2.37,1.49-3.24.87-.87,2.05-1.3,3.52-1.3s2.56.4,3.27,1.19c.72.79,1.08,1.91,1.09,3.35h-9.37M337.07,28.36c0-2.37-.6-4.2-1.79-5.49-1.2-1.29-2.9-1.93-5.1-1.93-2.38,0-4.3.79-5.76,2.36-1.46,1.57-2.19,3.7-2.19,6.37s.76,4.79,2.29,6.26c1.52,1.47,3.64,2.2,6.36,2.2,1.06,0,2.08-.13,3.05-.4.97-.26,1.91-.59,2.84-.98v-3h-.15c-.48.43-1.28.87-2.41,1.31-1.13.44-2.25.67-3.36.67-.84,0-1.61-.12-2.31-.35-.7-.23-1.3-.59-1.81-1.05-.53-.48-.94-1.09-1.25-1.84-.3-.75-.45-1.62-.45-2.63h12.06v-1.49M318.39,30.16c-.69-.71-1.68-1.22-2.96-1.51-.42-.1-.94-.21-1.57-.32-.63-.12-1.2-.23-1.71-.35-.92-.21-1.58-.49-1.99-.83-.42-.34-.63-.85-.63-1.52,0-.76.35-1.34,1.04-1.72.69-.39,1.54-.58,2.55-.58s1.95.18,2.96.53c1.01.36,1.86.79,2.56,1.31h.15v-2.94c-.66-.34-1.5-.63-2.5-.87-1-.24-1.99-.36-2.97-.36-1.04,0-1.99.13-2.83.4-.84.27-1.54.63-2.09,1.09-.57.47-.99,1-1.27,1.6s-.42,1.23-.42,1.9c0,1.07.3,1.98.9,2.72.6.74,1.62,1.3,3.05,1.68.52.14,1.09.26,1.72.38.63.12,1.14.22,1.53.31,1.05.23,1.77.52,2.14.85.37.33.56.82.56,1.47,0,.84-.34,1.45-1.03,1.85-.68.39-1.63.59-2.84.59-.98,0-2-.19-3.06-.58-1.06-.39-2.03-.91-2.9-1.56h-.15v3.09c.68.34,1.53.66,2.54.94,1.01.29,2.12.43,3.33.43,2.14,0,3.83-.48,5.06-1.44,1.24-.96,1.85-2.18,1.85-3.68,0-1.19-.35-2.15-1.04-2.87M291.89,27.13c0-2-.46-3.54-1.39-4.6-.93-1.06-2.28-1.6-4.04-1.6-.97,0-1.91.2-2.83.6-.92.4-1.81.96-2.67,1.67v-8.25h-2.75v22.79h2.75v-12.22c.75-.58,1.54-1.05,2.36-1.42.82-.37,1.61-.56,2.36-.56s1.33.1,1.79.3c.46.2.81.51,1.05.92.23.37.4.89.48,1.55.09.66.13,1.37.13,2.12v9.32h2.75v-10.62M274.88,35.13h-.15c-.22.09-.57.2-1.05.33-.49.13-.96.2-1.41.2-.77,0-1.35-.09-1.72-.27-.38-.18-.67-.47-.89-.86-.23-.42-.37-.87-.41-1.36-.04-.48-.06-1.15-.06-2.01v-7.46h5.68v-2.31h-5.68v-4.7h-2.75v4.7h-1.86v2.31h1.86v8.7c0,1.98.43,3.42,1.3,4.32.87.9,2.14,1.35,3.81,1.35.48,0,1.02-.04,1.63-.13.61-.09,1.17-.2,1.69-.34v-2.48M257.96,34.04c-.86,1.04-2.06,1.55-3.59,1.55-.71,0-1.35-.06-1.91-.19-.56-.13-1.23-.37-2.01-.72v-9.27c.73-.56,1.5-1.01,2.3-1.35.8-.34,1.6-.51,2.39-.51,1.4,0,2.43.49,3.11,1.46.67.98,1.01,2.45,1.01,4.42s-.43,3.56-1.29,4.6M260.45,23.17c-1.1-1.49-2.63-2.23-4.61-2.23-1.04,0-2.01.21-2.92.62-.91.42-1.74.93-2.47,1.55v-1.71h-2.75v22.4h2.75v-6.86c.71.39,1.41.68,2.1.86.69.19,1.46.28,2.31.28.98,0,1.9-.2,2.78-.59.87-.39,1.63-.95,2.28-1.68.69-.76,1.23-1.69,1.61-2.79.38-1.1.57-2.31.57-3.64,0-2.65-.55-4.71-1.65-6.2M231.47,27.75c.12-1.29.61-2.37,1.49-3.24.87-.87,2.05-1.3,3.52-1.3s2.56.4,3.27,1.19c.72.79,1.08,1.91,1.09,3.35h-9.38M243.52,28.36c0-2.37-.6-4.2-1.79-5.49-1.2-1.29-2.9-1.93-5.11-1.93-2.38,0-4.3.79-5.76,2.36-1.46,1.57-2.19,3.7-2.19,6.37s.76,4.79,2.29,6.26c1.52,1.47,3.64,2.2,6.36,2.2,1.06,0,2.08-.13,3.05-.4.97-.26,1.91-.59,2.84-.98v-3h-.15c-.48.43-1.28.87-2.41,1.31-1.13.44-2.25.67-3.36.67-.84,0-1.61-.12-2.31-.35-.7-.23-1.3-.59-1.81-1.05-.53-.48-.94-1.09-1.25-1.84-.3-.75-.45-1.62-.45-2.63h12.06v-1.49M221.51,31.07c-.54,1.13-1.36,2.05-2.44,2.74-.87.56-1.82.94-2.86,1.14-1.04.21-2.26.31-3.65.31h-2.72v-16.83h2.72c1.35,0,2.5.09,3.47.29.97.19,1.88.53,2.74,1.02,1.18.67,2.07,1.6,2.67,2.77.6,1.17.89,2.61.89,4.32s-.27,3.12-.81,4.25M224.11,21.37c-.83-1.54-1.99-2.78-3.47-3.71-.87-.54-1.93-.96-3.19-1.27-1.25-.31-2.95-.46-5.08-.46h-5.45v21.81h5.51c2,0,3.62-.14,4.84-.41,1.23-.27,2.34-.72,3.33-1.33,1.44-.89,2.59-2.14,3.45-3.75.86-1.61,1.3-3.41,1.3-5.39,0-2.12-.42-3.95-1.25-5.49" style="fill: #444;"/>
    <polyline points="190 32.05 190 31.05 179 31.05 179 21.05 189 21.05 189 32.05 190 32.05 190 31.05 190 32.05 191 32.05 191 19.05 177 19.05 177 33.05 191 33.05 191 32.05 190 32.05" style="fill: #ab63fa;"/>
    <path d="M351.22,29.17c-.84.05-1.83.12-2.97.22-1.14.1-2.04.24-2.7.42-.79.22-1.43.57-1.92,1.05-.49.47-.73,1.13-.73,1.96,0,.94.28,1.64.85,2.12.57.47,1.43.71,2.59.71.97,0,1.85-.19,2.65-.56.8-.38,1.54-.83,2.23-1.35v-4.56M255.14,23.56c-.79,0-1.59.17-2.39.51-.8.34-1.57.79-2.3,1.35v9.27c.78.35,1.45.59,2.01.72.56.13,1.2.19,1.91.19,1.53,0,2.73-.52,3.59-1.55.86-1.04,1.29-2.57,1.29-4.6s-.34-3.45-1.01-4.42c-.67-.98-1.71-1.46-3.11-1.46M236.48,23.2c-1.47,0-2.65.43-3.52,1.3-.87.87-1.37,1.95-1.49,3.24h9.38c0-1.45-.37-2.56-1.09-3.35-.72-.79-1.81-1.19-3.27-1.19M330.02,23.2c-1.47,0-2.65.43-3.52,1.3-.87.87-1.37,1.95-1.49,3.24h9.37c0-1.45-.37-2.56-1.09-3.35-.72-.79-1.81-1.19-3.27-1.19M212.55,18.43h-2.72v16.83h2.72c1.4,0,2.61-.1,3.65-.31,1.04-.21,1.99-.59,2.86-1.14,1.08-.69,1.9-1.61,2.44-2.74.54-1.13.81-2.55.81-4.25s-.3-3.15-.89-4.32c-.6-1.17-1.48-2.09-2.67-2.77-.86-.49-1.77-.83-2.74-1.02-.97-.19-2.12-.29-3.47-.29M362.01,23.81c1.09-.88,2.06-1.5,2.89-1.87.83-.37,1.69-.55,2.56-.55.48,0,.83.01,1.04.04.22.03.54.07.97.14v2.83h-.15c-.41-.1-.81-.17-1.19-.21-.39-.04-.84-.07-1.37-.07-.85,0-1.67.19-2.46.56-.79.38-1.55.86-2.29,1.46v11.62h-2.75v-16.36h2.75v2.42M378.92,38.12c-1.18,0-2.27-.17-3.25-.52-.99-.35-1.83-.87-2.53-1.57-.71-.7-1.26-1.59-1.66-2.67-.39-1.07-.59-2.33-.59-3.76,0-2.68.74-4.78,2.2-6.3,1.47-1.52,3.41-2.29,5.82-2.29.94,0,1.86.13,2.76.4s1.73.59,2.48.97v3.06h-.15c-.84-.65-1.71-1.16-2.6-1.51-.89-.35-1.77-.53-2.61-.53-1.56,0-2.8.53-3.7,1.57-.9,1.05-1.35,2.59-1.35,4.62s.44,3.49,1.33,4.55c.88,1.06,2.13,1.59,3.73,1.59.56,0,1.12-.07,1.7-.22.58-.15,1.09-.34,1.55-.57.4-.21.78-.42,1.13-.65.35-.23.63-.43.83-.59h.15v3.03c-.92.44-1.79.78-2.61,1.03-.83.24-1.7.37-2.63.37M312.75,35.82c1.21,0,2.16-.2,2.84-.59.68-.39,1.03-1.01,1.03-1.85,0-.64-.19-1.13-.56-1.47-.37-.33-1.08-.62-2.14-.85-.39-.09-.9-.19-1.53-.31-.63-.12-1.2-.24-1.72-.38-1.44-.38-2.45-.94-3.05-1.68-.6-.74-.9-1.64-.9-2.72,0-.67.14-1.31.42-1.9s.7-1.13,1.27-1.6c.55-.46,1.24-.82,2.09-1.09.84-.27,1.79-.4,2.83-.4.98,0,1.97.12,2.97.36,1,.24,1.83.53,2.5.87v2.94h-.15c-.7-.52-1.56-.95-2.56-1.31-1.01-.36-1.99-.53-2.96-.53s-1.86.19-2.55.58c-.69.39-1.04.96-1.04,1.72,0,.67.21,1.18.63,1.52.41.34,1.07.62,1.99.83.51.12,1.08.23,1.71.35.63.12,1.15.22,1.57.32,1.28.29,2.27.8,2.96,1.51.69.72,1.04,1.68,1.04,2.87,0,1.49-.62,2.72-1.85,3.68-1.24.96-2.92,1.44-5.06,1.44-1.21,0-2.32-.14-3.33-.43-1.01-.29-1.86-.6-2.54-.94v-3.09h.15c.87.65,1.84,1.17,2.9,1.56,1.06.39,2.08.58,3.06.58M341.5,24.54v-2.8c.54-.15,1.31-.31,2.33-.48s2.02-.26,3-.26c1.15,0,2.16.1,3.01.29.85.19,1.59.52,2.22.97.62.45,1.08,1.03,1.41,1.74.32.71.48,1.6.48,2.65v11.1h-2.74v-1.74c-.24.17-.57.4-.99.7s-.82.53-1.21.71c-.46.22-.99.41-1.58.56-.6.15-1.29.23-2.09.23-1.47,0-2.72-.49-3.75-1.47-1.03-.98-1.54-2.22-1.54-3.74,0-1.24.27-2.24.8-3.01.53-.77,1.29-1.37,2.28-1.81,1-.44,2.19-.74,3.59-.89,1.4-.16,2.9-.27,4.5-.35v-.42c0-.62-.11-1.14-.33-1.55-.22-.41-.53-.73-.94-.97-.39-.22-.86-.38-1.41-.45-.55-.08-1.12-.12-1.71-.12-.72,0-1.53.1-2.42.29-.89.19-1.81.47-2.75.83h-.15M237.31,38.13c-2.71,0-4.83-.73-6.36-2.2-1.52-1.47-2.29-3.56-2.29-6.26s.73-4.8,2.19-6.37c1.46-1.57,3.38-2.36,5.76-2.36,2.21,0,3.91.64,5.11,1.93,1.2,1.29,1.79,3.12,1.79,5.49v1.49h-12.06c0,1.01.15,1.88.45,2.63.3.75.72,1.36,1.25,1.84.51.47,1.11.82,1.81,1.05.7.23,1.47.35,2.31.35,1.11,0,2.23-.22,3.36-.67,1.13-.44,1.93-.88,2.41-1.31h.15v3c-.93.39-1.87.72-2.84.98-.97.26-1.98.4-3.05.4M250.45,23.1c.73-.62,1.56-1.13,2.47-1.55.91-.42,1.89-.62,2.92-.62,1.97,0,3.51.75,4.61,2.23,1.1,1.49,1.65,3.56,1.65,6.2,0,1.33-.19,2.54-.57,3.64-.38,1.1-.92,2.03-1.61,2.79-.64.72-1.4,1.28-2.28,1.68-.87.4-1.8.59-2.78.59-.85,0-1.62-.09-2.31-.28-.69-.19-1.39-.47-2.1-.86v6.86h-2.75v-22.4h2.75v1.71M330.86,38.13c-2.71,0-4.83-.73-6.36-2.2-1.52-1.47-2.29-3.56-2.29-6.26s.73-4.8,2.19-6.37c1.46-1.57,3.38-2.36,5.76-2.36,2.21,0,3.91.64,5.1,1.93,1.2,1.29,1.79,3.12,1.79,5.49v1.49h-12.06c0,1.01.15,1.88.45,2.63.3.75.72,1.36,1.25,1.84.51.47,1.11.82,1.81,1.05.7.23,1.47.35,2.31.35,1.11,0,2.23-.22,3.36-.67,1.13-.44,1.93-.88,2.41-1.31h.15v3c-.93.39-1.87.72-2.84.98-.97.26-1.98.4-3.05.4M177,33.05v-14h14v14h-14M264.59,23.7v-2.31h1.86v-4.7h2.75v4.7h5.68v2.31h-5.68v7.46c0,.86.02,1.53.06,2.01.04.48.18.94.41,1.36.21.39.51.68.89.86.38.18.95.27,1.72.27.45,0,.92-.07,1.41-.2.49-.13.84-.24,1.05-.33h.15v2.48c-.52.14-1.08.25-1.69.34-.61.09-1.15.13-1.63.13-1.67,0-2.94-.45-3.81-1.35-.87-.9-1.3-2.34-1.3-4.32v-8.7h-1.86M206.93,37.75V15.94h5.45c2.13,0,3.82.15,5.08.46,1.25.31,2.32.73,3.19,1.27,1.48.93,2.64,2.16,3.47,3.71.83,1.54,1.25,3.37,1.25,5.49,0,1.98-.43,3.78-1.3,5.39-.86,1.61-2.01,2.86-3.45,3.75-1,.62-2.11,1.06-3.33,1.33-1.23.27-2.84.41-4.84.41h-5.51M278.21,37.75V14.96h2.75v8.25c.86-.71,1.75-1.27,2.67-1.67.92-.4,1.86-.6,2.83-.6,1.77,0,3.12.53,4.04,1.6.93,1.06,1.39,2.6,1.39,4.6v10.62h-2.75v-9.32c0-.75-.04-1.46-.13-2.12-.09-.66-.25-1.17-.48-1.55-.24-.41-.6-.71-1.05-.92-.46-.2-1.05-.3-1.79-.3s-1.54.19-2.36.56c-.82.37-1.61.84-2.36,1.42v12.22h-2.75M387.69,37.75V14.96h2.75v8.25c.86-.71,1.75-1.27,2.67-1.67.92-.4,1.86-.6,2.83-.6,1.77,0,3.12.53,4.04,1.6.93,1.06,1.39,2.6,1.39,4.6v10.62h-2.75v-9.32c0-.75-.04-1.46-.13-2.12-.09-.66-.25-1.17-.48-1.55-.24-.41-.6-.71-1.05-.92-.46-.2-1.05-.3-1.79-.3s-1.54.19-2.36.56c-.82.37-1.61.84-2.36,1.42v12.22h-2.75M432.25,5.05H164v42h268.25V5.05" style="fill: #fff;"/>
    <path d="M367.46,21.39c-.87,0-1.72.18-2.56.55-.83.37-1.8.99-2.89,1.87v-2.42h-2.75v16.36h2.75v-11.62c.73-.6,1.49-1.08,2.29-1.46.79-.38,1.61-.56,2.46-.56.53,0,.98.02,1.37.07.39.05.78.12,1.19.21h.15v-2.83c-.43-.07-.75-.11-.97-.14-.21-.02-.56-.04-1.04-.04M378.92,21.01c-2.41,0-4.35.76-5.82,2.29-1.47,1.52-2.2,3.62-2.2,6.3,0,1.44.2,2.69.59,3.76.39,1.07.94,1.96,1.66,2.67.7.7,1.55,1.23,2.53,1.57.99.35,2.07.52,3.25.52.93,0,1.8-.12,2.63-.37.83-.24,1.7-.59,2.61-1.03v-3.03h-.15c-.21.17-.48.36-.83.59-.35.23-.73.45-1.13.65-.46.23-.98.42-1.55.57-.58.15-1.14.22-1.7.22-1.6,0-2.84-.53-3.73-1.59-.88-1.06-1.33-2.58-1.33-4.55s.45-3.57,1.35-4.62c.9-1.05,2.14-1.57,3.7-1.57.85,0,1.72.18,2.61.53.89.35,1.76.85,2.6,1.51h.15v-3.06c-.75-.38-1.58-.7-2.48-.97s-1.82-.4-2.76-.4M313.32,20.99c-1.04,0-1.99.13-2.83.4-.84.27-1.54.63-2.09,1.09-.57.47-.99,1-1.27,1.6s-.42,1.23-.42,1.9c0,1.07.3,1.98.9,2.72.6.74,1.62,1.3,3.05,1.68.52.14,1.09.26,1.72.38.63.12,1.14.22,1.53.31,1.05.23,1.77.52,2.14.85.37.33.56.82.56,1.47,0,.84-.34,1.45-1.03,1.85-.68.39-1.63.59-2.84.59-.98,0-2-.19-3.06-.58-1.06-.39-2.03-.91-2.9-1.56h-.15v3.09c.68.34,1.53.66,2.54.94,1.01.29,2.12.43,3.33.43,2.14,0,3.83-.48,5.06-1.44,1.24-.96,1.85-2.18,1.85-3.68,0-1.19-.35-2.15-1.04-2.87-.69-.71-1.68-1.22-2.96-1.51-.42-.1-.94-.21-1.57-.32-.63-.12-1.2-.23-1.71-.35-.92-.21-1.58-.49-1.99-.83-.42-.34-.63-.85-.63-1.52,0-.76.35-1.34,1.04-1.72.69-.39,1.54-.58,2.55-.58s1.95.18,2.96.53c1.01.36,1.86.79,2.56,1.31h.15v-2.94c-.66-.34-1.5-.63-2.5-.87-1-.24-1.99-.36-2.97-.36M346.34,35.64c-1.16,0-2.03-.24-2.59-.71-.57-.47-.85-1.18-.85-2.12,0-.83.24-1.48.73-1.96.49-.47,1.13-.82,1.92-1.05.66-.19,1.56-.33,2.7-.42,1.14-.1,2.13-.17,2.97-.22v4.56c-.68.53-1.43.98-2.23,1.35-.8.38-1.68.56-2.65.56M346.84,20.99c-.99,0-1.99.09-3,.26s-1.79.34-2.33.48v2.8h.15c.95-.36,1.87-.64,2.75-.83.89-.19,1.69-.29,2.42-.29.6,0,1.17.04,1.71.12.55.08,1.02.23,1.41.45.41.23.73.56.94.97.22.41.33.93.33,1.55v.42c-1.6.08-3.1.2-4.5.35-1.4.16-2.59.45-3.59.89-.99.44-1.75,1.04-2.28,1.81-.53.77-.8,1.77-.8,3.01,0,1.51.51,2.76,1.54,3.74,1.03.98,2.28,1.47,3.75,1.47.8,0,1.5-.08,2.09-.23.6-.15,1.12-.34,1.58-.56.39-.18.79-.41,1.21-.71s.74-.53.99-.7v1.74h2.74v-11.1c0-1.05-.16-1.94-.48-2.65-.32-.71-.79-1.29-1.41-1.74-.62-.46-1.36-.78-2.22-.97-.85-.19-1.86-.29-3.01-.29M231.47,27.75c.12-1.29.61-2.37,1.49-3.24.87-.87,2.05-1.3,3.52-1.3s2.56.4,3.27,1.19c.72.79,1.08,1.91,1.09,3.35h-9.38M236.62,20.93c-2.38,0-4.3.79-5.76,2.36-1.46,1.57-2.19,3.7-2.19,6.37s.76,4.79,2.29,6.26c1.52,1.47,3.64,2.2,6.36,2.2,1.06,0,2.08-.13,3.05-.4.97-.26,1.91-.59,2.84-.98v-3h-.15c-.48.43-1.28.87-2.41,1.31-1.13.44-2.25.67-3.36.67-.84,0-1.61-.12-2.31-.35-.7-.23-1.3-.59-1.81-1.05-.53-.48-.94-1.09-1.25-1.84-.3-.75-.45-1.62-.45-2.63h12.06v-1.49c0-2.37-.6-4.2-1.79-5.49-1.2-1.29-2.9-1.93-5.11-1.93M254.38,35.6c-.71,0-1.35-.06-1.91-.19-.56-.13-1.23-.37-2.01-.72v-9.27c.73-.56,1.5-1.01,2.3-1.35.8-.34,1.6-.51,2.39-.51,1.4,0,2.43.49,3.11,1.46.67.98,1.01,2.45,1.01,4.42s-.43,3.56-1.29,4.6c-.86,1.04-2.06,1.55-3.59,1.55M255.84,20.93c-1.04,0-2.01.21-2.92.62-.91.42-1.74.93-2.47,1.55v-1.71h-2.75v22.4h2.75v-6.86c.71.39,1.41.68,2.1.86.69.19,1.46.28,2.31.28.98,0,1.9-.2,2.78-.59.87-.39,1.63-.95,2.28-1.68.69-.76,1.23-1.69,1.61-2.79.38-1.1.57-2.31.57-3.64,0-2.65-.55-4.71-1.65-6.2-1.1-1.49-2.63-2.23-4.61-2.23M325.01,27.75c.12-1.29.61-2.37,1.49-3.24.87-.87,2.05-1.3,3.52-1.3s2.56.4,3.27,1.19c.72.79,1.08,1.91,1.09,3.35h-9.37M330.17,20.93c-2.38,0-4.3.79-5.76,2.36-1.46,1.57-2.19,3.7-2.19,6.37s.76,4.79,2.29,6.26c1.52,1.47,3.64,2.2,6.36,2.2,1.06,0,2.08-.13,3.05-.4.97-.26,1.91-.59,2.84-.98v-3h-.15c-.48.43-1.28.87-2.41,1.31-1.13.44-2.25.67-3.36.67-.84,0-1.61-.12-2.31-.35-.7-.23-1.3-.59-1.81-1.05-.53-.48-.94-1.09-1.25-1.84-.3-.75-.45-1.62-.45-2.63h12.06v-1.49c0-2.37-.6-4.2-1.79-5.49-1.2-1.29-2.9-1.93-5.1-1.93M269.2,16.69h-2.75v4.7h-1.86v2.31h1.86v8.7c0,1.98.43,3.42,1.3,4.32.87.9,2.14,1.35,3.81,1.35.48,0,1.02-.04,1.63-.13.61-.09,1.17-.2,1.69-.34v-2.48h-.15c-.22.09-.57.2-1.05.33-.49.13-.96.2-1.41.2-.77,0-1.35-.09-1.72-.27-.38-.18-.67-.47-.89-.86-.23-.42-.37-.87-.41-1.36-.04-.48-.06-1.15-.06-2.01v-7.46h5.68v-2.31h-5.68v-4.7M209.83,35.26v-16.83h2.72c1.35,0,2.5.09,3.47.29.97.19,1.88.53,2.74,1.02,1.18.67,2.07,1.6,2.67,2.77.6,1.17.89,2.61.89,4.32s-.27,3.12-.81,4.25c-.54,1.13-1.36,2.05-2.44,2.74-.87.56-1.82.94-2.86,1.14-1.04.21-2.26.31-3.65.31h-2.72M212.38,15.94h-5.45v21.81h5.51c2,0,3.62-.14,4.84-.41,1.23-.27,2.34-.72,3.33-1.33,1.44-.89,2.59-2.14,3.45-3.75.86-1.61,1.3-3.41,1.3-5.39,0-2.12-.42-3.95-1.25-5.49-.83-1.54-1.99-2.78-3.47-3.71-.87-.54-1.93-.96-3.19-1.27-1.25-.31-2.95-.46-5.08-.46M280.96,14.96h-2.75v22.79h2.75v-12.22c.75-.58,1.54-1.05,2.36-1.42.82-.37,1.61-.56,2.36-.56s1.33.1,1.79.3c.46.2.81.51,1.05.92.23.37.4.89.48,1.55.09.66.13,1.37.13,2.12v9.32h2.75v-10.62c0-2-.46-3.54-1.39-4.6-.93-1.06-2.28-1.6-4.04-1.6-.97,0-1.91.2-2.83.6-.92.4-1.81.96-2.67,1.67v-8.25M390.45,14.96h-2.75v22.79h2.75v-12.22c.75-.58,1.54-1.05,2.36-1.42.82-.37,1.61-.56,2.36-.56s1.33.1,1.79.3c.46.2.81.51,1.05.92.23.37.4.89.48,1.55.09.66.13,1.37.13,2.12v9.32h2.75v-10.62c0-2-.46-3.54-1.39-4.6-.93-1.06-2.28-1.6-4.04-1.6-.97,0-1.91.2-2.83.6-.92.4-1.81.96-2.67,1.67v-8.25" style="fill: #444;"/>
    <polyline points="189 21.05 179 21.05 179 31.05 189 31.05 189 21.05" style="fill: #d5b1fc;"/>
    <path d="M190,32.05h0v-1,1h1-1M179,31.05v-10h10v10h-10M191,19.05h-14v14h14v-14" style="fill: #ab63fa;"/>
    <path d="M429.64,69.13c0-2-.46-3.54-1.39-4.6-.93-1.06-2.28-1.6-4.04-1.6-.97,0-1.91.2-2.83.6-.92.4-1.81.96-2.67,1.67v-8.25h-2.75v22.79h2.75v-12.22c.75-.58,1.54-1.05,2.36-1.42.82-.37,1.61-.56,2.36-.56s1.33.1,1.79.3c.46.2.81.51,1.05.92.23.37.4.89.48,1.55.09.66.13,1.37.13,2.12v9.32h2.75v-10.62M412.43,75.69h-.15c-.21.17-.48.36-.84.59-.35.23-.73.45-1.13.65-.46.23-.98.42-1.55.57-.58.15-1.14.22-1.7.22-1.6,0-2.84-.53-3.73-1.59-.88-1.06-1.33-2.58-1.33-4.55s.45-3.57,1.36-4.62c.9-1.05,2.14-1.57,3.7-1.57.85,0,1.72.18,2.61.53.89.35,1.76.85,2.6,1.51h.15v-3.06c-.75-.38-1.58-.7-2.48-.97-.9-.26-1.82-.4-2.76-.4-2.41,0-4.35.76-5.82,2.29-1.47,1.52-2.2,3.62-2.2,6.3,0,1.44.2,2.69.59,3.76.39,1.07.94,1.96,1.66,2.67.7.7,1.55,1.23,2.53,1.57.99.35,2.07.52,3.25.52.93,0,1.8-.12,2.63-.37.83-.24,1.7-.59,2.61-1.03v-3.03M397.74,63.56c-.43-.07-.75-.11-.97-.14-.21-.02-.56-.04-1.04-.04-.87,0-1.72.18-2.56.55-.84.37-1.8.99-2.89,1.87v-2.42h-2.75v16.36h2.75v-11.62c.73-.6,1.49-1.08,2.29-1.46.79-.38,1.61-.56,2.46-.56.53,0,.98.02,1.37.07.39.04.78.12,1.19.21h.15v-2.83M377.26,77.08c-.8.38-1.68.56-2.65.56-1.16,0-2.03-.24-2.59-.71-.57-.47-.85-1.18-.85-2.12,0-.83.24-1.48.73-1.96.49-.47,1.13-.82,1.92-1.05.66-.19,1.56-.33,2.7-.42,1.14-.1,2.13-.17,2.97-.22v4.56c-.68.53-1.43.98-2.23,1.35M382.23,68.65c0-1.05-.16-1.94-.48-2.65-.32-.71-.79-1.29-1.41-1.74-.63-.46-1.36-.78-2.22-.97-.85-.19-1.86-.29-3.01-.29-.99,0-1.99.09-3,.26-1.02.18-1.79.34-2.33.48v2.8h.15c.95-.36,1.87-.64,2.75-.83.89-.19,1.69-.29,2.42-.29.6,0,1.17.04,1.71.12.55.08,1.02.23,1.41.45.41.23.73.56.95.97.22.41.33.93.33,1.55v.42c-1.6.08-3.1.2-4.5.35-1.4.16-2.59.45-3.59.89-.99.44-1.75,1.04-2.28,1.81-.53.77-.8,1.77-.8,3.01,0,1.51.51,2.76,1.54,3.74,1.03.98,2.28,1.46,3.75,1.46.8,0,1.5-.08,2.09-.23.6-.15,1.12-.34,1.58-.56.39-.18.79-.41,1.21-.71.42-.3.74-.53.99-.7v1.74h2.74v-11.1M353.28,69.75c.12-1.29.61-2.37,1.49-3.24.87-.87,2.05-1.3,3.52-1.3s2.56.4,3.27,1.19,1.08,1.91,1.09,3.35h-9.37M365.34,70.36c0-2.37-.6-4.2-1.79-5.49-1.2-1.29-2.9-1.93-5.1-1.93-2.38,0-4.3.79-5.76,2.36-1.46,1.57-2.19,3.7-2.19,6.37s.76,4.79,2.29,6.26c1.52,1.47,3.64,2.21,6.36,2.21,1.06,0,2.08-.13,3.05-.4.97-.26,1.91-.59,2.84-.98v-3h-.15c-.48.43-1.28.87-2.41,1.31-1.13.44-2.25.67-3.36.67-.84,0-1.61-.12-2.31-.35-.7-.23-1.3-.59-1.81-1.05-.53-.48-.94-1.09-1.25-1.84-.3-.75-.45-1.62-.45-2.63h12.06v-1.49M346.66,72.16c-.69-.71-1.68-1.22-2.96-1.51-.42-.1-.94-.21-1.57-.32-.63-.12-1.2-.23-1.71-.35-.92-.21-1.58-.49-1.99-.83-.42-.34-.63-.85-.63-1.52,0-.76.35-1.33,1.04-1.72.69-.39,1.54-.58,2.55-.58s1.95.18,2.96.53c1.01.36,1.86.79,2.56,1.31h.15v-2.94c-.66-.34-1.5-.63-2.5-.87-1-.24-1.99-.36-2.97-.36-1.04,0-1.99.13-2.83.4-.84.27-1.54.63-2.09,1.09-.57.47-.99,1-1.27,1.6-.28.6-.42,1.23-.42,1.9,0,1.07.3,1.98.9,2.72.6.74,1.62,1.3,3.05,1.68.52.14,1.09.26,1.72.38.63.12,1.14.22,1.53.31,1.05.23,1.77.52,2.14.85.37.33.56.82.56,1.46,0,.84-.34,1.45-1.03,1.85-.68.39-1.63.59-2.84.59-.98,0-2-.19-3.06-.58-1.06-.39-2.03-.91-2.9-1.56h-.15v3.09c.68.34,1.53.66,2.54.94,1.01.29,2.12.43,3.33.43,2.14,0,3.83-.48,5.06-1.44,1.24-.96,1.85-2.18,1.85-3.68,0-1.19-.35-2.15-1.04-2.87M320.16,69.13c0-2-.46-3.54-1.39-4.6-.93-1.06-2.28-1.6-4.04-1.6-.97,0-1.91.2-2.83.6-.92.4-1.81.96-2.67,1.67v-8.25h-2.75v22.79h2.75v-12.22c.75-.58,1.54-1.05,2.36-1.42.82-.37,1.61-.56,2.36-.56s1.33.1,1.79.3c.46.2.81.51,1.05.92.23.37.4.89.48,1.55.09.66.13,1.37.13,2.12v9.32h2.75v-10.62M303.16,77.13h-.15c-.21.09-.57.2-1.05.33-.49.13-.96.2-1.41.2-.77,0-1.35-.09-1.72-.27-.38-.18-.67-.47-.89-.86-.23-.42-.37-.87-.41-1.36-.04-.48-.06-1.15-.06-2.01v-7.46h5.68v-2.31h-5.68v-4.7h-2.75v4.7h-1.86v2.31h1.86v8.7c0,1.98.43,3.42,1.3,4.32.87.9,2.14,1.35,3.81,1.35.48,0,1.02-.04,1.63-.13.61-.09,1.17-.2,1.69-.34v-2.48M284.24,77.06c-.8.35-1.59.52-2.37.52-1.46,0-2.53-.51-3.19-1.52-.66-1.01-1-2.49-1-4.43s.43-3.5,1.29-4.57c.86-1.07,2.06-1.61,3.6-1.61.69,0,1.33.06,1.92.19.59.13,1.25.36,1.99.69v9.39c-.69.55-1.44.99-2.24,1.34M289.24,56.96h-2.75v7.09c-.73-.38-1.43-.66-2.09-.84-.66-.18-1.43-.27-2.29-.27-.95,0-1.86.2-2.75.59-.88.39-1.66.96-2.32,1.7-.67.76-1.21,1.68-1.6,2.77s-.59,2.32-.59,3.71c0,2.67.57,4.75,1.72,6.25,1.15,1.5,2.7,2.26,4.65,2.26,1.01,0,1.94-.19,2.8-.57.86-.38,1.68-.91,2.48-1.6v1.71h2.75v-22.79M265.7,77.08c-.8.38-1.68.56-2.65.56-1.16,0-2.03-.24-2.59-.71-.57-.47-.85-1.18-.85-2.12,0-.83.24-1.48.73-1.96.49-.47,1.13-.82,1.92-1.05.66-.19,1.57-.33,2.7-.42,1.14-.1,2.13-.17,2.97-.22v4.56c-.68.53-1.43.98-2.23,1.35M270.67,68.65c0-1.05-.16-1.94-.48-2.65-.32-.71-.79-1.29-1.41-1.74-.62-.46-1.36-.78-2.22-.97-.85-.19-1.86-.29-3.01-.29-.99,0-1.99.09-3,.26-1.02.18-1.79.34-2.33.48v2.8h.15c.95-.36,1.87-.64,2.75-.83.89-.19,1.69-.29,2.42-.29.6,0,1.17.04,1.71.12.55.08,1.02.23,1.41.45.41.23.72.56.94.97.22.41.33.93.33,1.55v.42c-1.6.08-3.1.2-4.5.35-1.4.16-2.59.45-3.59.89-.99.44-1.75,1.04-2.28,1.81-.53.77-.8,1.77-.8,3.01,0,1.51.51,2.76,1.54,3.74,1.03.98,2.28,1.46,3.75,1.46.8,0,1.5-.08,2.09-.23.6-.15,1.12-.34,1.58-.56.39-.18.79-.41,1.21-.71.42-.3.74-.53.99-.7v1.74h2.74v-11.1M241.72,69.75c.12-1.29.61-2.37,1.49-3.24.87-.87,2.05-1.3,3.52-1.3s2.56.4,3.27,1.19c.72.79,1.08,1.91,1.09,3.35h-9.38M253.78,70.36c0-2.37-.6-4.2-1.79-5.49-1.2-1.29-2.9-1.93-5.11-1.93-2.38,0-4.3.79-5.76,2.36-1.46,1.57-2.19,3.7-2.19,6.37s.76,4.79,2.29,6.26c1.52,1.47,3.64,2.21,6.36,2.21,1.06,0,2.08-.13,3.05-.4.97-.26,1.91-.59,2.84-.98v-3h-.15c-.48.43-1.28.87-2.41,1.31-1.13.44-2.25.67-3.36.67-.84,0-1.61-.12-2.31-.35-.7-.23-1.3-.59-1.81-1.05-.53-.48-.94-1.09-1.25-1.84-.3-.75-.45-1.62-.45-2.63h12.06v-1.49M237.49,63.56c-.43-.07-.75-.11-.97-.14-.21-.02-.56-.04-1.04-.04-.87,0-1.72.18-2.56.55-.84.37-1.8.99-2.89,1.87v-2.42h-2.75v16.36h2.75v-11.62c.73-.6,1.49-1.08,2.29-1.46.79-.38,1.61-.56,2.46-.56.53,0,.98.02,1.37.07.39.04.78.12,1.19.21h.15v-2.83M219.98,75.05c-.25.49-.65.92-1.2,1.3-.52.35-1.18.59-1.99.72-.81.13-1.85.2-3.12.2h-3.84v-8.12h4.56c.96,0,1.77.04,2.44.11.67.07,1.24.23,1.71.48.69.36,1.17.8,1.44,1.32.26.52.4,1.22.4,2.09,0,.77-.13,1.4-.38,1.89M218.22,64.86c-.19.46-.52.84-.97,1.14-.46.29-.96.49-1.49.58-.54.09-1.26.14-2.17.14h-3.75v-6.3h3.46c.97,0,1.78.03,2.43.1.65.06,1.21.23,1.67.49.39.22.67.52.85.88.18.36.26.81.26,1.33,0,.63-.1,1.18-.29,1.65M222.11,69.28c-.85-.99-2.01-1.64-3.49-1.94v-.12c.88-.44,1.58-1.02,2.11-1.75.53-.73.79-1.61.79-2.64,0-.92-.18-1.71-.54-2.37-.36-.66-.94-1.2-1.74-1.62-.72-.37-1.48-.62-2.27-.73-.79-.12-1.98-.18-3.57-.18h-6.46v21.81h7.73c1.51,0,2.76-.14,3.74-.41.98-.27,1.88-.73,2.7-1.38.69-.54,1.25-1.22,1.66-2.05.41-.83.62-1.79.62-2.87,0-1.51-.42-2.77-1.27-3.76" style="fill: #444;"/>
    <polyline points="190 74.05 190 73.05 179 73.05 179 63.05 189 63.05 189 74.05 190 74.05 190 73.05 190 74.05 191 74.05 191 61.05 177 61.05 177 75.05 191 75.05 191 74.05 190 74.05" style="fill: #ffa15a;"/>
    <path d="M267.93,71.17c-.84.05-1.83.12-2.97.22-1.14.1-2.04.24-2.7.42-.79.22-1.43.57-1.92,1.05-.49.47-.73,1.13-.73,1.96,0,.94.28,1.64.85,2.12.57.47,1.43.71,2.59.71.97,0,1.85-.19,2.65-.56.8-.38,1.54-.83,2.23-1.35v-4.56M379.49,71.17c-.84.05-1.83.12-2.97.22-1.14.1-2.04.24-2.7.42-.79.22-1.43.57-1.92,1.05-.49.47-.73,1.13-.73,1.96,0,.94.28,1.64.85,2.12.57.47,1.43.71,2.59.71.97,0,1.85-.19,2.65-.56.8-.38,1.54-.83,2.23-1.35v-4.56M214.39,69.16h-4.56v8.12h3.84c1.27,0,2.31-.07,3.12-.2.81-.13,1.47-.37,1.99-.72.55-.38.95-.82,1.2-1.3.25-.49.38-1.12.38-1.89,0-.88-.13-1.58-.4-2.09-.26-.52-.74-.96-1.44-1.32-.47-.24-1.04-.4-1.71-.48-.67-.07-1.48-.11-2.44-.11M282.57,65.45c-1.54,0-2.74.54-3.6,1.61-.86,1.07-1.29,2.6-1.29,4.57s.33,3.42,1,4.43c.66,1.01,1.73,1.52,3.19,1.52.78,0,1.57-.17,2.37-.52.8-.35,1.55-.79,2.24-1.34v-9.39c-.74-.33-1.41-.56-1.99-.69-.59-.13-1.23-.19-1.92-.19M246.73,65.2c-1.47,0-2.65.43-3.52,1.3-.87.87-1.37,1.95-1.49,3.24h9.38c0-1.45-.37-2.56-1.09-3.35-.72-.79-1.81-1.19-3.27-1.19M358.29,65.2c-1.47,0-2.65.43-3.52,1.3-.87.87-1.37,1.95-1.49,3.24h9.37c0-1.45-.37-2.56-1.09-3.35s-1.81-1.19-3.27-1.19M213.29,60.41h-3.46v6.3h3.75c.91,0,1.63-.05,2.17-.14.54-.09,1.04-.29,1.49-.58.46-.29.78-.67.97-1.14.19-.46.29-1.01.29-1.65,0-.53-.09-.97-.26-1.33-.18-.36-.46-.65-.85-.88-.46-.26-1.02-.43-1.67-.49-.65-.06-1.46-.1-2.43-.1M230.03,65.81c1.09-.88,2.06-1.5,2.89-1.87.83-.37,1.69-.55,2.56-.55.48,0,.83.01,1.04.04.21.03.54.07.97.14v2.83h-.15c-.41-.1-.81-.17-1.19-.21-.39-.04-.84-.07-1.37-.07-.85,0-1.67.19-2.46.56-.79.38-1.55.86-2.29,1.46v11.62h-2.75v-16.36h2.75v2.42M390.28,65.81c1.09-.88,2.06-1.5,2.89-1.87.83-.37,1.69-.55,2.56-.55.48,0,.83.01,1.04.04.21.03.54.07.97.14v2.83h-.15c-.41-.1-.81-.17-1.19-.21-.39-.04-.84-.07-1.37-.07-.85,0-1.67.19-2.46.56-.79.38-1.55.86-2.29,1.46v11.62h-2.75v-16.36h2.75v2.42M407.19,80.12c-1.18,0-2.27-.17-3.25-.52-.99-.35-1.83-.87-2.53-1.57-.71-.7-1.26-1.59-1.66-2.67-.39-1.07-.59-2.33-.59-3.76,0-2.68.73-4.78,2.2-6.3,1.47-1.52,3.41-2.29,5.82-2.29.94,0,1.86.13,2.76.4.9.26,1.73.59,2.48.97v3.06h-.15c-.84-.65-1.71-1.16-2.6-1.51-.89-.35-1.77-.53-2.61-.53-1.56,0-2.8.53-3.7,1.57-.9,1.05-1.36,2.59-1.36,4.62s.44,3.49,1.33,4.55c.88,1.06,2.13,1.59,3.73,1.59.56,0,1.12-.07,1.7-.22.58-.15,1.09-.34,1.55-.57.4-.21.78-.42,1.13-.65.35-.23.63-.43.84-.59h.15v3.03c-.92.44-1.79.78-2.61,1.03-.83.24-1.7.37-2.63.37M258.21,66.54v-2.8c.54-.15,1.31-.31,2.33-.48,1.02-.18,2.02-.26,3-.26,1.15,0,2.16.1,3.01.29.85.19,1.59.52,2.22.97.62.45,1.08,1.03,1.41,1.74.32.71.48,1.6.48,2.65v11.1h-2.74v-1.74c-.24.17-.57.4-.99.7-.42.3-.82.53-1.21.71-.46.22-.99.41-1.58.56-.6.15-1.29.23-2.09.23-1.47,0-2.72-.49-3.75-1.46-1.03-.98-1.54-2.22-1.54-3.74,0-1.24.27-2.24.8-3.01.53-.77,1.29-1.37,2.28-1.81,1-.44,2.19-.74,3.59-.89,1.4-.16,2.9-.27,4.5-.35v-.42c0-.63-.11-1.14-.33-1.55-.22-.41-.53-.73-.94-.97-.39-.22-.86-.38-1.41-.45-.55-.08-1.12-.12-1.71-.12-.72,0-1.53.1-2.42.29-.89.19-1.81.47-2.75.83h-.15M341.02,77.82c1.21,0,2.16-.2,2.84-.59.68-.39,1.03-1.01,1.03-1.85,0-.64-.19-1.13-.56-1.46-.37-.33-1.08-.62-2.14-.85-.39-.09-.9-.19-1.53-.31-.63-.12-1.2-.24-1.72-.38-1.44-.38-2.45-.94-3.05-1.68-.6-.74-.9-1.64-.9-2.72,0-.67.14-1.31.42-1.9.28-.6.7-1.13,1.27-1.6.55-.46,1.24-.82,2.09-1.09.84-.27,1.79-.4,2.83-.4.98,0,1.97.12,2.97.36,1,.24,1.83.53,2.5.87v2.94h-.15c-.7-.52-1.56-.95-2.56-1.31-1.01-.36-1.99-.53-2.96-.53s-1.86.19-2.55.58c-.69.39-1.04.96-1.04,1.72,0,.67.21,1.18.63,1.52.41.34,1.07.62,1.99.83.51.12,1.08.23,1.71.35.63.12,1.15.22,1.57.32,1.28.29,2.27.8,2.96,1.51.69.72,1.04,1.68,1.04,2.87,0,1.49-.62,2.72-1.85,3.68-1.24.96-2.92,1.44-5.06,1.44-1.21,0-2.32-.14-3.33-.43-1.01-.29-1.86-.6-2.54-.94v-3.09h.15c.87.65,1.84,1.17,2.9,1.56,1.06.39,2.09.58,3.06.58M369.78,66.54v-2.8c.54-.15,1.31-.31,2.33-.48,1.02-.18,2.02-.26,3-.26,1.15,0,2.16.1,3.01.29.85.19,1.59.52,2.22.97.62.45,1.08,1.03,1.41,1.74.32.71.48,1.6.48,2.65v11.1h-2.74v-1.74c-.24.17-.57.4-.99.7-.42.3-.82.53-1.21.71-.46.22-.99.41-1.58.56-.6.15-1.29.23-2.09.23-1.47,0-2.72-.49-3.75-1.46-1.03-.98-1.54-2.22-1.54-3.74,0-1.24.27-2.24.8-3.01.53-.77,1.29-1.37,2.28-1.81,1-.44,2.19-.74,3.59-.89,1.4-.16,2.9-.27,4.5-.35v-.42c0-.63-.11-1.14-.33-1.55-.22-.41-.53-.73-.95-.97-.39-.22-.86-.38-1.41-.45-.55-.08-1.12-.12-1.71-.12-.72,0-1.53.1-2.42.29-.89.19-1.81.47-2.75.83h-.15M247.56,80.13c-2.71,0-4.83-.73-6.36-2.21-1.52-1.47-2.29-3.56-2.29-6.26s.73-4.8,2.19-6.37c1.46-1.57,3.38-2.36,5.76-2.36,2.21,0,3.91.64,5.11,1.93,1.2,1.29,1.79,3.12,1.79,5.49v1.49h-12.06c0,1.01.15,1.88.45,2.63.3.75.72,1.36,1.25,1.84.51.47,1.11.82,1.81,1.05.7.23,1.47.35,2.31.35,1.11,0,2.23-.22,3.36-.67,1.13-.44,1.93-.88,2.41-1.31h.15v3c-.93.39-1.88.72-2.84.98-.97.26-1.98.4-3.05.4M359.13,80.13c-2.71,0-4.83-.73-6.36-2.21-1.52-1.47-2.29-3.56-2.29-6.26s.73-4.8,2.19-6.37c1.46-1.57,3.38-2.36,5.76-2.36,2.21,0,3.91.64,5.1,1.93,1.2,1.29,1.79,3.12,1.79,5.49v1.49h-12.06c0,1.01.15,1.88.45,2.63.3.75.72,1.36,1.25,1.84.51.47,1.11.82,1.81,1.05.7.23,1.47.35,2.31.35,1.11,0,2.23-.22,3.36-.67,1.13-.44,1.93-.88,2.41-1.31h.15v3c-.93.39-1.88.72-2.84.98-.97.26-1.98.4-3.05.4M177,75.05v-14h14v14h-14M292.86,65.7v-2.31h1.86v-4.7h2.75v4.7h5.68v2.31h-5.68v7.46c0,.86.02,1.53.06,2.01.04.48.18.94.41,1.36.21.39.51.68.89.86.38.18.95.27,1.72.27.45,0,.92-.07,1.41-.2.49-.13.84-.24,1.05-.33h.15v2.48c-.52.14-1.08.25-1.69.34-.61.09-1.15.13-1.63.13-1.67,0-2.94-.45-3.81-1.35-.87-.9-1.3-2.34-1.3-4.32v-8.7h-1.86M206.93,79.75v-21.81h6.46c1.59,0,2.78.06,3.57.18.79.12,1.55.36,2.27.73.8.42,1.38.96,1.74,1.62.36.66.54,1.45.54,2.37,0,1.04-.26,1.92-.79,2.64-.53.73-1.23,1.31-2.11,1.75v.12c1.47.3,2.64.95,3.49,1.94.85.99,1.27,2.24,1.27,3.76,0,1.08-.21,2.04-.62,2.87-.41.83-.96,1.51-1.66,2.05-.82.64-1.72,1.1-2.7,1.38-.98.27-2.23.41-3.74.41h-7.73M286.49,64.05v-7.09h2.75v22.79h-2.75v-1.71c-.79.68-1.62,1.22-2.48,1.6-.86.38-1.79.57-2.8.57-1.95,0-3.5-.75-4.65-2.26-1.15-1.5-1.72-3.59-1.72-6.25,0-1.39.2-2.62.59-3.71s.93-2.01,1.6-2.77c.66-.74,1.44-1.31,2.32-1.7.88-.39,1.8-.59,2.75-.59.86,0,1.62.09,2.29.27.66.18,1.36.46,2.09.84M306.48,79.75v-22.79h2.75v8.25c.86-.71,1.75-1.27,2.67-1.67.92-.4,1.86-.6,2.83-.6,1.77,0,3.12.53,4.04,1.6.93,1.06,1.39,2.6,1.39,4.6v10.62h-2.75v-9.32c0-.75-.04-1.46-.13-2.12-.09-.66-.25-1.17-.48-1.55-.24-.41-.6-.71-1.05-.92-.46-.2-1.05-.3-1.79-.3s-1.54.19-2.36.56c-.82.37-1.61.84-2.36,1.42v12.22h-2.75M415.96,79.75v-22.79h2.75v8.25c.86-.71,1.75-1.27,2.67-1.67.92-.4,1.86-.6,2.83-.6,1.77,0,3.12.53,4.04,1.6.93,1.06,1.39,2.6,1.39,4.6v10.62h-2.75v-9.32c0-.75-.04-1.46-.13-2.12-.09-.66-.25-1.17-.48-1.55-.24-.41-.6-.71-1.05-.92-.46-.2-1.05-.3-1.79-.3s-1.54.19-2.36.56c-.82.37-1.61.84-2.36,1.42v12.22h-2.75M432.25,47.05H164v42h268.25v-42" style="fill: #fff;"/>
    <path d="M235.48,63.39c-.87,0-1.72.18-2.56.55-.84.37-1.8.99-2.89,1.87v-2.42h-2.75v16.36h2.75v-11.62c.73-.6,1.49-1.08,2.29-1.46.79-.38,1.61-.56,2.46-.56.53,0,.98.02,1.37.07.39.04.78.12,1.19.21h.15v-2.83c-.43-.07-.75-.11-.97-.14-.21-.02-.56-.04-1.04-.04M395.73,63.39c-.87,0-1.72.18-2.56.55-.84.37-1.8.99-2.89,1.87v-2.42h-2.75v16.36h2.75v-11.62c.73-.6,1.49-1.08,2.29-1.46.79-.38,1.61-.56,2.46-.56.53,0,.98.02,1.37.07.39.04.78.12,1.19.21h.15v-2.83c-.43-.07-.75-.11-.97-.14-.21-.02-.56-.04-1.04-.04M407.19,63.01c-2.41,0-4.35.76-5.82,2.29-1.47,1.52-2.2,3.62-2.2,6.3,0,1.44.2,2.69.59,3.76.39,1.07.94,1.96,1.66,2.67.7.7,1.55,1.23,2.53,1.57.99.35,2.07.52,3.25.52.93,0,1.8-.12,2.63-.37.83-.24,1.7-.59,2.61-1.03v-3.03h-.15c-.21.17-.48.36-.84.59-.35.23-.73.45-1.13.65-.46.23-.98.42-1.55.57-.58.15-1.14.22-1.7.22-1.6,0-2.84-.53-3.73-1.59-.88-1.06-1.33-2.58-1.33-4.55s.45-3.57,1.36-4.62c.9-1.05,2.14-1.57,3.7-1.57.85,0,1.72.18,2.61.53.89.35,1.76.85,2.6,1.51h.15v-3.06c-.75-.38-1.58-.7-2.48-.97-.9-.26-1.82-.4-2.76-.4M263.05,77.64c-1.16,0-2.03-.24-2.59-.71-.57-.47-.85-1.18-.85-2.12,0-.83.24-1.48.73-1.96.49-.47,1.13-.82,1.92-1.05.66-.19,1.57-.33,2.7-.42,1.14-.1,2.13-.17,2.97-.22v4.56c-.68.53-1.43.98-2.23,1.35-.8.38-1.68.56-2.65.56M263.55,62.99c-.99,0-1.99.09-3,.26-1.02.18-1.79.34-2.33.48v2.8h.15c.95-.36,1.87-.64,2.75-.83.89-.19,1.69-.29,2.42-.29.6,0,1.17.04,1.71.12.55.08,1.02.23,1.41.45.41.23.72.56.94.97.22.41.33.93.33,1.55v.42c-1.6.08-3.1.2-4.5.35-1.4.16-2.59.45-3.59.89-.99.44-1.75,1.04-2.28,1.81-.53.77-.8,1.77-.8,3.01,0,1.51.51,2.76,1.54,3.74,1.03.98,2.28,1.46,3.75,1.46.8,0,1.5-.08,2.09-.23.6-.15,1.12-.34,1.58-.56.39-.18.79-.41,1.21-.71.42-.3.74-.53.99-.7v1.74h2.74v-11.1c0-1.05-.16-1.94-.48-2.65-.32-.71-.79-1.29-1.41-1.74-.62-.46-1.36-.78-2.22-.97-.85-.19-1.86-.29-3.01-.29M341.59,62.99c-1.04,0-1.99.13-2.83.4-.84.27-1.54.63-2.09,1.09-.57.47-.99,1-1.27,1.6-.28.6-.42,1.23-.42,1.9,0,1.07.3,1.98.9,2.72.6.74,1.62,1.3,3.05,1.68.52.14,1.09.26,1.72.38.63.12,1.14.22,1.53.31,1.05.23,1.77.52,2.14.85.37.33.56.82.56,1.46,0,.84-.34,1.45-1.03,1.85-.68.39-1.63.59-2.84.59-.98,0-2-.19-3.06-.58-1.06-.39-2.03-.91-2.9-1.56h-.15v3.09c.68.34,1.53.66,2.54.94,1.01.29,2.12.43,3.33.43,2.14,0,3.83-.48,5.06-1.44,1.24-.96,1.85-2.18,1.85-3.68,0-1.19-.35-2.15-1.04-2.87-.69-.71-1.68-1.22-2.96-1.51-.42-.1-.94-.21-1.57-.32-.63-.12-1.2-.23-1.71-.35-.92-.21-1.58-.49-1.99-.83-.42-.34-.63-.85-.63-1.52,0-.76.35-1.33,1.04-1.72.69-.39,1.54-.58,2.55-.58s1.95.18,2.96.53c1.01.36,1.86.79,2.56,1.31h.15v-2.94c-.66-.34-1.5-.63-2.5-.87-1-.24-1.99-.36-2.97-.36M374.61,77.64c-1.16,0-2.03-.24-2.59-.71-.57-.47-.85-1.18-.85-2.12,0-.83.24-1.48.73-1.96.49-.47,1.13-.82,1.92-1.05.66-.19,1.56-.33,2.7-.42,1.14-.1,2.13-.17,2.97-.22v4.56c-.68.53-1.43.98-2.23,1.35-.8.38-1.68.56-2.65.56M375.11,62.99c-.99,0-1.99.09-3,.26-1.02.18-1.79.34-2.33.48v2.8h.15c.95-.36,1.87-.64,2.75-.83.89-.19,1.69-.29,2.42-.29.6,0,1.17.04,1.71.12.55.08,1.02.23,1.41.45.41.23.73.56.95.97.22.41.33.93.33,1.55v.42c-1.6.08-3.1.2-4.5.35-1.4.16-2.59.45-3.59.89-.99.44-1.75,1.04-2.28,1.81-.53.77-.8,1.77-.8,3.01,0,1.51.51,2.76,1.54,3.74,1.03.98,2.28,1.46,3.75,1.46.8,0,1.5-.08,2.09-.23.6-.15,1.12-.34,1.58-.56.39-.18.79-.41,1.21-.71.42-.3.74-.53.99-.7v1.74h2.74v-11.1c0-1.05-.16-1.94-.48-2.65-.32-.71-.79-1.29-1.41-1.74-.63-.46-1.36-.78-2.22-.97-.85-.19-1.86-.29-3.01-.29M241.72,69.75c.12-1.29.61-2.37,1.49-3.24.87-.87,2.05-1.3,3.52-1.3s2.56.4,3.27,1.19c.72.79,1.08,1.91,1.09,3.35h-9.38M246.88,62.93c-2.38,0-4.3.79-5.76,2.36-1.46,1.57-2.19,3.7-2.19,6.37s.76,4.79,2.29,6.26c1.52,1.47,3.64,2.21,6.36,2.21,1.06,0,2.08-.13,3.05-.4.97-.26,1.91-.59,2.84-.98v-3h-.15c-.48.43-1.28.87-2.41,1.31-1.13.44-2.25.67-3.36.67-.84,0-1.61-.12-2.31-.35-.7-.23-1.3-.59-1.81-1.05-.53-.48-.94-1.09-1.25-1.84-.3-.75-.45-1.62-.45-2.63h12.06v-1.49c0-2.37-.6-4.2-1.79-5.49-1.2-1.29-2.9-1.93-5.11-1.93M353.28,69.75c.12-1.29.61-2.37,1.49-3.24.87-.87,2.05-1.3,3.52-1.3s2.56.4,3.27,1.19,1.08,1.91,1.09,3.35h-9.37M358.44,62.93c-2.38,0-4.3.79-5.76,2.36-1.46,1.57-2.19,3.7-2.19,6.37s.76,4.79,2.29,6.26c1.52,1.47,3.64,2.21,6.36,2.21,1.06,0,2.08-.13,3.05-.4.97-.26,1.91-.59,2.84-.98v-3h-.15c-.48.43-1.28.87-2.41,1.31-1.13.44-2.25.67-3.36.67-.84,0-1.61-.12-2.31-.35-.7-.23-1.3-.59-1.81-1.05-.53-.48-.94-1.09-1.25-1.84-.3-.75-.45-1.62-.45-2.63h12.06v-1.49c0-2.37-.6-4.2-1.79-5.49-1.2-1.29-2.9-1.93-5.1-1.93M297.47,58.69h-2.75v4.7h-1.86v2.31h1.86v8.7c0,1.98.43,3.42,1.3,4.32.87.9,2.14,1.35,3.81,1.35.48,0,1.02-.04,1.63-.13.61-.09,1.17-.2,1.69-.34v-2.48h-.15c-.21.09-.57.2-1.05.33-.49.13-.96.2-1.41.2-.77,0-1.35-.09-1.72-.27-.38-.18-.67-.47-.89-.86-.23-.42-.37-.87-.41-1.36-.04-.48-.06-1.15-.06-2.01v-7.46h5.68v-2.31h-5.68v-4.7M209.83,77.28v-8.12h4.56c.96,0,1.77.04,2.44.11.67.07,1.24.23,1.71.48.69.36,1.17.8,1.44,1.32.26.52.4,1.22.4,2.09,0,.77-.13,1.4-.38,1.89-.25.49-.65.92-1.2,1.3-.52.35-1.18.59-1.99.72-.81.13-1.85.2-3.12.2h-3.84M209.83,66.71v-6.3h3.46c.97,0,1.78.03,2.43.1.65.06,1.21.23,1.67.49.39.22.67.52.85.88.18.36.26.81.26,1.33,0,.63-.1,1.18-.29,1.65-.19.46-.52.84-.97,1.14-.46.29-.96.49-1.49.58-.54.09-1.26.14-2.17.14h-3.75M213.39,57.94h-6.46v21.81h7.73c1.51,0,2.76-.14,3.74-.41.98-.27,1.88-.73,2.7-1.38.69-.54,1.25-1.22,1.66-2.05.41-.83.62-1.79.62-2.87,0-1.51-.42-2.77-1.27-3.76-.85-.99-2.01-1.64-3.49-1.94v-.12c.88-.44,1.58-1.02,2.11-1.75.53-.73.79-1.61.79-2.64,0-.92-.18-1.71-.54-2.37-.36-.66-.94-1.2-1.74-1.62-.72-.37-1.48-.62-2.27-.73-.79-.12-1.98-.18-3.57-.18M281.87,77.58c-1.46,0-2.53-.51-3.19-1.52-.66-1.01-1-2.49-1-4.43s.43-3.5,1.29-4.57c.86-1.07,2.06-1.61,3.6-1.61.69,0,1.33.06,1.92.19.59.13,1.25.36,1.99.69v9.39c-.69.55-1.44.99-2.24,1.34-.8.35-1.59.52-2.37.52M289.24,56.96h-2.75v7.09c-.73-.38-1.43-.66-2.09-.84-.66-.18-1.43-.27-2.29-.27-.95,0-1.86.2-2.75.59-.88.39-1.66.96-2.32,1.7-.67.76-1.21,1.68-1.6,2.77s-.59,2.32-.59,3.71c0,2.67.57,4.75,1.72,6.25,1.15,1.5,2.7,2.26,4.65,2.26,1.01,0,1.94-.19,2.8-.57.86-.38,1.68-.91,2.48-1.6v1.71h2.75v-22.79M309.23,56.96h-2.75v22.79h2.75v-12.22c.75-.58,1.54-1.05,2.36-1.42.82-.37,1.61-.56,2.36-.56s1.33.1,1.79.3c.46.2.81.51,1.05.92.23.37.4.89.48,1.55.09.66.13,1.37.13,2.12v9.32h2.75v-10.62c0-2-.46-3.54-1.39-4.6-.93-1.06-2.28-1.6-4.04-1.6-.97,0-1.91.2-2.83.6-.92.4-1.81.96-2.67,1.67v-8.25M418.72,56.96h-2.75v22.79h2.75v-12.22c.75-.58,1.54-1.05,2.36-1.42.82-.37,1.61-.56,2.36-.56s1.33.1,1.79.3c.46.2.81.51,1.05.92.23.37.4.89.48,1.55.09.66.13,1.37.13,2.12v9.32h2.75v-10.62c0-2-.46-3.54-1.39-4.6-.93-1.06-2.28-1.6-4.04-1.6-.97,0-1.91.2-2.83.6-.92.4-1.81.96-2.67,1.67v-8.25" style="fill: #444;"/>
    <polyline points="189 63.05 179 63.05 179 73.05 189 73.05 189 63.05" style="fill: #ffd0ac;"/>
    <path d="M190,74.05h0v-1,1h1-1M179,73.05v-10h10v10h-10M191,61.05h-14v14h14v-14" style="fill: #ffa15a;"/>
  </g>
  <path d="M652,780.04c.14-1.55.74-2.84,1.78-3.88s2.46-1.56,4.23-1.56,3.07.47,3.93,1.42,1.3,2.29,1.31,4.03h-11.25ZM666.46,780.78c0-2.85-.72-5.04-2.15-6.59s-3.48-2.32-6.13-2.32c-2.86,0-5.17.94-6.92,2.83s-2.63,4.44-2.63,7.65.91,5.75,2.74,7.51,4.37,2.65,7.63,2.65c1.28,0,2.5-.16,3.66-.47s2.3-.71,3.41-1.18v-3.6h-.18c-.57.52-1.54,1.04-2.89,1.57s-2.7.8-4.03.8c-1.01,0-1.93-.14-2.77-.42s-1.56-.7-2.17-1.27c-.63-.57-1.13-1.31-1.49-2.21s-.54-1.95-.54-3.16h14.47v-1.79ZM645.56,789.26h-11.79l11.5-14.48v-2.36h-15.31v2.76h11.2l-11.44,14.43v2.44h15.86v-2.79ZM624.78,772.42h-3.3v19.63h3.3v-19.63ZM625,765.7h-3.73v3.43h3.73v-3.43ZM615.47,782.95c-.83-.86-2.02-1.46-3.55-1.81-.5-.12-1.13-.25-1.89-.39s-1.44-.28-2.05-.42c-1.1-.26-1.9-.59-2.39-1-.5-.41-.76-1.02-.76-1.83,0-.91.42-1.6,1.25-2.07s1.85-.69,3.06-.69,2.34.21,3.55.64,2.23.95,3.08,1.57h.18v-3.53c-.8-.41-1.8-.76-3-1.05s-2.39-.43-3.56-.43c-1.25,0-2.39.16-3.4.48s-1.85.76-2.5,1.31c-.68.56-1.19,1.2-1.52,1.92s-.5,1.48-.5,2.29c0,1.29.36,2.38,1.08,3.26s1.94,1.56,3.67,2.01c.62.16,1.31.32,2.07.46s1.37.26,1.84.37c1.27.28,2.12.62,2.57,1.02s.67.98.67,1.76c0,1.01-.41,1.75-1.23,2.21s-1.96.7-3.41.7c-1.17,0-2.4-.23-3.67-.69s-2.44-1.09-3.48-1.87h-.18v3.71c.82.41,1.84.79,3.05,1.13s2.55.52,4,.52c2.57,0,4.59-.57,6.07-1.72s2.22-2.62,2.22-4.41c0-1.43-.42-2.58-1.25-3.45ZM570.56,780.04c.14-1.55.74-2.84,1.78-3.88s2.46-1.56,4.23-1.56,3.07.47,3.93,1.42,1.3,2.29,1.31,4.03h-11.25ZM585.02,780.78c0-2.85-.72-5.04-2.15-6.59s-3.48-2.32-6.13-2.32c-2.86,0-5.17.94-6.92,2.83s-2.63,4.44-2.63,7.65.91,5.75,2.74,7.51,4.37,2.65,7.63,2.65c1.28,0,2.5-.16,3.66-.47s2.3-.71,3.41-1.18v-3.6h-.18c-.57.52-1.54,1.04-2.89,1.57s-2.7.8-4.03.8c-1.01,0-1.93-.14-2.77-.42s-1.56-.7-2.17-1.27c-.63-.57-1.13-1.31-1.49-2.21s-.54-1.95-.54-3.16h14.47v-1.79ZM562.05,764.7h-3.3v27.35h3.3v-27.35ZM548.6,787.6c-1.03,1.24-2.47,1.86-4.31,1.86-.86,0-1.62-.08-2.29-.23s-1.48-.44-2.42-.86v-11.13c.88-.67,1.8-1.21,2.76-1.62s1.92-.62,2.87-.62c1.68,0,2.92.59,3.73,1.76s1.21,2.94,1.21,5.31-.52,4.28-1.55,5.52ZM551.58,774.55c-1.32-1.79-3.16-2.68-5.53-2.68-1.24,0-2.41.25-3.51.75s-2.08,1.12-2.96,1.85v-2.06h-3.3v26.88h3.3v-8.23c.86.47,1.7.81,2.52,1.04s1.75.33,2.77.33c1.17,0,2.28-.24,3.33-.71s1.96-1.15,2.73-2.01c.83-.91,1.48-2.03,1.93-3.35s.69-2.77.69-4.37c0-3.18-.66-5.66-1.98-7.44ZM529.92,779.31c0-2.34-.51-4.17-1.54-5.48s-2.62-1.96-4.77-1.96c-1.25,0-2.43.25-3.53.75s-2.32,1.31-3.66,2.43c-.46-1-1.15-1.78-2.08-2.34s-2.07-.84-3.4-.84c-1.16,0-2.25.24-3.28.72s-2.05,1.15-3.08,2v-2.18h-3.3v19.63h3.3v-14.66c.9-.69,1.81-1.26,2.72-1.71s1.81-.67,2.72-.67c.95,0,1.68.13,2.18.38s.89.63,1.16,1.13c.25.47.41,1.09.48,1.87s.11,1.6.11,2.47v11.18h3.3v-12.57c0-.35-.01-.71-.04-1.06s-.05-.67-.09-.94c.93-.71,1.85-1.3,2.78-1.77s1.85-.69,2.78-.69,1.68.13,2.18.39.89.64,1.16,1.14c.25.47.41,1.1.48,1.88s.11,1.6.11,2.44v11.18h3.3v-12.74ZM488.94,788.84c-.96.45-2.02.68-3.18.68-1.39,0-2.43-.28-3.11-.85s-1.02-1.42-1.02-2.54c0-1,.29-1.78.88-2.35s1.35-.99,2.3-1.26c.8-.22,1.88-.39,3.24-.51s2.55-.21,3.56-.26v5.47c-.82.63-1.71,1.17-2.67,1.63ZM494.9,778.73c0-1.27-.19-2.33-.58-3.18s-.95-1.55-1.69-2.09c-.75-.55-1.64-.94-2.66-1.17s-2.23-.34-3.61-.34c-1.18,0-2.38.11-3.6.32s-2.15.4-2.79.58v3.36h.18c1.14-.43,2.24-.76,3.3-.99s2.03-.34,2.9-.34c.71,0,1.4.05,2.06.14s1.22.28,1.69.54c.49.28.87.67,1.13,1.16s.4,1.11.4,1.86v.51c-1.92.09-3.72.23-5.4.42s-3.11.54-4.31,1.07c-1.18.53-2.09,1.25-2.73,2.17s-.96,2.12-.96,3.61c0,1.82.62,3.31,1.85,4.48s2.73,1.76,4.5,1.76c.96,0,1.8-.09,2.51-.27s1.35-.41,1.9-.68c.47-.21.95-.5,1.45-.85s.89-.64,1.19-.83v2.09h3.29v-13.32ZM472.84,780.2c-.98-1.04-2.45-1.82-4.39-2.34-.96-.25-2.13-.49-3.52-.72s-2.45-.43-3.2-.6c-1.42-.33-2.41-.8-2.97-1.42s-.84-1.48-.84-2.57c0-1.22.57-2.21,1.7-2.99s2.63-1.16,4.49-1.16c1.7,0,3.36.28,4.98.83s2.93,1.26,3.93,2.1h.25v-4.11c-1.18-.52-2.54-.95-4.08-1.3s-3.22-.53-5.06-.53c-2.85,0-5.2.7-7.05,2.1s-2.78,3.2-2.78,5.39c0,1.91.56,3.46,1.68,4.65s2.84,2.03,5.16,2.52c1.15.23,2.24.43,3.26.58s1.98.35,2.86.58c1.16.3,2.02.73,2.59,1.28s.85,1.41.85,2.57c0,1.35-.6,2.43-1.8,3.23s-2.88,1.21-5.04,1.21c-1.52,0-3.15-.3-4.89-.9s-3.26-1.45-4.59-2.55h-.25v4.36c1.56.69,3.09,1.21,4.6,1.56s3.2.53,5.09.53c1.76,0,3.26-.21,4.51-.63s2.34-1.01,3.28-1.76c.86-.69,1.52-1.54,2-2.53s.71-2,.71-3.02c0-1.88-.49-3.33-1.48-4.38Z" style="fill: #444;"/>
  <path d="M33.33,209.85v3.43H12.5v-3.43h-2.67v10.34h2.67v-3.43h20.83v3.43h2.67v-10.34h-2.67ZM19.63,230.97c.64.25,1.2.64,1.7,1.17.53.57.89,1.27,1.08,2.09s.29,1.78.29,2.88v3.52h-9.88v-4.1c0-.94.07-1.75.2-2.44s.37-1.29.71-1.79c.4-.61.89-1.05,1.47-1.31s1.25-.4,2-.4c.98,0,1.8.13,2.43.38ZM24.56,232.29c-.64-1.66-1.6-2.97-2.87-3.92s-2.85-1.42-4.74-1.42c-1.39,0-2.55.27-3.45.8s-1.66,1.27-2.26,2.22c-.53.84-.89,1.79-1.1,2.85s-.31,2.37-.31,3.96v7.33h26.17v-3.48h-10.41v-4.9l10.41-8.75v-4.52l-11.44,9.84ZM25.72,264.62l-12.85-4.61,12.85-4.59v9.19ZM9.83,257.61v4.64l26.17,9.53v-3.53l-7.29-2.57v-11.32l7.29-2.57v-3.71l-26.17,9.53ZM16.37,289.42l14.55,6.08-14.55,6.03v3.59l18.69-7.82,8.19,3.66v-3.53l-26.88-11.46v3.46ZM32.85,306.76v.18c.11.26.24.68.4,1.27s.24,1.15.24,1.69c0,.93-.11,1.61-.33,2.07s-.56.81-1.03,1.06c-.5.28-1.05.45-1.63.49s-1.39.07-2.42.07h-8.95v-6.82h-2.78v6.82h-5.64v3.3h5.64v2.23h2.78v-2.23h10.44c2.38,0,4.11-.52,5.19-1.56s1.62-2.57,1.62-4.57c0-.57-.05-1.23-.16-1.96s-.24-1.41-.4-2.03h-2.97ZM16.37,323.49v3.3h19.63v-3.3h-19.63ZM9.65,323.28v3.73h3.43v-3.73h-3.43ZM23.26,333.19c-2.4,0-4.24.56-5.52,1.67s-1.92,2.73-1.92,4.85c0,1.16.24,2.29.72,3.39s1.15,2.17,2,3.2h-2.18v3.3h19.63v-3.3h-14.66c-.69-.9-1.26-1.85-1.71-2.83s-.67-1.93-.67-2.83.12-1.59.36-2.14.61-.97,1.1-1.27c.45-.28,1.06-.47,1.85-.58s1.64-.16,2.54-.16h11.18v-3.3h-12.74ZM16.37,356.12v3.3h14.66c.69.88,1.26,1.83,1.71,2.84s.67,1.95.67,2.8c0,.96-.12,1.69-.35,2.2s-.61.91-1.12,1.23c-.5.3-1.11.5-1.82.6s-1.56.14-2.56.14h-11.18v3.3h12.74c2.44,0,4.29-.57,5.55-1.72s1.89-2.75,1.89-4.82c0-1.23-.23-2.36-.7-3.38s-1.14-2.09-2.02-3.2h2.18v-3.3h-19.63ZM23.26,378.76c-2.34,0-4.17.51-5.48,1.54s-1.96,2.62-1.96,4.77c0,1.25.25,2.43.75,3.53s1.31,2.32,2.43,3.66c-1,.46-1.78,1.15-2.34,2.08s-.84,2.07-.84,3.4c0,1.16.24,2.25.72,3.28s1.15,2.05,2,3.08h-2.18v3.3h19.63v-3.3h-14.66c-.69-.9-1.26-1.81-1.71-2.72s-.67-1.81-.67-2.72c0-.95.13-1.68.38-2.18s.63-.89,1.13-1.16c.47-.25,1.09-.41,1.87-.48s1.6-.11,2.47-.11h11.18v-3.3h-12.57c-.35,0-.71.01-1.06.04s-.67.05-.94.09c-.71-.93-1.3-1.85-1.77-2.78s-.69-1.85-.69-2.78.13-1.68.39-2.18.64-.89,1.14-1.16c.47-.25,1.1-.41,1.88-.48s1.6-.11,2.44-.11h11.18v-3.3h-12.74ZM23.26,413.77c-2.34,0-4.17.51-5.48,1.54s-1.96,2.62-1.96,4.77c0,1.25.25,2.43.75,3.53s1.31,2.32,2.43,3.66c-1,.46-1.78,1.15-2.34,2.08s-.84,2.07-.84,3.4c0,1.16.24,2.25.72,3.28s1.15,2.05,2,3.08h-2.18v3.3h19.63v-3.3h-14.66c-.69-.9-1.26-1.81-1.71-2.72s-.67-1.81-.67-2.72c0-.95.13-1.68.38-2.18s.63-.89,1.13-1.16c.47-.25,1.09-.41,1.87-.48s1.6-.11,2.47-.11h11.18v-3.3h-12.57c-.35,0-.71.01-1.06.04s-.67.05-.94.09c-.71-.93-1.3-1.85-1.77-2.78s-.69-1.85-.69-2.78.13-1.68.39-2.18.64-.89,1.14-1.16c.47-.25,1.1-.41,1.88-.48s1.6-.11,2.44-.11h11.18v-3.3h-12.74ZM31.81,452.45c1.26,1,1.89,2.38,1.89,4.14s-.64,3.17-1.91,4.17-3.14,1.49-5.6,1.49-4.43-.5-5.67-1.49-1.85-2.38-1.85-4.17.62-3.15,1.85-4.15,3.13-1.49,5.67-1.49,4.36.5,5.62,1.5ZM18.61,450c-1.86,1.64-2.79,3.84-2.79,6.59s.93,4.98,2.79,6.62,4.39,2.45,7.58,2.45,5.72-.82,7.58-2.45,2.78-3.84,2.78-6.62-.93-4.95-2.78-6.59-4.38-2.46-7.58-2.46-5.73.82-7.58,2.46ZM30.02,468.93v.25c1.15,1.28,2.01,2.65,2.58,4.11s.86,3.04.86,4.71c0,1.22-.21,2.38-.62,3.47s-1.06,2.05-1.92,2.87c-.83.79-1.91,1.43-3.23,1.92s-2.91.75-4.75.75-3.31-.23-4.65-.68-2.45-1.08-3.33-1.89c-.9-.83-1.57-1.78-2-2.84s-.64-2.25-.64-3.58c0-1.62.28-3.13.83-4.55s1.43-2.85,2.64-4.29v-.26h-4.13c-.86,1.71-1.45,3.27-1.79,4.67s-.51,2.8-.51,4.21c0,1.92.3,3.67.9,5.25s1.46,2.92,2.6,4.03c1.17,1.15,2.61,2.03,4.31,2.64s3.63.91,5.78.91c2.27,0,4.27-.32,5.99-.95s3.13-1.51,4.25-2.64c1.14-1.15,1.97-2.5,2.5-4.05s.8-3.28.8-5.18c0-1.01-.08-1.93-.24-2.77s-.35-1.61-.57-2.33c-.27-.84-.53-1.53-.77-2.05s-.51-1.1-.79-1.75h-4.08Z" style="fill: #444;"/>
</svg>