<?xml version="1.0" encoding="UTF-8"?>
<svg id="Layer_1" data-name="Layer 1" xmlns="http://www.w3.org/2000/svg" width="693.98" height="494.79" xmlns:xlink="http://www.w3.org/1999/xlink" viewBox="0 0 693.98 494.79">
  <defs>
    <clipPath id="clippath">
      <rect x="113.98" width="457" height="460" style="fill: none;"/>
    </clipPath>
    <clipPath id="clippath-1">
      <rect x="520.93" width="173.05" height="159.39" style="fill: none;"/>
    </clipPath>
    <clipPath id="clippath-2">
      <path d="M623.45,28.4c-1.64,0-2.94.49-3.92,1.46-.97.97-1.52,2.17-1.65,3.6h10.44c0-1.61-.41-2.85-1.21-3.73-.8-.88-2.02-1.32-3.64-1.32M643.36,28.4c-1.64,0-2.94.49-3.92,1.46-.97.97-1.52,2.17-1.65,3.6h10.43c0-1.61-.41-2.85-1.21-3.73-.8-.88-2.02-1.32-3.64-1.32M624.4,45.02c-3.02,0-5.37-.82-7.07-2.46-1.7-1.64-2.55-3.96-2.55-6.97s.82-5.34,2.44-7.09c1.62-1.75,3.76-2.63,6.42-2.63,2.46,0,4.36.71,5.68,2.16,1.34,1.44,2,3.48,2,6.12v1.67h-13.42c0,1.12.17,2.09.5,2.93.33.83.8,1.52,1.38,2.05.56.52,1.23.91,2.02,1.17.77.26,1.64.39,2.57.39,1.24,0,2.49-.24,3.75-.74,1.26-.5,2.16-.99,2.69-1.46h.17v3.34c-1.03.44-2.09.8-3.16,1.09-1.08.29-2.2.44-3.39.44M644.28,45.02c-3.02,0-5.37-.82-7.07-2.46-1.7-1.64-2.55-3.96-2.55-6.97s.82-5.34,2.44-7.09c1.62-1.75,3.76-2.63,6.42-2.63,2.46,0,4.36.71,5.68,2.16,1.34,1.44,2,3.48,2,6.12v1.67h-13.42c0,1.12.17,2.09.5,2.93.33.83.8,1.52,1.38,2.05.56.52,1.23.91,2.02,1.17.77.26,1.64.39,2.57.39,1.24,0,2.49-.24,3.75-.74,1.26-.5,2.16-.99,2.69-1.46h.17v3.34c-1.03.44-2.09.8-3.16,1.09-1.08.29-2.2.44-3.39.44M542.18,40.68v-18.22h18.22v18.22h-18.22M613.16,20.31h0l-6.31,24.29h-3.64l-5.1-20.16-4.99,20.16h-3.55l-6.42-24.29h3.31l5.1,20.19,5.02-20.19h3.28l5.07,20.39,5.07-20.39h3.16M655.97,44.6v-25.37h3.07v16.27l8.85-9.11h3.87l-8.47,8.41,9.08,9.81h-4.04l-7.3-7.97-1.99,1.9v6.09h-3.07M685.5,7.59h-164.57v47.97h164.57V7.59h0Z" style="fill: none;"/>
    </clipPath>
  </defs>
  <polyline points="113.98 393.22 570.98 393.22 570.98 392.22 113.98 392.22" style="fill: #eee;"/>
  <polyline points="113.98 325.93 570.98 325.93 570.98 324.93 113.98 324.93" style="fill: #eee;"/>
  <polyline points="113.98 258.65 570.98 258.65 570.98 257.65 113.98 257.65" style="fill: #eee;"/>
  <polyline points="113.98 191.36 570.98 191.36 570.98 190.36 113.98 190.36" style="fill: #eee;"/>
  <polyline points="113.98 124.08 570.98 124.08 570.98 123.08 113.98 123.08" style="fill: #eee;"/>
  <polyline points="113.98 56.79 570.98 56.79 570.98 55.79 113.98 55.79" style="fill: #eee;"/>
  <polyline points="113.98 460.5 570.98 460.5 570.98 459.5 113.98 459.5" style="fill: #444;"/>
  <g style="clip-path: url(#clippath);">
    <g>
      <rect x="149.6" y="23" width="36.29" height="437" style="fill: #d3d3d3;"/>
      <rect x="284.01" y="304.98" width="36.29" height="155.02" style="fill: #d3d3d3;"/>
      <rect x="418.42" y="356.52" width="36.29" height="103.48" style="fill: #d3d3d3;"/>
      <rect x="189.92" y="180.65" width="36.29" height="279.35" style="fill: #a9a9a9;"/>
      <rect x="324.33" y="348.51" width="36.3" height="111.49" style="fill: #a9a9a9;"/>
      <rect x="458.75" y="388.42" width="36.29" height="71.58" style="fill: #a9a9a9;"/>
      <rect x="230.25" y="396.99" width="36.29" height="63.01" style="fill: gray;"/>
      <rect x="364.66" y="447.16" width="36.29" height="12.84" style="fill: gray;"/>
      <rect x="499.07" y="450.26" width="36.29" height="9.74" style="fill: gray;"/>
    </g>
  </g>
  <path d="M282.84,468.25c-.39-.08-.82-.14-1.29-.19s-1-.08-1.59-.08c-1.74,0-3.07.49-3.99,1.48-.92.99-1.38,2.42-1.38,4.26v.52h-1.77v2.21h1.77v13.38h2.62v-13.38h4.65v-2.21h-4.73v-.53c0-1.3.25-2.21.77-2.7.51-.49,1.33-.74,2.46-.74.35,0,.77.04,1.23.13.47.09.84.17,1.13.26h.14v-2.4h-.04ZM271.97,474.41c-.42-.06-.71-.1-.92-.13-.21-.03-.53-.04-.99-.04-.83,0-1.64.17-2.43.52s-1.72.94-2.75,1.78v-2.3h-2.62v15.59h2.62v-11.07c.7-.57,1.43-1.03,2.18-1.39s1.53-.53,2.34-.53c.51,0,.94.03,1.3.06s.74.1,1.14.21h.14v-2.69h-.01ZM254.29,486.5c-.79,1-1.9,1.51-3.29,1.51s-2.52-.51-3.31-1.52-1.18-2.49-1.18-4.44.39-3.52,1.18-4.5c.78-.97,1.9-1.47,3.31-1.47s2.51.49,3.3,1.47c.79.99,1.18,2.48,1.18,4.5s-.4,3.46-1.2,4.46h0ZM256.24,476.02c-1.3-1.48-3.05-2.21-5.24-2.21s-3.96.74-5.25,2.21c-1.3,1.47-1.95,3.48-1.95,6.02s.65,4.55,1.95,6.02,3.05,2.21,5.25,2.21,3.94-.74,5.24-2.21,1.95-3.47,1.95-6.02-.65-4.55-1.95-6.02ZM234.97,487.27c-.77.32-1.52.49-2.26.49-1.39,0-2.4-.48-3.04-1.44-.64-.96-.95-2.38-.95-4.22s.4-3.33,1.23-4.35c.82-1.03,1.96-1.53,3.43-1.53.66,0,1.27.06,1.83.18s1.2.34,1.9.65v8.95c-.66.52-1.38.95-2.13,1.27h-.01ZM239.74,468.12h-2.62v6.76c-.7-.36-1.36-.64-2-.81-.64-.17-1.36-.26-2.18-.26-.9,0-1.78.18-2.61.56-.84.38-1.59.91-2.21,1.62-.64.73-1.16,1.61-1.53,2.64s-.57,2.21-.57,3.53c0,2.55.55,4.52,1.64,5.96,1.09,1.43,2.57,2.14,4.43,2.14.96,0,1.85-.18,2.66-.55s1.61-.87,2.36-1.52v1.64h2.62v-21.71h.01ZM221.9,468.12h-2.62v21.71h2.62v-21.71ZM203.78,480.29c.12-1.23.58-2.26,1.42-3.08.83-.83,1.95-1.25,3.35-1.25s2.43.38,3.12,1.13,1.03,1.82,1.04,3.2h-8.94.01ZM215.27,480.88c0-2.26-.57-4-1.72-5.24s-2.77-1.85-4.86-1.85c-2.27,0-4.11.75-5.5,2.25-1.39,1.49-2.09,3.52-2.09,6.07s.73,4.56,2.18,5.96,3.47,2.11,6.06,2.11c1.01,0,1.99-.13,2.9-.38s1.82-.56,2.7-.94v-2.86h-.14c-.45.42-1.22.83-2.3,1.25-1.08.43-2.14.64-3.21.64-.81,0-1.53-.12-2.2-.34-.66-.22-1.23-.56-1.73-1-.51-.45-.9-1.04-1.18-1.75-.29-.71-.43-1.55-.43-2.51h11.49v-1.43h.03ZM197.47,482.6c-.66-.68-1.6-1.16-2.82-1.44-.4-.09-.9-.19-1.49-.31s-1.14-.22-1.62-.34c-.87-.21-1.51-.47-1.9-.79-.4-.32-.6-.81-.6-1.46,0-.73.32-1.27.99-1.64s1.47-.55,2.43-.55,1.86.17,2.82.51,1.77.75,2.44,1.25h.14v-2.81c-.64-.32-1.43-.6-2.38-.83-.95-.23-1.9-.34-2.83-.34-1,0-1.9.13-2.7.38-.81.26-1.47.6-1.99,1.04-.55.44-.95.95-1.21,1.52s-.4,1.17-.4,1.82c0,1.03.29,1.88.86,2.59.57.7,1.55,1.23,2.91,1.6.49.13,1.04.25,1.64.36s1.09.21,1.46.3c1,.22,1.69.49,2.04.81s.53.78.53,1.39c0,.81-.32,1.39-.97,1.75-.65.38-1.56.56-2.7.56-.94,0-1.9-.18-2.92-.55-1.01-.36-1.94-.87-2.77-1.48h-.14v2.95c.65.32,1.46.62,2.42.9s2.03.42,3.17.42c2.04,0,3.65-.45,4.82-1.36,1.18-.91,1.77-2.08,1.77-3.51,0-1.13-.32-2.05-.99-2.74h.01ZM182.58,482.6c-.66-.68-1.6-1.16-2.82-1.44-.4-.09-.9-.19-1.49-.31s-1.14-.22-1.62-.34c-.87-.21-1.51-.47-1.9-.79-.4-.32-.6-.81-.6-1.46,0-.73.32-1.27.99-1.64s1.47-.55,2.43-.55,1.86.17,2.82.51,1.77.75,2.44,1.25h.14v-2.81c-.64-.32-1.43-.6-2.38-.83-.95-.23-1.9-.34-2.83-.34-1,0-1.9.13-2.7.38-.81.26-1.47.6-1.99,1.04-.55.44-.95.95-1.21,1.52s-.4,1.17-.4,1.82c0,1.03.29,1.88.86,2.59.57.7,1.55,1.23,2.91,1.6.49.13,1.04.25,1.64.36s1.09.21,1.46.3c1,.22,1.69.49,2.04.81s.53.78.53,1.39c0,.81-.32,1.39-.97,1.75-.65.38-1.56.56-2.7.56-.94,0-1.9-.18-2.92-.55-1.01-.36-1.94-.87-2.77-1.48h-.14v2.95c.65.32,1.46.62,2.42.9s2.03.42,3.17.42c2.04,0,3.65-.45,4.82-1.36,1.18-.91,1.77-2.08,1.77-3.51,0-1.13-.32-2.05-.99-2.74h.01ZM159.32,468.91h-2.78v2.72h2.78v-2.72ZM165.09,468.91h-2.78v2.72h2.78v-2.72ZM167.26,474.24h-2.62v11.64c-.7.55-1.46,1-2.25,1.35-.81.35-1.55.53-2.22.53-.77,0-1.35-.09-1.74-.27-.4-.18-.73-.48-.97-.9-.25-.4-.4-.88-.48-1.44s-.12-1.25-.12-2.03v-8.87h-2.62v10.12c0,1.94.45,3.4,1.36,4.4.91,1,2.18,1.51,3.82,1.51.97,0,1.87-.18,2.68-.56s1.65-.91,2.55-1.61v1.73h2.62v-15.59h0ZM146.41,483.46c-.52,1.08-1.29,1.95-2.33,2.61-.83.53-1.74.9-2.73,1.09s-2.16.3-3.48.3h-2.6v-16.03h2.6c1.29,0,2.39.09,3.31.27.92.18,1.79.51,2.61.97,1.13.64,1.98,1.52,2.55,2.64s.86,2.49.86,4.12-.26,2.96-.78,4.05v-.03ZM148.9,474.22c-.79-1.47-1.9-2.65-3.31-3.53-.83-.51-1.85-.91-3.04-1.21-1.2-.3-2.81-.44-4.83-.44h-5.2v20.79h5.25c1.91,0,3.44-.13,4.61-.39,1.17-.26,2.22-.69,3.17-1.27,1.36-.84,2.47-2.04,3.29-3.57s1.23-3.25,1.23-5.13c0-2.01-.39-3.77-1.18-5.24h.01Z" style="fill: #444;"/>
  <path d="M376.43,466.38l-4.7,18.89-4.7-18.89h-3.04l-4.66,18.71-4.73-18.71h-3.07l5.95,22.51h3.29l4.63-18.68,4.73,18.68h3.38l5.85-22.51h-2.94ZM342.94,474.81c-.21.55-.55,1.04-1,1.46-.49.45-1.1.76-1.8.93s-1.53.25-2.48.25h-3.02v-8.5h3.52c.8,0,1.51.06,2.1.17.59.11,1.11.32,1.55.6.52.34.9.76,1.13,1.27.23.49.34,1.07.34,1.72,0,.84-.11,1.55-.32,2.1h0ZM341.81,479.06c1.43-.55,2.56-1.38,3.38-2.48s1.22-2.45,1.22-4.07c0-1.2-.23-2.19-.69-2.97s-1.1-1.42-1.91-1.94c-.73-.45-1.55-.77-2.45-.94-.9-.18-2.04-.27-3.4-.27h-6.3v22.51h3v-8.95h4.22l7.53,8.95h3.88l-8.47-9.83h0ZM325.67,466.38h-2.8v18.37l-9.74-18.37h-4.64v22.51h2.8v-20.13l10.66,20.13h3.7v-22.51h.01Z" style="fill: #444;"/>
  <path d="M543.34,472.43l-5.06,12.1-5.01-12.1h-2.98l6.5,15.54-3.03,6.82h2.94l9.52-22.34h-2.88ZM527.11,478.16c0-2-.46-3.52-1.39-4.59s-2.27-1.59-4.03-1.59c-.97,0-1.9.2-2.82.6-.91.39-1.81.95-2.67,1.66v-1.81h-2.75v16.33h2.75v-12.19c.75-.57,1.54-1.05,2.35-1.42.82-.37,1.61-.56,2.35-.56s1.32.1,1.78.3.8.5,1.05.91c.23.37.39.88.48,1.54s.14,1.36.14,2.11v9.29h2.75v-10.6h0ZM503.21,486.09c-.8.38-1.69.56-2.64.56-1.16,0-2.03-.23-2.59-.71-.57-.48-.84-1.17-.84-2.11,0-.83.24-1.48.73-1.95.49-.48,1.13-.82,1.92-1.05.67-.19,1.56-.33,2.69-.42,1.13-.1,2.12-.16,2.97-.22v4.54c-.68.53-1.43.98-2.22,1.35h-.03ZM508.17,477.69c0-1.05-.16-1.93-.48-2.64s-.79-1.29-1.4-1.74c-.63-.46-1.36-.78-2.22-.97-.86-.19-1.85-.29-3.01-.29-.98,0-1.99.08-2.99.26-1.02.18-1.78.34-2.33.48v2.79h.15c.94-.35,1.86-.64,2.75-.83.88-.19,1.69-.29,2.41-.29.6,0,1.17.04,1.71.12.54.08,1.01.23,1.4.45.41.23.72.56.94.97s.33.93.33,1.55v.42c-1.59.08-3.09.19-4.49.35-1.39.15-2.59.45-3.58.9-.98.44-1.74,1.03-2.27,1.81-.53.76-.8,1.77-.8,3.01,0,1.51.52,2.75,1.54,3.73s2.27,1.46,3.74,1.46c.8,0,1.5-.08,2.1-.23.6-.15,1.12-.34,1.58-.56.39-.18.79-.41,1.21-.71.41-.3.75-.53.99-.69v1.74h2.73v-11.08h-.01ZM490.18,478.16c0-1.95-.42-3.47-1.28-4.56-.86-1.09-2.18-1.63-3.97-1.63-1.05,0-2.03.2-2.94.63-.91.41-1.93,1.09-3.03,2.03-.38-.83-.95-1.47-1.73-1.95s-1.71-.71-2.83-.71c-.97,0-1.88.2-2.72.6-.86.39-1.71.95-2.57,1.66v-1.81h-2.75v16.33h2.75v-12.19c.75-.57,1.5-1.05,2.26-1.42.75-.37,1.51-.56,2.26-.56.79,0,1.39.11,1.81.31.42.2.73.52.97.94.2.39.34.91.41,1.55.07.65.1,1.33.1,2.05v9.29h2.75v-10.45c0-.29,0-.59-.03-.88-.01-.3-.04-.56-.07-.79.78-.6,1.54-1.09,2.31-1.47s1.54-.57,2.31-.57,1.39.11,1.81.33.73.53.97.95c.2.39.34.91.41,1.56.07.65.1,1.33.1,2.03v9.29h2.75v-10.6l-.03.03ZM463.77,472.61c-.44-.07-.75-.11-.97-.14-.22-.03-.56-.04-1.03-.04-.87,0-1.71.18-2.54.54s-1.8.98-2.88,1.86v-2.41h-2.75v16.33h2.75v-11.59c.73-.6,1.5-1.07,2.29-1.46s1.61-.56,2.45-.56c.53,0,.98.03,1.36.07s.78.11,1.2.22h.15v-2.82h-.01ZM437.39,478.77c.12-1.29.61-2.37,1.48-3.22.87-.87,2.04-1.31,3.51-1.31s2.54.39,3.27,1.18,1.07,1.9,1.09,3.35h-9.36.01ZM449.42,479.39c0-2.37-.6-4.19-1.8-5.48s-2.9-1.93-5.09-1.93c-2.38,0-4.3.79-5.76,2.35-1.46,1.56-2.19,3.69-2.19,6.35s.76,4.78,2.29,6.25,3.63,2.2,6.34,2.2c1.06,0,2.08-.14,3.03-.39s1.9-.59,2.83-.98v-2.99h-.15c-.48.44-1.28.87-2.41,1.31-1.13.45-2.24.67-3.36.67-.84,0-1.61-.12-2.3-.35s-1.29-.59-1.81-1.05c-.53-.48-.94-1.09-1.24-1.84-.3-.75-.45-1.62-.45-2.63h12.03v-1.5h.03ZM430.93,477.81h-8.69v2.54h5.84v5.33c-.71.29-1.52.53-2.45.72-.93.19-1.86.27-2.8.27-2.56,0-4.57-.78-6.05-2.34-1.48-1.56-2.22-3.76-2.22-6.57,0-2.67.71-4.79,2.12-6.35,1.42-1.56,3.35-2.34,5.78-2.34,1.07,0,2.05.1,2.9.3.86.2,1.62.45,2.29.75.56.26,1.12.57,1.7.95.57.38,1.01.68,1.32.93h.26v-3.43c-1.5-.71-2.88-1.21-4.18-1.51-1.29-.3-2.56-.45-3.8-.45-3.55,0-6.34,1.01-8.37,3.02s-3.05,4.76-3.05,8.23c0,1.9.27,3.56.82,4.98s1.32,2.6,2.33,3.54c.99.94,2.19,1.63,3.61,2.11,1.42.46,2.97.71,4.67.71,1.32,0,2.68-.2,4.08-.61,1.4-.41,2.71-.88,3.89-1.43v-9.33h.01Z" style="fill: #444;"/>
  <path d="M107.67,465.84c-.44.28-1,.42-1.68.42-.72,0-1.29-.15-1.72-.44s-.77-.72-1-1.28c-.26-.59-.43-1.27-.5-2.02-.08-.75-.12-1.69-.12-2.8,0-1.02.04-1.95.13-2.8.09-.85.26-1.54.5-2.07.26-.57.61-.99,1.05-1.27s1-.42,1.67-.42,1.24.14,1.67.42.77.69,1.03,1.25.43,1.24.52,2.04c.09.8.13,1.75.13,2.84s-.04,2.05-.13,2.83-.26,1.47-.51,2.05c-.24.57-.59.99-1.03,1.27v-.02ZM110.2,453.45c-.88-1.38-2.29-2.07-4.21-2.07s-3.29.68-4.19,2.04c-.9,1.36-1.34,3.46-1.34,6.3s.44,4.91,1.33,6.27c.88,1.36,2.29,2.04,4.21,2.04s3.29-.67,4.18-2.01c.9-1.34,1.35-3.45,1.35-6.32s-.44-4.87-1.33-6.25h0Z" style="fill: #444;"/>
  <path d="M111.55,398.58h-8.6c.71-.6,1.47-1.25,2.29-1.96s1.61-1.43,2.37-2.19c.54-.52.99-1,1.37-1.43s.7-.87.98-1.31c.3-.47.53-.97.68-1.5s.23-1.09.23-1.7c0-1.35-.47-2.43-1.4-3.22s-2.22-1.19-3.86-1.19c-.79,0-1.62.1-2.47.31s-1.53.44-2.04.69v2.26h.11c.72-.47,1.46-.82,2.22-1.05.76-.23,1.46-.34,2.12-.34.98,0,1.75.23,2.29.7.55.47.82,1.12.82,1.95,0,.91-.25,1.76-.76,2.54s-1.45,1.84-2.83,3.17c-.65.64-1.36,1.28-2.11,1.92-.76.64-1.51,1.29-2.26,1.93v2.25h10.83v-1.84h.02ZM93.69,398.56c-.44.28-1,.42-1.68.42-.72,0-1.29-.15-1.72-.44s-.77-.72-1-1.28c-.26-.59-.43-1.27-.5-2.02-.08-.75-.12-1.69-.12-2.8,0-1.02.04-1.95.13-2.8.09-.85.26-1.54.5-2.07.26-.57.61-.99,1.05-1.27s1-.42,1.67-.42,1.24.14,1.67.42.77.69,1.03,1.25.43,1.24.52,2.04c.09.8.13,1.75.13,2.84s-.04,2.05-.13,2.83-.26,1.47-.51,2.05c-.24.57-.59.99-1.03,1.27v-.02ZM96.22,386.17c-.88-1.38-2.29-2.07-4.21-2.07s-3.29.68-4.19,2.04c-.9,1.36-1.34,3.46-1.34,6.3s.44,4.91,1.33,6.27c.88,1.36,2.29,2.04,4.21,2.04s3.29-.67,4.18-2.01c.9-1.34,1.35-3.45,1.35-6.32s-.44-4.87-1.33-6.25h0ZM79.7,398.56c-.44.28-1,.42-1.68.42-.72,0-1.29-.15-1.72-.44s-.77-.72-1-1.28c-.26-.59-.43-1.27-.5-2.02-.08-.75-.12-1.69-.12-2.8,0-1.02.04-1.95.13-2.8.09-.85.26-1.54.5-2.07.26-.57.61-.99,1.05-1.27s1-.42,1.67-.42,1.24.14,1.67.42.77.69,1.03,1.25.43,1.24.52,2.04c.09.8.13,1.75.13,2.84s-.04,2.05-.13,2.83-.26,1.47-.51,2.05c-.24.57-.59.99-1.03,1.27v-.02ZM82.23,386.17c-.88-1.38-2.29-2.07-4.21-2.07s-3.29.68-4.19,2.04c-.9,1.36-1.34,3.46-1.34,6.3s.44,4.91,1.33,6.27c.88,1.36,2.29,2.04,4.21,2.04s3.29-.67,4.18-2.01c.9-1.34,1.35-3.45,1.35-6.32s-.44-4.87-1.33-6.25h0ZM68.3,397.36h-2.57v3.06h2.57v-3.06ZM57.71,398.56c-.44.28-1,.42-1.68.42-.72,0-1.29-.15-1.72-.44s-.77-.72-1-1.28c-.26-.59-.43-1.27-.5-2.02-.08-.75-.12-1.69-.12-2.8,0-1.02.04-1.95.13-2.8.09-.85.26-1.54.5-2.07.26-.57.61-.99,1.05-1.27s1-.42,1.67-.42,1.24.14,1.67.42c.43.28.77.69,1.03,1.25s.43,1.24.52,2.04c.09.8.13,1.75.13,2.84s-.04,2.05-.13,2.83-.26,1.47-.51,2.05c-.24.57-.59.99-1.03,1.27v-.02ZM60.24,386.17c-.88-1.38-2.29-2.07-4.21-2.07s-3.29.68-4.19,2.04c-.9,1.36-1.34,3.46-1.34,6.3s.44,4.91,1.33,6.27c.88,1.36,2.29,2.04,4.21,2.04s3.29-.67,4.18-2.01c.9-1.34,1.35-3.45,1.35-6.32s-.44-4.87-1.33-6.25h0Z" style="fill: #444;"/>
  <path d="M101.28,326.91l6.2-7.22v7.22h-6.2ZM111.92,326.91h-2.37v-9.78h-1.98l-7.75,9.02v2.47h7.66v4.5h2.06v-4.5h2.37v-1.72h.01ZM93.69,331.27c-.44.28-1,.42-1.68.42-.72,0-1.29-.15-1.72-.44s-.77-.72-1-1.28c-.26-.59-.43-1.27-.5-2.02-.08-.75-.12-1.69-.12-2.8,0-1.02.04-1.95.13-2.8.09-.85.26-1.54.5-2.07.26-.57.61-.99,1.05-1.27s1-.42,1.67-.42,1.24.14,1.67.42.77.69,1.03,1.25.43,1.24.52,2.04c.09.8.13,1.75.13,2.84s-.04,2.05-.13,2.83-.26,1.47-.51,2.05c-.24.57-.59.99-1.03,1.27v-.02ZM96.22,318.88c-.88-1.38-2.29-2.07-4.21-2.07s-3.29.68-4.19,2.04c-.9,1.36-1.34,3.46-1.34,6.3s.44,4.91,1.33,6.27c.88,1.36,2.29,2.04,4.21,2.04s3.29-.67,4.18-2.01c.9-1.34,1.35-3.45,1.35-6.32s-.44-4.87-1.33-6.25h0ZM79.7,331.27c-.44.28-1,.42-1.68.42-.72,0-1.29-.15-1.72-.44s-.77-.72-1-1.28c-.26-.59-.43-1.27-.5-2.02-.08-.75-.12-1.69-.12-2.8,0-1.02.04-1.95.13-2.8.09-.85.26-1.54.5-2.07.26-.57.61-.99,1.05-1.27s1-.42,1.67-.42,1.24.14,1.67.42.77.69,1.03,1.25.43,1.24.52,2.04c.09.8.13,1.75.13,2.84s-.04,2.05-.13,2.83-.26,1.47-.51,2.05c-.24.57-.59.99-1.03,1.27v-.02ZM82.23,318.88c-.88-1.38-2.29-2.07-4.21-2.07s-3.29.68-4.19,2.04c-.9,1.36-1.34,3.46-1.34,6.3s.44,4.91,1.33,6.27c.88,1.36,2.29,2.04,4.21,2.04s3.29-.67,4.18-2.01c.9-1.34,1.35-3.45,1.35-6.32s-.44-4.87-1.33-6.25h0ZM68.3,330.07h-2.57v3.06h2.57v-3.06ZM57.71,331.27c-.44.28-1,.42-1.68.42-.72,0-1.29-.15-1.72-.44s-.77-.72-1-1.28c-.26-.59-.43-1.27-.5-2.02-.08-.75-.12-1.69-.12-2.8,0-1.02.04-1.95.13-2.8.09-.85.26-1.54.5-2.07.26-.57.61-.99,1.05-1.27s1-.42,1.67-.42,1.24.14,1.67.42c.43.28.77.69,1.03,1.25s.43,1.24.52,2.04c.09.8.13,1.75.13,2.84s-.04,2.05-.13,2.83-.26,1.47-.51,2.05c-.24.57-.59.99-1.03,1.27v-.02ZM60.24,318.88c-.88-1.38-2.29-2.07-4.21-2.07s-3.29.68-4.19,2.04c-.9,1.36-1.34,3.46-1.34,6.3s.44,4.91,1.33,6.27c.88,1.36,2.29,2.04,4.21,2.04s3.29-.67,4.18-2.01c.9-1.34,1.35-3.45,1.35-6.32s-.44-4.87-1.33-6.25h0Z" style="fill: #444;"/>
  <path d="M108.72,263.48c-.59.63-1.41.95-2.45.95-.45,0-.87-.07-1.25-.22s-.74-.38-1.07-.69c-.41-.38-.73-.9-.96-1.55-.23-.66-.35-1.55-.35-2.68,0-.22,0-.41.01-.55,0-.15.02-.3.03-.46.55-.3,1.09-.52,1.61-.67.52-.14,1.09-.21,1.7-.21.44,0,.86.04,1.26.11.4.07.77.22,1.1.45.45.32.77.7.97,1.14.2.44.3.99.3,1.65,0,1.19-.3,2.1-.89,2.73h-.01ZM111.31,258.23c-.32-.67-.79-1.22-1.42-1.65-.54-.38-1.08-.63-1.6-.76-.52-.13-1.12-.19-1.8-.19-.77,0-1.44.09-2.02.28-.58.19-1.18.47-1.78.83.15-1.64.68-2.94,1.6-3.91.92-.96,2.14-1.44,3.68-1.44.42,0,.84.05,1.24.15.4.1.71.2.91.31h.11v-2.05c-.29-.09-.58-.16-.87-.19-.29-.04-.64-.05-1.06-.05-1.33,0-2.49.23-3.48.68-1,.45-1.81,1.09-2.44,1.9-.67.85-1.15,1.83-1.46,2.92-.3,1.1-.46,2.35-.46,3.77s.17,2.56.5,3.54.81,1.77,1.42,2.36c.49.48,1.06.84,1.71,1.08s1.36.37,2.15.37c1.55,0,2.87-.51,3.94-1.54s1.61-2.35,1.61-3.98c0-.95-.16-1.76-.48-2.43h0ZM93.69,263.99c-.44.28-1,.42-1.68.42-.72,0-1.29-.15-1.72-.44s-.77-.72-1-1.28c-.26-.59-.43-1.27-.5-2.02-.08-.75-.12-1.69-.12-2.8,0-1.02.04-1.95.13-2.8s.26-1.54.5-2.07c.26-.57.61-.99,1.05-1.27s1-.42,1.67-.42,1.24.14,1.67.42.77.69,1.03,1.25.43,1.24.52,2.04c.09.8.13,1.75.13,2.84s-.04,2.05-.13,2.83-.26,1.47-.51,2.05c-.24.57-.59.99-1.03,1.27v-.02ZM96.22,251.6c-.88-1.38-2.29-2.07-4.21-2.07s-3.29.68-4.19,2.04-1.34,3.46-1.34,6.3.44,4.91,1.33,6.27c.88,1.36,2.29,2.04,4.21,2.04s3.29-.67,4.18-2.01c.9-1.34,1.35-3.45,1.35-6.32s-.44-4.87-1.33-6.25h0ZM79.7,263.99c-.44.28-1,.42-1.68.42-.72,0-1.29-.15-1.72-.44s-.77-.72-1-1.28c-.26-.59-.43-1.27-.5-2.02-.08-.75-.12-1.69-.12-2.8,0-1.02.04-1.95.13-2.8s.26-1.54.5-2.07c.26-.57.61-.99,1.05-1.27s1-.42,1.67-.42,1.24.14,1.67.42.77.69,1.03,1.25.43,1.24.52,2.04c.09.8.13,1.75.13,2.84s-.04,2.05-.13,2.83-.26,1.47-.51,2.05c-.24.57-.59.99-1.03,1.27v-.02ZM82.23,251.6c-.88-1.38-2.29-2.07-4.21-2.07s-3.29.68-4.19,2.04-1.34,3.46-1.34,6.3.44,4.91,1.33,6.27c.88,1.36,2.29,2.04,4.21,2.04s3.29-.67,4.18-2.01c.9-1.34,1.35-3.45,1.35-6.32s-.44-4.87-1.33-6.25h0ZM68.3,262.79h-2.57v3.06h2.57v-3.06ZM57.71,263.99c-.44.28-1,.42-1.68.42-.72,0-1.29-.15-1.72-.44s-.77-.72-1-1.28c-.26-.59-.43-1.27-.5-2.02-.08-.75-.12-1.69-.12-2.8,0-1.02.04-1.95.13-2.8s.26-1.54.5-2.07c.26-.57.61-.99,1.05-1.27s1-.42,1.67-.42,1.24.14,1.67.42c.43.28.77.69,1.03,1.25s.43,1.24.52,2.04c.09.8.13,1.75.13,2.84s-.04,2.05-.13,2.83-.26,1.47-.51,2.05c-.24.57-.59.99-1.03,1.27v-.02ZM60.24,251.6c-.88-1.38-2.29-2.07-4.21-2.07s-3.29.68-4.19,2.04c-.9,1.36-1.34,3.46-1.34,6.3s.44,4.91,1.33,6.27c.88,1.36,2.29,2.04,4.21,2.04s3.29-.67,4.18-2.01c.9-1.34,1.35-3.45,1.35-6.32s-.44-4.87-1.33-6.25h0Z" style="fill: #444;"/>
  <path d="M108.52,196.52c-.63.54-1.46.81-2.51.81s-1.87-.32-2.54-.95-1-1.43-1-2.4c0-.76.19-1.44.59-2.04.39-.6.91-1.08,1.55-1.43.67.24,1.2.43,1.6.57.4.14.77.28,1.11.44.84.4,1.41.8,1.7,1.2.29.4.44.92.44,1.58,0,.94-.31,1.68-.94,2.21h0ZM108.72,188.05c-.27.51-.76,1-1.47,1.47-.47-.14-.96-.31-1.46-.52s-.88-.38-1.14-.5c-.59-.29-1.03-.63-1.32-1-.29-.38-.44-.82-.44-1.34,0-.73.29-1.31.86-1.74.58-.43,1.32-.64,2.22-.64s1.67.23,2.26.68c.59.46.89,1.07.89,1.83,0,.67-.14,1.25-.41,1.76h.01ZM110.87,191.7c-.53-.63-1.3-1.16-2.3-1.59v-.06c.87-.39,1.54-.94,1.99-1.64s.68-1.41.68-2.13c0-1.18-.48-2.16-1.43-2.92-.95-.77-2.23-1.15-3.82-1.15s-2.78.4-3.77,1.2-1.48,1.8-1.48,3.01c0,.82.21,1.5.62,2.04s1.05,1.05,1.91,1.5v.06c-.94.42-1.67.99-2.18,1.71-.52.72-.77,1.52-.77,2.41,0,1.4.51,2.54,1.54,3.44,1.03.9,2.41,1.34,4.14,1.34,1.63,0,2.99-.46,4.07-1.38s1.62-2.07,1.62-3.45c0-.97-.27-1.78-.79-2.41l-.03.02ZM93.69,196.7c-.44.28-1,.42-1.68.42-.72,0-1.29-.15-1.72-.44-.43-.29-.77-.72-1-1.28-.26-.59-.43-1.27-.5-2.02-.08-.75-.12-1.69-.12-2.8,0-1.02.04-1.95.13-2.8s.26-1.54.5-2.07c.26-.57.61-.99,1.05-1.27s1-.42,1.67-.42,1.24.14,1.67.42.77.69,1.03,1.25.43,1.24.52,2.04c.09.8.13,1.75.13,2.84s-.04,2.05-.13,2.83-.26,1.47-.51,2.05c-.24.57-.59.99-1.03,1.27v-.02ZM96.22,184.31c-.88-1.38-2.29-2.07-4.21-2.07s-3.29.68-4.19,2.04-1.34,3.46-1.34,6.3.44,4.91,1.33,6.27c.88,1.36,2.29,2.04,4.21,2.04s3.29-.67,4.18-2.01c.9-1.34,1.35-3.45,1.35-6.32s-.44-4.87-1.33-6.25h0ZM79.7,196.7c-.44.28-1,.42-1.68.42-.72,0-1.29-.15-1.72-.44-.43-.29-.77-.72-1-1.28-.26-.59-.43-1.27-.5-2.02-.08-.75-.12-1.69-.12-2.8,0-1.02.04-1.95.13-2.8s.26-1.54.5-2.07c.26-.57.61-.99,1.05-1.27s1-.42,1.67-.42,1.24.14,1.67.42.77.69,1.03,1.25.43,1.24.52,2.04c.09.8.13,1.75.13,2.84s-.04,2.05-.13,2.83-.26,1.47-.51,2.05c-.24.57-.59.99-1.03,1.27v-.02ZM82.23,184.31c-.88-1.38-2.29-2.07-4.21-2.07s-3.29.68-4.19,2.04-1.34,3.46-1.34,6.3.44,4.91,1.33,6.27c.88,1.36,2.29,2.04,4.21,2.04s3.29-.67,4.18-2.01c.9-1.34,1.35-3.45,1.35-6.32s-.44-4.87-1.33-6.25h0ZM68.3,195.5h-2.57v3.06h2.57v-3.06ZM57.71,196.7c-.44.28-1,.42-1.68.42-.72,0-1.29-.15-1.72-.44-.43-.29-.77-.72-1-1.28-.26-.59-.43-1.27-.5-2.02-.08-.75-.12-1.69-.12-2.8,0-1.02.04-1.95.13-2.8s.26-1.54.5-2.07c.26-.57.61-.99,1.05-1.27s1-.42,1.67-.42,1.24.14,1.67.42c.43.28.77.69,1.03,1.25s.43,1.24.52,2.04c.09.8.13,1.75.13,2.84s-.04,2.05-.13,2.83-.26,1.47-.51,2.05c-.24.57-.59.99-1.03,1.27v-.02ZM60.24,184.31c-.88-1.38-2.29-2.07-4.21-2.07s-3.29.68-4.19,2.04c-.9,1.36-1.34,3.46-1.34,6.3s.44,4.91,1.33,6.27c.88,1.36,2.29,2.04,4.21,2.04s3.29-.67,4.18-2.01c.9-1.34,1.35-3.45,1.35-6.32s-.44-4.87-1.33-6.25h0Z" style="fill: #444;"/>
  <path d="M110.64,129.65h-3.27v-14.42h-1.67c-.03.47-.14.84-.33,1.11-.19.28-.45.5-.78.68-.27.14-.66.25-1.17.33-.52.08-1,.11-1.45.11v1.46h3.33v10.72h-3.33v1.63h8.66v-1.63h0ZM93.69,129.42c-.44.28-1,.42-1.68.42-.72,0-1.29-.15-1.72-.44-.43-.29-.77-.72-1-1.28-.26-.59-.43-1.27-.5-2.02-.08-.75-.12-1.69-.12-2.8,0-1.02.04-1.95.13-2.8.09-.85.26-1.54.5-2.07.26-.57.61-.99,1.05-1.27s1-.42,1.67-.42,1.24.14,1.67.42.77.69,1.03,1.25.43,1.24.52,2.04.13,1.75.13,2.84-.04,2.05-.13,2.83-.26,1.47-.51,2.05c-.24.57-.59.99-1.03,1.27v-.02ZM96.22,117.03c-.88-1.38-2.29-2.07-4.21-2.07s-3.29.68-4.19,2.04-1.34,3.46-1.34,6.3.44,4.91,1.33,6.27c.88,1.36,2.29,2.04,4.21,2.04s3.29-.67,4.18-2.01c.9-1.34,1.35-3.45,1.35-6.32s-.44-4.87-1.33-6.25ZM82.29,128.22h-2.57v3.06h2.57v-3.06ZM71.7,129.42c-.44.28-1,.42-1.68.42-.72,0-1.29-.15-1.72-.44-.43-.29-.77-.72-1-1.28-.26-.59-.43-1.27-.5-2.02-.08-.75-.12-1.69-.12-2.8,0-1.02.04-1.95.13-2.8.09-.85.26-1.54.5-2.07.26-.57.61-.99,1.05-1.27s1-.42,1.67-.42,1.24.14,1.67.42.77.69,1.03,1.25.43,1.24.52,2.04.13,1.75.13,2.84-.04,2.05-.13,2.83-.26,1.47-.51,2.05c-.24.57-.59.99-1.03,1.27v-.02ZM74.23,117.03c-.88-1.38-2.29-2.07-4.21-2.07s-3.29.68-4.19,2.04-1.34,3.46-1.34,6.3.44,4.91,1.33,6.27c.88,1.36,2.29,2.04,4.21,2.04s3.29-.67,4.18-2.01c.9-1.34,1.35-3.45,1.35-6.32s-.44-4.87-1.33-6.25Z" style="fill: #444;"/>
  <path d="M111.55,62.15h-8.6c.71-.6,1.47-1.25,2.29-1.96s1.61-1.43,2.37-2.19c.54-.52.99-1,1.37-1.43s.7-.87.98-1.31c.3-.47.53-.97.68-1.5s.23-1.09.23-1.7c0-1.35-.47-2.43-1.4-3.22s-2.22-1.19-3.86-1.19c-.79,0-1.62.1-2.47.31s-1.53.44-2.04.69v2.26h.11c.72-.47,1.46-.82,2.22-1.05s1.46-.34,2.12-.34c.98,0,1.75.23,2.29.7.55.47.82,1.12.82,1.95,0,.91-.25,1.76-.76,2.54-.51.78-1.45,1.84-2.83,3.17-.65.64-1.36,1.28-2.11,1.92-.76.64-1.51,1.29-2.26,1.93v2.25h10.83v-1.84h.02ZM96.65,62.36h-3.27v-14.42h-1.67c-.03.47-.14.84-.33,1.11-.19.28-.45.5-.78.68-.27.14-.66.25-1.17.33-.52.08-1,.11-1.45.11v1.46h3.33v10.72h-3.33v1.63h8.66v-1.63h0ZM79.7,62.13c-.44.28-1,.42-1.68.42-.72,0-1.29-.15-1.72-.44-.43-.29-.77-.72-1-1.28-.26-.59-.43-1.27-.5-2.02-.08-.75-.12-1.69-.12-2.8,0-1.02.04-1.95.13-2.8s.26-1.54.5-2.07c.26-.57.61-.99,1.05-1.27s1-.42,1.67-.42,1.24.14,1.67.42.77.69,1.03,1.25.43,1.24.52,2.04.13,1.75.13,2.84-.04,2.05-.13,2.83-.26,1.47-.51,2.05c-.24.57-.59.99-1.03,1.27v-.02ZM82.23,49.74c-.88-1.38-2.29-2.07-4.21-2.07s-3.29.68-4.19,2.04-1.34,3.46-1.34,6.3.44,4.91,1.33,6.27c.88,1.36,2.29,2.04,4.21,2.04s3.29-.67,4.18-2.01c.9-1.34,1.35-3.45,1.35-6.32s-.44-4.87-1.33-6.25ZM68.3,60.93h-2.57v3.06h2.57v-3.06ZM57.71,62.13c-.44.28-1,.42-1.68.42-.72,0-1.29-.15-1.72-.44-.43-.29-.77-.72-1-1.28-.26-.59-.43-1.27-.5-2.02-.08-.75-.12-1.69-.12-2.8,0-1.02.04-1.95.13-2.8s.26-1.54.5-2.07c.26-.57.61-.99,1.05-1.27s1-.42,1.67-.42,1.24.14,1.67.42c.43.28.77.69,1.03,1.25s.43,1.24.52,2.04.13,1.75.13,2.84-.04,2.05-.13,2.83-.26,1.47-.51,2.05c-.24.57-.59.99-1.03,1.27v-.02ZM60.24,49.74c-.88-1.38-2.29-2.07-4.21-2.07s-3.29.68-4.19,2.04c-.9,1.36-1.34,3.46-1.34,6.3s.44,4.91,1.33,6.27c.88,1.36,2.29,2.04,4.21,2.04s3.29-.67,4.18-2.01c.9-1.34,1.35-3.45,1.35-6.32s-.44-4.87-1.33-6.25Z" style="fill: #444;"/>
  <polyline points="520.93 0 693.98 0 693.98 159.39 520.93 159.39 520.93 0" style="fill: #fff;"/>
  <g style="clip-path: url(#clippath-1);">
    <g>
      <path d="M663.3,34.79l8.47-8.41h-3.87l-8.85,9.11v-16.27h-3.07v25.37h3.07v-6.09l1.99-1.9,7.3,7.97h4.04l-9.08-9.81M637.77,33.46c.14-1.44.68-2.64,1.65-3.6.97-.97,2.28-1.46,3.92-1.46s2.84.44,3.64,1.32,1.2,2.13,1.21,3.73h-10.43M651.2,34.14c0-2.64-.67-4.68-2-6.12s-3.23-2.16-5.68-2.16c-2.66,0-4.8.88-6.42,2.63s-2.44,4.11-2.44,7.09.85,5.33,2.55,6.97,4.05,2.46,7.07,2.46c1.18,0,2.32-.15,3.39-.44,1.08-.29,2.13-.65,3.16-1.09v-3.34h-.17c-.53.49-1.43.97-2.69,1.46-1.26.5-2.5.74-3.75.74-.94,0-1.79-.14-2.57-.39s-1.44-.65-2.02-1.17c-.59-.53-1.05-1.21-1.38-2.05-.33-.83-.5-1.81-.5-2.93h13.42v-1.67M617.88,33.46c.14-1.44.68-2.64,1.65-3.6.97-.97,2.28-1.46,3.92-1.46s2.84.44,3.64,1.32,1.2,2.13,1.21,3.73h-10.44M631.3,34.14c0-2.64-.67-4.68-2-6.12s-3.23-2.16-5.68-2.16c-2.66,0-4.8.88-6.42,2.63s-2.44,4.11-2.44,7.09.85,5.33,2.55,6.97,4.05,2.46,7.07,2.46c1.18,0,2.32-.15,3.39-.44,1.08-.29,2.13-.65,3.16-1.09v-3.34h-.17c-.53.49-1.43.97-2.69,1.46-1.26.5-2.5.74-3.75.74-.94,0-1.79-.14-2.57-.39s-1.44-.65-2.02-1.17c-.59-.53-1.05-1.21-1.38-2.05-.33-.83-.5-1.81-.5-2.93h13.42v-1.67M610.01,20.31l-5.07,20.39-5.07-20.39h-3.28l-5.02,20.19-5.1-20.19h-3.31l6.42,24.29h3.55l4.99-20.16,5.1,20.16h3.64l6.31-24.29h-3.16" style="fill: #444;"/>
      <polyline points="560.4 40.68 542.18 40.68 542.18 22.47 560.4 22.47 560.4 40.68" style="fill: #d3d3d3;"/>
      <g style="clip-path: url(#clippath-2);">
        <rect x="520.93" y="7.59" width="164.57" height="47.97" style="fill: #fff;"/>
      </g>
      <path d="M617.88,33.46c.14-1.44.68-2.64,1.65-3.6.97-.97,2.28-1.46,3.92-1.46s2.84.44,3.64,1.32,1.2,2.13,1.21,3.73h-10.44M623.62,25.88c-2.66,0-4.8.88-6.42,2.63s-2.44,4.11-2.44,7.09.85,5.33,2.55,6.97,4.05,2.46,7.07,2.46c1.18,0,2.32-.15,3.39-.44,1.08-.29,2.13-.65,3.16-1.09v-3.34h-.17c-.53.49-1.43.97-2.69,1.46-1.26.5-2.5.74-3.75.74-.94,0-1.79-.14-2.57-.39s-1.44-.65-2.02-1.17c-.59-.53-1.05-1.21-1.38-2.05-.33-.83-.5-1.81-.5-2.93h13.42v-1.67c0-2.64-.67-4.68-2-6.12s-3.23-2.16-5.68-2.16M637.77,33.46c.14-1.44.68-2.64,1.65-3.6.97-.97,2.28-1.46,3.92-1.46s2.84.44,3.64,1.32,1.2,2.13,1.21,3.73h-10.43M643.52,25.88c-2.66,0-4.8.88-6.42,2.63s-2.44,4.11-2.44,7.09.85,5.33,2.55,6.97,4.05,2.46,7.07,2.46c1.18,0,2.32-.15,3.39-.44,1.08-.29,2.13-.65,3.16-1.09v-3.34h-.17c-.53.49-1.43.97-2.69,1.46-1.26.5-2.5.74-3.75.74-.94,0-1.79-.14-2.57-.39s-1.44-.65-2.02-1.17c-.59-.53-1.05-1.21-1.38-2.05-.33-.83-.5-1.81-.5-2.93h13.42v-1.67c0-2.64-.67-4.68-2-6.12s-3.23-2.16-5.68-2.16M613.16,20.31h-3.16l-5.07,20.39-5.07-20.39h-3.28l-5.02,20.19-5.1-20.19h-3.31l6.42,24.29h3.55l4.99-20.16,5.1,20.16h3.64l6.31-24.29M659.04,19.23h-3.07v25.37h3.07v-6.09l1.99-1.9,7.3,7.97h4.04l-9.08-9.81,8.47-8.41h-3.87l-8.85,9.11v-16.27" style="fill: #444;"/>
      <polyline points="560.4 22.47 542.18 22.47 542.18 40.68 560.4 40.68 560.4 22.47" style="fill: #d3d3d3;"/>
      <path d="M682.6,80.74c0-2.23-.52-3.93-1.55-5.12s-2.54-1.78-4.49-1.78c-1.08,0-2.13.23-3.14.67-1.02.44-2.02,1.06-2.98,1.85v-9.18h-3.07v25.37h3.07v-13.6c.83-.64,1.72-1.17,2.63-1.58s1.79-.62,2.63-.62,1.47.11,1.99.33.9.56,1.17,1.02c.26.41.44.99.53,1.72s.15,1.52.15,2.35v10.37h3.07v-11.83M663.67,89.65h-.17c-.24.09-.64.23-1.17.36-.55.15-1.06.23-1.56.23-.87,0-1.5-.11-1.91-.3-.43-.2-.74-.52-.99-.96-.26-.47-.41-.97-.46-1.5-.05-.53-.06-1.29-.06-2.25v-8.3h6.33v-2.58h-6.33v-5.24h-3.07v5.24h-2.06v2.58h2.06v9.68c0,2.2.49,3.81,1.46,4.81.97,1,2.38,1.5,4.24,1.5.53,0,1.14-.05,1.82-.15.68-.09,1.31-.23,1.88-.38v-2.76M648.3,80.74c0-2.23-.52-3.93-1.55-5.12s-2.54-1.78-4.49-1.78c-1.08,0-2.13.23-3.14.67-1.02.44-2.02,1.06-2.98,1.85v-2.02h-3.07v18.22h3.07v-13.6c.83-.64,1.72-1.17,2.63-1.58s1.79-.62,2.63-.62,1.47.11,1.99.33.9.56,1.17,1.02c.26.41.44.99.53,1.72s.15,1.52.15,2.35v10.37h3.07v-11.83M623.77,88.68c-.93,1.17-2.22,1.76-3.84,1.76s-2.94-.59-3.87-1.76c-.93-1.18-1.38-2.91-1.38-5.19s.46-4.11,1.38-5.25c.91-1.14,2.22-1.72,3.87-1.72s2.93.58,3.86,1.72c.93,1.15,1.38,2.9,1.38,5.25s-.47,4.04-1.4,5.21M626.05,76.43c-1.52-1.73-3.57-2.58-6.12-2.58s-4.63.87-6.13,2.58c-1.52,1.72-2.28,4.07-2.28,7.03s.76,5.31,2.28,7.03,3.57,2.58,6.13,2.58,4.6-.87,6.12-2.58,2.28-4.05,2.28-7.03-.76-5.31-2.28-7.03M606.53,68.29h-4.48l-6.25,13.53-6.47-13.53h-4.4v24.29h3.02v-20.92l6.69,14.24h1.93l6.76-14.24v20.92h3.23v-24.29" style="fill: #444;"/>
      <polyline points="560.4 88.65 542.18 88.65 542.18 70.44 560.4 70.44 560.4 88.65" style="fill: #a9a9a9;"/>
      <path d="M619.93,76.49c-1.67,0-2.96.58-3.87,1.72-.93,1.15-1.38,2.9-1.38,5.25s.46,4.01,1.38,5.19c.93,1.18,2.22,1.76,3.87,1.76s2.91-.58,3.84-1.76c.93-1.17,1.4-2.9,1.4-5.21s-.46-4.11-1.38-5.25-2.2-1.72-3.86-1.72M619.93,93.07c-2.58,0-4.63-.87-6.13-2.58-1.52-1.72-2.28-4.05-2.28-7.03s.76-5.31,2.28-7.03c1.52-1.73,3.57-2.58,6.13-2.58s4.6.87,6.12,2.58,2.28,4.07,2.28,7.03-.76,5.31-2.28,7.03-3.57,2.58-6.12,2.58M636.15,76.37c.96-.79,1.94-1.41,2.98-1.85,1.02-.44,2.06-.67,3.14-.67,1.97,0,3.46.59,4.49,1.78s1.55,2.9,1.55,5.12v11.83h-3.07v-10.37c0-.83-.05-1.62-.15-2.35-.09-.73-.27-1.31-.53-1.72-.27-.46-.67-.79-1.17-1.02-.52-.23-1.17-.33-1.99-.33s-1.72.21-2.63.62-1.79.94-2.63,1.58v13.6h-3.07v-18.22h3.07v2.02M542.18,88.65v-18.22h18.22v18.22h-18.22M652.21,76.93v-2.58h2.06v-5.24h3.07v5.24h6.33v2.58h-6.33v8.3c0,.96.02,1.7.06,2.25.05.55.2,1.05.46,1.5.24.44.56.76.99.96s1.06.3,1.91.3c.5,0,1.02-.08,1.56-.23.55-.15.94-.27,1.17-.36h.17v2.76c-.58.15-1.2.27-1.88.38-.68.09-1.29.15-1.82.15-1.85,0-3.28-.5-4.24-1.5-.97-1-1.46-2.6-1.46-4.81v-9.68h-2.06M595.78,81.81l6.25-13.53h4.48v24.29h-3.23v-20.92l-6.76,14.24h-1.93l-6.69-14.24v20.92h-3.02v-24.29h4.4l6.47,13.53M667.37,92.57v-25.37h3.07v9.18c.96-.79,1.94-1.41,2.98-1.85,1.02-.44,2.06-.67,3.14-.67,1.97,0,3.46.59,4.49,1.78s1.55,2.9,1.55,5.12v11.83h-3.07v-10.37c0-.83-.05-1.62-.15-2.35-.09-.73-.27-1.31-.53-1.72-.27-.46-.67-.79-1.17-1.02-.52-.23-1.17-.33-1.99-.33s-1.72.21-2.63.62-1.79.94-2.63,1.58v13.6h-3.07M685.5,55.56h-164.57v47.97h164.57v-47.97" style="fill: #fff;"/>
      <path d="M619.93,90.43c-1.65,0-2.94-.59-3.87-1.76-.93-1.18-1.38-2.91-1.38-5.19s.46-4.11,1.38-5.25c.91-1.14,2.22-1.72,3.87-1.72s2.93.58,3.86,1.72c.93,1.15,1.38,2.9,1.38,5.25s-.47,4.04-1.4,5.21-2.22,1.76-3.84,1.76M619.93,73.85c-2.58,0-4.63.87-6.13,2.58-1.52,1.72-2.28,4.07-2.28,7.03s.76,5.31,2.28,7.03,3.57,2.58,6.13,2.58,4.6-.87,6.12-2.58,2.28-4.05,2.28-7.03-.76-5.31-2.28-7.03c-1.52-1.73-3.57-2.58-6.12-2.58M642.26,73.85c-1.08,0-2.13.23-3.14.67-1.02.44-2.02,1.06-2.98,1.85v-2.02h-3.07v18.22h3.07v-13.6c.83-.64,1.72-1.17,2.63-1.58s1.79-.62,2.63-.62,1.47.11,1.99.33.9.56,1.17,1.02c.26.41.44.99.53,1.72s.15,1.52.15,2.35v10.37h3.07v-11.83c0-2.23-.52-3.93-1.55-5.12s-2.54-1.78-4.49-1.78M657.35,69.11h-3.07v5.24h-2.06v2.58h2.06v9.68c0,2.2.49,3.81,1.46,4.81.97,1,2.38,1.5,4.24,1.5.53,0,1.14-.05,1.82-.15.68-.09,1.31-.23,1.88-.38v-2.76h-.17c-.24.09-.64.23-1.17.36-.55.15-1.06.23-1.56.23-.87,0-1.5-.11-1.91-.3-.43-.2-.74-.52-.99-.96-.26-.47-.41-.97-.46-1.5-.05-.53-.06-1.29-.06-2.25v-8.3h6.33v-2.58h-6.33v-5.24M606.53,68.29h-4.48l-6.25,13.53-6.47-13.53h-4.4v24.29h3.02v-20.92l6.69,14.24h1.93l6.76-14.24v20.92h3.23v-24.29M670.44,67.2h-3.07v25.37h3.07v-13.6c.83-.64,1.72-1.17,2.63-1.58s1.79-.62,2.63-.62,1.47.11,1.99.33.9.56,1.17,1.02c.26.41.44.99.53,1.72s.15,1.52.15,2.35v10.37h3.07v-11.83c0-2.23-.52-3.93-1.55-5.12s-2.54-1.78-4.49-1.78c-1.08,0-2.13.23-3.14.67-1.02.44-2.02,1.06-2.98,1.85v-9.18" style="fill: #444;"/>
      <polyline points="560.4 70.44 542.18 70.44 542.18 88.65 560.4 88.65 560.4 70.44" style="fill: #a9a9a9;"/>
      <path d="M654.41,122.52c-.49-.08-.83-.12-1.08-.15-.24-.03-.62-.05-1.15-.05-.97,0-1.91.2-2.84.61-.93.41-2,1.09-3.22,2.08v-2.69h-3.07v18.22h3.07v-12.93c.82-.67,1.67-1.2,2.55-1.62s1.79-.62,2.73-.62c.59,0,1.09.03,1.52.08.43.05.87.12,1.34.24h.17v-3.14M631.61,137.56c-.9.43-1.88.62-2.94.62-1.29,0-2.26-.26-2.88-.79-.64-.53-.94-1.31-.94-2.35,0-.93.27-1.65.82-2.17.55-.53,1.26-.91,2.14-1.17.74-.21,1.75-.36,3.01-.47,1.26-.11,2.37-.18,3.31-.24v5.07c-.76.59-1.59,1.09-2.47,1.5M637.15,128.18c0-1.17-.18-2.16-.53-2.94-.36-.79-.88-1.44-1.56-1.94-.7-.52-1.52-.87-2.47-1.08s-2.06-.32-3.35-.32c-1.09,0-2.22.09-3.34.29-1.14.2-1.99.38-2.6.53v3.11h.17c1.05-.39,2.08-.71,3.07-.93s1.88-.32,2.69-.32c.67,0,1.31.05,1.91.14s1.12.26,1.56.5c.46.26.8.62,1.05,1.08.24.46.36,1.03.36,1.73v.47c-1.78.09-3.45.21-5.01.39-1.55.17-2.88.5-3.99,1-1.09.49-1.94,1.15-2.54,2.02-.59.85-.9,1.97-.9,3.35,0,1.68.58,3.07,1.72,4.16s2.54,1.62,4.17,1.62c.9,0,1.67-.09,2.34-.26s1.24-.38,1.76-.62c.44-.2.88-.46,1.35-.79.46-.33.83-.59,1.11-.77v1.94h3.05v-12.36M604.92,129.39c.14-1.44.68-2.64,1.65-3.6.97-.97,2.28-1.46,3.92-1.46s2.84.44,3.64,1.32,1.2,2.13,1.21,3.73h-10.43M618.34,130.08c0-2.64-.67-4.68-2-6.12s-3.23-2.16-5.68-2.16c-2.66,0-4.8.88-6.42,2.63s-2.44,4.11-2.44,7.09.85,5.33,2.55,6.97,4.05,2.46,7.07,2.46c1.18,0,2.32-.15,3.39-.44,1.08-.29,2.13-.65,3.16-1.09v-3.34h-.17c-.53.49-1.43.97-2.69,1.46-1.26.5-2.5.74-3.75.74-.94,0-1.79-.14-2.57-.39-.77-.26-1.44-.65-2.02-1.17-.59-.53-1.05-1.21-1.38-2.05-.33-.83-.5-1.81-.5-2.93h13.42v-1.67M598.65,116.25l-6.71,10.85-6.63-10.85h-3.57l8.58,13.98v10.31h3.23v-10.64l8.55-13.63h-3.45" style="fill: #444;"/>
      <polyline points="560.4 136.62 542.18 136.62 542.18 118.4 560.4 118.4 560.4 136.62" style="fill: gray;"/>
      <path d="M634.1,130.99c-.94.06-2.03.14-3.31.24-1.26.11-2.28.27-3.01.47-.88.26-1.59.64-2.14,1.17s-.82,1.26-.82,2.17c0,1.05.32,1.82.94,2.35.62.53,1.59.79,2.88.79,1.08,0,2.06-.21,2.94-.62.9-.43,1.72-.93,2.47-1.5v-5.07M610.49,124.34c-1.64,0-2.94.49-3.92,1.46s-1.52,2.17-1.65,3.6h10.43c0-1.61-.41-2.85-1.21-3.73-.8-.88-2.02-1.32-3.64-1.32M646.1,125.01c1.21-.97,2.29-1.67,3.22-2.08.93-.41,1.88-.61,2.84-.61.53,0,.93,0,1.15.05.24.03.59.08,1.08.15v3.14h-.17c-.46-.11-.9-.18-1.34-.24-.43-.05-.94-.08-1.52-.08-.94,0-1.85.21-2.73.62-.88.43-1.73.96-2.55,1.62v12.93h-3.07v-18.22h3.07v2.69M623.27,125.83v-3.11c.59-.17,1.46-.35,2.6-.53,1.12-.2,2.25-.29,3.34-.29,1.28,0,2.4.11,3.35.32s1.78.58,2.47,1.08c.68.5,1.21,1.15,1.56,1.94.36.79.53,1.78.53,2.94v12.36h-3.05v-1.94c-.27.18-.64.44-1.11.77-.46.33-.91.59-1.35.79-.52.26-1.09.46-1.76.62s-1.44.26-2.34.26c-1.64,0-3.04-.55-4.17-1.62s-1.72-2.47-1.72-4.16c0-1.38.29-2.5.9-3.35.59-.85,1.44-1.52,2.54-2.02,1.11-.49,2.44-.82,3.99-1,1.55-.17,3.22-.3,5.01-.39v-.47c0-.7-.12-1.28-.36-1.73s-.59-.82-1.05-1.08c-.44-.26-.96-.43-1.56-.5-.61-.09-1.24-.14-1.91-.14-.8,0-1.7.11-2.69.32s-2.02.52-3.07.93h-.17M611.43,140.96c-3.02,0-5.37-.82-7.07-2.46s-2.55-3.96-2.55-6.97.82-5.34,2.44-7.09,3.76-2.63,6.42-2.63c2.46,0,4.36.71,5.68,2.16,1.34,1.44,2,3.48,2,6.12v1.67h-13.42c0,1.12.17,2.09.5,2.93.33.83.8,1.52,1.38,2.05.56.52,1.23.91,2.02,1.17.77.26,1.64.39,2.57.39,1.24,0,2.49-.24,3.75-.74,1.26-.5,2.16-.99,2.69-1.46h.17v3.34c-1.03.44-2.09.8-3.16,1.09-1.08.29-2.2.44-3.39.44M542.18,136.62v-18.22h18.22v18.22h-18.22M602.1,116.25h0l-8.55,13.63v10.64h-3.23v-10.31l-8.58-13.98h3.57l6.63,10.85,6.71-10.85h3.45M685.5,103.53h-164.57v47.97h164.57v-47.97" style="fill: #fff;"/>
      <path d="M652.18,122.32c-.97,0-1.91.2-2.84.61-.93.41-2,1.09-3.22,2.08v-2.69h-3.07v18.22h3.07v-12.93c.82-.67,1.67-1.2,2.55-1.62s1.79-.62,2.73-.62c.59,0,1.09.03,1.52.08.43.05.87.12,1.34.24h.17v-3.14c-.49-.08-.83-.12-1.08-.15-.24-.03-.62-.05-1.15-.05M628.66,138.18c-1.29,0-2.26-.26-2.88-.79-.64-.53-.94-1.31-.94-2.35,0-.93.27-1.65.82-2.17.55-.53,1.26-.91,2.14-1.17.74-.21,1.75-.36,3.01-.47,1.26-.11,2.37-.18,3.31-.24v5.07c-.76.59-1.59,1.09-2.47,1.5-.9.43-1.88.62-2.94.62M629.21,121.88c-1.09,0-2.22.09-3.34.29-1.14.2-1.99.38-2.6.53v3.11h.17c1.05-.39,2.08-.71,3.07-.93s1.88-.32,2.69-.32c.67,0,1.31.05,1.91.14s1.12.26,1.56.5c.46.26.8.62,1.05,1.08.24.46.36,1.03.36,1.73v.47c-1.78.09-3.45.21-5.01.39-1.55.17-2.88.5-3.99,1-1.09.49-1.94,1.15-2.54,2.02-.59.85-.9,1.97-.9,3.35,0,1.68.58,3.07,1.72,4.16s2.54,1.62,4.17,1.62c.9,0,1.67-.09,2.34-.26s1.24-.38,1.76-.62c.44-.2.88-.46,1.35-.79.46-.33.83-.59,1.11-.77v1.94h3.05v-12.36c0-1.17-.18-2.16-.53-2.94-.36-.79-.88-1.44-1.56-1.94-.7-.52-1.52-.87-2.47-1.08s-2.06-.32-3.35-.32M604.92,129.39c.14-1.44.68-2.64,1.65-3.6.97-.97,2.28-1.46,3.92-1.46s2.84.44,3.64,1.32,1.2,2.13,1.21,3.73h-10.43M610.66,121.82c-2.66,0-4.8.88-6.42,2.63s-2.44,4.11-2.44,7.09.85,5.33,2.55,6.97,4.05,2.46,7.07,2.46c1.18,0,2.32-.15,3.39-.44,1.08-.29,2.13-.65,3.16-1.09v-3.34h-.17c-.53.49-1.43.97-2.69,1.46-1.26.5-2.5.74-3.75.74-.94,0-1.79-.14-2.57-.39-.77-.26-1.44-.65-2.02-1.17-.59-.53-1.05-1.21-1.38-2.05-.33-.83-.5-1.81-.5-2.93h13.42v-1.67c0-2.64-.67-4.68-2-6.12s-3.23-2.16-5.68-2.16M602.1,116.25h-3.45l-6.71,10.85-6.63-10.85h-3.57l8.58,13.98v10.31h3.23v-10.64l8.55-13.63" style="fill: #444;"/>
      <polyline points="560.4 118.4 542.18 118.4 542.18 136.62 560.4 136.62 560.4 118.4" style="fill: gray;"/>
    </g>
  </g>
  <path d="M16.86,117.65c-1.68-.15-3.08-.8-4.22-1.94s-1.7-2.67-1.7-4.58.51-3.34,1.55-4.27,2.48-1.41,4.37-1.43v12.22ZM17.66,101.94c-3.1,0-5.47.78-7.15,2.34s-2.52,3.77-2.52,6.64c0,3.1,1.02,5.61,3.07,7.51s4.81,2.86,8.29,2.86,6.24-.99,8.16-2.98c1.91-1.98,2.87-4.75,2.87-8.28,0-1.38-.17-2.7-.51-3.97s-.77-2.49-1.28-3.7h-3.91v.2c.56.62,1.13,1.67,1.71,3.14s.87,2.93.87,4.37c0,1.1-.15,2.09-.45,3.01s-.77,1.7-1.37,2.36c-.63.69-1.43,1.23-2.39,1.62-.98.39-2.12.59-3.43.59v-15.7h-1.94l-.03-.02ZM26.46,124.12v.2c.12.29.26.74.44,1.37.17.63.26,1.25.26,1.83,0,1.01-.12,1.76-.36,2.24-.24.5-.6.87-1.11,1.16-.54.3-1.14.48-1.76.54-.63.05-1.5.08-2.63.08h-9.71v-7.41h-3.02v7.41H2.43v3.59h6.13v2.42h3.02v-2.42h11.33c2.58,0,4.46-.57,5.64-1.7s1.76-2.78,1.76-4.96c0-.62-.06-1.34-.17-2.13s-.26-1.53-.44-2.21h-3.25ZM26.4,148.56c.5,1.04.74,2.19.74,3.46,0,1.52-.32,2.64-.93,3.38-.62.74-1.53,1.11-2.75,1.11-1.08,0-1.92-.32-2.54-.95s-1.07-1.47-1.37-2.49c-.24-.87-.42-2.04-.56-3.52s-.23-2.76-.29-3.86h5.94c.69.89,1.28,1.86,1.76,2.9v-.03ZM15.42,142.08c-1.37,0-2.52.21-3.46.63s-1.68,1.04-2.27,1.83c-.6.81-1.02,1.77-1.26,2.89-.26,1.11-.38,2.42-.38,3.92,0,1.28.12,2.58.35,3.91s.44,2.33.63,3.04h3.64v-.2c-.47-1.23-.83-2.43-1.08-3.59s-.38-2.21-.38-3.14c0-.78.05-1.52.15-2.24s.3-1.32.59-1.83c.3-.54.72-.95,1.26-1.23s1.2-.44,2.03-.44h.56c.11,2.09.26,4.04.45,5.86s.59,3.38,1.16,4.67c.57,1.28,1.35,2.27,2.36,2.96s2.3,1.04,3.92,1.04c1.97,0,3.59-.66,4.87-2s1.91-2.96,1.91-4.88c0-1.04-.11-1.95-.3-2.73-.2-.78-.44-1.46-.74-2.06-.23-.51-.54-1.04-.93-1.58s-.69-.98-.9-1.29h2.27v-3.56h-14.46l.02.03ZM8.81,161.33c-.09.56-.15.98-.18,1.26-.03.29-.05.74-.05,1.35,0,1.13.24,2.24.72,3.34.48,1.08,1.29,2.34,2.43,3.77h-3.14v3.59h21.31v-3.59h-15.13c-.78-.95-1.41-1.94-1.89-2.98-.5-1.04-.74-2.1-.74-3.2,0-.69.03-1.28.09-1.79.06-.5.15-1.02.27-1.55v-.2h-3.7ZM16.05,195.28c-2.61,0-4.6.6-6,1.82s-2.07,2.96-2.07,5.26c0,1.26.26,2.48.78,3.68s1.25,2.36,2.18,3.47h-2.36v3.59h21.31v-3.59h-15.91c-.75-.98-1.37-2-1.85-3.07s-.72-2.09-.72-3.07.14-1.73.39-2.33c.26-.6.66-1.05,1.19-1.37.48-.3,1.16-.51,2.01-.63s1.77-.17,2.75-.17h12.13v-3.59h-13.82v-.02ZM25.34,223.98c1.37,1.08,2.04,2.58,2.04,4.49s-.69,3.44-2.07,4.52-3.41,1.62-6.07,1.62-4.81-.54-6.15-1.61c-1.34-1.08-2.01-2.58-2.01-4.54s.68-3.43,2.01-4.51c1.34-1.08,3.4-1.62,6.15-1.62s4.73.54,6.1,1.64h0ZM11,221.32c-2.01,1.79-3.02,4.16-3.02,7.15s1.01,5.41,3.02,7.18,4.76,2.66,8.23,2.66,6.21-.89,8.22-2.66,3.02-4.16,3.02-7.18-1.01-5.38-3.02-7.15-4.75-2.67-8.22-2.67-6.22.89-8.23,2.67ZM8.58,243.9v3.59h21.31v-3.59H8.58ZM1.29,243.68v4.04h3.73v-4.04s-3.73,0-3.73,0ZM26.46,251.85v.2c.12.29.26.74.44,1.37.17.63.26,1.25.26,1.83,0,1.01-.12,1.76-.36,2.24-.24.5-.6.87-1.11,1.16-.54.3-1.14.48-1.76.54-.63.05-1.5.08-2.63.08h-9.71v-7.41h-3.02v7.41H2.43v3.59h6.13v2.42h3.02v-2.42h11.33c2.58,0,4.46-.57,5.64-1.7s1.76-2.78,1.76-4.96c0-.62-.06-1.34-.17-2.13s-.26-1.53-.44-2.21h-3.25ZM24.6,267.53v.2c.21.27.48.63.77,1.08.3.45.59.95.84,1.47.3.6.56,1.28.75,2.03s.29,1.49.29,2.21c0,2.09-.69,3.7-2.07,4.85-1.38,1.16-3.35,1.73-5.92,1.73s-4.66-.59-6.01-1.76c-1.37-1.17-2.06-2.78-2.06-4.82,0-1.11.23-2.24.69-3.41s1.11-2.3,1.97-3.38v-.2h-3.98c-.5.98-.92,2.06-1.26,3.23-.35,1.17-.51,2.37-.51,3.59,0,3.14.99,5.67,2.98,7.59s4.72,2.87,8.2,2.87c1.86,0,3.5-.26,4.9-.77s2.55-1.23,3.47-2.15c.92-.92,1.59-2.01,2.06-3.31.45-1.28.68-2.69.68-4.24,0-1.2-.17-2.34-.48-3.43s-.77-2.21-1.34-3.41h-3.95v.02ZM16.86,304.42c-1.68-.15-3.08-.8-4.22-1.94s-1.7-2.67-1.7-4.58.51-3.34,1.55-4.27,2.48-1.41,4.37-1.43v12.22ZM17.66,288.71c-3.1,0-5.47.78-7.15,2.34s-2.52,3.77-2.52,6.64c0,3.1,1.02,5.61,3.07,7.51s4.81,2.86,8.29,2.86,6.24-.99,8.16-2.98c1.91-1.98,2.87-4.75,2.87-8.28,0-1.38-.17-2.7-.51-3.97s-.77-2.49-1.28-3.7h-3.91v.2c.56.62,1.13,1.67,1.71,3.14s.87,2.93.87,4.37c0,1.1-.15,2.09-.45,3.01s-.77,1.7-1.37,2.36c-.63.69-1.43,1.23-2.39,1.62-.98.39-2.12.59-3.43.59v-15.7h-1.97ZM.39,308.82c-.11.54-.2,1.13-.27,1.76s-.12,1.37-.12,2.16c0,2.37.68,4.19,2.03,5.45s3.29,1.89,5.83,1.89h.71v2.42h3.02v-2.42h18.29v-3.59H11.59v-6.36h-3.02v6.46h-.72c-1.77,0-3.01-.35-3.7-1.04-.68-.69-1.02-1.8-1.02-3.35,0-.48.06-1.04.18-1.68.12-.63.24-1.16.35-1.55v-.2H.38l.02.03ZM16.05,327.2c-2.61,0-4.6.6-6,1.82s-2.07,2.96-2.07,5.26c0,1.26.26,2.48.78,3.68s1.25,2.36,2.18,3.47h-2.36v3.59h21.31v-3.59h-15.91c-.75-.98-1.37-2-1.85-3.07s-.72-2.09-.72-3.07.14-1.73.39-2.33.66-1.05,1.19-1.37c.48-.3,1.16-.51,2.01-.63.86-.12,1.77-.17,2.75-.17h12.13v-3.59h-13.82ZM26.99,351.15v3.73H4.39v-3.73H1.49v11.21h2.9v-3.73h22.6v3.73h2.9v-11.21h-2.9Z" style="fill: #444;"/>
</svg>