<?xml version="1.0" encoding="UTF-8"?>
<svg id="Layer_1" data-name="Layer 1" xmlns="http://www.w3.org/2000/svg" width="577.5" height="496.53" xmlns:xlink="http://www.w3.org/1999/xlink" viewBox="0 0 577.5 496.53">
  <defs>
    <clipPath id="clippath">
      <rect x="114.01" y="1.74" width="457" height="460" style="fill: none;"/>
    </clipPath>
    <clipPath id="clippath-1">
      <rect x="355.77" width="221.73" height="204.23" style="fill: none;"/>
    </clipPath>
    <clipPath id="clippath-2">
      <path d="M487.13,36.39c-2.1,0-3.77.62-5.02,1.87-1.24,1.24-1.95,2.78-2.12,4.61h13.38c0-2.06-.53-3.66-1.56-4.78-1.03-1.13-2.59-1.69-4.67-1.69M512.63,36.39c-2.1,0-3.77.62-5.02,1.87-1.24,1.24-1.95,2.78-2.12,4.61h13.36c0-2.06-.53-3.66-1.56-4.78-1.03-1.13-2.59-1.69-4.67-1.69M488.34,57.69c-3.87,0-6.89-1.05-9.06-3.15-2.18-2.1-3.27-5.08-3.27-8.93s1.05-6.85,3.13-9.08c2.08-2.24,4.82-3.36,8.23-3.36,3.15,0,5.58.91,7.27,2.76,1.71,1.85,2.57,4.45,2.57,7.84v2.14h-17.19c0,1.44.21,2.68.64,3.75.43,1.07,1.03,1.95,1.77,2.63.72.66,1.58,1.17,2.59,1.5.99.33,2.1.51,3.29.51,1.59,0,3.19-.31,4.8-.95,1.61-.64,2.76-1.26,3.44-1.87h.21v4.28c-1.32.56-2.68,1.03-4.05,1.4-1.38.37-2.82.56-4.34.56M513.82,57.69c-3.87,0-6.89-1.05-9.06-3.15-2.18-2.1-3.27-5.08-3.27-8.93s1.05-6.85,3.13-9.08c2.08-2.24,4.82-3.36,8.23-3.36,3.15,0,5.58.91,7.27,2.76,1.71,1.85,2.57,4.45,2.57,7.84v2.14h-17.19c0,1.44.21,2.68.64,3.75.43,1.07,1.03,1.95,1.77,2.63.72.66,1.58,1.17,2.59,1.5.99.33,2.1.51,3.29.51,1.59,0,3.19-.31,4.8-.95,1.61-.64,2.76-1.26,3.44-1.87h.21v4.28c-1.32.56-2.68,1.03-4.05,1.4-1.38.37-2.82.56-4.34.56M383,52.13v-23.34h23.34v23.34h-23.34M473.95,26.02h0l-8.09,31.12h-4.67l-6.54-25.83-6.4,25.83h-4.55l-8.23-31.12h4.24l6.54,25.87,6.44-25.87h4.2l6.5,26.12,6.5-26.12h4.05M528.8,57.14V24.64h3.93v20.85l11.34-11.67h4.96l-10.85,10.78,11.63,12.56h-5.17l-9.36-10.21-2.55,2.43v7.8h-3.93M566.63,9.73h-210.86v61.46h210.86V9.73h0Z" style="fill: none;"/>
    </clipPath>
  </defs>
  <polyline points="114.01 394.96 571.01 394.96 571.01 393.96 114.01 393.96" style="fill: #eee;"/>
  <polyline points="114.01 327.67 571.01 327.67 571.01 326.67 114.01 326.67" style="fill: #eee;"/>
  <polyline points="114.01 260.39 571.01 260.39 571.01 259.39 114.01 259.39" style="fill: #eee;"/>
  <polyline points="114.01 193.1 571.01 193.1 571.01 192.1 114.01 192.1" style="fill: #eee;"/>
  <polyline points="114.01 125.82 571.01 125.82 571.01 124.82 114.01 124.82" style="fill: #eee;"/>
  <polyline points="114.01 58.53 571.01 58.53 571.01 57.53 114.01 57.53" style="fill: #eee;"/>
  <polyline points="114.01 462.24 571.01 462.24 571.01 461.24 114.01 461.24" style="fill: #444;"/>
  <g style="clip-path: url(#clippath);">
    <rect x="149.63" y="24.74" width="36.29" height="437" style="fill: #d3d3d3;"/>
    <rect x="284.04" y="306.72" width="36.29" height="155.02" style="fill: #d3d3d3;"/>
    <rect x="418.45" y="358.26" width="36.29" height="103.48" style="fill: #d3d3d3;"/>
    <rect x="189.95" y="182.39" width="36.29" height="279.35" style="fill: #a9a9a9;"/>
    <rect x="324.36" y="350.25" width="36.3" height="111.49" style="fill: #a9a9a9;"/>
    <rect x="458.78" y="390.16" width="36.29" height="71.58" style="fill: #a9a9a9;"/>
    <rect x="230.28" y="398.73" width="36.29" height="63.01" style="fill: gray;"/>
    <rect x="364.69" y="448.9" width="36.29" height="12.84" style="fill: gray;"/>
    <rect x="499.1" y="452" width="36.29" height="9.74" style="fill: gray;"/>
  </g>
  <path d="M282.87,469.99c-.39-.08-.82-.14-1.29-.19-.47-.05-1-.08-1.59-.08-1.74,0-3.07.49-3.99,1.48-.92.99-1.38,2.42-1.38,4.26v.52h-1.77v2.21h1.77v13.38h2.62v-13.38h4.65v-2.21h-4.73v-.53c0-1.3.25-2.21.77-2.7.51-.49,1.33-.74,2.46-.74.35,0,.77.04,1.23.13.47.09.84.17,1.13.26h.14v-2.4h-.04ZM272,476.15c-.42-.06-.71-.1-.92-.13-.21-.03-.53-.04-.99-.04-.83,0-1.64.17-2.43.52-.79.35-1.72.94-2.75,1.78v-2.3h-2.62v15.59h2.62v-11.07c.7-.57,1.43-1.03,2.18-1.39.75-.36,1.53-.53,2.34-.53.51,0,.94.03,1.3.06.36.04.74.1,1.14.21h.14v-2.69h-.01ZM254.32,488.24c-.79,1-1.9,1.51-3.29,1.51s-2.52-.51-3.31-1.52c-.79-1.01-1.18-2.49-1.18-4.44s.39-3.52,1.18-4.5c.78-.97,1.9-1.47,3.31-1.47s2.51.49,3.3,1.47c.79.99,1.18,2.48,1.18,4.5s-.4,3.46-1.2,4.46h0ZM256.27,477.76c-1.3-1.48-3.05-2.21-5.24-2.21s-3.96.74-5.25,2.21c-1.3,1.47-1.95,3.48-1.95,6.02s.65,4.55,1.95,6.02c1.3,1.47,3.05,2.21,5.25,2.21s3.94-.74,5.24-2.21c1.3-1.47,1.95-3.47,1.95-6.02s-.65-4.55-1.95-6.02ZM235,489.01c-.77.32-1.52.49-2.26.49-1.39,0-2.4-.48-3.04-1.44-.64-.96-.95-2.38-.95-4.22s.4-3.33,1.23-4.35c.82-1.03,1.96-1.53,3.43-1.53.66,0,1.27.06,1.83.18s1.2.34,1.9.65v8.95c-.66.52-1.38.95-2.13,1.27h-.01ZM239.77,469.86h-2.62v6.76c-.7-.36-1.36-.64-2-.81-.64-.17-1.36-.26-2.18-.26-.9,0-1.78.18-2.61.56-.84.38-1.59.91-2.21,1.62-.64.73-1.16,1.61-1.53,2.64s-.57,2.21-.57,3.53c0,2.55.55,4.52,1.64,5.96,1.09,1.43,2.57,2.14,4.43,2.14.96,0,1.85-.18,2.66-.55s1.61-.87,2.36-1.52v1.64h2.62v-21.71h.01ZM221.93,469.86h-2.62v21.71h2.62v-21.71ZM203.81,482.03c.12-1.23.58-2.26,1.42-3.08.83-.83,1.95-1.25,3.35-1.25s2.43.38,3.12,1.13,1.03,1.82,1.04,3.2h-8.94.01ZM215.3,482.62c0-2.26-.57-4-1.72-5.24-1.14-1.23-2.77-1.85-4.86-1.85-2.27,0-4.11.75-5.5,2.25-1.39,1.49-2.09,3.52-2.09,6.07s.73,4.56,2.18,5.96c1.46,1.4,3.47,2.11,6.06,2.11,1.01,0,1.99-.13,2.9-.38.91-.25,1.82-.56,2.7-.94v-2.86h-.14c-.45.42-1.22.83-2.3,1.25-1.08.43-2.14.64-3.21.64-.81,0-1.53-.12-2.2-.34-.66-.22-1.23-.56-1.73-1-.51-.45-.9-1.04-1.18-1.75-.29-.71-.43-1.55-.43-2.51h11.49v-1.43h.03ZM197.5,484.35c-.66-.68-1.6-1.16-2.82-1.44-.4-.09-.9-.19-1.49-.31-.6-.12-1.14-.22-1.62-.34-.87-.21-1.51-.47-1.9-.79-.4-.32-.6-.81-.6-1.46,0-.73.32-1.27.99-1.64.66-.36,1.47-.55,2.43-.55s1.86.17,2.82.51c.96.34,1.77.75,2.44,1.25h.14v-2.81c-.64-.32-1.43-.6-2.38-.83-.95-.23-1.9-.34-2.83-.34-1,0-1.9.13-2.7.38-.81.26-1.47.6-1.99,1.04-.55.44-.95.95-1.21,1.52s-.4,1.17-.4,1.82c0,1.03.29,1.88.86,2.59.57.7,1.55,1.23,2.91,1.6.49.13,1.04.25,1.64.36.6.12,1.09.21,1.46.3,1,.22,1.69.49,2.04.81.35.31.53.78.53,1.39,0,.81-.32,1.39-.97,1.75-.65.38-1.56.56-2.7.56-.94,0-1.9-.18-2.92-.55-1.01-.36-1.94-.87-2.77-1.48h-.14v2.95c.65.32,1.46.62,2.42.9.96.27,2.03.42,3.17.42,2.04,0,3.65-.45,4.82-1.36,1.18-.91,1.77-2.08,1.77-3.51,0-1.13-.32-2.05-.99-2.74h.01ZM182.61,484.35c-.66-.68-1.6-1.16-2.82-1.44-.4-.09-.9-.19-1.49-.31-.6-.12-1.14-.22-1.62-.34-.87-.21-1.51-.47-1.9-.79-.4-.32-.6-.81-.6-1.46,0-.73.32-1.27.99-1.64.66-.36,1.47-.55,2.43-.55s1.86.17,2.82.51c.96.34,1.77.75,2.44,1.25h.14v-2.81c-.64-.32-1.43-.6-2.38-.83-.95-.23-1.9-.34-2.83-.34-1,0-1.9.13-2.7.38-.81.26-1.47.6-1.99,1.04-.55.44-.95.95-1.21,1.52s-.4,1.17-.4,1.82c0,1.03.29,1.88.86,2.59.57.7,1.55,1.23,2.91,1.6.49.13,1.04.25,1.64.36.6.12,1.09.21,1.46.3,1,.22,1.69.49,2.04.81.35.31.53.78.53,1.39,0,.81-.32,1.39-.97,1.75-.65.38-1.56.56-2.7.56-.94,0-1.9-.18-2.92-.55-1.01-.36-1.94-.87-2.77-1.48h-.14v2.95c.65.32,1.46.62,2.42.9.96.27,2.03.42,3.17.42,2.04,0,3.65-.45,4.82-1.36,1.18-.91,1.77-2.08,1.77-3.51,0-1.13-.32-2.05-.99-2.74h.01ZM159.35,470.65h-2.78v2.72h2.78v-2.72ZM165.12,470.65h-2.78v2.72h2.78v-2.72ZM167.29,475.98h-2.62v11.64c-.7.55-1.46,1-2.25,1.35-.81.35-1.55.53-2.22.53-.77,0-1.35-.09-1.74-.27-.4-.18-.73-.48-.97-.9-.25-.4-.4-.88-.48-1.44s-.12-1.25-.12-2.03v-8.87h-2.62v10.12c0,1.94.45,3.4,1.36,4.4.91,1,2.18,1.51,3.82,1.51.97,0,1.87-.18,2.68-.56.81-.38,1.65-.91,2.55-1.61v1.73h2.62v-15.59h0ZM146.44,485.2c-.52,1.08-1.29,1.95-2.33,2.61-.83.53-1.74.9-2.73,1.09-.99.19-2.16.3-3.48.3h-2.6v-16.03h2.6c1.29,0,2.39.09,3.31.27.92.18,1.79.51,2.61.97,1.13.64,1.98,1.52,2.55,2.64.57,1.12.86,2.49.86,4.12s-.26,2.96-.78,4.05v-.03ZM148.93,475.96c-.79-1.47-1.9-2.65-3.31-3.53-.83-.51-1.85-.91-3.04-1.21-1.2-.3-2.81-.44-4.83-.44h-5.2v20.79h5.25c1.91,0,3.44-.13,4.61-.39,1.17-.26,2.22-.69,3.17-1.27,1.36-.84,2.47-2.04,3.29-3.57.82-1.53,1.23-3.25,1.23-5.13,0-2.01-.39-3.77-1.18-5.24h.01Z" style="fill: #444;"/>
  <path d="M376.46,468.12l-4.7,18.89-4.7-18.89h-3.04l-4.66,18.71-4.73-18.71h-3.07l5.95,22.51h3.29l4.63-18.68,4.73,18.68h3.38l5.85-22.51h-2.94ZM342.97,476.55c-.21.55-.55,1.04-1,1.46-.49.45-1.1.76-1.8.93s-1.53.25-2.48.25h-3.02v-8.5h3.52c.8,0,1.51.06,2.1.17.59.11,1.11.32,1.55.6.52.34.9.76,1.13,1.27.23.49.34,1.07.34,1.72,0,.84-.11,1.55-.32,2.1h0ZM341.84,480.8c1.43-.55,2.56-1.38,3.38-2.48.82-1.1,1.22-2.45,1.22-4.07,0-1.2-.23-2.19-.69-2.97s-1.1-1.42-1.91-1.94c-.73-.45-1.55-.77-2.45-.94-.9-.18-2.04-.27-3.4-.27h-6.3v22.51h3v-8.95h4.22l7.53,8.95h3.88l-8.47-9.83h0ZM325.7,468.12h-2.8v18.37l-9.74-18.37h-4.64v22.51h2.8v-20.13l10.66,20.13h3.7v-22.51h.01Z" style="fill: #444;"/>
  <path d="M543.37,474.18l-5.06,12.1-5.01-12.1h-2.98l6.5,15.54-3.03,6.82h2.94l9.52-22.34h-2.88ZM527.14,479.9c0-2-.46-3.52-1.39-4.59-.93-1.06-2.27-1.59-4.03-1.59-.97,0-1.9.2-2.82.6-.91.39-1.81.95-2.67,1.66v-1.81h-2.75v16.33h2.75v-12.19c.75-.57,1.54-1.05,2.35-1.42.82-.37,1.61-.56,2.35-.56s1.32.1,1.78.3.8.5,1.05.91c.23.37.39.88.48,1.54.08.65.14,1.36.14,2.11v9.29h2.75v-10.6h0ZM503.24,487.84c-.8.38-1.69.56-2.64.56-1.16,0-2.03-.23-2.59-.71-.57-.48-.84-1.17-.84-2.11,0-.83.24-1.48.73-1.95.49-.48,1.13-.82,1.92-1.05.67-.19,1.56-.33,2.69-.42,1.13-.1,2.12-.16,2.97-.22v4.54c-.68.53-1.43.98-2.22,1.35h-.03ZM508.2,479.43c0-1.05-.16-1.93-.48-2.64-.31-.71-.79-1.29-1.4-1.74-.63-.46-1.36-.78-2.22-.97-.86-.19-1.85-.29-3.01-.29-.98,0-1.99.08-2.99.26-1.02.18-1.78.34-2.33.48v2.79h.15c.94-.35,1.86-.64,2.75-.83.88-.19,1.69-.29,2.41-.29.6,0,1.17.04,1.71.12.54.08,1.01.23,1.4.45.41.23.72.56.94.97.22.41.33.93.33,1.55v.42c-1.59.08-3.09.19-4.49.35-1.39.15-2.59.45-3.58.9-.98.44-1.74,1.03-2.27,1.81-.53.76-.8,1.77-.8,3.01,0,1.51.52,2.75,1.54,3.73s2.27,1.46,3.74,1.46c.8,0,1.5-.08,2.1-.23.6-.15,1.12-.34,1.58-.56.39-.18.79-.41,1.21-.71.41-.3.75-.53.99-.69v1.74h2.73v-11.08h-.01ZM490.21,479.9c0-1.95-.42-3.47-1.28-4.56-.86-1.09-2.18-1.63-3.97-1.63-1.05,0-2.03.2-2.94.63-.91.41-1.93,1.09-3.03,2.03-.38-.83-.95-1.47-1.73-1.95s-1.71-.71-2.83-.71c-.97,0-1.88.2-2.72.6-.86.39-1.71.95-2.57,1.66v-1.81h-2.75v16.33h2.75v-12.19c.75-.57,1.5-1.05,2.26-1.42.75-.37,1.51-.56,2.26-.56.79,0,1.39.11,1.81.31.42.2.73.52.97.94.2.39.34.91.41,1.55.07.65.1,1.33.1,2.05v9.29h2.75v-10.45c0-.29,0-.59-.03-.88-.01-.3-.04-.56-.07-.79.78-.6,1.54-1.09,2.31-1.47.78-.38,1.54-.57,2.31-.57s1.39.11,1.81.33.73.53.97.95c.2.39.34.91.41,1.56.07.65.1,1.33.1,2.03v9.29h2.75v-10.6l-.03.03ZM463.8,474.35c-.44-.07-.75-.11-.97-.14-.22-.03-.56-.04-1.03-.04-.87,0-1.71.18-2.54.54s-1.8.98-2.88,1.86v-2.41h-2.75v16.33h2.75v-11.59c.73-.6,1.5-1.07,2.29-1.46.79-.38,1.61-.56,2.45-.56.53,0,.98.03,1.36.07.38.04.78.11,1.2.22h.15v-2.82h-.01ZM437.42,480.52c.12-1.29.61-2.37,1.48-3.22.87-.87,2.04-1.31,3.51-1.31s2.54.39,3.27,1.18c.72.79,1.07,1.9,1.09,3.35h-9.36.01ZM449.45,481.13c0-2.37-.6-4.19-1.8-5.48-1.2-1.29-2.9-1.93-5.09-1.93-2.38,0-4.3.79-5.76,2.35-1.46,1.56-2.19,3.69-2.19,6.35s.76,4.78,2.29,6.25c1.52,1.47,3.63,2.2,6.34,2.2,1.06,0,2.08-.14,3.03-.39.95-.26,1.9-.59,2.83-.98v-2.99h-.15c-.48.44-1.28.87-2.41,1.31-1.13.45-2.24.67-3.36.67-.84,0-1.61-.12-2.3-.35-.69-.23-1.29-.59-1.81-1.05-.53-.48-.94-1.09-1.24-1.84-.3-.75-.45-1.62-.45-2.63h12.03v-1.5h.03ZM430.96,479.55h-8.69v2.54h5.84v5.33c-.71.29-1.52.53-2.45.72-.93.19-1.86.27-2.8.27-2.56,0-4.57-.78-6.05-2.34-1.48-1.56-2.22-3.76-2.22-6.57,0-2.67.71-4.79,2.12-6.35,1.42-1.56,3.35-2.34,5.78-2.34,1.07,0,2.05.1,2.9.3.86.2,1.62.45,2.29.75.56.26,1.12.57,1.7.95.57.38,1.01.68,1.32.93h.26v-3.43c-1.5-.71-2.88-1.21-4.18-1.51-1.29-.3-2.56-.45-3.8-.45-3.55,0-6.34,1.01-8.37,3.02s-3.05,4.76-3.05,8.23c0,1.9.27,3.56.82,4.98.54,1.42,1.32,2.6,2.33,3.54.99.94,2.19,1.63,3.61,2.11,1.42.46,2.97.71,4.67.71,1.32,0,2.68-.2,4.08-.61,1.4-.41,2.71-.88,3.89-1.43v-9.33h.01Z" style="fill: #444;"/>
  <path d="M107.7,467.58c-.44.28-1,.42-1.68.42-.72,0-1.29-.15-1.72-.44s-.77-.72-1-1.28c-.26-.59-.43-1.27-.5-2.02-.08-.75-.12-1.69-.12-2.8,0-1.02.04-1.95.13-2.8.09-.85.26-1.54.5-2.07.26-.57.61-.99,1.05-1.27s1-.42,1.67-.42,1.24.14,1.67.42.77.69,1.03,1.25.43,1.24.52,2.04c.09.8.13,1.75.13,2.84s-.04,2.05-.13,2.83-.26,1.47-.51,2.05c-.24.57-.59.99-1.03,1.27v-.02ZM110.23,455.19c-.88-1.38-2.29-2.07-4.21-2.07s-3.29.68-4.19,2.04c-.9,1.36-1.34,3.46-1.34,6.3s.44,4.91,1.33,6.27c.88,1.36,2.29,2.04,4.21,2.04s3.29-.67,4.18-2.01c.9-1.34,1.35-3.45,1.35-6.32s-.44-4.87-1.33-6.25h0Z" style="fill: #444;"/>
  <path d="M111.58,400.32h-8.6c.71-.6,1.47-1.25,2.29-1.96s1.61-1.43,2.37-2.19c.54-.52.99-1,1.37-1.43s.7-.87.98-1.31c.3-.47.53-.97.68-1.5s.23-1.09.23-1.7c0-1.35-.47-2.43-1.4-3.22s-2.22-1.19-3.86-1.19c-.79,0-1.62.1-2.47.31s-1.53.44-2.04.69v2.26h.11c.72-.47,1.46-.82,2.22-1.05.76-.23,1.46-.34,2.12-.34.98,0,1.75.23,2.29.7.55.47.82,1.12.82,1.95,0,.91-.25,1.76-.76,2.54s-1.45,1.84-2.83,3.17c-.65.64-1.36,1.28-2.11,1.92-.76.64-1.51,1.29-2.26,1.93v2.25h10.83v-1.84h.02ZM93.72,400.3c-.44.28-1,.42-1.68.42-.72,0-1.29-.15-1.72-.44s-.77-.72-1-1.28c-.26-.59-.43-1.27-.5-2.02-.08-.75-.12-1.69-.12-2.8,0-1.02.04-1.95.13-2.8.09-.85.26-1.54.5-2.07.26-.57.61-.99,1.05-1.27s1-.42,1.67-.42,1.24.14,1.67.42.77.69,1.03,1.25.43,1.24.52,2.04c.09.8.13,1.75.13,2.84s-.04,2.05-.13,2.83-.26,1.47-.51,2.05c-.24.57-.59.99-1.03,1.27v-.02ZM96.25,387.91c-.88-1.38-2.29-2.07-4.21-2.07s-3.29.68-4.19,2.04c-.9,1.36-1.34,3.46-1.34,6.3s.44,4.91,1.33,6.27c.88,1.36,2.29,2.04,4.21,2.04s3.29-.67,4.18-2.01c.9-1.34,1.35-3.45,1.35-6.32s-.44-4.87-1.33-6.25h0ZM79.73,400.3c-.44.28-1,.42-1.68.42-.72,0-1.29-.15-1.72-.44s-.77-.72-1-1.28c-.26-.59-.43-1.27-.5-2.02-.08-.75-.12-1.69-.12-2.8,0-1.02.04-1.95.13-2.8.09-.85.26-1.54.5-2.07.26-.57.61-.99,1.05-1.27s1-.42,1.67-.42,1.24.14,1.67.42.77.69,1.03,1.25.43,1.24.52,2.04c.09.8.13,1.75.13,2.84s-.04,2.05-.13,2.83-.26,1.47-.51,2.05c-.24.57-.59.99-1.03,1.27v-.02ZM82.26,387.91c-.88-1.38-2.29-2.07-4.21-2.07s-3.29.68-4.19,2.04c-.9,1.36-1.34,3.46-1.34,6.3s.44,4.91,1.33,6.27c.88,1.36,2.29,2.04,4.21,2.04s3.29-.67,4.18-2.01c.9-1.34,1.35-3.45,1.35-6.32s-.44-4.87-1.33-6.25h0ZM68.33,399.1h-2.57v3.06h2.57v-3.06ZM57.74,400.3c-.44.28-1,.42-1.68.42-.72,0-1.29-.15-1.72-.44s-.77-.72-1-1.28c-.26-.59-.43-1.27-.5-2.02-.08-.75-.12-1.69-.12-2.8,0-1.02.04-1.95.13-2.8.09-.85.26-1.54.5-2.07.26-.57.61-.99,1.05-1.27s1-.42,1.67-.42,1.24.14,1.67.42c.43.28.77.69,1.03,1.25s.43,1.24.52,2.04c.09.8.13,1.75.13,2.84s-.04,2.05-.13,2.83-.26,1.47-.51,2.05c-.24.57-.59.99-1.03,1.27v-.02ZM60.27,387.91c-.88-1.38-2.29-2.07-4.21-2.07s-3.29.68-4.19,2.04c-.9,1.36-1.34,3.46-1.34,6.3s.44,4.91,1.33,6.27c.88,1.36,2.29,2.04,4.21,2.04s3.29-.67,4.18-2.01c.9-1.34,1.35-3.45,1.35-6.32s-.44-4.87-1.33-6.25h0Z" style="fill: #444;"/>
  <path d="M101.31,328.65l6.2-7.22v7.22h-6.2ZM111.95,328.65h-2.37v-9.78h-1.98l-7.75,9.02v2.47h7.66v4.5h2.06v-4.5h2.37v-1.72h.01ZM93.72,333.01c-.44.28-1,.42-1.68.42-.72,0-1.29-.15-1.72-.44s-.77-.72-1-1.28c-.26-.59-.43-1.27-.5-2.02-.08-.75-.12-1.69-.12-2.8,0-1.02.04-1.95.13-2.8.09-.85.26-1.54.5-2.07.26-.57.61-.99,1.05-1.27s1-.42,1.67-.42,1.24.14,1.67.42.77.69,1.03,1.25.43,1.24.52,2.04c.09.8.13,1.75.13,2.84s-.04,2.05-.13,2.83-.26,1.47-.51,2.05c-.24.57-.59.99-1.03,1.27v-.02ZM96.25,320.62c-.88-1.38-2.29-2.07-4.21-2.07s-3.29.68-4.19,2.04c-.9,1.36-1.34,3.46-1.34,6.3s.44,4.91,1.33,6.27c.88,1.36,2.29,2.04,4.21,2.04s3.29-.67,4.18-2.01c.9-1.34,1.35-3.45,1.35-6.32s-.44-4.87-1.33-6.25h0ZM79.73,333.01c-.44.28-1,.42-1.68.42-.72,0-1.29-.15-1.72-.44s-.77-.72-1-1.28c-.26-.59-.43-1.27-.5-2.02-.08-.75-.12-1.69-.12-2.8,0-1.02.04-1.95.13-2.8.09-.85.26-1.54.5-2.07.26-.57.61-.99,1.05-1.27s1-.42,1.67-.42,1.24.14,1.67.42.77.69,1.03,1.25.43,1.24.52,2.04c.09.8.13,1.75.13,2.84s-.04,2.05-.13,2.83-.26,1.47-.51,2.05c-.24.57-.59.99-1.03,1.27v-.02ZM82.26,320.62c-.88-1.38-2.29-2.07-4.21-2.07s-3.29.68-4.19,2.04c-.9,1.36-1.34,3.46-1.34,6.3s.44,4.91,1.33,6.27c.88,1.36,2.29,2.04,4.21,2.04s3.29-.67,4.18-2.01c.9-1.34,1.35-3.45,1.35-6.32s-.44-4.87-1.33-6.25h0ZM68.33,331.81h-2.57v3.06h2.57v-3.06ZM57.74,333.01c-.44.28-1,.42-1.68.42-.72,0-1.29-.15-1.72-.44s-.77-.72-1-1.28c-.26-.59-.43-1.27-.5-2.02-.08-.75-.12-1.69-.12-2.8,0-1.02.04-1.95.13-2.8.09-.85.26-1.54.5-2.07.26-.57.61-.99,1.05-1.27s1-.42,1.67-.42,1.24.14,1.67.42c.43.28.77.69,1.03,1.25s.43,1.24.52,2.04c.09.8.13,1.75.13,2.84s-.04,2.05-.13,2.83-.26,1.47-.51,2.05c-.24.57-.59.99-1.03,1.27v-.02ZM60.27,320.62c-.88-1.38-2.29-2.07-4.21-2.07s-3.29.68-4.19,2.04c-.9,1.36-1.34,3.46-1.34,6.3s.44,4.91,1.33,6.27c.88,1.36,2.29,2.04,4.21,2.04s3.29-.67,4.18-2.01c.9-1.34,1.35-3.45,1.35-6.32s-.44-4.87-1.33-6.25h0Z" style="fill: #444;"/>
  <path d="M108.75,265.22c-.59.63-1.41.95-2.45.95-.45,0-.87-.07-1.25-.22s-.74-.38-1.07-.69c-.41-.38-.73-.9-.96-1.55-.23-.66-.35-1.55-.35-2.68,0-.22,0-.41.01-.55,0-.15.02-.3.03-.46.55-.3,1.09-.52,1.61-.67.52-.14,1.09-.21,1.7-.21.44,0,.86.04,1.26.11.4.07.77.22,1.1.45.45.32.77.7.97,1.14.2.44.3.99.3,1.65,0,1.19-.3,2.1-.89,2.73h-.01ZM111.34,259.97c-.32-.67-.79-1.22-1.42-1.65-.54-.38-1.08-.63-1.6-.76-.52-.13-1.12-.19-1.8-.19-.77,0-1.44.09-2.02.28-.58.19-1.18.47-1.78.83.15-1.64.68-2.94,1.6-3.91.92-.96,2.14-1.44,3.68-1.44.42,0,.84.05,1.24.15.4.1.71.2.91.31h.11v-2.05c-.29-.09-.58-.16-.87-.19-.29-.04-.64-.05-1.06-.05-1.33,0-2.49.23-3.48.68-1,.45-1.81,1.09-2.44,1.9-.67.85-1.15,1.83-1.46,2.92-.3,1.1-.46,2.35-.46,3.77s.17,2.56.5,3.54.81,1.77,1.42,2.36c.49.48,1.06.84,1.71,1.08s1.36.37,2.15.37c1.55,0,2.87-.51,3.94-1.54s1.61-2.35,1.61-3.98c0-.95-.16-1.76-.48-2.43h0ZM93.72,265.73c-.44.28-1,.42-1.68.42-.72,0-1.29-.15-1.72-.44s-.77-.72-1-1.28c-.26-.59-.43-1.27-.5-2.02-.08-.75-.12-1.69-.12-2.8,0-1.02.04-1.95.13-2.8s.26-1.54.5-2.07c.26-.57.61-.99,1.05-1.27s1-.42,1.67-.42,1.24.14,1.67.42.77.69,1.03,1.25.43,1.24.52,2.04c.09.8.13,1.75.13,2.84s-.04,2.05-.13,2.83-.26,1.47-.51,2.05c-.24.57-.59.99-1.03,1.27v-.02ZM96.25,253.34c-.88-1.38-2.29-2.07-4.21-2.07s-3.29.68-4.19,2.04-1.34,3.46-1.34,6.3.44,4.91,1.33,6.27c.88,1.36,2.29,2.04,4.21,2.04s3.29-.67,4.18-2.01c.9-1.34,1.35-3.45,1.35-6.32s-.44-4.87-1.33-6.25h0ZM79.73,265.73c-.44.28-1,.42-1.68.42-.72,0-1.29-.15-1.72-.44s-.77-.72-1-1.28c-.26-.59-.43-1.27-.5-2.02-.08-.75-.12-1.69-.12-2.8,0-1.02.04-1.95.13-2.8s.26-1.54.5-2.07c.26-.57.61-.99,1.05-1.27s1-.42,1.67-.42,1.24.14,1.67.42.77.69,1.03,1.25.43,1.24.52,2.04c.09.8.13,1.75.13,2.84s-.04,2.05-.13,2.83-.26,1.47-.51,2.05c-.24.57-.59.99-1.03,1.27v-.02ZM82.26,253.34c-.88-1.38-2.29-2.07-4.21-2.07s-3.29.68-4.19,2.04-1.34,3.46-1.34,6.3.44,4.91,1.33,6.27c.88,1.36,2.29,2.04,4.21,2.04s3.29-.67,4.18-2.01c.9-1.34,1.35-3.45,1.35-6.32s-.44-4.87-1.33-6.25h0ZM68.33,264.53h-2.57v3.06h2.57v-3.06ZM57.74,265.73c-.44.28-1,.42-1.68.42-.72,0-1.29-.15-1.72-.44s-.77-.72-1-1.28c-.26-.59-.43-1.27-.5-2.02-.08-.75-.12-1.69-.12-2.8,0-1.02.04-1.95.13-2.8s.26-1.54.5-2.07c.26-.57.61-.99,1.05-1.27s1-.42,1.67-.42,1.24.14,1.67.42c.43.28.77.69,1.03,1.25s.43,1.24.52,2.04c.09.8.13,1.75.13,2.84s-.04,2.05-.13,2.83-.26,1.47-.51,2.05c-.24.57-.59.99-1.03,1.27v-.02ZM60.27,253.34c-.88-1.38-2.29-2.07-4.21-2.07s-3.29.68-4.19,2.04c-.9,1.36-1.34,3.46-1.34,6.3s.44,4.91,1.33,6.27c.88,1.36,2.29,2.04,4.21,2.04s3.29-.67,4.18-2.01c.9-1.34,1.35-3.45,1.35-6.32s-.44-4.87-1.33-6.25h0Z" style="fill: #444;"/>
  <path d="M108.55,198.26c-.63.54-1.46.81-2.51.81s-1.87-.32-2.54-.95-1-1.43-1-2.4c0-.76.19-1.44.59-2.04.39-.6.91-1.08,1.55-1.43.67.24,1.2.43,1.6.57s.77.28,1.11.44c.84.4,1.41.8,1.7,1.2.29.4.44.92.44,1.58,0,.94-.31,1.68-.94,2.21h0ZM108.75,189.79c-.27.51-.76,1-1.47,1.47-.47-.14-.96-.31-1.46-.52s-.88-.38-1.14-.5c-.59-.29-1.03-.63-1.32-1-.29-.38-.44-.82-.44-1.34,0-.73.29-1.31.86-1.74.58-.43,1.32-.64,2.22-.64s1.67.23,2.26.68c.59.46.89,1.07.89,1.83,0,.67-.14,1.25-.41,1.76h.01ZM110.9,193.44c-.53-.63-1.3-1.16-2.3-1.59v-.06c.87-.39,1.54-.94,1.99-1.64s.68-1.41.68-2.13c0-1.18-.48-2.16-1.43-2.92-.95-.77-2.23-1.15-3.82-1.15s-2.78.4-3.77,1.2-1.48,1.8-1.48,3.01c0,.82.21,1.5.62,2.04s1.05,1.05,1.91,1.5v.06c-.94.42-1.67.99-2.18,1.71-.52.72-.77,1.52-.77,2.41,0,1.4.51,2.54,1.54,3.44,1.03.9,2.41,1.34,4.14,1.34,1.63,0,2.99-.46,4.07-1.38,1.08-.92,1.62-2.07,1.62-3.45,0-.97-.27-1.78-.79-2.41l-.03.02ZM93.72,198.44c-.44.28-1,.42-1.68.42-.72,0-1.29-.15-1.72-.44-.43-.29-.77-.72-1-1.28-.26-.59-.43-1.27-.5-2.02-.08-.75-.12-1.69-.12-2.8,0-1.02.04-1.95.13-2.8.09-.85.26-1.54.5-2.07.26-.57.61-.99,1.05-1.27s1-.42,1.67-.42,1.24.14,1.67.42.77.69,1.03,1.25.43,1.24.52,2.04.13,1.75.13,2.84-.04,2.05-.13,2.83-.26,1.47-.51,2.05c-.24.57-.59.99-1.03,1.27v-.02ZM96.25,186.05c-.88-1.38-2.29-2.07-4.21-2.07s-3.29.68-4.19,2.04c-.9,1.36-1.34,3.46-1.34,6.3s.44,4.91,1.33,6.27c.88,1.36,2.29,2.04,4.21,2.04s3.29-.67,4.18-2.01c.9-1.34,1.35-3.45,1.35-6.32s-.44-4.87-1.33-6.25ZM79.73,198.44c-.44.28-1,.42-1.68.42-.72,0-1.29-.15-1.72-.44-.43-.29-.77-.72-1-1.28-.26-.59-.43-1.27-.5-2.02-.08-.75-.12-1.69-.12-2.8,0-1.02.04-1.95.13-2.8.09-.85.26-1.54.5-2.07.26-.57.61-.99,1.05-1.27s1-.42,1.67-.42,1.24.14,1.67.42.77.69,1.03,1.25.43,1.24.52,2.04.13,1.75.13,2.84-.04,2.05-.13,2.83-.26,1.47-.51,2.05c-.24.57-.59.99-1.03,1.27v-.02ZM82.26,186.05c-.88-1.38-2.29-2.07-4.21-2.07s-3.29.68-4.19,2.04c-.9,1.36-1.34,3.46-1.34,6.3s.44,4.91,1.33,6.27c.88,1.36,2.29,2.04,4.21,2.04s3.29-.67,4.18-2.01c.9-1.34,1.35-3.45,1.35-6.32s-.44-4.87-1.33-6.25ZM68.33,197.24h-2.57v3.06h2.57v-3.06ZM57.74,198.44c-.44.28-1,.42-1.68.42-.72,0-1.29-.15-1.72-.44-.43-.29-.77-.72-1-1.28-.26-.59-.43-1.27-.5-2.02-.08-.75-.12-1.69-.12-2.8,0-1.02.04-1.95.13-2.8.09-.85.26-1.54.5-2.07.26-.57.61-.99,1.05-1.27s1-.42,1.67-.42,1.24.14,1.67.42c.43.28.77.69,1.03,1.25s.43,1.24.52,2.04.13,1.75.13,2.84-.04,2.05-.13,2.83-.26,1.47-.51,2.05c-.24.57-.59.99-1.03,1.27v-.02ZM60.27,186.05c-.88-1.38-2.29-2.07-4.21-2.07s-3.29.68-4.19,2.04c-.9,1.36-1.34,3.46-1.34,6.3s.44,4.91,1.33,6.27c.88,1.36,2.29,2.04,4.21,2.04s3.29-.67,4.18-2.01c.9-1.34,1.35-3.45,1.35-6.32s-.44-4.87-1.33-6.25Z" style="fill: #444;"/>
  <path d="M110.67,131.39h-3.27v-14.42h-1.67c-.03.47-.14.84-.33,1.11-.19.28-.45.5-.78.68-.27.14-.66.25-1.17.33-.52.08-1,.11-1.45.11v1.46h3.33v10.72h-3.33v1.63h8.66v-1.63h0ZM93.72,131.16c-.44.28-1,.42-1.68.42-.72,0-1.29-.15-1.72-.44s-.77-.72-1-1.28c-.26-.59-.43-1.27-.5-2.02-.08-.75-.12-1.69-.12-2.8,0-1.02.04-1.95.13-2.8s.26-1.54.5-2.07c.26-.57.61-.99,1.05-1.27s1-.42,1.67-.42,1.24.14,1.67.42.77.69,1.03,1.25.43,1.24.52,2.04c.09.8.13,1.75.13,2.84s-.04,2.05-.13,2.83-.26,1.47-.51,2.05c-.24.57-.59.99-1.03,1.27v-.02ZM96.25,118.77c-.88-1.38-2.29-2.07-4.21-2.07s-3.29.68-4.19,2.04-1.34,3.46-1.34,6.3.44,4.91,1.33,6.27c.88,1.36,2.29,2.04,4.21,2.04s3.29-.67,4.18-2.01c.9-1.34,1.35-3.45,1.35-6.32s-.44-4.87-1.33-6.25ZM82.32,129.96h-2.57v3.06h2.57v-3.06ZM71.73,131.16c-.44.28-1,.42-1.68.42-.72,0-1.29-.15-1.72-.44s-.77-.72-1-1.28c-.26-.59-.43-1.27-.5-2.02-.08-.75-.12-1.69-.12-2.8,0-1.02.04-1.95.13-2.8s.26-1.54.5-2.07c.26-.57.61-.99,1.05-1.27s1-.42,1.67-.42,1.24.14,1.67.42.77.69,1.03,1.25.43,1.24.52,2.04c.09.8.13,1.75.13,2.84s-.04,2.05-.13,2.83-.26,1.47-.51,2.05c-.24.57-.59.99-1.03,1.27v-.02ZM74.26,118.77c-.88-1.38-2.29-2.07-4.21-2.07s-3.29.68-4.19,2.04-1.34,3.46-1.34,6.3.44,4.91,1.33,6.27c.88,1.36,2.29,2.04,4.21,2.04s3.29-.67,4.18-2.01c.9-1.34,1.35-3.45,1.35-6.32s-.44-4.87-1.33-6.25Z" style="fill: #444;"/>
  <path d="M111.58,63.89h-8.6c.71-.6,1.47-1.25,2.29-1.96s1.61-1.43,2.37-2.19c.54-.52.99-1,1.37-1.43s.7-.87.98-1.31c.3-.47.53-.97.68-1.5s.23-1.09.23-1.7c0-1.35-.47-2.43-1.4-3.22s-2.22-1.19-3.86-1.19c-.79,0-1.62.1-2.47.31-.85.21-1.53.44-2.04.69v2.26h.11c.72-.47,1.46-.82,2.22-1.05.76-.23,1.46-.34,2.12-.34.98,0,1.75.23,2.29.7.55.47.82,1.12.82,1.95,0,.91-.25,1.76-.76,2.54s-1.45,1.84-2.83,3.17c-.65.64-1.36,1.28-2.11,1.92-.76.64-1.51,1.29-2.26,1.93v2.25h10.83v-1.84h.02ZM96.68,64.1h-3.27v-14.42h-1.67c-.03.47-.14.84-.33,1.11-.19.28-.45.5-.78.68-.27.14-.66.25-1.17.33-.52.08-1,.11-1.45.11v1.46h3.33v10.72h-3.33v1.63h8.66v-1.63h0ZM79.73,63.87c-.44.28-1,.42-1.68.42-.72,0-1.29-.15-1.72-.44-.43-.29-.77-.72-1-1.28-.26-.59-.43-1.27-.5-2.02-.08-.75-.12-1.69-.12-2.8,0-1.02.04-1.95.13-2.8.09-.85.26-1.54.5-2.07.26-.57.61-.99,1.05-1.27s1-.42,1.67-.42,1.24.14,1.67.42.77.69,1.03,1.25.43,1.24.52,2.04.13,1.75.13,2.84-.04,2.05-.13,2.83c-.09.78-.26,1.47-.51,2.05-.24.57-.59.99-1.03,1.27v-.02ZM82.26,51.48c-.88-1.38-2.29-2.07-4.21-2.07s-3.29.68-4.19,2.04c-.9,1.36-1.34,3.46-1.34,6.3s.44,4.91,1.33,6.27c.88,1.36,2.29,2.04,4.21,2.04s3.29-.67,4.18-2.01c.9-1.34,1.35-3.45,1.35-6.32s-.44-4.87-1.33-6.25ZM68.33,62.67h-2.57v3.06h2.57v-3.06ZM57.74,63.87c-.44.28-1,.42-1.68.42-.72,0-1.29-.15-1.72-.44-.43-.29-.77-.72-1-1.28-.26-.59-.43-1.27-.5-2.02-.08-.75-.12-1.69-.12-2.8,0-1.02.04-1.95.13-2.8.09-.85.26-1.54.5-2.07.26-.57.61-.99,1.05-1.27s1-.42,1.67-.42,1.24.14,1.67.42c.43.28.77.69,1.03,1.25s.43,1.24.52,2.04.13,1.75.13,2.84-.04,2.05-.13,2.83c-.09.78-.26,1.47-.51,2.05-.24.57-.59.99-1.03,1.27v-.02ZM60.27,51.48c-.88-1.38-2.29-2.07-4.21-2.07s-3.29.68-4.19,2.04c-.9,1.36-1.34,3.46-1.34,6.3s.44,4.91,1.33,6.27c.88,1.36,2.29,2.04,4.21,2.04s3.29-.67,4.18-2.01c.9-1.34,1.35-3.45,1.35-6.32s-.44-4.87-1.33-6.25Z" style="fill: #444;"/>
  <g style="clip-path: url(#clippath-1);">
    <path d="M538.19,44.58l10.85-10.78h-4.96l-11.34,11.67v-20.85h-3.93v32.5h3.93v-7.8l2.55-2.43,9.36,10.21h5.17l-11.63-12.56M505.48,42.87c.18-1.85.88-3.38,2.12-4.61,1.24-1.24,2.92-1.87,5.02-1.87s3.64.56,4.67,1.69c1.03,1.13,1.54,2.72,1.56,4.78h-13.36M522.69,43.74c0-3.38-.86-5.99-2.57-7.84-1.71-1.85-4.14-2.76-7.27-2.76-3.4,0-6.15,1.13-8.23,3.36-2.08,2.24-3.13,5.27-3.13,9.08s1.09,6.83,3.27,8.93c2.18,2.1,5.19,3.15,9.06,3.15,1.52,0,2.98-.19,4.34-.56,1.38-.37,2.72-.84,4.05-1.4v-4.28h-.21c-.68.62-1.83,1.24-3.44,1.87-1.61.64-3.21.95-4.8.95-1.21,0-2.3-.18-3.29-.51s-1.85-.84-2.59-1.5c-.76-.68-1.34-1.56-1.77-2.63-.43-1.07-.64-2.31-.64-3.75h17.19v-2.14M480,42.87c.18-1.85.88-3.38,2.12-4.61,1.24-1.24,2.92-1.87,5.02-1.87s3.64.56,4.67,1.69c1.03,1.13,1.54,2.72,1.56,4.78h-13.38M497.19,43.74c0-3.38-.86-5.99-2.57-7.84-1.71-1.85-4.14-2.76-7.27-2.76-3.4,0-6.15,1.13-8.23,3.36-2.08,2.24-3.13,5.27-3.13,9.08s1.09,6.83,3.27,8.93c2.18,2.1,5.19,3.15,9.06,3.15,1.52,0,2.98-.19,4.34-.56,1.38-.37,2.72-.84,4.05-1.4v-4.28h-.21c-.68.62-1.83,1.24-3.44,1.87-1.61.64-3.21.95-4.8.95-1.21,0-2.3-.18-3.29-.51-.99-.33-1.85-.84-2.59-1.5-.76-.68-1.34-1.56-1.77-2.63-.43-1.07-.64-2.31-.64-3.75h17.19v-2.14M469.9,26.02l-6.5,26.12-6.5-26.12h-4.2l-6.44,25.87-6.54-25.87h-4.24l8.23,31.12h4.55l6.4-25.83,6.54,25.83h4.67l8.09-31.12h-4.05" style="fill: #444;"/>
    <polyline points="406.34 52.13 383 52.13 383 28.79 406.34 28.79 406.34 52.13" style="fill: #d3d3d3;"/>
    <g style="clip-path: url(#clippath-2);">
      <rect x="355.77" y="9.73" width="210.86" height="61.46" style="fill: #fff;"/>
    </g>
    <path d="M480,42.87c.18-1.85.88-3.38,2.12-4.61,1.24-1.24,2.92-1.87,5.02-1.87s3.64.56,4.67,1.69c1.03,1.13,1.54,2.72,1.56,4.78h-13.38M487.35,33.16c-3.4,0-6.15,1.13-8.23,3.36s-3.13,5.27-3.13,9.08,1.09,6.83,3.27,8.93c2.18,2.1,5.19,3.15,9.06,3.15,1.52,0,2.98-.19,4.34-.56,1.38-.37,2.72-.84,4.05-1.4v-4.28h-.21c-.68.62-1.83,1.24-3.44,1.87-1.61.64-3.21.95-4.8.95-1.21,0-2.3-.18-3.29-.51-.99-.33-1.85-.84-2.59-1.5-.76-.68-1.34-1.56-1.77-2.63s-.64-2.31-.64-3.75h17.19v-2.14c0-3.38-.86-5.99-2.57-7.84-1.71-1.85-4.14-2.76-7.27-2.76M505.48,42.87c.18-1.85.88-3.38,2.12-4.61,1.24-1.24,2.92-1.87,5.02-1.87s3.64.56,4.67,1.69c1.03,1.13,1.54,2.72,1.56,4.78h-13.36M512.85,33.16c-3.4,0-6.15,1.13-8.23,3.36s-3.13,5.27-3.13,9.08,1.09,6.83,3.27,8.93c2.18,2.1,5.19,3.15,9.06,3.15,1.52,0,2.98-.19,4.34-.56,1.38-.37,2.72-.84,4.05-1.4v-4.28h-.21c-.68.62-1.83,1.24-3.44,1.87-1.61.64-3.21.95-4.8.95-1.21,0-2.3-.18-3.29-.51s-1.85-.84-2.59-1.5c-.76-.68-1.34-1.56-1.77-2.63s-.64-2.31-.64-3.75h17.19v-2.14c0-3.38-.86-5.99-2.57-7.84-1.71-1.85-4.14-2.76-7.27-2.76M473.95,26.02h-4.05l-6.5,26.12-6.5-26.12h-4.2l-6.44,25.87-6.54-25.87h-4.24l8.23,31.12h4.55l6.4-25.83,6.54,25.83h4.67l8.09-31.12M532.73,24.64h-3.93v32.5h3.93v-7.8l2.55-2.43,9.36,10.21h5.17l-11.63-12.56,10.85-10.78h-4.96l-11.34,11.67v-20.85" style="fill: #444;"/>
    <polyline points="406.34 28.79 383 28.79 383 52.13 406.34 52.13 406.34 28.79" style="fill: #d3d3d3;"/>
    <path d="M562.91,103.46c0-2.86-.66-5.04-1.98-6.55s-3.25-2.28-5.76-2.28c-1.38,0-2.72.29-4.03.86s-2.59,1.36-3.81,2.37v-11.77h-3.93v32.5h3.93v-17.43c1.07-.82,2.2-1.5,3.36-2.02,1.17-.53,2.3-.8,3.36-.8s1.89.14,2.55.43c.66.29,1.15.72,1.5,1.3.33.53.56,1.26.68,2.2s.19,1.94.19,3.01v13.28h3.93v-15.15M538.66,114.87h-.21c-.31.12-.82.29-1.5.47-.7.19-1.36.29-2,.29-1.11,0-1.93-.14-2.45-.39-.54-.25-.95-.66-1.26-1.23-.33-.6-.53-1.24-.58-1.93-.06-.68-.08-1.65-.08-2.88v-10.64h8.11v-3.31h-8.11v-6.71h-3.93v6.71h-2.65v3.31h2.65v12.41c0,2.82.62,4.88,1.87,6.17,1.24,1.28,3.05,1.93,5.43,1.93.68,0,1.46-.06,2.33-.19.88-.12,1.67-.29,2.41-.49v-3.54M518.97,103.46c0-2.86-.66-5.04-1.98-6.55s-3.25-2.28-5.76-2.28c-1.38,0-2.72.29-4.03.86s-2.59,1.36-3.81,2.37v-2.59h-3.93v23.34h3.93v-17.43c1.07-.82,2.2-1.5,3.36-2.02,1.17-.53,2.3-.8,3.36-.8s1.89.14,2.55.43c.66.29,1.15.72,1.5,1.3.33.53.56,1.26.68,2.2s.19,1.95.19,3.01v13.28h3.93v-15.15M487.54,113.63c-1.19,1.5-2.84,2.26-4.92,2.26s-3.77-.76-4.96-2.26c-1.19-1.52-1.77-3.73-1.77-6.65s.58-5.27,1.77-6.73c1.17-1.46,2.84-2.2,4.96-2.2s3.75.74,4.94,2.2c1.19,1.48,1.77,3.71,1.77,6.73s-.6,5.17-1.79,6.67M490.46,97.93c-1.95-2.22-4.57-3.31-7.84-3.31s-5.93,1.11-7.86,3.31c-1.95,2.2-2.92,5.21-2.92,9.01s.97,6.81,2.92,9.01c1.94,2.2,4.57,3.31,7.86,3.31s5.89-1.11,7.84-3.31c1.95-2.2,2.92-5.19,2.92-9.01s-.97-6.81-2.92-9.01M465.45,87.51h-5.74l-8.01,17.33-8.29-17.33h-5.64v31.12h3.87v-26.8l8.58,18.24h2.47l8.66-18.24v26.8h4.14v-31.12" style="fill: #444;"/>
    <polyline points="406.34 113.59 383 113.59 383 90.25 406.34 90.25 406.34 113.59" style="fill: #a9a9a9;"/>
    <path d="M482.62,98.01c-2.14,0-3.79.74-4.96,2.2-1.19,1.48-1.77,3.71-1.77,6.73s.58,5.13,1.77,6.65,2.84,2.26,4.96,2.26,3.73-.74,4.92-2.26c1.19-1.5,1.79-3.71,1.79-6.67s-.58-5.27-1.77-6.73c-1.19-1.46-2.82-2.2-4.94-2.2M482.62,119.25c-3.31,0-5.93-1.11-7.86-3.31-1.95-2.2-2.92-5.19-2.92-9.01s.97-6.81,2.92-9.01c1.94-2.22,4.57-3.31,7.86-3.31s5.89,1.11,7.84,3.31,2.92,5.21,2.92,9.01-.97,6.81-2.92,9.01c-1.95,2.2-4.57,3.31-7.84,3.31M503.4,97.85c1.23-1.01,2.49-1.81,3.81-2.37,1.3-.56,2.65-.86,4.03-.86,2.53,0,4.43.76,5.76,2.28s1.98,3.71,1.98,6.55v15.15h-3.93v-13.28c0-1.07-.06-2.08-.19-3.01-.12-.93-.35-1.67-.68-2.2-.35-.58-.86-1.01-1.5-1.3-.66-.29-1.5-.43-2.55-.43s-2.2.27-3.36.8-2.3,1.21-3.36,2.02v17.43h-3.93v-23.34h3.93v2.59M383,113.59v-23.34h23.34v23.34h-23.34M523.97,98.57v-3.31h2.65v-6.71h3.93v6.71h8.11v3.31h-8.11v10.64c0,1.23.02,2.18.08,2.88.06.7.25,1.34.58,1.93.31.56.72.97,1.26,1.23.54.25,1.36.39,2.45.39.64,0,1.3-.1,2-.29.7-.19,1.21-.35,1.5-.47h.21v3.54c-.74.19-1.54.35-2.41.49-.88.12-1.65.19-2.33.19-2.37,0-4.2-.64-5.43-1.93-1.24-1.28-1.87-3.33-1.87-6.17v-12.41h-2.65M451.68,104.82l8.01-17.33h5.74v31.12h-4.14v-26.8l-8.66,18.24h-2.47l-8.58-18.24v26.8h-3.87v-31.12h5.64l8.29,17.33M543.4,118.61v-32.5h3.93v11.77c1.23-1.01,2.49-1.81,3.81-2.37,1.3-.56,2.65-.86,4.03-.86,2.53,0,4.43.76,5.76,2.28,1.32,1.52,1.98,3.71,1.98,6.55v15.15h-3.93v-13.28c0-1.07-.06-2.08-.19-3.01-.12-.93-.35-1.67-.68-2.2-.35-.58-.86-1.01-1.5-1.3-.66-.29-1.5-.43-2.55-.43s-2.2.27-3.36.8c-1.17.53-2.3,1.21-3.36,2.02v17.43h-3.93M566.63,71.19h-210.86v61.46h210.86v-61.46" style="fill: #fff;"/>
    <path d="M482.62,115.86c-2.12,0-3.77-.76-4.96-2.26-1.19-1.52-1.77-3.73-1.77-6.65s.58-5.27,1.77-6.73c1.17-1.46,2.84-2.2,4.96-2.2s3.75.74,4.94,2.2c1.19,1.48,1.77,3.71,1.77,6.73s-.6,5.17-1.79,6.67-2.84,2.26-4.92,2.26M482.62,94.62c-3.31,0-5.93,1.11-7.86,3.31-1.95,2.2-2.92,5.21-2.92,9.01s.97,6.81,2.92,9.01c1.94,2.2,4.57,3.31,7.86,3.31s5.89-1.11,7.84-3.31,2.92-5.19,2.92-9.01-.97-6.81-2.92-9.01c-1.95-2.22-4.57-3.31-7.84-3.31M511.23,94.62c-1.38,0-2.72.29-4.03.86s-2.59,1.36-3.81,2.37v-2.59h-3.93v23.34h3.93v-17.43c1.07-.82,2.2-1.5,3.36-2.02,1.17-.53,2.3-.8,3.36-.8s1.89.14,2.55.43c.66.29,1.15.72,1.5,1.3.33.53.56,1.26.68,2.2.12.93.19,1.95.19,3.01v13.28h3.93v-15.15c0-2.86-.66-5.04-1.98-6.55-1.32-1.52-3.25-2.28-5.76-2.28M530.57,88.56h-3.93v6.71h-2.65v3.31h2.65v12.41c0,2.82.62,4.88,1.87,6.17,1.24,1.28,3.05,1.93,5.43,1.93.68,0,1.46-.06,2.33-.19.88-.12,1.67-.29,2.41-.49v-3.54h-.21c-.31.12-.82.29-1.5.47-.7.19-1.36.29-2,.29-1.11,0-1.93-.14-2.45-.39-.54-.25-.95-.66-1.26-1.23-.33-.6-.53-1.24-.58-1.93-.06-.68-.08-1.65-.08-2.88v-10.64h8.11v-3.31h-8.11v-6.71M465.45,87.51h-5.74l-8.01,17.33-8.29-17.33h-5.64v31.12h3.87v-26.8l8.58,18.24h2.47l8.66-18.24v26.8h4.14v-31.12M547.33,86.11h-3.93v32.5h3.93v-17.43c1.07-.82,2.2-1.5,3.36-2.02,1.17-.53,2.3-.8,3.36-.8s1.89.14,2.55.43c.66.29,1.15.72,1.5,1.3.33.53.56,1.26.68,2.2s.19,1.95.19,3.01v13.28h3.93v-15.15c0-2.86-.66-5.04-1.98-6.55-1.32-1.52-3.25-2.28-5.76-2.28-1.38,0-2.72.29-4.03.86s-2.59,1.36-3.81,2.37v-11.77" style="fill: #444;"/>
    <polyline points="406.34 90.25 383 90.25 383 113.59 406.34 113.59 406.34 90.25" style="fill: #a9a9a9;"/>
    <path d="M526.79,156.98c-.62-.1-1.07-.16-1.38-.19-.31-.04-.8-.06-1.48-.06-1.24,0-2.45.25-3.64.78s-2.57,1.4-4.12,2.66v-3.44h-3.93v23.34h3.93v-16.57c1.05-.86,2.14-1.54,3.27-2.08s2.3-.8,3.5-.8c.76,0,1.4.04,1.95.1.54.06,1.11.16,1.71.31h.21v-4.03M497.58,176.26c-1.15.54-2.41.8-3.77.8-1.65,0-2.9-.33-3.7-1.01-.82-.68-1.21-1.67-1.21-3.01,0-1.19.35-2.12,1.05-2.78.7-.68,1.61-1.17,2.74-1.5.95-.27,2.24-.47,3.85-.6,1.61-.14,3.03-.23,4.24-.31v6.5c-.97.76-2.04,1.4-3.17,1.93M504.68,164.24c0-1.5-.23-2.76-.68-3.77-.47-1.01-1.13-1.85-2-2.49-.89-.66-1.94-1.11-3.17-1.38-1.23-.27-2.65-.41-4.3-.41-1.4,0-2.84.12-4.28.37-1.46.25-2.55.49-3.33.68v3.99h.21c1.34-.51,2.66-.91,3.93-1.19,1.26-.27,2.41-.41,3.44-.41.86,0,1.67.06,2.45.18.78.12,1.44.33,2,.64.58.33,1.03.8,1.34,1.38.31.58.47,1.32.47,2.22v.6c-2.28.12-4.42.27-6.42.51-1.98.21-3.7.64-5.12,1.28-1.4.62-2.49,1.48-3.25,2.59-.76,1.09-1.15,2.53-1.15,4.3,0,2.16.74,3.93,2.2,5.33,1.46,1.4,3.25,2.08,5.35,2.08,1.15,0,2.14-.12,3-.33.86-.21,1.59-.49,2.26-.8.56-.25,1.13-.58,1.73-1.01.58-.43,1.07-.76,1.42-.99v2.49h3.91v-15.83M463.39,165.79c.18-1.85.88-3.38,2.12-4.61,1.24-1.24,2.92-1.87,5.02-1.87s3.64.56,4.67,1.69c1.03,1.13,1.54,2.72,1.56,4.78h-13.36M480.58,166.67c0-3.38-.86-5.99-2.57-7.84-1.71-1.85-4.14-2.76-7.27-2.76-3.4,0-6.15,1.13-8.23,3.36s-3.13,5.27-3.13,9.08,1.09,6.83,3.27,8.93c2.18,2.1,5.19,3.15,9.06,3.15,1.52,0,2.98-.19,4.34-.56,1.38-.37,2.72-.84,4.05-1.4v-4.28h-.21c-.68.62-1.83,1.24-3.44,1.87-1.61.64-3.21.95-4.8.95-1.21,0-2.3-.18-3.29-.51-.99-.33-1.85-.84-2.59-1.5-.76-.68-1.34-1.56-1.77-2.63s-.64-2.31-.64-3.75h17.19v-2.14M455.35,148.95l-8.6,13.91-8.5-13.91h-4.57l10.99,17.91v13.21h4.14v-13.63l10.95-17.47h-4.42" style="fill: #444;"/>
    <polyline points="406.34 175.05 383 175.05 383 151.71 406.34 151.71 406.34 175.05" style="fill: gray;"/>
    <path d="M500.77,167.83c-1.21.08-2.61.18-4.24.31-1.61.14-2.92.35-3.85.6-1.13.33-2.04.82-2.74,1.5-.7.68-1.05,1.61-1.05,2.78,0,1.34.41,2.33,1.21,3.01s2.04,1.01,3.7,1.01c1.38,0,2.65-.27,3.77-.8,1.15-.54,2.2-1.19,3.17-1.93v-6.5M470.52,159.32c-2.1,0-3.77.62-5.02,1.87-1.24,1.24-1.95,2.78-2.12,4.61h13.36c0-2.06-.53-3.66-1.56-4.78-1.03-1.13-2.59-1.69-4.67-1.69M516.15,160.17c1.56-1.24,2.94-2.14,4.12-2.66s2.41-.78,3.64-.78c.68,0,1.19,0,1.48.06.31.04.76.1,1.38.19v4.03h-.21c-.58-.14-1.15-.23-1.71-.31-.54-.06-1.21-.1-1.95-.1-1.21,0-2.37.27-3.5.8-1.13.54-2.22,1.23-3.27,2.08v16.57h-3.93v-23.34h3.93v3.44M486.9,161.22v-3.99c.76-.21,1.87-.45,3.33-.68,1.44-.25,2.88-.37,4.28-.37,1.63,0,3.07.14,4.3.41,1.23.27,2.28.74,3.17,1.38.88.64,1.56,1.48,2,2.49.47,1.01.68,2.28.68,3.77v15.83h-3.91v-2.49c-.35.23-.82.56-1.42.99-.58.43-1.17.76-1.73,1.01-.66.33-1.4.58-2.26.8-.86.21-1.85.33-3,.33-2.1,0-3.89-.7-5.35-2.08-1.46-1.38-2.2-3.17-2.2-5.33,0-1.77.37-3.21,1.15-4.3.76-1.09,1.85-1.94,3.25-2.59,1.42-.62,3.13-1.05,5.12-1.28,1.98-.21,4.12-.39,6.42-.51v-.6c0-.89-.16-1.63-.47-2.22-.31-.58-.76-1.05-1.34-1.38-.56-.33-1.23-.54-2-.64-.78-.12-1.59-.18-2.45-.18-1.03,0-2.18.14-3.44.41-1.26.27-2.59.66-3.93,1.19h-.21M471.73,180.61c-3.87,0-6.89-1.05-9.06-3.15-2.18-2.1-3.27-5.08-3.27-8.93s1.05-6.85,3.13-9.08,4.82-3.36,8.23-3.36c3.15,0,5.58.91,7.27,2.76,1.71,1.85,2.57,4.45,2.57,7.84v2.14h-17.19c0,1.44.21,2.68.64,3.75.43,1.07,1.03,1.95,1.77,2.63.72.66,1.58,1.17,2.59,1.5.99.33,2.1.51,3.29.51,1.59,0,3.19-.31,4.8-.95,1.61-.64,2.76-1.26,3.44-1.87h.21v4.28c-1.32.56-2.68,1.03-4.05,1.4-1.38.37-2.82.56-4.34.56M383,175.05v-23.34h23.34v23.34h-23.34M459.77,148.95h0l-10.95,17.47v13.63h-4.14v-13.21l-10.99-17.91h4.57l8.5,13.91,8.6-13.91h4.42M566.63,132.65h-210.86v61.46h210.86v-61.46" style="fill: #fff;"/>
    <path d="M523.93,156.73c-1.24,0-2.45.25-3.64.78s-2.57,1.4-4.12,2.66v-3.44h-3.93v23.34h3.93v-16.57c1.05-.86,2.14-1.54,3.27-2.08,1.13-.54,2.3-.8,3.5-.8.76,0,1.4.04,1.95.1.54.06,1.11.16,1.71.31h.21v-4.03c-.62-.1-1.07-.16-1.38-.19-.31-.04-.8-.06-1.48-.06M493.81,177.05c-1.65,0-2.9-.33-3.7-1.01-.82-.68-1.21-1.67-1.21-3.01,0-1.19.35-2.12,1.05-2.78.7-.68,1.61-1.17,2.74-1.5.95-.27,2.24-.47,3.85-.6,1.61-.14,3.03-.23,4.24-.31v6.5c-.97.76-2.04,1.4-3.17,1.93-1.15.54-2.41.8-3.77.8M494.51,156.16c-1.4,0-2.84.12-4.28.37-1.46.25-2.55.49-3.33.68v3.99h.21c1.34-.51,2.66-.91,3.93-1.19,1.26-.27,2.41-.41,3.44-.41.86,0,1.67.06,2.45.18.78.12,1.44.33,2,.64.58.33,1.03.8,1.34,1.38.31.58.47,1.32.47,2.22v.6c-2.28.12-4.42.27-6.42.51-1.98.21-3.7.64-5.12,1.28-1.4.62-2.49,1.48-3.25,2.59-.76,1.09-1.15,2.53-1.15,4.3,0,2.16.74,3.93,2.2,5.33,1.46,1.4,3.25,2.08,5.35,2.08,1.15,0,2.14-.12,3-.33.86-.21,1.59-.49,2.26-.8.56-.25,1.13-.58,1.73-1.01.58-.43,1.07-.76,1.42-.99v2.49h3.91v-15.83c0-1.5-.23-2.76-.68-3.77-.47-1.01-1.13-1.85-2-2.49-.89-.66-1.94-1.11-3.17-1.38-1.23-.27-2.65-.41-4.3-.41M463.39,165.79c.18-1.85.88-3.38,2.12-4.61,1.24-1.24,2.92-1.87,5.02-1.87s3.64.56,4.67,1.69c1.03,1.13,1.54,2.72,1.56,4.78h-13.36M470.74,156.09c-3.4,0-6.15,1.13-8.23,3.36s-3.13,5.27-3.13,9.08,1.09,6.83,3.27,8.93,5.19,3.15,9.06,3.15c1.52,0,2.98-.19,4.34-.56,1.38-.37,2.72-.84,4.05-1.4v-4.28h-.21c-.68.62-1.83,1.24-3.44,1.87-1.61.64-3.21.95-4.8.95-1.21,0-2.3-.18-3.29-.51-.99-.33-1.85-.84-2.59-1.5-.76-.68-1.34-1.56-1.77-2.63-.43-1.07-.64-2.31-.64-3.75h17.19v-2.14c0-3.38-.86-5.99-2.57-7.84-1.71-1.85-4.14-2.76-7.27-2.76M459.77,148.95h-4.42l-8.6,13.91-8.5-13.91h-4.57l10.99,17.91v13.21h4.14v-13.63l10.95-17.47" style="fill: #444;"/>
    <polyline points="406.34 151.71 383 151.71 383 175.05 406.34 175.05 406.34 151.71" style="fill: gray;"/>
  </g>
  <path d="M16.86,143.63c-1.68-.15-3.08-.8-4.22-1.94s-1.7-2.67-1.7-4.58.51-3.34,1.55-4.27,2.48-1.41,4.37-1.43v12.22ZM17.66,127.92c-3.1,0-5.47.78-7.15,2.34-1.68,1.56-2.52,3.77-2.52,6.64,0,3.1,1.02,5.61,3.07,7.51s4.81,2.86,8.29,2.86,6.24-.99,8.16-2.98c1.91-1.98,2.87-4.75,2.87-8.28,0-1.38-.17-2.7-.51-3.97s-.77-2.49-1.28-3.7h-3.91v.2c.56.62,1.13,1.67,1.71,3.14.59,1.47.87,2.93.87,4.37,0,1.1-.15,2.09-.45,3.01s-.77,1.7-1.37,2.36c-.63.69-1.43,1.23-2.39,1.62-.98.39-2.12.59-3.43.59v-15.7h-1.94l-.03-.02ZM26.46,150.1v.2c.12.29.26.74.44,1.37.17.63.26,1.25.26,1.83,0,1.01-.12,1.76-.36,2.24-.24.5-.6.87-1.11,1.16-.54.3-1.14.48-1.76.54-.63.05-1.5.08-2.63.08h-9.71v-7.41h-3.02v7.41H2.43v3.59h6.13v2.42h3.02v-2.42h11.33c2.58,0,4.46-.57,5.64-1.7,1.17-1.13,1.76-2.78,1.76-4.96,0-.62-.06-1.34-.17-2.13-.11-.8-.26-1.53-.44-2.21h-3.25ZM26.4,174.54c.5,1.04.74,2.19.74,3.46,0,1.52-.32,2.64-.93,3.38-.62.74-1.53,1.11-2.75,1.11-1.08,0-1.92-.32-2.54-.95s-1.07-1.47-1.37-2.49c-.24-.87-.42-2.04-.56-3.52-.14-1.47-.23-2.76-.29-3.86h5.94c.69.89,1.28,1.86,1.76,2.9v-.03ZM15.42,168.06c-1.37,0-2.52.21-3.46.63-.93.42-1.68,1.04-2.27,1.83-.6.81-1.02,1.77-1.26,2.89-.26,1.11-.38,2.42-.38,3.92,0,1.28.12,2.58.35,3.91s.44,2.33.63,3.04h3.64v-.2c-.47-1.23-.83-2.43-1.08-3.59-.26-1.16-.38-2.21-.38-3.14,0-.78.05-1.52.15-2.24.11-.72.3-1.32.59-1.83.3-.54.72-.95,1.26-1.23.54-.29,1.2-.44,2.03-.44h.56c.11,2.09.26,4.04.45,5.86.2,1.82.59,3.38,1.16,4.67.57,1.28,1.35,2.27,2.36,2.96s2.3,1.04,3.92,1.04c1.97,0,3.59-.66,4.87-2,1.28-1.34,1.91-2.96,1.91-4.88,0-1.04-.11-1.95-.3-2.73-.2-.78-.44-1.46-.74-2.06-.23-.51-.54-1.04-.93-1.58s-.69-.98-.9-1.29h2.27v-3.56h-14.46l.02.03ZM8.81,187.31c-.09.56-.15.98-.18,1.26-.03.29-.05.74-.05,1.35,0,1.13.24,2.24.72,3.34.48,1.08,1.29,2.34,2.43,3.77h-3.14v3.59h21.31v-3.59h-15.13c-.78-.95-1.41-1.94-1.89-2.98-.5-1.04-.74-2.1-.74-3.2,0-.69.03-1.28.09-1.79.06-.5.15-1.02.27-1.55v-.2h-3.7ZM16.05,221.26c-2.61,0-4.6.6-6,1.82-1.4,1.22-2.07,2.96-2.07,5.26,0,1.26.26,2.48.78,3.68.53,1.2,1.25,2.36,2.18,3.47h-2.36v3.59h21.31v-3.59h-15.91c-.75-.98-1.37-2-1.85-3.07-.48-1.07-.72-2.09-.72-3.07s.14-1.73.39-2.33c.26-.6.66-1.05,1.19-1.37.48-.3,1.16-.51,2.01-.63.86-.12,1.77-.17,2.75-.17h12.13v-3.59h-13.82v-.02ZM25.34,249.96c1.37,1.08,2.04,2.58,2.04,4.49s-.69,3.44-2.07,4.52c-1.38,1.08-3.41,1.62-6.07,1.62s-4.81-.54-6.15-1.61c-1.34-1.08-2.01-2.58-2.01-4.54s.68-3.43,2.01-4.51c1.34-1.08,3.4-1.62,6.15-1.62s4.73.54,6.1,1.64h0ZM11,247.3c-2.01,1.79-3.02,4.16-3.02,7.15s1.01,5.41,3.02,7.18c2.01,1.77,4.76,2.66,8.23,2.66s6.21-.89,8.22-2.66c2.01-1.77,3.02-4.16,3.02-7.18s-1.01-5.38-3.02-7.15-4.75-2.67-8.22-2.67-6.22.89-8.23,2.67ZM8.58,269.88v3.59h21.31v-3.59H8.58ZM1.29,269.66v4.04h3.73v-4.04H1.29ZM26.46,277.83v.2c.12.29.26.74.44,1.37.17.63.26,1.25.26,1.83,0,1.01-.12,1.76-.36,2.24-.24.5-.6.87-1.11,1.16-.54.3-1.14.48-1.76.54-.63.05-1.5.08-2.63.08h-9.71v-7.41h-3.02v7.41H2.43v3.59h6.13v2.42h3.02v-2.42h11.33c2.58,0,4.46-.57,5.64-1.7,1.17-1.13,1.76-2.78,1.76-4.96,0-.62-.06-1.34-.17-2.13s-.26-1.53-.44-2.21h-3.25ZM24.6,293.51v.2c.21.27.48.63.77,1.08.3.45.59.95.84,1.47.3.6.56,1.28.75,2.03.2.75.29,1.49.29,2.21,0,2.09-.69,3.7-2.07,4.85-1.38,1.16-3.35,1.73-5.92,1.73s-4.66-.59-6.01-1.76c-1.37-1.17-2.06-2.78-2.06-4.82,0-1.11.23-2.24.69-3.41s1.11-2.3,1.97-3.38v-.2h-3.98c-.5.98-.92,2.06-1.26,3.23-.35,1.17-.51,2.37-.51,3.59,0,3.14.99,5.67,2.98,7.59,1.98,1.92,4.72,2.87,8.2,2.87,1.86,0,3.5-.26,4.9-.77,1.4-.51,2.55-1.23,3.47-2.15.92-.92,1.59-2.01,2.06-3.31.45-1.28.68-2.69.68-4.24,0-1.2-.17-2.34-.48-3.43s-.77-2.21-1.34-3.41h-3.95v.02ZM16.86,330.4c-1.68-.15-3.08-.8-4.22-1.94s-1.7-2.67-1.7-4.58.51-3.34,1.55-4.27c1.04-.93,2.48-1.41,4.37-1.43v12.22ZM17.66,314.69c-3.1,0-5.47.78-7.15,2.34-1.68,1.56-2.52,3.77-2.52,6.64,0,3.1,1.02,5.61,3.07,7.51s4.81,2.86,8.29,2.86,6.24-.99,8.16-2.98c1.91-1.98,2.87-4.75,2.87-8.28,0-1.38-.17-2.7-.51-3.97s-.77-2.49-1.28-3.7h-3.91v.2c.56.62,1.13,1.67,1.71,3.14.59,1.47.87,2.93.87,4.37,0,1.1-.15,2.09-.45,3.01-.3.92-.77,1.7-1.37,2.36-.63.69-1.43,1.23-2.39,1.62-.98.39-2.12.59-3.43.59v-15.7h-1.97ZM.39,334.8c-.11.54-.2,1.13-.27,1.76-.08.63-.12,1.37-.12,2.16,0,2.37.68,4.19,2.03,5.45,1.35,1.26,3.29,1.89,5.83,1.89h.71v2.42h3.02v-2.42h18.29v-3.59H11.59v-6.36h-3.02v6.46h-.72c-1.77,0-3.01-.35-3.7-1.04-.68-.69-1.02-1.8-1.02-3.35,0-.48.06-1.04.18-1.68.12-.63.24-1.16.35-1.55v-.2H.38l.02.03ZM16.05,353.18c-2.61,0-4.6.6-6,1.82-1.4,1.22-2.07,2.96-2.07,5.26,0,1.26.26,2.48.78,3.68s1.25,2.36,2.18,3.47h-2.36v3.59h21.31v-3.59h-15.91c-.75-.98-1.37-2-1.85-3.07s-.72-2.09-.72-3.07.14-1.73.39-2.33.66-1.05,1.19-1.37c.48-.3,1.16-.51,2.01-.63.86-.12,1.77-.17,2.75-.17h12.13v-3.59h-13.82ZM26.99,377.13v3.73H4.39v-3.73H1.49v11.21h2.9v-3.73h22.6v3.73h2.9v-11.21h-2.9Z" style="fill: #444;"/>
</svg>