<?xml version="1.0" encoding="UTF-8"?>
<svg id="Layer_1" data-name="Layer 1" xmlns="http://www.w3.org/2000/svg" width="539.46" height="403.32" xmlns:xlink="http://www.w3.org/1999/xlink" viewBox="0 0 539.46 403.32">
  <defs>
    <clipPath id="clippath">
      <rect x="52.46" width="487" height="360" style="fill: none;"/>
    </clipPath>
    <clipPath id="clippath-1">
      <rect x="73.14" y="28.43" width="161.55" height="125.17" style="fill: none;"/>
    </clipPath>
  </defs>
  <polyline points="52.46 313 539.46 313 539.46 312 52.46 312" style="fill: #eee;"/>
  <polyline points="52.46 265.5 539.46 265.5 539.46 264.5 52.46 264.5" style="fill: #eee;"/>
  <polyline points="52.46 218 539.46 218 539.46 217 52.46 217" style="fill: #eee;"/>
  <polyline points="52.46 170.5 539.46 170.5 539.46 169.5 52.46 169.5" style="fill: #eee;"/>
  <polyline points="52.46 123 539.46 123 539.46 122 52.46 122" style="fill: #eee;"/>
  <polyline points="52.46 75.5 539.46 75.5 539.46 74.5 52.46 74.5" style="fill: #eee;"/>
  <polyline points="52.46 28 539.46 28 539.46 27 52.46 27" style="fill: #eee;"/>
  <polyline points="52.46 360.5 539.46 360.5 539.46 359.5 52.46 359.5" style="fill: #444;"/>
  <g style="clip-path: url(#clippath);">
    <g>
      <rect x="54.07" y="307.75" width="12.86" height="52.25" style="fill: #636efa;"/>
      <rect x="71.87" y="295.88" width="12.87" height="64.12" style="fill: #636efa;"/>
      <rect x="87.95" y="279.25" width="12.87" height="80.75" style="fill: #636efa;"/>
      <rect x="105.75" y="276.88" width="12.87" height="83.12" style="fill: #636efa;"/>
      <rect x="122.98" y="274.5" width="12.87" height="85.5" style="fill: #636efa;"/>
      <rect x="140.79" y="272.13" width="12.86" height="87.87" style="fill: #636efa;"/>
      <rect x="158.01" y="272.13" width="12.87" height="87.87" style="fill: #636efa;"/>
      <rect x="175.82" y="267.38" width="12.86" height="92.62" style="fill: #636efa;"/>
      <rect x="193.62" y="265" width="12.87" height="95" style="fill: #636efa;"/>
      <rect x="210.85" y="262.63" width="12.86" height="97.37" style="fill: #636efa;"/>
      <rect x="228.65" y="260.25" width="12.87" height="99.75" style="fill: #636efa;"/>
      <rect x="245.88" y="255.5" width="12.87" height="104.5" style="fill: #636efa;"/>
      <rect x="263.68" y="231.75" width="12.87" height="128.25" style="fill: #636efa;"/>
      <rect x="281.49" y="222.25" width="12.86" height="137.75" style="fill: #636efa;"/>
      <rect x="297.57" y="205.63" width="12.86" height="154.37" style="fill: #636efa;"/>
      <rect x="315.37" y="200.88" width="12.87" height="159.12" style="fill: #636efa;"/>
      <rect x="332.6" y="198.5" width="12.86" height="161.5" style="fill: #636efa;"/>
      <rect x="350.4" y="196.13" width="12.87" height="163.87" style="fill: #636efa;"/>
      <rect x="367.63" y="198.5" width="12.87" height="161.5" style="fill: #636efa;"/>
      <rect x="385.43" y="193.75" width="12.87" height="166.25" style="fill: #636efa;"/>
      <rect x="403.24" y="189" width="12.86" height="171" style="fill: #636efa;"/>
      <rect x="420.47" y="186.63" width="12.86" height="173.37" style="fill: #636efa;"/>
      <rect x="438.27" y="181.88" width="12.86" height="178.12" style="fill: #636efa;"/>
      <rect x="455.5" y="179.5" width="12.86" height="180.5" style="fill: #636efa;"/>
      <rect x="473.3" y="172.38" width="12.87" height="187.62" style="fill: #636efa;"/>
      <rect x="491.1" y="160.5" width="12.87" height="199.5" style="fill: #636efa;"/>
      <rect x="507.18" y="143.88" width="12.87" height="216.12" style="fill: #636efa;"/>
      <rect x="524.99" y="139.13" width="12.86" height="220.87" style="fill: #636efa;"/>
      <rect x="263.68" y="210.38" width="12.87" height="21.37" style="fill: #00cc96;"/>
      <rect x="281.49" y="219.88" width="12.86" height="2.37" style="fill: #00cc96;"/>
      <rect x="71.87" y="272.13" width="12.87" height="23.75" style="fill: #ef553b;"/>
      <rect x="87.95" y="234.13" width="12.87" height="45.12" style="fill: #ef553b;"/>
      <rect x="105.75" y="231.75" width="12.87" height="45.13" style="fill: #ef553b;"/>
      <rect x="122.98" y="229.38" width="12.87" height="45.12" style="fill: #ef553b;"/>
      <rect x="140.79" y="227" width="12.86" height="45.13" style="fill: #ef553b;"/>
      <rect x="158.01" y="241.25" width="12.87" height="30.88" style="fill: #ef553b;"/>
      <rect x="175.82" y="236.5" width="12.86" height="30.88" style="fill: #ef553b;"/>
      <rect x="193.62" y="234.13" width="12.87" height="30.87" style="fill: #ef553b;"/>
      <rect x="210.85" y="231.75" width="12.86" height="30.88" style="fill: #ef553b;"/>
      <rect x="228.65" y="229.38" width="12.87" height="30.87" style="fill: #ef553b;"/>
      <rect x="245.88" y="224.63" width="12.87" height="30.87" style="fill: #ef553b;"/>
      <rect x="263.68" y="117.75" width="12.87" height="92.63" style="fill: #ef553b;"/>
      <rect x="281.49" y="127.25" width="12.86" height="92.63" style="fill: #ef553b;"/>
      <rect x="297.57" y="113" width="12.86" height="92.63" style="fill: #ef553b;"/>
      <rect x="315.37" y="75" width="12.87" height="125.88" style="fill: #ef553b;"/>
      <rect x="332.6" y="72.63" width="12.86" height="125.87" style="fill: #ef553b;"/>
      <rect x="350.4" y="70.25" width="12.87" height="125.88" style="fill: #ef553b;"/>
      <rect x="367.63" y="58.38" width="12.87" height="140.12" style="fill: #ef553b;"/>
      <rect x="385.43" y="53.63" width="12.87" height="140.12" style="fill: #ef553b;"/>
      <rect x="403.24" y="48.88" width="12.86" height="140.12" style="fill: #ef553b;"/>
      <rect x="420.47" y="46.5" width="12.86" height="140.13" style="fill: #ef553b;"/>
      <rect x="438.27" y="56" width="12.86" height="125.88" style="fill: #ef553b;"/>
      <rect x="455.5" y="46.5" width="12.86" height="133" style="fill: #ef553b;"/>
      <rect x="473.3" y="46.5" width="12.87" height="125.88" style="fill: #ef553b;"/>
      <rect x="491.1" y="34.63" width="12.87" height="125.87" style="fill: #ef553b;"/>
      <rect x="507.18" y="18" width="12.87" height="125.88" style="fill: #ef553b;"/>
      <rect x="524.99" y="29.88" width="12.86" height="109.25" style="fill: #ef553b;"/>
    </g>
  </g>
  <path d="M90.5,364.38h-.87c-.23.47-.64.96-1.2,1.47s-1.22.93-1.98,1.29v1.3c.42-.15.89-.38,1.42-.69s.96-.61,1.28-.93v8.57h1.34v-10.99h.01ZM78.61,374.09c.15-.24.34-.48.57-.73s.75-.7,1.56-1.38c.97-.82,1.66-1.45,2.08-1.93s.71-.92.89-1.34.27-.85.27-1.29c0-.87-.31-1.58-.92-2.17s-1.44-.88-2.5-.88-1.87.27-2.49.82-.97,1.33-1.07,2.36l1.38.14c0-.69.2-1.22.59-1.62s.91-.59,1.56-.59c.61,0,1.11.18,1.49.55s.57.82.57,1.35-.2,1.05-.62,1.62-1.22,1.34-2.41,2.32c-.77.62-1.35,1.19-1.76,1.66s-.7.97-.88,1.45c-.11.29-.17.61-.15.93h7.24v-1.29h-5.39ZM70.47,366.27c.37-.52.87-.79,1.48-.79s1.15.29,1.57.89.64,1.79.64,3.6-.22,2.98-.64,3.58-.94.89-1.56.89-1.14-.29-1.56-.89-.64-1.8-.64-3.6.23-3.04.69-3.7h.01ZM69.48,374.43c.6.75,1.43,1.14,2.49,1.14.8,0,1.47-.22,1.99-.65s.92-1.05,1.19-1.84.4-1.82.4-3.11c0-1.08-.08-1.95-.24-2.59s-.4-1.19-.68-1.63-.65-.79-1.1-1.02-.96-.36-1.54-.36c-.79,0-1.45.22-1.99.64s-.92,1.03-1.19,1.82-.4,1.84-.4,3.12c0,2.05.36,3.55,1.08,4.45v.03ZM61.59,374.09c.15-.24.34-.48.57-.73s.75-.7,1.56-1.38c.97-.82,1.66-1.45,2.08-1.93s.71-.92.89-1.34.27-.85.27-1.29c0-.87-.31-1.58-.92-2.17s-1.44-.88-2.5-.88-1.87.27-2.49.82-.97,1.33-1.07,2.36l1.38.14c0-.69.2-1.22.59-1.62s.91-.59,1.56-.59c.61,0,1.11.18,1.49.55s.57.82.57,1.35-.2,1.05-.62,1.62-1.22,1.34-2.41,2.32c-.77.62-1.35,1.19-1.76,1.66s-.7.97-.88,1.45c-.11.29-.17.61-.15.93h7.24v-1.29h-5.39ZM48.84,375.38v-4.34c0-1.02.2-1.71.62-2.07s.91-.55,1.48-.55c.36,0,.68.08.94.24s.45.38.56.65.15.68.15,1.22v4.83h1.34v-4.88c0-.62-.03-1.06-.08-1.31-.08-.38-.22-.71-.42-.99s-.5-.51-.91-.68-.84-.26-1.31-.26c-1.1,0-1.94.43-2.53,1.31v-1.12h-1.21v7.93h1.35ZM44.06,371.88c0,.59-.08,1.05-.22,1.34-.19.4-.48.7-.89.93s-.87.34-1.38.34-.92-.11-1.19-.36-.41-.54-.41-.89c0-.23.06-.45.19-.64s.31-.33.54-.43.62-.19,1.17-.27c.98-.14,1.71-.31,2.19-.51v.5h-.01ZM44.43,375.38h1.4c-.17-.31-.28-.62-.34-.96s-.09-1.12-.09-2.37v-1.8c0-.6-.03-1.01-.06-1.24-.08-.37-.22-.68-.42-.92s-.51-.45-.93-.6-.97-.24-1.65-.24-1.29.09-1.8.28-.92.46-1.19.8-.47.8-.59,1.36l1.31.18c.14-.56.37-.96.66-1.17s.77-.33,1.4-.33c.68,0,1.19.15,1.53.46.26.23.38.61.38,1.16v.36c-.51.18-1.31.33-2.4.46-.54.06-.93.13-1.2.2-.36.1-.68.24-.97.45s-.52.45-.69.78-.27.68-.27,1.06c0,.66.23,1.21.7,1.63s1.14.64,2.02.64c.52,0,1.02-.09,1.48-.27s.94-.47,1.44-.89c.04.37.13.7.27.98h-.01ZM31.5,374.74c.51.55,1.25.83,2.21.83.65,0,1.21-.13,1.7-.4s.83-.65,1.06-1.15.33-1.21.33-2.13v-7.46h-1.45v7.55c0,.62-.05,1.08-.15,1.38s-.28.51-.55.68-.57.26-.94.26c-.5,0-.88-.15-1.16-.46s-.43-.88-.47-1.72l-1.31.18c-.03,1.1.23,1.91.74,2.46h.01Z"/>
  <path d="M190.25,364.38h-.87c-.23.47-.64.96-1.2,1.47s-1.22.93-1.98,1.29v1.3c.42-.15.89-.38,1.42-.69s.96-.61,1.28-.93v8.57h1.34v-10.99h.01ZM178.38,374.09c.15-.24.34-.48.57-.73s.75-.7,1.56-1.38c.97-.82,1.66-1.45,2.08-1.93s.71-.92.89-1.34.27-.85.27-1.29c0-.87-.31-1.58-.92-2.17s-1.44-.88-2.5-.88-1.87.27-2.49.82-.97,1.33-1.07,2.36l1.38.14c0-.69.2-1.22.59-1.62s.91-.59,1.56-.59c.61,0,1.11.18,1.49.55s.57.82.57,1.35-.2,1.05-.62,1.62-1.22,1.34-2.41,2.32c-.77.62-1.35,1.19-1.76,1.66s-.7.97-.88,1.45c-.11.29-.17.61-.15.93h7.24v-1.29h-5.39ZM170.24,366.27c.37-.52.87-.79,1.48-.79s1.15.29,1.57.89.64,1.79.64,3.6-.22,2.98-.64,3.58-.94.89-1.56.89-1.14-.29-1.56-.89-.64-1.8-.64-3.6.23-3.04.69-3.7h.01ZM169.25,374.43c.6.75,1.43,1.14,2.49,1.14.8,0,1.47-.22,1.99-.65s.92-1.05,1.19-1.84.4-1.82.4-3.11c0-1.08-.08-1.95-.24-2.59s-.4-1.19-.68-1.63-.65-.79-1.1-1.02-.96-.36-1.54-.36c-.79,0-1.45.22-1.99.64s-.92,1.03-1.19,1.82-.4,1.84-.4,3.12c0,2.05.36,3.55,1.08,4.45v.03ZM161.36,374.09c.15-.24.34-.48.57-.73s.75-.7,1.56-1.38c.97-.82,1.66-1.45,2.08-1.93s.71-.92.89-1.34.27-.85.27-1.29c0-.87-.31-1.58-.92-2.17s-1.44-.88-2.5-.88-1.87.27-2.49.82-.97,1.33-1.07,2.36l1.38.14c0-.69.2-1.22.59-1.62s.91-.59,1.56-.59c.61,0,1.11.18,1.49.55s.57.82.57,1.35-.2,1.05-.62,1.62-1.22,1.34-2.41,2.32c-.77.62-1.35,1.19-1.76,1.66s-.7.97-.88,1.45c-.11.29-.17.61-.15.93h7.24v-1.29h-5.39ZM153.69,375.38v-10.96h-1.34v10.96h1.34ZM150.27,375.38v-7.93h-1.34v4.25c0,.68-.08,1.2-.22,1.56s-.4.64-.75.84-.73.31-1.14.31-.74-.1-1.02-.31-.46-.48-.54-.83c-.05-.24-.08-.71-.08-1.42v-4.4h-1.34v4.92c0,.57.03.99.08,1.25.08.4.22.73.42.99s.5.5.91.68.84.27,1.31.27c1.06,0,1.9-.45,2.51-1.34v1.16h1.2-.01ZM136.38,374.74c.51.55,1.25.83,2.21.83.65,0,1.21-.13,1.7-.4s.83-.65,1.06-1.15.33-1.21.33-2.13v-7.46h-1.45v7.55c0,.62-.05,1.08-.15,1.38s-.28.51-.55.68-.57.26-.94.26c-.5,0-.88-.15-1.16-.46s-.43-.88-.47-1.72l-1.31.18c-.03,1.1.23,1.91.74,2.46h.01Z"/>
  <path d="M294.08,374.09c.15-.24.34-.48.57-.73s.75-.7,1.56-1.38c.97-.82,1.66-1.45,2.08-1.93s.71-.92.89-1.34.27-.85.27-1.29c0-.87-.31-1.58-.92-2.17s-1.44-.88-2.5-.88-1.87.27-2.49.82-.97,1.33-1.07,2.36l1.38.14c0-.69.2-1.22.59-1.62s.91-.59,1.56-.59c.61,0,1.11.18,1.49.55s.57.82.57,1.35-.2,1.05-.62,1.62-1.22,1.34-2.41,2.32c-.77.62-1.35,1.19-1.76,1.66s-.7.97-.88,1.45c-.11.29-.17.61-.15.93h7.24v-1.29h-5.39ZM285.57,374.09c.15-.24.34-.48.57-.73s.75-.7,1.56-1.38c.97-.82,1.66-1.45,2.08-1.93s.71-.92.89-1.34.27-.85.27-1.29c0-.87-.31-1.58-.92-2.17s-1.44-.88-2.5-.88-1.87.27-2.49.82-.97,1.33-1.07,2.36l1.38.14c0-.69.2-1.22.59-1.62s.91-.59,1.56-.59c.61,0,1.11.18,1.49.55s.57.82.57,1.35-.2,1.05-.62,1.62-1.22,1.34-2.41,2.32c-.77.62-1.35,1.19-1.76,1.66s-.7.97-.88,1.45c-.11.29-.17.61-.15.93h7.24v-1.29h-5.39ZM277.44,366.27c.37-.52.87-.79,1.48-.79s1.15.29,1.57.89.64,1.79.64,3.6-.22,2.98-.64,3.58-.94.89-1.56.89-1.14-.29-1.56-.89-.64-1.8-.64-3.6.23-3.04.69-3.7h.01ZM276.44,374.43c.6.75,1.43,1.14,2.49,1.14.8,0,1.47-.22,1.99-.65s.92-1.05,1.19-1.84.4-1.82.4-3.11c0-1.08-.08-1.95-.24-2.59s-.4-1.19-.68-1.63-.65-.79-1.1-1.02-.96-.36-1.54-.36c-.79,0-1.45.22-1.99.64s-.92,1.03-1.19,1.82-.4,1.84-.4,3.12c0,2.05.36,3.55,1.08,4.45v.03ZM268.55,374.09c.15-.24.34-.48.57-.73s.75-.7,1.56-1.38c.97-.82,1.66-1.45,2.08-1.93s.71-.92.89-1.34.27-.85.27-1.29c0-.87-.31-1.58-.92-2.17s-1.44-.88-2.5-.88-1.87.27-2.49.82-.97,1.33-1.07,2.36l1.38.14c0-.69.2-1.22.59-1.62s.91-.59,1.56-.59c.61,0,1.11.18,1.49.55s.57.82.57,1.35-.2,1.05-.62,1.62-1.22,1.34-2.41,2.32c-.77.62-1.35,1.19-1.76,1.66s-.7.97-.88,1.45c-.11.29-.17.61-.15.93h7.24v-1.29h-5.39ZM255.81,375.38v-4.34c0-1.02.2-1.71.62-2.07s.91-.55,1.48-.55c.36,0,.68.08.94.24s.45.38.56.65.15.68.15,1.22v4.83h1.34v-4.88c0-.62-.03-1.06-.08-1.31-.08-.38-.22-.71-.42-.99s-.5-.51-.91-.68-.84-.26-1.31-.26c-1.1,0-1.94.43-2.53,1.31v-1.12h-1.21v7.93h1.35ZM251.02,371.88c0,.59-.08,1.05-.22,1.34-.19.4-.48.7-.89.93s-.87.34-1.38.34-.92-.11-1.19-.36-.41-.54-.41-.89c0-.23.06-.45.19-.64s.31-.33.54-.43.62-.19,1.17-.27c.98-.14,1.71-.31,2.19-.51v.5h-.01ZM251.39,375.38h1.4c-.17-.31-.28-.62-.34-.96s-.09-1.12-.09-2.37v-1.8c0-.6-.03-1.01-.06-1.24-.08-.37-.22-.68-.42-.92s-.51-.45-.93-.6-.97-.24-1.65-.24-1.29.09-1.8.28-.92.46-1.19.8-.47.8-.59,1.36l1.31.18c.14-.56.37-.96.66-1.17s.77-.33,1.4-.33c.68,0,1.19.15,1.53.46.26.23.38.61.38,1.16v.36c-.51.18-1.31.33-2.4.46-.54.06-.93.13-1.2.2-.36.1-.68.24-.97.45s-.52.45-.69.78-.27.68-.27,1.06c0,.66.23,1.21.7,1.63s1.14.64,2.02.64c.52,0,1.02-.09,1.48-.27s.94-.47,1.44-.89c.04.37.13.7.27.98h-.01ZM238.46,374.74c.51.55,1.25.83,2.21.83.65,0,1.21-.13,1.7-.4s.83-.65,1.06-1.15.33-1.21.33-2.13v-7.46h-1.45v7.55c0,.62-.05,1.08-.15,1.38s-.28.51-.55.68-.57.26-.94.26c-.5,0-.88-.15-1.16-.46s-.43-.88-.47-1.72l-1.31.18c-.03,1.1.23,1.91.74,2.46h.01Z"/>
  <path d="M398.26,374.09c.15-.24.34-.48.57-.73s.75-.7,1.56-1.38c.97-.82,1.66-1.45,2.08-1.93s.71-.92.89-1.34.27-.85.27-1.29c0-.87-.31-1.58-.92-2.17s-1.44-.88-2.5-.88-1.87.27-2.49.82-.97,1.33-1.07,2.36l1.38.14c0-.69.2-1.22.59-1.62s.91-.59,1.56-.59c.61,0,1.11.18,1.49.55s.57.82.57,1.35-.2,1.05-.62,1.62-1.22,1.34-2.41,2.32c-.77.62-1.35,1.19-1.76,1.66s-.7.97-.88,1.45c-.11.29-.17.61-.15.93h7.24v-1.29h-5.39ZM389.76,374.09c.15-.24.34-.48.57-.73s.75-.7,1.56-1.38c.97-.82,1.66-1.45,2.08-1.93s.71-.92.89-1.34.27-.85.27-1.29c0-.87-.31-1.58-.92-2.17s-1.44-.88-2.5-.88-1.87.27-2.49.82-.97,1.33-1.07,2.36l1.38.14c0-.69.2-1.22.59-1.62s.91-.59,1.56-.59c.61,0,1.11.18,1.49.55s.57.82.57,1.35-.2,1.05-.62,1.62-1.22,1.34-2.41,2.32c-.77.62-1.35,1.19-1.76,1.66s-.7.97-.88,1.45c-.11.29-.17.61-.15.93h7.24v-1.29h-5.39ZM381.62,366.27c.37-.52.87-.79,1.48-.79s1.15.29,1.57.89.64,1.79.64,3.6-.22,2.98-.64,3.58-.94.89-1.56.89-1.14-.29-1.56-.89-.64-1.8-.64-3.6.23-3.04.69-3.7h.01ZM380.62,374.43c.6.75,1.43,1.14,2.49,1.14.8,0,1.47-.22,1.99-.65s.92-1.05,1.19-1.84.4-1.82.4-3.11c0-1.08-.08-1.95-.24-2.59s-.4-1.19-.68-1.63-.65-.79-1.1-1.02-.96-.36-1.54-.36c-.79,0-1.45.22-1.99.64s-.92,1.03-1.19,1.82-.4,1.84-.4,3.12c0,2.05.36,3.55,1.08,4.45v.03ZM372.73,374.09c.15-.24.34-.48.57-.73s.75-.7,1.56-1.38c.97-.82,1.66-1.45,2.08-1.93s.71-.92.89-1.34.27-.85.27-1.29c0-.87-.31-1.58-.92-2.17s-1.44-.88-2.5-.88-1.87.27-2.49.82-.97,1.33-1.07,2.36l1.38.14c0-.69.2-1.22.59-1.62s.91-.59,1.56-.59c.61,0,1.11.18,1.49.55s.57.82.57,1.35-.2,1.05-.62,1.62-1.22,1.34-2.41,2.32c-.77.62-1.35,1.19-1.76,1.66s-.7.97-.88,1.45c-.11.29-.17.61-.15.93h7.24v-1.29h-5.39ZM365.07,375.38v-10.96h-1.34v10.96h1.34ZM361.65,375.38v-7.93h-1.34v4.25c0,.68-.08,1.2-.22,1.56s-.4.64-.75.84-.73.31-1.14.31-.74-.1-1.02-.31-.46-.48-.54-.83c-.05-.24-.08-.71-.08-1.42v-4.4h-1.34v4.92c0,.57.03.99.08,1.25.08.4.22.73.42.99s.5.5.91.68.84.27,1.31.27c1.06,0,1.9-.45,2.51-1.34v1.16h1.2-.01ZM347.76,374.74c.51.55,1.25.83,2.21.83.65,0,1.21-.13,1.7-.4s.83-.65,1.06-1.15.33-1.21.33-2.13v-7.46h-1.45v7.55c0,.62-.05,1.08-.15,1.38s-.28.51-.55.68-.57.26-.94.26c-.5,0-.88-.15-1.16-.46s-.43-.88-.47-1.72l-1.31.18c-.03,1.1.23,1.91.74,2.46h.01Z"/>
  <path d="M504.98,374.71c.64.57,1.43.85,2.4.85,1.07,0,1.95-.33,2.64-.99s1.05-1.48,1.05-2.44c0-.7-.18-1.3-.54-1.77s-.87-.78-1.5-.93c.5-.23.88-.54,1.12-.93s.38-.82.38-1.29c0-.5-.13-.97-.4-1.42s-.65-.79-1.16-1.05-1.06-.38-1.65-.38c-.87,0-1.59.24-2.18.74s-.96,1.2-1.12,2.09l1.34.24c.1-.66.32-1.15.68-1.48s.79-.5,1.31-.5.96.17,1.29.48.5.73.5,1.22c0,.62-.23,1.08-.69,1.38s-.97.45-1.54.45h-.22l-.15,1.16c.38-.1.69-.15.94-.15.62,0,1.14.2,1.54.6s.6.91.6,1.53-.22,1.19-.65,1.63-.97.66-1.61.66c-.54,0-.98-.17-1.35-.51s-.64-.88-.79-1.65l-1.34.18c.09.91.45,1.66,1.08,2.23v.03ZM497.08,374.09c.15-.24.34-.48.57-.73s.75-.7,1.56-1.38c.97-.82,1.66-1.45,2.08-1.93s.71-.92.89-1.34.27-.85.27-1.29c0-.87-.31-1.58-.92-2.17s-1.44-.88-2.5-.88-1.87.27-2.49.82-.97,1.33-1.07,2.36l1.38.14c0-.69.2-1.22.59-1.62s.91-.59,1.56-.59c.61,0,1.11.18,1.49.55s.57.82.57,1.35-.2,1.05-.62,1.62-1.22,1.34-2.41,2.32c-.77.62-1.35,1.19-1.76,1.66s-.7.97-.88,1.45c-.11.29-.17.61-.15.93h7.24v-1.29h-5.39ZM488.94,366.27c.37-.52.87-.79,1.48-.79s1.15.29,1.57.89.64,1.79.64,3.6-.22,2.98-.64,3.58-.94.89-1.56.89-1.14-.29-1.56-.89-.64-1.8-.64-3.6.23-3.04.69-3.7h.01ZM487.95,374.43c.6.75,1.43,1.14,2.49,1.14.8,0,1.47-.22,1.99-.65s.92-1.05,1.19-1.84.4-1.82.4-3.11c0-1.08-.08-1.95-.24-2.59s-.4-1.19-.68-1.63-.65-.79-1.1-1.02-.96-.36-1.54-.36c-.79,0-1.45.22-1.99.64s-.92,1.03-1.19,1.82-.4,1.84-.4,3.12c0,2.05.36,3.55,1.08,4.45v.03ZM480.05,374.09c.15-.24.34-.48.57-.73s.75-.7,1.56-1.38c.97-.82,1.66-1.45,2.08-1.93s.71-.92.89-1.34.27-.85.27-1.29c0-.87-.31-1.58-.92-2.17s-1.44-.88-2.5-.88-1.87.27-2.49.82-.97,1.33-1.07,2.36l1.38.14c0-.69.2-1.22.59-1.62s.91-.59,1.56-.59c.61,0,1.11.18,1.49.55s.57.82.57,1.35-.2,1.05-.62,1.62-1.22,1.34-2.41,2.32c-.77.62-1.35,1.19-1.76,1.66s-.7.97-.88,1.45c-.11.29-.17.61-.15.93h7.24v-1.29h-5.39ZM467.31,375.38v-4.34c0-1.02.2-1.71.62-2.07s.91-.55,1.48-.55c.36,0,.68.08.94.24s.45.38.56.65.15.68.15,1.22v4.83h1.34v-4.88c0-.62-.03-1.06-.08-1.31-.08-.38-.22-.71-.42-.99s-.5-.51-.91-.68-.84-.26-1.31-.26c-1.1,0-1.94.43-2.53,1.31v-1.12h-1.21v7.93h1.35ZM462.53,371.88c0,.59-.08,1.05-.22,1.34-.19.4-.48.7-.89.93s-.87.34-1.38.34-.92-.11-1.19-.36-.41-.54-.41-.89c0-.23.06-.45.19-.64s.31-.33.54-.43.62-.19,1.17-.27c.98-.14,1.71-.31,2.19-.51v.5h-.01ZM462.9,375.38h1.4c-.17-.31-.28-.62-.34-.96s-.09-1.12-.09-2.37v-1.8c0-.6-.03-1.01-.06-1.24-.08-.37-.22-.68-.42-.92s-.51-.45-.93-.6-.97-.24-1.65-.24-1.29.09-1.8.28-.92.46-1.19.8-.47.8-.59,1.36l1.31.18c.14-.56.37-.96.66-1.17s.77-.33,1.4-.33c.68,0,1.19.15,1.53.46.26.23.38.61.38,1.16v.36c-.51.18-1.31.33-2.4.46-.54.06-.93.13-1.2.2-.36.1-.68.24-.97.45s-.52.45-.69.78-.27.68-.27,1.06c0,.66.23,1.21.7,1.63s1.14.64,2.02.64c.52,0,1.02-.09,1.48-.27s.94-.47,1.44-.89c.04.37.13.7.27.98h-.01ZM449.97,374.74c.51.55,1.25.83,2.21.83.65,0,1.21-.13,1.7-.4s.83-.65,1.06-1.15.33-1.21.33-2.13v-7.46h-1.45v7.55c0,.62-.05,1.08-.15,1.38s-.28.51-.55.68-.57.26-.94.26c-.5,0-.88-.15-1.16-.46s-.43-.88-.47-1.72l-1.31.18c-.03,1.1.23,1.91.74,2.46h.01Z"/>
  <path d="M44.91,307.72c.36-.51.85-.78,1.45-.78s1.13.29,1.54.88.63,1.75.63,3.53-.21,2.93-.63,3.52-.93.88-1.53.88-1.11-.29-1.53-.88-.63-1.77-.63-3.53.23-2.98.68-3.63h.01ZM43.93,315.74c.59.74,1.4,1.11,2.44,1.11.79,0,1.44-.21,1.95-.64s.9-1.03,1.16-1.8.39-1.79.39-3.06c0-1.06-.08-1.92-.24-2.54s-.39-1.16-.66-1.6-.64-.78-1.08-1-.94-.35-1.52-.35c-.78,0-1.43.21-1.95.63s-.9,1.01-1.16,1.79-.39,1.8-.39,3.07c0,2.02.35,3.48,1.06,4.37v.03ZM36.18,315.4c.15-.24.34-.48.56-.71s.74-.69,1.53-1.35c.95-.8,1.63-1.43,2.04-1.89s.7-.9.88-1.31.26-.84.26-1.26c0-.85-.3-1.55-.9-2.13s-1.42-.86-2.45-.86-1.84.26-2.44.8-.95,1.3-1.05,2.32l1.35.14c0-.68.2-1.2.58-1.59s.89-.58,1.53-.58c.6,0,1.09.18,1.47.54s.56.8.56,1.33-.2,1.03-.61,1.59-1.2,1.31-2.37,2.28c-.75.61-1.33,1.16-1.73,1.63s-.69.95-.86,1.43c-.11.29-.16.6-.15.91h7.11v-1.26h-5.3Z"/>
  <path d="M44.91,261.01c.36-.51.85-.78,1.45-.78s1.13.29,1.54.88.63,1.75.63,3.53-.21,2.93-.63,3.52-.93.88-1.53.88-1.11-.29-1.53-.88-.63-1.77-.63-3.53.23-2.98.68-3.63h.01ZM43.93,269.02c.59.74,1.4,1.11,2.44,1.11.79,0,1.44-.21,1.95-.64s.9-1.03,1.16-1.8.39-1.79.39-3.06c0-1.06-.08-1.92-.24-2.54s-.39-1.16-.66-1.6-.64-.78-1.08-1-.94-.35-1.52-.35c-.78,0-1.43.21-1.95.63s-.9,1.01-1.16,1.79-.39,1.8-.39,3.07c0,2.02.35,3.48,1.06,4.37v.03ZM35.38,266.17l3.37-4.85v4.85h-3.37ZM40.08,269.95v-2.58h1.45v-1.21h-1.45v-6.98h-1.08l-4.91,6.98v1.21h4.67v2.58s1.31,0,1.31,0Z"/>
  <path d="M44.91,213.61c.36-.51.85-.78,1.45-.78s1.13.29,1.54.88.63,1.75.63,3.53-.21,2.93-.63,3.52-.93.88-1.53.88-1.11-.29-1.53-.88-.63-1.77-.63-3.53.23-2.98.68-3.63h.01ZM43.93,221.62c.59.74,1.4,1.11,2.44,1.11.79,0,1.44-.21,1.95-.64s.9-1.03,1.16-1.8.39-1.79.39-3.06c0-1.06-.08-1.92-.24-2.54s-.39-1.16-.66-1.6-.64-.78-1.08-1-.94-.35-1.52-.35c-.78,0-1.43.21-1.95.63s-.9,1.01-1.16,1.79-.39,1.8-.39,3.07c0,2.02.35,3.48,1.06,4.37v.03ZM36.6,217.38c.41-.43.93-.64,1.52-.64s1.1.21,1.5.64.59,1.01.59,1.75-.2,1.39-.6,1.83-.88.68-1.44.68c-.38,0-.75-.11-1.09-.33s-.61-.54-.81-.95-.29-.85-.29-1.3c0-.69.21-1.25.63-1.68h0ZM40.4,212.46c-.54-.48-1.24-.71-2.08-.71-1.14,0-2.04.41-2.7,1.23-.76.94-1.15,2.45-1.15,4.53,0,1.85.35,3.19,1.04,4.01s1.59,1.21,2.69,1.21c.65,0,1.23-.15,1.73-.46s.91-.75,1.2-1.33.44-1.2.44-1.88c0-1.03-.31-1.87-.93-2.52s-1.36-.98-2.25-.98c-.5,0-.99.11-1.44.35s-.85.59-1.16,1.08c0-1.08.14-1.9.38-2.49s.56-1.03.99-1.33c.31-.24.69-.35,1.1-.35.53,0,.96.19,1.31.56.21.24.38.61.5,1.13l1.31-.1c-.11-.84-.43-1.49-.98-1.97h0Z"/>
  <path d="M44.91,166.41c.36-.51.85-.78,1.45-.78s1.13.29,1.54.88.63,1.75.63,3.53-.21,2.93-.63,3.52-.93.88-1.53.88-1.11-.29-1.53-.88-.63-1.77-.63-3.53.23-2.98.68-3.63h.01ZM43.93,174.42c.59.74,1.4,1.11,2.44,1.11.79,0,1.44-.21,1.95-.64s.9-1.03,1.16-1.8.39-1.79.39-3.06c0-1.06-.08-1.92-.24-2.54s-.39-1.16-.66-1.6-.64-.78-1.08-1-.94-.35-1.52-.35c-.78,0-1.43.21-1.95.63s-.9,1.01-1.16,1.79-.39,1.8-.39,3.07c0,2.02.35,3.48,1.06,4.37v.03ZM36.47,170.7c.41-.41.93-.61,1.54-.61s1.16.21,1.59.63.64.94.64,1.58-.2,1.14-.61,1.55-.93.61-1.57.61c-.4,0-.79-.1-1.14-.29s-.61-.46-.8-.81-.26-.71-.26-1.09c0-.61.2-1.13.61-1.54v-.03ZM36.78,166.12c.34-.33.75-.49,1.25-.49s.91.16,1.25.5.5.74.5,1.23-.16.85-.49,1.18-.74.48-1.25.48-.95-.16-1.28-.49-.49-.74-.49-1.25c0-.45.16-.84.5-1.16h0ZM35.03,170.48c-.35.48-.53,1.05-.53,1.75,0,.94.33,1.73.98,2.35s1.5.94,2.57.94,1.92-.31,2.57-.94.98-1.4.98-2.32c0-.66-.18-1.24-.51-1.72s-.85-.83-1.5-1.04c.54-.2.93-.49,1.19-.85s.39-.8.39-1.3c0-.78-.29-1.45-.86-1.99s-1.33-.81-2.27-.81-1.68.26-2.24.8-.84,1.19-.84,1.98c0,.51.14.96.4,1.34s.68.66,1.21.86c-.65.18-1.16.49-1.52.96v-.03Z"/>
  <path d="M44.91,118.09c.36-.51.85-.78,1.45-.78s1.13.29,1.54.88.63,1.75.63,3.53-.21,2.93-.63,3.52-.93.88-1.53.88-1.11-.29-1.53-.88-.63-1.77-.63-3.53.23-2.98.68-3.63h.01ZM43.93,126.11c.59.74,1.4,1.11,2.44,1.11.79,0,1.44-.21,1.95-.64s.9-1.03,1.16-1.8.39-1.79.39-3.06c0-1.06-.08-1.92-.24-2.54s-.39-1.16-.66-1.6-.64-.78-1.08-1-.94-.35-1.52-.35c-.78,0-1.43.21-1.95.63s-.9,1.01-1.16,1.79-.39,1.8-.39,3.07c0,2.02.35,3.48,1.06,4.37v.03ZM36.56,118.09c.36-.51.85-.78,1.45-.78s1.13.29,1.54.88.63,1.75.63,3.53-.21,2.93-.63,3.52-.93.88-1.53.88-1.11-.29-1.53-.88-.63-1.77-.63-3.53.23-2.98.68-3.63h.01ZM35.58,126.11c.59.74,1.4,1.11,2.44,1.11.79,0,1.44-.21,1.95-.64s.9-1.03,1.16-1.8.39-1.79.39-3.06c0-1.06-.08-1.92-.24-2.54s-.39-1.16-.66-1.6-.64-.78-1.08-1-.94-.35-1.52-.35c-.78,0-1.43.21-1.95.63s-.9,1.01-1.16,1.79-.39,1.8-.39,3.07c0,2.02.35,3.48,1.06,4.37v.03ZM31.14,116.24h-.85c-.23.46-.63.94-1.18,1.44s-1.2.91-1.94,1.26v1.28c.41-.15.88-.38,1.39-.68s.94-.6,1.25-.91v8.42h1.31v-10.79h.01Z"/>
  <path d="M44.91,70.28c.36-.51.85-.78,1.45-.78s1.13.29,1.54.88.63,1.75.63,3.53-.21,2.93-.63,3.52-.93.88-1.53.88-1.11-.29-1.53-.88-.63-1.77-.63-3.53.23-2.98.68-3.63h.01ZM43.93,78.29c.59.74,1.4,1.11,2.44,1.11.79,0,1.44-.21,1.95-.64s.9-1.03,1.16-1.8.39-1.79.39-3.06c0-1.06-.08-1.92-.24-2.54s-.39-1.16-.66-1.6-.64-.78-1.08-1-.94-.35-1.52-.35c-.78,0-1.43.21-1.95.63s-.9,1.01-1.16,1.79-.39,1.8-.39,3.07c0,2.02.35,3.48,1.06,4.37v.03ZM36.18,77.95c.15-.24.34-.48.56-.71s.74-.69,1.53-1.35c.95-.8,1.63-1.43,2.04-1.89s.7-.9.88-1.31.26-.84.26-1.26c0-.85-.3-1.55-.9-2.13s-1.42-.86-2.45-.86-1.84.26-2.44.8-.95,1.3-1.05,2.32l1.35.14c0-.68.2-1.2.58-1.59s.89-.58,1.53-.58c.6,0,1.09.18,1.47.54s.56.8.56,1.33-.2,1.03-.61,1.59-1.2,1.31-2.37,2.28c-.75.61-1.33,1.16-1.73,1.63s-.69.95-.86,1.43c-.11.29-.16.6-.15.91h7.11v-1.26h-5.3ZM31.14,68.42h-.85c-.23.46-.63.94-1.18,1.44s-1.2.91-1.94,1.26v1.28c.41-.15.88-.38,1.39-.68s.94-.6,1.25-.91v8.42h1.31v-10.79h.01Z"/>
  <path d="M44.91,23.74c.36-.51.85-.78,1.45-.78s1.13.29,1.54.88.63,1.75.63,3.53-.21,2.93-.63,3.52-.93.88-1.53.88-1.11-.29-1.53-.88-.63-1.77-.63-3.53.23-2.98.68-3.63h.01ZM43.93,31.75c.59.74,1.4,1.11,2.44,1.11.79,0,1.44-.21,1.95-.64s.9-1.03,1.16-1.8.39-1.79.39-3.06c0-1.06-.08-1.92-.24-2.54s-.39-1.16-.66-1.6-.64-.78-1.08-1-.94-.35-1.52-.35c-.78,0-1.43.21-1.95.63s-.9,1.01-1.16,1.79-.39,1.8-.39,3.07c0,2.02.35,3.48,1.06,4.37v.03ZM35.38,28.9l3.37-4.85v4.85h-3.37ZM40.08,32.68v-2.58h1.45v-1.21h-1.45v-6.98h-1.08l-4.91,6.98v1.21h4.67v2.58s1.31,0,1.31,0ZM31.14,21.89h-.85c-.23.46-.63.94-1.18,1.44s-1.2.91-1.94,1.26v1.28c.41-.15.88-.38,1.39-.68s.94-.6,1.25-.91v8.42h1.31v-10.79h.01Z"/>
  <g style="clip-path: url(#clippath-1);">
    <g>
      <path d="M195.97,47.63c.51-.5,1.13-.75,1.88-.75.82,0,1.49.32,2,.94.34.41.54,1,.61,1.81h-5.34c.05-.83.33-1.5.84-2h0ZM199.46,53.74c-.42.32-.92.47-1.53.47-.8,0-1.46-.28-2-.84s-.83-1.36-.9-2.41h7.13v-.43c0-1.58-.41-2.81-1.21-3.68s-1.86-1.3-3.14-1.3-2.4.45-3.23,1.33-1.24,2.13-1.24,3.74.41,2.77,1.23,3.62,1.92,1.29,3.33,1.29c1.11,0,2.03-.28,2.74-.82s1.2-1.3,1.46-2.28l-1.67-.21c-.25.69-.58,1.19-1,1.49l.03.03ZM185.92,47.79c.53-.65,1.15-.98,1.83-.98s1.29.3,1.79.91.75,1.52.75,2.74-.25,2.23-.76,2.83-1.13.91-1.84.91-1.32-.29-1.81-.88-.75-1.5-.75-2.73.26-2.17.79-2.82h0ZM185.27,58.99v-4.65c.28.34.63.63,1.05.87s.91.34,1.45.34c.74,0,1.44-.21,2.11-.62.67-.42,1.19-1.01,1.53-1.81.36-.79.53-1.66.53-2.65,0-.91-.16-1.75-.47-2.52s-.79-1.36-1.41-1.78-1.34-.63-2.16-.63c-.62,0-1.16.12-1.59.37-.43.24-.83.61-1.19,1.09v-1.24h-1.48v13.23h1.63ZM175.4,59.21c.51,0,.96-.12,1.33-.37s.7-.65.99-1.17c.21-.4.51-1.12.91-2.17l3.64-9.73h-1.62l-2.04,5.57c-.26.71-.47,1.44-.67,2.17-.2-.78-.43-1.52-.7-2.21l-1.99-5.53h-1.75l3.62,9.58c-.07.17-.12.3-.14.4-.22.65-.4,1.04-.5,1.21-.13.21-.32.38-.53.5s-.5.18-.87.18c-.26,0-.58-.05-.92-.14l.18,1.53c.38.13.74.2,1.04.2h.03ZM172.13,53.94c-.24,0-.42-.04-.55-.12s-.22-.18-.28-.32-.08-.43-.08-.9v-5.6h1.63v-1.27h-1.63v-3.35l-1.61.98v2.37h-1.19v1.27h1.19v5.51c0,.98.07,1.61.2,1.91.13.3.36.55.69.74s.78.28,1.37.28c.36,0,.76-.05,1.23-.14l-.24-1.44c-.29.04-.53.07-.71.07h-.01ZM155.53,55.32v-5.22c0-1.23.25-2.06.75-2.49s1.09-.66,1.79-.66c.43,0,.8.09,1.13.29.32.2.54.46.67.78.13.33.18.82.18,1.48v5.82h1.62v-5.88c0-.75-.03-1.28-.09-1.58-.09-.46-.26-.86-.5-1.2s-.61-.61-1.08-.82c-.49-.21-1.01-.32-1.59-.32-1.33,0-2.35.53-3.04,1.58v-1.36h-1.46v9.57h1.62ZM145.52,47.8c.54-.61,1.21-.91,2.02-.91s1.46.3,2,.91c.54.61.8,1.5.8,2.69,0,1.25-.26,2.19-.8,2.81s-1.2.92-2,.92-1.49-.3-2.02-.91c-.54-.61-.8-1.53-.8-2.75s.26-2.13.8-2.74h0ZM144.29,54.26c.83.86,1.91,1.29,3.24,1.29.83,0,1.61-.2,2.31-.58s1.24-.94,1.61-1.65c.37-.71.55-1.67.55-2.91,0-1.52-.42-2.71-1.25-3.57s-1.91-1.29-3.23-1.29c-1.19,0-2.19.36-3,1.07-.99.86-1.48,2.16-1.48,3.94,0,1.62.41,2.86,1.24,3.72h.01ZM141.18,55.32v-9.57h-1.62v9.57h1.62ZM141.18,43.98v-1.87h-1.62v1.87h1.62ZM137.25,53.94c-.24,0-.42-.04-.55-.12s-.22-.18-.28-.32-.08-.43-.08-.9v-5.6h1.63v-1.27h-1.63v-3.35l-1.61.98v2.37h-1.19v1.27h1.19v5.51c0,.98.07,1.61.2,1.91.13.3.36.55.69.74s.78.28,1.37.28c.36,0,.76-.05,1.23-.14l-.24-1.44c-.29.04-.53.07-.71.07h-.01ZM130.28,51.12c0,.71-.09,1.25-.26,1.62-.22.47-.58.84-1.07,1.12s-1.04.41-1.66.41-1.11-.14-1.44-.43-.49-.65-.49-1.08c0-.28.08-.54.22-.76s.37-.41.65-.53.75-.22,1.41-.33c1.17-.17,2.06-.37,2.65-.61v.59h-.01ZM130.73,55.32h1.7c-.2-.37-.34-.75-.41-1.15s-.11-1.36-.11-2.86v-2.16c0-.72-.03-1.21-.08-1.49-.09-.45-.26-.82-.5-1.11-.24-.29-.62-.54-1.12-.72s-1.17-.29-1.99-.29-1.54.12-2.17.34c-.62.22-1.11.55-1.44.96-.33.42-.57.96-.71,1.65l1.58.21c.17-.67.45-1.15.8-1.42.37-.26.92-.4,1.69-.4.82,0,1.44.18,1.84.55.3.28.46.74.46,1.4v.42c-.62.21-1.58.41-2.89.55-.65.08-1.12.16-1.44.24-.43.12-.82.3-1.17.53s-.62.54-.84.94c-.21.38-.32.82-.32,1.28,0,.8.28,1.45.84,1.96s1.37.76,2.42.76c.63,0,1.24-.11,1.79-.32s1.13-.57,1.74-1.08c.05.45.16.84.33,1.19h-.03ZM121.87,53.94c-.24,0-.42-.04-.55-.12s-.22-.18-.28-.32-.08-.43-.08-.9v-5.6h1.63v-1.27h-1.63v-3.35l-1.61.98v2.37h-1.19v1.27h1.19v5.51c0,.98.07,1.61.2,1.91.13.3.36.55.69.74s.78.28,1.37.28c.36,0,.76-.05,1.23-.14l-.24-1.44c-.29.04-.53.07-.71.07h-.01ZM116.5,55.32v-9.57h-1.62v5.13c0,.82-.09,1.44-.26,1.87s-.47.76-.91,1.01c-.42.25-.88.37-1.37.37s-.9-.12-1.23-.37-.54-.58-.65-1c-.07-.29-.11-.87-.11-1.71v-5.31h-1.62v5.93c0,.69.03,1.2.11,1.52.09.47.26.87.5,1.2s.61.61,1.09.82,1.01.33,1.58.33c1.28,0,2.29-.54,3.03-1.62v1.41h1.45,0ZM95.26,55.32v-11.24l3.82,11.24h1.58l3.83-11.06v11.06h1.69v-13.2h-2.35l-3.16,9.18c-.32.94-.55,1.63-.7,2.12-.13-.43-.34-1.08-.63-1.95l-3.12-9.36h-2.64v13.2h1.69-.01Z"/>
      <path d="M219.49,82.31c.61.49,1.51.73,2.69.73.71,0,1.35-.12,1.91-.36.57-.25.99-.6,1.3-1.05s.45-.93.45-1.44-.12-.96-.36-1.31-.58-.63-1-.8c-.42-.19-1.19-.42-2.27-.71-.76-.2-1.21-.33-1.35-.39-.26-.1-.47-.25-.58-.41-.13-.16-.19-.33-.19-.54,0-.31.15-.58.45-.82.31-.23.8-.35,1.51-.35.6,0,1.06.13,1.38.39.32.26.52.63.6,1.09l1.5-.2c-.1-.58-.28-1.05-.52-1.4-.26-.35-.65-.63-1.19-.83s-1.16-.31-1.88-.31c-.47,0-.92.06-1.32.19-.41.12-.74.28-.98.45-.32.23-.57.51-.76.86s-.28.71-.28,1.12c0,.44.12.84.33,1.22.22.36.55.65.99.86s1.22.45,2.34.74c.83.2,1.35.38,1.57.52.31.2.45.47.45.82,0,.39-.17.73-.51,1-.33.29-.86.44-1.57.44s-1.24-.16-1.63-.48-.63-.79-.71-1.4l-1.51.23c.17.96.57,1.69,1.18,2.17M210.76,82.83v-4.95c0-1.16.23-1.95.71-2.36.48-.42,1.03-.63,1.69-.63.41,0,.77.09,1.08.28.31.19.51.44.64.74.12.31.17.77.17,1.4v5.52h1.53v-5.57c0-.71-.03-1.21-.09-1.5-.09-.44-.25-.82-.48-1.14-.23-.32-.57-.58-1.03-.77-.45-.19-.96-.29-1.5-.29-1.25,0-2.21.49-2.88,1.5v-1.28h-1.38v9.05h1.53M201.27,75.7c.51-.57,1.15-.86,1.91-.86s1.38.29,1.89.86c.51.58.76,1.43.76,2.55,0,1.19-.25,2.07-.76,2.65-.51.58-1.14.87-1.91.87s-1.4-.29-1.91-.86c-.51-.58-.76-1.44-.76-2.61s.25-2.02.76-2.61M200.1,81.81c.79.82,1.8,1.22,3.07,1.22.79,0,1.51-.19,2.18-.55s1.18-.89,1.53-1.56.52-1.59.52-2.75c0-1.44-.39-2.56-1.18-3.38s-1.8-1.22-3.06-1.22c-1.12,0-2.07.33-2.85,1-.93.8-1.4,2.05-1.4,3.73,0,1.53.39,2.71,1.18,3.51M197.16,82.83v-9.05h-1.53v9.05h1.53M197.16,72.09v-1.76h-1.53v1.76h1.53M193.45,81.52c-.23,0-.41-.04-.52-.12l-.26-.31c-.06-.13-.09-.41-.09-.84v-5.3h1.54v-1.19h-1.54v-3.16l-1.53.92v2.24h-1.12v1.19h1.12v5.21c0,.92.06,1.53.19,1.82s.33.52.65.7c.31.17.74.26,1.3.26.33,0,.73-.04,1.16-.13l-.22-1.35c-.28.04-.51.06-.67.06M188.36,82.83v-9.05h-1.53v4.85c0,.77-.09,1.37-.25,1.78s-.45.73-.86.96-.83.35-1.3.35-.84-.12-1.16-.35c-.31-.23-.52-.55-.61-.95-.06-.28-.09-.82-.09-1.62v-5.02h-1.53v5.62c0,.65.03,1.14.09,1.43.09.45.25.83.48,1.14.22.31.57.57,1.03.77s.96.31,1.5.31c1.21,0,2.17-.51,2.87-1.53v1.32h1.37M178.88,81.52c-.23,0-.41-.04-.52-.12l-.26-.31c-.06-.13-.09-.41-.09-.84v-5.3h1.54v-1.19h-1.54v-3.16l-1.53.92v2.24h-1.12v1.19h1.12v5.21c0,.92.06,1.53.19,1.82s.33.52.65.7c.31.17.74.26,1.3.26.33,0,.73-.04,1.16-.13l-.22-1.35c-.28.04-.51.06-.67.06M173.86,82.83v-9.05h-1.53v9.05h1.53M173.86,72.09v-1.76h-1.53v1.76h1.53M164.15,82.31c.61.49,1.51.73,2.69.73.71,0,1.35-.12,1.91-.36.57-.25.99-.6,1.3-1.05s.45-.93.45-1.44-.12-.96-.36-1.31-.58-.63-1-.8c-.42-.19-1.19-.42-2.27-.71-.76-.2-1.21-.33-1.35-.39-.26-.1-.47-.25-.58-.41-.13-.16-.19-.33-.19-.54,0-.31.15-.58.45-.82.31-.23.8-.35,1.51-.35.6,0,1.06.13,1.38.39.32.26.52.63.6,1.09l1.5-.2c-.1-.58-.28-1.05-.52-1.4-.26-.35-.65-.63-1.19-.83s-1.16-.31-1.88-.31c-.47,0-.92.06-1.32.19-.41.12-.74.28-.98.45-.32.23-.57.51-.76.86s-.28.71-.28,1.12c0,.44.12.84.33,1.22.22.36.55.65.99.86s1.22.45,2.34.74c.83.2,1.35.38,1.57.52.31.2.45.47.45.82,0,.39-.17.73-.51,1-.33.29-.86.44-1.57.44s-1.24-.16-1.63-.48-.63-.79-.71-1.4l-1.51.23c.17.96.57,1.69,1.18,2.17M156,75.7c.49-.58,1.06-.87,1.75-.87s1.24.28,1.7.84.7,1.44.7,2.62-.25,2.02-.73,2.61c-.49.58-1.06.87-1.75.87-.83,0-1.48-.39-1.96-1.18-.29-.48-.44-1.27-.44-2.36s.25-1.95.73-2.53M155.29,81.7c.61.89,1.44,1.34,2.52,1.34s1.99-.42,2.77-1.27,1.15-2.05,1.15-3.59c0-.65-.09-1.27-.28-1.85-.19-.57-.44-1.06-.76-1.47-.32-.41-.73-.73-1.22-.95s-1.02-.33-1.59-.33c-1,0-1.83.41-2.49,1.22v-4.45h-1.53v12.5h1.43v-1.14M151.48,82.83v-9.05h-1.53v4.85c0,.77-.09,1.37-.25,1.78-.17.41-.45.73-.86.96s-.83.35-1.3.35-.84-.12-1.16-.35c-.31-.23-.52-.55-.61-.95-.06-.28-.09-.82-.09-1.62v-5.02h-1.53v5.62c0,.65.03,1.14.09,1.43.09.45.25.83.48,1.14.22.31.57.57,1.03.77s.96.31,1.5.31c1.21,0,2.17-.51,2.87-1.53v1.32h1.37M132.83,81.06c.44.67,1.03,1.16,1.8,1.48.77.33,1.72.49,2.84.49.89,0,1.69-.16,2.42-.49.71-.32,1.27-.79,1.64-1.37s.57-1.21.57-1.88-.17-1.27-.52-1.78-.89-.95-1.62-1.28c-.49-.23-1.43-.49-2.77-.8-1.34-.31-2.18-.6-2.49-.89-.32-.29-.48-.65-.48-1.11,0-.52.23-.96.68-1.32s1.19-.55,2.18-.55,1.69.2,2.18.61.79,1,.86,1.79l1.59-.12c-.03-.73-.23-1.4-.61-1.96-.38-.58-.93-1.02-1.63-1.32-.71-.31-1.53-.45-2.45-.45-.84,0-1.6.15-2.3.42-.68.29-1.21.7-1.57,1.25s-.54,1.14-.54,1.78c0,.57.15,1.09.44,1.56s.74.84,1.34,1.16c.47.25,1.27.51,2.42.79s1.89.48,2.23.61c.52.2.9.45,1.12.74.23.29.33.64.33,1.03s-.12.74-.35,1.08c-.23.32-.6.58-1.08.77s-1.03.28-1.67.28c-.71,0-1.35-.12-1.92-.36s-.99-.57-1.25-.98c-.28-.41-.44-.92-.51-1.54l-1.56.13c.03.83.25,1.59.68,2.24"/>
      <polyline points="110.98 84.75 93.52 84.75 93.52 67.29 110.98 67.29 110.98 84.75" style="fill: #636efa;"/>
      <path d="M203.17,74.84c-.77,0-1.4.29-1.91.86s-.76,1.44-.76,2.61.25,2.02.76,2.61c.51.58,1.15.86,1.91.86s1.4-.29,1.91-.87.76-1.47.76-2.65-.25-1.96-.76-2.55c-.51-.58-1.14-.86-1.89-.86M157.75,74.83c-.67,0-1.25.29-1.75.87s-.73,1.43-.73,2.53.15,1.88.44,2.36c.48.79,1.14,1.18,1.96,1.18.67,0,1.25-.29,1.75-.87s.73-1.46.73-2.61-.23-2.05-.7-2.62-1.03-.84-1.7-.84M147.53,81.71c.47,0,.89-.12,1.3-.35.41-.23.68-.55.86-.96.17-.41.25-.99.25-1.78v-4.85h1.53v9.05h-1.37v-1.32c-.7,1.02-1.66,1.53-2.87,1.53-.54,0-1.03-.1-1.5-.31s-.8-.47-1.03-.77c-.22-.31-.38-.68-.48-1.14-.06-.31-.09-.79-.09-1.43v-5.62h1.53v5.02c0,.8.03,1.34.09,1.62.1.41.31.73.61.95.31.23.7.35,1.16.35M172.33,82.83v-9.05h1.53v9.05h-1.53M184.43,81.71c.47,0,.89-.12,1.3-.35.41-.23.68-.55.86-.96s.25-.99.25-1.78v-4.85h1.53v9.05h-1.37v-1.32c-.7,1.02-1.66,1.53-2.87,1.53-.54,0-1.03-.1-1.5-.31s-.8-.47-1.03-.77c-.22-.31-.38-.68-.48-1.14-.06-.31-.09-.79-.09-1.43v-5.62h1.53v5.02c0,.8.03,1.34.09,1.62.1.41.31.73.61.95.31.23.7.35,1.16.35M195.63,82.83v-9.05h1.53v9.05h-1.53M166.84,81.77c.7,0,1.22-.15,1.57-.44.33-.29.51-.63.51-1,0-.35-.15-.63-.45-.82-.2-.13-.73-.31-1.57-.52-1.12-.29-1.91-.52-2.34-.74-.44-.2-.77-.49-.99-.86-.22-.36-.33-.77-.33-1.22,0-.41.09-.77.28-1.12s.44-.63.76-.86c.23-.17.57-.32.98-.45.41-.12.86-.19,1.32-.19.71,0,1.34.1,1.88.31s.93.48,1.19.83.44.82.52,1.4l-1.5.2c-.07-.47-.26-.83-.6-1.09-.32-.26-.79-.39-1.38-.39-.7,0-1.21.12-1.51.35-.31.23-.45.51-.45.82,0,.2.06.38.19.54s.32.31.58.41c.16.06.61.19,1.35.39,1.09.29,1.85.52,2.27.71s.77.45,1,.8c.25.35.36.79.36,1.31s-.15.99-.45,1.44-.73.8-1.3,1.05-1.19.36-1.91.36c-1.18,0-2.07-.25-2.69-.73-.61-.49-1-1.21-1.18-2.17l1.51-.23c.09.61.32,1.08.71,1.4s.93.48,1.63.48M203.17,83.04c-1.27,0-2.3-.41-3.07-1.22-.79-.82-1.18-1.98-1.18-3.51,0-1.67.47-2.93,1.4-3.73.79-.67,1.73-1,2.85-1,1.25,0,2.26.41,3.06,1.22.79.82,1.18,1.94,1.18,3.38,0,1.16-.17,2.08-.52,2.75s-.86,1.19-1.53,1.56c-.67.36-1.4.55-2.18.55M210.6,75.06c.67-.99,1.63-1.5,2.88-1.5.55,0,1.05.1,1.5.29.45.19.8.45,1.03.77.23.32.39.7.48,1.14.06.29.09.79.09,1.5v5.57h-1.53v-5.52c0-.63-.06-1.09-.17-1.4s-.33-.55-.64-.74c-.31-.19-.65-.28-1.08-.28-.65,0-1.22.2-1.69.63-.48.42-.71,1.21-.71,2.36v4.95h-1.53v-9.05h1.38v1.28M222.18,81.77c.7,0,1.22-.15,1.57-.44.33-.29.51-.63.51-1,0-.35-.15-.63-.45-.82-.2-.13-.73-.31-1.57-.52-1.12-.29-1.91-.52-2.34-.74-.44-.2-.77-.49-.99-.86-.22-.36-.33-.77-.33-1.22,0-.41.09-.77.28-1.12s.44-.63.76-.86c.23-.17.57-.32.98-.45.41-.12.86-.19,1.32-.19.71,0,1.34.1,1.88.31s.93.48,1.19.83.44.82.52,1.4l-1.5.2c-.07-.47-.26-.83-.6-1.09-.32-.26-.79-.39-1.38-.39-.7,0-1.21.12-1.51.35-.31.23-.45.51-.45.82,0,.2.06.38.19.54s.32.31.58.41c.16.06.61.19,1.35.39,1.09.29,1.85.52,2.27.71s.77.45,1,.8c.25.35.36.79.36,1.31s-.15.99-.45,1.44-.73.8-1.3,1.05-1.19.36-1.91.36c-1.18,0-2.07-.25-2.69-.73-.61-.49-1-1.21-1.18-2.17l1.51-.23c.09.61.32,1.08.71,1.4s.93.48,1.63.48M175.36,74.97v-1.19h1.12v-2.24l1.53-.92v3.16h1.54v1.19h-1.54v5.3c0,.44.03.71.09.84l.26.31c.12.07.29.12.52.12.17,0,.39-.01.67-.06l.22,1.35c-.44.09-.82.13-1.16.13-.55,0-.99-.09-1.3-.26s-.52-.41-.65-.7c-.13-.29-.19-.89-.19-1.82v-5.21h-1.12M189.93,74.97v-1.19h1.12v-2.24l1.53-.92v3.16h1.54v1.19h-1.54v5.3c0,.44.03.71.09.84l.26.31c.12.07.29.12.52.12.17,0,.39-.01.67-.06l.22,1.35c-.44.09-.82.13-1.16.13-.55,0-.99-.09-1.3-.26s-.52-.41-.65-.7c-.13-.29-.19-.89-.19-1.82v-5.21h-1.12M153.86,82.83v-12.5h1.53v4.45c.65-.82,1.47-1.22,2.49-1.22.55,0,1.09.12,1.59.33s.9.54,1.22.95c.32.41.57.9.76,1.47.17.57.28,1.19.28,1.85,0,1.56-.38,2.75-1.15,3.59-.77.84-1.69,1.27-2.77,1.27s-1.91-.45-2.52-1.34v1.14h-1.43M172.33,72.09v-1.76h1.53v1.76h-1.53M195.63,72.09v-1.76h1.53v1.76h-1.53M137.4,81.57c.63,0,1.19-.09,1.67-.28.48-.19.84-.45,1.08-.77s.35-.68.35-1.08-.12-.73-.33-1.03c-.23-.29-.6-.54-1.12-.74-.33-.13-1.08-.33-2.23-.61-1.15-.28-1.95-.54-2.42-.79-.6-.31-1.05-.7-1.34-1.16s-.44-.98-.44-1.56c0-.63.17-1.22.54-1.78.36-.55.89-.96,1.57-1.25.68-.29,1.46-.42,2.3-.42.93,0,1.75.15,2.45.45.71.31,1.25.74,1.63,1.32s.58,1.24.61,1.96l-1.59.12c-.09-.79-.38-1.38-.86-1.79-.49-.41-1.22-.61-2.18-.61s-1.73.19-2.18.55-.68.82-.68,1.32c0,.45.16.82.48,1.11.32.29,1.15.58,2.49.89,1.34.31,2.27.57,2.77.8.73.33,1.27.76,1.62,1.28.35.51.52,1.11.52,1.78s-.19,1.3-.57,1.88-.93,1.05-1.64,1.37-1.51.49-2.42.49c-1.14,0-2.08-.16-2.84-.49-.77-.33-1.37-.83-1.8-1.48-.44-.67-.67-1.41-.68-2.24l1.56-.13c.07.63.25,1.14.51,1.54.28.41.68.73,1.25.98s1.21.36,1.92.36M93.52,84.75v-17.47h17.47v17.47h-17.47M226.5,62.19H73.13v27.65h153.37v-27.65" style="fill: #fff;"/>
      <path d="M151.48,73.78h-1.53v4.85c0,.77-.09,1.37-.25,1.78-.17.41-.45.73-.86.96s-.83.35-1.3.35-.84-.12-1.16-.35c-.31-.23-.52-.55-.61-.95-.06-.28-.09-.82-.09-1.62v-5.02h-1.53v5.62c0,.65.03,1.14.09,1.43.09.45.25.83.48,1.14.22.31.57.57,1.03.77s.96.31,1.5.31c1.21,0,2.17-.51,2.87-1.53v1.32h1.37v-9.05M173.86,73.78h-1.53v9.05h1.53v-9.05M188.36,73.78h-1.53v4.85c0,.77-.09,1.37-.25,1.78s-.45.73-.86.96-.83.35-1.3.35-.84-.12-1.16-.35c-.31-.23-.52-.55-.61-.95-.06-.28-.09-.82-.09-1.62v-5.02h-1.53v5.62c0,.65.03,1.14.09,1.43.09.45.25.83.48,1.14.22.31.57.57,1.03.77s.96.31,1.5.31c1.21,0,2.17-.51,2.87-1.53v1.32h1.37v-9.05M197.16,73.78h-1.53v9.05h1.53v-9.05M166.57,73.57c-.47,0-.92.06-1.32.19-.41.12-.74.28-.98.45-.32.23-.57.51-.76.86s-.28.71-.28,1.12c0,.44.12.84.33,1.22.22.36.55.65.99.86s1.22.45,2.34.74c.83.2,1.35.38,1.57.52.31.2.45.47.45.82,0,.39-.17.73-.51,1-.33.29-.86.44-1.57.44s-1.24-.16-1.63-.48-.63-.79-.71-1.4l-1.51.23c.17.96.57,1.69,1.18,2.17.61.49,1.51.73,2.69.73.71,0,1.35-.12,1.91-.36.57-.25.99-.6,1.3-1.05s.45-.93.45-1.44-.12-.96-.36-1.31-.58-.63-1-.8c-.42-.19-1.19-.42-2.27-.71-.76-.2-1.21-.33-1.35-.39-.26-.1-.47-.25-.58-.41-.13-.16-.19-.33-.19-.54,0-.31.15-.58.45-.82.31-.23.8-.35,1.51-.35.6,0,1.06.13,1.38.39.32.26.52.63.6,1.09l1.5-.2c-.1-.58-.28-1.05-.52-1.4-.26-.35-.65-.63-1.19-.83s-1.16-.31-1.88-.31M203.17,81.77c-.77,0-1.4-.29-1.91-.86-.51-.58-.76-1.44-.76-2.61s.25-2.02.76-2.61c.51-.57,1.15-.86,1.91-.86s1.38.29,1.89.86c.51.58.76,1.43.76,2.55,0,1.19-.25,2.07-.76,2.65-.51.58-1.14.87-1.91.87M203.17,73.57c-1.12,0-2.07.33-2.85,1-.93.8-1.4,2.05-1.4,3.73,0,1.53.39,2.71,1.18,3.51.79.82,1.8,1.22,3.07,1.22.79,0,1.51-.19,2.18-.55s1.18-.89,1.53-1.56.52-1.59.52-2.75c0-1.44-.39-2.56-1.18-3.38s-1.8-1.22-3.06-1.22M213.48,73.57c-1.25,0-2.21.49-2.88,1.5v-1.28h-1.38v9.05h1.53v-4.95c0-1.16.23-1.95.71-2.36.48-.42,1.03-.63,1.69-.63.41,0,.77.09,1.08.28.31.19.51.44.64.74.12.31.17.77.17,1.4v5.52h1.53v-5.57c0-.71-.03-1.21-.09-1.5-.09-.44-.25-.82-.48-1.14-.23-.32-.57-.58-1.03-.77-.45-.19-.96-.29-1.5-.29M221.9,73.57c-.47,0-.92.06-1.32.19-.41.12-.74.28-.98.45-.32.23-.57.51-.76.86s-.28.71-.28,1.12c0,.44.12.84.33,1.22.22.36.55.65.99.86s1.22.45,2.34.74c.83.2,1.35.38,1.57.52.31.2.45.47.45.82,0,.39-.17.73-.51,1-.33.29-.86.44-1.57.44s-1.24-.16-1.63-.48-.63-.79-.71-1.4l-1.51.23c.17.96.57,1.69,1.18,2.17.61.49,1.51.73,2.69.73.71,0,1.35-.12,1.91-.36.57-.25.99-.6,1.3-1.05s.45-.93.45-1.44-.12-.96-.36-1.31-.58-.63-1-.8c-.42-.19-1.19-.42-2.27-.71-.76-.2-1.21-.33-1.35-.39-.26-.1-.47-.25-.58-.41-.13-.16-.19-.33-.19-.54,0-.31.15-.58.45-.82.31-.23.8-.35,1.51-.35.6,0,1.06.13,1.38.39.32.26.52.63.6,1.09l1.5-.2c-.1-.58-.28-1.05-.52-1.4-.26-.35-.65-.63-1.19-.83s-1.16-.31-1.88-.31M178.01,70.61l-1.53.92v2.24h-1.12v1.19h1.12v5.21c0,.92.06,1.53.19,1.82s.33.52.65.7c.31.17.74.26,1.3.26.33,0,.73-.04,1.16-.13l-.22-1.35c-.28.04-.51.06-.67.06-.23,0-.41-.04-.52-.12l-.26-.31c-.06-.13-.09-.41-.09-.84v-5.3h1.54v-1.19h-1.54v-3.16M192.58,70.61l-1.53.92v2.24h-1.12v1.19h1.12v5.21c0,.92.06,1.53.19,1.82s.33.52.65.7c.31.17.74.26,1.3.26.33,0,.73-.04,1.16-.13l-.22-1.35c-.28.04-.51.06-.67.06-.23,0-.41-.04-.52-.12l-.26-.31c-.06-.13-.09-.41-.09-.84v-5.3h1.54v-1.19h-1.54v-3.16M157.68,81.77c-.83,0-1.48-.39-1.96-1.18-.29-.48-.44-1.27-.44-2.36s.25-1.95.73-2.53,1.06-.87,1.75-.87,1.24.28,1.7.84.7,1.44.7,2.62-.25,2.02-.73,2.61c-.49.58-1.06.87-1.75.87M155.4,70.33h-1.53v12.5h1.43v-1.14c.61.89,1.44,1.34,2.52,1.34s1.99-.42,2.77-1.27,1.15-2.05,1.15-3.59c0-.65-.09-1.27-.28-1.85-.19-.57-.44-1.06-.76-1.47-.32-.41-.73-.73-1.22-.95s-1.02-.33-1.59-.33c-1,0-1.83.41-2.49,1.22v-4.45M173.86,70.33h-1.53v1.76h1.53v-1.76M197.16,70.33h-1.53v1.76h1.53v-1.76M137.02,70.11c-.84,0-1.6.15-2.3.42-.68.29-1.21.7-1.57,1.25s-.54,1.14-.54,1.78c0,.57.15,1.09.44,1.56s.74.84,1.34,1.16c.47.25,1.27.51,2.42.79s1.89.48,2.23.61c.52.2.9.45,1.12.74.23.29.33.64.33,1.03s-.12.74-.35,1.08c-.23.32-.6.58-1.08.77s-1.03.28-1.67.28c-.71,0-1.35-.12-1.92-.36s-.99-.57-1.25-.98c-.28-.41-.44-.92-.51-1.54l-1.56.13c.03.83.25,1.59.68,2.24.44.67,1.03,1.16,1.8,1.48.77.33,1.72.49,2.84.49.89,0,1.69-.16,2.42-.49.71-.32,1.27-.79,1.64-1.37s.57-1.21.57-1.88-.17-1.27-.52-1.78-.89-.95-1.62-1.28c-.49-.23-1.43-.49-2.77-.8-1.34-.31-2.18-.6-2.49-.89-.32-.29-.48-.65-.48-1.11,0-.52.23-.96.68-1.32s1.19-.55,2.18-.55,1.69.2,2.18.61.79,1,.86,1.79l1.59-.12c-.03-.73-.23-1.4-.61-1.96-.38-.58-.93-1.02-1.63-1.32-.71-.31-1.53-.45-2.45-.45"/>
      <polyline points="110.98 67.29 93.52 67.29 93.52 84.75 110.98 84.75 110.98 67.29" style="fill: #636efa;"/>
      <path d="M200.07,109.96c.61.49,1.51.73,2.69.73.71,0,1.35-.12,1.91-.36.57-.25.99-.6,1.3-1.05s.45-.93.45-1.44-.12-.96-.36-1.31-.58-.63-1-.8c-.42-.19-1.19-.42-2.27-.71-.76-.2-1.21-.33-1.35-.39-.26-.1-.47-.25-.58-.41-.13-.16-.19-.33-.19-.54,0-.31.15-.58.45-.82.31-.23.8-.35,1.51-.35.6,0,1.06.13,1.38.39.32.26.52.63.6,1.09l1.5-.2c-.1-.58-.28-1.05-.52-1.4-.26-.35-.65-.63-1.19-.83s-1.16-.31-1.88-.31c-.47,0-.92.06-1.32.19-.41.12-.74.28-.98.45-.32.23-.57.51-.76.86s-.28.71-.28,1.12c0,.44.12.84.33,1.21.22.36.55.65.99.86s1.22.45,2.34.74c.83.2,1.35.38,1.57.52.31.2.45.47.45.82,0,.39-.17.73-.51,1-.33.29-.86.44-1.57.44s-1.24-.16-1.63-.48-.63-.79-.71-1.4l-1.51.23c.17.96.57,1.69,1.18,2.17M191.33,110.49v-4.95c0-1.16.23-1.95.71-2.36.48-.42,1.03-.63,1.69-.63.41,0,.77.09,1.08.28.31.19.51.44.64.74s.17.77.17,1.4v5.52h1.53v-5.57c0-.71-.03-1.21-.09-1.5-.09-.44-.25-.82-.48-1.14-.23-.32-.57-.58-1.03-.77-.45-.19-.96-.29-1.5-.29-1.25,0-2.21.49-2.88,1.5v-1.28h-1.38v9.05h1.53M181.84,103.35c.51-.57,1.15-.86,1.91-.86s1.38.29,1.89.86c.51.58.76,1.43.76,2.55,0,1.19-.25,2.07-.76,2.65-.51.58-1.14.87-1.91.87s-1.4-.29-1.91-.86c-.51-.58-.76-1.44-.76-2.61s.25-2.02.76-2.61M180.67,109.47c.79.82,1.8,1.22,3.07,1.22.79,0,1.51-.19,2.18-.55s1.18-.89,1.53-1.56.52-1.59.52-2.75c0-1.44-.39-2.56-1.18-3.38s-1.8-1.22-3.06-1.22c-1.12,0-2.07.33-2.85,1-.93.8-1.4,2.05-1.4,3.73,0,1.53.39,2.71,1.18,3.51M177.73,110.49v-9.05h-1.53v9.05h1.53M177.73,99.74v-1.76h-1.53v1.76h1.53M174.02,109.18c-.23,0-.41-.04-.52-.12l-.26-.31c-.06-.13-.09-.41-.09-.84v-5.3h1.54v-1.19h-1.54v-3.16l-1.53.92v2.24h-1.12v1.19h1.12v5.21c0,.92.06,1.53.19,1.82s.33.52.65.7c.31.17.74.26,1.3.26.33,0,.73-.04,1.16-.13l-.22-1.35c-.28.04-.51.06-.67.06M167.05,110.49v-4.74c0-.65.09-1.25.26-1.79.12-.36.31-.64.57-.84s.57-.31.9-.31c.38,0,.76.12,1.12.33l.52-1.43c-.54-.33-1.06-.49-1.57-.49-.36,0-.68.1-.99.31s-.63.63-.98,1.27v-1.37h-1.38v9.05h1.53M157.76,103.19c.48-.47,1.08-.71,1.78-.71.79,0,1.41.29,1.91.89.32.38.51.95.58,1.72h-5.05c.06-.79.32-1.43.8-1.89M161.07,108.99c-.39.29-.87.44-1.44.44-.76,0-1.38-.26-1.89-.79s-.79-1.3-.84-2.29h6.75v-.41c0-1.5-.38-2.65-1.15-3.48-.77-.83-1.76-1.24-2.97-1.24s-2.27.42-3.06,1.27-1.18,2.02-1.18,3.55.39,2.62,1.16,3.43c.77.82,1.82,1.22,3.16,1.22,1.05,0,1.92-.26,2.59-.77s1.14-1.24,1.4-2.15l-1.59-.19c-.23.65-.55,1.12-.95,1.41M147.65,109.96c.61.49,1.51.73,2.69.73.71,0,1.35-.12,1.91-.36.57-.25.99-.6,1.3-1.05s.45-.93.45-1.44-.12-.96-.36-1.31-.58-.63-1-.8c-.42-.19-1.19-.42-2.27-.71-.76-.2-1.21-.33-1.35-.39-.26-.1-.47-.25-.58-.41-.13-.16-.19-.33-.19-.54,0-.31.15-.58.45-.82.31-.23.8-.35,1.51-.35.6,0,1.06.13,1.38.39.32.26.52.63.6,1.09l1.5-.2c-.1-.58-.28-1.05-.52-1.4-.26-.35-.65-.63-1.19-.83s-1.16-.31-1.88-.31c-.47,0-.92.06-1.32.19-.41.12-.74.28-.98.45-.32.23-.57.51-.76.86s-.28.71-.28,1.12c0,.44.12.84.33,1.21.22.36.55.65.99.86s1.21.45,2.34.74c.83.2,1.35.38,1.57.52.31.2.45.47.45.82,0,.39-.17.73-.51,1-.33.29-.86.44-1.57.44s-1.24-.16-1.63-.48-.63-.79-.71-1.4l-1.51.23c.17.96.57,1.69,1.18,2.17M138.9,110.49v-4.95c0-1.16.23-1.95.71-2.36.48-.42,1.03-.63,1.69-.63.41,0,.77.09,1.08.28.31.19.51.44.64.74.12.31.17.77.17,1.4v5.52h1.53v-5.57c0-.71-.03-1.21-.09-1.5-.09-.44-.25-.82-.48-1.14-.23-.32-.57-.58-1.03-.77-.45-.19-.96-.29-1.5-.29-1.25,0-2.21.49-2.88,1.5v-1.28h-1.38v9.05h1.53M134.65,110.49v-12.5h-1.66v12.5h1.66"/>
      <polyline points="110.98 112.41 93.52 112.41 93.52 94.94 110.98 94.94 110.98 112.41" style="fill: #00cc96;"/>
      <path d="M183.74,102.49c-.77,0-1.4.29-1.91.86s-.76,1.44-.76,2.61.25,2.02.76,2.61c.51.58,1.15.86,1.91.86s1.4-.29,1.91-.87.76-1.47.76-2.65-.25-1.96-.76-2.55c-.51-.58-1.14-.86-1.89-.86M159.55,102.48c-.7,0-1.3.23-1.78.71-.48.47-.74,1.11-.8,1.89h5.05c-.07-.76-.26-1.34-.58-1.72-.49-.6-1.12-.89-1.91-.89M176.2,110.49v-9.05h1.53v9.05h-1.53M138.74,102.71c.67-.99,1.63-1.5,2.88-1.5.55,0,1.05.1,1.5.29.45.19.8.45,1.03.77.23.32.39.7.48,1.14.06.29.09.79.09,1.5v5.57h-1.53v-5.52c0-.63-.06-1.09-.17-1.4s-.33-.55-.64-.74c-.31-.19-.65-.28-1.08-.28-.65,0-1.22.2-1.69.63-.48.42-.71,1.21-.71,2.36v4.95h-1.53v-9.05h1.38v1.28M150.33,109.42c.7,0,1.22-.15,1.57-.44.33-.29.51-.63.51-1,0-.35-.15-.63-.45-.82-.2-.13-.73-.31-1.57-.52-1.12-.29-1.91-.52-2.34-.74-.44-.2-.77-.49-.99-.86-.22-.36-.33-.77-.33-1.21,0-.41.09-.77.28-1.12s.44-.63.76-.86c.23-.17.57-.32.98-.45.41-.12.86-.19,1.32-.19.71,0,1.34.1,1.88.31s.93.48,1.19.83.44.82.52,1.4l-1.5.2c-.07-.47-.26-.83-.6-1.09-.32-.26-.79-.39-1.38-.39-.7,0-1.21.12-1.51.35-.31.23-.45.51-.45.82,0,.2.06.38.19.54s.32.31.58.41c.16.06.61.19,1.35.39,1.09.29,1.85.52,2.27.71s.77.45,1,.8c.25.35.36.79.36,1.31s-.15.99-.45,1.44-.73.8-1.3,1.05-1.19.36-1.91.36c-1.18,0-2.07-.25-2.69-.73-.61-.49-1-1.21-1.18-2.17l1.51-.23c.09.61.32,1.08.71,1.4s.93.48,1.63.48M159.61,110.69c-1.32,0-2.37-.41-3.16-1.22-.77-.82-1.16-1.96-1.16-3.43s.39-2.71,1.18-3.55,1.8-1.27,3.06-1.27,2.2.41,2.97,1.24c.77.83,1.15,1.98,1.15,3.48v.41h-6.75c.06.99.33,1.76.84,2.29.51.52,1.14.79,1.89.79.57,0,1.05-.15,1.44-.44.39-.29.71-.77.95-1.41l1.59.19c-.25.93-.71,1.64-1.4,2.15-.67.51-1.54.77-2.59.77M166.89,102.8c.35-.64.68-1.06.98-1.27.31-.2.63-.31.99-.31.52,0,1.05.16,1.57.49l-.52,1.43c-.38-.22-.76-.33-1.12-.33-.33,0-.64.1-.9.31s-.45.48-.57.84c-.17.55-.26,1.15-.26,1.79v4.74h-1.53v-9.05h1.38v1.37M183.74,110.69c-1.27,0-2.3-.41-3.07-1.22-.79-.82-1.18-1.98-1.18-3.51,0-1.67.47-2.93,1.4-3.73.79-.67,1.73-1,2.85-1,1.25,0,2.26.41,3.06,1.22s1.18,1.94,1.18,3.38c0,1.16-.17,2.08-.52,2.75s-.86,1.19-1.53,1.56c-.67.36-1.4.55-2.18.55M191.17,102.71c.67-.99,1.63-1.5,2.88-1.5.55,0,1.05.1,1.5.29.45.19.8.45,1.03.77.23.32.39.7.48,1.14.06.29.09.79.09,1.5v5.57h-1.53v-5.52c0-.63-.06-1.09-.17-1.4s-.33-.55-.64-.74c-.31-.19-.65-.28-1.08-.28-.65,0-1.22.2-1.69.63-.48.42-.71,1.21-.71,2.36v4.95h-1.53v-9.05h1.38v1.28M202.75,109.42c.7,0,1.22-.15,1.57-.44.33-.29.51-.63.51-1,0-.35-.15-.63-.45-.82-.2-.13-.73-.31-1.57-.52-1.12-.29-1.91-.52-2.34-.74-.44-.2-.77-.49-.99-.86-.22-.36-.33-.77-.33-1.21,0-.41.09-.77.28-1.12s.44-.63.76-.86c.23-.17.57-.32.98-.45.41-.12.86-.19,1.32-.19.71,0,1.34.1,1.88.31s.93.48,1.19.83.44.82.52,1.4l-1.5.2c-.07-.47-.26-.83-.6-1.09-.32-.26-.79-.39-1.38-.39-.7,0-1.21.12-1.51.35-.31.23-.45.51-.45.82,0,.2.06.38.19.54s.32.31.58.41c.16.06.61.19,1.35.39,1.09.29,1.85.52,2.27.71s.77.45,1,.8c.25.35.36.79.36,1.31s-.15.99-.45,1.44-.73.8-1.3,1.05-1.19.36-1.91.36c-1.18,0-2.07-.25-2.69-.73-.61-.49-1-1.21-1.18-2.17l1.51-.23c.09.61.32,1.08.71,1.4s.93.48,1.63.48M170.5,102.63v-1.19h1.12v-2.24l1.53-.92v3.16h1.54v1.19h-1.54v5.3c0,.44.03.71.09.84l.26.31c.12.07.29.12.52.12.17,0,.39-.01.67-.06l.22,1.35c-.44.09-.82.13-1.16.13-.55,0-.99-.09-1.3-.26s-.52-.41-.65-.7c-.13-.29-.19-.89-.19-1.82v-5.21h-1.12M132.99,110.49v-12.5h1.66v12.5h-1.66M176.2,99.74v-1.76h1.53v1.76h-1.53M93.52,112.41v-17.47h17.47v17.47h-17.47M226.5,89.85H73.13v27.65h153.37v-27.65" style="fill: #fff;"/>
      <path d="M177.73,101.43h-1.53v9.05h1.53v-9.05M141.62,101.23c-1.25,0-2.21.49-2.88,1.5v-1.28h-1.38v9.05h1.53v-4.95c0-1.16.23-1.95.71-2.36.48-.42,1.03-.63,1.69-.63.41,0,.77.09,1.08.28.31.19.51.44.64.74.12.31.17.77.17,1.4v5.52h1.53v-5.57c0-.71-.03-1.21-.09-1.5-.09-.44-.25-.82-.48-1.14-.23-.32-.57-.58-1.03-.77-.45-.19-.96-.29-1.5-.29M150.05,101.23c-.47,0-.92.06-1.32.19-.41.12-.74.28-.98.45-.32.23-.57.51-.76.86s-.28.71-.28,1.12c0,.44.12.84.33,1.21.22.36.55.65.99.86s1.21.45,2.34.74c.83.2,1.35.38,1.57.52.31.2.45.47.45.82,0,.39-.17.73-.51,1-.33.29-.86.44-1.57.44s-1.24-.16-1.63-.48-.63-.79-.71-1.4l-1.51.23c.17.96.57,1.69,1.18,2.17.61.49,1.51.73,2.69.73.71,0,1.35-.12,1.91-.36.57-.25.99-.6,1.3-1.05s.45-.93.45-1.44-.12-.96-.36-1.31-.58-.63-1-.8c-.42-.19-1.19-.42-2.27-.71-.76-.2-1.21-.33-1.35-.39-.26-.1-.47-.25-.58-.41-.13-.16-.19-.33-.19-.54,0-.31.15-.58.45-.82.31-.23.8-.35,1.51-.35.6,0,1.06.13,1.38.39.32.26.52.63.6,1.09l1.5-.2c-.1-.58-.28-1.05-.52-1.4-.26-.35-.65-.63-1.19-.83s-1.16-.31-1.88-.31M156.98,105.09c.06-.79.32-1.43.8-1.89s1.08-.71,1.78-.71c.79,0,1.41.29,1.91.89.32.38.51.95.58,1.72h-5.05M159.52,101.23c-1.25,0-2.27.42-3.06,1.27s-1.18,2.02-1.18,3.55.39,2.62,1.16,3.43c.77.82,1.82,1.22,3.16,1.22,1.05,0,1.92-.26,2.59-.77s1.14-1.24,1.4-2.15l-1.59-.19c-.23.65-.55,1.12-.95,1.41-.39.29-.87.44-1.44.44-.76,0-1.38-.26-1.89-.79s-.79-1.3-.84-2.29h6.75v-.41c0-1.5-.38-2.65-1.15-3.48-.77-.83-1.76-1.24-2.97-1.24M168.85,101.23c-.36,0-.68.1-.99.31s-.63.63-.98,1.27v-1.37h-1.38v9.05h1.53v-4.74c0-.65.09-1.25.26-1.79.12-.36.31-.64.57-.84s.57-.31.9-.31c.38,0,.76.12,1.12.33l.52-1.43c-.54-.33-1.06-.49-1.57-.49M183.74,109.42c-.77,0-1.4-.29-1.91-.86-.51-.58-.76-1.44-.76-2.61s.25-2.02.76-2.61c.51-.57,1.15-.86,1.91-.86s1.38.29,1.89.86c.51.58.76,1.43.76,2.55,0,1.19-.25,2.07-.76,2.65-.51.58-1.14.87-1.91.87M183.74,101.23c-1.12,0-2.07.33-2.85,1-.93.8-1.4,2.05-1.4,3.73,0,1.53.39,2.71,1.18,3.51.79.82,1.8,1.22,3.07,1.22.79,0,1.51-.19,2.18-.55s1.18-.89,1.53-1.56.52-1.59.52-2.75c0-1.44-.39-2.56-1.18-3.38s-1.8-1.22-3.06-1.22M194.05,101.23c-1.25,0-2.21.49-2.88,1.5v-1.28h-1.38v9.05h1.53v-4.95c0-1.16.23-1.95.71-2.36.48-.42,1.03-.63,1.69-.63.41,0,.77.09,1.08.28.31.19.51.44.64.74s.17.77.17,1.4v5.52h1.53v-5.57c0-.71-.03-1.21-.09-1.5-.09-.44-.25-.82-.48-1.14-.23-.32-.57-.58-1.03-.77-.45-.19-.96-.29-1.5-.29M202.47,101.23c-.47,0-.92.06-1.32.19-.41.12-.74.28-.98.45-.32.23-.57.51-.76.86s-.28.71-.28,1.12c0,.44.12.84.33,1.21.22.36.55.65.99.86s1.22.45,2.34.74c.83.2,1.35.38,1.57.52.31.2.45.47.45.82,0,.39-.17.73-.51,1-.33.29-.86.44-1.57.44s-1.24-.16-1.63-.48-.63-.79-.71-1.4l-1.51.23c.17.96.57,1.69,1.18,2.17.61.49,1.51.73,2.69.73.71,0,1.35-.12,1.91-.36.57-.25.99-.6,1.3-1.05s.45-.93.45-1.44-.12-.96-.36-1.31-.58-.63-1-.8c-.42-.19-1.19-.42-2.27-.71-.76-.2-1.21-.33-1.35-.39-.26-.1-.47-.25-.58-.41-.13-.16-.19-.33-.19-.54,0-.31.15-.58.45-.82.31-.23.8-.35,1.51-.35.6,0,1.06.13,1.38.39.32.26.52.63.6,1.09l1.5-.2c-.1-.58-.28-1.05-.52-1.4-.26-.35-.65-.63-1.19-.83s-1.16-.31-1.88-.31M173.15,98.26l-1.53.92v2.24h-1.12v1.19h1.12v5.21c0,.92.06,1.53.19,1.82s.33.52.65.7c.31.17.74.26,1.3.26.33,0,.73-.04,1.16-.13l-.22-1.35c-.28.04-.51.06-.67.06-.23,0-.41-.04-.52-.12l-.26-.31c-.06-.13-.09-.41-.09-.84v-5.3h1.54v-1.19h-1.54v-3.16M134.65,97.98h-1.66v12.5h1.66v-12.5M177.73,97.98h-1.53v1.76h1.53v-1.76"/>
      <polyline points="110.98 94.94 93.52 94.94 93.52 112.41 110.98 112.41 110.98 94.94" style="fill: #00cc96;"/>
      <path d="M197.16,137.61c.61.49,1.51.73,2.69.73.71,0,1.35-.12,1.91-.36.57-.25.99-.6,1.3-1.05s.45-.93.45-1.44-.12-.96-.36-1.31c-.25-.35-.58-.63-1-.8-.42-.19-1.19-.42-2.27-.71-.76-.2-1.21-.33-1.35-.39-.26-.1-.47-.25-.58-.41-.13-.16-.19-.33-.19-.54,0-.31.15-.58.45-.82s.8-.35,1.51-.35c.6,0,1.06.13,1.38.39.32.26.52.63.6,1.09l1.5-.2c-.1-.58-.28-1.05-.52-1.4-.26-.35-.65-.63-1.19-.83-.54-.2-1.16-.31-1.88-.31-.47,0-.92.06-1.32.19-.41.12-.74.28-.98.45-.32.23-.57.51-.76.86-.19.35-.28.71-.28,1.12,0,.44.12.84.33,1.21.22.36.55.65.99.86s1.21.45,2.34.74c.83.2,1.35.38,1.57.52.31.2.45.47.45.82,0,.39-.17.73-.51,1-.33.29-.86.44-1.57.44s-1.24-.16-1.63-.48-.63-.79-.71-1.4l-1.51.23c.17.96.57,1.69,1.18,2.17M188.41,138.14v-4.95c0-1.16.23-1.95.71-2.36.48-.42,1.03-.63,1.69-.63.41,0,.77.09,1.08.28s.51.44.64.74.17.77.17,1.4v5.52h1.53v-5.57c0-.71-.03-1.21-.09-1.5-.09-.44-.25-.82-.48-1.14-.23-.32-.57-.58-1.03-.77-.45-.19-.96-.29-1.5-.29-1.25,0-2.21.49-2.88,1.5v-1.28h-1.38v9.05h1.53M178.92,131.01c.51-.57,1.15-.86,1.91-.86s1.38.29,1.89.86c.51.58.76,1.43.76,2.55,0,1.19-.25,2.07-.76,2.65-.51.58-1.14.87-1.91.87s-1.4-.29-1.91-.86c-.51-.58-.76-1.44-.76-2.61s.25-2.02.76-2.61M177.76,137.12c.79.82,1.8,1.22,3.07,1.22.79,0,1.51-.19,2.18-.55s1.18-.89,1.53-1.56.52-1.59.52-2.75c0-1.44-.39-2.56-1.18-3.38-.79-.82-1.8-1.22-3.06-1.22-1.12,0-2.07.33-2.85,1-.93.8-1.4,2.05-1.4,3.73,0,1.53.39,2.71,1.18,3.51M174.83,138.14v-9.05h-1.53v9.05h1.53M174.83,127.4v-1.76h-1.53v1.76h1.53M171.11,136.83c-.23,0-.41-.04-.52-.12l-.26-.31c-.06-.13-.09-.41-.09-.84v-5.3h1.54v-1.19h-1.54v-3.16l-1.53.92v2.24h-1.12v1.19h1.12v5.21c0,.92.06,1.53.19,1.82s.33.52.65.7c.31.17.74.26,1.3.26.33,0,.73-.04,1.16-.13l-.22-1.35c-.28.04-.51.06-.67.06M160.67,130.85c.48-.47,1.08-.71,1.78-.71.79,0,1.41.29,1.91.89.32.38.51.95.58,1.72h-5.05c.06-.79.32-1.43.8-1.89M163.98,136.64c-.39.29-.87.44-1.44.44-.76,0-1.38-.26-1.89-.79s-.79-1.3-.84-2.29h6.75v-.41c0-1.5-.38-2.65-1.15-3.48-.77-.83-1.76-1.24-2.97-1.24s-2.27.42-3.06,1.27-1.18,2.02-1.18,3.55.39,2.62,1.16,3.43c.77.82,1.82,1.22,3.16,1.22,1.05,0,1.92-.26,2.59-.77s1.14-1.24,1.4-2.15l-1.59-.19c-.23.65-.55,1.12-.95,1.41M156.34,138.14v-12.5h-1.53v12.5h1.53M147.08,130.85c.48-.47,1.08-.71,1.78-.71.79,0,1.41.29,1.91.89.32.38.51.95.58,1.72h-5.05c.06-.79.32-1.43.8-1.89M150.38,136.64c-.39.29-.87.44-1.44.44-.76,0-1.38-.26-1.89-.79s-.79-1.3-.84-2.29h6.75v-.41c0-1.5-.38-2.65-1.15-3.48-.77-.83-1.76-1.24-2.97-1.24s-2.27.42-3.06,1.27-1.18,2.02-1.18,3.55.39,2.62,1.16,3.43c.77.82,1.82,1.22,3.14,1.22,1.05,0,1.92-.26,2.59-.77s1.14-1.24,1.4-2.15l-1.59-.19c-.23.65-.55,1.12-.95,1.41M134.36,127.11h2.62c.99,0,1.7.09,2.14.26.61.23,1.14.71,1.57,1.41s.64,1.7.64,3.01c0,.95-.12,1.75-.33,2.42-.22.67-.52,1.19-.92,1.59-.28.28-.65.49-1.12.65s-1.12.23-1.94.23h-2.66v-9.55M137.23,138.14c.76,0,1.43-.07,2.01-.22.58-.15,1.08-.35,1.5-.63.41-.28.79-.65,1.14-1.14.35-.48.63-1.09.86-1.82.22-.73.33-1.57.33-2.52,0-1.12-.16-2.11-.49-2.97-.32-.87-.82-1.57-1.48-2.14-.51-.44-1.12-.73-1.83-.9-.51-.12-1.25-.17-2.23-.17h-4.31v12.5h4.51"/>
      <polyline points="110.98 140.06 93.52 140.06 93.52 122.59 110.98 122.59 110.98 140.06" style="fill: #ef553b;"/>
      <path d="M180.85,130.15c-.77,0-1.4.29-1.91.86s-.76,1.44-.76,2.61.25,2.02.76,2.61c.51.58,1.15.86,1.91.86s1.4-.29,1.91-.87c.51-.58.76-1.47.76-2.65s-.25-1.96-.76-2.55c-.51-.58-1.14-.86-1.89-.86M148.86,130.13c-.7,0-1.3.23-1.78.71-.48.47-.74,1.11-.8,1.89h5.05c-.07-.76-.26-1.34-.58-1.72-.49-.6-1.12-.89-1.91-.89M162.45,130.13c-.7,0-1.3.23-1.78.71-.48.47-.74,1.11-.8,1.89h5.05c-.07-.76-.26-1.34-.58-1.72-.49-.6-1.12-.89-1.91-.89M136.99,127.11h-2.62v9.55h2.66c.83,0,1.47-.07,1.94-.23s.84-.36,1.12-.65c.39-.39.7-.92.92-1.59.22-.65.33-1.47.33-2.42,0-1.31-.22-2.31-.64-3.01s-.95-1.18-1.57-1.41c-.44-.17-1.16-.26-2.14-.26M173.29,138.14v-9.05h1.53v9.05h-1.53M148.93,138.34c-1.32,0-2.37-.41-3.14-1.22-.77-.82-1.16-1.96-1.16-3.43s.39-2.71,1.18-3.55,1.8-1.27,3.06-1.27,2.2.41,2.97,1.24c.77.83,1.15,1.98,1.15,3.48v.41h-6.75c.06.99.33,1.76.84,2.29.51.52,1.14.79,1.89.79.57,0,1.05-.15,1.44-.44s.71-.77.95-1.41l1.59.19c-.25.93-.71,1.64-1.4,2.15-.67.51-1.54.77-2.59.77M162.52,138.34c-1.32,0-2.37-.41-3.16-1.22-.77-.82-1.16-1.96-1.16-3.43s.39-2.71,1.18-3.55,1.8-1.27,3.06-1.27,2.2.41,2.97,1.24c.77.83,1.15,1.98,1.15,3.48v.41h-6.75c.06.99.33,1.76.84,2.29.51.52,1.14.79,1.89.79.57,0,1.05-.15,1.44-.44s.71-.77.95-1.41l1.59.19c-.25.93-.71,1.64-1.4,2.15-.67.51-1.54.77-2.59.77M180.85,138.34c-1.27,0-2.3-.41-3.07-1.22-.79-.82-1.18-1.98-1.18-3.51,0-1.67.47-2.93,1.4-3.73.79-.67,1.73-1,2.85-1,1.25,0,2.26.41,3.06,1.22.79.82,1.18,1.94,1.18,3.38,0,1.16-.17,2.08-.52,2.75s-.86,1.19-1.53,1.56c-.67.36-1.4.55-2.18.55M188.25,130.37c.67-.99,1.63-1.5,2.88-1.5.55,0,1.05.1,1.5.29.45.19.8.45,1.03.77.23.32.39.7.48,1.14.06.29.09.79.09,1.5v5.57h-1.53v-5.52c0-.63-.06-1.09-.17-1.4s-.33-.55-.64-.74-.65-.28-1.08-.28c-.65,0-1.22.2-1.69.63-.48.42-.71,1.21-.71,2.36v4.95h-1.53v-9.05h1.38v1.28M199.84,137.08c.7,0,1.22-.15,1.57-.44.33-.29.51-.63.51-1,0-.35-.15-.63-.45-.82-.2-.13-.73-.31-1.57-.52-1.12-.29-1.91-.52-2.34-.74-.44-.2-.77-.49-.99-.86-.22-.36-.33-.77-.33-1.21,0-.41.09-.77.28-1.12s.44-.63.76-.86c.23-.17.57-.32.98-.45.41-.12.86-.19,1.32-.19.71,0,1.34.1,1.88.31s.93.48,1.19.83.44.82.52,1.4l-1.5.2c-.07-.47-.26-.83-.6-1.09-.32-.26-.79-.39-1.38-.39-.7,0-1.21.12-1.51.35-.31.23-.45.51-.45.82,0,.2.06.38.19.54s.32.31.58.41c.16.06.61.19,1.35.39,1.09.29,1.85.52,2.27.71s.77.45,1,.8c.25.35.36.79.36,1.31s-.15.99-.45,1.44c-.31.45-.73.8-1.3,1.05s-1.19.36-1.91.36c-1.18,0-2.07-.25-2.69-.73-.61-.49-1-1.21-1.18-2.17l1.51-.23c.09.61.32,1.08.71,1.4s.93.48,1.63.48M167.59,130.28v-1.19h1.12v-2.24l1.53-.92v3.16h1.54v1.19h-1.54v5.3c0,.44.03.71.09.84l.26.31c.12.07.29.12.52.12.17,0,.39-.01.67-.06l.22,1.35c-.44.09-.82.13-1.16.13-.55,0-.99-.09-1.3-.26s-.52-.41-.65-.7-.19-.89-.19-1.82v-5.21h-1.12M132.71,138.14v-12.5h4.31c.98,0,1.72.06,2.23.17.71.16,1.32.47,1.83.9.65.55,1.15,1.27,1.48,2.14.32.87.49,1.86.49,2.97,0,.95-.12,1.79-.33,2.52-.22.73-.51,1.34-.86,1.82-.35.48-.73.86-1.14,1.14s-.92.48-1.5.63c-.58.15-1.25.22-2.01.22h-4.51M154.81,138.14v-12.5h1.53v12.5h-1.53M173.29,127.4v-1.76h1.53v1.76h-1.53M93.52,140.06v-17.47h17.47v17.47h-17.47M226.5,117.5H73.13v27.65h153.37v-27.65" style="fill: #fff;"/>
      <path d="M174.83,129.09h-1.53v9.05h1.53v-9.05M146.28,132.74c.06-.79.32-1.43.8-1.89s1.08-.71,1.78-.71c.79,0,1.41.29,1.91.89.32.38.51.95.58,1.72h-5.05M148.84,128.88c-1.25,0-2.27.42-3.06,1.27s-1.18,2.02-1.18,3.55.39,2.62,1.16,3.43c.77.82,1.82,1.22,3.14,1.22,1.05,0,1.92-.26,2.59-.77s1.14-1.24,1.4-2.15l-1.59-.19c-.23.65-.55,1.12-.95,1.41s-.87.44-1.44.44c-.76,0-1.38-.26-1.89-.79s-.79-1.3-.84-2.29h6.75v-.41c0-1.5-.38-2.65-1.15-3.48-.77-.83-1.76-1.24-2.97-1.24M159.87,132.74c.06-.79.32-1.43.8-1.89s1.08-.71,1.78-.71c.79,0,1.41.29,1.91.89.32.38.51.95.58,1.72h-5.05M162.43,128.88c-1.25,0-2.27.42-3.06,1.27s-1.18,2.02-1.18,3.55.39,2.62,1.16,3.43c.77.82,1.82,1.22,3.16,1.22,1.05,0,1.92-.26,2.59-.77s1.14-1.24,1.4-2.15l-1.59-.19c-.23.65-.55,1.12-.95,1.41s-.87.44-1.44.44c-.76,0-1.38-.26-1.89-.79s-.79-1.3-.84-2.29h6.75v-.41c0-1.5-.38-2.65-1.15-3.48-.77-.83-1.76-1.24-2.97-1.24M180.85,137.08c-.77,0-1.4-.29-1.91-.86-.51-.58-.76-1.44-.76-2.61s.25-2.02.76-2.61c.51-.57,1.15-.86,1.91-.86s1.38.29,1.89.86c.51.58.76,1.43.76,2.55,0,1.19-.25,2.07-.76,2.65-.51.58-1.14.87-1.91.87M180.85,128.88c-1.12,0-2.07.33-2.85,1-.93.8-1.4,2.05-1.4,3.73,0,1.53.39,2.71,1.18,3.51.79.82,1.8,1.22,3.07,1.22.79,0,1.51-.19,2.18-.55s1.18-.89,1.53-1.56.52-1.59.52-2.75c0-1.44-.39-2.56-1.18-3.38-.79-.82-1.8-1.22-3.06-1.22M191.14,128.88c-1.25,0-2.21.49-2.88,1.5v-1.28h-1.38v9.05h1.53v-4.95c0-1.16.23-1.95.71-2.36.48-.42,1.03-.63,1.69-.63.41,0,.77.09,1.08.28s.51.44.64.74.17.77.17,1.4v5.52h1.53v-5.57c0-.71-.03-1.21-.09-1.5-.09-.44-.25-.82-.48-1.14-.23-.32-.57-.58-1.03-.77-.45-.19-.96-.29-1.5-.29M199.56,128.88c-.47,0-.92.06-1.32.19-.41.12-.74.28-.98.45-.32.23-.57.51-.76.86-.19.35-.28.71-.28,1.12,0,.44.12.84.33,1.21.22.36.55.65.99.86s1.21.45,2.34.74c.83.2,1.35.38,1.57.52.31.2.45.47.45.82,0,.39-.17.73-.51,1-.33.29-.86.44-1.57.44s-1.24-.16-1.63-.48-.63-.79-.71-1.4l-1.51.23c.17.96.57,1.69,1.18,2.17.61.49,1.51.73,2.69.73.71,0,1.35-.12,1.91-.36.57-.25.99-.6,1.3-1.05s.45-.93.45-1.44-.12-.96-.36-1.31c-.25-.35-.58-.63-1-.8-.42-.19-1.19-.42-2.27-.71-.76-.2-1.21-.33-1.35-.39-.26-.1-.47-.25-.58-.41-.13-.16-.19-.33-.19-.54,0-.31.15-.58.45-.82s.8-.35,1.51-.35c.6,0,1.06.13,1.38.39.32.26.52.63.6,1.09l1.5-.2c-.1-.58-.28-1.05-.52-1.4-.26-.35-.65-.63-1.19-.83-.54-.2-1.16-.31-1.88-.31M170.24,125.91l-1.53.92v2.24h-1.12v1.19h1.12v5.21c0,.92.06,1.53.19,1.82s.33.52.65.7c.31.17.74.26,1.3.26.33,0,.73-.04,1.16-.13l-.22-1.35c-.28.04-.51.06-.67.06-.23,0-.41-.04-.52-.12l-.26-.31c-.06-.13-.09-.41-.09-.84v-5.3h1.54v-1.19h-1.54v-3.16M134.36,136.67v-9.55h2.62c.99,0,1.7.09,2.14.26.61.23,1.14.71,1.57,1.41s.64,1.7.64,3.01c0,.95-.12,1.75-.33,2.42-.22.67-.52,1.19-.92,1.59-.28.28-.65.49-1.12.65s-1.12.23-1.94.23h-2.66M137.01,125.64h-4.31v12.5h4.51c.76,0,1.43-.07,2.01-.22.58-.15,1.08-.35,1.5-.63.41-.28.79-.65,1.14-1.14.35-.48.63-1.09.86-1.82.22-.73.33-1.57.33-2.52,0-1.12-.16-2.11-.49-2.97-.32-.87-.82-1.57-1.48-2.14-.51-.44-1.12-.73-1.83-.9-.51-.12-1.25-.17-2.23-.17M156.34,125.64h-1.53v12.5h1.53v-12.5M174.83,125.64h-1.53v1.76h1.53v-1.76"/>
      <polyline points="110.98 122.59 93.52 122.59 93.52 140.06 110.98 140.06 110.98 122.59" style="fill: #ef553b;"/>
    </g>
  </g>
  <path d="M287.23,403.11v-4.95c0-.71.09-1.27.26-1.67s.46-.72.86-.96.82-.35,1.29-.35c.61,0,1.07.17,1.41.52.34.35.5.91.5,1.67v5.74h1.54v-5.74c0-.89-.11-1.56-.32-2.03s-.56-.84-1.06-1.1-1.07-.4-1.75-.4c-1.1,0-2,.41-2.71,1.25v-4.49h-1.54v12.5h1.54-.01ZM283.53,401.8c-.22,0-.4-.04-.52-.11s-.21-.17-.26-.3-.07-.41-.07-.85v-5.3h1.55v-1.2h-1.55v-3.17l-1.52.92v2.25h-1.12v1.2h1.12v5.22c0,.92.06,1.52.19,1.81s.34.52.65.7.74.26,1.3.26c.34,0,.72-.05,1.16-.14l-.22-1.36c-.27.04-.5.06-.67.06h-.01ZM272.67,403.11v-4.94c0-1.16.24-1.95.71-2.36s1.04-.62,1.7-.62c.41,0,.76.09,1.07.27.3.19.51.44.64.74.12.31.17.77.17,1.4v5.52h1.54v-5.57c0-.71-.02-1.21-.09-1.5-.09-.44-.25-.81-.47-1.14s-.57-.57-1.02-.77c-.46-.2-.96-.3-1.51-.3-1.26,0-2.22.5-2.88,1.5v-1.29h-1.39v9.06h1.54,0ZM263.17,395.98c.51-.57,1.15-.86,1.91-.86s1.39.29,1.9.86.76,1.42.76,2.55c0,1.19-.25,2.07-.76,2.66s-1.14.87-1.9.87-1.41-.29-1.91-.86c-.51-.57-.76-1.45-.76-2.61s.25-2.02.76-2.6h0ZM262.01,402.1c.79.81,1.81,1.22,3.07,1.22.79,0,1.52-.19,2.18-.55s1.17-.89,1.52-1.56.52-1.58.52-2.76c0-1.44-.4-2.57-1.19-3.38s-1.81-1.22-3.06-1.22c-1.12,0-2.07.34-2.85,1.01-.94.81-1.4,2.05-1.4,3.73,0,1.54.39,2.71,1.17,3.52h.01ZM248.6,403.11v-10.65l3.62,10.65h1.5l3.63-10.47v10.47h1.6v-12.5h-2.22l-3,8.7c-.3.89-.52,1.55-.66,2.01-.12-.41-.32-1.02-.6-1.85l-2.96-8.86h-2.5v12.5h1.6-.01Z"/>
  <path d="M4.94,86.71c-.45-.46-.67-1.02-.67-1.69,0-.73.28-1.33.84-1.8.37-.31.9-.48,1.62-.54v4.78c-.74-.05-1.35-.3-1.8-.76h.01ZM10.43,83.59c.28.38.43.83.43,1.37,0,.72-.25,1.31-.76,1.8s-1.22.74-2.16.8v-6.39h-.39c-1.42,0-2.52.37-3.3,1.09s-1.17,1.67-1.17,2.81.4,2.15,1.19,2.89,1.91,1.11,3.35,1.11,2.48-.37,3.25-1.1,1.16-1.72,1.16-2.99c0-.99-.25-1.82-.73-2.46s-1.17-1.07-2.04-1.31l-.19,1.5c.61.22,1.06.52,1.33.9l.02-.02ZM10.32,91.95c.35.38.52.86.52,1.43,0,.71-.26,1.29-.78,1.72s-1.36.66-2.52.66-1.96-.22-2.49-.69c-.52-.46-.79-1.05-.79-1.78,0-.48.14-.9.44-1.24s.72-.58,1.3-.71l-.21-1.42c-.86.17-1.54.54-2.01,1.13s-.71,1.36-.71,2.28c0,.73.18,1.42.52,2.04.34.63.86,1.1,1.56,1.41s1.5.46,2.43.46c1.43,0,2.53-.35,3.3-1.07.77-.71,1.15-1.65,1.15-2.83,0-.93-.28-1.72-.84-2.37-.56-.64-1.32-1.04-2.32-1.2l-.19,1.43c.73.11,1.26.34,1.62.73l.02.02ZM11.85,104.57h-4.68c-1.1,0-1.84-.22-2.23-.67s-.59-.98-.59-1.61c0-.39.08-.72.26-1.02.18-.28.41-.48.7-.6.3-.12.73-.17,1.32-.17h5.22v-1.45h-5.27c-.67,0-1.15.02-1.42.08-.41.08-.77.24-1.07.45s-.54.54-.73.97c-.19.44-.28.91-.28,1.43,0,1.19.47,2.1,1.42,2.73h-1.22v1.31h8.58v-1.45h0ZM4.94,113.37c-.45-.46-.67-1.02-.67-1.69,0-.73.28-1.33.84-1.8.37-.31.9-.48,1.62-.54v4.78c-.74-.05-1.35-.3-1.8-.76h.01ZM10.43,110.25c.28.38.43.83.43,1.37,0,.72-.25,1.31-.76,1.8s-1.22.74-2.16.8v-6.39h-.39c-1.42,0-2.52.37-3.3,1.09s-1.17,1.67-1.17,2.81.4,2.15,1.19,2.89,1.91,1.11,3.35,1.11,2.48-.37,3.25-1.1,1.16-1.72,1.16-2.99c0-.99-.25-1.82-.73-2.46s-1.17-1.07-2.04-1.31l-.19,1.5c.61.22,1.06.52,1.33.9l.02-.02ZM11.85,117.5H3.27v1.45h4.59c.73,0,1.29.08,1.68.24.39.15.69.43.91.82.22.38.33.79.33,1.23s-.11.8-.33,1.1-.52.48-.9.58c-.26.06-.78.09-1.54.09H3.26v1.45h5.32c.61,0,1.07-.02,1.36-.09.43-.08.78-.24,1.07-.45.3-.21.54-.54.73-.98s.3-.91.3-1.42c0-1.15-.48-2.06-1.45-2.72h1.26v-1.3h0ZM5.02,131.97c-.53-.44-.8-.97-.8-1.61s.28-1.19.86-1.65,1.43-.71,2.57-.71c1.07,0,1.87.22,2.4.67.52.45.79.98.79,1.59s-.27,1.2-.83,1.67-1.38.7-2.48.7-1.97-.22-2.5-.66h-.01ZM15.13,126.69H3.27v1.31h1.15c-.9.61-1.33,1.44-1.33,2.5,0,.67.18,1.3.53,1.87s.87,1,1.56,1.3,1.45.45,2.32.45c1.42,0,2.53-.37,3.34-1.1s1.22-1.61,1.22-2.63c0-.46-.11-.89-.32-1.3s-.47-.72-.79-.94h4.19v-1.45h0ZM4.94,140.96c-.45-.46-.67-1.02-.67-1.69,0-.73.28-1.33.84-1.8.37-.31.9-.48,1.62-.54v4.78c-.74-.05-1.35-.3-1.8-.76h.01ZM10.43,137.84c.28.38.43.83.43,1.37,0,.72-.25,1.31-.76,1.8s-1.22.74-2.16.8v-6.39h-.39c-1.42,0-2.52.37-3.3,1.09s-1.17,1.67-1.17,2.81.4,2.15,1.19,2.89,1.91,1.11,3.35,1.11,2.48-.37,3.25-1.1,1.16-1.72,1.16-2.99c0-.99-.25-1.82-.73-2.46s-1.17-1.07-2.04-1.31l-.19,1.5c.61.22,1.06.52,1.33.9l.02-.02ZM11.34,150.54c.46-.58.7-1.43.7-2.55,0-.67-.12-1.28-.35-1.81s-.57-.94-.99-1.23c-.43-.28-.89-.43-1.37-.43s-.91.12-1.24.34-.59.56-.77.96-.4,1.12-.67,2.15c-.19.71-.32,1.13-.37,1.29-.11.25-.24.44-.39.56s-.32.18-.51.18c-.3,0-.56-.14-.78-.43s-.33-.77-.33-1.43c0-.57.12-1,.37-1.31s.59-.5,1.04-.57l-.19-1.42c-.56.09-.99.26-1.32.5-.33.25-.59.61-.79,1.12s-.3,1.1-.3,1.77c0,.45.06.86.18,1.25.12.39.26.7.43.92.21.31.48.54.81.71.33.18.69.26,1.06.26.43,0,.8-.11,1.15-.32.34-.21.61-.52.81-.93.2-.41.43-1.15.7-2.22.2-.79.37-1.29.5-1.49.19-.28.45-.43.78-.43.37,0,.69.17.96.48s.41.82.41,1.49-.15,1.18-.46,1.55-.74.59-1.32.67l.22,1.44c.91-.17,1.59-.53,2.06-1.12v.04ZM11.85,159.74h-4.49c-.61,0-1.18-.08-1.7-.25-.34-.11-.6-.28-.79-.54-.19-.25-.28-.54-.28-.85,0-.35.11-.71.32-1.06l-1.35-.5c-.31.51-.47,1-.47,1.49,0,.34.09.65.3.93s.59.59,1.2.92h-1.3v1.31h8.58v-1.45h-.01ZM4.94,168.53c-.45-.46-.67-1.02-.67-1.69,0-.73.28-1.33.84-1.8.37-.31.9-.48,1.62-.54v4.78c-.74-.05-1.35-.3-1.8-.76h.01ZM10.43,165.4c.28.38.43.83.43,1.37,0,.72-.25,1.31-.76,1.8s-1.22.74-2.16.8v-6.39h-.39c-1.42,0-2.52.37-3.3,1.09s-1.17,1.67-1.17,2.81.4,2.15,1.19,2.89,1.91,1.11,3.35,1.11,2.48-.37,3.25-1.1,1.16-1.72,1.16-2.99c0-.99-.25-1.82-.73-2.46s-1.17-1.07-2.04-1.31l-.19,1.5c.61.22,1.06.52,1.33.9l.02-.02ZM5.08,177.54c-.58-.47-.87-1.03-.87-1.64s.27-1.16.81-1.61,1.36-.67,2.46-.67,2,.22,2.54.69c.54.46.81,1.02.81,1.65s-.26,1.18-.79,1.62-1.35.67-2.44.67-1.95-.24-2.53-.71h.01ZM15.13,178.12h-4.17c.31-.25.57-.57.78-.94s.31-.82.31-1.3c0-.66-.19-1.29-.56-1.89-.38-.6-.91-1.06-1.62-1.37-.71-.32-1.49-.47-2.37-.47-.81,0-1.57.14-2.26.43-.69.28-1.22.71-1.59,1.26s-.57,1.2-.57,1.94c0,.56.11,1.04.33,1.43.21.39.54.74.98,1.06h-1.11v1.32h11.86v-1.45h-.01ZM10.61,186.22c0,.21-.04.38-.11.5s-.17.2-.28.25-.39.07-.8.07h-5.02v-1.46h-1.13v1.46H.26l.87,1.44h2.13v1.06h1.13v-1.06h4.94c.87,0,1.44-.06,1.71-.18.27-.12.5-.32.66-.61s.25-.7.25-1.23c0-.32-.05-.69-.13-1.1l-1.29.21c.04.26.06.47.06.64h.01ZM11.85,196.51h-4.68c-1.1,0-1.84-.22-2.23-.67s-.59-.98-.59-1.61c0-.39.08-.72.26-1.02.18-.28.41-.48.7-.6.3-.12.73-.17,1.32-.17h5.22v-1.45h-5.27c-.67,0-1.15.02-1.42.08-.41.08-.77.24-1.07.45s-.54.54-.73.97c-.19.44-.28.91-.28,1.43,0,1.19.47,2.1,1.42,2.73h-1.22v1.31h8.58v-1.45h0ZM11.85,200.23H3.27v1.45h4.59c.73,0,1.29.08,1.68.24.39.15.69.43.91.82.22.38.33.79.33,1.23s-.11.8-.33,1.1-.52.48-.9.58c-.26.06-.78.09-1.54.09H3.26v1.45h5.32c.61,0,1.07-.02,1.36-.09.43-.08.78-.24,1.07-.45.3-.21.54-.54.73-.98s.3-.91.3-1.42c0-1.15-.48-2.06-1.45-2.72h1.26v-1.3h0ZM5.09,214.67c-.54-.48-.81-1.09-.81-1.81s.27-1.31.81-1.8,1.35-.72,2.41-.72c1.12,0,1.96.24,2.52.72s.83,1.07.83,1.8-.27,1.33-.81,1.81c-.54.48-1.37.72-2.47.72s-1.91-.24-2.46-.72h-.01ZM10.88,215.78c.77-.74,1.16-1.71,1.16-2.91,0-.74-.18-1.44-.52-2.07s-.84-1.11-1.48-1.44-1.5-.5-2.61-.5c-1.36,0-2.43.38-3.2,1.12-.77.74-1.16,1.71-1.16,2.89,0,1.06.32,1.96.96,2.69.77.89,1.94,1.32,3.53,1.32,1.45,0,2.56-.37,3.33-1.11h-.01ZM11.85,228.67h-4.45c-.78,0-1.38-.08-1.8-.24s-.73-.41-.94-.76-.32-.72-.32-1.13c0-.54.17-.92.48-1.16s.8-.35,1.45-.35h5.58v-1.45h-4.98c-.89,0-1.52-.2-1.93-.6s-.6-.9-.6-1.5c0-.33.08-.63.24-.87s.37-.41.61-.51c.26-.09.67-.14,1.25-.14h5.4v-1.44h-5.88c-.98,0-1.7.22-2.17.69-.47.46-.71,1.11-.71,1.96,0,1.09.5,1.97,1.5,2.65-.47.17-.84.45-1.11.86s-.39.93-.39,1.56c0,.57.13,1.07.38,1.52.26.45.59.8,1.02,1.07h-1.2v1.3h8.58v-1.45h.01ZM8.08,233.84c.64,0,1.12.08,1.45.24.43.2.76.52,1,.96s.37.93.37,1.49-.13.99-.39,1.29-.58.44-.97.44c-.25,0-.48-.07-.69-.2-.2-.13-.37-.33-.47-.58s-.2-.67-.3-1.26c-.15-1.05-.33-1.84-.54-2.37h.53ZM11.85,233.43v-1.52c-.33.18-.67.31-1.03.37s-1.22.09-2.56.09h-1.94c-.65,0-1.09.02-1.33.07-.4.08-.73.24-.99.45s-.48.56-.65,1-.26,1.05-.26,1.78.11,1.38.31,1.95c.2.56.5.99.86,1.29.38.3.86.51,1.48.64l.19-1.42c-.6-.15-1.03-.4-1.28-.72-.24-.33-.35-.83-.35-1.51,0-.73.17-1.29.5-1.65.25-.27.66-.41,1.25-.41h.38c.19.56.37,1.42.5,2.59.07.58.14,1,.21,1.29.11.39.27.73.47,1.05s.48.56.84.76c.34.19.73.28,1.15.28.72,0,1.3-.25,1.76-.76.46-.51.69-1.23.69-2.17,0-.57-.09-1.11-.28-1.61s-.51-1.02-.97-1.56c.4-.05.76-.14,1.06-.3v.02ZM11.85,251.66h-4.68c-1.1,0-1.84-.22-2.23-.67s-.59-.98-.59-1.61c0-.39.08-.72.26-1.02.18-.28.41-.48.7-.6.3-.12.73-.17,1.32-.17h5.22v-1.45h-5.27c-.67,0-1.15.02-1.42.08-.41.08-.77.24-1.07.45s-.54.54-.73.97c-.19.44-.28.91-.28,1.43,0,1.19.47,2.1,1.42,2.73h-1.22v1.31h8.58v-1.45h0ZM8.08,256.83c.64,0,1.12.08,1.45.24.43.2.76.52,1,.96s.37.93.37,1.49-.13.99-.39,1.29-.58.44-.97.44c-.25,0-.48-.07-.69-.2-.2-.13-.37-.33-.47-.58s-.2-.67-.3-1.26c-.15-1.05-.33-1.84-.54-2.37h.53ZM11.85,256.43v-1.52c-.33.18-.67.31-1.03.37s-1.22.09-2.56.09h-1.94c-.65,0-1.09.02-1.33.07-.4.08-.73.24-.99.45s-.48.56-.65,1-.26,1.05-.26,1.78.11,1.38.31,1.95c.2.56.5.99.86,1.29.38.3.86.51,1.48.64l.19-1.42c-.6-.15-1.03-.4-1.28-.72-.24-.33-.35-.83-.35-1.51,0-.73.17-1.29.5-1.65.25-.27.66-.41,1.25-.41h.38c.19.56.37,1.42.5,2.59.07.58.14,1,.21,1.29.11.39.27.73.47,1.05s.48.56.84.76c.34.19.73.28,1.15.28.72,0,1.3-.25,1.76-.76.46-.51.69-1.23.69-2.17,0-.57-.09-1.11-.28-1.61s-.51-1.02-.97-1.56c.4-.05.76-.14,1.06-.3v.02ZM11.85,264.52H3.27v1.45h8.58v-1.45ZM1.68,264.52H0v1.45h1.68v-1.45ZM5.07,273.56c-.53-.44-.79-.97-.79-1.62s.27-1.22.83-1.68,1.41-.67,2.59-.67c1.06,0,1.85.22,2.37.66.52.45.78.98.78,1.62s-.27,1.18-.81,1.64-1.37.7-2.46.7-1.97-.21-2.49-.65h-.01ZM11.85,268.26H.01v1.44h4.25c-.35.25-.64.58-.85.98-.22.4-.33.86-.33,1.38,0,.71.19,1.35.56,1.91s.91,1,1.61,1.29,1.48.43,2.33.43,1.65-.15,2.33-.47,1.2-.76,1.58-1.33.57-1.2.57-1.89c0-1.05-.43-1.85-1.28-2.4h1.09v-1.35h-.01ZM4.94,282.52c-.45-.46-.67-1.02-.67-1.69,0-.73.28-1.33.84-1.8.37-.31.9-.48,1.62-.54v4.78c-.74-.05-1.35-.3-1.8-.76h.01ZM10.43,279.4c.28.38.43.83.43,1.37,0,.72-.25,1.31-.76,1.8s-1.22.74-2.16.8v-6.39h-.39c-1.42,0-2.52.37-3.3,1.09s-1.17,1.67-1.17,2.81.4,2.15,1.19,2.89,1.91,1.11,3.35,1.11,2.48-.37,3.25-1.1,1.16-1.72,1.16-2.99c0-.99-.25-1.82-.73-2.46s-1.17-1.07-2.04-1.31l-.19,1.5c.61.22,1.06.52,1.33.9l.02-.02ZM11.85,296.5H1.77l10.08-3.43v-1.42l-9.91-3.44h9.91v-1.51H.01v2.1l8.23,2.83c.84.28,1.46.5,1.9.63-.39.12-.97.31-1.75.57L.01,295.64v2.36h11.84v-1.51h0Z"/>
</svg>