<?xml version="1.0" encoding="UTF-8"?>
<svg id="Layer_1" data-name="Layer 1" xmlns="http://www.w3.org/2000/svg" width="418.67" height="310.71" viewBox="0 0 418.67 310.71">
  <g id="edges">
    <path d="M213.39,108.49l-16.14,33.27" style="fill: none; stroke: #c8c8c8; stroke-width: 4px;"/>
    <path d="M362.46,109.21l4.82-3.73" style="fill: none; stroke: #c8c8c8; stroke-width: 4px;"/>
    <path d="M260.2,140.49l-57.43,8.76" style="fill: none; stroke: #010101; stroke-width: 4px;"/>
    <path d="M409.02-2.22l1.52,6.68" style="fill: none; stroke: #c8c8c8; stroke-width: 4px;"/>
    <path d="M420.06,43.67l-4.89-19.76" style="fill: none; stroke: #010101; stroke-width: 4px;"/>
    <path d="M392.61-11.02l13.91,17.41" style="fill: none; stroke: #c8c8c8; stroke-width: 4px;"/>
    <path d="M141.19,178.49l42.89-23" style="fill: none; stroke: #010101; stroke-width: 4px;"/>
    <path d="M174.67,177.35l12.57-18.34" style="fill: none; stroke: #c8c8c8; stroke-width: 4px;"/>
    <path d="M404.22-23.21l6.31,27.67" style="fill: none; stroke: #c8c8c8; stroke-width: 4px;"/>
    <path d="M189.32,187.09l2.59-26.38" style="fill: none; stroke: #010101; stroke-width: 4px;"/>
    <path d="M276.74,171.42l-74.14-18.27" style="fill: none; stroke: #010101; stroke-width: 4px;"/>
    <path d="M416.99-37.56l-3.41,41.8" style="fill: none; stroke: #010101; stroke-width: 4px;"/>
    <path d="M69.33,180.48l.89-4.72" style="fill: none; stroke: #c8c8c8; stroke-width: 4px;"/>
    <path d="M399.9,21.33l4.11-2.28" style="fill: none; stroke: #c8c8c8; stroke-width: 4px;"/>
    <path d="M144.47,160.46l38.61-7.74" style="fill: none; stroke: #c8c8c8; stroke-width: 4px;"/>
    <path d="M86.06,113.66l97.39,33.81" style="fill: none; stroke: #ff757b; stroke-width: 4px;"/>
    <path d="M66.61,110.57l-20.63.38" style="fill: none; stroke: #010101; stroke-width: 4px;"/>
    <path d="M71.45,101.82l-11-18.26" style="fill: none; stroke: #010101; stroke-width: 4px;"/>
    <path d="M68.04,105.22l-3.21-1.94" style="fill: none; stroke: #010101; stroke-width: 4px;"/>
    <path d="M68.04,115.54l-3.16,1.9" style="fill: none; stroke: #c8c8c8; stroke-width: 4px;"/>
    <path d="M76.38,100.38l-.1-4.38" style="fill: none; stroke: #c8c8c8; stroke-width: 4px;"/>
    <path d="M389.46,105.56l-5.11-2.22" style="fill: none; stroke: #010101; stroke-width: 4px;"/>
    <path d="M113.69,211.7l6.41-2.33" style="fill: none; stroke: #010101; stroke-width: 4px;"/>
    <path d="M246.11,252.5l-.9-5.14" style="fill: none; stroke: #c8c8c8; stroke-width: 4px;"/>
    <path d="M224.2,172.24l-23.06-15.82" style="fill: none; stroke: #c8c8c8; stroke-width: 4px;"/>
    <path d="M245.69,108l-45.03,36.46" style="fill: none; stroke: #c8c8c8; stroke-width: 4px;"/>
    <path d="M378.66,31.17l25.15-12.51" style="fill: none; stroke: #c8c8c8; stroke-width: 4px;"/>
    <path d="M178.61,143.4l5.39,2.78" style="fill: none; stroke: #c8c8c8; stroke-width: 4px;"/>
    <path d="M232.99,77.06l-35.32,64.91" style="fill: none; stroke: #010101; stroke-width: 4px;"/>
    <path d="M208.11,128.9l-9.5,13.65" style="fill: none; stroke: #c8c8c8; stroke-width: 4px;"/>
    <path d="M82,164.69l100.97-12.68" style="fill: none; stroke: #ff757b; stroke-width: 4px;"/>
    <path d="M64.36,172.29l-13.13,10.81" style="fill: none; stroke: #010101; stroke-width: 4px;"/>
    <path d="M62.08,165.95h-6.88" style="fill: none; stroke: #010101; stroke-width: 4px;"/>
    <path d="M65.79,158.16l-2.59-3.21" style="fill: none; stroke: #010101; stroke-width: 4px;"/>
    <path d="M384.93-30.94l22.59,36.64" style="fill: none; stroke: #c8c8c8; stroke-width: 4px;"/>
    <path d="M222.28,155.44l-19.51-3.11" style="fill: none; stroke: #c8c8c8; stroke-width: 4px;"/>
    <path d="M202.6,159.75l-2.37-2.19" style="fill: none; stroke: #c8c8c8; stroke-width: 4px;"/>
    <path d="M148.01,121.19l36.53,24.06" style="fill: none; stroke: #c8c8c8; stroke-width: 4px;"/>
    <path d="M392.82,40.79l13.94-18.58" style="fill: none; stroke: #c8c8c8; stroke-width: 4px;"/>
    <path d="M30.13,191.03l3.45-.4" style="fill: none; stroke: #010101; stroke-width: 4px;"/>
    <path d="M128.48,106.56l56.16,38.54" style="fill: none; stroke: #010101; stroke-width: 4px;"/>
    <path d="M115.99,91.85l-7.94-16.92" style="fill: none; stroke: #c8c8c8; stroke-width: 4px;"/>
    <path d="M240.89,168.08l-38.59-13.93" style="fill: none; stroke: #c8c8c8; stroke-width: 4px;"/>
    <path d="M364.51,127.43l7.12-18.73" style="fill: none; stroke: #010101; stroke-width: 4px;"/>
    <path d="M92.65,190.94l12.65-16.8" style="fill: none; stroke: #010101; stroke-width: 4px;"/>
    <path d="M201.13,244.47l-7.37-83.75" style="fill: none; stroke: #010101; stroke-width: 4px;"/>
    <path d="M198,263.59l-1.79,4.08" style="fill: none; stroke: #010101; stroke-width: 4px;"/>
    <path d="M199.13,96.26l-5.1,44.57" style="fill: none; stroke: #010101; stroke-width: 4px;"/>
    <path d="M207.31,146.03l-4.92,1.61" style="fill: none; stroke: #c8c8c8; stroke-width: 4px;"/>
    <path d="M239.66,186.7l-38.84-29.85" style="fill: none; stroke: #010101; stroke-width: 4px;"/>
    <path d="M256.61,221.21l-57.01-63.04" style="fill: none; stroke: #010101; stroke-width: 4px;"/>
    <path d="M149.38,137.06l33.97,10.7" style="fill: none; stroke: #c8c8c8; stroke-width: 4px;"/>
    <path d="M240.66-45.78L403.32,10.92" style="fill: none; stroke: #010101; stroke-width: 4px;"/>
    <path d="M232.3-39.13l6.21,57.28" style="fill: none; stroke: #010101; stroke-width: 4px;"/>
    <path d="M234.87-39.76l23.66,60.36" style="fill: none; stroke: #010101; stroke-width: 4px;"/>
    <path d="M238.63-42.35L284.45-.78" style="fill: none; stroke: #010101; stroke-width: 4px;"/>
    <path d="M227.2-39.91L208.28,3.21" style="fill: none; stroke: #010101; stroke-width: 4px;"/>
    <path d="M236.82-40.79L264.55.26" style="fill: none; stroke: #c8c8c8; stroke-width: 4px;"/>
    <path d="M229.59-39.21l-9.71,58.68" style="fill: none; stroke: #c8c8c8; stroke-width: 4px;"/>
    <path d="M225.3-41.01l-39.57,53.92" style="fill: none; stroke: #c8c8c8; stroke-width: 4px;"/>
    <path d="M112.36,135.48l70.71,13.41" style="fill: none; stroke: #ff757b; stroke-width: 4px;"/>
    <path d="M92.57,134.47l-5.36.46" style="fill: none; stroke: #010101; stroke-width: 4px;"/>
    <path d="M258.76,180.51l-56.76-25.63" style="fill: none; stroke: #010101; stroke-width: 4px;"/>
    <path d="M399.17-45.9l11.38,50.35" style="fill: none; stroke: #010101; stroke-width: 4px;"/>
    <path d="M262.04,157.98l-59.21-6.18" style="fill: none; stroke: #010101; stroke-width: 4px;"/>
    <path d="M222.29,194.36l-23.81-35.31" style="fill: none; stroke: #c8c8c8; stroke-width: 4px;"/>
    <path d="M221.99,210.72l-9.82,13.45" style="fill: none; stroke: #010101; stroke-width: 4px;"/>
    <path d="M182.21,105.92l8.36,35.11" style="fill: none; stroke: #c8c8c8; stroke-width: 4px;"/>
    <path d="M378.52-1.62l25.16,11.63" style="fill: none; stroke: #010101; stroke-width: 4px;"/>
    <path d="M156.94,187.94l29-29.99" style="fill: none; stroke: #010101; stroke-width: 4px;"/>
    <path d="M137.04,199.4l48.31-42.07" style="fill: none; stroke: #010101; stroke-width: 4px;"/>
    <path d="M399.1,7.39l4.71,2.35" style="fill: none; stroke: #c8c8c8; stroke-width: 4px;"/>
    <path d="M350.63,97.77l14.57.94" style="fill: none; stroke: #ff757b; stroke-width: 4px;"/>
    <path d="M362.01,20.04l40.81-4.69" style="fill: none; stroke: #010101; stroke-width: 4px;"/>
    <path d="M221.36-405.25L408.61,5.11" style="fill: none; stroke: #ff757b; stroke-width: 4px;"/>
    <path d="M408.93,29.85l1.45-5.93" style="fill: none; stroke: #c8c8c8; stroke-width: 4px;"/>
    <path d="M357.46,39.91l46.24-21.49" style="fill: none; stroke: #010101; stroke-width: 4px;"/>
    <path d="M339.27,48.23l-3.04,1.37" style="fill: none; stroke: #010101; stroke-width: 4px;"/>
    <path d="M405,75.06l6.5-50.93" style="fill: none; stroke: #010101; stroke-width: 4px;"/>
    <path d="M411.22,91.6l3.22,2.85" style="fill: none; stroke: #c8c8c8; stroke-width: 4px;"/>
    <path d="M405.54,52.27l5.36-28.23" style="fill: none; stroke: #010101; stroke-width: 4px;"/>
    <path d="M388.44,61.34l19.74-38.25" style="fill: none; stroke: #c8c8c8; stroke-width: 4px;"/>
    <path d="M421.12-16.35l-5.72,20.91" style="fill: none; stroke: #010101; stroke-width: 4px;"/>
    <path d="M633.99,398.94L417.75,22.88" style="fill: none; stroke: #ff757b; stroke-width: 4px;"/>
    <path d="M423.32,25.51l-3.73-3.99" style="fill: none; stroke: #c8c8c8; stroke-width: 4px;"/>
    <path d="M408.73,23.36l-29.51,66.85" style="fill: none; stroke: #ff757b; stroke-width: 4px;"/>
    <path d="M404.27,19.48l-202.88,126" style="fill: none; stroke: #ff757b; stroke-width: 4px;"/>
    <path d="M414.34,24.08l6.52,40.87" style="fill: none; stroke: #010101; stroke-width: 4px;"/>
    <path d="M418.84,6.26l19.95-26.1" style="fill: none; stroke: #c8c8c8; stroke-width: 4px;"/>
    <path d="M404.96,7.96l-34.93-27.96" style="fill: none; stroke: #c8c8c8; stroke-width: 4px;"/>
    <path d="M403.02,11.95l-45.03-10.43" style="fill: none; stroke: #c8c8c8; stroke-width: 4px;"/>
    <path d="M416.59,4.97l18.58-44.83" style="fill: none; stroke: #c8c8c8; stroke-width: 4px;"/>
    <path d="M402.77,14.03l-22.59-.41" style="fill: none; stroke: #c8c8c8; stroke-width: 4px;"/>
    <path d="M417.31,23.12l22.09,43.32" style="fill: none; stroke: #c8c8c8; stroke-width: 4px;"/>
    <path d="M405.45,21.02l-31.59,29.42" style="fill: none; stroke: #c8c8c8; stroke-width: 4px;"/>
    <path d="M418.96,22.06l18.25,23.1" style="fill: none; stroke: #c8c8c8; stroke-width: 4px;"/>
    <path d="M419.34,6.68l3.66-4.18" style="fill: none; stroke: #c8c8c8; stroke-width: 4px;"/>
    <path d="M380.62,107.75l11.88,18.34" style="fill: none; stroke: #ff757b; stroke-width: 4px;"/>
    <path d="M376.65,109.25l.51,3.41" style="fill: none; stroke: #010101; stroke-width: 4px;"/>
    <path d="M368.28,92.11l-3.22-3.38" style="fill: none; stroke: #c8c8c8; stroke-width: 4px;"/>
    <path d="M264.88,120.69l-62.77,26.22" style="fill: none; stroke: #010101; stroke-width: 4px;"/>
    <path d="M179.18,158.86l5.1-3.01" style="fill: none; stroke: #c8c8c8; stroke-width: 4px;"/>
    <path d="M164.85,113.64l22.01,29.14" style="fill: none; stroke: #c8c8c8; stroke-width: 4px;"/>
    <path d="M219.14,215.15l-22.48-55.13" style="fill: none; stroke: #c8c8c8; stroke-width: 4px;"/>
    <path d="M203.54,201.56l-8.6-41.01" style="fill: none; stroke: #010101; stroke-width: 4px;"/>
    <path d="M172.49,197.89l16.42-37.95" style="fill: none; stroke: #010101; stroke-width: 4px;"/>
    <path d="M162.38,151.24l20.51-.33" style="fill: none; stroke: #c8c8c8; stroke-width: 4px;"/>
    <path d="M256.82,199.27l-55.96-42.46" style="fill: none; stroke: #c8c8c8; stroke-width: 4px;"/>
    <path d="M132.49,218.82l53.76-60.58" style="fill: none; stroke: #ff757b; stroke-width: 4px;"/>
    <path d="M124.64,236.22l-.75,6.11" style="fill: none; stroke: #010101; stroke-width: 4px;"/>
    <path d="M121.15,164.3l61.91-11.69" style="fill: none; stroke: #ff757b; stroke-width: 4px;"/>
    <path d="M239.26,149.06l-36.37,1.33" style="fill: none; stroke: #010101; stroke-width: 4px;"/>
    <path d="M251.35,87.86l-51.65,55.58" style="fill: none; stroke: #010101; stroke-width: 4px;"/>
    <path d="M180.83,126.75l7.57,15.07" style="fill: none; stroke: #c8c8c8; stroke-width: 4px;"/>
    <path d="M147.95,101.2l38.22,42.15" style="fill: none; stroke: #ff757b; stroke-width: 4px;"/>
    <path d="M244.77,127.53l-42.75,19.14" style="fill: none; stroke: #c8c8c8; stroke-width: 4px;"/>
    <path d="M187.34,285.58l-2.3,4.14" style="fill: none; stroke: #c8c8c8; stroke-width: 4px;"/>
    <path d="M196.6,117.49l-2.6,23.32" style="fill: none; stroke: #c8c8c8; stroke-width: 4px;"/>
    <path d="M189.44,165.62l1.19-5.12" style="fill: none; stroke: #c8c8c8; stroke-width: 4px;"/>
    <path d="M215.43,86.63l-19.22,54.69" style="fill: none; stroke: #010101; stroke-width: 4px;"/>
    <path d="M165.48,133.87l18.89,11.64" style="fill: none; stroke: #c8c8c8; stroke-width: 4px;"/>
    <path d="M205.35,181.08l-8.66-21.08" style="fill: none; stroke: #010101; stroke-width: 4px;"/>
    <path d="M239.1,208.11l-39.93-49.56" style="fill: none; stroke: #c8c8c8; stroke-width: 4px;"/>
    <path d="M194.18,138.18l-.27,2.63" style="fill: none; stroke: #c8c8c8; stroke-width: 4px;"/>
    <path d="M227.48,118.77l-27.25,25.2" style="fill: none; stroke: #c8c8c8; stroke-width: 4px;"/>
    <path d="M289.91,98.3l-4.42-1.16" style="fill: none; stroke: #c8c8c8; stroke-width: 4px;"/>
    <path d="M280.65,23.06l-4.64-6.41" style="fill: none; stroke: #c8c8c8; stroke-width: 4px;"/>
    <path d="M226.19,137.19l-24.04,9.8" style="fill: none; stroke: #c8c8c8; stroke-width: 4px;"/>
    <path d="M129.13,128.86l54.3,18.65" style="fill: none; stroke: #010101; stroke-width: 4px;"/>
    <path d="M166.05,93.83l22.58,47.88" style="fill: none; stroke: #010101; stroke-width: 4px;"/>
    <path d="M230.5,98.81l-31.75,43.85" style="fill: none; stroke: #c8c8c8; stroke-width: 4px;"/>
    <path d="M159.88,167.06l24.04-11.87" style="fill: none; stroke: #c8c8c8; stroke-width: 4px;"/>
    <path d="M183.68,146.86l-72.69-30.79" style="fill: none; stroke: #ff757b; stroke-width: 4px;"/>
    <path d="M188.17,159.57l-37.45,70.01" style="fill: none; stroke: #ff757b; stroke-width: 4px;"/>
    <path d="M195.86,160.31l23.64,75.99" style="fill: none; stroke: #ff757b; stroke-width: 4px;"/>
    <path d="M185.83,143.67l-55.73-55.96" style="fill: none; stroke: #ff757b; stroke-width: 4px;"/>
    <path d="M195.56,141.12l21.33-76.86" style="fill: none; stroke: #010101; stroke-width: 4px;"/>
    <path d="M189.41,141.38l-27.85-74.97" style="fill: none; stroke: #010101; stroke-width: 4px;"/>
    <path d="M202.89,150.88l76.18.9" style="fill: none; stroke: #010101; stroke-width: 4px;"/>
    <path d="M191.96,160.71l-6.49,69.59" style="fill: none; stroke: #010101; stroke-width: 4px;"/>
    <path d="M201.17,145.15l66.37-44.95" style="fill: none; stroke: #010101; stroke-width: 4px;"/>
    <path d="M184.58,145.19l-73.41-49.21" style="fill: none; stroke: #010101; stroke-width: 4px;"/>
    <path d="M182.9,150.26l-53.2-2.65" style="fill: none; stroke: #010101; stroke-width: 4px;"/>
    <path d="M190.94,140.95l-12.3-61.87" style="fill: none; stroke: #010101; stroke-width: 4px;"/>
    <path d="M182.91,151.33l-73.84,4.24" style="fill: none; stroke: #010101; stroke-width: 4px;"/>
    <path d="M187.11,158.92l-34.57,48.82" style="fill: none; stroke: #010101; stroke-width: 4px;"/>
    <path d="M189.6,160.2l-20.29,58.36" style="fill: none; stroke: #010101; stroke-width: 4px;"/>
    <path d="M191.85,160.7l-5.07,48.54" style="fill: none; stroke: #010101; stroke-width: 4px;"/>
    <path d="M193.67,140.79l6.85-87.27" style="fill: none; stroke: #010101; stroke-width: 4px;"/>
    <path d="M193.61,140.78l4.78-65.78" style="fill: none; stroke: #c8c8c8; stroke-width: 4px;"/>
    <path d="M191.62,140.84l-10.59-83.12" style="fill: none; stroke: #c8c8c8; stroke-width: 4px;"/>
    <path d="M197.93,159.4l40.51,69.48" style="fill: none; stroke: #c8c8c8; stroke-width: 4px;"/>
    <path d="M183.26,153.46l-80.11,22.51" style="fill: none; stroke: #c8c8c8; stroke-width: 4px;"/>
    <path d="M183.89,155.11l-62.87,30.38" style="fill: none; stroke: #c8c8c8; stroke-width: 4px;"/>
    <path d="M201.81,155.27l74.2,37.51" style="fill: none; stroke: #c8c8c8; stroke-width: 4px;"/>
    <path d="M187.48,142.35l-43.78-68.06" style="fill: none; stroke: #c8c8c8; stroke-width: 4px;"/>
    <path d="M190.2,160.39l-22.53,80.72" style="fill: none; stroke: #c8c8c8; stroke-width: 4px;"/>
    <path d="M202.68,148.74l78.46-16.15" style="fill: none; stroke: #c8c8c8; stroke-width: 4px;"/>
    <path d="M338.84,2.63l-3.81,1.36" style="fill: none; stroke: #c8c8c8; stroke-width: 4px;"/>
    <path d="M264.27,39.68l.6,2.81" style="fill: none; stroke: #c8c8c8; stroke-width: 4px;"/>
    <path d="M401.48,143.82l1.37,3.62" style="fill: none; stroke: #c8c8c8; stroke-width: 4px;"/>
    <path d="M22.13,108.56l4.02.75" style="fill: none; stroke: #010101; stroke-width: 4px;"/>
  </g>
  <g id="nodes">
    <circle cx="247.39" cy="7.55" r="9.2" style="fill: #00faff; stroke: #00afb2; stroke-width: 1.6px;"/>
    <circle cx="217.76" cy="99.49" r="9.2" style="fill: #00faff; stroke: #00afb2; stroke-width: 1.6px;"/>
    <circle cx="354.55" cy="115.34" r="9.2" style="fill: #00faff; stroke: #00afb2; stroke-width: 1.6px;"/>
    <circle cx="270.09" cy="138.98" r="9.2" style="fill: #00faff; stroke: #00afb2; stroke-width: 1.6px;"/>
    <circle cx="422.46" cy="53.38" r="9.2" style="fill: #00faff; stroke: #00afb2; stroke-width: 1.6px;"/>
    <circle cx="132.37" cy="183.22" r="9.2" style="fill: #00faff; stroke: #00afb2; stroke-width: 1.6px;"/>
    <circle cx="169.02" cy="185.6" r="9.2" style="fill: #00faff; stroke: #00afb2; stroke-width: 1.6px;"/>
    <circle cx="188.34" cy="197.04" r="9.2" style="fill: #00faff; stroke: #00afb2; stroke-width: 1.6px;"/>
    <circle cx="286.45" cy="173.81" r="9.2" style="fill: #00faff; stroke: #00afb2; stroke-width: 1.6px;"/>
    <circle cx="67.47" cy="190.31" r="9.2" style="fill: #00faff; stroke: #00afb2; stroke-width: 1.6px;"/>
    <circle cx="391.15" cy="26.17" r="9.2" style="fill: #00faff; stroke: #00afb2; stroke-width: 1.6px;"/>
    <circle cx="134.67" cy="162.43" r="9.2" style="fill: #00faff; stroke: #00afb2; stroke-width: 1.6px;"/>
    <circle cx="76.61" cy="110.38" r="9.2" style="fill: #00faff; stroke: #00afb2; stroke-width: 1.6px;"/>
    <circle cx="398.63" cy="109.54" r="9.2" style="fill: #00faff; stroke: #00afb2; stroke-width: 1.6px;"/>
    <circle cx="104.29" cy="215.11" r="9.2" style="fill: #00faff; stroke: #00afb2; stroke-width: 1.6px;"/>
    <circle cx="247.84" cy="262.35" r="9.2" style="fill: #00faff; stroke: #00afb2; stroke-width: 1.6px;"/>
    <circle cx="232.44" cy="177.89" r="9.2" style="fill: #00faff; stroke: #00afb2; stroke-width: 1.6px;"/>
    <circle cx="253.46" cy="101.71" r="9.2" style="fill: #00faff; stroke: #00afb2; stroke-width: 1.6px;"/>
    <circle cx="369.71" cy="35.62" r="9.2" style="fill: #00faff; stroke: #00afb2; stroke-width: 1.6px;"/>
    <circle cx="169.72" cy="138.81" r="9.2" style="fill: #00faff; stroke: #00afb2; stroke-width: 1.6px;"/>
    <circle cx="237.77" cy="68.28" r="9.2" style="fill: #00faff; stroke: #00afb2; stroke-width: 1.6px;"/>
    <circle cx="213.82" cy="120.69" r="9.2" style="fill: #00faff; stroke: #00afb2; stroke-width: 1.6px;"/>
    <circle cx="72.08" cy="165.93" r="9.2" style="fill: #00faff; stroke: #00afb2; stroke-width: 1.6px;"/>
    <circle cx="232.15" cy="157.02" r="9.2" style="fill: #00faff; stroke: #00afb2; stroke-width: 1.6px;"/>
    <circle cx="209.94" cy="166.54" r="9.2" style="fill: #00faff; stroke: #00afb2; stroke-width: 1.6px;"/>
    <circle cx="139.66" cy="115.69" r="9.2" style="fill: #00faff; stroke: #00afb2; stroke-width: 1.6px;"/>
    <circle cx="386.82" cy="48.79" r="9.2" style="fill: #00faff; stroke: #00afb2; stroke-width: 1.6px;"/>
    <circle cx="20.2" cy="192.19" r="9.2" style="fill: #00faff; stroke: #00afb2; stroke-width: 1.6px;"/>
    <circle cx="120.24" cy="100.9" r="9.2" style="fill: #00faff; stroke: #00afb2; stroke-width: 1.6px;"/>
    <circle cx="250.29" cy="171.47" r="9.2" style="fill: #00faff; stroke: #00afb2; stroke-width: 1.6px;"/>
    <circle cx="360.96" cy="136.78" r="9.2" style="fill: #00faff; stroke: #00afb2; stroke-width: 1.6px;"/>
    <circle cx="86.64" cy="198.93" r="9.2" style="fill: #00faff; stroke: #00afb2; stroke-width: 1.6px;"/>
    <circle cx="202.01" cy="254.43" r="9.2" style="fill: #00faff; stroke: #00afb2; stroke-width: 1.6px;"/>
    <circle cx="200.26" cy="86.32" r="9.2" style="fill: #00faff; stroke: #00afb2; stroke-width: 1.6px;"/>
    <circle cx="56.32" cy="122.6" r="9.2" style="fill: #00faff; stroke: #00afb2; stroke-width: 1.6px;"/>
    <circle cx="216.81" cy="142.92" r="9.2" style="fill: #00faff; stroke: #00afb2; stroke-width: 1.6px;"/>
    <circle cx="55.28" cy="74.99" r="9.2" style="fill: #00faff; stroke: #00afb2; stroke-width: 1.6px;"/>
    <circle cx="247.58" cy="192.79" r="9.2" style="fill: #00faff; stroke: #00afb2; stroke-width: 1.6px;"/>
    <circle cx="263.32" cy="228.63" r="9.2" style="fill: #00faff; stroke: #00afb2; stroke-width: 1.6px;"/>
    <circle cx="139.85" cy="134.06" r="9.2" style="fill: #00faff; stroke: #00afb2; stroke-width: 1.6px;"/>
    <circle cx="102.53" cy="133.62" r="9.2" style="fill: #00faff; stroke: #00afb2; stroke-width: 1.6px;"/>
    <circle cx="267.88" cy="184.62" r="9.2" style="fill: #00faff; stroke: #00afb2; stroke-width: 1.6px;"/>
    <circle cx="271.99" cy="159.02" r="9.2" style="fill: #00faff; stroke: #00afb2; stroke-width: 1.6px;"/>
    <circle cx="227.88" cy="202.65" r="9.2" style="fill: #00faff; stroke: #00afb2; stroke-width: 1.6px;"/>
    <circle cx="43.51" cy="189.46" r="9.2" style="fill: #00faff; stroke: #00afb2; stroke-width: 1.6px;"/>
    <circle cx="239.59" cy="28.09" r="9.2" style="fill: #00faff; stroke: #00afb2; stroke-width: 1.6px;"/>
    <circle cx="179.9" cy="96.2" r="9.2" style="fill: #00faff; stroke: #00afb2; stroke-width: 1.6px;"/>
    <circle cx="369.45" cy="-5.82" r="9.2" style="fill: #00faff; stroke: #00afb2; stroke-width: 1.6px;"/>
    <circle cx="149.99" cy="195.13" r="9.2" style="fill: #00faff; stroke: #00afb2; stroke-width: 1.6px;"/>
    <circle cx="129.5" cy="205.96" r="9.2" style="fill: #00faff; stroke: #00afb2; stroke-width: 1.6px;"/>
    <circle cx="390.16" cy="2.93" r="9.2" style="fill: #00faff; stroke: #00afb2; stroke-width: 1.6px;"/>
    <circle cx="56.91" cy="147.17" r="9.2" style="fill: #00faff; stroke: #00afb2; stroke-width: 1.6px;"/>
    <circle cx="340.65" cy="97.12" r="9.2" style="fill: #00faff; stroke: #00afb2; stroke-width: 1.6px;"/>
    <circle cx="56.27" cy="98.12" r="9.2" style="fill: #00faff; stroke: #00afb2; stroke-width: 1.6px;"/>
    <circle cx="352.08" cy="21.18" r="9.2" style="fill: #00faff; stroke: #00afb2; stroke-width: 1.6px;"/>
    <circle cx="406.55" cy="39.56" r="9.2" style="fill: #00faff; stroke: #00afb2; stroke-width: 1.6px;"/>
    <circle cx="348.39" cy="44.12" r="9.2" style="fill: #00faff; stroke: #00afb2; stroke-width: 1.6px;"/>
    <circle cx="403.73" cy="84.98" r="9.2" style="fill: #00faff; stroke: #00afb2; stroke-width: 1.6px;"/>
    <circle cx="403.67" cy="62.09" r="9.2" style="fill: #00faff; stroke: #00afb2; stroke-width: 1.6px;"/>
    <circle cx="383.85" cy="70.23" r="9.2" style="fill: #00faff; stroke: #00afb2; stroke-width: 1.6px;"/>
    <circle cx="412.76" cy="14.21" r="9.2" style="fill: #00faff; stroke: #00afb2; stroke-width: 1.6px;"/>
    <circle cx="370.18" cy="13.44" r="9.2" style="fill: #00faff; stroke: #00afb2; stroke-width: 1.6px;"/>
    <circle cx="375.18" cy="99.35" r="9.2" style="fill: #00faff; stroke: #00afb2; stroke-width: 1.6px;"/>
    <circle cx="274.11" cy="116.83" r="9.2" style="fill: #00faff; stroke: #00afb2; stroke-width: 1.6px;"/>
    <circle cx="170.58" cy="163.95" r="9.2" style="fill: #00faff; stroke: #00afb2; stroke-width: 1.6px;"/>
    <circle cx="378.62" cy="122.55" r="9.2" style="fill: #00faff; stroke: #00afb2; stroke-width: 1.6px;"/>
    <circle cx="76.04" cy="86.01" r="9.2" style="fill: #00faff; stroke: #00afb2; stroke-width: 1.6px;"/>
    <circle cx="327.12" cy="53.71" r="9.2" style="fill: #00faff; stroke: #00afb2; stroke-width: 1.6px;"/>
    <circle cx="158.82" cy="105.66" r="9.2" style="fill: #00faff; stroke: #00afb2; stroke-width: 1.6px;"/>
    <circle cx="222.92" cy="224.41" r="9.2" style="fill: #00faff; stroke: #00afb2; stroke-width: 1.6px;"/>
    <circle cx="205.6" cy="211.35" r="9.2" style="fill: #00faff; stroke: #00afb2; stroke-width: 1.6px;"/>
    <circle cx="77.25" cy="135.79" r="9.2" style="fill: #00faff; stroke: #00afb2; stroke-width: 1.6px;"/>
    <circle cx="168.52" cy="207.06" r="9.2" style="fill: #00faff; stroke: #00afb2; stroke-width: 1.6px;"/>
    <circle cx="45.2" cy="165.98" r="9.2" style="fill: #00faff; stroke: #00afb2; stroke-width: 1.6px;"/>
    <circle cx="152.38" cy="151.4" r="9.2" style="fill: #00faff; stroke: #00afb2; stroke-width: 1.6px;"/>
    <circle cx="210.92" cy="-7.88" r="9.2" style="fill: #00faff; stroke: #00afb2; stroke-width: 1.6px;"/>
    <circle cx="291.85" cy="5.93" r="9.2" style="fill: #00faff; stroke: #00afb2; stroke-width: 1.6px;"/>
    <circle cx="264.78" cy="205.31" r="9.2" style="fill: #00faff; stroke: #00afb2; stroke-width: 1.6px;"/>
    <circle cx="125.85" cy="226.3" r="9.2" style="fill: #00faff; stroke: #00afb2; stroke-width: 1.6px;"/>
    <circle cx="111.33" cy="166.16" r="9.2" style="fill: #00faff; stroke: #00afb2; stroke-width: 1.6px;"/>
    <circle cx="249.25" cy="148.69" r="9.2" style="fill: #00faff; stroke: #00afb2; stroke-width: 1.6px;"/>
    <circle cx="258.15" cy="80.53" r="9.2" style="fill: #00faff; stroke: #00afb2; stroke-width: 1.6px;"/>
    <circle cx="176.35" cy="117.81" r="9.2" style="fill: #00faff; stroke: #00afb2; stroke-width: 1.6px;"/>
    <circle cx="141.23" cy="93.79" r="9.2" style="fill: #00faff; stroke: #00afb2; stroke-width: 1.6px;"/>
    <circle cx="253.89" cy="123.45" r="9.2" style="fill: #00faff; stroke: #00afb2; stroke-width: 1.6px;"/>
    <circle cx="192.19" cy="276.83" r="9.2" style="fill: #00faff; stroke: #00afb2; stroke-width: 1.6px;"/>
    <circle cx="358.16" cy="81.5" r="9.2" style="fill: #00faff; stroke: #00afb2; stroke-width: 1.6px;"/>
    <circle cx="197.71" cy="107.56" r="9.2" style="fill: #00faff; stroke: #00afb2; stroke-width: 1.6px;"/>
    <circle cx="187.18" cy="175.36" r="9.2" style="fill: #00faff; stroke: #00afb2; stroke-width: 1.6px;"/>
    <circle cx="218.75" cy="77.2" r="9.2" style="fill: #00faff; stroke: #00afb2; stroke-width: 1.6px;"/>
    <circle cx="156.97" cy="128.63" r="9.2" style="fill: #00faff; stroke: #00afb2; stroke-width: 1.6px;"/>
    <circle cx="209.16" cy="190.33" r="9.2" style="fill: #00faff; stroke: #00afb2; stroke-width: 1.6px;"/>
    <circle cx="204.27" cy="12.36" r="9.2" style="fill: #00faff; stroke: #00afb2; stroke-width: 1.6px;"/>
    <circle cx="180.19" cy="298.45" r="9.2" style="fill: #00faff; stroke: #00afb2; stroke-width: 1.6px;"/>
    <circle cx="245.37" cy="215.89" r="9.2" style="fill: #00faff; stroke: #00afb2; stroke-width: 1.6px;"/>
    <circle cx="195.21" cy="128.24" r="9.2" style="fill: #00faff; stroke: #00afb2; stroke-width: 1.6px;"/>
    <circle cx="234.82" cy="111.98" r="9.2" style="fill: #00faff; stroke: #00afb2; stroke-width: 1.6px;"/>
    <circle cx="366.54" cy="57.25" r="9.2" style="fill: #00faff; stroke: #00afb2; stroke-width: 1.6px;"/>
    <circle cx="299.58" cy="100.84" r="9.2" style="fill: #00faff; stroke: #00afb2; stroke-width: 1.6px;"/>
    <circle cx="286.51" cy="31.16" r="9.2" style="fill: #00faff; stroke: #00afb2; stroke-width: 1.6px;"/>
    <circle cx="235.45" cy="133.41" r="9.2" style="fill: #00faff; stroke: #00afb2; stroke-width: 1.6px;"/>
    <circle cx="119.67" cy="125.61" r="9.2" style="fill: #00faff; stroke: #00afb2; stroke-width: 1.6px;"/>
    <circle cx="122.69" cy="252.26" r="9.2" style="fill: #00faff; stroke: #00afb2; stroke-width: 1.6px;"/>
    <circle cx="161.78" cy="84.79" r="9.2" style="fill: #00faff; stroke: #00afb2; stroke-width: 1.6px;"/>
    <circle cx="236.37" cy="90.71" r="9.2" style="fill: #00faff; stroke: #00afb2; stroke-width: 1.6px;"/>
    <circle cx="150.92" cy="171.49" r="9.2" style="fill: #00faff; stroke: #00afb2; stroke-width: 1.6px;"/>
    <circle cx="192.89" cy="150.76" r="9.2" style="fill: #00faff; stroke: #00afb2; stroke-width: 1.6px;"/>
    <circle cx="102.86" cy="90.41" r="9.2" style="fill: #00faff; stroke: #00afb2; stroke-width: 1.6px;"/>
    <circle cx="348.25" cy="-.74" r="9.2" style="fill: #00faff; stroke: #00afb2; stroke-width: 1.6px;"/>
    <circle cx="101.78" cy="112.17" r="9.2" style="fill: #00faff; stroke: #00afb2; stroke-width: 1.6px;"/>
    <circle cx="325.61" cy="7.37" r="9.2" style="fill: #00faff; stroke: #00afb2; stroke-width: 1.6px;"/>
    <circle cx="165.85" cy="3.71" r="9.2" style="fill: #00faff; stroke: #00afb2; stroke-width: 1.6px;"/>
    <circle cx="289.07" cy="151.89" r="9.2" style="fill: #00faff; stroke: #00afb2; stroke-width: 1.6px;"/>
    <circle cx="222.47" cy="245.85" r="9.2" style="fill: #00faff; stroke: #00afb2; stroke-width: 1.6px;"/>
    <circle cx="184.54" cy="240.26" r="9.2" style="fill: #00faff; stroke: #00afb2; stroke-width: 1.6px;"/>
    <circle cx="99.08" cy="156.15" r="9.2" style="fill: #00faff; stroke: #00afb2; stroke-width: 1.6px;"/>
    <circle cx="219.57" cy="54.62" r="9.2" style="fill: #00faff; stroke: #00afb2; stroke-width: 1.6px;"/>
    <circle cx="146" cy="238.41" r="9.2" style="fill: #00faff; stroke: #00afb2; stroke-width: 1.6px;"/>
    <circle cx="138.29" cy="65.88" r="9.2" style="fill: #00faff; stroke: #00afb2; stroke-width: 1.6px;"/>
    <circle cx="146.76" cy="215.9" r="9.2" style="fill: #00faff; stroke: #00afb2; stroke-width: 1.6px;"/>
    <circle cx="262.18" cy="29.9" r="9.2" style="fill: #00faff; stroke: #00afb2; stroke-width: 1.6px;"/>
    <circle cx="397.94" cy="134.47" r="9.2" style="fill: #00faff; stroke: #00afb2; stroke-width: 1.6px;"/>
    <circle cx="406.4" cy="156.8" r="9.2" style="fill: #00faff; stroke: #00afb2; stroke-width: 1.6px;"/>
    <circle cx="270.14" cy="8.55" r="9.2" style="fill: #00faff; stroke: #00afb2; stroke-width: 1.6px;"/>
    <circle cx="93.52" cy="178.68" r="9.2" style="fill: #00faff; stroke: #00afb2; stroke-width: 1.6px;"/>
    <circle cx="164.98" cy="250.74" r="9.2" style="fill: #00faff; stroke: #00afb2; stroke-width: 1.6px;"/>
    <circle cx="166.03" cy="228" r="9.2" style="fill: #00faff; stroke: #00afb2; stroke-width: 1.6px;"/>
    <circle cx="218.25" cy="29.34" r="9.2" style="fill: #00faff; stroke: #00afb2; stroke-width: 1.6px;"/>
    <circle cx="123.05" cy="80.63" r="9.2" style="fill: #00faff; stroke: #00afb2; stroke-width: 1.6px;"/>
    <circle cx="12.3" cy="106.74" r="9.2" style="fill: #00faff; stroke: #00afb2; stroke-width: 1.6px;"/>
    <circle cx="206.27" cy="232.25" r="9.2" style="fill: #00faff; stroke: #00afb2; stroke-width: 1.6px;"/>
    <circle cx="185.74" cy="219.19" r="9.2" style="fill: #00faff; stroke: #00afb2; stroke-width: 1.6px;"/>
    <circle cx="103.81" cy="65.88" r="9.2" style="fill: #00faff; stroke: #00afb2; stroke-width: 1.6px;"/>
    <circle cx="119.71" cy="147.11" r="9.2" style="fill: #00faff; stroke: #00afb2; stroke-width: 1.6px;"/>
    <circle cx="112.01" cy="189.84" r="9.2" style="fill: #00faff; stroke: #00afb2; stroke-width: 1.6px;"/>
    <circle cx="266.95" cy="52.27" r="9.2" style="fill: #00faff; stroke: #00afb2; stroke-width: 1.6px;"/>
    <circle cx="275.82" cy="94.59" r="9.2" style="fill: #00faff; stroke: #00afb2; stroke-width: 1.6px;"/>
    <circle cx="199.12" cy="65.03" r="9.2" style="fill: #00faff; stroke: #00afb2; stroke-width: 1.6px;"/>
    <circle cx="158.08" cy="57.04" r="9.2" style="fill: #00faff; stroke: #00afb2; stroke-width: 1.6px;"/>
    <circle cx="201.3" cy="43.55" r="9.2" style="fill: #00faff; stroke: #00afb2; stroke-width: 1.6px;"/>
    <circle cx="35.98" cy="111.14" r="9.2" style="fill: #00faff; stroke: #00afb2; stroke-width: 1.6px;"/>
    <circle cx="187.5" cy="-.24" r="9.2" style="fill: #00faff; stroke: #00afb2; stroke-width: 1.6px;"/>
    <circle cx="179.77" cy="47.8" r="9.2" style="fill: #00faff; stroke: #00afb2; stroke-width: 1.6px;"/>
    <circle cx="422.44" cy="74.83" r="9.2" style="fill: #00faff; stroke: #00afb2; stroke-width: 1.6px;"/>
    <circle cx="176.69" cy="69.27" r="9.2" style="fill: #00faff; stroke: #00afb2; stroke-width: 1.6px;"/>
    <circle cx="225.74" cy="8.16" r="9.2" style="fill: #00faff; stroke: #00afb2; stroke-width: 1.6px;"/>
    <circle cx="421.94" cy="101.07" r="9.2" style="fill: #00faff; stroke: #00afb2; stroke-width: 1.6px;"/>
    <circle cx="179.82" cy="20.98" r="9.2" style="fill: #00faff; stroke: #00afb2; stroke-width: 1.6px;"/>
    <circle cx="284.94" cy="197.29" r="9.2" style="fill: #00faff; stroke: #00afb2; stroke-width: 1.6px;"/>
    <circle cx="243.47" cy="237.52" r="9.2" style="fill: #00faff; stroke: #00afb2; stroke-width: 1.6px;"/>
    <circle cx="290.94" cy="130.57" r="9.2" style="fill: #00faff; stroke: #00afb2; stroke-width: 1.6px;"/>
  </g>
</svg>