<?xml version="1.0" encoding="UTF-8"?>
<svg id="Layer_1" data-name="Layer 1" xmlns="http://www.w3.org/2000/svg" width="564.44" height="4830" xmlns:xlink="http://www.w3.org/1999/xlink" viewBox="0 0 564.44 4830">
  <defs>
    <clipPath id="clippath">
      <rect x="107.44" width="457" height="460" style="fill: none;"/>
    </clipPath>
  </defs>
  <polyline points="107.44 454.7 564.44 454.7 564.44 453.7 107.44 453.7" style="fill: #eee;"/>
  <polyline points="107.44 408.72 564.44 408.72 564.44 407.72 107.44 407.72" style="fill: #eee;"/>
  <polyline points="107.44 347.93 564.44 347.93 564.44 346.93 107.44 346.93" style="fill: #eee;"/>
  <polyline points="107.44 301.95 564.44 301.95 564.44 300.95 107.44 300.95" style="fill: #eee;"/>
  <polyline points="107.44 255.96 564.44 255.96 564.44 254.96 107.44 254.96" style="fill: #eee;"/>
  <polyline points="107.44 195.18 564.44 195.18 564.44 194.18 107.44 194.18" style="fill: #eee;"/>
  <polyline points="107.44 149.19 564.44 149.19 564.44 148.19 107.44 148.19" style="fill: #eee;"/>
  <polyline points="107.44 103.21 564.44 103.21 564.44 102.21 107.44 102.21" style="fill: #eee;"/>
  <polyline points="107.44 42.43 564.44 42.43 564.44 41.43 107.44 41.43" style="fill: #eee;"/>
  <g style="clip-path: url(#clippath);">
    <g>
      <rect x="143.06" y="437" width="36.29" height="4393" style="fill: #d3d3d3;"/>
      <rect x="277.47" y="318.2" width="36.29" height="4511.8" style="fill: #d3d3d3;"/>
      <rect x="411.88" y="246.09" width="36.29" height="4583.91" style="fill: #d3d3d3;"/>
      <rect x="183.38" y="329.63" width="36.29" height="4500.37" style="fill: #a9a9a9;"/>
      <rect x="317.79" y="216.28" width="36.3" height="4613.72" style="fill: #a9a9a9;"/>
      <rect x="452.21" y="144.46" width="36.29" height="4685.54" style="fill: #a9a9a9;"/>
      <rect x="223.71" y="225.78" width="36.29" height="4604.22" style="fill: gray;"/>
      <rect x="358.12" y="108.76" width="36.29" height="4721.24" style="fill: gray;"/>
      <rect x="492.53" y="23" width="36.29" height="4807" style="fill: gray;"/>
    </g>
  </g>
  <path d="M101.13,460.04c-.44.28-1,.42-1.68.42-.72,0-1.29-.15-1.72-.44s-.77-.72-1-1.28c-.26-.59-.43-1.27-.5-2.02-.08-.75-.12-1.69-.12-2.8,0-1.02.04-1.95.13-2.8.09-.85.26-1.54.5-2.07.26-.57.61-.99,1.05-1.27s1-.42,1.67-.42,1.24.14,1.67.42.77.69,1.03,1.25.43,1.24.52,2.04c.09.8.13,1.75.13,2.84s-.04,2.05-.13,2.83-.26,1.47-.51,2.05c-.24.57-.59.99-1.03,1.27v-.02ZM103.66,447.65c-.88-1.38-2.29-2.07-4.21-2.07s-3.29.68-4.19,2.04c-.9,1.36-1.34,3.46-1.34,6.3s.44,4.91,1.33,6.27c.88,1.36,2.29,2.04,4.21,2.04s3.29-.67,4.18-2.01c.9-1.34,1.35-3.45,1.35-6.32s-.44-4.87-1.33-6.25h0ZM87.15,460.04c-.44.28-1,.42-1.68.42-.72,0-1.29-.15-1.72-.44s-.77-.72-1-1.28c-.26-.59-.43-1.27-.5-2.02-.08-.75-.12-1.69-.12-2.8,0-1.02.04-1.95.13-2.8.09-.85.26-1.54.5-2.07.26-.57.61-.99,1.05-1.27s1-.42,1.67-.42,1.24.14,1.67.42.77.69,1.03,1.25.43,1.24.52,2.04c.09.8.13,1.75.13,2.84s-.04,2.05-.13,2.83-.26,1.47-.51,2.05c-.24.57-.59.99-1.03,1.27v-.02ZM89.68,447.65c-.88-1.38-2.29-2.07-4.21-2.07s-3.29.68-4.19,2.04c-.9,1.36-1.34,3.46-1.34,6.3s.44,4.91,1.33,6.27c.88,1.36,2.29,2.04,4.21,2.04s3.29-.67,4.18-2.01c.9-1.34,1.35-3.45,1.35-6.32s-.44-4.87-1.33-6.25h0ZM73.16,460.04c-.44.28-1,.42-1.68.42-.72,0-1.29-.15-1.72-.44s-.77-.72-1-1.28c-.26-.59-.43-1.27-.5-2.02-.08-.75-.12-1.69-.12-2.8,0-1.02.04-1.95.13-2.8.09-.85.26-1.54.5-2.07.26-.57.61-.99,1.05-1.27s1-.42,1.67-.42,1.24.14,1.67.42.77.69,1.03,1.25.43,1.24.52,2.04c.09.8.13,1.75.13,2.84s-.04,2.05-.13,2.83-.26,1.47-.51,2.05c-.24.57-.59.99-1.03,1.27v-.02ZM75.69,447.65c-.88-1.38-2.29-2.07-4.21-2.07s-3.29.68-4.19,2.04c-.9,1.36-1.34,3.46-1.34,6.3s.44,4.91,1.33,6.27c.88,1.36,2.29,2.04,4.21,2.04s3.29-.67,4.18-2.01c.9-1.34,1.35-3.45,1.35-6.32s-.44-4.87-1.33-6.25h0ZM62.14,460.27h-3.27v-14.42h-1.67c-.03.47-.14.84-.33,1.11-.19.28-.45.5-.78.68-.27.14-.66.25-1.17.33-.52.08-1,.11-1.45.11v1.46h3.33v10.72h-3.33v1.63h8.66v-1.63h0Z" style="fill: #444;"/>
  <path d="M105.37,412.62h-6.45c.53-.45,1.1-.94,1.72-1.47.61-.53,1.21-1.08,1.78-1.64.4-.39.75-.75,1.03-1.07s.53-.65.74-.98c.23-.35.4-.73.51-1.12.12-.39.17-.82.17-1.28,0-1.01-.35-1.82-1.05-2.41-.7-.59-1.66-.89-2.89-.89-.6,0-1.21.08-1.85.23-.64.16-1.15.33-1.53.52v1.69h.08c.54-.35,1.1-.62,1.67-.79s1.1-.26,1.59-.26c.74,0,1.31.18,1.72.53s.62.84.62,1.46c0,.68-.19,1.32-.57,1.91s-1.09,1.38-2.12,2.38c-.49.48-1.02.96-1.58,1.44-.57.48-1.13.97-1.7,1.45v1.68h8.12v-1.38h-.01Z" style="fill: #444;"/>
  <path d="M104.92,347.64c-.24-.47-.57-.85-1-1.14-.41-.28-.86-.47-1.35-.58s-1.06-.17-1.71-.17c-.18,0-.39,0-.63.02s-.48.03-.71.05v-3.19h5.66v-1.41h-7.22v6.18c.32-.06.69-.13,1.13-.19.44-.06.89-.1,1.37-.1s.94.04,1.34.12c.4.08.74.23,1.02.43.25.17.45.4.59.68.14.29.21.63.21,1.05s-.06.8-.18,1.12-.3.6-.54.83c-.28.27-.6.46-.95.56-.36.11-.73.16-1.11.16-.57,0-1.15-.1-1.74-.29-.59-.2-1.11-.43-1.55-.71h-.11v1.7c.42.19.93.36,1.54.5s1.24.21,1.89.21c.7,0,1.32-.1,1.86-.3.53-.2,1-.49,1.38-.87.35-.35.63-.78.84-1.29.2-.51.31-1.04.31-1.6,0-.7-.12-1.29-.35-1.76h.01Z" style="fill: #444;"/>
  <path d="M100.32,302.69l5.58-5.54h-2.55l-5.83,6v-10.72h-2.02v16.71h2.02v-4.01l1.31-1.25,4.81,5.25h2.66l-5.98-6.46v.02ZM88.11,307.29c-.44.28-1,.42-1.68.42-.72,0-1.29-.15-1.72-.44s-.77-.72-1-1.28c-.26-.59-.43-1.27-.5-2.02-.08-.75-.12-1.69-.12-2.8,0-1.02.04-1.95.13-2.8.09-.85.26-1.54.5-2.07.26-.57.61-.99,1.05-1.27s1-.42,1.67-.42,1.24.14,1.67.42.77.69,1.03,1.25.43,1.24.52,2.04c.09.8.13,1.75.13,2.84s-.04,2.05-.13,2.83-.26,1.47-.51,2.05c-.24.57-.59.99-1.03,1.27v-.02ZM90.64,294.9c-.88-1.38-2.29-2.07-4.21-2.07s-3.29.68-4.19,2.04c-.9,1.36-1.34,3.46-1.34,6.3s.44,4.91,1.33,6.27c.88,1.36,2.29,2.04,4.21,2.04s3.29-.67,4.18-2.01c.9-1.34,1.35-3.45,1.35-6.32s-.44-4.87-1.33-6.25h0ZM77.09,307.52h-3.27v-14.42h-1.67c-.03.47-.14.84-.33,1.11-.19.28-.45.5-.78.68-.27.14-.66.25-1.17.33-.52.08-1,.11-1.45.11v1.46h3.33v10.72h-3.33v1.63h8.66v-1.63h0Z" style="fill: #444;"/>
  <path d="M105.37,259.86h-6.45c.53-.45,1.1-.94,1.72-1.47.61-.53,1.21-1.08,1.78-1.64.4-.39.75-.75,1.03-1.07s.53-.65.74-.98c.23-.35.4-.73.51-1.12.12-.39.17-.82.17-1.28,0-1.01-.35-1.82-1.05-2.41-.7-.59-1.66-.89-2.89-.89-.6,0-1.21.08-1.85.23-.64.16-1.15.33-1.53.52v1.69h.08c.54-.35,1.1-.62,1.67-.79s1.1-.26,1.59-.26c.74,0,1.31.18,1.72.53s.62.84.62,1.46c0,.68-.19,1.32-.57,1.91s-1.09,1.38-2.12,2.38c-.49.48-1.02.96-1.58,1.44-.57.48-1.13.97-1.7,1.45v1.68h8.12v-1.38h-.01Z" style="fill: #444;"/>
  <path d="M104.92,194.89c-.24-.47-.57-.85-1-1.14-.41-.28-.86-.47-1.35-.58s-1.06-.17-1.71-.17c-.18,0-.39,0-.63.02s-.48.03-.71.05v-3.19h5.66v-1.41h-7.22v6.18c.32-.06.69-.13,1.13-.19.44-.06.89-.1,1.37-.1s.94.04,1.34.12c.4.08.74.23,1.02.43.25.17.45.4.59.68.14.29.21.63.21,1.05s-.06.8-.18,1.12c-.12.32-.3.6-.54.83-.28.27-.6.46-.95.56-.36.11-.73.16-1.11.16-.57,0-1.15-.1-1.74-.29-.59-.2-1.11-.43-1.55-.71h-.11v1.7c.42.19.93.36,1.54.5s1.24.21,1.89.21c.7,0,1.32-.1,1.86-.3.53-.2,1-.49,1.38-.87.35-.35.63-.78.84-1.29.2-.51.31-1.04.31-1.6,0-.7-.12-1.29-.35-1.76h.01Z" style="fill: #444;"/>
  <path d="M100.32,149.93l5.58-5.54h-2.55l-5.83,6v-10.72h-2.02v16.71h2.02v-4.01l1.31-1.25,4.81,5.25h2.66l-5.98-6.46v.02ZM88.11,154.53c-.44.28-1,.42-1.68.42-.72,0-1.29-.15-1.72-.44-.43-.29-.77-.72-1-1.28-.26-.59-.43-1.27-.5-2.02-.08-.75-.12-1.69-.12-2.8,0-1.02.04-1.95.13-2.8s.26-1.54.5-2.07c.26-.57.61-.99,1.05-1.27s1-.42,1.67-.42,1.24.14,1.67.42.77.69,1.03,1.25.43,1.24.52,2.04c.09.8.13,1.75.13,2.84s-.04,2.05-.13,2.83-.26,1.47-.51,2.05c-.24.57-.59.99-1.03,1.27v-.02ZM90.64,142.14c-.88-1.38-2.29-2.07-4.21-2.07s-3.29.68-4.19,2.04-1.34,3.46-1.34,6.3.44,4.91,1.33,6.27c.88,1.36,2.29,2.04,4.21,2.04s3.29-.67,4.18-2.01c.9-1.34,1.35-3.45,1.35-6.32s-.44-4.87-1.33-6.25h0ZM74.13,154.53c-.44.28-1,.42-1.68.42-.72,0-1.29-.15-1.72-.44-.43-.29-.77-.72-1-1.28-.26-.59-.43-1.27-.5-2.02-.08-.75-.12-1.69-.12-2.8,0-1.02.04-1.95.13-2.8s.26-1.54.5-2.07c.26-.57.61-.99,1.05-1.27s1-.42,1.67-.42,1.24.14,1.67.42.77.69,1.03,1.25.43,1.24.52,2.04c.09.8.13,1.75.13,2.84s-.04,2.05-.13,2.83-.26,1.47-.51,2.05c-.24.57-.59.99-1.03,1.27v-.02ZM76.66,142.14c-.88-1.38-2.29-2.07-4.21-2.07s-3.29.68-4.19,2.04-1.34,3.46-1.34,6.3.44,4.91,1.33,6.27c.88,1.36,2.29,2.04,4.21,2.04s3.29-.67,4.18-2.01c.9-1.34,1.35-3.45,1.35-6.32s-.44-4.87-1.33-6.25h0ZM63.11,154.76h-3.27v-14.42h-1.67c-.03.47-.14.84-.33,1.11-.19.28-.45.5-.78.68-.27.14-.66.25-1.17.33-.52.08-1,.11-1.45.11v1.46h3.33v10.72h-3.33v1.63h8.66v-1.63h0Z" style="fill: #444;"/>
  <path d="M105.37,107.11h-6.45c.53-.45,1.1-.94,1.72-1.47.61-.53,1.21-1.08,1.78-1.64.4-.39.75-.75,1.03-1.07s.53-.65.74-.98c.23-.35.4-.73.51-1.12.12-.39.17-.82.17-1.28,0-1.01-.35-1.82-1.05-2.41-.7-.59-1.66-.89-2.89-.89-.6,0-1.21.08-1.85.23-.64.16-1.15.33-1.53.52v1.69h.08c.54-.35,1.1-.62,1.67-.79s1.1-.26,1.59-.26c.74,0,1.31.18,1.72.53s.62.84.62,1.46c0,.68-.19,1.32-.57,1.91-.38.59-1.09,1.38-2.12,2.38-.49.48-1.02.96-1.58,1.44-.57.48-1.13.97-1.7,1.45v1.68h8.12v-1.38h-.01Z" style="fill: #444;"/>
  <path d="M104.92,42.14c-.24-.47-.57-.85-1-1.14-.41-.28-.86-.47-1.35-.58s-1.06-.17-1.71-.17c-.18,0-.39,0-.63.02s-.48.03-.71.05v-3.19h5.66v-1.41h-7.22v6.18c.32-.06.69-.13,1.13-.19.44-.06.89-.1,1.37-.1s.94.04,1.34.12c.4.08.74.23,1.02.43.25.17.45.4.59.68.14.29.21.63.21,1.05s-.06.8-.18,1.12-.3.6-.54.83c-.28.27-.6.46-.95.56-.36.11-.73.16-1.11.16-.57,0-1.15-.1-1.74-.29-.59-.2-1.11-.43-1.55-.71h-.11v1.7c.42.19.93.36,1.54.5s1.24.21,1.89.21c.7,0,1.32-.1,1.86-.3.53-.2,1-.49,1.38-.87.35-.35.63-.78.84-1.29.2-.51.31-1.04.31-1.6,0-.7-.12-1.29-.35-1.76h.01Z" style="fill: #444;"/>
  <path d="M25.43,103.95v.19c.12.28.25.73.43,1.36.16.63.25,1.24.25,1.83,0,1-.12,1.75-.36,2.23-.24.49-.6.87-1.11,1.15-.54.3-1.14.48-1.75.54-.63.04-1.5.07-2.62.07h-9.68v-7.39h-3.01v7.39H1.47v3.58h6.11v2.41h3.01v-2.41h11.3c2.58,0,4.45-.57,5.62-1.69s1.75-2.77,1.75-4.94c0-.61-.06-1.33-.16-2.13s-.25-1.53-.43-2.2h-3.24ZM15.04,121.87c-2.61,0-4.59.6-5.98,1.81s-2.07,2.95-2.07,5.24c0,1.26.25,2.47.78,3.67s1.24,2.35,2.17,3.46h-2.35v3.58h21.25v-3.58h-15.87c-.75-.97-1.36-1.99-1.84-3.06s-.72-2.08-.72-3.06.13-1.72.39-2.32c.25-.6.66-1.05,1.18-1.36.48-.3,1.15-.51,2.01-.63s1.77-.16,2.74-.16h12.09v-3.58h-13.79ZM7.6,146.67v3.58h15.87c.75.94,1.36,1.98,1.84,3.07s.72,2.11.72,3.03c0,1.03-.12,1.83-.37,2.38s-.66.99-1.21,1.33c-.54.33-1.2.54-1.96.64-.76.1-1.69.15-2.77.15H7.61v3.58h13.79c2.64,0,4.65-.61,6.01-1.86s2.04-2.98,2.04-5.21c0-1.33-.25-2.55-.76-3.66s-1.24-2.26-2.19-3.46h2.35v-3.58H7.6ZM24.3,175.14c1.36,1.08,2.04,2.58,2.04,4.48s-.69,3.43-2.07,4.51-3.4,1.62-6.05,1.62-4.79-.54-6.13-1.6c-1.33-1.08-2.01-2.58-2.01-4.53s.67-3.42,2.01-4.5,3.39-1.62,6.13-1.62,4.72.54,6.08,1.63h0ZM10.01,172.49c-2.01,1.78-3.01,4.15-3.01,7.13s1,5.39,3.01,7.16,4.75,2.65,8.21,2.65,6.19-.88,8.2-2.65,3.01-4.15,3.01-7.16-1-5.36-3.01-7.13-4.73-2.67-8.2-2.67-6.2.88-8.21,2.67ZM23.57,192.52v.19c.21.27.48.63.76,1.08.3.45.58.94.84,1.47.3.6.55,1.27.75,2.02s.28,1.48.28,2.2c0,2.08-.69,3.69-2.07,4.84-1.38,1.15-3.34,1.72-5.9,1.72s-4.65-.58-5.99-1.75c-1.36-1.17-2.05-2.77-2.05-4.81,0-1.11.22-2.23.69-3.4s1.11-2.29,1.96-3.37v-.19h-3.97c-.49.97-.91,2.05-1.26,3.22s-.51,2.37-.51,3.58c0,3.13.99,5.65,2.97,7.57s4.7,2.86,8.18,2.86c1.86,0,3.49-.25,4.88-.76s2.55-1.23,3.46-2.14c.91-.91,1.59-2.01,2.05-3.3.45-1.27.67-2.68.67-4.23,0-1.2-.16-2.34-.48-3.42s-.76-2.2-1.33-3.4h-3.94,0ZM15.85,243c-1.68-.15-3.07-.79-4.21-1.93s-1.69-2.67-1.69-4.57.51-3.33,1.54-4.26,2.47-1.41,4.36-1.42v12.17h0ZM16.65,227.34c-3.09,0-5.45.78-7.13,2.34s-2.52,3.76-2.52,6.62c0,3.09,1.02,5.59,3.06,7.49s4.79,2.85,8.27,2.85,6.22-.99,8.14-2.97c1.9-1.98,2.86-4.73,2.86-8.26,0-1.38-.16-2.7-.51-3.96s-.76-2.49-1.27-3.69h-3.9v.19c.55.61,1.12,1.66,1.71,3.13.58,1.47.87,2.92.87,4.36,0,1.09-.15,2.08-.45,3s-.76,1.69-1.36,2.35c-.63.69-1.42,1.23-2.38,1.62-.97.39-2.11.58-3.42.58v-15.66h-1.96ZM23.57,249.71v.19c.21.27.48.63.76,1.08.3.45.58.94.84,1.47.3.6.55,1.27.75,2.02s.28,1.48.28,2.2c0,2.08-.69,3.69-2.07,4.84-1.38,1.15-3.34,1.72-5.9,1.72s-4.65-.58-5.99-1.75c-1.36-1.17-2.05-2.77-2.05-4.81,0-1.11.22-2.23.69-3.4s1.11-2.29,1.96-3.37v-.19h-3.97c-.49.97-.91,2.05-1.26,3.22s-.51,2.37-.51,3.58c0,3.13.99,5.65,2.97,7.57s4.7,2.86,8.18,2.86c1.86,0,3.49-.25,4.88-.76s2.55-1.23,3.46-2.14c.91-.91,1.59-2.01,2.05-3.3.45-1.27.67-2.68.67-4.23,0-1.2-.16-2.34-.48-3.42s-.76-2.2-1.33-3.4h-3.94,0ZM15.04,272.32c-2.61,0-4.59.6-5.98,1.81s-2.07,2.95-2.07,5.24c0,1.26.25,2.47.78,3.67s1.24,2.35,2.17,3.46h-2.35v3.58h21.25v-3.58h-15.87c-.75-.97-1.36-1.99-1.84-3.06s-.72-2.08-.72-3.06.13-1.72.39-2.32c.25-.6.66-1.05,1.18-1.36.48-.3,1.15-.51,2.01-.63s1.77-.16,2.74-.16h12.09v-3.58h-13.79ZM15.85,311.16c-1.68-.15-3.07-.79-4.21-1.93s-1.69-2.67-1.69-4.57.51-3.33,1.54-4.26,2.47-1.41,4.36-1.42v12.17h0ZM16.65,295.5c-3.09,0-5.45.78-7.13,2.34-1.68,1.56-2.52,3.76-2.52,6.62,0,3.09,1.02,5.59,3.06,7.49,2.04,1.9,4.79,2.85,8.27,2.85s6.22-.99,8.14-2.97c1.9-1.98,2.86-4.73,2.86-8.26,0-1.38-.16-2.7-.51-3.96s-.76-2.49-1.27-3.69h-3.9v.19c.55.61,1.12,1.66,1.71,3.13.58,1.47.87,2.92.87,4.36,0,1.09-.15,2.08-.45,3s-.76,1.69-1.36,2.35c-.63.69-1.42,1.23-2.38,1.62-.97.39-2.11.58-3.42.58v-15.66h-1.96ZM7.6,320.33v3.58h15.87c.75.94,1.36,1.98,1.84,3.07s.72,2.11.72,3.03c0,1.03-.12,1.83-.37,2.38s-.66.99-1.21,1.33c-.54.33-1.2.54-1.96.64s-1.69.15-2.77.15H7.61v3.58h13.79c2.64,0,4.65-.61,6.01-1.86s2.04-2.98,2.04-5.21c0-1.33-.25-2.55-.76-3.66s-1.24-2.26-2.19-3.46h2.35v-3.58H7.6ZM25.17,351.47c.45,1.03.67,2.08.67,3.12,0,1.86-.67,3.24-2.01,4.11s-3.25,1.3-5.74,1.3-4.39-.54-5.8-1.62-2.1-2.65-2.1-4.72c0-.88.09-1.71.27-2.47s.49-1.63.93-2.62h12.02c.7.9,1.29,1.87,1.74,2.91h.01ZM7.6,344.98v3.34l.91.22c-.49.91-.87,1.81-1.12,2.7s-.37,1.89-.37,3.03c0,1.26.25,2.44.76,3.58s1.23,2.11,2.14,2.95c.94.87,2.13,1.56,3.52,2.08,1.41.52,3.01.79,4.84.79,3.43,0,6.11-.75,8.06-2.25,1.95-1.5,2.92-3.52,2.92-6.04,0-1.27-.22-2.44-.69-3.54-.46-1.09-1.17-2.19-2.13-3.3h10.23v-3.58H7.6ZM15.85,383.3c-1.68-.15-3.07-.79-4.21-1.93s-1.69-2.67-1.69-4.57.51-3.33,1.54-4.26,2.47-1.41,4.36-1.42v12.17h0ZM16.65,367.64c-3.09,0-5.45.78-7.13,2.34s-2.52,3.76-2.52,6.62c0,3.09,1.02,5.59,3.06,7.49s4.79,2.85,8.27,2.85,6.22-.99,8.14-2.97c1.9-1.98,2.86-4.73,2.86-8.26,0-1.38-.16-2.7-.51-3.96s-.76-2.49-1.27-3.69h-3.9v.19c.55.61,1.12,1.66,1.71,3.13.58,1.47.87,2.92.87,4.36,0,1.09-.15,2.08-.45,3s-.76,1.69-1.36,2.35c-.63.69-1.42,1.23-2.38,1.62-.97.39-2.11.58-3.42.58v-15.66h-1.96ZM16.02,392.78c-1.12,1.06-1.98,2.65-2.53,4.75-.27,1.03-.52,2.31-.78,3.81s-.46,2.65-.64,3.46c-.36,1.53-.87,2.61-1.54,3.22s-1.6.91-2.77.91c-1.32,0-2.4-.61-3.24-1.84s-1.26-2.85-1.26-4.85c0-1.84.3-3.64.9-5.39s1.36-3.18,2.28-4.26v-.27H1.98c-.55,1.27-1.03,2.76-1.41,4.42s-.57,3.49-.57,5.48c0,3.09.76,5.62,2.28,7.63s3.46,3.01,5.83,3.01c2.07,0,3.75-.6,5.03-1.81s2.2-3.07,2.73-5.59c.25-1.24.46-2.41.63-3.52s.37-2.14.63-3.09c.33-1.26.79-2.19,1.39-2.8s1.53-.93,2.77-.93c1.45,0,2.62.64,3.51,1.95s1.32,3.12,1.32,5.45c0,1.65-.33,3.42-.97,5.29s-1.56,3.54-2.76,4.96v.27h4.72c.75-1.69,1.32-3.34,1.69-4.97s.57-3.46.57-5.51c0-1.9-.22-3.52-.69-4.88s-1.09-2.53-1.9-3.55c-.75-.93-1.66-1.65-2.74-2.16s-2.17-.76-3.27-.76c-2.02,0-3.61.54-4.73,1.6h-.01Z" style="fill: #444;"/>
  <path d="M274.36,469.52c-.39-.08-.82-.14-1.29-.19s-1-.08-1.59-.08c-1.74,0-3.07.49-3.99,1.48-.92.99-1.38,2.42-1.38,4.26v.52h-1.77v2.21h1.77v13.38h2.62v-13.38h4.65v-2.21h-4.73v-.53c0-1.3.25-2.21.77-2.7.51-.49,1.33-.74,2.46-.74.35,0,.77.04,1.23.13.47.09.84.17,1.13.26h.14v-2.4h-.04ZM263.5,475.68c-.42-.06-.71-.1-.92-.13-.21-.03-.53-.04-.99-.04-.83,0-1.64.17-2.43.52s-1.72.94-2.75,1.78v-2.3h-2.62v15.59h2.62v-11.07c.7-.57,1.43-1.03,2.18-1.39s1.53-.53,2.34-.53c.51,0,.94.03,1.3.06s.74.1,1.14.21h.14v-2.69h-.01ZM245.82,487.78c-.79,1-1.9,1.51-3.29,1.51s-2.52-.51-3.31-1.52-1.18-2.49-1.18-4.44.39-3.52,1.18-4.5c.78-.97,1.9-1.47,3.31-1.47s2.51.49,3.3,1.47c.79.99,1.18,2.48,1.18,4.5s-.4,3.46-1.2,4.46h0ZM247.76,477.29c-1.3-1.48-3.05-2.21-5.24-2.21s-3.96.74-5.25,2.21c-1.3,1.47-1.95,3.48-1.95,6.02s.65,4.55,1.95,6.02,3.05,2.21,5.25,2.21,3.94-.74,5.24-2.21,1.95-3.47,1.95-6.02-.65-4.55-1.95-6.02ZM226.49,488.55c-.77.32-1.52.49-2.26.49-1.39,0-2.4-.48-3.04-1.44-.64-.96-.95-2.38-.95-4.22s.4-3.33,1.23-4.35c.82-1.03,1.96-1.53,3.43-1.53.66,0,1.27.06,1.83.18s1.2.34,1.9.65v8.95c-.66.52-1.38.95-2.13,1.27h-.01ZM231.26,469.39h-2.62v6.76c-.7-.36-1.36-.64-2-.81-.64-.17-1.36-.26-2.18-.26-.9,0-1.78.18-2.61.56-.84.38-1.59.91-2.21,1.62-.64.73-1.16,1.61-1.53,2.64s-.57,2.21-.57,3.53c0,2.55.55,4.52,1.64,5.96,1.09,1.43,2.57,2.14,4.43,2.14.96,0,1.85-.18,2.66-.55s1.61-.87,2.36-1.52v1.64h2.62v-21.71h.01ZM213.42,469.39h-2.62v21.71h2.62v-21.71ZM195.31,481.57c.12-1.23.58-2.26,1.42-3.08.83-.83,1.95-1.25,3.35-1.25s2.43.38,3.12,1.13,1.03,1.82,1.04,3.2h-8.94.01ZM206.8,482.15c0-2.26-.57-4-1.72-5.24s-2.77-1.85-4.86-1.85c-2.27,0-4.11.75-5.5,2.25-1.39,1.49-2.09,3.52-2.09,6.07s.73,4.56,2.18,5.96,3.47,2.11,6.06,2.11c1.01,0,1.99-.13,2.9-.38s1.82-.56,2.7-.94v-2.86h-.14c-.45.42-1.22.83-2.3,1.25-1.08.43-2.14.64-3.21.64-.81,0-1.53-.12-2.2-.34-.66-.22-1.23-.56-1.73-1-.51-.45-.9-1.04-1.18-1.75-.29-.71-.43-1.55-.43-2.51h11.49v-1.43h.03ZM188.99,483.88c-.66-.68-1.6-1.16-2.82-1.44-.4-.09-.9-.19-1.49-.31s-1.14-.22-1.62-.34c-.87-.21-1.51-.47-1.9-.79-.4-.32-.6-.81-.6-1.46,0-.73.32-1.27.99-1.64s1.47-.55,2.43-.55,1.86.17,2.82.51,1.77.75,2.44,1.25h.14v-2.81c-.64-.32-1.43-.6-2.38-.83-.95-.23-1.9-.34-2.83-.34-1,0-1.9.13-2.7.38-.81.26-1.47.6-1.99,1.04-.55.44-.95.95-1.21,1.52s-.4,1.17-.4,1.82c0,1.03.29,1.88.86,2.59.57.7,1.55,1.23,2.91,1.6.49.13,1.04.25,1.64.36s1.09.21,1.46.3c1,.22,1.69.49,2.04.81s.53.78.53,1.39c0,.81-.32,1.39-.97,1.75-.65.38-1.56.56-2.7.56-.94,0-1.9-.18-2.92-.55-1.01-.36-1.94-.87-2.77-1.48h-.14v2.95c.65.32,1.46.62,2.42.9s2.03.42,3.17.42c2.04,0,3.65-.45,4.82-1.36,1.18-.91,1.77-2.08,1.77-3.51,0-1.13-.32-2.05-.99-2.74h.01ZM174.1,483.88c-.66-.68-1.6-1.16-2.82-1.44-.4-.09-.9-.19-1.49-.31s-1.14-.22-1.62-.34c-.87-.21-1.51-.47-1.9-.79-.4-.32-.6-.81-.6-1.46,0-.73.32-1.27.99-1.64s1.47-.55,2.43-.55,1.86.17,2.82.51,1.77.75,2.44,1.25h.14v-2.81c-.64-.32-1.43-.6-2.38-.83-.95-.23-1.9-.34-2.83-.34-1,0-1.9.13-2.7.38-.81.26-1.47.6-1.99,1.04-.55.44-.95.95-1.21,1.52s-.4,1.17-.4,1.82c0,1.03.29,1.88.86,2.59.57.7,1.55,1.23,2.91,1.6.49.13,1.04.25,1.64.36s1.09.21,1.46.3c1,.22,1.69.49,2.04.81s.53.78.53,1.39c0,.81-.32,1.39-.97,1.75-.65.38-1.56.56-2.7.56-.94,0-1.9-.18-2.92-.55-1.01-.36-1.94-.87-2.77-1.48h-.14v2.95c.65.32,1.46.62,2.42.9s2.03.42,3.17.42c2.04,0,3.65-.45,4.82-1.36,1.18-.91,1.77-2.08,1.77-3.51,0-1.13-.32-2.05-.99-2.74h.01ZM150.84,470.19h-2.78v2.72h2.78v-2.72ZM156.61,470.19h-2.78v2.72h2.78v-2.72ZM158.78,475.51h-2.62v11.64c-.7.55-1.46,1-2.25,1.35-.81.35-1.55.53-2.22.53-.77,0-1.35-.09-1.74-.27-.4-.18-.73-.48-.97-.9-.25-.4-.4-.88-.48-1.44s-.12-1.25-.12-2.03v-8.87h-2.62v10.12c0,1.94.45,3.4,1.36,4.4.91,1,2.18,1.51,3.82,1.51.97,0,1.87-.18,2.68-.56s1.65-.91,2.55-1.61v1.73h2.62v-15.59h0ZM137.94,484.74c-.52,1.08-1.29,1.95-2.33,2.61-.83.53-1.74.9-2.73,1.09s-2.16.3-3.48.3h-2.6v-16.03h2.6c1.29,0,2.39.09,3.31.27.92.18,1.79.51,2.61.97,1.13.64,1.98,1.52,2.55,2.64s.86,2.49.86,4.12-.26,2.96-.78,4.05v-.03ZM140.42,475.5c-.79-1.47-1.9-2.65-3.31-3.53-.83-.51-1.85-.91-3.04-1.21-1.2-.3-2.81-.44-4.83-.44h-5.2v20.79h5.25c1.91,0,3.44-.13,4.61-.39,1.17-.26,2.22-.69,3.17-1.27,1.36-.84,2.47-2.04,3.29-3.57s1.23-3.25,1.23-5.13c0-2.01-.39-3.77-1.18-5.24h.01Z" style="fill: #444;"/>
  <path d="M367.95,467.66l-4.7,18.89-4.7-18.89h-3.04l-4.66,18.71-4.73-18.71h-3.07l5.95,22.51h3.29l4.63-18.68,4.73,18.68h3.38l5.85-22.51h-2.94ZM334.47,476.09c-.21.55-.55,1.04-1,1.46-.49.45-1.1.76-1.8.93s-1.53.25-2.48.25h-3.02v-8.5h3.52c.8,0,1.51.06,2.1.17.59.11,1.11.32,1.55.6.52.34.9.76,1.13,1.27.23.49.34,1.07.34,1.72,0,.84-.11,1.55-.32,2.1h0ZM333.33,480.34c1.43-.55,2.56-1.38,3.38-2.48s1.22-2.45,1.22-4.07c0-1.2-.23-2.19-.69-2.97s-1.1-1.42-1.91-1.94c-.73-.45-1.55-.77-2.45-.94-.9-.18-2.04-.27-3.4-.27h-6.3v22.51h3v-8.95h4.22l7.53,8.95h3.88l-8.47-9.83h0ZM317.19,467.66h-2.8v18.37l-9.74-18.37h-4.64v22.51h2.8v-20.13l10.66,20.13h3.7v-22.51h.01Z" style="fill: #444;"/>
  <path d="M534.87,473.71l-5.06,12.1-5.01-12.1h-2.98l6.5,15.54-3.03,6.82h2.94l9.52-22.34h-2.88ZM518.63,479.44c0-2-.46-3.52-1.39-4.59s-2.27-1.59-4.03-1.59c-.97,0-1.9.2-2.82.6-.91.39-1.81.95-2.67,1.66v-1.81h-2.75v16.33h2.75v-12.19c.75-.57,1.54-1.05,2.35-1.42.82-.37,1.61-.56,2.35-.56s1.32.1,1.78.3.8.5,1.05.91c.23.37.39.88.48,1.54s.14,1.36.14,2.11v9.29h2.75v-10.6h0ZM494.74,487.37c-.8.38-1.69.56-2.64.56-1.16,0-2.03-.23-2.59-.71-.57-.48-.84-1.17-.84-2.11,0-.83.24-1.48.73-1.95.49-.48,1.13-.82,1.92-1.05.67-.19,1.56-.33,2.69-.42,1.13-.1,2.12-.16,2.97-.22v4.54c-.68.53-1.43.98-2.22,1.35h-.03ZM499.69,478.96c0-1.05-.16-1.93-.48-2.64s-.79-1.29-1.4-1.74c-.63-.46-1.36-.78-2.22-.97-.86-.19-1.85-.29-3.01-.29-.98,0-1.99.08-2.99.26-1.02.18-1.78.34-2.33.48v2.79h.15c.94-.35,1.86-.64,2.75-.83.88-.19,1.69-.29,2.41-.29.6,0,1.17.04,1.71.12.54.08,1.01.23,1.4.45.41.23.72.56.94.97s.33.93.33,1.55v.42c-1.59.08-3.09.19-4.49.35-1.39.15-2.59.45-3.58.9-.98.44-1.74,1.03-2.27,1.81-.53.76-.8,1.77-.8,3.01,0,1.51.52,2.75,1.54,3.73s2.27,1.46,3.74,1.46c.8,0,1.5-.08,2.1-.23.6-.15,1.12-.34,1.58-.56.39-.18.79-.41,1.21-.71.41-.3.75-.53.99-.69v1.74h2.73v-11.08h-.01ZM481.71,479.44c0-1.95-.42-3.47-1.28-4.56-.86-1.09-2.18-1.63-3.97-1.63-1.05,0-2.03.2-2.94.63-.91.41-1.93,1.09-3.03,2.03-.38-.83-.95-1.47-1.73-1.95s-1.71-.71-2.83-.71c-.97,0-1.88.2-2.72.6-.86.39-1.71.95-2.57,1.66v-1.81h-2.75v16.33h2.75v-12.19c.75-.57,1.5-1.05,2.26-1.42.75-.37,1.51-.56,2.26-.56.79,0,1.39.11,1.81.31.42.2.73.52.97.94.2.39.34.91.41,1.55.07.65.1,1.33.1,2.05v9.29h2.75v-10.45c0-.29,0-.59-.03-.88-.01-.3-.04-.56-.07-.79.78-.6,1.54-1.09,2.31-1.47s1.54-.57,2.31-.57,1.39.11,1.81.33.73.53.97.95c.2.39.34.91.41,1.56.07.65.1,1.33.1,2.03v9.29h2.75v-10.6l-.03.03ZM455.3,473.89c-.44-.07-.75-.11-.97-.14-.22-.03-.56-.04-1.03-.04-.87,0-1.71.18-2.54.54s-1.8.98-2.88,1.86v-2.41h-2.75v16.33h2.75v-11.59c.73-.6,1.5-1.07,2.29-1.46s1.61-.56,2.45-.56c.53,0,.98.03,1.36.07s.78.11,1.2.22h.15v-2.82h-.01ZM428.91,480.05c.12-1.29.61-2.37,1.48-3.22.87-.87,2.04-1.31,3.51-1.31s2.54.39,3.27,1.18,1.07,1.9,1.09,3.35h-9.36.01ZM440.94,480.67c0-2.37-.6-4.19-1.8-5.48s-2.9-1.93-5.09-1.93c-2.38,0-4.3.79-5.76,2.35-1.46,1.56-2.19,3.69-2.19,6.35s.76,4.78,2.29,6.25,3.63,2.2,6.34,2.2c1.06,0,2.08-.14,3.03-.39s1.9-.59,2.83-.98v-2.99h-.15c-.48.44-1.28.87-2.41,1.31-1.13.45-2.24.67-3.36.67-.84,0-1.61-.12-2.3-.35s-1.29-.59-1.81-1.05c-.53-.48-.94-1.09-1.24-1.84-.3-.75-.45-1.62-.45-2.63h12.03v-1.5h.03ZM422.45,479.09h-8.69v2.54h5.84v5.33c-.71.29-1.52.53-2.45.72-.93.19-1.86.27-2.8.27-2.56,0-4.57-.78-6.05-2.34-1.48-1.56-2.22-3.76-2.22-6.57,0-2.67.71-4.79,2.12-6.35,1.42-1.56,3.35-2.34,5.78-2.34,1.07,0,2.05.1,2.9.3.86.2,1.62.45,2.29.75.56.26,1.12.57,1.7.95.57.38,1.01.68,1.32.93h.26v-3.43c-1.5-.71-2.88-1.21-4.18-1.51-1.29-.3-2.56-.45-3.8-.45-3.55,0-6.34,1.01-8.37,3.02s-3.05,4.76-3.05,8.23c0,1.9.27,3.56.82,4.98s1.32,2.6,2.33,3.54c.99.94,2.19,1.63,3.61,2.11,1.42.46,2.97.71,4.67.71,1.32,0,2.68-.2,4.08-.61,1.4-.41,2.71-.88,3.89-1.43v-9.33h.01Z" style="fill: #444;"/>
</svg>