<?xml version="1.0" encoding="UTF-8"?>
<svg id="Layer_1" data-name="Layer 1" xmlns="http://www.w3.org/2000/svg" width="800" height="620" xmlns:xlink="http://www.w3.org/1999/xlink" viewBox="0 0 800 620">
  <defs>
    <clipPath id="clippath">
      <rect x="100" width="700" height="540" style="fill: none;"/>
    </clipPath>
    <clipPath id="clippath-1">
      <rect x="135" y="54" width="370" height="152" style="fill: none;"/>
    </clipPath>
    <clipPath id="clippath-2">
      <path d="M203.48,70.44l-3.2,8.92h6.38l-3.19-8.92M237.92,70.4h-2.27v14.03h2.27c1.16,0,2.18-.09,3.05-.26.87-.17,1.66-.49,2.39-.95.9-.58,1.58-1.34,2.03-2.28s.68-2.12.68-3.54-.25-2.62-.74-3.6c-.5-.98-1.24-1.75-2.22-2.31-.72-.41-1.48-.69-2.28-.85-.81-.16-1.77-.24-2.89-.24M288.79,70.4h-2.84v6.86h2.44c.76,0,1.43-.07,2-.2s1.05-.38,1.45-.75c.37-.34.64-.73.81-1.18.17-.44.26-1.01.26-1.69,0-.52-.09-.98-.27-1.39-.18-.4-.49-.74-.91-1.02-.35-.24-.77-.4-1.25-.49-.48-.09-1.05-.14-1.7-.14M271.26,70.03c-1.85,0-3.3.64-4.35,1.92-1.05,1.28-1.58,3.1-1.58,5.46s.54,4.21,1.61,5.47c1.07,1.27,2.51,1.9,4.32,1.9s3.25-.63,4.32-1.9c1.07-1.26,1.61-3.09,1.61-5.47s-.53-4.18-1.59-5.46c-1.06-1.28-2.5-1.92-4.33-1.92M299.11,79.65v-2.21h7.62v2.21h-7.62M160.76,75.25c.62-1.75,2.28-3,4.24-3s3.63,1.25,4.24,3h20.76v3h-20.76c-.62,1.75-2.28,3-4.24,3s-3.63-1.25-4.24-3h-20.76v-3h20.76M195.32,86.5l6.62-18.18h3.22l6.62,18.18h-2.58l-1.78-5.07h-7.86l-1.78,5.07h-2.45M226.14,83.17v-14.84h2.26v18.18h-2.99l-8.62-16.26v16.26h-2.26v-18.18h3.75l7.86,14.84M233.23,86.5v-18.18h4.54c1.77,0,3.18.13,4.23.38,1.05.26,1.93.61,2.66,1.06,1.24.77,2.2,1.8,2.89,3.09.69,1.29,1.04,2.81,1.04,4.58,0,1.65-.36,3.15-1.08,4.49-.72,1.34-1.68,2.38-2.87,3.13-.83.51-1.76.88-2.78,1.11-1.02.23-2.37.34-4.03.34h-4.59M283.53,86.5v-18.18h5.09c1.1,0,2.01.07,2.75.21.73.14,1.39.4,1.98.76.66.41,1.17.94,1.54,1.57s.56,1.43.56,2.4c0,1.31-.33,2.41-.99,3.29s-1.57,1.55-2.72,1.99l6.84,7.95h-3.14l-6.08-7.23h-3.41v7.23h-2.42M311.04,86.5v-18.18h2.42v16.03h9.08v2.15h-11.5M344.46,75.45h9.07v-7.13h2.42v18.18h-2.42v-8.9h-9.07v8.9h-2.42v-18.18h2.42v7.13M330.9,84.74c1.5,0,2.66-.28,3.5-.84.83-.56,1.25-1.31,1.25-2.25,0-.81-.2-1.4-.59-1.78-.4-.38-1-.68-1.8-.89-.61-.16-1.27-.3-1.98-.4-.71-.11-1.47-.24-2.26-.4-1.61-.34-2.81-.93-3.58-1.75-.78-.83-1.17-1.9-1.17-3.23,0-1.52.64-2.77,1.93-3.74,1.29-.97,2.92-1.46,4.9-1.46,1.28,0,2.45.12,3.52.37,1.07.24,2.01.54,2.83.9v2.86h-.17c-.69-.59-1.6-1.07-2.73-1.46-1.13-.39-2.28-.58-3.46-.58-1.29,0-2.33.27-3.12.8-.79.54-1.18,1.23-1.18,2.08,0,.76.2,1.35.59,1.78.39.43,1.08.76,2.06.99.52.11,1.26.25,2.22.42.96.16,1.77.33,2.44.5,1.35.36,2.37.9,3.05,1.62.68.72,1.03,1.74,1.03,3.04,0,.71-.17,1.41-.49,2.1-.33.69-.79,1.28-1.39,1.76-.65.52-1.41.93-2.28,1.22-.87.29-1.91.44-3.13.44-1.31,0-2.49-.12-3.53-.37-1.05-.24-2.11-.61-3.19-1.09v-3.03h.17c.92.76,1.98,1.36,3.19,1.77,1.2.42,2.34.62,3.39.62M271.25,86.88c-1.28,0-2.44-.21-3.49-.63s-1.93-1.04-2.67-1.84c-.73-.81-1.3-1.79-1.69-2.97-.4-1.17-.59-2.51-.59-4.02s.2-2.81.59-3.99c.39-1.18.96-2.18,1.71-3.02.72-.8,1.61-1.41,2.67-1.83,1.06-.42,2.22-.63,3.47-.63s2.47.21,3.51.64,1.92,1.04,2.64,1.83c.74.81,1.31,1.81,1.7,2.99.39,1.18.59,2.52.59,4.02s-.2,2.84-.6,4.02-.97,2.17-1.69,2.96c-.75.82-1.63,1.44-2.66,1.86-1.02.42-2.19.62-3.5.62M260.55,67.51h0l-8.75,22.71h-2.11l8.72-22.71h2.15M499.86,59H135v35.5h364.86v-35.5Z" style="fill: none;"/>
    </clipPath>
  </defs>
  <polyline points="0 0 800 0 800 620 0 620 0 0" style="fill: #fff;"/>
  <polyline points="210.22 0 210.22 540 211.22 540 211.22 0 210.22 0" style="fill: #eee;"/>
  <polyline points="320.82 0 320.82 540 321.82 540 321.82 0 320.82 0" style="fill: #eee;"/>
  <polyline points="406.61 0 406.61 540 407.61 540 407.61 0 406.61 0" style="fill: #eee;"/>
  <polyline points="476.7 0 476.7 540 477.7 540 477.7 0 476.7 0" style="fill: #eee;"/>
  <polyline points="535.96 0 535.96 540 536.96 540 536.96 0" style="fill: #eee;"/>
  <polyline points="587.3 0 587.3 540 588.3 540 588.3 0" style="fill: #eee;"/>
  <polyline points="632.58 0 632.58 540 633.58 540 633.58 0" style="fill: #eee;"/>
  <polyline points="673.09 0 673.09 540 674.09 540 674.09 0 673.09 0" style="fill: #eee;"/>
  <polyline points="709.73 0 709.73 540 710.73 540 710.73 0 709.73 0" style="fill: #eee;"/>
  <polyline points="743.18 0 743.18 540 744.18 540 744.18 0 743.18 0" style="fill: #eee;"/>
  <polyline points="773.95 0 773.95 540 774.95 540 774.95 0 773.95 0" style="fill: #eee;"/>
  <polyline points="100 532.48 800 532.48 800 531.48 100 531.48" style="fill: #eee;"/>
  <polyline points="100 512.8 800 512.8 800 511.8 100 511.8" style="fill: #eee;"/>
  <polyline points="100 495.44 800 495.44 800 494.44 100 494.44" style="fill: #eee;"/>
  <polyline points="100 479.91 800 479.91 800 478.91 100 478.91" style="fill: #eee;"/>
  <polyline points="100 377.74 800 377.74 800 376.74 100 376.74" style="fill: #eee;"/>
  <polyline points="100 317.98 800 317.98 800 316.98 100 316.98" style="fill: #eee;"/>
  <polyline points="100 275.58 800 275.58 800 274.58 100 274.58" style="fill: #eee;"/>
  <polyline points="100 242.69 800 242.69 800 241.69 100 241.69" style="fill: #eee;"/>
  <polyline points="100 215.82 800 215.82 800 214.82 100 214.82" style="fill: #eee;"/>
  <polyline points="100 193.1 800 193.1 800 192.1 100 192.1 100 193.1" style="fill: #eee;"/>
  <polyline points="100 173.42 800 173.42 800 172.42 100 172.42 100 173.42" style="fill: #eee;"/>
  <polyline points="100 156.06 800 156.06 800 155.06 100 155.06 100 156.06" style="fill: #eee;"/>
  <polyline points="100 140.53 800 140.53 800 139.53 100 139.53 100 140.53" style="fill: #eee;"/>
  <polyline points="100 38.36 800 38.36 800 37.36 100 37.36" style="fill: #eee;"/>
  <g style="clip-path: url(#clippath);">
    <g>
      <polygon points="141.21 502.81 407.88 391.57 563.78 268.05 674.3 217.32 760.17 164.38 758.59 161.82 672.88 214.68 562.2 265.47 406.34 388.97 140.05 500.05 141.21 502.81" style="fill: #1f77b4;"/>
      <circle cx="140.63" cy="501.43" r="4.5" style="fill: #1f77b4;"/>
      <circle cx="407.11" cy="390.27" r="4.5" style="fill: #1f77b4;"/>
      <circle cx="562.99" cy="266.76" r="4.5" style="fill: #1f77b4;"/>
      <circle cx="673.59" cy="216" r="4.5" style="fill: #1f77b4;"/>
      <circle cx="759.38" cy="163.1" r="4.5" style="fill: #1f77b4;"/>
      <path d="M759.56,169.22l.55-.31-1.46-2.62-.55.31,1.46,2.62ZM754.32,172.14l2.62-1.46-1.46-2.62-2.62,1.46,1.46,2.62ZM749.09,175.06l2.62-1.46-1.46-2.62-2.62,1.46,1.46,2.62ZM743.85,177.99l2.62-1.46-1.46-2.62-2.62,1.46,1.46,2.62ZM738.61,180.91l2.62-1.46-1.46-2.62-2.62,1.46,1.46,2.62ZM733.37,183.84l2.62-1.46-1.46-2.62-2.62,1.46,1.46,2.62ZM728.13,186.76l2.62-1.46-1.46-2.62-2.62,1.46,1.46,2.62ZM722.89,189.69l2.62-1.46-1.46-2.62-2.62,1.46,1.46,2.62ZM717.65,192.61l2.62-1.46-1.46-2.62-2.62,1.46,1.46,2.62ZM712.41,195.54l2.62-1.46-1.46-2.62-2.62,1.46,1.46,2.62ZM707.17,198.46l2.62-1.46-1.46-2.62-2.62,1.46,1.46,2.62ZM701.93,201.39l2.62-1.46-1.46-2.62-2.62,1.46,1.46,2.62ZM696.7,204.31l2.62-1.46-1.46-2.62-2.62,1.46,1.46,2.62ZM691.46,207.23l2.62-1.46-1.46-2.62-2.62,1.46,1.46,2.62ZM686.22,210.16l2.62-1.46-1.46-2.62-2.62,1.46,1.46,2.62ZM680.98,213.08l2.62-1.46-1.46-2.62-2.62,1.46,1.46,2.62ZM675.74,216.01l2.62-1.46-1.46-2.62-2.62,1.46,1.46,2.62ZM670.5,218.93l2.62-1.46-1.46-2.62-2.62,1.46,1.46,2.62ZM665.26,221.86l2.62-1.46-1.46-2.62-2.62,1.46,1.46,2.62ZM660.02,224.78l2.62-1.46-1.46-2.62-2.62,1.46,1.46,2.62ZM654.78,227.71l2.62-1.46-1.46-2.62-2.62,1.46,1.46,2.62ZM649.54,230.63l2.62-1.46-1.46-2.62-2.62,1.46,1.46,2.62ZM644.31,233.56l2.62-1.46-1.46-2.62-2.62,1.46,1.46,2.62ZM639.07,236.48l2.62-1.46-1.46-2.62-2.62,1.46,1.46,2.62ZM633.83,239.4l2.62-1.46-1.46-2.62-2.62,1.46,1.46,2.62ZM628.59,242.33l2.62-1.46-1.46-2.62-2.62,1.46,1.46,2.62ZM623.35,245.25l2.62-1.46-1.46-2.62-2.62,1.46,1.46,2.62ZM618.11,248.18l2.62-1.46-1.46-2.62-2.62,1.46,1.46,2.62ZM612.87,251.1l2.62-1.46-1.46-2.62-2.62,1.46,1.46,2.62ZM607.63,254.03l2.62-1.46-1.46-2.62-2.62,1.46,1.46,2.62ZM602.39,256.95l2.62-1.46-1.46-2.62-2.62,1.46,1.46,2.62ZM597.15,259.88l2.62-1.46-1.46-2.62-2.62,1.46,1.46,2.62ZM591.92,262.8l2.62-1.46-1.46-2.62-2.62,1.46,1.46,2.62ZM586.68,265.72l2.62-1.46-1.46-2.62-2.62,1.46,1.46,2.62ZM581.44,268.65l2.62-1.46-1.46-2.62-2.62,1.46,1.46,2.62ZM576.2,271.57l2.62-1.46-1.46-2.62-2.62,1.46,1.46,2.62ZM570.96,274.5l2.62-1.46-1.46-2.62-2.62,1.46,1.46,2.62ZM565.72,277.42l2.62-1.46-1.46-2.62-2.62,1.46,1.46,2.62ZM560.48,280.35l2.62-1.46-1.46-2.62-2.62,1.46,1.46,2.62ZM555.24,283.27l2.62-1.46-1.46-2.62-2.62,1.46,1.46,2.62ZM550,286.2l2.62-1.46-1.46-2.62-2.62,1.46,1.46,2.62ZM544.76,289.12l2.62-1.46-1.46-2.62-2.62,1.46,1.46,2.62ZM539.53,292.05l2.62-1.46-1.46-2.62-2.62,1.46,1.46,2.62ZM534.29,294.97l2.62-1.46-1.46-2.62-2.62,1.46,1.46,2.62ZM529.05,297.89l2.62-1.46-1.46-2.62-2.62,1.46,1.46,2.62ZM523.81,300.82l2.62-1.46-1.46-2.62-2.62,1.46,1.46,2.62ZM518.57,303.74l2.62-1.46-1.46-2.62-2.62,1.46,1.46,2.62ZM513.33,306.67l2.62-1.46-1.46-2.62-2.62,1.46,1.46,2.62ZM508.09,309.59l2.62-1.46-1.46-2.62-2.62,1.46,1.46,2.62ZM502.85,312.52l2.62-1.46-1.46-2.62-2.62,1.46,1.46,2.62ZM497.61,315.44l2.62-1.46-1.46-2.62-2.62,1.46,1.46,2.62ZM492.37,318.37l2.62-1.46-1.46-2.62-2.62,1.46,1.46,2.62ZM487.14,321.29l2.62-1.46-1.46-2.62-2.62,1.46,1.46,2.62ZM481.9,324.22l2.62-1.46-1.46-2.62-2.62,1.46,1.46,2.62ZM476.66,327.14l2.62-1.46-1.46-2.62-2.62,1.46,1.46,2.62ZM471.42,330.06l2.62-1.46-1.46-2.62-2.62,1.46,1.46,2.62ZM466.18,332.99l2.62-1.46-1.46-2.62-2.62,1.46,1.46,2.62ZM460.94,335.91l2.62-1.46-1.46-2.62-2.62,1.46,1.46,2.62ZM455.7,338.84l2.62-1.46-1.46-2.62-2.62,1.46,1.46,2.62ZM450.46,341.76l2.62-1.46-1.46-2.62-2.62,1.46,1.46,2.62ZM445.22,344.69l2.62-1.46-1.46-2.62-2.62,1.46,1.46,2.62ZM439.98,347.61l2.62-1.46-1.46-2.62-2.62,1.46,1.46,2.62ZM434.75,350.54l2.62-1.46-1.46-2.62-2.62,1.46,1.46,2.62ZM429.51,353.46l2.62-1.46-1.46-2.62-2.62,1.46,1.46,2.62ZM424.27,356.39l2.62-1.46-1.46-2.62-2.62,1.46,1.46,2.62ZM419.03,359.31l2.62-1.46-1.46-2.62-2.62,1.46,1.46,2.62ZM413.79,362.23l2.62-1.46-1.46-2.62-2.62,1.46,1.46,2.62ZM408.55,365.16l2.62-1.46-1.46-2.62-2.62,1.46,1.46,2.62ZM403.31,368.08l2.62-1.46-1.46-2.62-2.62,1.46,1.46,2.62ZM398.07,371.01l2.62-1.46-1.46-2.62-2.62,1.46,1.46,2.62ZM392.83,373.93l2.62-1.46-1.46-2.62-2.62,1.46,1.46,2.62ZM387.59,376.86l2.62-1.46-1.46-2.62-2.62,1.46,1.46,2.62ZM382.36,379.78l2.62-1.46-1.46-2.62-2.62,1.46,1.46,2.62ZM377.12,382.71l2.62-1.46-1.46-2.62-2.62,1.46,1.46,2.62ZM371.88,385.63l2.62-1.46-1.46-2.62-2.62,1.46,1.46,2.62ZM366.64,388.56l2.62-1.46-1.46-2.62-2.62,1.46,1.46,2.62ZM361.4,391.48l2.62-1.46-1.46-2.62-2.62,1.46,1.46,2.62ZM356.16,394.4l2.62-1.46-1.46-2.62-2.62,1.46,1.46,2.62ZM350.92,397.33l2.62-1.46-1.46-2.62-2.62,1.46,1.46,2.62ZM345.68,400.25l2.62-1.46-1.46-2.62-2.62,1.46,1.46,2.62ZM340.44,403.18l2.62-1.46-1.46-2.62-2.62,1.46,1.46,2.62ZM335.2,406.1l2.62-1.46-1.46-2.62-2.62,1.46,1.46,2.62ZM329.97,409.03l2.62-1.46-1.46-2.62-2.62,1.46,1.46,2.62ZM324.73,411.95l2.62-1.46-1.46-2.62-2.62,1.46,1.46,2.62ZM319.49,414.88l2.62-1.46-1.46-2.62-2.62,1.46,1.46,2.62ZM314.25,417.8l2.62-1.46-1.46-2.62-2.62,1.46,1.46,2.62ZM309.01,420.72l2.62-1.46-1.46-2.62-2.62,1.46,1.46,2.62ZM303.77,423.65l2.62-1.46-1.46-2.62-2.62,1.46,1.46,2.62ZM298.53,426.57l2.62-1.46-1.46-2.62-2.62,1.46,1.46,2.62ZM293.29,429.5l2.62-1.46-1.46-2.62-2.62,1.46,1.46,2.62ZM288.05,432.42l2.62-1.46-1.46-2.62-2.62,1.46,1.46,2.62ZM282.81,435.35l2.62-1.46-1.46-2.62-2.62,1.46,1.46,2.62ZM277.58,438.27l2.62-1.46-1.46-2.62-2.62,1.46,1.46,2.62ZM272.34,441.2l2.62-1.46-1.46-2.62-2.62,1.46,1.46,2.62ZM267.1,444.12l2.62-1.46-1.46-2.62-2.62,1.46,1.46,2.62ZM261.86,447.05l2.62-1.46-1.46-2.62-2.62,1.46,1.46,2.62ZM256.62,449.97l2.62-1.46-1.46-2.62-2.62,1.46,1.46,2.62ZM251.38,452.89l2.62-1.46-1.46-2.62-2.62,1.46,1.46,2.62ZM246.14,455.82l2.62-1.46-1.46-2.62-2.62,1.46,1.46,2.62ZM240.9,458.74l2.62-1.46-1.46-2.62-2.62,1.46,1.46,2.62ZM235.66,461.67l2.62-1.46-1.46-2.62-2.62,1.46,1.46,2.62ZM230.42,464.59l2.62-1.46-1.46-2.62-2.62,1.46,1.46,2.62ZM225.19,467.52l2.62-1.46-1.46-2.62-2.62,1.46,1.46,2.62ZM219.95,470.44l2.62-1.46-1.46-2.62-2.62,1.46,1.46,2.62ZM214.71,473.37l2.62-1.46-1.46-2.62-2.62,1.46,1.46,2.62ZM209.47,476.29l2.62-1.46-1.46-2.62-2.62,1.46,1.46,2.62ZM204.23,479.22l2.62-1.46-1.46-2.62-2.62,1.46,1.46,2.62ZM198.99,482.14l2.62-1.46-1.46-2.62-2.62,1.46,1.46,2.62ZM193.75,485.06l2.62-1.46-1.46-2.62-2.62,1.46,1.46,2.62ZM188.51,487.99l2.62-1.46-1.46-2.62-2.62,1.46,1.46,2.62ZM183.27,490.91l2.62-1.46-1.46-2.62-2.62,1.46,1.46,2.62ZM178.03,493.84l2.62-1.46-1.46-2.62-2.62,1.46,1.46,2.62ZM172.8,496.76l2.62-1.46-1.46-2.62-2.62,1.46,1.46,2.62ZM167.56,499.69l2.62-1.46-1.46-2.62-2.62,1.46,1.46,2.62ZM162.32,502.61l2.62-1.46-1.46-2.62-2.62,1.46,1.46,2.62ZM157.08,505.54l2.62-1.46-1.46-2.62-2.62,1.46,1.46,2.62ZM151.84,508.46l2.62-1.46-1.46-2.62-2.62,1.46,1.46,2.62ZM146.6,511.39l2.62-1.46-1.46-2.62-2.62,1.46,1.46,2.62ZM141.36,514.31l2.62-1.46-1.46-2.62-2.62,1.46,1.46,2.62Z" style="fill: gray;"/>
      <path d="M755.77,31.66l4.53-3.47-1.83-2.38-4.53,3.47,1.83,2.38ZM741.48,42.61l7.14-5.48-1.83-2.38-7.14,5.48,1.83,2.38ZM727.2,53.57l7.14-5.48-1.83-2.38-7.14,5.48,1.83,2.38ZM712.91,64.52l7.14-5.48-1.83-2.38-7.14,5.48,1.83,2.38ZM698.63,75.47l7.14-5.48-1.83-2.38-7.14,5.48,1.83,2.38ZM684.35,86.42l7.14-5.48-1.83-2.38-7.14,5.48,1.83,2.38ZM670.06,97.38l7.14-5.48-1.83-2.38-7.14,5.48,1.83,2.38ZM655.78,108.33l7.14-5.48-1.83-2.38-7.14,5.48,1.83,2.38ZM641.49,119.28l7.14-5.48-1.83-2.38-7.14,5.48,1.83,2.38ZM627.21,130.23l7.14-5.48-1.83-2.38-7.14,5.48,1.83,2.38ZM612.92,141.19l7.14-5.48-1.83-2.38-7.14,5.48,1.83,2.38ZM598.64,152.14l7.14-5.48-1.83-2.38-7.14,5.48,1.83,2.38ZM584.36,163.09l7.14-5.48-1.83-2.38-7.14,5.48,1.83,2.38ZM570.07,174.04l7.14-5.48-1.83-2.38-7.14,5.48,1.83,2.38ZM555.79,185l7.14-5.48-1.83-2.38-7.14,5.48,1.83,2.38ZM541.5,195.95l7.14-5.48-1.83-2.38-7.14,5.48,1.83,2.38ZM527.22,206.9l7.14-5.48-1.83-2.38-7.14,5.48,1.83,2.38ZM512.93,217.85l7.14-5.48-1.83-2.38-7.14,5.48,1.83,2.38ZM498.65,228.81l7.14-5.48-1.83-2.38-7.14,5.48,1.83,2.38ZM484.37,239.76l7.14-5.48-1.83-2.38-7.14,5.48,1.83,2.38ZM470.08,250.71l7.14-5.48-1.83-2.38-7.14,5.48,1.83,2.38ZM455.8,261.66l7.14-5.48-1.83-2.38-7.14,5.48,1.83,2.38ZM441.51,272.62l7.14-5.48-1.83-2.38-7.14,5.48,1.83,2.38ZM427.23,283.57l7.14-5.48-1.83-2.38-7.14,5.48,1.83,2.38ZM412.94,294.52l7.14-5.48-1.83-2.38-7.14,5.48,1.83,2.38ZM398.66,305.47l7.14-5.48-1.83-2.38-7.14,5.48,1.83,2.38ZM384.38,316.43l7.14-5.48-1.83-2.38-7.14,5.48,1.83,2.38ZM370.09,327.38l7.14-5.48-1.83-2.38-7.14,5.48,1.83,2.38ZM355.81,338.33l7.14-5.48-1.83-2.38-7.14,5.48,1.83,2.38ZM341.52,349.28l7.14-5.48-1.83-2.38-7.14,5.48,1.83,2.38ZM327.24,360.24l7.14-5.48-1.83-2.38-7.14,5.48,1.83,2.38ZM312.95,371.19l7.14-5.48-1.83-2.38-7.14,5.48,1.83,2.38ZM298.67,382.14l7.14-5.48-1.83-2.38-7.14,5.48,1.83,2.38ZM284.39,393.09l7.14-5.48-1.83-2.38-7.14,5.48,1.83,2.38ZM270.1,404.05l7.14-5.48-1.83-2.38-7.14,5.48,1.83,2.38ZM255.82,415l7.14-5.48-1.83-2.38-7.14,5.48,1.83,2.38h0ZM241.53,425.95l7.14-5.48-1.83-2.38-7.14,5.48,1.83,2.38ZM227.25,436.9l7.14-5.48-1.83-2.38-7.14,5.48,1.83,2.38ZM212.96,447.86l7.14-5.48-1.83-2.38-7.14,5.48,1.83,2.38ZM198.68,458.81l7.14-5.48-1.83-2.38-7.14,5.48,1.83,2.38ZM184.4,469.76l7.14-5.48-1.83-2.38-7.14,5.48,1.83,2.38ZM170.11,480.72l7.14-5.48-1.83-2.38-7.14,5.48,1.83,2.38ZM155.83,491.67l7.14-5.48-1.83-2.38-7.14,5.48,1.83,2.38ZM141.54,502.62l7.14-5.48-1.83-2.38-7.14,5.48,1.83,2.38Z" style="fill: #2ca02c;"/>
      <path d="M754.24,242.51l5.73-2.41-1.17-2.76-5.73,2.41,1.17,2.76ZM737.65,249.5l8.29-3.5-1.17-2.76-8.29,3.5,1.17,2.76ZM721.06,256.49l8.29-3.5-1.17-2.76-8.29,3.5,1.17,2.76ZM704.48,263.49l8.29-3.5-1.17-2.76-8.29,3.5,1.17,2.76ZM687.89,270.48l8.29-3.5-1.17-2.76-8.29,3.5,1.17,2.76ZM671.31,277.47l2.87-1.21,5.42-2.29-1.17-2.76-5.42,2.29-2.87,1.21,1.17,2.76ZM654.73,284.48l8.29-3.5-1.17-2.76-8.29,3.5,1.17,2.76ZM638.15,291.49l8.29-3.5-1.17-2.76-8.29,3.5,1.17,2.76ZM621.57,298.5l8.29-3.5-1.17-2.76-8.29,3.5,1.17,2.76ZM604.99,305.51l8.29-3.5-1.17-2.76-8.29,3.5,1.17,2.76ZM588.41,312.51l8.29-3.5-1.17-2.76-8.29,3.5,1.17,2.76ZM571.83,319.52l8.29-3.5-1.17-2.76-8.29,3.5,1.17,2.76ZM555.26,326.55l8.28-3.53-1.18-2.76-8.28,3.53,1.18,2.76ZM538.7,333.6l8.28-3.53-1.18-2.76-8.28,3.53,1.18,2.76ZM522.14,340.65l8.28-3.53-1.18-2.76-8.28,3.53,1.18,2.76ZM505.58,347.7l8.28-3.53-1.18-2.76-8.28,3.53,1.18,2.76ZM489.01,354.75l8.28-3.53-1.18-2.76-8.28,3.53,1.18,2.76ZM472.45,361.8l8.28-3.53-1.18-2.76-8.28,3.53,1.18,2.76ZM455.89,368.85l8.28-3.53-1.18-2.76-8.28,3.53,1.18,2.76ZM439.33,375.9l8.28-3.53-1.18-2.76-8.28,3.53,1.18,2.76ZM422.77,382.95l8.28-3.53-1.18-2.76-8.28,3.53,1.18,2.76ZM406.21,390l8.28-3.53-1.18-2.76-8.28,3.53,1.18,2.76ZM389.64,397.05l8.28-3.53-1.18-2.76-8.28,3.53,1.18,2.76ZM373.08,404.1l8.28-3.53-1.18-2.76-8.28,3.53,1.18,2.76ZM356.52,411.16l8.28-3.53-1.18-2.76-8.28,3.53,1.18,2.76ZM339.96,418.21l8.28-3.53-1.18-2.76-8.28,3.53,1.18,2.76ZM323.4,425.26l8.28-3.53-1.18-2.76-8.28,3.53,1.18,2.76ZM306.84,432.31l8.28-3.53-1.18-2.76-8.28,3.53,1.18,2.76ZM290.27,439.36l8.28-3.53-1.18-2.76-8.28,3.53,1.18,2.76ZM273.71,446.41l8.28-3.53-1.18-2.76-8.28,3.53,1.18,2.76ZM257.15,453.46l8.28-3.53-1.18-2.76-8.28,3.53,1.18,2.76ZM240.59,460.51l8.28-3.53-1.18-2.76-8.28,3.53,1.18,2.76ZM224.03,467.56l8.28-3.53-1.18-2.76-8.28,3.53,1.18,2.76ZM207.46,474.61l8.28-3.53-1.18-2.76-8.28,3.53,1.18,2.76ZM190.9,481.66l8.28-3.53-1.18-2.76-8.28,3.53,1.18,2.76ZM174.34,488.71l8.28-3.53-1.18-2.76-8.28,3.53,1.18,2.76ZM157.78,495.76l8.28-3.53-1.18-2.76-8.28,3.53,1.18,2.76ZM141.22,502.81l8.28-3.53-1.18-2.76-8.28,3.53,1.18,2.76Z" style="fill: #d62728;"/>
    </g>
  </g>
  <path d="M223.66,561.76l6.22-1.65-1.8-1.04-6.59,1.87,4.39-7.6-1.43-.83-6.84,11.84,1.43.83,1.64-2.84,1.44-.35,1.26,5.69,1.89,1.09-1.6-7.02h0ZM214.08,560.09c-.68.21-1.39.1-2.12-.33-.32-.18-.59-.41-.8-.67s-.37-.57-.47-.93c-.13-.44-.15-.93-.05-1.49.1-.56.39-1.24.85-2.04.09-.16.17-.29.23-.39.07-.1.14-.21.21-.31.51.01.99.08,1.41.19s.86.29,1.29.54c.31.18.59.38.85.59s.45.47.59.77c.19.41.26.82.22,1.21s-.19.82-.47,1.29c-.49.84-1.07,1.37-1.75,1.57h0ZM218.06,557.44c.05-.6-.06-1.19-.33-1.75-.23-.49-.5-.89-.82-1.19s-.72-.59-1.2-.87c-.54-.31-1.06-.52-1.55-.63s-1.02-.15-1.6-.14c.78-1.1,1.69-1.8,2.73-2.11s2.11-.15,3.2.48c.3.17.57.38.82.61s.42.43.52.59l.08.04.84-1.45c-.17-.19-.35-.35-.54-.49-.19-.14-.43-.3-.73-.47-.94-.54-1.85-.86-2.74-.94s-1.73.03-2.5.35c-.82.33-1.56.82-2.23,1.47-.66.65-1.29,1.48-1.87,2.49-.57.98-.93,1.88-1.1,2.72-.17.83-.15,1.58.04,2.26.15.54.41,1.03.77,1.47.36.44.81.82,1.37,1.14,1.1.63,2.24.81,3.42.52s2.1-1.01,2.77-2.16c.39-.68.61-1.31.65-1.92v-.02Z" style="fill: #444;"/>
  <path d="M334.26,561.76l6.22-1.65-1.8-1.04-6.59,1.87,4.39-7.6-1.43-.83-6.84,11.84,1.43.83,1.64-2.84,1.44-.35,1.26,5.69,1.89,1.09-1.6-7.02h-.01ZM324.4,560.24c-.66.12-1.37-.03-2.11-.46-.73-.42-1.2-.99-1.41-1.71-.21-.72-.12-1.42.27-2.11.31-.54.73-.94,1.25-1.21s1.08-.39,1.68-.38c.37.45.67.8.9,1.06.23.26.43.52.6.76.43.63.67,1.15.72,1.54.04.4-.07.83-.34,1.3-.38.67-.91,1.06-1.57,1.18v.03ZM328.01,554.33c-.4.25-.95.4-1.64.44-.28-.29-.55-.61-.82-.96-.27-.35-.47-.63-.6-.83-.3-.45-.47-.86-.52-1.25-.05-.38.03-.76.24-1.12.3-.52.74-.81,1.32-.88s1.2.08,1.84.45c.65.38,1.09.85,1.32,1.41s.19,1.12-.12,1.66c-.27.47-.61.83-1.01,1.08h0ZM328.05,557.79c-.12-.66-.44-1.35-.98-2.07l.03-.04c.78.08,1.47-.04,2.08-.35.6-.31,1.06-.72,1.35-1.23.48-.84.54-1.72.18-2.65-.36-.93-1.11-1.73-2.24-2.38-1.08-.62-2.14-.85-3.16-.69s-1.79.67-2.28,1.52c-.33.58-.47,1.14-.4,1.7.07.55.31,1.17.74,1.85l-.03.04c-.84-.08-1.59.02-2.25.32s-1.17.76-1.53,1.39c-.57.99-.68,2.01-.31,3.07.36,1.05,1.16,1.94,2.39,2.65,1.16.67,2.3.9,3.44.69s1.99-.8,2.56-1.78c.4-.69.54-1.37.42-2.03h-.01Z" style="fill: #444;"/>
  <path d="M429.96,567.48l6.22-1.65-1.8-1.04-6.59,1.87,4.39-7.6-1.43-.83-6.84,11.84,1.43.83,1.64-2.84,1.44-.35,1.26,5.69,1.89,1.09-1.6-7.02h-.01ZM419.43,565.75c-.43.02-.88-.11-1.36-.39-.51-.29-.85-.63-1.04-1.02-.19-.38-.25-.82-.19-1.32.06-.53.22-1.07.47-1.64.25-.56.61-1.24,1.06-2.04.42-.72.83-1.36,1.24-1.93s.81-.99,1.2-1.26c.41-.3.83-.45,1.26-.47.43-.02.88.11,1.35.39.48.28.82.61,1.01.98.19.38.27.81.22,1.3-.05.5-.2,1.05-.47,1.66-.26.6-.62,1.29-1.06,2.06-.45.78-.87,1.43-1.25,1.95s-.78.93-1.2,1.24c-.4.3-.82.46-1.25.48h0ZM426.29,558.01c-.06-1.34-.77-2.4-2.13-3.19-1.34-.78-2.61-.87-3.8-.27s-2.37,1.9-3.53,3.92c-1.15,2-1.7,3.66-1.63,4.99s.78,2.38,2.15,3.17c1.34.77,2.6.87,3.79.29s2.37-1.89,3.54-3.93c1.14-1.97,1.68-3.63,1.61-4.97h0ZM411.53,561.4l-2.31-1.34,5.9-10.21-1.18-.68c-.21.32-.44.54-.69.65-.25.12-.52.17-.83.16-.25,0-.57-.09-.96-.25-.4-.16-.75-.33-1.07-.51l-.6,1.04,2.36,1.36-4.39,7.6-2.36-1.36-.67,1.16,6.14,3.54.67-1.16h-.01Z" style="fill: #444;"/>
  <path d="M500.05,567.48l6.22-1.65-1.8-1.04-6.59,1.87,4.39-7.6-1.43-.83-6.84,11.84,1.43.83,1.64-2.84,1.44-.35,1.26,5.69,1.89,1.09-1.6-7.02h-.01ZM492.26,567.35l-6.1-3.52c.75-.14,1.56-.29,2.42-.45.87-.16,1.73-.36,2.58-.58.59-.15,1.11-.3,1.55-.45s.85-.33,1.23-.53c.41-.21.77-.47,1.1-.78.32-.31.61-.68.86-1.11.55-.96.66-1.91.33-2.85-.34-.94-1.09-1.75-2.25-2.42-.56-.33-1.19-.59-1.87-.79s-1.26-.31-1.72-.35l-.92,1.6.08.04c.71-.04,1.37.02,2.01.16s1.18.36,1.64.62c.7.4,1.14.88,1.34,1.44.2.56.12,1.13-.22,1.72-.37.64-.9,1.14-1.58,1.49s-1.78.71-3.3,1.09c-.72.19-1.48.35-2.28.5s-1.6.3-2.39.45l-.92,1.59,7.67,4.43.75-1.3h0ZM481.62,561.4l-2.31-1.34,5.9-10.21-1.18-.68c-.21.32-.44.54-.69.65-.25.12-.52.17-.83.16-.25,0-.57-.09-.96-.25-.4-.16-.75-.33-1.07-.51l-.6,1.04,2.36,1.36-4.39,7.6-2.36-1.36-.67,1.16,6.14,3.54.67-1.16h-.01Z" style="fill: #444;"/>
  <path d="M559.31,567.48l6.22-1.65-1.8-1.04-6.59,1.87,4.39-7.6-1.43-.83-6.84,11.84,1.43.83,1.64-2.84,1.44-.35,1.26,5.69,1.89,1.09-1.6-7.02h-.01ZM546.04,560.04l7.34-2.58-2.95,5.12-4.39-2.54ZM553.57,564.4l-1.68-.97,4-6.93-1.4-.81-9.18,3.23-1.01,1.75,5.43,3.13-1.84,3.19,1.46.84,1.84-3.19,1.68.97.7-1.22h0ZM540.88,561.4l-2.31-1.34,5.9-10.21-1.18-.68c-.21.32-.44.54-.69.65-.25.12-.52.17-.83.16-.25,0-.57-.09-.96-.25-.4-.16-.75-.33-1.07-.51l-.6,1.04,2.36,1.36-4.39,7.6-2.36-1.36-.67,1.16,6.14,3.54.67-1.16h-.01Z" style="fill: #444;"/>
  <path d="M610.65,567.48l6.22-1.65-1.8-1.04-6.59,1.87,4.39-7.6-1.43-.83-6.84,11.84,1.43.83,1.64-2.84,1.44-.35,1.26,5.69,1.89,1.09-1.6-7.02h-.01ZM601.07,565.82c-.68.21-1.39.1-2.12-.33-.32-.18-.59-.41-.8-.67s-.37-.57-.47-.93c-.13-.44-.15-.93-.05-1.49.1-.56.39-1.24.85-2.04.09-.16.17-.29.23-.39.07-.1.14-.21.21-.31.51.01.99.07,1.41.19.43.11.86.29,1.29.54.31.18.59.38.85.59s.45.47.59.77c.19.41.26.81.22,1.2-.04.39-.2.82-.47,1.29-.49.84-1.07,1.37-1.75,1.57h.01ZM605.05,563.16c.05-.6-.06-1.19-.33-1.75-.23-.49-.5-.89-.82-1.19s-.72-.59-1.2-.87c-.54-.31-1.06-.52-1.55-.63s-1.02-.15-1.6-.14c.78-1.1,1.69-1.8,2.73-2.11s2.11-.15,3.2.48c.3.17.57.38.82.61s.42.43.52.59l.08.04.84-1.45c-.17-.19-.35-.35-.54-.49s-.43-.3-.73-.47c-.94-.54-1.85-.85-2.75-.94-.89-.08-1.73.03-2.5.35-.82.33-1.56.82-2.23,1.47-.66.65-1.29,1.48-1.87,2.48-.57.98-.93,1.89-1.1,2.72-.17.83-.15,1.58.04,2.26.15.54.41,1.03.77,1.47.36.44.81.81,1.37,1.14,1.1.64,2.24.81,3.42.52s2.1-1.01,2.77-2.16c.39-.67.61-1.31.65-1.92h0ZM592.22,561.4l-2.31-1.34,5.9-10.21-1.18-.68c-.21.32-.44.54-.69.65-.25.12-.52.17-.83.16-.25,0-.57-.09-.96-.25-.4-.16-.75-.33-1.07-.51l-.6,1.04,2.36,1.36-4.39,7.6-2.36-1.36-.67,1.16,6.14,3.54.67-1.16h-.01Z" style="fill: #444;"/>
  <path d="M655.93,567.48l6.22-1.65-1.8-1.04-6.59,1.87,4.39-7.6-1.43-.83-6.84,11.84,1.43.83,1.64-2.84,1.44-.35,1.26,5.69,1.89,1.09-1.6-7.02h-.01ZM646.07,565.97c-.66.12-1.37-.03-2.11-.46-.73-.42-1.2-.99-1.41-1.71s-.12-1.42.27-2.11c.31-.54.73-.94,1.25-1.21s1.08-.39,1.68-.38c.37.45.67.8.9,1.06.23.26.43.52.6.77.43.63.67,1.15.72,1.54.04.4-.07.83-.34,1.3-.38.66-.91,1.06-1.57,1.18v.02ZM649.68,560.05c-.4.25-.95.4-1.64.44-.28-.29-.55-.61-.82-.96-.27-.35-.47-.63-.6-.83-.3-.45-.47-.86-.52-1.25-.05-.38.03-.76.24-1.13.3-.52.74-.81,1.32-.88s1.2.08,1.84.45c.65.38,1.09.84,1.32,1.41.23.56.19,1.12-.12,1.66-.27.47-.61.83-1.01,1.08h-.01ZM649.72,563.51c-.12-.66-.44-1.35-.98-2.07l.03-.05c.78.08,1.47-.04,2.08-.35.6-.31,1.06-.72,1.35-1.23.48-.84.54-1.72.18-2.66-.36-.93-1.11-1.72-2.24-2.38-1.08-.62-2.14-.85-3.16-.69-1.03.16-1.79.67-2.28,1.52-.33.58-.47,1.14-.4,1.7.07.55.31,1.17.74,1.85l-.03.05c-.84-.08-1.59.02-2.25.32s-1.17.76-1.53,1.39c-.57.99-.68,2.01-.31,3.07.36,1.05,1.16,1.94,2.39,2.65,1.16.67,2.3.9,3.44.69s1.99-.8,2.56-1.78c.4-.69.54-1.37.42-2.03h0ZM637.5,561.4l-2.31-1.34,5.9-10.21-1.18-.68c-.21.32-.44.54-.69.65-.25.12-.52.17-.83.16-.25,0-.57-.09-.96-.25-.4-.16-.75-.33-1.07-.51l-.6,1.04,2.36,1.36-4.39,7.6-2.36-1.36-.67,1.16,6.14,3.54.67-1.16h-.01Z" style="fill: #444;"/>
  <path d="M696.44,567.48l6.22-1.65-1.8-1.04-6.59,1.87,4.39-7.6-1.43-.83-6.84,11.84,1.43.83,1.64-2.84,1.44-.35,1.26,5.69,1.89,1.09-1.6-7.02h-.01ZM685.91,565.75c-.43.02-.88-.11-1.36-.39-.51-.29-.85-.63-1.04-1.02-.19-.38-.25-.82-.19-1.32.06-.53.22-1.07.47-1.64.25-.56.61-1.24,1.06-2.04.42-.72.83-1.36,1.24-1.93s.81-.99,1.2-1.26c.41-.3.83-.45,1.26-.47.43-.02.88.11,1.35.39.48.28.82.61,1.01.98.19.38.27.81.22,1.3-.05.5-.2,1.05-.47,1.66-.26.6-.62,1.29-1.06,2.06-.45.78-.87,1.43-1.25,1.95s-.78.93-1.2,1.24c-.4.3-.82.46-1.25.48h.01ZM692.77,558.01c-.06-1.34-.77-2.4-2.13-3.19-1.34-.78-2.61-.87-3.8-.27s-2.37,1.9-3.53,3.92c-1.15,2-1.7,3.66-1.63,4.99s.78,2.38,2.15,3.17c1.34.77,2.6.87,3.79.29s2.37-1.89,3.54-3.93c1.14-1.97,1.68-3.63,1.61-4.97h0ZM678.74,561.63l-6.1-3.52c.75-.14,1.56-.29,2.42-.45.87-.17,1.73-.36,2.58-.58.59-.15,1.11-.3,1.55-.45s.85-.33,1.23-.53c.41-.21.77-.47,1.1-.78.32-.31.61-.68.86-1.11.55-.96.66-1.91.33-2.85-.34-.94-1.09-1.75-2.25-2.42-.56-.33-1.19-.59-1.87-.79s-1.26-.32-1.72-.35l-.92,1.6.08.04c.71-.04,1.37.02,2.01.16.63.15,1.18.36,1.64.62.7.4,1.14.88,1.34,1.44s.12,1.13-.22,1.72c-.37.64-.9,1.14-1.58,1.49s-1.78.71-3.3,1.09c-.72.18-1.48.35-2.28.5s-1.6.3-2.39.45l-.92,1.59,7.67,4.43.75-1.3h-.01Z" style="fill: #444;"/>
  <path d="M733.08,567.48l6.22-1.65-1.8-1.04-6.59,1.87,4.39-7.6-1.43-.83-6.84,11.84,1.43.83,1.64-2.84,1.44-.35,1.26,5.69,1.89,1.09-1.6-7.02h-.01ZM725.29,567.35l-6.1-3.52c.75-.14,1.56-.29,2.42-.45.87-.16,1.73-.36,2.58-.58.59-.15,1.11-.3,1.55-.45s.85-.33,1.23-.53c.41-.21.77-.47,1.1-.78.32-.31.61-.68.86-1.11.55-.96.66-1.91.33-2.85-.34-.94-1.09-1.75-2.25-2.42-.56-.33-1.19-.59-1.87-.79s-1.26-.31-1.72-.35l-.92,1.6.08.04c.71-.04,1.37.02,2.01.16s1.18.36,1.64.62c.7.4,1.14.88,1.34,1.44s.12,1.13-.22,1.72c-.37.64-.9,1.14-1.58,1.49s-1.78.71-3.3,1.09c-.72.19-1.48.35-2.28.5-.8.15-1.6.3-2.39.45l-.92,1.59,7.67,4.43.75-1.3h-.01ZM715.38,561.63l-6.1-3.52c.75-.14,1.56-.29,2.42-.45.87-.17,1.73-.36,2.58-.58.59-.15,1.11-.3,1.55-.45s.85-.33,1.23-.53c.41-.21.77-.47,1.1-.78.32-.31.61-.68.86-1.11.55-.96.66-1.91.33-2.85-.34-.94-1.09-1.75-2.25-2.42-.56-.33-1.19-.59-1.87-.79s-1.26-.32-1.72-.35l-.92,1.6.08.04c.71-.04,1.37.02,2.01.16.63.15,1.18.36,1.64.62.7.4,1.14.88,1.34,1.44s.12,1.13-.22,1.72c-.37.64-.9,1.14-1.58,1.49s-1.78.71-3.3,1.09c-.72.18-1.48.35-2.28.5s-1.6.3-2.39.45l-.92,1.59,7.67,4.43.75-1.3h-.01Z" style="fill: #444;"/>
  <path d="M766.53,567.48l6.22-1.65-1.8-1.04-6.59,1.87,4.39-7.6-1.43-.83-6.84,11.84,1.43.83,1.64-2.84,1.44-.35,1.26,5.69,1.89,1.09-1.6-7.02h-.01ZM753.26,560.04l7.34-2.58-2.95,5.12-4.39-2.54ZM760.79,564.4l-1.68-.97,4-6.93-1.4-.81-9.18,3.23-1.01,1.75,5.43,3.13-1.84,3.19,1.46.84,1.84-3.19,1.68.97.7-1.22h0ZM748.83,561.63l-6.1-3.52c.75-.14,1.56-.29,2.42-.45.87-.17,1.73-.36,2.58-.58.59-.15,1.11-.3,1.55-.45s.85-.33,1.23-.53c.41-.21.77-.47,1.1-.78.32-.31.61-.68.86-1.11.55-.96.66-1.91.33-2.85-.34-.94-1.09-1.75-2.25-2.42-.56-.33-1.19-.59-1.87-.79s-1.26-.32-1.72-.35l-.92,1.6.08.04c.71-.04,1.37.02,2.01.16.63.15,1.18.36,1.64.62.7.4,1.14.88,1.34,1.44s.12,1.13-.22,1.72c-.37.64-.9,1.14-1.58,1.49s-1.78.71-3.3,1.09c-.72.18-1.48.35-2.28.5s-1.6.3-2.39.45l-.92,1.59,7.67,4.43.75-1.3h-.01Z" style="fill: #444;"/>
  <path d="M787.04,565.92c-.47,0-.95-.14-1.45-.43-.32-.18-.59-.41-.8-.67-.21-.26-.37-.57-.47-.93-.13-.44-.15-.93-.05-1.49.1-.56.39-1.24.85-2.04.09-.16.17-.29.23-.39.07-.1.14-.2.21-.31.51.01.98.07,1.41.19.43.11.86.29,1.29.54.31.18.59.38.85.59.25.21.45.47.59.77.19.41.26.81.22,1.2-.04.39-.2.82-.47,1.29-.49.84-1.07,1.37-1.75,1.57-.22.07-.45.1-.67.1M789.82,554.81c-.68,0-1.33.12-1.95.37-.82.33-1.56.82-2.23,1.47-.66.65-1.29,1.48-1.87,2.48-.57.98-.93,1.89-1.1,2.72-.17.83-.15,1.58.04,2.26.15.54.41,1.03.77,1.47.36.44.81.81,1.37,1.14.76.44,1.53.66,2.32.66.36,0,.73-.05,1.1-.14,1.18-.29,2.1-1.01,2.77-2.16.39-.67.61-1.31.65-1.92.05-.6-.06-1.19-.33-1.75-.23-.49-.5-.89-.82-1.19s-.72-.59-1.2-.87c-.54-.31-1.06-.52-1.55-.63-.44-.09-.91-.14-1.41-.14h-.19c.78-1.1,1.69-1.8,2.73-2.11.34-.1.69-.15,1.04-.15.71,0,1.43.21,2.17.63.3.17.57.38.82.61s.42.43.52.59l.08.04.84-1.45c-.17-.19-.35-.35-.54-.49s-.43-.3-.73-.47c-.94-.54-1.85-.85-2.75-.94-.19-.02-.37-.03-.56-.03M777.73,547.8l-.92,1.6.08.04c.15,0,.29-.01.44-.01.55,0,1.07.06,1.57.18.63.15,1.18.36,1.64.62.7.4,1.14.88,1.34,1.44s.12,1.13-.22,1.72c-.37.64-.9,1.14-1.58,1.49s-1.78.71-3.3,1.09c-.72.18-1.48.35-2.28.5-.8.15-1.6.3-2.39.45l-.92,1.59,7.67,4.43.75-1.3-6.1-3.52c.75-.14,1.56-.29,2.42-.45.87-.17,1.73-.36,2.58-.58.59-.15,1.11-.3,1.55-.45s.85-.33,1.23-.53c.41-.21.77-.47,1.1-.78.32-.31.61-.68.86-1.11.55-.96.66-1.91.33-2.85-.34-.94-1.09-1.75-2.25-2.42-.56-.33-1.19-.59-1.87-.79-.69-.2-1.26-.32-1.72-.35" style="fill: #fff;"/>
  <polyline points="798.08 558.24 791.24 570.09 792.67 570.91 794.31 568.07 795.75 567.73 797.01 573.42 798.9 574.51 797.3 567.48 800 566.77 800 565.28 795.12 566.67 799.51 559.07 798.08 558.24" style="fill: #fff;"/>
  <polygon points="98.15 526.89 91.43 526.89 91.43 528.04 97.02 528.04 92.3 536.71 93.71 536.71 98.15 528.36 98.15 526.89" style="fill: #444;"/>
  <path d="M96.26,515.77c-.38.33-.9.49-1.54.49s-1.15-.19-1.56-.58c-.41-.39-.61-.88-.61-1.47,0-.46.12-.88.36-1.25s.56-.66.95-.88c.41.15.74.27.98.35.25.08.47.17.68.27.52.25.87.49,1.04.73.18.24.27.57.27.97,0,.58-.19,1.03-.58,1.36h.01ZM96.38,510.58c-.17.31-.47.61-.9.9-.29-.08-.59-.19-.89-.32-.31-.13-.54-.23-.7-.31-.36-.18-.63-.39-.81-.62-.18-.23-.27-.5-.27-.82,0-.45.18-.8.53-1.07.35-.26.81-.4,1.36-.4s1.02.14,1.39.42c.36.28.54.65.54,1.12,0,.41-.08.77-.25,1.08v.02ZM97.71,512.81c-.33-.39-.8-.71-1.41-.98v-.04c.54-.24.94-.58,1.22-1,.28-.43.42-.86.42-1.31,0-.72-.29-1.32-.88-1.79-.58-.47-1.37-.71-2.35-.71s-1.71.25-2.31.74-.91,1.11-.91,1.85c0,.5.13.92.38,1.25s.64.64,1.17.92v.04c-.58.26-1.02.61-1.34,1.05s-.47.94-.47,1.48c0,.86.32,1.56.95,2.11s1.48.82,2.54.82c1,0,1.83-.28,2.5-.84.66-.56.99-1.27.99-2.12,0-.6-.16-1.09-.49-1.48h0Z" style="fill: #444;"/>
  <path d="M96.77,494.23c0,.09-.01.18-.02.27-.31.18-.64.31-.99.4s-.7.14-1.04.14c-.29,0-.55-.02-.79-.07-.24-.05-.46-.14-.65-.27-.28-.2-.48-.43-.6-.69-.12-.26-.18-.6-.18-1.02,0-.72.18-1.27.55-1.67.37-.39.87-.59,1.5-.59.28,0,.53.04.77.13.24.08.46.23.67.42.25.23.44.55.58.96s.21.96.21,1.64c0,.14,0,.26-.01.35h0ZM97.81,491.94c-.2-.57-.49-1.04-.86-1.41-.3-.29-.66-.51-1.06-.66-.4-.15-.84-.22-1.32-.22-.95,0-1.75.31-2.41.94s-.99,1.44-.99,2.45c0,.58.1,1.07.29,1.48.2.41.49.75.87,1.02.33.23.66.38.99.46.33.08.69.12,1.1.12s.82-.05,1.18-.16c.36-.11.74-.28,1.15-.53-.09,1.02-.41,1.83-.96,2.41-.55.58-1.31.87-2.28.87-.29,0-.54-.03-.78-.09-.23-.06-.41-.12-.54-.19h-.07v1.26c.16.05.34.09.54.12.2.02.42.04.65.04.81,0,1.52-.14,2.12-.41s1.1-.66,1.5-1.16c.4-.49.69-1.09.89-1.79s.29-1.48.29-2.33c0-.91-.1-1.65-.3-2.22Z" style="fill: #444;"/>
  <path d="M90.16,481.19c-.36.23-.82.34-1.37.34-.59,0-1.06-.12-1.41-.36s-.63-.59-.82-1.05c-.21-.49-.35-1.04-.41-1.65s-.1-1.38-.1-2.29c0-.83.04-1.6.11-2.29s.21-1.26.41-1.7c.21-.46.5-.81.86-1.04s.82-.34,1.37-.34,1.01.11,1.37.34.63.57.84,1.02c.21.46.35,1.01.43,1.67s.11,1.43.11,2.32-.04,1.67-.11,2.32c-.07.64-.21,1.2-.42,1.67-.2.46-.48.81-.84,1.04h-.02ZM92.23,471.05c-.72-1.13-1.87-1.69-3.44-1.69s-2.7.56-3.43,1.67c-.73,1.11-1.1,2.83-1.1,5.16s.36,4.02,1.09,5.13,1.87,1.67,3.44,1.67,2.69-.55,3.42-1.65c.74-1.1,1.1-2.82,1.1-5.17s-.36-3.98-1.09-5.11h.01ZM78.71,481.19c-.36.23-.82.34-1.37.34-.59,0-1.06-.12-1.41-.36s-.63-.59-.82-1.05c-.21-.49-.35-1.04-.41-1.65s-.1-1.38-.1-2.29c0-.83.04-1.6.11-2.29s.21-1.26.41-1.7c.21-.46.5-.81.86-1.04s.82-.34,1.37-.34,1.01.11,1.37.34.63.57.84,1.02c.21.46.35,1.01.43,1.67s.11,1.43.11,2.32-.04,1.67-.11,2.32c-.07.64-.21,1.2-.42,1.67-.2.46-.48.81-.84,1.04h-.02ZM80.78,471.05c-.72-1.13-1.87-1.69-3.44-1.69s-2.7.56-3.43,1.67c-.73,1.11-1.1,2.83-1.1,5.16s.36,4.02,1.09,5.13,1.87,1.67,3.44,1.67,2.69-.55,3.42-1.65c.74-1.1,1.1-2.82,1.1-5.17s-.36-3.98-1.09-5.11h.01ZM69.7,481.37h-2.67v-11.79h-1.36c-.02.38-.11.68-.27.91s-.37.41-.64.56c-.22.12-.54.21-.96.27s-.82.09-1.19.09v1.2h2.72v8.77h-2.72v1.34h7.08v-1.34h0Z" style="fill: #444;"/>
  <path d="M98.12,380.84h-5.28c.44-.37.9-.77,1.4-1.2s.99-.88,1.46-1.34c.33-.32.61-.61.84-.88.23-.26.43-.53.6-.8.18-.29.32-.6.42-.92.09-.32.14-.67.14-1.04,0-.83-.29-1.49-.86-1.97s-1.36-.73-2.37-.73c-.49,0-.99.06-1.51.19-.52.13-.94.27-1.25.42v1.38h.07c.44-.29.9-.5,1.36-.65s.9-.21,1.3-.21c.6,0,1.07.14,1.41.43.34.29.5.69.5,1.2,0,.56-.16,1.08-.47,1.56s-.89,1.13-1.73,1.95c-.4.39-.83.78-1.3,1.18-.46.4-.93.79-1.39,1.19v1.38h6.64v-1.13h.02Z" style="fill: #444;"/>
  <path d="M96.57,317.06c-.27-.11-.51-.19-.73-.22v-.09c.52-.11.98-.36,1.36-.77s.58-.88.58-1.43c0-.4-.08-.75-.24-1.05s-.4-.55-.72-.76c-.29-.19-.62-.33-.99-.42-.37-.09-.79-.13-1.27-.13s-.99.06-1.51.19c-.52.13-.94.27-1.25.42v1.38h.07c.42-.27.86-.48,1.33-.63s.91-.22,1.33-.22c.27,0,.52.02.73.07s.42.12.61.24c.18.11.32.26.42.44s.15.39.15.62c0,.54-.2.94-.6,1.22s-.93.42-1.6.42h-.46v1.09h.59c.32,0,.63.03.91.08s.52.14.72.28c.2.13.35.31.46.54s.17.52.17.87-.05.65-.15.88-.25.45-.45.64c-.19.18-.45.32-.76.41-.31.09-.61.14-.88.14-.47,0-.96-.08-1.46-.24-.51-.16-.94-.37-1.32-.61h-.1v1.38c.34.15.77.29,1.3.42s1.06.19,1.61.19,1.02-.07,1.47-.22c.45-.15.83-.37,1.16-.68.29-.28.52-.6.69-.97.16-.37.24-.79.24-1.23s-.07-.82-.2-1.11c-.14-.29-.31-.52-.52-.71-.19-.17-.42-.31-.69-.42h0Z" style="fill: #444;"/>
  <path d="M91.82,275.99l3.8-4.43v4.43h-3.8ZM98.35,275.99h-1.46v-6h-1.21l-4.75,5.54v1.52h4.7v2.76h1.27v-2.76h1.46v-1.05h0Z" style="fill: #444;"/>
  <path d="M97.75,242.36c-.19-.38-.47-.69-.82-.94-.33-.23-.7-.39-1.1-.48s-.87-.13-1.4-.13c-.15,0-.32,0-.51,0s-.39.02-.58.04v-2.61h4.63v-1.15h-5.91v5.06c.26-.05.57-.11.93-.16s.73-.08,1.12-.08.77.03,1.1.1.61.19.83.35c.21.14.37.33.48.56s.17.52.17.86-.05.65-.15.92c-.1.26-.25.49-.44.68-.23.22-.49.37-.78.46-.29.09-.59.13-.91.13-.47,0-.94-.08-1.42-.24-.48-.16-.91-.35-1.27-.58h-.09v1.39c.34.16.76.29,1.26.41s1.01.17,1.55.17c.58,0,1.08-.08,1.52-.25.44-.17.81-.4,1.13-.71.29-.29.52-.64.69-1.05.17-.42.25-.85.25-1.31,0-.58-.1-1.05-.29-1.44h0Z" style="fill: #444;"/>
  <path d="M96.38,218.59c-.37.39-.87.58-1.5.58-.28,0-.53-.04-.77-.13-.24-.09-.45-.23-.66-.43-.25-.23-.45-.55-.59-.95s-.21-.95-.21-1.64v-.34c0-.09.01-.18.02-.28.34-.18.67-.32.99-.41s.67-.13,1.04-.13c.27,0,.53.02.77.07s.47.14.67.28c.28.2.48.43.6.7.12.27.18.61.18,1.02,0,.73-.18,1.29-.55,1.68v-.02ZM97.98,215.37c-.2-.41-.49-.75-.87-1.01-.33-.23-.66-.39-.98-.46-.32-.08-.69-.12-1.1-.12-.47,0-.88.06-1.24.17-.36.12-.72.29-1.09.51.09-1.01.42-1.81.98-2.4.56-.59,1.32-.89,2.26-.89.26,0,.51.03.76.09s.43.12.56.19h.07v-1.26c-.18-.06-.36-.1-.53-.12-.18-.02-.39-.03-.65-.03-.81,0-1.52.14-2.14.42s-1.11.67-1.5,1.16c-.41.52-.71,1.12-.89,1.79-.19.67-.28,1.44-.28,2.31s.1,1.57.31,2.17c.2.6.5,1.09.87,1.45.3.29.65.52,1.05.67s.83.22,1.32.22c.95,0,1.76-.32,2.42-.95.66-.63.99-1.45.99-2.44,0-.58-.1-1.08-.29-1.49l-.03.02Z" style="fill: #444;"/>
  <polygon points="98.15 187.51 91.43 187.51 91.43 188.66 97.02 188.66 92.3 197.33 93.71 197.33 98.15 188.98 98.15 187.51" style="fill: #444;"/>
  <path d="M96.26,176.39c-.38.33-.9.49-1.54.49s-1.15-.19-1.56-.58c-.41-.39-.61-.88-.61-1.47,0-.46.12-.88.36-1.25s.56-.66.95-.88c.41.15.74.27.98.35.25.08.47.17.68.27.52.25.87.49,1.04.73.18.24.27.57.27.97,0,.58-.19,1.03-.58,1.36h.01ZM96.38,171.2c-.17.31-.47.61-.9.9-.29-.08-.59-.19-.89-.32-.31-.13-.54-.23-.7-.31-.36-.18-.63-.39-.81-.62s-.27-.5-.27-.82c0-.45.18-.8.53-1.07.35-.26.81-.4,1.36-.4s1.02.14,1.39.42c.36.28.54.65.54,1.12,0,.41-.08.77-.25,1.08v.02ZM97.71,173.43c-.33-.39-.8-.71-1.41-.98v-.04c.54-.24.94-.58,1.22-1,.28-.43.42-.86.42-1.31,0-.72-.29-1.32-.88-1.79-.58-.47-1.37-.71-2.35-.71s-1.71.25-2.31.74-.91,1.11-.91,1.85c0,.5.13.92.38,1.25s.64.64,1.17.92v.04c-.58.26-1.02.61-1.34,1.05s-.47.94-.47,1.48c0,.86.32,1.56.95,2.11s1.48.82,2.54.82c1,0,1.83-.28,2.5-.84.66-.56.99-1.27.99-2.12,0-.6-.16-1.09-.49-1.48h0Z" style="fill: #444;"/>
  <path d="M96.77,154.85c0,.09-.01.18-.02.27-.31.18-.64.31-.99.4s-.7.14-1.04.14c-.29,0-.55-.02-.79-.07s-.46-.14-.65-.27c-.28-.2-.48-.43-.6-.69-.12-.26-.18-.6-.18-1.02,0-.72.18-1.27.55-1.67.37-.39.87-.59,1.5-.59.28,0,.53.04.77.13.24.08.46.23.67.42.25.23.44.55.58.96s.21.96.21,1.64c0,.14,0,.26-.01.35ZM97.81,152.56c-.2-.57-.49-1.04-.86-1.41-.3-.29-.66-.51-1.06-.66-.4-.15-.84-.22-1.32-.22-.95,0-1.75.31-2.41.94s-.99,1.44-.99,2.45c0,.58.1,1.07.29,1.48.2.41.49.75.87,1.02.33.23.66.38.99.46.33.08.69.12,1.1.12s.82-.05,1.18-.16.74-.28,1.15-.53c-.09,1.02-.41,1.83-.96,2.41-.55.58-1.31.87-2.28.87-.29,0-.54-.03-.78-.09-.23-.06-.41-.12-.54-.19h-.07v1.26c.16.05.34.09.54.12.2.02.42.04.65.04.81,0,1.52-.14,2.12-.41s1.1-.66,1.5-1.16c.4-.49.69-1.09.89-1.79s.29-1.48.29-2.33c0-.91-.1-1.65-.3-2.22h0Z" style="fill: #444;"/>
  <path d="M90.16,141.81c-.36.23-.82.34-1.37.34-.59,0-1.06-.12-1.41-.36s-.63-.59-.82-1.05c-.21-.49-.35-1.04-.41-1.65s-.1-1.38-.1-2.29c0-.83.04-1.6.11-2.29s.21-1.26.41-1.7c.21-.46.5-.81.86-1.04s.82-.34,1.37-.34,1.01.11,1.37.34.63.57.84,1.02c.21.46.35,1.01.43,1.67s.11,1.43.11,2.32-.04,1.67-.11,2.32c-.07.64-.21,1.2-.42,1.67-.2.46-.48.81-.84,1.04h-.02ZM92.23,131.67c-.72-1.13-1.87-1.69-3.44-1.69s-2.7.56-3.43,1.67-1.1,2.83-1.1,5.16.36,4.02,1.09,5.13,1.87,1.67,3.44,1.67,2.69-.55,3.42-1.65c.74-1.1,1.1-2.82,1.1-5.17s-.36-3.98-1.09-5.11h.01ZM78.71,141.81c-.36.23-.82.34-1.37.34-.59,0-1.06-.12-1.41-.36s-.63-.59-.82-1.05c-.21-.49-.35-1.04-.41-1.65s-.1-1.38-.1-2.29c0-.83.04-1.6.11-2.29s.21-1.26.41-1.7c.21-.46.5-.81.86-1.04s.82-.34,1.37-.34,1.01.11,1.37.34.63.57.84,1.02c.21.46.35,1.01.43,1.67s.11,1.43.11,2.32-.04,1.67-.11,2.32c-.07.64-.21,1.2-.42,1.67-.2.46-.48.81-.84,1.04h-.02ZM80.78,131.67c-.72-1.13-1.87-1.69-3.44-1.69s-2.7.56-3.43,1.67-1.1,2.83-1.1,5.16.36,4.02,1.09,5.13,1.87,1.67,3.44,1.67,2.69-.55,3.42-1.65c.74-1.1,1.1-2.82,1.1-5.17s-.36-3.98-1.09-5.11h.01ZM67.27,141.81c-.36.23-.82.34-1.37.34-.59,0-1.06-.12-1.41-.36s-.63-.59-.82-1.05c-.21-.49-.35-1.04-.41-1.65s-.1-1.38-.1-2.29c0-.83.04-1.6.11-2.29s.21-1.26.41-1.7c.21-.46.5-.81.86-1.04s.82-.34,1.37-.34,1.01.11,1.37.34.63.57.84,1.02c.21.46.35,1.01.43,1.67s.11,1.43.11,2.32-.04,1.67-.11,2.32c-.07.64-.21,1.2-.42,1.67-.2.46-.48.81-.84,1.04h-.02ZM69.34,131.67c-.72-1.13-1.87-1.69-3.44-1.69s-2.7.56-3.43,1.67-1.1,2.83-1.1,5.16.36,4.02,1.09,5.13,1.87,1.67,3.44,1.67,2.69-.55,3.42-1.65c.74-1.1,1.1-2.82,1.1-5.17s-.36-3.98-1.09-5.11h.01ZM58.25,141.99h-2.67v-11.79h-1.36c-.02.38-.11.68-.27.91s-.37.41-.64.56c-.22.12-.54.21-.96.27s-.82.09-1.19.09v1.2h2.72v8.77h-2.72v1.34h7.08v-1.34h0Z" style="fill: #444;"/>
  <path d="M98.12,41.46h-5.28c.44-.37.9-.77,1.4-1.2s.99-.88,1.46-1.34c.33-.32.61-.61.84-.88.23-.26.43-.53.6-.8.18-.29.32-.6.42-.92.09-.32.14-.67.14-1.04,0-.83-.29-1.49-.86-1.97s-1.36-.73-2.37-.73c-.49,0-.99.06-1.51.19-.52.13-.94.27-1.25.42v1.38h.07c.44-.29.9-.5,1.36-.65s.9-.21,1.3-.21c.6,0,1.07.14,1.41.43.34.29.5.69.5,1.2,0,.56-.16,1.08-.47,1.56s-.89,1.13-1.73,1.95c-.4.39-.83.78-1.3,1.18-.46.4-.93.79-1.39,1.19v1.38h6.64v-1.13h.02Z" style="fill: #444;"/>
  <polyline points="135 54 505 54 505 206 135 206 135 54" style="fill: #fff;"/>
  <g style="clip-path: url(#clippath-1);">
    <g>
      <path d="M355.95,68.32h-2.42v7.13h-9.07v-7.13h-2.42v18.18h2.42v-8.9h9.07v8.9h2.42v-18.18M337.14,78.27c-.68-.72-1.7-1.27-3.05-1.62-.67-.17-1.48-.34-2.44-.5s-1.7-.3-2.22-.42c-.98-.23-1.67-.56-2.06-.99-.39-.43-.59-1.03-.59-1.78,0-.85.39-1.54,1.18-2.08.79-.54,1.82-.8,3.12-.8,1.18,0,2.33.19,3.46.58s2.04.87,2.73,1.46h.17v-2.86c-.82-.36-1.77-.66-2.83-.9-1.07-.24-2.24-.37-3.52-.37-1.98,0-3.61.49-4.9,1.46s-1.93,2.22-1.93,3.74c0,1.33.39,2.4,1.17,3.23s1.97,1.41,3.58,1.75c.8.16,1.55.3,2.26.4.71.11,1.37.24,1.98.4.81.21,1.41.51,1.8.89.39.38.59.98.59,1.78,0,.94-.42,1.68-1.25,2.25-.83.56-2,.84-3.5.84-1.06,0-2.19-.21-3.39-.62s-2.27-1-3.19-1.77h-.17v3.03c1.08.48,2.15.84,3.19,1.09,1.05.24,2.22.37,3.53.37,1.22,0,2.26-.15,3.13-.44s1.62-.7,2.28-1.22c.59-.48,1.06-1.07,1.39-1.76.33-.69.49-1.39.49-2.1,0-1.3-.34-2.32-1.03-3.04M322.54,84.35h-9.08v-16.03h-2.42v18.18h11.5v-2.15M306.73,77.44h-7.62v2.21h7.62v-2.21M292.65,75.13c-.18.44-.45.84-.81,1.18-.4.37-.88.62-1.45.75s-1.24.2-2,.2h-2.44v-6.86h2.84c.65,0,1.22.05,1.7.14s.89.26,1.25.49c.42.28.73.62.91,1.02.18.4.27.87.27,1.39,0,.68-.09,1.25-.26,1.69M291.73,78.55c1.16-.45,2.06-1.11,2.72-1.99s.99-1.98.99-3.29c0-.97-.18-1.77-.56-2.4-.37-.63-.88-1.15-1.54-1.57-.59-.37-1.25-.62-1.98-.76s-1.65-.21-2.75-.21h-5.09v18.18h2.42v-7.23h3.41l6.08,7.23h3.14l-6.84-7.95M275.57,82.89c-1.07,1.27-2.51,1.9-4.32,1.9s-3.25-.63-4.32-1.9c-1.07-1.26-1.61-3.09-1.61-5.47s.53-4.18,1.58-5.46,2.5-1.92,4.35-1.92,3.28.64,4.33,1.92c1.06,1.28,1.59,3.1,1.59,5.46s-.54,4.21-1.61,5.47M274.75,68.59c-1.04-.43-2.21-.64-3.51-.64s-2.41.21-3.47.63-1.95,1.03-2.67,1.83c-.75.84-1.32,1.85-1.71,3.02-.39,1.18-.59,2.5-.59,3.99s.2,2.84.59,4.02c.39,1.17.96,2.16,1.69,2.97s1.62,1.42,2.67,1.84c1.05.42,2.21.63,3.49.63s2.48-.21,3.5-.62c1.02-.42,1.91-1.03,2.66-1.86.72-.79,1.29-1.78,1.69-2.96s.6-2.53.6-4.02-.2-2.84-.59-4.02c-.4-1.18-.96-2.18-1.7-2.99-.72-.79-1.61-1.4-2.64-1.83M258.4,67.51l-8.72,22.71h2.11l8.75-22.71h-2.15M245.38,80.93c-.45.94-1.13,1.71-2.03,2.28-.72.46-1.52.78-2.39.95s-1.88.26-3.05.26h-2.27v-14.03h2.27c1.12,0,2.09.08,2.89.24.81.16,1.57.44,2.28.85.98.56,1.72,1.33,2.22,2.31.5.98.74,2.18.74,3.6s-.23,2.6-.68,3.54M247.55,72.85c-.69-1.29-1.66-2.32-2.89-3.09-.72-.45-1.61-.8-2.66-1.06-1.05-.26-2.46-.38-4.23-.38h-4.54v18.18h4.59c1.67,0,3.01-.11,4.03-.34,1.02-.23,1.95-.6,2.78-1.11,1.2-.74,2.15-1.78,2.87-3.13.72-1.34,1.08-2.84,1.08-4.49,0-1.77-.35-3.29-1.04-4.58M228.4,68.32h-2.26v14.84l-7.86-14.84h-3.75v18.18h2.26v-16.26l8.62,16.26h2.99v-18.18M200.29,79.36l3.2-8.92,3.19,8.92h-6.38M205.16,68.32h-3.22l-6.62,18.18h2.45l1.78-5.07h7.86l1.78,5.07h2.58l-6.62-18.18" style="fill: #444;"/>
      <polyline points="140 78.25 190 78.25 190 75.25 140 75.25 140 78.25" style="fill: #1f77b4;"/>
      <path d="M169.5,76.75c0,2.49-2.01,4.5-4.5,4.5s-4.5-2.01-4.5-4.5,2.01-4.5,4.5-4.5,4.5,2.01,4.5,4.5" style="fill: #1f77b4;"/>
      <g style="clip-path: url(#clippath-2);">
        <rect x="135" y="59" width="364.86" height="35.5" style="fill: #fff;"/>
      </g>
      <path d="M306.73,77.44h-7.62v2.21h7.62v-2.21M200.29,79.36l3.2-8.92,3.19,8.92h-6.38M205.16,68.32h-3.22l-6.62,18.18h2.45l1.78-5.07h7.86l1.78,5.07h2.58l-6.62-18.18M228.4,68.32h-2.26v14.84l-7.86-14.84h-3.75v18.18h2.26v-16.26l8.62,16.26h2.99v-18.18M235.65,84.42v-14.03h2.27c1.12,0,2.09.08,2.89.24.81.16,1.57.44,2.28.85.98.56,1.72,1.33,2.22,2.31.5.98.74,2.18.74,3.6s-.23,2.6-.68,3.54-1.13,1.71-2.03,2.28c-.72.46-1.52.78-2.39.95s-1.88.26-3.05.26h-2.27M237.77,68.32h-4.54v18.18h4.59c1.67,0,3.01-.11,4.03-.34,1.02-.23,1.95-.6,2.78-1.11,1.2-.74,2.15-1.78,2.87-3.13.72-1.34,1.08-2.84,1.08-4.49,0-1.77-.35-3.29-1.04-4.58-.69-1.29-1.66-2.32-2.89-3.09-.72-.45-1.61-.8-2.66-1.06-1.05-.26-2.46-.38-4.23-.38M285.94,77.26v-6.86h2.84c.65,0,1.22.05,1.7.14s.89.26,1.25.49c.42.28.73.62.91,1.02.18.4.27.87.27,1.39,0,.68-.09,1.25-.26,1.69-.18.44-.45.84-.81,1.18-.4.37-.88.62-1.45.75s-1.24.2-2,.2h-2.44M288.62,68.32h-5.09v18.18h2.42v-7.23h3.41l6.08,7.23h3.14l-6.84-7.95c1.16-.45,2.06-1.11,2.72-1.99s.99-1.98.99-3.29c0-.97-.18-1.77-.56-2.4-.37-.63-.88-1.15-1.54-1.57-.59-.37-1.25-.62-1.98-.76s-1.65-.21-2.75-.21M313.46,68.32h-2.42v18.18h11.5v-2.15h-9.08v-16.03M355.95,68.32h-2.42v7.13h-9.07v-7.13h-2.42v18.18h2.42v-8.9h9.07v8.9h2.42v-18.18M331.08,67.99c-1.98,0-3.61.49-4.9,1.46s-1.93,2.22-1.93,3.74c0,1.33.39,2.4,1.17,3.23s1.97,1.41,3.58,1.75c.8.16,1.55.3,2.26.4.71.11,1.37.24,1.98.4.81.21,1.41.51,1.8.89.39.38.59.98.59,1.78,0,.94-.42,1.68-1.25,2.25-.83.56-2,.84-3.5.84-1.06,0-2.19-.21-3.39-.62s-2.27-1-3.19-1.77h-.17v3.03c1.08.48,2.15.84,3.19,1.09,1.05.24,2.22.37,3.53.37,1.22,0,2.26-.15,3.13-.44s1.62-.7,2.28-1.22c.59-.48,1.06-1.07,1.39-1.76.33-.69.49-1.39.49-2.1,0-1.3-.34-2.32-1.03-3.04-.68-.72-1.7-1.27-3.05-1.62-.67-.17-1.48-.34-2.44-.5s-1.7-.3-2.22-.42c-.98-.23-1.67-.56-2.06-.99-.39-.43-.59-1.03-.59-1.78,0-.85.39-1.54,1.18-2.08.79-.54,1.82-.8,3.12-.8,1.18,0,2.33.19,3.46.58s2.04.87,2.73,1.46h.17v-2.86c-.82-.36-1.77-.66-2.83-.9-1.07-.24-2.24-.37-3.52-.37M271.26,84.79c-1.81,0-3.25-.63-4.32-1.9-1.07-1.26-1.61-3.09-1.61-5.47s.53-4.18,1.58-5.46,2.5-1.92,4.35-1.92,3.28.64,4.33,1.92c1.06,1.28,1.59,3.1,1.59,5.46s-.54,4.21-1.61,5.47c-1.07,1.27-2.51,1.9-4.32,1.9M271.25,67.95c-1.25,0-2.41.21-3.47.63s-1.95,1.03-2.67,1.83c-.75.84-1.32,1.85-1.71,3.02-.39,1.18-.59,2.5-.59,3.99s.2,2.84.59,4.02c.39,1.17.96,2.16,1.69,2.97s1.62,1.42,2.67,1.84c1.05.42,2.21.63,3.49.63s2.48-.21,3.5-.62c1.02-.42,1.91-1.03,2.66-1.86.72-.79,1.29-1.78,1.69-2.96s.6-2.53.6-4.02-.2-2.84-.59-4.02c-.4-1.18-.96-2.18-1.7-2.99-.72-.79-1.61-1.4-2.64-1.83-1.04-.43-2.21-.64-3.51-.64M260.55,67.51h-2.15l-8.72,22.71h2.11l8.75-22.71" style="fill: #444;"/>
      <path d="M160.76,75.25h-20.76v3h20.76c-.17-.47-.26-.97-.26-1.5s.09-1.03.26-1.5M190,75.25h-20.76c.17.47.26.97.26,1.5s-.09,1.03-.26,1.5h20.76v-3" style="fill: #1f77b4;"/>
      <path d="M165,72.25c-1.96,0-3.63,1.25-4.24,3-.17.47-.26.97-.26,1.5s.09,1.03.26,1.5c.62,1.75,2.28,3,4.24,3s3.63-1.25,4.24-3c.17-.47.26-.97.26-1.5s-.09-1.03-.26-1.5c-.62-1.75-2.28-3-4.24-3" style="fill: #1f77b4;"/>
      <path d="M496.45,108.41c-.8-1.95-1.92-3.76-3.36-5.41h-2.8v.12c.66.59,1.29,1.28,1.89,2.06s1.15,1.68,1.67,2.72c.5,1,.9,2.1,1.2,3.31.3,1.2.45,2.47.45,3.81s-.15,2.66-.45,3.82c-.3,1.16-.7,2.25-1.2,3.3-.48,1-1.04,1.91-1.67,2.72s-1.26,1.5-1.89,2.06v.12h2.8c1.44-1.65,2.56-3.46,3.36-5.41s1.2-4.15,1.2-6.6-.4-4.65-1.2-6.6M483.66,119.31c-.68.72-1.6,1.08-2.78,1.08-.51,0-.99-.08-1.42-.25-.44-.17-.84-.43-1.21-.79-.46-.43-.83-1.02-1.09-1.76-.26-.74-.4-1.76-.4-3.05,0-.25,0-.46.01-.63,0-.17.02-.34.04-.52.63-.34,1.24-.59,1.83-.76.59-.16,1.24-.24,1.93-.24.5,0,.97.04,1.43.12s.87.25,1.25.51c.51.37.88.8,1.1,1.3s.34,1.12.34,1.88c0,1.35-.34,2.39-1.01,3.11M486.61,113.35c-.36-.76-.9-1.38-1.62-1.88-.62-.43-1.22-.72-1.81-.86s-1.27-.21-2.04-.21c-.87,0-1.64.11-2.3.32-.66.22-1.34.53-2.02.95.17-1.86.78-3.34,1.82-4.44,1.04-1.09,2.44-1.64,4.19-1.64.48,0,.95.05,1.41.16s.8.23,1.03.35h.12v-2.33c-.33-.11-.66-.18-.99-.22s-.73-.06-1.21-.06c-1.51,0-2.82.26-3.96.77-1.13.52-2.06,1.24-2.77,2.16-.76.97-1.31,2.07-1.65,3.32-.35,1.24-.52,2.67-.52,4.28s.19,2.91.57,4.03c.38,1.12.92,2.01,1.62,2.69.56.54,1.21.96,1.94,1.23.73.28,1.55.42,2.44.42,1.77,0,3.26-.58,4.47-1.75,1.22-1.17,1.82-2.68,1.82-4.52,0-1.08-.18-2-.54-2.76M459.32,114.93l7.04-8.2v8.2h-7.04M471.4,114.93h-2.7v-11.11h-2.25l-8.8,10.25v2.81h8.7v5.12h2.34v-5.12h2.7v-1.95M453.63,118.52h-2.92v3.48h2.92v-3.48M444.96,120.14h-3.71v-16.38h-1.89c-.03.53-.16.95-.37,1.26-.22.31-.51.57-.88.77-.3.16-.74.29-1.33.37-.59.09-1.14.13-1.65.13v1.66h3.78v12.18h-3.78v1.86h9.84v-1.86M422.27,103.82h-1.54l-7.19,9.85h2.4l5.54-7.68,5.55,7.65h2.42l-7.19-9.83M409.11,113.15c0-1.67-.39-2.95-1.16-3.83-.77-.89-1.9-1.33-3.37-1.33-.81,0-1.59.17-2.36.5s-1.51.8-2.22,1.39v-1.51h-2.29v13.63h2.29v-10.18c.63-.48,1.28-.87,1.97-1.18.68-.31,1.34-.46,1.97-.46s1.11.08,1.49.25.68.42.88.76c.2.31.33.74.4,1.29s.11,1.14.11,1.76v7.76h2.29v-8.85M393.66,126.91c-.63-.56-1.25-1.25-1.88-2.06s-1.18-1.72-1.67-2.72c-.5-1.04-.91-2.14-1.2-3.3-.3-1.16-.45-2.43-.45-3.82s.15-2.6.46-3.81c.31-1.2.7-2.31,1.19-3.31.51-1.03,1.07-1.94,1.67-2.72s1.23-1.46,1.89-2.06v-.12h-2.8c-1.44,1.65-2.56,3.46-3.36,5.41-.8,1.95-1.2,4.15-1.2,6.6s.4,4.65,1.2,6.6c.8,1.95,1.92,3.76,3.36,5.41h2.8v-.12M378.59,118.39c-1.07,1.27-2.51,1.9-4.32,1.9s-3.25-.63-4.32-1.9c-1.07-1.26-1.61-3.09-1.61-5.47s.53-4.18,1.58-5.46,2.5-1.92,4.35-1.92,3.28.64,4.33,1.92c1.06,1.28,1.59,3.1,1.59,5.46s-.54,4.21-1.61,5.47M377.77,104.09c-1.04-.43-2.21-.64-3.51-.64s-2.41.21-3.47.63-1.95,1.03-2.67,1.83c-.75.84-1.32,1.85-1.71,3.02-.39,1.18-.59,2.5-.59,3.99s.2,2.84.59,4.02c.39,1.17.96,2.16,1.69,2.97s1.62,1.42,2.67,1.84c1.05.42,2.21.63,3.49.63s2.48-.21,3.5-.62c1.02-.42,1.91-1.03,2.66-1.86.72-.79,1.29-1.78,1.69-2.96s.6-2.53.6-4.02-.2-2.84-.59-4.02c-.4-1.18-.96-2.18-1.7-2.99-.72-.79-1.61-1.4-2.64-1.83M351.42,118.52h-2.92v3.48h2.92v-3.48M351.42,108.37h-2.92v3.48h2.92v-3.48M343.77,119.81h-.12c-.18.07-.47.17-.88.28s-.8.16-1.17.16c-.64,0-1.12-.07-1.43-.23-.31-.15-.56-.39-.74-.71-.2-.35-.31-.73-.34-1.13-.03-.4-.05-.96-.05-1.68v-6.21h4.74v-1.93h-4.74v-3.92h-2.29v3.92h-1.55v1.93h1.55v7.25c0,1.65.36,2.85,1.09,3.6.72.75,1.78,1.12,3.17,1.12.4,0,.85-.04,1.36-.11.51-.07.98-.17,1.41-.28v-2.06M332.15,108.37h-2.29v13.63h2.29v-13.63M332.29,103.7h-2.59v2.38h2.59v-2.38M328.37,103.13c-.34-.07-.72-.12-1.13-.17-.41-.05-.87-.07-1.39-.07-1.52,0-2.69.43-3.49,1.3-.81.87-1.21,2.11-1.21,3.73v.45h-1.55v1.93h1.55v11.71h2.29v-11.71h4.06v-1.93h-4.14v-.46c0-1.14.22-1.93.67-2.36.44-.44,1.16-.65,2.14-.65.31,0,.67.04,1.07.12.41.08.74.15.99.23h.12v-2.1M307.71,103.01h-2.29v18.99h2.29v-18.99M296.83,119.77c-.67.31-1.4.47-2.21.47-.97,0-1.69-.2-2.16-.59s-.71-.98-.71-1.76c0-.69.2-1.24.61-1.63.41-.39.94-.69,1.6-.87.55-.15,1.3-.27,2.25-.35s1.77-.14,2.47-.18v3.8c-.57.44-1.19.82-1.86,1.13M300.97,112.75c0-.88-.13-1.62-.4-2.21s-.66-1.08-1.17-1.45c-.52-.38-1.14-.65-1.85-.81-.71-.16-1.55-.24-2.51-.24-.82,0-1.66.07-2.5.22-.85.15-1.49.28-1.94.4v2.33h.12c.79-.3,1.55-.53,2.29-.69.74-.16,1.41-.24,2.01-.24.5,0,.97.03,1.43.1s.85.19,1.17.38c.34.2.6.46.79.81.18.34.27.77.27,1.29v.35c-1.33.07-2.58.16-3.75.29-1.16.13-2.16.38-2.99.75-.82.37-1.45.87-1.9,1.51-.44.64-.67,1.48-.67,2.51,0,1.26.43,2.3,1.28,3.11s1.9,1.22,3.12,1.22c.67,0,1.25-.06,1.75-.19.5-.13.94-.28,1.32-.47.33-.15.66-.34,1.01-.59s.62-.44.82-.58v1.45h2.28v-9.25M287.43,118.62h-.12c-.17.14-.4.3-.7.49-.29.19-.61.37-.94.54-.38.2-.81.35-1.29.48-.48.12-.95.18-1.42.18-1.33,0-2.37-.44-3.11-1.32s-1.1-2.15-1.1-3.79.38-2.98,1.13-3.85c.75-.87,1.78-1.31,3.08-1.31.71,0,1.43.15,2.18.44.74.29,1.47.71,2.17,1.26h.12v-2.55c-.63-.32-1.32-.59-2.07-.81s-1.52-.33-2.3-.33c-2.01,0-3.63.63-4.85,1.9-1.23,1.27-1.84,3.02-1.84,5.25,0,1.2.16,2.24.49,3.14s.79,1.64,1.38,2.22c.59.59,1.29,1.02,2.11,1.31.82.29,1.73.43,2.71.43.77,0,1.5-.1,2.19-.3.69-.2,1.41-.49,2.18-.85v-2.53M272.81,108.37h-2.29v13.63h2.29v-13.63M272.95,103.7h-2.59v2.38h2.59v-2.38M268.33,108.51c-.36-.06-.63-.1-.81-.12-.18-.02-.47-.03-.87-.03-.72,0-1.43.15-2.13.46s-1.5.82-2.41,1.56v-2.01h-2.29v13.63h2.29v-9.68c.61-.5,1.25-.9,1.9-1.21.66-.31,1.34-.47,2.05-.47.44,0,.82.02,1.14.06s.65.1,1,.18h.12v-2.36M255.28,108.37h-2.29v13.63h2.29v-13.63M255.42,103.7h-2.59v2.38h2.59v-2.38M245.94,118.91c-.72.86-1.71,1.29-2.99,1.29-.59,0-1.12-.05-1.59-.16s-1.03-.3-1.68-.6v-7.73c.61-.46,1.25-.84,1.92-1.12.67-.29,1.33-.43,1.99-.43,1.16,0,2.03.41,2.59,1.22s.84,2.04.84,3.69-.36,2.97-1.07,3.83M248.01,109.85c-.92-1.24-2.2-1.86-3.84-1.86-.86,0-1.67.17-2.43.52s-1.45.78-2.06,1.29v-1.43h-2.29v18.66h2.29v-5.71c.59.33,1.18.57,1.75.72s1.21.23,1.92.23c.81,0,1.59-.17,2.31-.49.73-.33,1.36-.8,1.9-1.4.58-.63,1.03-1.41,1.34-2.33.32-.92.48-1.93.48-3.03,0-2.21-.46-3.93-1.37-5.17M232.96,113.15c0-1.63-.36-2.9-1.07-3.8-.71-.91-1.82-1.36-3.31-1.36-.87,0-1.69.17-2.45.52-.77.35-1.61.91-2.54,1.69-.32-.69-.8-1.23-1.45-1.62s-1.43-.59-2.36-.59c-.81,0-1.56.17-2.28.5-.71.33-1.43.8-2.14,1.39v-1.51h-2.29v13.63h2.29v-10.18c.63-.48,1.26-.87,1.89-1.18s1.26-.46,1.89-.46,1.16.09,1.51.26c.35.18.62.44.81.79.17.33.28.76.34,1.3.05.54.08,1.11.08,1.71v7.76h2.29v-8.73c0-.24,0-.49-.02-.74s-.04-.47-.06-.65c.64-.5,1.29-.91,1.93-1.23s1.29-.48,1.93-.48,1.16.09,1.51.27c.35.18.62.44.81.79.17.33.28.76.34,1.31.05.55.08,1.11.08,1.7v7.76h2.29v-8.85M209.42,119.85h-9.56v-6.75h9.56v-2.15h-9.56v-4.98h9.56v-2.15h-11.98v18.18h11.98v-2.15" style="fill: #444;"/>
      <path d="M188,113.75h2v-3h-2v3M182,113.75h3v-3h-3v3M176,113.75h3v-3h-3v3M170,113.75h3v-3h-3v3M164,113.75h3v-3h-3v3M158,113.75h3v-3h-3v3M152,113.75h3v-3h-3v3M146,113.75h3v-3h-3v3M140,113.75h3v-3h-3v3" style="fill: gray;"/>
      <path d="M298.69,114.85c-.7.04-1.52.1-2.47.18s-1.7.2-2.25.35c-.66.19-1.19.48-1.6.87s-.61.94-.61,1.63c0,.78.24,1.37.71,1.76s1.19.59,2.16.59c.81,0,1.54-.16,2.21-.47.67-.31,1.29-.69,1.86-1.13v-3.8M480.56,112.39c-.69,0-1.33.08-1.93.24-.59.16-1.2.42-1.83.76-.02.18-.03.35-.04.52,0,.17-.01.38-.01.63,0,1.29.13,2.3.4,3.05.26.75.63,1.33,1.09,1.76.37.36.78.62,1.21.79.44.17.91.25,1.42.25,1.18,0,2.11-.36,2.78-1.08.68-.72,1.01-1.76,1.01-3.11,0-.76-.11-1.38-.34-1.88-.22-.5-.59-.93-1.1-1.3-.37-.26-.79-.43-1.25-.51s-.93-.12-1.43-.12M243.58,110.17c-.66,0-1.32.14-1.99.43s-1.31.66-1.92,1.12v7.73c.65.29,1.21.49,1.68.6.47.11,1,.16,1.59.16,1.28,0,2.27-.43,2.99-1.29s1.07-2.14,1.07-3.83-.28-2.87-.84-3.69c-.56-.81-1.42-1.22-2.59-1.22M466.36,106.73l-7.04,8.2h7.04v-8.2M374.27,105.53c-1.85,0-3.3.64-4.35,1.92-1.05,1.28-1.58,3.1-1.58,5.46s.54,4.21,1.61,5.47c1.07,1.27,2.51,1.9,4.32,1.9s3.25-.63,4.32-1.9c1.07-1.26,1.61-3.09,1.61-5.47s-.53-4.18-1.59-5.46-2.5-1.92-4.33-1.92M348.5,122v-3.48h2.92v3.48h-2.92M450.71,122v-3.48h2.92v3.48h-2.92M140,113.75v-3h3v3h-3M146,113.75v-3h3v3h-3M152,113.75v-3h3v3h-3M158,113.75v-3h3v3h-3M164,113.75v-3h3v3h-3M170,113.75v-3h3v3h-3M176,113.75v-3h3v3h-3M182,113.75v-3h3v3h-3M188,113.75v-3h2v3h-2M252.98,122v-13.63h2.29v13.63h-2.29M262.11,110.38c.91-.73,1.72-1.25,2.41-1.56.7-.3,1.41-.46,2.13-.46.4,0,.69,0,.87.03.18.02.45.06.81.12v2.36h-.12c-.34-.08-.67-.14-1-.18-.32-.04-.7-.06-1.14-.06-.71,0-1.39.16-2.05.47-.66.31-1.29.72-1.9,1.21v9.68h-2.29v-13.63h2.29v2.01M270.51,122v-13.63h2.29v13.63h-2.29M329.85,122v-13.63h2.29v13.63h-2.29M348.5,111.84v-3.48h2.92v3.48h-2.92M283.06,122.3c-.98,0-1.89-.14-2.71-.43-.82-.29-1.53-.73-2.11-1.31-.59-.59-1.05-1.33-1.38-2.22-.33-.9-.49-1.94-.49-3.14,0-2.23.61-3.98,1.84-5.25,1.22-1.27,2.84-1.9,4.85-1.9.78,0,1.55.11,2.3.33s1.44.49,2.07.81v2.55h-.12c-.7-.55-1.42-.96-2.17-1.26-.75-.29-1.47-.44-2.18-.44-1.3,0-2.33.44-3.08,1.31-.75.88-1.13,2.16-1.13,3.85s.37,2.91,1.1,3.79c.74.88,1.77,1.32,3.11,1.32.46,0,.94-.06,1.42-.18s.91-.28,1.29-.48c.33-.17.65-.35.94-.54s.52-.36.7-.49h.12v2.53c-.77.37-1.49.65-2.18.85s-1.42.3-2.19.3M290.59,110.99v-2.33c.45-.12,1.09-.26,1.94-.4.85-.15,1.68-.22,2.5-.22.96,0,1.8.08,2.51.24.71.16,1.33.43,1.85.81.51.37.9.86,1.17,1.45.27.59.4,1.33.4,2.21v9.25h-2.28v-1.45c-.2.14-.48.33-.82.58-.35.25-.68.45-1.01.59-.38.19-.82.34-1.32.47-.5.13-1.08.19-1.75.19-1.23,0-2.27-.41-3.12-1.22s-1.28-1.85-1.28-3.11c0-1.03.22-1.87.67-2.51.44-.64,1.08-1.14,1.9-1.51.83-.37,1.83-.62,2.99-.75s2.41-.23,3.75-.29v-.35c0-.52-.09-.95-.27-1.29-.18-.34-.45-.61-.79-.81-.33-.19-.72-.31-1.17-.38-.46-.07-.93-.1-1.43-.1-.6,0-1.27.08-2.01.24-.74.16-1.51.39-2.29.69h-.12M223.59,110.2c.93-.78,1.77-1.34,2.54-1.69.76-.35,1.58-.52,2.45-.52,1.5,0,2.6.45,3.31,1.36.71.91,1.07,2.17,1.07,3.8v8.85h-2.29v-7.76c0-.59-.03-1.15-.08-1.7-.05-.54-.16-.98-.34-1.31-.19-.35-.46-.61-.81-.79-.35-.18-.85-.27-1.51-.27s-1.29.16-1.93.48-1.29.73-1.93,1.23c.02.19.04.4.06.65s.02.49.02.74v8.73h-2.29v-7.76c0-.6-.03-1.17-.08-1.71s-.17-.97-.34-1.3c-.19-.35-.46-.61-.81-.79-.35-.17-.85-.26-1.51-.26s-1.26.15-1.89.46-1.26.7-1.89,1.18v10.18h-2.29v-13.63h2.29v1.51c.72-.59,1.43-1.06,2.14-1.39s1.47-.5,2.28-.5c.93,0,1.72.2,2.36.59.65.39,1.13.93,1.45,1.62M239.68,109.79c.61-.51,1.3-.94,2.06-1.29s1.57-.52,2.43-.52c1.64,0,2.92.62,3.84,1.86s1.37,2.96,1.37,5.17c0,1.11-.16,2.12-.48,3.03-.32.92-.77,1.69-1.34,2.33-.54.6-1.17,1.07-1.9,1.4s-1.5.49-2.31.49c-.71,0-1.35-.08-1.92-.23-.57-.16-1.16-.4-1.75-.72v5.71h-2.29v-18.66h2.29v1.43M400,109.88c.72-.59,1.46-1.06,2.22-1.39s1.55-.5,2.36-.5c1.47,0,2.6.44,3.37,1.33s1.16,2.17,1.16,3.83v8.85h-2.29v-7.76c0-.63-.04-1.22-.11-1.76-.07-.55-.21-.98-.4-1.29-.2-.34-.5-.6-.88-.76-.38-.17-.88-.25-1.49-.25s-1.28.15-1.97.46c-.68.31-1.34.7-1.97,1.18v10.18h-2.29v-13.63h2.29v1.51M335.19,110.29v-1.93h1.55v-3.92h2.29v3.92h4.74v1.93h-4.74v6.21c0,.72.02,1.28.05,1.68s.15.78.34,1.13c.18.33.43.56.74.71s.79.23,1.43.23c.37,0,.76-.05,1.17-.16s.7-.2.88-.28h.12v2.06c-.43.11-.9.21-1.41.28s-.96.11-1.36.11c-1.39,0-2.45-.37-3.17-1.12s-1.09-1.95-1.09-3.6v-7.25h-1.55M197.44,122v-18.18h11.98v2.15h-9.56v4.98h9.56v2.15h-9.56v6.75h9.56v2.15h-11.98M413.54,113.67l7.19-9.85h1.54l7.19,9.83h-2.42l-5.55-7.65-5.54,7.68h-2.4M457.66,116.88v-2.81l8.8-10.25h2.25v11.11h2.7v1.95h-2.7v5.12h-2.34v-5.12h-8.7M435.12,107.96v-1.66c.51,0,1.06-.04,1.65-.13s1.03-.21,1.33-.37c.37-.2.67-.46.88-.77.22-.31.34-.73.37-1.26h1.89v16.38h3.71v1.86h-9.84v-1.86h3.78v-12.18h-3.78M252.84,106.08v-2.38h2.59v2.38h-2.59M270.37,106.08v-2.38h2.59v2.38h-2.59M329.7,106.08v-2.38h2.59v2.38h-2.59M480.85,122.38c-.9,0-1.71-.14-2.44-.42s-1.38-.69-1.94-1.23c-.7-.68-1.24-1.57-1.62-2.69s-.57-2.46-.57-4.03.17-3.04.52-4.28c.35-1.25.9-2.35,1.65-3.32.72-.92,1.64-1.64,2.77-2.16,1.13-.52,2.45-.77,3.96-.77.48,0,.88.02,1.21.06s.65.11.99.22v2.33h-.12c-.23-.12-.57-.24-1.03-.35s-.93-.16-1.41-.16c-1.75,0-3.15.55-4.19,1.64s-1.65,2.57-1.82,4.44c.68-.41,1.36-.73,2.02-.95.66-.22,1.43-.32,2.3-.32.77,0,1.45.07,2.04.21s1.19.43,1.81.86c.72.5,1.26,1.12,1.62,1.88.36.76.54,1.68.54,2.76,0,1.85-.61,3.36-1.82,4.52-1.22,1.17-2.71,1.75-4.47,1.75M374.26,122.38c-1.28,0-2.44-.21-3.49-.63s-1.93-1.04-2.67-1.84c-.73-.81-1.3-1.79-1.69-2.97-.4-1.17-.59-2.51-.59-4.02s.2-2.81.59-3.99c.39-1.18.96-2.18,1.71-3.02.72-.8,1.61-1.41,2.67-1.83,1.06-.42,2.22-.63,3.47-.63s2.47.21,3.51.64,1.92,1.04,2.64,1.83c.74.81,1.31,1.81,1.7,2.99s.59,2.52.59,4.02-.2,2.84-.6,4.02-.97,2.17-1.69,2.96c-.75.82-1.63,1.44-2.66,1.86-1.02.42-2.19.62-3.5.62M305.41,122v-18.99h2.29v18.99h-2.29M390.86,127.03c-1.44-1.65-2.56-3.46-3.36-5.41-.8-1.95-1.2-4.15-1.2-6.6s.4-4.65,1.2-6.6c.8-1.95,1.92-3.76,3.36-5.41h2.8v.12c-.66.59-1.29,1.28-1.89,2.06s-1.15,1.68-1.67,2.72c-.49,1-.88,2.1-1.19,3.31-.3,1.2-.46,2.47-.46,3.81s.15,2.66.45,3.82c.3,1.16.7,2.25,1.2,3.3.49,1,1.05,1.91,1.67,2.72.63.81,1.25,1.5,1.88,2.06v.12h-2.8M490.3,127.03v-.12c.63-.56,1.26-1.25,1.89-2.06s1.19-1.72,1.67-2.72c.5-1.04.91-2.14,1.2-3.3.3-1.16.45-2.43.45-3.82s-.15-2.6-.45-3.81c-.3-1.2-.7-2.31-1.2-3.31-.51-1.03-1.07-1.94-1.67-2.72s-1.23-1.46-1.89-2.06v-.12h2.8c1.44,1.65,2.56,3.46,3.36,5.41s1.2,4.15,1.2,6.6-.4,4.65-1.2,6.6c-.8,1.95-1.92,3.76-3.36,5.41h-2.8M319.61,110.29v-1.93h1.55v-.45c0-1.62.4-2.86,1.21-3.73s1.97-1.3,3.49-1.3c.51,0,.97.02,1.39.07.41.05.79.11,1.13.17v2.1h-.12c-.25-.07-.58-.15-.99-.23s-.77-.12-1.07-.12c-.98,0-1.7.22-2.14.65-.44.44-.67,1.22-.67,2.36v.46h4.14v1.93h-4.06v11.71h-2.29v-11.71h-1.55M499.86,94.5H135v35.5h364.86v-35.5" style="fill: #fff;"/>
      <path d="M351.42,118.52h-2.92v3.48h2.92v-3.48M453.63,118.52h-2.92v3.48h2.92v-3.48M255.28,108.37h-2.29v13.63h2.29v-13.63M266.66,108.37c-.72,0-1.43.15-2.13.46s-1.5.82-2.41,1.56v-2.01h-2.29v13.63h2.29v-9.68c.61-.5,1.25-.9,1.9-1.21.66-.31,1.34-.47,2.05-.47.44,0,.82.02,1.14.06s.65.1,1,.18h.12v-2.36c-.36-.06-.63-.1-.81-.12-.18-.02-.47-.03-.87-.03M272.81,108.37h-2.29v13.63h2.29v-13.63M332.15,108.37h-2.29v13.63h2.29v-13.63M351.42,108.37h-2.92v3.48h2.92v-3.48M283.06,108.05c-2.01,0-3.63.63-4.85,1.9-1.23,1.27-1.84,3.02-1.84,5.25,0,1.2.16,2.24.49,3.14s.79,1.64,1.38,2.22c.59.59,1.29,1.02,2.11,1.31.82.29,1.73.43,2.71.43.77,0,1.5-.1,2.19-.3.69-.2,1.41-.49,2.18-.85v-2.53h-.12c-.17.14-.4.3-.7.49-.29.19-.61.37-.94.54-.38.2-.81.35-1.29.48-.48.12-.95.18-1.42.18-1.33,0-2.37-.44-3.11-1.32s-1.1-2.15-1.1-3.79.38-2.98,1.13-3.85c.75-.87,1.78-1.31,3.08-1.31.71,0,1.43.15,2.18.44.74.29,1.47.71,2.17,1.26h.12v-2.55c-.63-.32-1.32-.59-2.07-.81s-1.52-.33-2.3-.33M294.62,120.24c-.97,0-1.69-.2-2.16-.59s-.71-.98-.71-1.76c0-.69.2-1.24.61-1.63.41-.39.94-.69,1.6-.87.55-.15,1.3-.27,2.25-.35s1.77-.14,2.47-.18v3.8c-.57.44-1.19.82-1.86,1.13-.67.31-1.4.47-2.21.47M295.04,108.04c-.82,0-1.66.07-2.5.22-.85.15-1.49.28-1.94.4v2.33h.12c.79-.3,1.55-.53,2.29-.69.74-.16,1.41-.24,2.01-.24.5,0,.97.03,1.43.1s.85.19,1.17.38c.34.2.6.46.79.81.18.34.27.77.27,1.29v.35c-1.33.07-2.58.16-3.75.29-1.16.13-2.16.38-2.99.75-.82.37-1.45.87-1.9,1.51-.44.64-.67,1.48-.67,2.51,0,1.26.43,2.3,1.28,3.11s1.9,1.22,3.12,1.22c.67,0,1.25-.06,1.75-.19.5-.13.94-.28,1.32-.47.33-.15.66-.34,1.01-.59s.62-.44.82-.58v1.45h2.28v-9.25c0-.88-.13-1.62-.4-2.21s-.66-1.08-1.17-1.45c-.52-.38-1.14-.65-1.85-.81-.71-.16-1.55-.24-2.51-.24M228.58,107.99c-.87,0-1.69.17-2.45.52-.77.35-1.61.91-2.54,1.69-.32-.69-.8-1.23-1.45-1.62s-1.43-.59-2.36-.59c-.81,0-1.56.17-2.28.5-.71.33-1.43.8-2.14,1.39v-1.51h-2.29v13.63h2.29v-10.18c.63-.48,1.26-.87,1.89-1.18s1.26-.46,1.89-.46,1.16.09,1.51.26c.35.18.62.44.81.79.17.33.28.76.34,1.3.05.54.08,1.11.08,1.71v7.76h2.29v-8.73c0-.24,0-.49-.02-.74s-.04-.47-.06-.65c.64-.5,1.29-.91,1.93-1.23s1.29-.48,1.93-.48,1.16.09,1.51.27c.35.18.62.44.81.79.17.33.28.76.34,1.31.05.55.08,1.11.08,1.7v7.76h2.29v-8.85c0-1.63-.36-2.9-1.07-3.8-.71-.91-1.82-1.36-3.31-1.36M242.95,120.21c-.59,0-1.12-.05-1.59-.16s-1.03-.3-1.68-.6v-7.73c.61-.46,1.25-.84,1.92-1.12.67-.29,1.33-.43,1.99-.43,1.16,0,2.03.41,2.59,1.22s.84,2.04.84,3.69-.36,2.97-1.07,3.83c-.72.86-1.71,1.29-2.99,1.29M244.17,107.99c-.86,0-1.67.17-2.43.52s-1.45.78-2.06,1.29v-1.43h-2.29v18.66h2.29v-5.71c.59.33,1.18.57,1.75.72s1.21.23,1.92.23c.81,0,1.59-.17,2.31-.49.73-.33,1.36-.8,1.9-1.4.58-.63,1.03-1.41,1.34-2.33.32-.92.48-1.93.48-3.03,0-2.21-.46-3.93-1.37-5.17-.92-1.24-2.2-1.86-3.84-1.86M404.58,107.99c-.81,0-1.59.17-2.36.5s-1.51.8-2.22,1.39v-1.51h-2.29v13.63h2.29v-10.18c.63-.48,1.28-.87,1.97-1.18.68-.31,1.34-.46,1.97-.46s1.11.08,1.49.25.68.42.88.76c.2.31.33.74.4,1.29s.11,1.14.11,1.76v7.76h2.29v-8.85c0-1.67-.39-2.95-1.16-3.83-.77-.89-1.9-1.33-3.37-1.33M339.03,104.45h-2.29v3.92h-1.55v1.93h1.55v7.25c0,1.65.36,2.85,1.09,3.6.72.75,1.78,1.12,3.17,1.12.4,0,.85-.04,1.36-.11.51-.07.98-.17,1.41-.28v-2.06h-.12c-.18.07-.47.17-.88.28s-.8.16-1.17.16c-.64,0-1.12-.07-1.43-.23-.31-.15-.56-.39-.74-.71-.2-.35-.31-.73-.34-1.13-.03-.4-.05-.96-.05-1.68v-6.21h4.74v-1.93h-4.74v-3.92M209.42,103.82h-11.98v18.18h11.98v-2.15h-9.56v-6.75h9.56v-2.15h-9.56v-4.98h9.56v-2.15M422.27,103.82h-1.54l-7.19,9.85h2.4l5.54-7.68,5.55,7.65h2.42l-7.19-9.83M459.32,114.93l7.04-8.2v8.2h-7.04M468.71,103.82h-2.25l-8.8,10.25v2.81h8.7v5.12h2.34v-5.12h2.7v-1.95h-2.7v-11.11M441.25,103.76h-1.89c-.03.53-.16.95-.37,1.26-.22.31-.51.57-.88.77-.3.16-.74.29-1.33.37-.59.09-1.14.13-1.65.13v1.66h3.78v12.18h-3.78v1.86h9.84v-1.86h-3.71v-16.38M255.42,103.7h-2.59v2.38h2.59v-2.38M272.95,103.7h-2.59v2.38h2.59v-2.38M332.29,103.7h-2.59v2.38h2.59v-2.38M480.88,120.39c-.51,0-.99-.08-1.42-.25-.44-.17-.84-.43-1.21-.79-.46-.43-.83-1.02-1.09-1.76-.26-.74-.4-1.76-.4-3.05,0-.25,0-.46.01-.63,0-.17.02-.34.04-.52.63-.34,1.24-.59,1.83-.76.59-.16,1.24-.24,1.93-.24.5,0,.97.04,1.43.12s.87.25,1.25.51c.51.37.88.8,1.1,1.3s.34,1.12.34,1.88c0,1.35-.34,2.39-1.01,3.11-.68.72-1.6,1.08-2.78,1.08M483.18,103.48c-1.51,0-2.82.26-3.96.77-1.13.52-2.06,1.24-2.77,2.16-.76.97-1.31,2.07-1.65,3.32-.35,1.24-.52,2.67-.52,4.28s.19,2.91.57,4.03c.38,1.12.92,2.01,1.62,2.69.56.54,1.21.96,1.94,1.23.73.28,1.55.42,2.44.42,1.77,0,3.26-.58,4.47-1.75,1.22-1.17,1.82-2.68,1.82-4.52,0-1.08-.18-2-.54-2.76-.36-.76-.9-1.38-1.62-1.88-.62-.43-1.22-.72-1.81-.86s-1.27-.21-2.04-.21c-.87,0-1.64.11-2.3.32-.66.22-1.34.53-2.02.95.17-1.86.78-3.34,1.82-4.44,1.04-1.09,2.44-1.64,4.19-1.64.48,0,.95.05,1.41.16s.8.23,1.03.35h.12v-2.33c-.33-.11-.66-.18-.99-.22s-.73-.06-1.21-.06M374.27,120.29c-1.81,0-3.25-.63-4.32-1.9-1.07-1.26-1.61-3.09-1.61-5.47s.53-4.18,1.58-5.46,2.5-1.92,4.35-1.92,3.28.64,4.33,1.92c1.06,1.28,1.59,3.1,1.59,5.46s-.54,4.21-1.61,5.47c-1.07,1.27-2.51,1.9-4.32,1.9M374.26,103.45c-1.25,0-2.41.21-3.47.63s-1.95,1.03-2.67,1.83c-.75.84-1.32,1.85-1.71,3.02-.39,1.18-.59,2.5-.59,3.99s.2,2.84.59,4.02c.39,1.17.96,2.16,1.69,2.97s1.62,1.42,2.67,1.84c1.05.42,2.21.63,3.49.63s2.48-.21,3.5-.62c1.02-.42,1.91-1.03,2.66-1.86.72-.79,1.29-1.78,1.69-2.96s.6-2.53.6-4.02-.2-2.84-.59-4.02c-.4-1.18-.96-2.18-1.7-2.99-.72-.79-1.61-1.4-2.64-1.83-1.04-.43-2.21-.64-3.51-.64M307.71,103.01h-2.29v18.99h2.29v-18.99M393.66,103.01h-2.8c-1.44,1.65-2.56,3.46-3.36,5.41s-1.2,4.15-1.2,6.6.4,4.65,1.2,6.6c.8,1.95,1.92,3.76,3.36,5.41h2.8v-.12c-.63-.56-1.25-1.25-1.88-2.06s-1.18-1.72-1.67-2.72c-.5-1.04-.91-2.14-1.2-3.3-.3-1.16-.45-2.43-.45-3.82s.15-2.6.46-3.81c.31-1.2.7-2.31,1.19-3.31.51-1.03,1.07-1.94,1.67-2.72s1.23-1.46,1.89-2.06v-.12M493.1,103.01h-2.8v.12c.66.59,1.29,1.28,1.89,2.06s1.15,1.68,1.67,2.72c.5,1,.9,2.1,1.2,3.31.3,1.2.45,2.47.45,3.81s-.15,2.66-.45,3.82c-.3,1.16-.7,2.25-1.2,3.3-.48,1-1.04,1.91-1.67,2.72s-1.26,1.5-1.89,2.06v.12h2.8c1.44-1.65,2.56-3.46,3.36-5.41.8-1.95,1.2-4.15,1.2-6.6s-.4-4.65-1.2-6.6c-.8-1.95-1.92-3.76-3.36-5.41M325.86,102.88c-1.52,0-2.69.43-3.49,1.3-.81.87-1.21,2.11-1.21,3.73v.45h-1.55v1.93h1.55v11.71h2.29v-11.71h4.06v-1.93h-4.14v-.46c0-1.14.22-1.93.67-2.36.44-.44,1.16-.65,2.14-.65.31,0,.67.04,1.07.12.41.08.74.15.99.23h.12v-2.1c-.34-.07-.72-.12-1.13-.17-.41-.05-.87-.07-1.39-.07" style="fill: #444;"/>
      <path d="M143,110.75h-3v3h3v-3M149,110.75h-3v3h3v-3M155,110.75h-3v3h3v-3M161,110.75h-3v3h3v-3M167,110.75h-3v3h3v-3M173,110.75h-3v3h3v-3M179,110.75h-3v3h3v-3M185,110.75h-3v3h3v-3M190,110.75h-2v3h2v-3" style="fill: gray;"/>
      <path d="M286.15,143.91c-.8-1.95-1.92-3.76-3.36-5.41h-2.8v.12c.66.59,1.29,1.28,1.89,2.06s1.15,1.68,1.67,2.72c.5,1,.9,2.1,1.2,3.31.3,1.2.45,2.47.45,3.81s-.15,2.67-.45,3.82c-.3,1.16-.7,2.25-1.2,3.3-.48,1-1.04,1.91-1.67,2.72s-1.26,1.49-1.89,2.06v.12h2.8c1.44-1.65,2.56-3.46,3.36-5.41s1.2-4.15,1.2-6.6-.4-4.65-1.2-6.6M276.58,155.41h-9.78c.81-.68,1.67-1.43,2.6-2.23s1.83-1.63,2.7-2.48c.61-.59,1.13-1.14,1.56-1.62.43-.49.8-.98,1.12-1.49.34-.54.6-1.1.77-1.7.18-.6.26-1.24.26-1.93,0-1.54-.53-2.76-1.59-3.66-1.06-.9-2.52-1.35-4.38-1.35-.9,0-1.84.12-2.8.35-.96.24-1.74.5-2.31.78v2.56h.12c.82-.54,1.66-.94,2.53-1.2.86-.26,1.66-.39,2.4-.39,1.11,0,1.98.27,2.61.8.62.53.93,1.27.93,2.22,0,1.03-.29,2-.87,2.89s-1.65,2.09-3.21,3.61c-.74.72-1.54,1.45-2.4,2.19-.86.73-1.72,1.46-2.57,2.2v2.55h12.3v-2.09M252.85,139.32h-1.54l-7.19,9.85h2.4l5.54-7.68,5.55,7.65h2.42l-7.19-9.83M239.69,148.65c0-1.67-.39-2.95-1.16-3.83-.77-.89-1.9-1.33-3.37-1.33-.81,0-1.59.17-2.36.5s-1.51.8-2.22,1.39v-1.51h-2.29v13.63h2.29v-10.18c.63-.48,1.28-.88,1.97-1.18.68-.31,1.34-.46,1.97-.46s1.11.08,1.49.25.68.42.88.76c.2.31.33.74.4,1.29.07.55.11,1.14.11,1.76v7.76h2.29v-8.85M224.24,162.41c-.63-.56-1.25-1.25-1.88-2.06s-1.18-1.72-1.67-2.72c-.5-1.04-.91-2.14-1.2-3.3-.3-1.16-.45-2.43-.45-3.82s.15-2.6.46-3.81c.31-1.2.7-2.31,1.19-3.31.51-1.03,1.07-1.94,1.67-2.72.6-.78,1.23-1.46,1.89-2.06v-.12h-2.8c-1.44,1.65-2.56,3.46-3.36,5.41s-1.2,4.15-1.2,6.6.4,4.65,1.2,6.6c.8,1.95,1.92,3.76,3.36,5.41h2.8v-.12M209.17,153.89c-1.07,1.27-2.51,1.9-4.31,1.9s-3.25-.63-4.32-1.9c-1.07-1.26-1.61-3.09-1.61-5.47s.53-4.18,1.58-5.46c1.05-1.28,2.5-1.92,4.35-1.92s3.28.64,4.33,1.92c1.06,1.28,1.59,3.1,1.59,5.46s-.54,4.21-1.61,5.47M208.35,139.59c-1.04-.43-2.21-.64-3.51-.64s-2.41.21-3.47.63-1.95,1.03-2.67,1.83c-.75.84-1.32,1.85-1.71,3.02-.39,1.18-.59,2.5-.59,3.99s.2,2.84.59,4.02c.39,1.17.96,2.16,1.69,2.97s1.62,1.42,2.67,1.84,2.21.63,3.49.63,2.48-.21,3.5-.62c1.02-.42,1.91-1.03,2.66-1.86.72-.79,1.29-1.78,1.69-2.96.4-1.18.6-2.53.6-4.02s-.2-2.84-.59-4.02c-.39-1.18-.96-2.18-1.7-2.99-.72-.79-1.61-1.4-2.64-1.83" style="fill: #444;"/>
      <path d="M176,149.25h9v-3h-9v3M158,149.25h9v-3h-9v3M140,149.25h9v-3h-9v3" style="fill: #2ca02c;"/>
      <path d="M204.85,141.03c-1.85,0-3.3.64-4.35,1.92s-1.58,3.1-1.58,5.46.54,4.21,1.61,5.47c1.07,1.27,2.51,1.9,4.32,1.9s3.24-.63,4.31-1.9c1.07-1.26,1.61-3.09,1.61-5.47s-.53-4.18-1.59-5.46c-1.06-1.28-2.5-1.92-4.33-1.92M140,149.25v-3h9v3h-9M158,149.25v-3h9v3h-9M176,149.25v-3h9v3h-9M230.58,145.38c.72-.59,1.46-1.06,2.22-1.39s1.55-.5,2.36-.5c1.47,0,2.6.44,3.37,1.33.77.89,1.16,2.16,1.16,3.83v8.85h-2.29v-7.76c0-.63-.04-1.21-.11-1.76-.07-.55-.21-.98-.4-1.29-.2-.34-.5-.6-.88-.76-.38-.17-.88-.25-1.49-.25s-1.28.15-1.97.46c-.68.31-1.34.7-1.97,1.18v10.18h-2.29v-13.63h2.29v1.51M244.12,149.17l7.19-9.85h1.54l7.19,9.83h-2.42l-5.55-7.65-5.54,7.68h-2.4M204.84,157.88c-1.28,0-2.44-.21-3.49-.63s-1.93-1.04-2.67-1.84c-.73-.81-1.3-1.79-1.69-2.97-.4-1.17-.59-2.51-.59-4.02s.2-2.81.59-3.99c.39-1.18.96-2.18,1.71-3.02.72-.8,1.61-1.41,2.67-1.83s2.22-.63,3.47-.63,2.47.21,3.51.64,1.92,1.04,2.64,1.83c.74.81,1.31,1.81,1.7,2.99.39,1.18.59,2.52.59,4.02s-.2,2.84-.6,4.02c-.4,1.18-.97,2.17-1.69,2.96-.75.82-1.63,1.44-2.66,1.86-1.02.42-2.19.62-3.5.62M264.73,142.64v-2.56c.58-.28,1.35-.55,2.31-.78.96-.24,1.9-.35,2.8-.35,1.86,0,3.32.45,4.38,1.35,1.06.9,1.59,2.12,1.59,3.66,0,.69-.09,1.34-.26,1.93-.17.6-.43,1.17-.77,1.7-.32.5-.69,1-1.12,1.49s-.95,1.03-1.56,1.62c-.87.85-1.77,1.68-2.7,2.48-.93.8-1.79,1.54-2.6,2.23h9.78v2.09h-12.3v-2.55c.85-.73,1.71-1.46,2.57-2.2.86-.73,1.66-1.46,2.4-2.19,1.56-1.51,2.63-2.72,3.21-3.61s.87-1.85.87-2.89c0-.94-.31-1.68-.93-2.22-.62-.53-1.49-.8-2.61-.8-.74,0-1.54.13-2.4.39s-1.7.66-2.53,1.2h-.12M221.44,162.53c-1.44-1.65-2.56-3.46-3.36-5.41s-1.2-4.15-1.2-6.6.4-4.65,1.2-6.6c.8-1.95,1.92-3.76,3.36-5.41h2.8v.12c-.66.59-1.29,1.28-1.89,2.06s-1.15,1.68-1.67,2.72c-.49,1-.88,2.1-1.19,3.31-.3,1.2-.46,2.47-.46,3.81s.15,2.67.45,3.82c.3,1.16.7,2.25,1.2,3.3.49,1,1.05,1.91,1.67,2.72.63.81,1.25,1.49,1.88,2.06v.12h-2.8M280,162.53v-.12c.63-.56,1.26-1.25,1.89-2.06s1.19-1.72,1.67-2.72c.5-1.04.91-2.14,1.2-3.3.3-1.16.45-2.43.45-3.82s-.15-2.6-.45-3.81c-.3-1.2-.7-2.31-1.2-3.31-.51-1.03-1.07-1.94-1.67-2.72s-1.23-1.46-1.89-2.06v-.12h2.8c1.44,1.65,2.56,3.46,3.36,5.41s1.2,4.15,1.2,6.6-.4,4.65-1.2,6.6c-.8,1.95-1.92,3.76-3.36,5.41h-2.8M499.86,130H135v35.5h364.86v-35.5" style="fill: #fff;"/>
      <path d="M235.16,143.49c-.81,0-1.59.17-2.36.5s-1.51.8-2.22,1.39v-1.51h-2.29v13.63h2.29v-10.18c.63-.48,1.28-.88,1.97-1.18.68-.31,1.34-.46,1.97-.46s1.11.08,1.49.25.68.42.88.76c.2.31.33.74.4,1.29.07.55.11,1.14.11,1.76v7.76h2.29v-8.85c0-1.67-.39-2.95-1.16-3.83-.77-.89-1.9-1.33-3.37-1.33M252.85,139.32h-1.54l-7.19,9.85h2.4l5.54-7.68,5.55,7.65h2.42l-7.19-9.83M204.85,155.79c-1.81,0-3.25-.63-4.32-1.9-1.07-1.26-1.61-3.09-1.61-5.47s.53-4.18,1.58-5.46c1.05-1.28,2.5-1.92,4.35-1.92s3.28.64,4.33,1.92c1.06,1.28,1.59,3.1,1.59,5.46s-.54,4.21-1.61,5.47c-1.07,1.27-2.51,1.9-4.31,1.9M204.84,138.95c-1.25,0-2.41.21-3.47.63s-1.95,1.03-2.67,1.83c-.75.84-1.32,1.85-1.71,3.02-.39,1.18-.59,2.5-.59,3.99s.2,2.84.59,4.02c.39,1.17.96,2.16,1.69,2.97s1.62,1.42,2.67,1.84,2.21.63,3.49.63,2.48-.21,3.5-.62c1.02-.42,1.91-1.03,2.66-1.86.72-.79,1.29-1.78,1.69-2.96.4-1.18.6-2.53.6-4.02s-.2-2.84-.59-4.02c-.39-1.18-.96-2.18-1.7-2.99-.72-.79-1.61-1.4-2.64-1.83-1.04-.43-2.21-.64-3.51-.64M269.84,138.95c-.9,0-1.84.12-2.8.35-.96.24-1.74.5-2.31.78v2.56h.12c.82-.54,1.66-.94,2.53-1.2.86-.26,1.66-.39,2.4-.39,1.11,0,1.98.27,2.61.8.62.53.93,1.27.93,2.22,0,1.03-.29,2-.87,2.89s-1.65,2.09-3.21,3.61c-.74.72-1.54,1.45-2.4,2.19-.86.73-1.72,1.46-2.57,2.2v2.55h12.3v-2.09h-9.78c.81-.68,1.67-1.43,2.6-2.23s1.83-1.63,2.7-2.48c.61-.59,1.13-1.14,1.56-1.62.43-.49.8-.98,1.12-1.49.34-.54.6-1.1.77-1.7.18-.6.26-1.24.26-1.93,0-1.54-.53-2.76-1.59-3.66-1.06-.9-2.52-1.35-4.38-1.35M224.24,138.51h-2.8c-1.44,1.65-2.56,3.46-3.36,5.41s-1.2,4.15-1.2,6.6.4,4.65,1.2,6.6c.8,1.95,1.92,3.76,3.36,5.41h2.8v-.12c-.63-.56-1.25-1.25-1.88-2.06s-1.18-1.72-1.67-2.72c-.5-1.04-.91-2.14-1.2-3.3-.3-1.16-.45-2.43-.45-3.82s.15-2.6.46-3.81c.31-1.2.7-2.31,1.19-3.31.51-1.03,1.07-1.94,1.67-2.72.6-.78,1.23-1.46,1.89-2.06v-.12M282.79,138.51h-2.8v.12c.66.59,1.29,1.28,1.89,2.06s1.15,1.68,1.67,2.72c.5,1,.9,2.1,1.2,3.31.3,1.2.45,2.47.45,3.81s-.15,2.67-.45,3.82c-.3,1.16-.7,2.25-1.2,3.3-.48,1-1.04,1.91-1.67,2.72s-1.26,1.49-1.89,2.06v.12h2.8c1.44-1.65,2.56-3.46,3.36-5.41s1.2-4.15,1.2-6.6-.4-4.65-1.2-6.6c-.8-1.95-1.92-3.76-3.36-5.41" style="fill: #444;"/>
      <path d="M149,146.25h-9v3h9v-3M167,146.25h-9v3h9v-3M185,146.25h-9v3h9v-3" style="fill: #2ca02c;"/>
      <path d="M320.81,179.41c-.8-1.95-1.92-3.76-3.36-5.41h-2.8v.12c.66.59,1.29,1.28,1.89,2.06s1.15,1.68,1.67,2.72c.5,1,.89,2.1,1.2,3.31.3,1.2.45,2.47.45,3.81s-.15,2.67-.45,3.82c-.3,1.16-.7,2.25-1.2,3.3-.48,1-1.04,1.91-1.67,2.72s-1.26,1.5-1.89,2.06v.12h2.8c1.44-1.65,2.56-3.46,3.36-5.41s1.2-4.15,1.2-6.6-.4-4.65-1.2-6.6M310.7,184.15c0-1.67-.39-2.95-1.16-3.83-.77-.89-1.9-1.33-3.37-1.33-.81,0-1.59.17-2.36.5s-1.51.8-2.22,1.39v-1.51h-2.29v13.63h2.29v-10.18c.63-.48,1.28-.88,1.97-1.18.68-.31,1.34-.46,1.97-.46s1.11.08,1.49.25.68.42.88.76c.2.31.33.74.4,1.29.07.55.11,1.14.11,1.76v7.76h2.29v-8.85M281.85,190.28c-.67.26-1.34.38-2.01.38-1.25,0-2.14-.39-2.67-1.18-.54-.79-.81-1.95-.81-3.48,0-1.61.36-2.84,1.09-3.69.72-.85,1.72-1.27,2.98-1.27.52,0,1.04.06,1.57.18.52.12,1.09.32,1.7.59v7.43c-.56.43-1.18.78-1.85,1.03M285.99,179.37h-2.15l-.15.59c-.59-.33-1.16-.57-1.69-.73-.53-.16-1.19-.24-1.98-.24s-1.5.16-2.26.48c-.76.32-1.4.77-1.93,1.35-.57.62-1.02,1.35-1.35,2.2-.33.85-.49,1.86-.49,3.03,0,2.14.48,3.8,1.43,4.97.96,1.18,2.25,1.76,3.88,1.76.98,0,1.78-.14,2.41-.41s1.29-.69,1.98-1.24v1.25c0,.55-.06,1.05-.18,1.5s-.33.83-.61,1.15c-.29.33-.68.59-1.2.78-.51.19-1.16.28-1.94.28s-1.63-.11-2.44-.32c-.81-.22-1.41-.4-1.78-.54h-.12v2.34c.67.19,1.34.33,2.03.43.69.1,1.39.15,2.12.15,2.18,0,3.8-.54,4.85-1.62,1.05-1.08,1.57-2.78,1.57-5.09v-12.08M267.97,190.09c-.7.87-1.65,1.31-2.88,1.31s-2.2-.44-2.89-1.32-1.04-2.18-1.04-3.89.34-3.08,1.03-3.94,1.65-1.29,2.9-1.29,2.19.43,2.88,1.29,1.04,2.17,1.04,3.94-.35,3.03-1.04,3.9M269.67,180.92c-1.14-1.29-2.67-1.93-4.58-1.93s-3.46.65-4.6,1.93c-1.14,1.29-1.7,3.05-1.7,5.27s.57,3.98,1.7,5.26c1.13,1.29,2.67,1.93,4.6,1.93s3.44-.64,4.58-1.93c1.14-1.29,1.71-3.04,1.71-5.26s-.57-3.98-1.71-5.27M255.22,174.01h-2.29v18.99h2.29v-18.99M239.69,184.15c0-1.67-.39-2.95-1.16-3.83-.77-.89-1.9-1.33-3.37-1.33-.81,0-1.59.17-2.36.5s-1.51.8-2.22,1.39v-1.51h-2.29v13.63h2.29v-10.18c.63-.48,1.28-.88,1.97-1.18.68-.31,1.34-.46,1.97-.46s1.11.08,1.49.25.68.42.88.76c.2.31.33.74.4,1.29.07.55.11,1.14.11,1.76v7.76h2.29v-8.85M224.24,197.91c-.63-.56-1.25-1.25-1.88-2.06s-1.18-1.72-1.67-2.72c-.5-1.04-.91-2.14-1.2-3.3-.3-1.16-.45-2.43-.45-3.82s.15-2.6.46-3.81c.31-1.2.7-2.31,1.19-3.31.51-1.03,1.07-1.94,1.67-2.72.6-.78,1.23-1.46,1.89-2.06v-.12h-2.8c-1.44,1.65-2.56,3.46-3.36,5.41s-1.2,4.15-1.2,6.6.4,4.65,1.2,6.6c.8,1.95,1.92,3.76,3.36,5.41h2.8v-.12M209.17,189.39c-1.07,1.27-2.51,1.9-4.31,1.9s-3.25-.63-4.32-1.9c-1.07-1.26-1.61-3.09-1.61-5.47s.53-4.18,1.58-5.46c1.05-1.28,2.5-1.92,4.35-1.92s3.28.64,4.33,1.92c1.06,1.28,1.59,3.1,1.59,5.46s-.54,4.21-1.61,5.47M208.35,175.09c-1.04-.43-2.21-.64-3.51-.64s-2.41.21-3.47.63-1.95,1.03-2.67,1.83c-.75.84-1.32,1.85-1.71,3.02-.39,1.18-.59,2.5-.59,3.99s.2,2.84.59,4.02c.39,1.17.96,2.16,1.69,2.97s1.62,1.42,2.67,1.84,2.21.63,3.49.63,2.48-.21,3.5-.62c1.02-.42,1.91-1.03,2.66-1.86.72-.79,1.29-1.78,1.69-2.96.4-1.18.6-2.53.6-4.02s-.2-2.84-.59-4.02c-.39-1.18-.96-2.18-1.7-2.99-.72-.79-1.61-1.4-2.64-1.83" style="fill: #444;"/>
      <path d="M176,184.75h9v-3h-9v3M158,184.75h9v-3h-9v3M140,184.75h9v-3h-9v3" style="fill: #d62728;"/>
      <path d="M280.42,181.05c-1.26,0-2.25.42-2.98,1.27-.72.85-1.09,2.08-1.09,3.69s.27,2.69.81,3.48,1.43,1.18,2.67,1.18c.67,0,1.34-.13,2.01-.38.67-.26,1.29-.6,1.85-1.03v-7.43c-.61-.28-1.18-.47-1.7-.59-.53-.12-1.05-.18-1.57-.18M265.09,180.96c-1.25,0-2.21.43-2.9,1.29s-1.03,2.17-1.03,3.94.35,3,1.04,3.89c.69.88,1.66,1.32,2.89,1.32s2.18-.44,2.88-1.31c.7-.88,1.04-2.17,1.04-3.9s-.35-3.08-1.04-3.94-1.65-1.29-2.88-1.29M204.85,176.53c-1.85,0-3.3.64-4.35,1.92s-1.58,3.1-1.58,5.46.54,4.21,1.61,5.47c1.07,1.27,2.51,1.9,4.32,1.9s3.24-.63,4.31-1.9c1.07-1.26,1.61-3.09,1.61-5.47s-.53-4.18-1.59-5.46c-1.06-1.28-2.5-1.92-4.33-1.92M140,184.75v-3h9v3h-9M158,184.75v-3h9v3h-9M176,184.75v-3h9v3h-9M230.58,180.88c.72-.59,1.46-1.06,2.22-1.39s1.55-.5,2.36-.5c1.47,0,2.6.44,3.37,1.33.77.89,1.16,2.17,1.16,3.83v8.85h-2.29v-7.76c0-.63-.04-1.21-.11-1.76-.07-.55-.21-.98-.4-1.29-.2-.34-.5-.6-.88-.76-.38-.17-.88-.25-1.49-.25s-1.28.15-1.97.46c-.68.31-1.34.7-1.97,1.18v10.18h-2.29v-13.63h2.29v1.51M265.09,193.38c-1.93,0-3.46-.64-4.6-1.93s-1.7-3.04-1.7-5.26.57-3.98,1.7-5.27c1.13-1.29,2.67-1.93,4.6-1.93s3.44.65,4.58,1.93c1.14,1.29,1.71,3.05,1.71,5.27s-.57,3.98-1.71,5.26c-1.14,1.29-2.67,1.93-4.58,1.93M279.3,192.79c-1.63,0-2.92-.59-3.88-1.76-.96-1.18-1.43-2.83-1.43-4.97,0-1.17.17-2.18.49-3.03.33-.85.78-1.59,1.35-2.2.53-.58,1.17-1.03,1.93-1.35.76-.32,1.51-.48,2.26-.48.79,0,1.45.08,1.98.24s1.1.4,1.69.73l.15-.59h2.15v12.08c0,2.31-.52,4.01-1.57,5.09-1.05,1.08-2.67,1.62-4.85,1.62-.72,0-1.43-.05-2.12-.15-.69-.1-1.37-.25-2.03-.43v-2.34h.12c.37.15.97.33,1.78.54.81.21,1.63.32,2.44.32s1.43-.09,1.94-.28.91-.45,1.2-.78c.28-.32.49-.7.61-1.15s.18-.95.18-1.5v-1.25c-.69.55-1.35.97-1.98,1.24s-1.43.41-2.41.41M301.59,180.88c.72-.59,1.46-1.06,2.22-1.39s1.55-.5,2.36-.5c1.47,0,2.6.44,3.37,1.33s1.16,2.17,1.16,3.83v8.85h-2.29v-7.76c0-.63-.04-1.21-.11-1.76-.07-.55-.21-.98-.4-1.29-.2-.34-.5-.6-.88-.76-.38-.17-.88-.25-1.49-.25s-1.28.15-1.97.46c-.68.31-1.34.7-1.97,1.18v10.18h-2.29v-13.63h2.29v1.51M204.84,193.38c-1.28,0-2.44-.21-3.49-.63s-1.93-1.04-2.67-1.84c-.73-.81-1.3-1.79-1.69-2.97-.4-1.17-.59-2.51-.59-4.02s.2-2.81.59-3.99c.39-1.18.96-2.18,1.71-3.02.72-.8,1.61-1.41,2.67-1.83s2.22-.63,3.47-.63,2.47.21,3.51.64,1.92,1.04,2.64,1.83c.74.81,1.31,1.81,1.7,2.99.39,1.18.59,2.52.59,4.02s-.2,2.84-.6,4.02c-.4,1.18-.97,2.17-1.69,2.96-.75.82-1.63,1.44-2.66,1.86-1.02.42-2.19.62-3.5.62M221.44,198.03c-1.44-1.65-2.56-3.46-3.36-5.41s-1.2-4.15-1.2-6.6.4-4.65,1.2-6.6c.8-1.95,1.92-3.76,3.36-5.41h2.8v.12c-.66.59-1.29,1.28-1.89,2.06s-1.15,1.68-1.67,2.72c-.49,1-.88,2.1-1.19,3.31-.3,1.2-.46,2.47-.46,3.81s.15,2.67.45,3.82c.3,1.16.7,2.25,1.2,3.3.49,1,1.05,1.91,1.67,2.72.63.81,1.25,1.5,1.88,2.06v.12h-2.8M252.92,193v-18.99h2.29v18.99h-2.29M314.65,198.03v-.12c.63-.56,1.26-1.25,1.89-2.06s1.19-1.72,1.67-2.72c.5-1.04.91-2.14,1.2-3.3.3-1.16.45-2.43.45-3.82s-.15-2.6-.45-3.81c-.3-1.2-.7-2.31-1.2-3.31-.51-1.03-1.07-1.94-1.67-2.72s-1.23-1.46-1.89-2.06v-.12h2.8c1.44,1.65,2.56,3.46,3.36,5.41s1.2,4.15,1.2,6.6-.4,4.65-1.2,6.6c-.8,1.95-1.92,3.76-3.36,5.41h-2.8M499.86,165.5H135v35.5h364.86v-35.5" style="fill: #fff;"/>
      <path d="M235.16,178.99c-.81,0-1.59.17-2.36.5s-1.51.8-2.22,1.39v-1.51h-2.29v13.63h2.29v-10.18c.63-.48,1.28-.88,1.97-1.18.68-.31,1.34-.46,1.97-.46s1.11.08,1.49.25.68.42.88.76c.2.31.33.74.4,1.29.07.55.11,1.14.11,1.76v7.76h2.29v-8.85c0-1.67-.39-2.95-1.16-3.83-.77-.89-1.9-1.33-3.37-1.33M265.09,191.4c-1.24,0-2.2-.44-2.89-1.32s-1.04-2.18-1.04-3.89.34-3.08,1.03-3.94,1.65-1.29,2.9-1.29,2.19.43,2.88,1.29,1.04,2.17,1.04,3.94-.35,3.03-1.04,3.9c-.7.87-1.65,1.31-2.88,1.31M265.09,178.99c-1.93,0-3.46.65-4.6,1.93-1.14,1.29-1.7,3.05-1.7,5.27s.57,3.98,1.7,5.26c1.13,1.29,2.67,1.93,4.6,1.93s3.44-.64,4.58-1.93c1.14-1.29,1.71-3.04,1.71-5.26s-.57-3.98-1.71-5.27c-1.14-1.29-2.67-1.93-4.58-1.93M279.84,190.67c-1.25,0-2.14-.39-2.67-1.18-.54-.79-.81-1.95-.81-3.48,0-1.61.36-2.84,1.09-3.69.72-.85,1.72-1.27,2.98-1.27.52,0,1.04.06,1.57.18.52.12,1.09.32,1.7.59v7.43c-.56.43-1.18.78-1.85,1.03-.67.26-1.34.38-2.01.38M280.02,178.99c-.75,0-1.5.16-2.26.48-.76.32-1.4.77-1.93,1.35-.57.62-1.02,1.35-1.35,2.2-.33.85-.49,1.86-.49,3.03,0,2.14.48,3.8,1.43,4.97.96,1.18,2.25,1.76,3.88,1.76.98,0,1.78-.14,2.41-.41s1.29-.69,1.98-1.24v1.25c0,.55-.06,1.05-.18,1.5s-.33.83-.61,1.15c-.29.33-.68.59-1.2.78-.51.19-1.16.28-1.94.28s-1.63-.11-2.44-.32c-.81-.22-1.41-.4-1.78-.54h-.12v2.34c.67.19,1.34.33,2.03.43.69.1,1.39.15,2.12.15,2.18,0,3.8-.54,4.85-1.62,1.05-1.08,1.57-2.78,1.57-5.09v-12.08h-2.15l-.15.59c-.59-.33-1.16-.57-1.69-.73-.53-.16-1.19-.24-1.98-.24M306.17,178.99c-.81,0-1.59.17-2.36.5s-1.51.8-2.22,1.39v-1.51h-2.29v13.63h2.29v-10.18c.63-.48,1.28-.88,1.97-1.18.68-.31,1.34-.46,1.97-.46s1.11.08,1.49.25.68.42.88.76c.2.31.33.74.4,1.29.07.55.11,1.14.11,1.76v7.76h2.29v-8.85c0-1.67-.39-2.95-1.16-3.83-.77-.89-1.9-1.33-3.37-1.33M204.85,191.29c-1.81,0-3.25-.63-4.32-1.9-1.07-1.26-1.61-3.09-1.61-5.47s.53-4.18,1.58-5.46c1.05-1.28,2.5-1.92,4.35-1.92s3.28.64,4.33,1.92c1.06,1.28,1.59,3.1,1.59,5.46s-.54,4.21-1.61,5.47c-1.07,1.27-2.51,1.9-4.31,1.9M204.84,174.45c-1.25,0-2.41.21-3.47.63s-1.95,1.03-2.67,1.83c-.75.84-1.32,1.85-1.71,3.02-.39,1.18-.59,2.5-.59,3.99s.2,2.84.59,4.02c.39,1.17.96,2.16,1.69,2.97s1.62,1.42,2.67,1.84,2.21.63,3.49.63,2.48-.21,3.5-.62c1.02-.42,1.91-1.03,2.66-1.86.72-.79,1.29-1.78,1.69-2.96.4-1.18.6-2.53.6-4.02s-.2-2.84-.59-4.02c-.39-1.18-.96-2.18-1.7-2.99-.72-.79-1.61-1.4-2.64-1.83-1.04-.43-2.21-.64-3.51-.64M224.24,174.01h-2.8c-1.44,1.65-2.56,3.46-3.36,5.41s-1.2,4.15-1.2,6.6.4,4.65,1.2,6.6c.8,1.95,1.92,3.76,3.36,5.41h2.8v-.12c-.63-.56-1.25-1.25-1.88-2.06s-1.18-1.72-1.67-2.72c-.5-1.04-.91-2.14-1.2-3.3-.3-1.16-.45-2.43-.45-3.82s.15-2.6.46-3.81c.31-1.2.7-2.31,1.19-3.31.51-1.03,1.07-1.94,1.67-2.72.6-.78,1.23-1.46,1.89-2.06v-.12M255.22,174.01h-2.29v18.99h2.29v-18.99M317.45,174.01h-2.8v.12c.66.59,1.29,1.28,1.89,2.06s1.15,1.68,1.67,2.72c.5,1,.89,2.1,1.2,3.31.3,1.2.45,2.47.45,3.81s-.15,2.67-.45,3.82c-.3,1.16-.7,2.25-1.2,3.3-.48,1-1.04,1.91-1.67,2.72s-1.26,1.5-1.89,2.06v.12h2.8c1.44-1.65,2.56-3.46,3.36-5.41s1.2-4.15,1.2-6.6-.4-4.65-1.2-6.6c-.8-1.95-1.92-3.76-3.36-5.41" style="fill: #444;"/>
      <path d="M149,181.75h-9v3h9v-3M167,181.75h-9v3h9v-3M185,181.75h-9v3h9v-3" style="fill: #d62728;"/>
    </g>
  </g>
  <path d="M506.22,607.66c.09-.95.45-1.74,1.09-2.37.64-.64,1.5-.96,2.58-.96s1.87.29,2.4.87c.53.58.79,1.4.8,2.46h-6.88.01ZM515.06,608.11c0-1.74-.44-3.08-1.32-4.03s-2.13-1.42-3.74-1.42c-1.75,0-3.16.58-4.23,1.73-1.07,1.15-1.61,2.71-1.61,4.67s.56,3.51,1.68,4.59,2.67,1.62,4.66,1.62c.78,0,1.53-.1,2.23-.29s1.4-.43,2.08-.72v-2.2h-.11c-.35.32-.94.64-1.77.96-.83.33-1.65.49-2.47.49-.62,0-1.18-.09-1.69-.26s-.95-.43-1.33-.77c-.39-.35-.69-.8-.91-1.35s-.33-1.19-.33-1.93h8.84v-1.1h.02ZM502.29,613.29h-7.21l7.03-8.85v-1.44h-9.36v1.69h6.84l-6.99,8.82v1.49h9.69v-1.71h0ZM489.59,603h-2.02v12h2.02v-12ZM489.72,598.9h-2.28v2.09h2.28v-2.09ZM483.9,609.44c-.51-.52-1.23-.89-2.17-1.11-.31-.07-.69-.15-1.15-.24s-.88-.17-1.25-.26c-.67-.16-1.16-.36-1.46-.61-.31-.25-.46-.62-.46-1.12,0-.56.25-.98.76-1.26s1.13-.42,1.87-.42,1.43.13,2.17.39c.74.26,1.36.58,1.88.96h.11v-2.16c-.49-.25-1.1-.46-1.83-.64-.73-.18-1.46-.26-2.18-.26-.77,0-1.46.1-2.08.29-.62.2-1.13.46-1.53.8-.42.34-.73.73-.93,1.17s-.31.9-.31,1.4c0,.79.22,1.45.66,1.99s1.19.95,2.24,1.23c.38.1.8.19,1.26.28s.84.16,1.12.23c.77.17,1.3.38,1.57.62.27.24.41.6.41,1.07,0,.62-.25,1.07-.75,1.35-.5.29-1.2.43-2.08.43-.72,0-1.46-.14-2.25-.42-.78-.28-1.49-.67-2.13-1.14h-.11v2.27c.5.25,1.12.48,1.86.69s1.56.32,2.44.32c1.57,0,2.81-.35,3.71-1.05.91-.7,1.36-1.6,1.36-2.7,0-.87-.25-1.58-.76-2.11h0ZM456.45,607.66c.09-.95.45-1.74,1.09-2.37.64-.64,1.5-.96,2.58-.96s1.87.29,2.4.87.79,1.4.8,2.46h-6.88.01ZM465.29,608.11c0-1.74-.44-3.08-1.32-4.03s-2.13-1.42-3.74-1.42c-1.75,0-3.16.58-4.23,1.73-1.07,1.15-1.61,2.71-1.61,4.67s.56,3.51,1.68,4.59,2.67,1.62,4.66,1.62c.78,0,1.53-.1,2.23-.29s1.4-.43,2.08-.72v-2.2h-.11c-.35.32-.94.64-1.77.96-.83.33-1.65.49-2.47.49-.62,0-1.18-.09-1.69-.26s-.95-.43-1.33-.77c-.39-.35-.69-.8-.91-1.35s-.33-1.19-.33-1.93h8.84v-1.1h.02ZM451.25,598.29h-2.02v16.71h2.02v-16.71ZM443.03,612.28c-.63.76-1.51,1.14-2.63,1.14-.52,0-.99-.05-1.4-.14s-.9-.27-1.48-.53v-6.8c.54-.41,1.1-.74,1.69-.99s1.17-.38,1.75-.38c1.02,0,1.78.36,2.28,1.07s.74,1.8.74,3.24-.32,2.61-.95,3.37v.02ZM444.85,604.31c-.81-1.09-1.93-1.64-3.38-1.64-.76,0-1.47.15-2.14.46-.67.3-1.27.68-1.81,1.13v-1.26h-2.02v16.42h2.02v-5.03c.52.29,1.04.5,1.54.63s1.07.2,1.69.2c.72,0,1.39-.14,2.04-.44.64-.29,1.2-.7,1.67-1.23.51-.56.9-1.24,1.18-2.05s.42-1.7.42-2.67c0-1.94-.4-3.46-1.21-4.55v.03ZM431.61,607.21c0-1.43-.31-2.55-.94-3.35s-1.6-1.2-2.92-1.2c-.77,0-1.49.15-2.16.46-.67.3-1.42.8-2.23,1.49-.28-.61-.7-1.08-1.27-1.43s-1.26-.52-2.08-.52c-.71,0-1.38.15-2,.44-.63.29-1.26.7-1.89,1.22v-1.33h-2.02v12h2.02v-8.96c.55-.42,1.1-.77,1.66-1.04.55-.27,1.11-.41,1.66-.41.58,0,1.02.08,1.33.23.31.15.54.38.71.69.15.29.25.67.3,1.14.05.48.07.98.07,1.51v6.83h2.02v-7.68c0-.21,0-.43-.02-.65-.01-.22-.03-.41-.05-.58.57-.44,1.13-.8,1.7-1.08s1.13-.42,1.7-.42,1.02.08,1.33.24.54.39.71.7c.15.29.25.67.3,1.15.05.48.07.98.07,1.49v6.83h2.02v-7.79l-.02.02ZM406.57,613.04c-.59.28-1.24.41-1.94.41-.85,0-1.49-.17-1.9-.52-.42-.35-.62-.86-.62-1.55,0-.61.18-1.09.54-1.43.36-.35.83-.6,1.41-.77.49-.14,1.15-.24,1.98-.31.83-.07,1.56-.12,2.18-.16v3.34c-.5.39-1.05.72-1.63.99h-.02ZM410.22,606.86c0-.77-.12-1.42-.35-1.94s-.58-.95-1.03-1.28c-.46-.34-1-.57-1.63-.71s-1.36-.21-2.21-.21c-.72,0-1.46.06-2.2.19-.75.13-1.31.25-1.71.35v2.05h.11c.69-.26,1.37-.47,2.02-.61s1.24-.21,1.77-.21c.44,0,.86.03,1.26.09.4.06.74.17,1.03.33.3.17.53.41.69.71s.24.68.24,1.14v.31c-1.17.06-2.27.14-3.3.26-1.02.11-1.9.33-2.63.66-.72.32-1.28.76-1.67,1.33-.39.56-.59,1.3-.59,2.21,0,1.11.38,2.02,1.13,2.74s1.67,1.07,2.75,1.07c.59,0,1.1-.06,1.54-.17s.82-.25,1.16-.41c.29-.13.58-.3.89-.52.3-.22.55-.39.73-.51v1.28h2.01v-8.14h-.01ZM396.73,607.76c-.6-.64-1.5-1.11-2.69-1.43-.59-.15-1.3-.3-2.15-.44s-1.5-.26-1.96-.37c-.87-.2-1.47-.49-1.82-.87s-.52-.9-.52-1.57c0-.75.35-1.35,1.04-1.83.69-.47,1.61-.71,2.74-.71,1.04,0,2.05.17,3.05.51.99.34,1.79.77,2.4,1.28h.15v-2.51c-.72-.32-1.55-.58-2.49-.79-.94-.21-1.97-.32-3.09-.32-1.74,0-3.18.43-4.31,1.28-1.13.86-1.7,1.95-1.7,3.29,0,1.17.34,2.11,1.03,2.84.68.73,1.73,1.24,3.15,1.54.7.14,1.37.26,1.99.35.63.09,1.21.21,1.75.35.71.19,1.24.45,1.58.78.35.34.52.86.52,1.57,0,.82-.37,1.48-1.1,1.98-.73.49-1.76.74-3.08.74-.93,0-1.93-.18-2.99-.55s-1.99-.88-2.8-1.56h-.15v2.66c.95.42,1.89.74,2.81.96.92.21,1.96.32,3.11.32,1.07,0,1.99-.13,2.76-.39s1.43-.62,2-1.07c.52-.42.93-.94,1.22-1.55s.44-1.22.44-1.85c0-1.15-.3-2.04-.9-2.67v.03Z" style="fill: #444;"/>
  <path d="M14.56,207.34c-1.72.7-3.3,1.69-4.76,2.95v2.46h.11c.52-.58,1.13-1.13,1.81-1.66.68-.53,1.48-1.02,2.39-1.47.88-.44,1.85-.79,2.91-1.05,1.06-.26,2.18-.4,3.35-.4s2.35.13,3.36.39c1.02.26,1.98.61,2.9,1.06.88.42,1.68.91,2.39,1.47s1.32,1.11,1.81,1.66h.11v-2.46c-1.45-1.27-3.04-2.25-4.76-2.95-1.72-.7-3.66-1.05-5.81-1.05s-4.09.35-5.81,1.05ZM20.95,216c-.52.51-.89,1.23-1.11,2.17-.07.31-.15.69-.24,1.15s-.17.88-.26,1.25c-.16.67-.36,1.16-.61,1.46-.25.31-.62.46-1.12.46-.56,0-.98-.25-1.26-.76s-.42-1.13-.42-1.87.13-1.43.39-2.17.58-1.36.96-1.88v-.11h-2.16c-.25.49-.46,1.1-.64,1.83s-.26,1.46-.26,2.18c0,.77.1,1.46.29,2.08.2.62.46,1.13.8,1.53.34.42.73.73,1.17.93s.9.31,1.4.31c.79,0,1.45-.22,1.99-.66.54-.44.95-1.19,1.23-2.24.1-.38.19-.8.28-1.26s.16-.84.23-1.12c.17-.77.38-1.3.62-1.57.24-.27.6-.41,1.07-.41.62,0,1.07.25,1.35.75.29.5.43,1.2.43,2.08,0,.72-.14,1.46-.42,2.25-.28.78-.67,1.49-1.14,2.13v.11h2.27c.25-.5.48-1.12.69-1.86.21-.74.32-1.56.32-2.44,0-1.57-.35-2.81-1.05-3.71-.7-.91-1.6-1.36-2.7-1.36-.87,0-1.58.25-2.11.76h.01ZM30.84,227.38c-.49.55-1.1,1.1-1.81,1.65-.71.55-1.51,1.04-2.39,1.47-.92.44-1.88.8-2.9,1.06s-2.14.39-3.36.39-2.29-.13-3.35-.4-2.03-.62-2.91-1.05c-.91-.45-1.71-.94-2.39-1.47s-1.29-1.08-1.81-1.66h-.11v2.46c1.45,1.27,3.04,2.25,4.76,2.95s3.66,1.05,5.81,1.05,4.09-.35,5.81-1.05,3.3-1.69,4.76-2.95v-2.46h-.11ZM19.18,253.44c-.95-.09-1.74-.45-2.37-1.09-.64-.64-.96-1.5-.96-2.58s.29-1.87.87-2.4,1.4-.79,2.46-.8v6.88h0ZM19.63,244.59c-1.74,0-3.08.44-4.03,1.32-.95.88-1.42,2.13-1.42,3.74,0,1.75.58,3.16,1.73,4.23,1.15,1.07,2.71,1.61,4.67,1.61s3.51-.56,4.59-1.68,1.62-2.67,1.62-4.66c0-.78-.1-1.53-.29-2.23s-.43-1.4-.72-2.08h-2.2v.11c.32.35.64.94.96,1.77.33.83.49,1.65.49,2.47,0,.62-.09,1.18-.26,1.69-.17.51-.43.95-.77,1.33-.35.39-.8.69-1.35.91-.55.22-1.19.33-1.93.33v-8.84h-1.1v-.02ZM18.73,258.53c-1.43,0-2.55.31-3.35.94-.8.63-1.2,1.6-1.2,2.92,0,.77.15,1.49.46,2.16.3.67.8,1.42,1.49,2.23-.61.28-1.08.7-1.43,1.27s-.52,1.26-.52,2.08c0,.71.15,1.38.44,2,.29.63.7,1.26,1.22,1.89h-1.33v2.02h12v-2.02h-8.96c-.42-.55-.77-1.1-1.04-1.66-.27-.55-.41-1.11-.41-1.66,0-.58.08-1.02.23-1.33s.38-.54.69-.71c.29-.15.67-.25,1.14-.3.48-.05.98-.07,1.51-.07h6.83v-2.02h-7.68c-.21,0-.43,0-.65.02-.22.01-.41.03-.58.05-.44-.57-.8-1.13-1.08-1.7s-.42-1.13-.42-1.7.08-1.02.24-1.33.39-.54.7-.71c.29-.15.67-.25,1.15-.3s.98-.07,1.49-.07h6.83v-2.02h-7.79l.02.02ZM14.52,280.03v2.02h12v-2.02h-12ZM10.42,279.9v2.28h2.09v-2.28h-2.09ZM24.6,284.51v.11c.06.16.15.42.24.77.1.36.15.7.15,1.03,0,.57-.07.99-.2,1.26-.13.28-.34.49-.63.65-.31.17-.64.27-.99.3s-.85.04-1.48.04h-5.47v-4.17h-1.7v4.17h-3.45v2.02h3.45v1.36h1.7v-1.36h6.38c1.45,0,2.51-.32,3.17-.96.66-.64.99-1.57.99-2.79,0-.35-.03-.75-.1-1.2-.06-.45-.15-.86-.25-1.24h-1.82,0ZM18.73,294.63c-1.47,0-2.59.34-3.37,1.02s-1.17,1.67-1.17,2.96c0,.71.15,1.4.44,2.07s.7,1.33,1.22,1.96h-1.33v2.02h12v-2.02h-8.96c-.42-.55-.77-1.13-1.04-1.73s-.41-1.18-.41-1.73.07-.97.22-1.31.37-.59.67-.77c.27-.17.65-.29,1.13-.35s1-.1,1.55-.1h6.83v-2.02h-7.79.01ZM14.52,308.64v2.02h8.96c.42.54.77,1.12,1.04,1.73.27.62.41,1.19.41,1.71,0,.59-.07,1.04-.21,1.34-.14.31-.37.56-.69.75-.31.19-.68.31-1.11.37s-.96.09-1.56.09h-6.83v2.02h7.79c1.49,0,2.62-.35,3.39-1.05.77-.7,1.16-1.68,1.16-2.94,0-.75-.14-1.44-.43-2.06s-.7-1.27-1.24-1.96h1.33v-2.02h-12.01ZM16.51,325.48c.39.15.74.39,1.04.71.32.35.54.78.66,1.28.12.5.18,1.09.18,1.76v2.15h-6.04v-2.5c0-.57.04-1.07.12-1.49.08-.42.23-.79.43-1.1.24-.37.54-.64.9-.8.35-.16.76-.24,1.22-.24.6,0,1.1.08,1.49.23h0ZM19.53,326.29c-.39-1.02-.98-1.82-1.76-2.4s-1.74-.87-2.89-.87c-.85,0-1.56.16-2.11.49-.55.33-1.01.78-1.38,1.36-.32.52-.55,1.1-.67,1.74-.13.64-.19,1.45-.19,2.42v4.48h16v-2.13h-6.36v-3l6.36-5.35v-2.76l-6.99,6.02h-.01Z" style="fill: #444;"/>
  <path d="M673.09,140.53h-14.09v5.47h14.09v-5.47M709.73,140.53h-35.64v5.47h35.64v-5.47M743.18,140.53h-32.45v5.47h32.45v-5.47M773.95,140.53h-29.77v5.47h29.77v-5.47M793,140.53h-18.05v5.47h18.05v-5.47M673.09,120h-14.09v19.53h14.09v-19.53M709.73,120h-35.64v19.53h35.64v-19.53M743.18,120h-32.45v19.53h32.45v-19.53M773.95,120h-29.77v19.53h29.77v-19.53M793,120h-18.05v19.53h18.05v-19.53" style="fill: #fff;"/>
  <path d="M674.09,140.53h-1v5.47h1v-5.47M674.09,120h-1v19.53h1v-19.53" style="fill: #eee;"/>
  <path d="M710.73,140.53h-1v5.47h1v-5.47M710.73,120h-1v19.53h1v-19.53" style="fill: #eee;"/>
  <path d="M744.18,140.53h-1v5.47h1v-5.47M744.18,120h-1v19.53h1v-19.53" style="fill: #eee;"/>
  <path d="M774.95,140.53h-1v5.47h1v-5.47M774.95,120h-1v19.53h1v-19.53" style="fill: #eee;"/>
  <polyline points="793 139.53 774.95 139.53 773.95 139.53 744.18 139.53 743.18 139.53 710.73 139.53 709.73 139.53 674.09 139.53 673.09 139.53 659 139.53 659 140.53 673.09 140.53 674.09 140.53 709.73 140.53 710.73 140.53 743.18 140.53 744.18 140.53 773.95 140.53 774.95 140.53 793 140.53 793 139.53" style="fill: #eee;"/>
  <path d="M709.73,146.5h-35.64v.5h35.64v-.5M743.18,146.5h-32.45v.5h32.45v-.5M773.95,146.5h-29.77v.5h29.77v-.5M658.5,140.53h-.5v6.47h15.09v-.5h-14.59v-5.97M794,140.53h-.5v5.97h-18.55v.5h19.05v-6.47M673.09,119h-15.09v.5h.5-.5v20.03h.5v-20.03h14.59v-.5M709.73,119h-35.64v.5h35.64v-.5M743.18,119h-32.45v.5h32.45v-.5M773.95,119h-29.77v.5h29.77v-.5M794,119h-19.05v.5h18.55v20.03h.5v-20.53" style="fill: #fff;"/>
  <path d="M674.09,146.5h-1v.5h1v-.5M674.09,119h-1v.5h1v-.5" style="fill: #eee;"/>
  <path d="M710.73,146.5h-1v.5h1v-.5M710.73,119h-1v.5h1v-.5" style="fill: #eee;"/>
  <path d="M744.18,146.5h-1v.5h1v-.5M744.18,119h-1v.5h1v-.5" style="fill: #eee;"/>
  <path d="M774.95,146.5h-1v.5h1v-.5M774.95,119h-1v.5h1v-.5" style="fill: #eee;"/>
  <path d="M658.5,139.53h-.5v1h.5v-1M794,139.53h-.5v1h.5v-1" style="fill: #eee;"/>
  <path d="M709.73,146h-35.64v.5h35.64v-.5M743.18,146h-32.45v.5h32.45v-.5M773.95,146h-29.77v.5h29.77v-.5M659,140.53h-.5v5.97h14.59v-.5h-14.09v-5.47M793.5,140.53h-.5v5.47h-18.05v.5h18.55v-5.97M673.09,119.5h-14.59v20.03h.5v-19.53h14.09v-.5M709.73,119.5h-35.64v.5h35.64v-.5M743.18,119.5h-32.45v.5h32.45v-.5M773.95,119.5h-29.77v.5h29.77v-.5M793.5,119.5h-18.55v.5h18.05v19.53h.5v-20.03" style="fill: #fff;"/>
  <path d="M674.09,146h-1v.5h1v-.5M674.09,119.5h-1v.5h1v-.5" style="fill: #eee;"/>
  <path d="M710.73,146h-1v.5h1v-.5M710.73,119.5h-1v.5h1v-.5" style="fill: #eee;"/>
  <path d="M744.18,146h-1v.5h1v-.5M744.18,119.5h-1v.5h1v-.5" style="fill: #eee;"/>
  <path d="M774.95,146h-1v.5h1v-.5M774.95,119.5h-1v.5h1v-.5" style="fill: #eee;"/>
  <path d="M659,139.53h-.5v1h.5v-1M793.5,139.53h-.5v1h.5v-1" style="fill: #eee;"/>
</svg>