<?xml version="1.0" encoding="UTF-8"?>
<svg id="Layer_1" data-name="Layer 1" xmlns="http://www.w3.org/2000/svg" width="916.92" height="720.73" xmlns:xlink="http://www.w3.org/1999/xlink" viewBox="0 0 916.92 720.73">
  <defs>
    <clipPath id="clippath">
      <rect x="76.92" width="840" height="660" style="fill: none;"/>
    </clipPath>
    <clipPath id="clippath-1">
      <rect x="640.55" y="42.57" width="239.81" height="238.26" style="fill: none;"/>
    </clipPath>
  </defs>
  <polyline points="76.92 545.77 916.92 545.77 916.92 544.77 76.92 544.77" style="fill: #eee;"/>
  <polyline points="76.92 431.05 916.92 431.05 916.92 430.05 76.92 430.05" style="fill: #eee;"/>
  <polyline points="76.92 316.32 916.92 316.32 916.92 315.32 76.92 315.32" style="fill: #eee;"/>
  <polyline points="76.92 201.6 916.92 201.6 916.92 200.6 76.92 200.6" style="fill: #eee;"/>
  <polyline points="76.92 86.87 916.92 86.87 916.92 85.87 76.92 85.87 76.92 86.87" style="fill: #eee;"/>
  <polyline points="76.92 660.5 916.92 660.5 916.92 659.5 76.92 659.5" style="fill: #444;"/>
  <g style="clip-path: url(#clippath);">
    <g>
      <rect x="79.69" y="655.19" width="22.19" height="4.81" style="fill: #ab63fa;"/>
      <rect x="258.99" y="657.01" width="22.18" height="2.99" style="fill: #ab63fa;"/>
      <rect x="198.56" y="464.67" width="22.19" height="195.33" style="fill: #ab63fa;"/>
      <rect x="289.69" y="659.23" width="22.19" height=".77" style="fill: #ab63fa;"/>
      <rect x="320.4" y="659.87" width="22.19" height=".13" style="fill: #ab63fa;"/>
      <rect x="350.12" y="659.97" width="22.19" height=".03" style="fill: #ab63fa;"/>
      <rect x="168.84" y="347.11" width="22.19" height="312.89" style="fill: #ab63fa;"/>
      <rect x="380.83" y="659.98" width="22.18" height=".02" style="fill: #ab63fa;"/>
      <rect x="441.25" y="659.99" width="22.19" height=".01" style="fill: #ab63fa;"/>
      <rect x="138.14" y="440.8" width="22.19" height="219.2" style="fill: #ab63fa;"/>
      <rect x="471.96" y="659.99" width="22.19" height=".01" style="fill: #ab63fa;"/>
      <rect x="410.54" y="659.98" width="22.19" height=".02" style="fill: #ab63fa;"/>
      <rect x="229.27" y="617.83" width="22.19" height="42.17" style="fill: #ab63fa;"/>
      <rect x="110.4" y="598.47" width="22.19" height="61.53" style="fill: #ab63fa;"/>
      <rect x="499.69" y="659.99" width="22.19" height=".01" style="fill: #ab63fa;"/>
      <rect x="681.96" y="659.9" width="22.19" height=".1" style="fill: #ffa15a;"/>
      <rect x="258.99" y="589.6" width="22.18" height="67.41" style="fill: #ffa15a;"/>
      <rect x="229.27" y="600.34" width="22.19" height="17.49" style="fill: #ffa15a;"/>
      <rect x="471.96" y="658.38" width="22.19" height="1.61" style="fill: #ffa15a;"/>
      <rect x="320.4" y="374.91" width="22.19" height="284.96" style="fill: #ffa15a;"/>
      <rect x="590.83" y="659.98" width="22.18" height=".02" style="fill: #ffa15a;"/>
      <rect x="380.83" y="318.71" width="22.18" height="341.27" style="fill: #ffa15a;"/>
      <rect x="410.54" y="331.55" width="22.19" height="328.43" style="fill: #ffa15a;"/>
      <rect x="530.4" y="659.94" width="22.19" height=".06" style="fill: #ffa15a;"/>
      <rect x="441.25" y="597.5" width="22.19" height="62.49" style="fill: #ffa15a;"/>
      <rect x="499.69" y="659.87" width="22.19" height=".12" style="fill: #ffa15a;"/>
      <rect x="651.25" y="659.98" width="22.19" height=".02" style="fill: #ffa15a;"/>
      <rect x="350.12" y="428.62" width="22.19" height="231.35" style="fill: #ffa15a;"/>
      <rect x="289.69" y="444.52" width="22.19" height="214.71" style="fill: #ffa15a;"/>
      <rect x="198.56" y="459.55" width="22.19" height="5.12" style="fill: #ffa15a;"/>
      <rect x="138.14" y="440.78" width="22.19" height=".02" style="fill: #ffa15a;"/>
      <rect x="168.84" y="346.06" width="22.19" height="1.05" style="fill: #ffa15a;"/>
      <rect x="79.69" y="655.15" width="22.19" height=".04" style="fill: #ffa15a;"/>
      <rect x="590.83" y="369.78" width="22.18" height="290.2" style="fill: #19d3f3;"/>
      <rect x="560.12" y="355.55" width="22.19" height="304.45" style="fill: #19d3f3;"/>
      <rect x="620.54" y="408.65" width="22.19" height="251.35" style="fill: #19d3f3;"/>
      <rect x="711.67" y="474.67" width="22.19" height="185.33" style="fill: #19d3f3;"/>
      <rect x="742.38" y="523.73" width="22.19" height="136.27" style="fill: #19d3f3;"/>
      <rect x="772.1" y="519.44" width="22.19" height="140.56" style="fill: #19d3f3;"/>
      <rect x="802.81" y="566.03" width="22.19" height="93.97" style="fill: #19d3f3;"/>
      <rect x="833.51" y="597.61" width="22.19" height="62.39" style="fill: #19d3f3;"/>
      <rect x="861.25" y="637.91" width="22.19" height="22.09" style="fill: #19d3f3;"/>
      <rect x="651.25" y="504.9" width="22.19" height="155.08" style="fill: #19d3f3;"/>
      <rect x="681.96" y="493.47" width="22.19" height="166.43" style="fill: #19d3f3;"/>
      <rect x="530.4" y="231.53" width="22.19" height="428.41" style="fill: #19d3f3;"/>
      <rect x="891.96" y="656.69" width="22.19" height="3.31" style="fill: #19d3f3;"/>
      <rect x="410.54" y="242.47" width="22.19" height="89.08" style="fill: #19d3f3;"/>
      <rect x="499.69" y="37.89" width="22.19" height="621.98" style="fill: #19d3f3;"/>
      <rect x="350.12" y="428.57" width="22.19" height=".05" style="fill: #19d3f3;"/>
      <rect x="441.25" y="107.07" width="22.19" height="490.43" style="fill: #19d3f3;"/>
      <rect x="471.96" y="102.64" width="22.19" height="555.74" style="fill: #19d3f3;"/>
      <rect x="380.83" y="317.98" width="22.18" height=".73" style="fill: #19d3f3;"/>
      <rect x="681.96" y="493.46" width="22.19" height=".01" style="fill: #ff6692;"/>
      <rect x="168.84" y="340.56" width="22.19" height="5.5" style="fill: #ff6692;"/>
      <rect x="110.4" y="595.67" width="22.19" height="2.79" style="fill: #ff6692;"/>
      <rect x="380.83" y="317.97" width="22.18" height=".01" style="fill: #ff6692;"/>
      <rect x="320.4" y="374.88" width="22.19" height=".03" style="fill: #ff6692;"/>
      <rect x="258.99" y="589.54" width="22.18" height=".06" style="fill: #ff6692;"/>
      <rect x="198.56" y="456.73" width="22.19" height="2.82" style="fill: #ff6692;"/>
      <rect x="79.69" y="654.5" width="22.19" height=".65" style="fill: #ff6692;"/>
      <rect x="138.14" y="434.4" width="22.19" height="6.38" style="fill: #ff6692;"/>
      <rect x="499.69" y="37.88" width="22.19" height=".01" style="fill: #ff6692;"/>
      <rect x="229.27" y="600" width="22.19" height=".34" style="fill: #ff6692;"/>
      <rect x="110.4" y="595.64" width="22.19" height=".03" style="fill: #ff6692;"/>
      <rect x="138.14" y="434.36" width="22.19" height=".04" style="fill: #ff6692;"/>
      <rect x="198.56" y="456.72" width="22.19" height=".01" style="fill: #ff6692;"/>
      <rect x="320.4" y="374.87" width="22.19" height=".01" style="fill: #ff6692;"/>
      <rect x="110.4" y="595.13" width="22.19" height=".51" style="fill: #ff6692;"/>
      <rect x="138.14" y="432.42" width="22.19" height="1.94" style="fill: #ff6692;"/>
      <rect x="79.69" y="654.46" width="22.19" height=".04" style="fill: #ff6692;"/>
      <rect x="229.27" y="599.56" width="22.19" height=".44" style="fill: #ff6692;"/>
      <rect x="198.56" y="455.32" width="22.19" height="1.4" style="fill: #ff6692;"/>
      <rect x="168.84" y="338.57" width="22.19" height="1.99" style="fill: #ff6692;"/>
      <rect x="289.69" y="444.44" width="22.19" height=".08" style="fill: #ff6692;"/>
      <rect x="350.12" y="428.53" width="22.19" height=".04" style="fill: #ff6692;"/>
      <rect x="168.84" y="336.82" width="22.19" height="1.75" style="fill: #ff6692;"/>
      <rect x="138.14" y="431.97" width="22.19" height=".45" style="fill: #ff6692;"/>
      <rect x="110.4" y="594.88" width="22.19" height=".25" style="fill: #ff6692;"/>
      <rect x="229.27" y="598.44" width="22.19" height="1.12" style="fill: #ff6692;"/>
      <rect x="198.56" y="453.44" width="22.19" height="1.88" style="fill: #ff6692;"/>
      <rect x="79.69" y="654.45" width="22.19" height=".01" style="fill: #ff6692;"/>
      <rect x="258.99" y="588.58" width="22.18" height=".96" style="fill: #ff6692;"/>
      <rect x="320.4" y="374.84" width="22.19" height=".03" style="fill: #ff6692;"/>
      <rect x="198.56" y="453.37" width="22.19" height=".07" style="fill: #ff6692;"/>
      <rect x="138.14" y="431.95" width="22.19" height=".02" style="fill: #ff6692;"/>
      <rect x="110.4" y="594.87" width="22.19" height=".01" style="fill: #ff6692;"/>
      <rect x="229.27" y="598.41" width="22.19" height=".03" style="fill: #ff6692;"/>
      <rect x="168.84" y="336.74" width="22.19" height=".08" style="fill: #ff6692;"/>
      <rect x="138.14" y="431.9" width="22.19" height=".05" style="fill: #ff6692;"/>
      <rect x="198.56" y="453.11" width="22.19" height=".26" style="fill: #ff6692;"/>
      <rect x="168.84" y="336.31" width="22.19" height=".43" style="fill: #ff6692;"/>
      <rect x="229.27" y="598.39" width="22.19" height=".02" style="fill: #ff6692;"/>
      <rect x="258.99" y="588.54" width="22.18" height=".04" style="fill: #ff6692;"/>
      <rect x="198.56" y="452.85" width="22.19" height=".26" style="fill: #ff6692;"/>
      <rect x="229.27" y="598.27" width="22.19" height=".12" style="fill: #ff6692;"/>
      <rect x="110.4" y="594.73" width="22.19" height=".14" style="fill: #ff6692;"/>
      <rect x="138.14" y="431.68" width="22.19" height=".22" style="fill: #ff6692;"/>
      <rect x="168.84" y="336.13" width="22.19" height=".18" style="fill: #ff6692;"/>
      <rect x="258.99" y="588.4" width="22.18" height=".14" style="fill: #ff6692;"/>
      <rect x="229.27" y="597.73" width="22.19" height=".54" style="fill: #ff6692;"/>
      <rect x="168.84" y="336.09" width="22.19" height=".04" style="fill: #ff6692;"/>
      <rect x="289.69" y="444.38" width="22.19" height=".06" style="fill: #ff6692;"/>
      <rect x="320.4" y="374.77" width="22.19" height=".07" style="fill: #ff6692;"/>
      <rect x="198.56" y="452.61" width="22.19" height=".24" style="fill: #ff6692;"/>
      <rect x="168.84" y="336.07" width="22.19" height=".02" style="fill: #ff6692;"/>
      <rect x="138.14" y="431.56" width="22.19" height=".12" style="fill: #ff6692;"/>
      <rect x="110.4" y="594.72" width="22.19" height=".01" style="fill: #ff6692;"/>
      <rect x="229.27" y="597.72" width="22.19" height=".01" style="fill: #ff6692;"/>
      <rect x="772.1" y="517.96" width="22.19" height="1.48" style="fill: #ff6692;"/>
      <rect x="289.69" y="444.37" width="22.19" height=".01" style="fill: #ff6692;"/>
      <rect x="833.51" y="593.1" width="22.19" height="4.51" style="fill: #ff6692;"/>
      <rect x="861.25" y="635.12" width="22.19" height="2.79" style="fill: #ff6692;"/>
      <rect x="742.38" y="523.2" width="22.19" height=".53" style="fill: #ff6692;"/>
      <rect x="802.81" y="563.42" width="22.19" height="2.61" style="fill: #ff6692;"/>
      <rect x="499.69" y="33.93" width="22.19" height="3.95" style="fill: #ff6692;"/>
      <rect x="681.96" y="493.09" width="22.19" height=".37" style="fill: #ff6692;"/>
      <rect x="651.25" y="504.47" width="22.19" height=".43" style="fill: #ff6692;"/>
      <rect x="620.54" y="407.64" width="22.19" height="1.01" style="fill: #ff6692;"/>
      <rect x="441.25" y="106.85" width="22.19" height=".22" style="fill: #ff6692;"/>
      <rect x="590.83" y="368.09" width="22.18" height="1.69" style="fill: #ff6692;"/>
      <rect x="560.12" y="352.87" width="22.19" height="2.68" style="fill: #ff6692;"/>
      <rect x="471.96" y="100.85" width="22.19" height="1.79" style="fill: #ff6692;"/>
      <rect x="530.4" y="228.14" width="22.19" height="3.39" style="fill: #ff6692;"/>
      <rect x="711.67" y="474.13" width="22.19" height=".54" style="fill: #ff6692;"/>
      <rect x="891.96" y="656.17" width="22.19" height=".52" style="fill: #ff6692;"/>
      <rect x="79.69" y="617.2" width="22.19" height="37.25" style="fill: #d3d3d3;"/>
      <rect x="110.4" y="512.82" width="22.19" height="81.9" style="fill: #d3d3d3;"/>
      <rect x="138.14" y="388.94" width="22.19" height="42.62" style="fill: #d3d3d3;"/>
      <rect x="168.84" y="322.69" width="22.19" height="13.38" style="fill: #d3d3d3;"/>
      <rect x="198.56" y="444.67" width="22.19" height="7.93" style="fill: #d3d3d3;"/>
      <rect x="229.27" y="594.45" width="22.19" height="3.27" style="fill: #d3d3d3;"/>
      <rect x="258.99" y="587.49" width="22.18" height=".91" style="fill: #d3d3d3;"/>
      <rect x="289.69" y="444.04" width="22.19" height=".33" style="fill: #d3d3d3;"/>
      <rect x="320.4" y="374.64" width="22.19" height=".12" style="fill: #d3d3d3;"/>
      <rect x="350.12" y="428.5" width="22.19" height=".03" style="fill: #d3d3d3;"/>
      <rect x="380.83" y="317.84" width="22.18" height=".13" style="fill: #d3d3d3;"/>
      <rect x="410.54" y="240.7" width="22.19" height="1.76" style="fill: #d3d3d3;"/>
      <rect x="441.25" y="104.82" width="22.19" height="2.03" style="fill: #d3d3d3;"/>
      <rect x="471.96" y="100.45" width="22.19" height=".4" style="fill: #d3d3d3;"/>
      <rect x="499.69" y="33" width="22.19" height=".93" style="fill: #d3d3d3;"/>
      <rect x="530.4" y="228.01" width="22.19" height=".13" style="fill: #d3d3d3;"/>
      <rect x="560.12" y="352.82" width="22.19" height=".05" style="fill: #d3d3d3;"/>
      <rect x="590.83" y="367.91" width="22.18" height=".18" style="fill: #d3d3d3;"/>
      <rect x="620.54" y="407.58" width="22.19" height=".06" style="fill: #d3d3d3;"/>
      <rect x="651.25" y="504.46" width="22.19" height=".01" style="fill: #d3d3d3;"/>
      <rect x="681.96" y="492.95" width="22.19" height=".14" style="fill: #d3d3d3;"/>
      <rect x="711.67" y="473.74" width="22.19" height=".39" style="fill: #d3d3d3;"/>
      <rect x="742.38" y="521.62" width="22.19" height="1.58" style="fill: #d3d3d3;"/>
      <rect x="772.1" y="515.43" width="22.19" height="2.53" style="fill: #d3d3d3;"/>
      <rect x="802.81" y="553.09" width="22.19" height="10.33" style="fill: #d3d3d3;"/>
      <rect x="833.51" y="553.48" width="22.19" height="39.62" style="fill: #d3d3d3;"/>
      <rect x="861.25" y="583.32" width="22.19" height="51.8" style="fill: #d3d3d3;"/>
      <rect x="891.96" y="640.44" width="22.19" height="15.73" style="fill: #d3d3d3;"/>
    </g>
  </g>
  <path d="M139.55,665.55h-1.43c-.39.79-1.04,1.57-1.97,2.41s-2.01,1.53-3.24,2.11v2.14c.69-.25,1.46-.63,2.33-1.15.87-.5,1.56-1.02,2.09-1.53v14.1h2.22v-18.09.02ZM120.01,681.51c.25-.39.55-.8.93-1.2s1.23-1.15,2.55-2.27c1.59-1.34,2.72-2.41,3.41-3.18.68-.77,1.18-1.51,1.46-2.2s.44-1.4.44-2.12c0-1.42-.5-2.61-1.51-3.57s-2.38-1.43-4.11-1.43-3.08.44-4.09,1.34c-1.02.9-1.6,2.19-1.76,3.87l2.28.24c0-1.13.33-2.01.98-2.66s1.49-.96,2.55-.96,1.82.3,2.45.9.94,1.34.94,2.22-.35,1.71-1.04,2.66-2.01,2.22-3.96,3.82c-1.26,1.04-2.23,1.93-2.89,2.72s-1.15,1.59-1.46,2.39c-.19.49-.27,1.01-.25,1.54h11.91v-2.12h-8.84l.02.02ZM106.64,668.66c.61-.87,1.42-1.29,2.44-1.29s1.89.49,2.58,1.46,1.04,2.94,1.04,5.91-.35,4.91-1.04,5.9c-.69.98-1.54,1.48-2.56,1.48s-1.87-.49-2.56-1.46c-.69-.98-1.04-2.94-1.04-5.9s.38-4.99,1.15-6.09v-.02ZM105.01,682.08c.99,1.24,2.36,1.87,4.09,1.87,1.32,0,2.41-.36,3.27-1.07s1.51-1.71,1.95-3c.44-1.31.64-3,.64-5.11,0-1.79-.14-3.21-.41-4.26s-.64-1.95-1.12-2.67c-.47-.74-1.09-1.29-1.81-1.68s-1.57-.58-2.55-.58c-1.31,0-2.39.35-3.26,1.05s-1.51,1.7-1.95,3c-.44,1.31-.66,3.02-.66,5.14,0,3.38.6,5.82,1.78,7.33l.02-.02ZM92.01,681.51c.25-.39.55-.8.93-1.2s1.23-1.15,2.55-2.27c1.59-1.34,2.72-2.41,3.41-3.18.68-.77,1.18-1.51,1.46-2.2s.44-1.4.44-2.12c0-1.42-.5-2.61-1.51-3.57s-2.38-1.43-4.11-1.43-3.08.44-4.09,1.34c-1.02.9-1.6,2.19-1.76,3.87l2.28.24c0-1.13.33-2.01.98-2.66s1.49-.96,2.55-.96,1.82.3,2.45.9.94,1.34.94,2.22-.35,1.71-1.04,2.66-2.01,2.22-3.96,3.82c-1.26,1.04-2.23,1.93-2.89,2.72s-1.15,1.59-1.46,2.39c-.19.49-.27,1.01-.25,1.54h11.91v-2.12h-8.84l.02.02ZM71.06,683.64v-7.13c0-1.67.35-2.8,1.02-3.4.68-.6,1.49-.9,2.44-.9.6,0,1.1.13,1.54.39.44.27.74.63.91,1.07s.25,1.12.25,2.03v7.94h2.22v-8.02c0-1.02-.05-1.75-.13-2.16-.13-.63-.36-1.18-.69-1.64s-.82-.83-1.48-1.12c-.66-.28-1.38-.42-2.17-.42-1.81,0-3.19.72-4.15,2.16v-1.86h-2v13.06h2.22l.02-.02ZM63.18,677.9c0,.98-.13,1.71-.36,2.22-.31.64-.8,1.16-1.46,1.53s-1.42.57-2.28.57-1.51-.19-1.97-.6c-.44-.39-.68-.88-.68-1.48,0-.39.09-.74.31-1.05.2-.31.49-.55.87-.72.38-.16,1.02-.31,1.93-.44,1.6-.24,2.82-.5,3.62-.83v.82h.02ZM63.81,683.64h2.31c-.28-.5-.47-1.02-.57-1.57s-.14-1.84-.14-3.9v-2.96c0-.98-.03-1.67-.11-2.05-.13-.61-.36-1.1-.69-1.51-.33-.39-.83-.72-1.54-.99-.69-.27-1.6-.39-2.72-.39s-2.11.16-2.96.46c-.85.31-1.51.74-1.95,1.32-.46.57-.77,1.32-.98,2.25l2.17.3c.24-.93.6-1.57,1.1-1.93.49-.36,1.26-.55,2.3-.55,1.12,0,1.95.25,2.52.76.42.36.63,1.01.63,1.9v.58c-.85.3-2.16.55-3.95.76-.88.11-1.53.22-1.97.33-.6.16-1.12.41-1.59.72s-.85.74-1.15,1.27-.44,1.12-.44,1.75c0,1.09.38,1.98,1.15,2.69.77.71,1.87,1.05,3.3,1.05.87,0,1.68-.14,2.44-.42s1.54-.79,2.36-1.48c.06.61.22,1.15.44,1.6l.03.02ZM42.54,682.58c.83.91,2.05,1.37,3.63,1.37,1.07,0,2-.22,2.78-.64.79-.44,1.37-1.07,1.73-1.89.36-.83.55-2,.55-3.51v-12.27h-2.39v12.41c0,1.04-.08,1.78-.25,2.25-.16.47-.46.85-.9,1.12-.44.27-.94.41-1.54.41-.82,0-1.45-.25-1.9-.76s-.72-1.45-.77-2.83l-2.16.3c-.03,1.79.38,3.15,1.21,4.06v-.02Z"/>
  <path d="M315.25,665.55h-1.43c-.39.79-1.04,1.57-1.97,2.41s-2.01,1.53-3.24,2.11v2.14c.69-.25,1.46-.63,2.33-1.15.87-.5,1.56-1.02,2.09-1.53v14.1h2.22v-18.09.02ZM295.72,681.51c.25-.39.55-.8.93-1.2s1.23-1.15,2.55-2.27c1.59-1.34,2.72-2.41,3.41-3.18.68-.77,1.18-1.51,1.46-2.2s.44-1.4.44-2.12c0-1.42-.5-2.61-1.51-3.57s-2.38-1.43-4.11-1.43-3.08.44-4.09,1.34c-1.02.9-1.6,2.19-1.76,3.87l2.28.24c0-1.13.33-2.01.98-2.66s1.49-.96,2.55-.96,1.82.3,2.45.9.94,1.34.94,2.22-.35,1.71-1.04,2.66-2.01,2.22-3.96,3.82c-1.26,1.04-2.23,1.93-2.89,2.72-.66.79-1.15,1.59-1.46,2.39-.19.49-.27,1.01-.25,1.54h11.91v-2.12h-8.84l.02.02ZM282.34,668.66c.61-.87,1.42-1.29,2.44-1.29s1.89.49,2.58,1.46,1.04,2.94,1.04,5.91-.35,4.91-1.04,5.9c-.69.98-1.54,1.48-2.56,1.48s-1.87-.49-2.56-1.46-1.04-2.94-1.04-5.9.38-4.99,1.15-6.09v-.02ZM280.71,682.08c.99,1.24,2.36,1.87,4.09,1.87,1.32,0,2.41-.36,3.27-1.07s1.51-1.71,1.95-3c.44-1.31.64-3,.64-5.11,0-1.79-.14-3.21-.41-4.26s-.64-1.95-1.12-2.67c-.47-.74-1.09-1.29-1.81-1.68s-1.57-.58-2.55-.58c-1.31,0-2.39.35-3.26,1.05-.87.71-1.51,1.7-1.95,3-.44,1.31-.66,3.02-.66,5.14,0,3.38.6,5.82,1.78,7.33l.02-.02ZM267.71,681.51c.25-.39.55-.8.93-1.2s1.23-1.15,2.55-2.27c1.59-1.34,2.72-2.41,3.41-3.18.68-.77,1.18-1.51,1.46-2.2s.44-1.4.44-2.12c0-1.42-.5-2.61-1.51-3.57s-2.38-1.43-4.11-1.43-3.08.44-4.09,1.34c-1.02.9-1.6,2.19-1.76,3.87l2.28.24c0-1.13.33-2.01.98-2.66s1.49-.96,2.55-.96,1.82.3,2.45.9.94,1.34.94,2.22-.35,1.71-1.04,2.66-2.01,2.22-3.96,3.82c-1.26,1.04-2.23,1.93-2.89,2.72-.66.79-1.15,1.59-1.46,2.39-.19.49-.27,1.01-.25,1.54h11.91v-2.12h-8.84l.02.02ZM255.11,683.64v-18.01h-2.22v18.01h2.22ZM249.48,683.64v-13.06h-2.22v7c0,1.12-.13,1.97-.36,2.55-.24.58-.66,1.05-1.24,1.38-.58.35-1.21.5-1.87.5s-1.23-.17-1.67-.5c-.46-.33-.74-.79-.88-1.37-.09-.39-.14-1.18-.14-2.33v-7.24h-2.22v8.09c0,.94.05,1.64.14,2.06.13.64.36,1.2.68,1.64.33.44.82.82,1.49,1.12.66.3,1.38.44,2.16.44,1.75,0,3.13-.74,4.14-2.22v1.92h1.98l.02.02ZM226.64,682.58c.83.91,2.05,1.37,3.63,1.37,1.07,0,2-.22,2.78-.64.79-.44,1.37-1.07,1.73-1.89.36-.83.55-2,.55-3.51v-12.27h-2.39v12.41c0,1.04-.08,1.78-.25,2.25-.16.47-.46.85-.9,1.12-.44.27-.94.41-1.54.41-.82,0-1.45-.25-1.9-.76-.46-.5-.72-1.45-.77-2.83l-2.16.3c-.03,1.79.38,3.15,1.21,4.06v-.02Z"/>
  <path d="M493.3,681.51c.25-.39.55-.8.93-1.2s1.23-1.15,2.55-2.27c1.59-1.34,2.72-2.41,3.41-3.18.68-.77,1.18-1.51,1.46-2.2s.44-1.4.44-2.12c0-1.42-.5-2.61-1.51-3.57s-2.38-1.43-4.11-1.43-3.08.44-4.09,1.34c-1.02.9-1.6,2.19-1.76,3.87l2.28.24c0-1.13.33-2.01.98-2.66s1.49-.96,2.55-.96,1.82.3,2.45.9.94,1.34.94,2.22-.35,1.71-1.04,2.66-2.01,2.22-3.96,3.82c-1.26,1.04-2.23,1.93-2.89,2.72-.66.79-1.15,1.59-1.46,2.39-.19.49-.27,1.01-.25,1.54h11.91v-2.12h-8.84l.02.02ZM479.3,681.51c.25-.39.55-.8.93-1.2s1.23-1.15,2.55-2.27c1.59-1.34,2.72-2.41,3.41-3.18.68-.77,1.18-1.51,1.46-2.2s.44-1.4.44-2.12c0-1.42-.5-2.61-1.51-3.57s-2.38-1.43-4.11-1.43-3.08.44-4.09,1.34c-1.02.9-1.6,2.19-1.76,3.87l2.28.24c0-1.13.33-2.01.98-2.66s1.49-.96,2.55-.96,1.82.3,2.45.9.94,1.34.94,2.22-.35,1.71-1.04,2.66-2.01,2.22-3.96,3.82c-1.26,1.04-2.23,1.93-2.89,2.72-.66.79-1.15,1.59-1.46,2.39-.19.49-.27,1.01-.25,1.54h11.91v-2.12h-8.84l.02.02ZM465.93,668.66c.61-.87,1.42-1.29,2.44-1.29s1.89.49,2.58,1.46,1.04,2.94,1.04,5.91-.35,4.91-1.04,5.9c-.69.98-1.54,1.48-2.56,1.48s-1.87-.49-2.56-1.46-1.04-2.94-1.04-5.9.38-4.99,1.15-6.09v-.02ZM464.3,682.08c.99,1.24,2.36,1.87,4.09,1.87,1.32,0,2.41-.36,3.27-1.07s1.51-1.71,1.95-3c.44-1.31.64-3,.64-5.11,0-1.79-.14-3.21-.41-4.26s-.64-1.95-1.12-2.67c-.47-.74-1.09-1.29-1.81-1.68s-1.57-.58-2.55-.58c-1.31,0-2.39.35-3.26,1.05-.87.71-1.51,1.7-1.95,3-.44,1.31-.66,3.02-.66,5.14,0,3.38.6,5.82,1.78,7.33l.02-.02ZM451.3,681.51c.25-.39.55-.8.93-1.2s1.23-1.15,2.55-2.27c1.59-1.34,2.72-2.41,3.41-3.18.68-.77,1.18-1.51,1.46-2.2s.44-1.4.44-2.12c0-1.42-.5-2.61-1.51-3.57s-2.38-1.43-4.11-1.43-3.08.44-4.09,1.34c-1.02.9-1.6,2.19-1.76,3.87l2.28.24c0-1.13.33-2.01.98-2.66s1.49-.96,2.55-.96,1.82.3,2.45.9.94,1.34.94,2.22-.35,1.71-1.04,2.66-2.01,2.22-3.96,3.82c-1.26,1.04-2.23,1.93-2.89,2.72-.66.79-1.15,1.59-1.46,2.39-.19.49-.27,1.01-.25,1.54h11.91v-2.12h-8.84l.02.02ZM430.35,683.64v-7.13c0-1.67.35-2.8,1.02-3.4.68-.6,1.49-.9,2.44-.9.6,0,1.1.13,1.54.39s.74.63.91,1.07.25,1.12.25,2.03v7.94h2.22v-8.02c0-1.02-.05-1.75-.13-2.16-.13-.63-.36-1.18-.69-1.64s-.82-.83-1.48-1.12-1.38-.42-2.17-.42c-1.81,0-3.19.72-4.15,2.16v-1.86h-2v13.06h2.22l.02-.02ZM422.47,677.9c0,.98-.13,1.71-.36,2.22-.31.64-.8,1.16-1.46,1.53s-1.42.57-2.28.57-1.51-.19-1.97-.6c-.44-.39-.68-.88-.68-1.48,0-.39.09-.74.31-1.05.2-.31.49-.55.87-.72.38-.16,1.02-.31,1.93-.44,1.6-.24,2.82-.5,3.62-.83v.82h.02ZM423.1,683.64h2.31c-.28-.5-.47-1.02-.57-1.57s-.14-1.84-.14-3.9v-2.96c0-.98-.03-1.67-.11-2.05-.13-.61-.36-1.1-.69-1.51-.33-.39-.83-.72-1.54-.99-.69-.27-1.6-.39-2.72-.39s-2.11.16-2.96.46c-.85.31-1.51.74-1.95,1.32-.46.57-.77,1.32-.98,2.25l2.17.3c.24-.93.6-1.57,1.1-1.93.49-.36,1.26-.55,2.3-.55,1.12,0,1.95.25,2.52.76.42.36.63,1.01.63,1.9v.58c-.85.3-2.16.55-3.95.76-.88.11-1.53.22-1.97.33-.6.16-1.12.41-1.59.72-.47.31-.85.74-1.15,1.27s-.44,1.12-.44,1.75c0,1.09.38,1.98,1.15,2.69.77.71,1.87,1.05,3.3,1.05.87,0,1.68-.14,2.44-.42.76-.28,1.54-.79,2.36-1.48.06.61.22,1.15.44,1.6l.03.02ZM401.83,682.58c.83.91,2.05,1.37,3.63,1.37,1.07,0,2-.22,2.78-.64.79-.44,1.37-1.07,1.73-1.89.36-.83.55-2,.55-3.51v-12.27h-2.39v12.41c0,1.04-.08,1.78-.25,2.25-.16.47-.46.85-.9,1.12-.44.27-.94.41-1.54.41-.82,0-1.45-.25-1.9-.76-.46-.5-.72-1.45-.77-2.83l-2.16.3c-.03,1.79.38,3.15,1.21,4.06v-.02Z"/>
  <path d="M668.93,681.51c.25-.39.55-.8.93-1.2.38-.39,1.23-1.15,2.55-2.27,1.59-1.34,2.72-2.41,3.41-3.18.68-.77,1.18-1.51,1.46-2.2s.44-1.4.44-2.12c0-1.42-.5-2.61-1.51-3.57s-2.38-1.43-4.11-1.43-3.08.44-4.09,1.34c-1.02.9-1.6,2.19-1.76,3.87l2.28.24c0-1.13.33-2.01.98-2.66s1.49-.96,2.55-.96,1.82.3,2.45.9.94,1.34.94,2.22-.35,1.71-1.04,2.66-2.01,2.22-3.96,3.82c-1.26,1.04-2.23,1.93-2.89,2.72-.66.79-1.15,1.59-1.46,2.39-.19.49-.27,1.01-.25,1.54h11.91v-2.12h-8.84l.02.02ZM654.94,681.51c.25-.39.55-.8.93-1.2.38-.39,1.23-1.15,2.55-2.27,1.59-1.34,2.72-2.41,3.41-3.18.68-.77,1.18-1.51,1.46-2.2s.44-1.4.44-2.12c0-1.42-.5-2.61-1.51-3.57s-2.38-1.43-4.11-1.43-3.08.44-4.09,1.34c-1.02.9-1.6,2.19-1.76,3.87l2.28.24c0-1.13.33-2.01.98-2.66s1.49-.96,2.55-.96,1.82.3,2.45.9.94,1.34.94,2.22-.35,1.71-1.04,2.66-2.01,2.22-3.96,3.82c-1.26,1.04-2.23,1.93-2.89,2.72-.66.79-1.15,1.59-1.46,2.39-.19.49-.27,1.01-.25,1.54h11.91v-2.12h-8.84l.02.02ZM641.57,668.66c.61-.87,1.42-1.29,2.44-1.29s1.89.49,2.58,1.46,1.04,2.94,1.04,5.91-.35,4.91-1.04,5.9c-.69.98-1.54,1.48-2.56,1.48s-1.87-.49-2.56-1.46-1.04-2.94-1.04-5.9.38-4.99,1.15-6.09v-.02ZM639.94,682.08c.99,1.24,2.36,1.87,4.09,1.87,1.32,0,2.41-.36,3.27-1.07s1.51-1.71,1.95-3c.44-1.31.64-3,.64-5.11,0-1.79-.14-3.21-.41-4.26s-.64-1.95-1.12-2.67c-.47-.74-1.09-1.29-1.81-1.68s-1.57-.58-2.55-.58c-1.31,0-2.39.35-3.26,1.05s-1.51,1.7-1.95,3c-.44,1.31-.66,3.02-.66,5.14,0,3.38.6,5.82,1.78,7.33l.02-.02ZM626.94,681.51c.25-.39.55-.8.93-1.2.38-.39,1.23-1.15,2.55-2.27,1.59-1.34,2.72-2.41,3.41-3.18.68-.77,1.18-1.51,1.46-2.2s.44-1.4.44-2.12c0-1.42-.5-2.61-1.51-3.57s-2.38-1.43-4.11-1.43-3.08.44-4.09,1.34c-1.02.9-1.6,2.19-1.76,3.87l2.28.24c0-1.13.33-2.01.98-2.66s1.49-.96,2.55-.96,1.82.3,2.45.9.94,1.34.94,2.22-.35,1.71-1.04,2.66-2.01,2.22-3.96,3.82c-1.26,1.04-2.23,1.93-2.89,2.72-.66.79-1.15,1.59-1.46,2.39-.19.49-.27,1.01-.25,1.54h11.91v-2.12h-8.84l.02.02ZM614.34,683.64v-18.01h-2.22v18.01h2.22ZM608.71,683.64v-13.06h-2.22v7c0,1.12-.13,1.97-.36,2.55-.24.58-.66,1.05-1.24,1.38-.58.35-1.21.5-1.87.5s-1.23-.17-1.67-.5c-.46-.33-.74-.79-.88-1.37-.09-.39-.14-1.18-.14-2.33v-7.24h-2.22v8.09c0,.94.05,1.64.14,2.06.13.64.36,1.2.68,1.64.33.44.82.82,1.49,1.12.66.3,1.38.44,2.16.44,1.75,0,3.13-.74,4.14-2.22v1.92h1.98l.02.02ZM585.87,682.58c.83.91,2.05,1.37,3.63,1.37,1.07,0,2-.22,2.78-.64.79-.44,1.37-1.07,1.73-1.89.36-.83.55-2,.55-3.51v-12.27h-2.39v12.41c0,1.04-.08,1.78-.25,2.25-.16.47-.46.85-.9,1.12-.44.27-.94.41-1.54.41-.82,0-1.45-.25-1.9-.76-.46-.5-.72-1.45-.77-2.83l-2.16.3c-.03,1.79.38,3.15,1.21,4.06v-.02Z"/>
  <path d="M853.71,682.54c1.04.94,2.36,1.42,3.93,1.42,1.75,0,3.21-.55,4.36-1.64,1.15-1.1,1.71-2.42,1.71-4,0-1.16-.3-2.14-.88-2.91s-1.42-1.29-2.49-1.53c.82-.38,1.43-.88,1.86-1.53s.63-1.35.63-2.12c0-.82-.22-1.59-.66-2.33-.44-.72-1.07-1.31-1.9-1.73-.83-.42-1.73-.63-2.72-.63-1.43,0-2.61.41-3.57,1.23s-1.57,1.97-1.84,3.45l2.22.39c.16-1.09.53-1.89,1.1-2.44.57-.53,1.29-.82,2.16-.82s1.57.27,2.12.8.82,1.21.82,2.01c0,1.02-.38,1.78-1.13,2.28-.76.49-1.6.74-2.55.74-.09,0-.2,0-.36-.03l-.25,1.93c.63-.16,1.15-.25,1.56-.25,1.02,0,1.87.33,2.53.99s.99,1.49.99,2.52-.36,1.97-1.07,2.67-1.59,1.09-2.64,1.09c-.88,0-1.62-.28-2.23-.83-.61-.55-1.04-1.46-1.29-2.71l-2.22.3c.14,1.49.74,2.72,1.79,3.67h.03ZM840.7,681.51c.25-.39.55-.8.93-1.2.38-.39,1.23-1.15,2.55-2.27,1.59-1.34,2.72-2.41,3.41-3.18.68-.77,1.18-1.51,1.46-2.2s.44-1.4.44-2.12c0-1.42-.5-2.61-1.51-3.57s-2.38-1.43-4.11-1.43-3.08.44-4.09,1.34c-1.02.9-1.6,2.19-1.76,3.87l2.28.24c0-1.13.33-2.01.98-2.66s1.49-.96,2.55-.96,1.82.3,2.45.9.94,1.34.94,2.22-.35,1.71-1.04,2.66-2.01,2.22-3.96,3.82c-1.26,1.04-2.23,1.93-2.89,2.72-.66.79-1.15,1.59-1.46,2.39-.19.49-.27,1.01-.25,1.54h11.91v-2.12h-8.84l.02.02ZM827.33,668.66c.61-.87,1.42-1.29,2.44-1.29s1.89.49,2.58,1.46,1.04,2.94,1.04,5.91-.35,4.91-1.04,5.9c-.69.98-1.54,1.48-2.56,1.48s-1.87-.49-2.56-1.46-1.04-2.94-1.04-5.9.38-4.99,1.15-6.09v-.02ZM825.69,682.08c.99,1.24,2.36,1.87,4.09,1.87,1.32,0,2.41-.36,3.27-1.07s1.51-1.71,1.95-3c.44-1.31.64-3,.64-5.11,0-1.79-.14-3.21-.41-4.26s-.64-1.95-1.12-2.67c-.47-.74-1.09-1.29-1.81-1.68s-1.57-.58-2.55-.58c-1.31,0-2.39.35-3.26,1.05s-1.51,1.7-1.95,3c-.44,1.31-.66,3.02-.66,5.14,0,3.38.6,5.82,1.78,7.33l.02-.02ZM812.7,681.51c.25-.39.55-.8.93-1.2.38-.39,1.23-1.15,2.55-2.27,1.59-1.34,2.72-2.41,3.41-3.18.68-.77,1.18-1.51,1.46-2.2s.44-1.4.44-2.12c0-1.42-.5-2.61-1.51-3.57s-2.38-1.43-4.11-1.43-3.08.44-4.09,1.34c-1.02.9-1.6,2.19-1.76,3.87l2.28.24c0-1.13.33-2.01.98-2.66s1.49-.96,2.55-.96,1.82.3,2.45.9.94,1.34.94,2.22-.35,1.71-1.04,2.66-2.01,2.22-3.96,3.82c-1.26,1.04-2.23,1.93-2.89,2.72-.66.79-1.15,1.59-1.46,2.39-.19.49-.27,1.01-.25,1.54h11.91v-2.12h-8.84l.02.02ZM791.74,683.64v-7.13c0-1.67.35-2.8,1.02-3.4.68-.6,1.49-.9,2.44-.9.6,0,1.1.13,1.54.39.44.27.74.63.91,1.07s.25,1.12.25,2.03v7.94h2.22v-8.02c0-1.02-.05-1.75-.13-2.16-.13-.63-.36-1.18-.69-1.64s-.82-.83-1.48-1.12-1.38-.42-2.17-.42c-1.81,0-3.19.72-4.15,2.16v-1.86h-2v13.06h2.22l.02-.02ZM783.86,677.9c0,.98-.13,1.71-.36,2.22-.31.64-.8,1.16-1.46,1.53s-1.42.57-2.28.57-1.51-.19-1.97-.6c-.44-.39-.68-.88-.68-1.48,0-.39.09-.74.31-1.05.2-.31.49-.55.87-.72.38-.16,1.02-.31,1.93-.44,1.6-.24,2.82-.5,3.62-.83v.82h.02ZM784.49,683.64h2.31c-.28-.5-.47-1.02-.57-1.57s-.14-1.84-.14-3.9v-2.96c0-.98-.03-1.67-.11-2.05-.13-.61-.36-1.1-.69-1.51-.33-.39-.83-.72-1.54-.99-.69-.27-1.6-.39-2.72-.39s-2.11.16-2.96.46c-.85.31-1.51.74-1.95,1.32-.46.57-.77,1.32-.98,2.25l2.17.3c.24-.93.6-1.57,1.1-1.93.49-.36,1.26-.55,2.3-.55,1.12,0,1.95.25,2.52.76.42.36.63,1.01.63,1.9v.58c-.85.3-2.16.55-3.95.76-.88.11-1.53.22-1.97.33-.6.16-1.12.41-1.59.72s-.85.74-1.15,1.27-.44,1.12-.44,1.75c0,1.09.38,1.98,1.15,2.69s1.87,1.05,3.3,1.05c.87,0,1.68-.14,2.44-.42s1.54-.79,2.36-1.48c.06.61.22,1.15.44,1.6l.03.02ZM763.22,682.58c.83.91,2.05,1.37,3.63,1.37,1.07,0,2-.22,2.78-.64.79-.44,1.37-1.07,1.73-1.89.36-.83.55-2,.55-3.51v-12.27h-2.39v12.41c0,1.04-.08,1.78-.25,2.25-.16.47-.46.85-.9,1.12-.44.27-.94.41-1.54.41-.82,0-1.45-.25-1.9-.76-.46-.5-.72-1.45-.77-2.83l-2.16.3c-.03,1.79.38,3.15,1.21,4.06v-.02Z"/>
  <path d="M68.78,550.81v-4.26l1.28-1.23,3.55,5.49h2.24l-4.52-6.76,4.1-3.99h-2.36l-4.31,4.38v-8.46h-1.83v14.83h1.84ZM57.73,538.48c.51-.71,1.17-1.06,2.01-1.06s1.55.4,2.12,1.2.85,2.42.85,4.87-.28,4.04-.85,4.86c-.57.8-1.27,1.22-2.11,1.22s-1.54-.4-2.11-1.2c-.57-.8-.85-2.42-.85-4.86s.31-4.1.95-5.01h0ZM56.38,549.53c.82,1.02,1.94,1.54,3.37,1.54,1.09,0,1.98-.3,2.69-.88s1.24-1.41,1.61-2.47c.36-1.07.53-2.47.53-4.21,0-1.48-.12-2.64-.34-3.51s-.53-1.61-.92-2.2c-.39-.61-.89-1.06-1.49-1.39s-1.29-.48-2.1-.48c-1.07,0-1.97.28-2.68.87-.71.58-1.24,1.4-1.61,2.47-.36,1.07-.54,2.49-.54,4.23,0,2.78.49,4.79,1.46,6.03h.01ZM45.69,549.06c.21-.32.45-.66.76-.98s1.01-.95,2.1-1.86c1.31-1.1,2.24-1.98,2.81-2.62.56-.63.97-1.24,1.2-1.81s.36-1.15.36-1.75c0-1.17-.41-2.15-1.24-2.94s-1.96-1.18-3.38-1.18-2.54.36-3.37,1.1c-.84.74-1.32,1.8-1.45,3.19l1.88.19c0-.93.27-1.66.8-2.19s1.23-.79,2.1-.79,1.5.25,2.02.74.78,1.1.78,1.83-.28,1.41-.85,2.19-1.66,1.83-3.26,3.15c-1.04.85-1.84,1.59-2.38,2.24-.54.65-.95,1.31-1.2,1.97-.16.4-.22.83-.21,1.27h9.8v-1.75h-7.28.01Z"/>
  <path d="M68.78,437.25v-4.26l1.28-1.23,3.55,5.49h2.24l-4.52-6.76,4.1-3.99h-2.36l-4.31,4.38v-8.46h-1.83v14.83h1.84ZM57.73,424.93c.51-.71,1.17-1.06,2.01-1.06s1.55.4,2.12,1.2.85,2.42.85,4.87-.28,4.04-.85,4.86c-.57.8-1.27,1.22-2.11,1.22s-1.54-.4-2.11-1.2c-.57-.8-.85-2.42-.85-4.86s.31-4.1.95-5.01h0ZM56.38,435.97c.82,1.02,1.94,1.54,3.37,1.54,1.09,0,1.98-.3,2.69-.88.71-.58,1.24-1.41,1.61-2.47.36-1.07.53-2.47.53-4.21,0-1.48-.12-2.64-.34-3.51s-.53-1.61-.92-2.2c-.39-.61-.89-1.06-1.49-1.39s-1.29-.48-2.1-.48c-1.07,0-1.97.28-2.68.87-.71.58-1.24,1.4-1.61,2.47-.36,1.07-.54,2.49-.54,4.23,0,2.78.49,4.79,1.46,6.03h.01ZM44.59,432.04l4.65-6.68v6.68h-4.65ZM51.05,437.25v-3.55h2.01v-1.67h-2.01v-9.61h-1.49l-6.77,9.61v1.67h6.44v3.55h1.83Z"/>
  <path d="M68.78,320.69v-4.26l1.28-1.23,3.55,5.49h2.24l-4.52-6.76,4.1-3.99h-2.36l-4.31,4.38v-8.46h-1.83v14.83h1.84ZM57.73,308.36c.51-.71,1.17-1.06,2.01-1.06s1.55.4,2.12,1.2.85,2.42.85,4.87-.28,4.04-.85,4.86c-.57.8-1.27,1.22-2.11,1.22s-1.54-.4-2.11-1.2c-.57-.8-.85-2.42-.85-4.86s.31-4.1.95-5.01h0ZM56.38,319.4c.82,1.02,1.94,1.54,3.37,1.54,1.09,0,1.98-.3,2.69-.88.71-.58,1.24-1.41,1.61-2.47.36-1.07.53-2.47.53-4.21,0-1.48-.12-2.64-.34-3.51s-.53-1.61-.92-2.2c-.39-.61-.89-1.06-1.49-1.39s-1.29-.48-2.1-.48c-1.07,0-1.97.28-2.68.87-.71.58-1.24,1.4-1.61,2.47-.36,1.07-.54,2.49-.54,4.23,0,2.78.49,4.79,1.46,6.03h.01ZM46.27,313.56c.57-.6,1.27-.88,2.1-.88s1.52.3,2.06.88.82,1.4.82,2.42-.27,1.9-.83,2.53-1.22.93-1.98.93c-.53,0-1.02-.16-1.5-.45s-.85-.74-1.11-1.31c-.27-.57-.4-1.18-.4-1.8,0-.96.28-1.74.85-2.32h0ZM51.5,306.78c-.75-.65-1.7-.98-2.86-.98-1.57,0-2.81.57-3.73,1.7-1.06,1.29-1.59,3.38-1.59,6.25,0,2.56.48,4.4,1.44,5.52.96,1.11,2.2,1.67,3.72,1.67.89,0,1.68-.21,2.38-.63s1.26-1.04,1.66-1.84c.4-.8.6-1.67.6-2.59,0-1.41-.43-2.58-1.28-3.47s-1.89-1.35-3.09-1.35c-.7,0-1.36.16-1.99.49-.63.32-1.17.82-1.61,1.49.01-1.49.18-2.63.52-3.43.32-.8.78-1.41,1.36-1.83.44-.32.95-.49,1.53-.49.73,0,1.33.26,1.83.78.3.32.53.84.69,1.55l1.81-.14c-.14-1.15-.6-2.06-1.35-2.71h-.01Z"/>
  <path d="M68.78,205.13v-4.26l1.28-1.23,3.55,5.49h2.24l-4.52-6.76,4.1-3.99h-2.36l-4.31,4.38v-8.46h-1.83v14.83h1.84ZM57.73,192.8c.51-.71,1.17-1.06,2.01-1.06s1.55.4,2.12,1.2.85,2.42.85,4.87-.28,4.04-.85,4.86c-.57.8-1.27,1.22-2.11,1.22s-1.54-.4-2.11-1.2c-.57-.8-.85-2.42-.85-4.86s.31-4.1.95-5.01h0ZM56.38,203.85c.82,1.02,1.94,1.54,3.37,1.54,1.09,0,1.98-.3,2.69-.88.71-.58,1.24-1.41,1.61-2.47.36-1.07.53-2.47.53-4.21,0-1.48-.12-2.64-.34-3.51s-.53-1.61-.92-2.2c-.39-.61-.89-1.06-1.49-1.39s-1.29-.48-2.1-.48c-1.07,0-1.97.28-2.68.87-.71.58-1.24,1.4-1.61,2.47-.36,1.07-.54,2.49-.54,4.23,0,2.78.49,4.79,1.46,6.03h.01ZM46.09,198.72c.56-.57,1.27-.85,2.12-.85s1.61.28,2.19.85c.58.57.88,1.29.88,2.18s-.28,1.58-.85,2.14-1.28.84-2.15.84c-.56,0-1.09-.13-1.57-.4s-.85-.65-1.1-1.13c-.25-.49-.38-.98-.38-1.5,0-.85.28-1.55.84-2.12h.01ZM46.51,192.4c.45-.44,1.04-.67,1.74-.67s1.27.23,1.72.69c.47.45.7,1.02.7,1.68s-.22,1.18-.67,1.62c-.45.44-1.02.66-1.72.66s-1.31-.22-1.76-.67c-.45-.44-.67-1.02-.67-1.72,0-.62.23-1.15.69-1.59h-.01ZM44.11,198.42c-.49.65-.74,1.46-.74,2.42,0,1.29.45,2.37,1.35,3.24.89.87,2.07,1.29,3.54,1.29s2.64-.43,3.54-1.29,1.35-1.93,1.35-3.2c0-.92-.23-1.71-.71-2.37s-1.17-1.14-2.08-1.44c.74-.27,1.28-.67,1.64-1.18s.54-1.11.54-1.8c0-1.07-.39-1.99-1.18-2.75s-1.83-1.13-3.12-1.13-2.32.36-3.09,1.1-1.17,1.64-1.17,2.72c0,.71.18,1.33.54,1.84s.92.91,1.68,1.18c-.91.23-1.61.67-2.08,1.33v.03Z"/>
  <path d="M68.78,91.56v-4.26l1.28-1.23,3.55,5.49h2.24l-4.52-6.76,4.1-3.99h-2.36l-4.31,4.38v-8.46h-1.83v14.83h1.84ZM57.73,79.23c.51-.71,1.17-1.06,2.01-1.06s1.55.4,2.12,1.2.85,2.42.85,4.87-.28,4.04-.85,4.86c-.57.8-1.27,1.22-2.11,1.22s-1.54-.4-2.11-1.2c-.57-.8-.85-2.42-.85-4.86s.31-4.1.95-5.01h0ZM56.38,90.28c.82,1.02,1.94,1.54,3.37,1.54,1.09,0,1.98-.3,2.69-.88s1.24-1.41,1.61-2.47c.36-1.07.53-2.47.53-4.21,0-1.48-.12-2.64-.34-3.51s-.53-1.61-.92-2.2c-.39-.61-.89-1.06-1.49-1.39s-1.29-.48-2.1-.48c-1.07,0-1.97.28-2.68.87-.71.58-1.24,1.4-1.61,2.47-.36,1.07-.54,2.49-.54,4.23,0,2.78.49,4.79,1.46,6.03h.01ZM46.2,79.23c.51-.71,1.17-1.06,2.01-1.06s1.55.4,2.12,1.2.85,2.42.85,4.87-.28,4.04-.85,4.86c-.57.8-1.27,1.22-2.11,1.22s-1.54-.4-2.11-1.2c-.57-.8-.85-2.42-.85-4.86s.31-4.1.95-5.01h0ZM44.86,90.28c.82,1.02,1.94,1.54,3.37,1.54,1.09,0,1.98-.3,2.69-.88.71-.58,1.24-1.41,1.61-2.47.36-1.07.53-2.47.53-4.21,0-1.48-.12-2.64-.34-3.51s-.53-1.61-.92-2.2c-.39-.61-.89-1.06-1.49-1.39-.6-.32-1.29-.48-2.1-.48-1.07,0-1.97.28-2.68.87s-1.24,1.4-1.61,2.47c-.36,1.07-.54,2.49-.54,4.23,0,2.78.49,4.79,1.46,6.03h.01ZM38.73,76.67h-1.18c-.32.65-.85,1.29-1.62,1.98s-1.66,1.26-2.67,1.74v1.76c.57-.21,1.2-.52,1.92-.95.71-.41,1.28-.84,1.72-1.26v11.6h1.83v-14.89h0Z"/>
  <g style="clip-path: url(#clippath-1);">
    <g>
      <path d="M749.73,74.38c-.39,0-.68-.06-.88-.19s-.36-.29-.45-.51-.14-.68-.14-1.42v-8.91h2.6v-2.01h-2.6v-5.32l-2.57,1.55v3.78h-1.89v2.01h1.89v8.77c0,1.55.11,2.57.31,3.05.22.48.57.87,1.1,1.18.51.29,1.24.45,2.18.45.57,0,1.22-.08,1.95-.23l-.37-2.29c-.46.06-.85.11-1.13.11h0ZM731.46,76.59v-8.32c0-1.95.4-3.28,1.19-3.98.8-.7,1.75-1.05,2.85-1.05.7,0,1.28.15,1.79.46.51.31.87.73,1.07,1.25s.29,1.32.29,2.37v9.27h2.58v-9.38c0-1.19-.05-2.03-.14-2.51-.15-.74-.42-1.38-.8-1.9-.39-.54-.96-.97-1.73-1.3s-1.61-.5-2.54-.5c-2.12,0-3.73.84-4.86,2.51v-2.17h-2.32v15.24h2.61ZM722.25,69.9c0,1.14-.14,2-.42,2.58-.37.76-.93,1.35-1.7,1.78s-1.66.65-2.66.65-1.76-.23-2.29-.7c-.53-.46-.79-1.04-.79-1.72,0-.45.12-.85.36-1.22.23-.37.57-.65,1.02-.84.43-.19,1.19-.36,2.26-.51,1.87-.26,3.28-.59,4.22-.97v.94ZM722.98,76.59h2.69c-.32-.59-.54-1.19-.65-1.83s-.17-2.15-.17-4.56v-3.45c0-1.14-.05-1.93-.12-2.38-.15-.71-.42-1.3-.8-1.76s-.97-.85-1.79-1.16c-.82-.31-1.87-.46-3.17-.46s-2.46.19-3.47.54c-.99.36-1.76.87-2.29,1.53-.53.67-.9,1.53-1.13,2.61l2.52.34c.28-1.08.71-1.84,1.28-2.26s1.47-.63,2.69-.63c1.3,0,2.29.29,2.94.88.5.43.73,1.18.73,2.23v.68c-.99.34-2.52.63-4.61.9-1.02.12-1.79.25-2.29.39-.7.19-1.32.48-1.86.85-.56.37-.99.87-1.33,1.49s-.51,1.3-.51,2.04c0,1.27.45,2.32,1.35,3.14s2.18,1.22,3.87,1.22c1.02,0,1.96-.17,2.85-.5.88-.34,1.81-.91,2.77-1.72.08.71.25,1.35.51,1.87h0ZM708.59,76.59v-15.24h-2.58v15.24h2.58ZM708.59,58.52v-2.97h-2.58v2.97h2.58ZM698.75,76.59v-7.98c0-1.1.14-2.09.43-3.02.19-.6.51-1.07.96-1.41s.96-.51,1.52-.51c.63,0,1.27.19,1.89.56l.9-2.4c-.9-.56-1.78-.84-2.66-.84-.6,0-1.16.17-1.66.51s-1.05,1.05-1.64,2.14v-2.31h-2.32v15.24h2.58v.02ZM689.59,69.9c0,1.14-.14,2-.42,2.58-.37.76-.93,1.35-1.7,1.78s-1.66.65-2.66.65-1.76-.23-2.29-.7c-.53-.46-.79-1.04-.79-1.72,0-.45.12-.85.36-1.22.23-.37.57-.65,1.02-.84.43-.19,1.19-.36,2.26-.51,1.87-.26,3.28-.59,4.22-.97v.94ZM690.32,76.59h2.69c-.32-.59-.54-1.19-.65-1.83s-.17-2.15-.17-4.56v-3.45c0-1.14-.05-1.93-.12-2.38-.15-.71-.42-1.3-.8-1.76s-.97-.85-1.79-1.16c-.82-.31-1.87-.46-3.17-.46s-2.46.19-3.47.54c-.99.36-1.76.87-2.29,1.53-.53.67-.9,1.53-1.13,2.61l2.52.34c.28-1.08.71-1.84,1.28-2.26s1.47-.63,2.69-.63c1.3,0,2.29.29,2.94.88.5.43.73,1.18.73,2.23v.68c-.99.34-2.52.63-4.61.9-1.02.12-1.79.25-2.29.39-.7.19-1.32.48-1.86.85-.56.37-.99.87-1.33,1.49s-.51,1.3-.51,2.04c0,1.27.45,2.32,1.35,3.14s2.18,1.22,3.87,1.22c1.02,0,1.96-.17,2.85-.5.88-.34,1.81-.91,2.77-1.72.08.71.25,1.35.51,1.87h0ZM671.63,76.59l8.25-21.04h-2.85l-5.68,15.29c-.43,1.14-.8,2.29-1.13,3.45-.29-1.07-.67-2.21-1.1-3.45l-5.46-15.29h-3.02l8.15,21.04h2.86-.03Z"/>
      <path d="M761.82,110.94c0,.96-.12,1.69-.36,2.18-.31.63-.79,1.14-1.44,1.5s-1.39.56-2.24.56-1.49-.19-1.93-.59c-.43-.39-.67-.87-.67-1.45,0-.39.11-.73.31-1.04s.48-.54.85-.71c.37-.15,1.01-.31,1.9-.43,1.58-.23,2.77-.5,3.56-.82v.8M762.42,116.59h2.27c-.28-.5-.46-1.01-.56-1.55s-.14-1.81-.14-3.84v-2.91c0-.96-.03-1.64-.11-2.01-.12-.6-.36-1.08-.68-1.49-.32-.39-.82-.71-1.52-.97-.68-.26-1.58-.39-2.68-.39s-2.07.15-2.91.45c-.84.31-1.49.73-1.92,1.3-.45.56-.76,1.3-.96,2.21l2.14.29c.23-.91.59-1.55,1.08-1.9.48-.36,1.24-.54,2.26-.54,1.1,0,1.92.25,2.48.74.42.36.62.99.62,1.87v.57c-.84.29-2.12.54-3.88.74-.87.11-1.5.22-1.93.32-.59.15-1.1.4-1.56.71s-.84.73-1.13,1.25c-.28.53-.43,1.1-.43,1.72,0,1.07.37,1.95,1.13,2.65s1.84,1.04,3.25,1.04c.85,0,1.66-.14,2.4-.42s1.52-.77,2.32-1.45c.06.6.22,1.13.43,1.58M742.03,116.59v-7.02c0-1.01.12-1.79.36-2.37.25-.57.65-1.02,1.22-1.36.57-.34,1.18-.5,1.83-.5.87,0,1.53.25,2,.74s.71,1.28.71,2.38v8.14h2.18v-8.14c0-1.25-.15-2.21-.45-2.88-.31-.67-.8-1.18-1.5-1.55-.7-.37-1.53-.56-2.48-.56-1.55,0-2.83.59-3.84,1.76v-6.36h-2.18v17.71h2.18M729.13,106.47c.71-.87,1.53-1.3,2.46-1.3s1.73.4,2.41,1.22c.67.82,1.01,2.04,1.01,3.67,0,1.72-.34,2.99-1.04,3.81s-1.52,1.22-2.49,1.22-1.76-.39-2.43-1.19c-.67-.79-1.01-2.01-1.01-3.67s.36-2.91,1.07-3.78M728.26,121.51v-6.25c.37.46.85.85,1.42,1.16s1.22.46,1.95.46c.99,0,1.93-.28,2.83-.84s1.58-1.36,2.06-2.41c.46-1.05.71-2.23.71-3.54,0-1.22-.22-2.35-.63-3.37-.43-1.02-1.07-1.83-1.9-2.38s-1.81-.85-2.91-.85c-.84,0-1.55.17-2.14.5s-1.11.82-1.58,1.47v-1.67h-1.98v17.76h2.18M722.71,116.59v-17.71h-2.18v17.71h2.18M709.46,104.12c.42-1.11.73-2.24.96-3.39.28.96.7,2.18,1.25,3.68l1.86,4.9h-6l1.95-5.2M704.9,116.59l1.95-5.37h7.41l2.07,5.37h2.68l-7.26-17.71h-2.52l-6.81,17.71h2.49"/>
      <polyline points="680.78 116.21 662.21 116.21 662.21 97.65 680.78 97.65 680.78 116.21" style="fill: #ab63fa;"/>
      <path d="M761.82,110.15c-.79.32-1.98.6-3.56.82-.9.12-1.53.28-1.9.43s-.65.4-.85.71-.31.65-.31,1.04c0,.59.22,1.07.67,1.45.43.39,1.08.59,1.93.59s1.58-.19,2.24-.56,1.13-.87,1.44-1.5c.23-.5.36-1.22.36-2.18v-.8M731.59,105.17c-.93,0-1.75.43-2.46,1.3s-1.07,2.12-1.07,3.78.34,2.88,1.01,3.67c.67.79,1.49,1.19,2.43,1.19s1.79-.4,2.49-1.22,1.04-2.09,1.04-3.81-.34-2.86-1.01-3.67c-.68-.82-1.47-1.22-2.41-1.22M710.42,100.73c-.23,1.13-.54,2.26-.96,3.39l-1.95,5.2h6l-1.86-4.9c-.56-1.49-.99-2.71-1.25-3.68M728.06,105.42c.46-.65.99-1.14,1.58-1.47s1.3-.5,2.14-.5c1.1,0,2.06.28,2.91.85.84.56,1.47,1.36,1.9,2.38.43,1.02.63,2.15.63,3.37,0,1.32-.23,2.49-.71,3.54-.46,1.05-1.16,1.86-2.06,2.41s-1.84.84-2.83.84c-.73,0-1.38-.15-1.95-.46-.57-.31-1.05-.7-1.42-1.16v6.25h-2.18v-17.76h1.98v1.67M755.38,107.71l-2.14-.29c.19-.91.51-1.64.96-2.21.45-.56,1.08-.99,1.92-1.3s1.81-.45,2.91-.45,1.98.12,2.68.39c.68.26,1.19.59,1.52.97.32.39.54.88.68,1.49.08.37.11,1.04.11,2.01v2.91c0,2.03.05,3.3.14,3.84.09.54.28,1.05.56,1.55h-2.27c-.23-.45-.37-.97-.43-1.58-.8.68-1.58,1.18-2.32,1.45s-1.55.42-2.4.42c-1.41,0-2.49-.34-3.25-1.04s-1.13-1.56-1.13-2.65c0-.63.14-1.21.43-1.72.28-.53.67-.94,1.13-1.25s.99-.56,1.56-.71c.43-.11,1.07-.22,1.93-.32,1.76-.22,3.05-.46,3.88-.74v-.57c0-.88-.2-1.52-.62-1.87-.56-.5-1.38-.74-2.48-.74-1.02,0-1.78.19-2.26.54-.5.36-.85.99-1.08,1.9M702.41,116.59l6.81-17.71h2.52l7.26,17.71h-2.68l-2.07-5.37h-7.41l-1.95,5.37h-2.49M720.54,116.59v-17.71h2.18v17.71h-2.18M739.85,116.59v-17.71h2.18v6.36c1.02-1.18,2.29-1.76,3.84-1.76.94,0,1.78.19,2.48.56.7.37,1.21.9,1.5,1.55.31.67.45,1.62.45,2.88v8.14h-2.18v-8.14c0-1.08-.23-1.87-.71-2.38-.46-.5-1.14-.74-2-.74-.65,0-1.25.17-1.83.5-.57.34-.97.79-1.22,1.36-.25.57-.36,1.36-.36,2.37v7.02h-2.18M662.21,116.21v-18.57h18.57v18.57h-18.57M871.68,88.52h-231.13v36.82h231.13v-36.82" style="fill: #fff;"/>
      <path d="M731.48,115.08c-.94,0-1.76-.39-2.43-1.19-.67-.79-1.01-2.01-1.01-3.67s.36-2.91,1.07-3.78,1.53-1.3,2.46-1.3,1.73.4,2.41,1.22c.67.82,1.01,2.04,1.01,3.67,0,1.72-.34,2.99-1.04,3.81s-1.52,1.22-2.49,1.22M731.79,103.45c-.84,0-1.55.17-2.14.5s-1.11.82-1.58,1.47v-1.67h-1.98v17.76h2.18v-6.25c.37.46.85.85,1.42,1.16s1.22.46,1.95.46c.99,0,1.93-.28,2.83-.84s1.58-1.36,2.06-2.41c.46-1.05.71-2.23.71-3.54,0-1.22-.22-2.35-.63-3.37-.43-1.02-1.07-1.83-1.9-2.38s-1.81-.85-2.91-.85M757.78,115.18c-.85,0-1.49-.19-1.93-.59-.43-.39-.67-.87-.67-1.45,0-.39.11-.73.31-1.04s.48-.54.85-.71c.37-.15,1.01-.31,1.9-.43,1.58-.23,2.77-.5,3.56-.82v.8c0,.96-.12,1.69-.36,2.18-.31.63-.79,1.14-1.44,1.5s-1.39.56-2.24.56M759.05,103.45c-1.1,0-2.07.15-2.91.45-.84.31-1.49.73-1.92,1.3-.45.56-.76,1.3-.96,2.21l2.14.29c.23-.91.59-1.55,1.08-1.9.48-.36,1.24-.54,2.26-.54,1.1,0,1.92.25,2.48.74.42.36.62.99.62,1.87v.57c-.84.29-2.12.54-3.88.74-.87.11-1.5.22-1.93.32-.59.15-1.1.4-1.56.71s-.84.73-1.13,1.25c-.28.53-.43,1.1-.43,1.72,0,1.07.37,1.95,1.13,2.65s1.84,1.04,3.25,1.04c.85,0,1.66-.14,2.4-.42s1.52-.77,2.32-1.45c.06.6.22,1.13.43,1.58h2.27c-.28-.5-.46-1.01-.56-1.55s-.14-1.81-.14-3.84v-2.91c0-.96-.03-1.64-.11-2.01-.12-.6-.36-1.08-.68-1.49-.32-.39-.82-.71-1.52-.97-.68-.26-1.58-.39-2.68-.39M707.52,109.31l1.95-5.2c.42-1.11.73-2.24.96-3.39.28.96.7,2.18,1.25,3.68l1.86,4.9h-6M711.74,98.87h-2.52l-6.81,17.71h2.49l1.95-5.37h7.41l2.07,5.37h2.68l-7.26-17.71M722.71,98.87h-2.18v17.71h2.18v-17.71M742.03,98.87h-2.18v17.71h2.18v-7.02c0-1.01.12-1.79.36-2.37.25-.57.65-1.02,1.22-1.36.57-.34,1.18-.5,1.83-.5.87,0,1.53.25,2,.74s.71,1.28.71,2.38v8.14h2.18v-8.14c0-1.25-.15-2.21-.45-2.88-.31-.67-.8-1.18-1.5-1.55-.7-.37-1.53-.56-2.48-.56-1.55,0-2.83.59-3.84,1.76v-6.36"/>
      <polyline points="680.78 97.65 662.21 97.65 662.21 116.21 680.78 116.21 680.78 97.65" style="fill: #ab63fa;"/>
      <path d="M756.28,147.76c0,.96-.12,1.69-.36,2.18-.31.63-.79,1.14-1.44,1.5-.65.37-1.39.56-2.24.56s-1.49-.19-1.93-.59c-.43-.39-.67-.87-.67-1.45,0-.39.09-.73.31-1.04.2-.31.48-.54.85-.71.37-.15,1.01-.31,1.9-.43,1.58-.23,2.77-.5,3.56-.82v.8M756.9,153.41h2.27c-.28-.5-.46-1.01-.56-1.55s-.14-1.81-.14-3.84v-2.91c0-.96-.03-1.64-.11-2.01-.12-.6-.36-1.08-.68-1.49-.32-.39-.82-.71-1.52-.97-.68-.26-1.58-.39-2.68-.39s-2.07.15-2.91.45c-.84.31-1.49.73-1.92,1.3-.45.56-.76,1.3-.96,2.21l2.14.29c.23-.91.59-1.55,1.08-1.9.48-.36,1.24-.54,2.26-.54,1.1,0,1.92.25,2.48.74.42.36.62.99.62,1.87v.57c-.84.29-2.12.54-3.88.74-.87.11-1.5.22-1.93.32-.59.15-1.1.4-1.56.71-.46.31-.84.73-1.13,1.25s-.43,1.1-.43,1.72c0,1.07.37,1.95,1.13,2.65.76.7,1.84,1.04,3.25,1.04.85,0,1.66-.14,2.4-.42.74-.28,1.52-.77,2.32-1.45.06.6.22,1.13.43,1.58M745.02,151.55c-.32,0-.57-.05-.74-.15s-.29-.25-.37-.42-.11-.57-.11-1.19v-7.5h2.18v-1.69h-2.18v-4.49l-2.17,1.3v3.17h-1.59v1.69h1.59v7.38c0,1.3.09,2.17.26,2.57.17.4.48.74.91.99s1.05.37,1.84.37c.48,0,1.04-.06,1.64-.19l-.31-1.92c-.4.06-.71.08-.96.08M737.84,153.41v-17.71h-2.18v17.71h2.18M724.72,143.07c.68-.67,1.52-1.01,2.52-1.01,1.1,0,2,.42,2.69,1.25.45.54.73,1.35.82,2.43h-7.16c.08-1.11.45-2.01,1.13-2.68M729.39,151.29c-.56.42-1.24.63-2.04.63-1.07,0-1.96-.37-2.68-1.13-.71-.74-1.11-1.83-1.19-3.23h9.58v-.59c0-2.12-.54-3.76-1.62-4.94-1.08-1.16-2.49-1.75-4.21-1.75s-3.22.6-4.33,1.79-1.67,2.86-1.67,5.03.56,3.71,1.66,4.86c1.1,1.16,2.58,1.73,4.47,1.73,1.49,0,2.71-.36,3.68-1.08.96-.73,1.61-1.75,1.96-3.06l-2.24-.28c-.32.91-.77,1.59-1.35,2.01M706.7,137.78h3.73c1.39,0,2.4.12,3.03.36.87.34,1.61,1.01,2.21,2s.91,2.41.91,4.27c0,1.33-.15,2.48-.46,3.42s-.74,1.69-1.3,2.24c-.4.39-.93.7-1.59.91s-1.58.32-2.75.32h-3.79v-13.54M710.75,153.41c1.07,0,2.03-.11,2.85-.31.82-.2,1.53-.5,2.12-.88s1.11-.93,1.61-1.61c.5-.68.9-1.55,1.21-2.58s.46-2.23.46-3.57c0-1.58-.23-2.99-.7-4.21-.46-1.22-1.16-2.24-2.1-3.03-.71-.62-1.58-1.04-2.6-1.27-.73-.17-1.78-.25-3.16-.25h-6.11v17.71h6.39"/>
      <polyline points="680.78 153.04 662.21 153.04 662.21 134.47 680.78 134.47 680.78 153.04" style="fill: #ffa15a;"/>
      <path d="M756.28,146.97c-.79.32-1.98.6-3.56.82-.9.12-1.53.28-1.9.43s-.65.4-.85.71c-.2.31-.31.65-.31,1.04,0,.59.22,1.07.67,1.45.43.39,1.08.59,1.93.59s1.58-.19,2.24-.56c.65-.37,1.13-.87,1.44-1.5.23-.5.36-1.22.36-2.18v-.8M727.24,142.07c-1.01,0-1.84.34-2.52,1.01s-1.05,1.56-1.13,2.68h7.16c-.09-1.08-.37-1.89-.82-2.43-.7-.84-1.59-1.25-2.69-1.25M710.42,137.78h-3.73v13.54h3.79c1.18,0,2.09-.11,2.75-.32s1.19-.53,1.59-.91c.56-.56.99-1.3,1.3-2.24s.46-2.07.46-3.42c0-1.86-.31-3.28-.91-4.27s-1.35-1.66-2.21-2c-.63-.25-1.64-.36-3.03-.36M727.33,153.7c-1.87,0-3.37-.57-4.47-1.73s-1.66-2.78-1.66-4.86.56-3.84,1.67-5.03c1.11-1.19,2.55-1.79,4.33-1.79s3.13.59,4.21,1.75c1.08,1.18,1.62,2.82,1.62,4.94v.59h-9.58c.08,1.41.48,2.49,1.19,3.23s1.61,1.13,2.68,1.13c.8,0,1.49-.22,2.04-.63s1.01-1.08,1.35-2.01l2.24.28c-.36,1.32-1.01,2.34-1.96,3.06s-2.18,1.08-3.68,1.08M749.86,144.53l-2.14-.29c.19-.91.51-1.64.96-2.21.45-.56,1.08-.99,1.92-1.3s1.81-.45,2.91-.45,1.98.12,2.68.39c.68.26,1.19.59,1.52.97.32.39.54.88.68,1.49.08.37.11,1.04.11,2.01v2.91c0,2.03.05,3.3.14,3.84.09.54.28,1.05.56,1.55h-2.27c-.23-.45-.37-.97-.43-1.58-.8.68-1.58,1.18-2.32,1.45-.74.28-1.55.42-2.4.42-1.41,0-2.49-.34-3.25-1.04s-1.13-1.56-1.13-2.65c0-.63.14-1.21.43-1.72.28-.53.67-.94,1.13-1.25s.99-.56,1.56-.71c.43-.11,1.07-.22,1.93-.32,1.76-.22,3.05-.46,3.88-.74v-.57c0-.88-.2-1.52-.62-1.87-.56-.5-1.38-.74-2.48-.74-1.02,0-1.78.19-2.26.54-.5.36-.85.99-1.08,1.9M740.02,142.27v-1.69h1.59v-3.17l2.17-1.3v4.49h2.18v1.69h-2.18v7.5c0,.62.03,1.02.11,1.19s.2.32.37.42c.17.11.42.15.74.15.25,0,.56-.03.96-.08l.31,1.92c-.62.12-1.16.19-1.64.19-.79,0-1.41-.12-1.84-.37s-.74-.57-.91-.99c-.17-.4-.26-1.27-.26-2.57v-7.38h-1.59M704.34,153.41v-17.71h6.11c1.38,0,2.43.08,3.16.25,1.02.23,1.89.65,2.6,1.27.93.79,1.64,1.79,2.1,3.03.46,1.22.7,2.63.7,4.21,0,1.35-.15,2.54-.46,3.57s-.71,1.9-1.21,2.58-1.04,1.22-1.61,1.61c-.59.39-1.28.68-2.12.88-.82.2-1.78.31-2.85.31h-6.39M735.67,153.41v-17.71h2.18v17.71h-2.18M662.21,153.04v-18.57h18.57v18.57h-18.57M871.68,125.34h-231.13v36.82h231.13v-36.82" style="fill: #fff;"/>
      <path d="M723.59,145.75c.08-1.11.45-2.01,1.13-2.68s1.52-1.01,2.52-1.01c1.1,0,2,.42,2.69,1.25.45.54.73,1.35.82,2.43h-7.16M727.23,140.29c-1.78,0-3.22.6-4.33,1.79s-1.67,2.86-1.67,5.03.56,3.71,1.66,4.86c1.1,1.16,2.58,1.73,4.47,1.73,1.49,0,2.71-.36,3.68-1.08.96-.73,1.61-1.75,1.96-3.06l-2.24-.28c-.32.91-.77,1.59-1.35,2.01-.56.42-1.24.63-2.04.63-1.07,0-1.96-.37-2.68-1.13-.71-.74-1.11-1.83-1.19-3.23h9.58v-.59c0-2.12-.54-3.76-1.62-4.94-1.08-1.16-2.49-1.75-4.21-1.75M752.26,152c-.85,0-1.49-.19-1.93-.59-.43-.39-.67-.87-.67-1.45,0-.39.09-.73.31-1.04.2-.31.48-.54.85-.71.37-.15,1.01-.31,1.9-.43,1.58-.23,2.77-.5,3.56-.82v.8c0,.96-.12,1.69-.36,2.18-.31.63-.79,1.14-1.44,1.5-.65.37-1.39.56-2.24.56M753.53,140.29c-1.1,0-2.07.15-2.91.45-.84.31-1.49.73-1.92,1.3-.45.56-.76,1.3-.96,2.21l2.14.29c.23-.91.59-1.55,1.08-1.9.48-.36,1.24-.54,2.26-.54,1.1,0,1.92.25,2.48.74.42.36.62.99.62,1.87v.57c-.84.29-2.12.54-3.88.74-.87.11-1.5.22-1.93.32-.59.15-1.1.4-1.56.71-.46.31-.84.73-1.13,1.25s-.43,1.1-.43,1.72c0,1.07.37,1.95,1.13,2.65.76.7,1.84,1.04,3.25,1.04.85,0,1.66-.14,2.4-.42.74-.28,1.52-.77,2.32-1.45.06.6.22,1.13.43,1.58h2.27c-.28-.5-.46-1.01-.56-1.55s-.14-1.81-.14-3.84v-2.91c0-.96-.03-1.64-.11-2.01-.12-.6-.36-1.08-.68-1.49-.32-.39-.82-.71-1.52-.97-.68-.26-1.58-.39-2.68-.39M743.78,136.08l-2.17,1.3v3.17h-1.59v1.69h1.59v7.38c0,1.3.09,2.17.26,2.57.17.4.48.74.91.99s1.05.37,1.84.37c.48,0,1.04-.06,1.64-.19l-.31-1.92c-.4.06-.71.08-.96.08-.32,0-.57-.05-.74-.15s-.29-.25-.37-.42-.11-.57-.11-1.19v-7.5h2.18v-1.69h-2.18v-4.49M706.7,151.32v-13.54h3.73c1.39,0,2.4.12,3.03.36.87.34,1.61,1.01,2.21,2s.91,2.41.91,4.27c0,1.33-.15,2.48-.46,3.42s-.74,1.69-1.3,2.24c-.4.39-.93.7-1.59.91s-1.58.32-2.75.32h-3.79M710.45,135.69h-6.11v17.71h6.39c1.07,0,2.03-.11,2.85-.31.82-.2,1.53-.5,2.12-.88s1.11-.93,1.61-1.61c.5-.68.9-1.55,1.21-2.58s.46-2.23.46-3.57c0-1.58-.23-2.99-.7-4.21-.46-1.22-1.16-2.24-2.1-3.03-.71-.62-1.58-1.04-2.6-1.27-.73-.17-1.78-.25-3.16-.25M737.84,135.69h-2.18v17.71h2.18v-17.71"/>
      <polyline points="680.78 134.47 662.21 134.47 662.21 153.04 680.78 153.04 680.78 134.47" style="fill: #ffa15a;"/>
      <path d="M786.02,190.23v-7.01c0-1.64.34-2.75,1.01-3.34.67-.59,1.47-.88,2.4-.88.59,0,1.08.12,1.52.39.43.26.73.62.9,1.05.17.43.25,1.1.25,1.98v7.81h2.18v-7.89c0-1.01-.05-1.72-.12-2.12-.12-.62-.36-1.16-.68-1.61s-.8-.82-1.45-1.1c-.65-.28-1.36-.42-2.14-.42-1.78,0-3.14.71-4.08,2.12v-1.83h-1.96v12.84h2.18M772.57,180.13c.71-.82,1.62-1.22,2.71-1.22s1.96.4,2.69,1.22,1.08,2.03,1.08,3.6c0,1.69-.36,2.94-1.08,3.76-.71.82-1.61,1.24-2.69,1.24s-2-.4-2.71-1.22-1.08-2.04-1.08-3.7.36-2.88,1.08-3.68M770.92,188.79c1.11,1.16,2.55,1.73,4.36,1.73,1.11,0,2.15-.26,3.09-.79s1.67-1.25,2.17-2.21c.5-.94.74-2.24.74-3.9,0-2.04-.56-3.64-1.69-4.8-1.11-1.16-2.57-1.73-4.33-1.73-1.59,0-2.94.48-4.04,1.42-1.32,1.14-1.98,2.91-1.98,5.28,0,2.17.56,3.82,1.66,4.98M763.97,190.23v-6.71c0-.91.12-1.76.36-2.54.15-.51.43-.91.8-1.19.37-.28.8-.43,1.28-.43.53,0,1.07.15,1.59.46l.74-2.01c-.76-.46-1.5-.7-2.24-.7-.51,0-.97.14-1.39.43s-.88.9-1.38,1.79v-1.95h-1.96v12.84h2.18M756.73,187.94c-.57.53-1.28.79-2.14.79-1.07,0-1.93-.39-2.58-1.18-.67-.77-.99-2.04-.99-3.76s.34-2.94,1.02-3.73c.68-.79,1.58-1.18,2.68-1.18.73,0,1.35.22,1.86.65s.87,1.08,1.07,1.95l2.12-.32c-.25-1.3-.82-2.31-1.7-3-.88-.71-2.03-1.05-3.42-1.05-1.1,0-2.12.26-3.06.77-.94.53-1.64,1.3-2.1,2.34s-.7,2.26-.7,3.64c0,2.15.53,3.79,1.61,4.94,1.07,1.14,2.48,1.72,4.24,1.72,1.41,0,2.58-.42,3.54-1.25s1.56-2,1.79-3.47l-2.14-.28c-.15,1.08-.51,1.89-1.08,2.41M746.13,190.23v-12.84h-2.18v12.84h2.18M746.13,175.01v-2.51h-2.18v2.51h2.18M725.51,190.23v-6.65c0-1.16.12-2.06.36-2.68.23-.62.6-1.1,1.13-1.41.53-.32,1.08-.48,1.7-.48.8,0,1.39.25,1.75.73s.53,1.21.53,2.18v8.34h2.18v-7.46c0-1.32.29-2.29.9-2.88.6-.6,1.35-.9,2.24-.9.5,0,.93.12,1.3.36.37.23.62.54.77.93.14.39.22,1.01.22,1.87v8.09h2.17v-8.82c0-1.47-.34-2.55-1.02-3.26s-1.67-1.05-2.94-1.05c-1.62,0-2.96.74-3.96,2.24-.25-.71-.68-1.27-1.28-1.66s-1.39-.59-2.34-.59c-.85,0-1.61.19-2.29.57-.67.39-1.21.88-1.61,1.52v-1.79h-1.95v12.84h2.18M707.86,175.92c1.19-1.14,2.63-1.72,4.29-1.72,1.16,0,2.23.29,3.16.88.94.59,1.66,1.42,2.14,2.51s.73,2.34.73,3.78c0,2.27-.57,4.04-1.72,5.28s-2.6,1.86-4.36,1.86-3.17-.62-4.32-1.84c-1.14-1.22-1.72-2.91-1.72-5.04,0-2.66.6-4.56,1.79-5.71M704.65,186.02c.68,1.39,1.67,2.49,2.99,3.3s2.8,1.21,4.47,1.21c1.53,0,2.97-.37,4.3-1.1,1.33-.73,2.35-1.79,3.08-3.22s1.08-3.03,1.08-4.83-.34-3.36-1.04-4.75c-.7-1.39-1.69-2.49-3-3.26s-2.78-1.18-4.42-1.18c-2.49,0-4.53.84-6.11,2.49-1.58,1.67-2.37,3.96-2.37,6.9,0,1.55.34,3.03,1.02,4.42"/>
      <polyline points="680.78 189.86 662.21 189.86 662.21 171.29 680.78 171.29 680.78 189.86" style="fill: #19d3f3;"/>
      <path d="M775.28,178.9c-1.08,0-2,.4-2.71,1.22s-1.08,2.04-1.08,3.68.36,2.88,1.08,3.7c.71.82,1.62,1.22,2.71,1.22s1.98-.42,2.69-1.24c.71-.82,1.08-2.07,1.08-3.76,0-1.59-.36-2.78-1.08-3.6-.73-.82-1.62-1.22-2.69-1.22M712.14,174.22c-1.66,0-3.09.57-4.29,1.72s-1.79,3.05-1.79,5.71c0,2.14.57,3.82,1.72,5.04s2.58,1.84,4.32,1.84,3.22-.62,4.36-1.86,1.72-3,1.72-5.28c0-1.44-.25-2.71-.73-3.78-.5-1.08-1.21-1.9-2.14-2.51-.94-.59-2-.88-3.16-.88M743.97,190.23v-12.84h2.18v12.84h-2.18M732.8,179.35c1.02-1.5,2.34-2.24,3.96-2.24,1.27,0,2.26.36,2.94,1.05.68.71,1.02,1.79,1.02,3.26v8.82h-2.17v-8.09c0-.87-.08-1.5-.22-1.87-.14-.39-.4-.7-.77-.93-.37-.23-.8-.36-1.3-.36-.9,0-1.66.29-2.24.9-.6.6-.9,1.56-.9,2.88v7.46h-2.18v-8.34c0-.96-.17-1.69-.53-2.18-.36-.48-.93-.73-1.75-.73-.62,0-1.18.15-1.7.48-.53.32-.9.79-1.13,1.41-.23.62-.36,1.52-.36,2.68v6.65h-2.18v-12.84h1.95v1.79c.4-.63.94-1.13,1.61-1.52s1.42-.57,2.29-.57c.94,0,1.73.2,2.34.59s1.04.94,1.28,1.66M754.63,190.52c-1.76,0-3.17-.57-4.24-1.72s-1.61-2.8-1.61-4.94c0-1.39.23-2.6.7-3.64.46-1.04,1.16-1.83,2.1-2.34.94-.53,1.96-.77,3.06-.77,1.39,0,2.54.36,3.42,1.05.88.71,1.45,1.7,1.7,3l-2.12.32c-.2-.87-.56-1.52-1.07-1.95s-1.13-.65-1.86-.65c-1.1,0-1.98.39-2.68,1.18-.68.79-1.02,2.03-1.02,3.73s.32,2.97.99,3.76c.67.77,1.52,1.18,2.58,1.18.85,0,1.56-.26,2.14-.79s.93-1.33,1.08-2.41l2.14.28c-.23,1.47-.84,2.63-1.79,3.47-.96.84-2.15,1.25-3.54,1.25M763.75,179.34c.5-.91.96-1.52,1.38-1.79.42-.29.88-.43,1.39-.43.73,0,1.49.23,2.24.7l-.74,2.01c-.53-.31-1.07-.46-1.59-.46-.48,0-.9.14-1.28.43-.39.28-.65.68-.8,1.19-.25.77-.36,1.62-.36,2.54v6.71h-2.18v-12.84h1.96v1.95M775.28,190.52c-1.79,0-3.25-.57-4.36-1.73-1.11-1.16-1.66-2.82-1.66-4.98,0-2.38.67-4.13,1.98-5.28,1.1-.94,2.44-1.42,4.04-1.42,1.76,0,3.2.57,4.33,1.73,1.11,1.16,1.69,2.75,1.69,4.8,0,1.66-.25,2.96-.74,3.9s-1.22,1.69-2.17,2.21c-.94.53-1.98.79-3.09.79M785.8,179.21c.94-1.41,2.31-2.12,4.08-2.12.77,0,1.49.14,2.14.42.65.28,1.13.65,1.45,1.1.32.45.54.99.68,1.61.08.4.12,1.11.12,2.12v7.89h-2.18v-7.81c0-.88-.08-1.55-.25-1.98s-.46-.79-.9-1.05-.94-.39-1.52-.39c-.93,0-1.73.29-2.4.88s-1.01,1.7-1.01,3.34v7.01h-2.18v-12.84h1.96v1.83M743.97,175.01v-2.51h2.18v2.51h-2.18M712.11,190.54c-1.67,0-3.16-.4-4.47-1.21-1.32-.8-2.31-1.9-2.99-3.3-.68-1.39-1.02-2.86-1.02-4.42,0-2.94.79-5.24,2.37-6.9,1.58-1.67,3.62-2.49,6.11-2.49,1.64,0,3.11.39,4.42,1.18,1.32.77,2.32,1.87,3,3.26.7,1.39,1.04,2.99,1.04,4.75s-.36,3.4-1.08,4.83c-.73,1.42-1.75,2.49-3.08,3.22s-2.77,1.1-4.3,1.1M662.21,189.86v-18.57h18.57v18.57h-18.57M871.68,162.16h-231.13v36.82h231.13v-36.82" style="fill: #fff;"/>
      <path d="M746.13,177.39h-2.18v12.84h2.18v-12.84M736.76,177.11c-1.62,0-2.96.74-3.96,2.24-.25-.71-.68-1.27-1.28-1.66s-1.39-.59-2.34-.59c-.85,0-1.61.19-2.29.57-.67.39-1.21.88-1.61,1.52v-1.79h-1.95v12.84h2.18v-6.65c0-1.16.12-2.06.36-2.68.23-.62.6-1.1,1.13-1.41.53-.32,1.08-.48,1.7-.48.8,0,1.39.25,1.75.73s.53,1.21.53,2.18v8.34h2.18v-7.46c0-1.32.29-2.29.9-2.88.6-.6,1.35-.9,2.24-.9.5,0,.93.12,1.3.36.37.23.62.54.77.93.14.39.22,1.01.22,1.87v8.09h2.17v-8.82c0-1.47-.34-2.55-1.02-3.26s-1.67-1.05-2.94-1.05M754.63,177.11c-1.1,0-2.12.26-3.06.77-.94.53-1.64,1.3-2.1,2.34s-.7,2.26-.7,3.64c0,2.15.53,3.79,1.61,4.94,1.07,1.14,2.48,1.72,4.24,1.72,1.41,0,2.58-.42,3.54-1.25s1.56-2,1.79-3.47l-2.14-.28c-.15,1.08-.51,1.89-1.08,2.41s-1.28.79-2.14.79c-1.07,0-1.93-.39-2.58-1.18-.67-.77-.99-2.04-.99-3.76s.34-2.94,1.02-3.73c.68-.79,1.58-1.18,2.68-1.18.73,0,1.35.22,1.86.65s.87,1.08,1.07,1.95l2.12-.32c-.25-1.3-.82-2.31-1.7-3-.88-.71-2.03-1.05-3.42-1.05M766.54,177.11c-.51,0-.97.14-1.39.43s-.88.9-1.38,1.79v-1.95h-1.96v12.84h2.18v-6.71c0-.91.12-1.76.36-2.54.15-.51.43-.91.8-1.19.37-.28.8-.43,1.28-.43.53,0,1.07.15,1.59.46l.74-2.01c-.76-.46-1.5-.7-2.24-.7M775.28,188.73c-1.08,0-2-.4-2.71-1.22s-1.08-2.04-1.08-3.7.36-2.88,1.08-3.68c.71-.82,1.62-1.22,2.71-1.22s1.96.4,2.69,1.22,1.08,2.03,1.08,3.6c0,1.69-.36,2.94-1.08,3.76-.71.82-1.61,1.24-2.69,1.24M775.28,177.11c-1.59,0-2.94.48-4.04,1.42-1.32,1.14-1.98,2.91-1.98,5.28,0,2.17.56,3.82,1.66,4.98,1.11,1.16,2.55,1.73,4.36,1.73,1.11,0,2.15-.26,3.09-.79s1.67-1.25,2.17-2.21c.5-.94.74-2.24.74-3.9,0-2.04-.56-3.64-1.69-4.8-1.11-1.16-2.57-1.73-4.33-1.73M789.89,177.11c-1.78,0-3.14.71-4.08,2.12v-1.83h-1.96v12.84h2.18v-7.01c0-1.64.34-2.75,1.01-3.34.67-.59,1.47-.88,2.4-.88.59,0,1.08.12,1.52.39.43.26.73.62.9,1.05.17.43.25,1.1.25,1.98v7.81h2.18v-7.89c0-1.01-.05-1.72-.12-2.12-.12-.62-.36-1.16-.68-1.61s-.8-.82-1.45-1.1c-.65-.28-1.36-.42-2.14-.42M746.13,172.52h-2.18v2.51h2.18v-2.51M712.09,188.53c-1.73,0-3.17-.62-4.32-1.84-1.14-1.22-1.72-2.91-1.72-5.04,0-2.66.6-4.56,1.79-5.71,1.19-1.14,2.63-1.72,4.29-1.72,1.16,0,2.23.29,3.16.88.94.59,1.66,1.42,2.14,2.51s.73,2.34.73,3.78c0,2.27-.57,4.04-1.72,5.28s-2.6,1.86-4.36,1.86M712.13,172.19c-2.49,0-4.53.84-6.11,2.49-1.58,1.67-2.37,3.96-2.37,6.9,0,1.55.34,3.03,1.02,4.42s1.67,2.49,2.99,3.3,2.8,1.21,4.47,1.21c1.53,0,2.97-.37,4.3-1.1,1.33-.73,2.35-1.79,3.08-3.22s1.08-3.03,1.08-4.83-.34-3.36-1.04-4.75c-.7-1.39-1.69-2.49-3-3.26s-2.78-1.18-4.42-1.18"/>
      <polyline points="680.78 171.29 662.21 171.29 662.21 189.86 680.78 189.86 680.78 171.29" style="fill: #19d3f3;"/>
      <path d="M759.89,227.05v-6.71c0-.91.12-1.76.36-2.54.15-.51.43-.91.8-1.19.37-.28.8-.43,1.28-.43.53,0,1.07.15,1.59.46l.74-2.01c-.76-.46-1.5-.7-2.24-.7-.51,0-.97.14-1.39.43s-.88.9-1.38,1.79v-1.95h-1.96v12.84h2.18M746.75,216.72c.68-.67,1.52-1.01,2.52-1.01,1.1,0,2,.42,2.69,1.25.45.54.73,1.35.82,2.43h-7.16c.08-1.11.45-2.01,1.13-2.68M751.42,224.92c-.56.42-1.24.63-2.04.63-1.07,0-1.96-.37-2.68-1.13-.71-.74-1.11-1.83-1.19-3.23h9.58v-.59c0-2.12-.54-3.76-1.62-4.94-1.08-1.16-2.49-1.75-4.21-1.75s-3.22.6-4.33,1.79-1.67,2.86-1.67,5.03.56,3.71,1.66,4.86c1.1,1.16,2.58,1.73,4.47,1.73,1.49,0,2.71-.36,3.68-1.08.96-.73,1.61-1.75,1.96-3.06l-2.24-.28c-.32.91-.77,1.59-1.35,2.01M732.38,227.05v-7.02c0-1.01.12-1.79.36-2.37.25-.57.65-1.02,1.22-1.36s1.18-.5,1.83-.5c.87,0,1.53.25,2,.74.46.5.71,1.28.71,2.38v8.14h2.18v-8.14c0-1.25-.15-2.21-.45-2.88-.31-.67-.8-1.18-1.5-1.55-.7-.37-1.53-.56-2.48-.56-1.55,0-2.83.59-3.84,1.76v-6.36h-2.18v17.71h2.18M727.12,225.2c-.32,0-.57-.05-.74-.15s-.29-.25-.37-.42-.11-.57-.11-1.19v-7.5h2.18v-1.69h-2.18v-4.49l-2.17,1.3v3.17h-1.59v1.69h1.59v7.38c0,1.3.09,2.17.26,2.57.17.4.48.74.91.99s1.05.37,1.84.37c.48,0,1.04-.06,1.64-.2l-.31-1.92c-.4.06-.71.08-.96.08M707.86,212.74c1.19-1.14,2.63-1.72,4.29-1.72,1.16,0,2.23.29,3.16.88.94.59,1.66,1.42,2.14,2.51s.73,2.34.73,3.78c0,2.27-.57,4.04-1.72,5.28s-2.6,1.86-4.36,1.86-3.17-.62-4.32-1.84c-1.14-1.22-1.72-2.91-1.72-5.04,0-2.66.6-4.56,1.79-5.71M704.65,222.84c.68,1.39,1.67,2.49,2.99,3.3s2.8,1.21,4.47,1.21c1.53,0,2.97-.37,4.3-1.1,1.33-.73,2.35-1.81,3.08-3.22.73-1.42,1.08-3.03,1.08-4.83s-.34-3.36-1.04-4.75c-.7-1.39-1.69-2.49-3-3.26s-2.78-1.18-4.42-1.18c-2.49,0-4.53.84-6.11,2.49-1.58,1.67-2.37,3.96-2.37,6.9,0,1.56.34,3.03,1.02,4.42"/>
      <polyline points="680.78 226.68 662.21 226.68 662.21 208.12 680.78 208.12 680.78 226.68" style="fill: #ff6692;"/>
      <path d="M749.27,215.71c-1.01,0-1.84.34-2.52,1.01s-1.05,1.56-1.13,2.68h7.16c-.09-1.08-.37-1.89-.82-2.43-.7-.84-1.59-1.25-2.69-1.25M712.14,211.04c-1.66,0-3.09.57-4.29,1.72s-1.79,3.05-1.79,5.71c0,2.14.57,3.82,1.72,5.04s2.58,1.84,4.32,1.84,3.22-.62,4.36-1.86,1.72-3,1.72-5.28c0-1.44-.25-2.71-.73-3.78-.5-1.08-1.21-1.9-2.14-2.51-.94-.59-2-.88-3.16-.88M749.37,227.35c-1.87,0-3.37-.57-4.47-1.73s-1.66-2.78-1.66-4.86.56-3.84,1.67-5.03c1.11-1.19,2.55-1.79,4.33-1.79s3.13.59,4.21,1.75c1.08,1.18,1.62,2.82,1.62,4.94v.59h-9.58c.08,1.41.48,2.49,1.19,3.23s1.61,1.13,2.68,1.13c.8,0,1.49-.22,2.04-.63s1.01-1.08,1.35-2.01l2.24.28c-.36,1.32-1.01,2.34-1.96,3.06s-2.18,1.08-3.68,1.08M759.67,216.16c.5-.91.96-1.52,1.38-1.79.42-.29.88-.43,1.39-.43.73,0,1.49.23,2.24.7l-.74,2.01c-.53-.31-1.07-.46-1.59-.46-.48,0-.9.14-1.28.43-.39.28-.65.68-.8,1.19-.25.77-.36,1.62-.36,2.54v6.71h-2.18v-12.84h1.96v1.95M722.14,215.91v-1.69h1.59v-3.17l2.17-1.3v4.49h2.18v1.69h-2.18v7.5c0,.62.03,1.02.11,1.19s.2.32.37.42c.17.11.42.15.74.15.25,0,.56-.03.96-.08l.31,1.92c-.62.12-1.16.2-1.64.2-.79,0-1.41-.12-1.84-.37s-.74-.57-.91-.99c-.17-.4-.26-1.27-.26-2.57v-7.38h-1.59M730.21,227.05v-17.71h2.18v6.36c1.02-1.18,2.29-1.76,3.84-1.76.94,0,1.78.19,2.48.56.7.37,1.21.9,1.5,1.55.31.67.45,1.62.45,2.88v8.14h-2.18v-8.14c0-1.08-.23-1.87-.71-2.38-.46-.5-1.14-.74-2-.74-.65,0-1.25.17-1.83.5-.57.34-.97.79-1.22,1.36-.25.57-.36,1.36-.36,2.37v7.02h-2.18M712.11,227.36c-1.67,0-3.16-.4-4.47-1.21-1.32-.8-2.31-1.9-2.99-3.3-.68-1.39-1.02-2.86-1.02-4.42,0-2.94.79-5.24,2.37-6.9,1.58-1.67,3.62-2.49,6.11-2.49,1.64,0,3.11.39,4.42,1.18,1.32.77,2.32,1.87,3,3.26.7,1.39,1.04,2.99,1.04,4.75s-.36,3.4-1.08,4.83c-.73,1.42-1.75,2.49-3.08,3.22s-2.77,1.1-4.3,1.1M662.21,226.68v-18.57h18.57v18.57h-18.57M871.68,198.99h-231.13v36.82h231.13v-36.82" style="fill: #fff;"/>
      <path d="M745.62,219.39c.08-1.11.45-2.01,1.13-2.68s1.52-1.01,2.52-1.01c1.1,0,2,.42,2.69,1.25.45.54.73,1.35.82,2.43h-7.16M749.24,213.93c-1.78,0-3.22.6-4.33,1.79s-1.67,2.86-1.67,5.03.56,3.71,1.66,4.86c1.1,1.16,2.58,1.73,4.47,1.73,1.49,0,2.71-.36,3.68-1.08.96-.73,1.61-1.75,1.96-3.06l-2.24-.28c-.32.91-.77,1.59-1.35,2.01-.56.42-1.24.63-2.04.63-1.07,0-1.96-.37-2.68-1.13-.71-.74-1.11-1.83-1.19-3.23h9.58v-.59c0-2.12-.54-3.76-1.62-4.94-1.08-1.16-2.49-1.75-4.21-1.75M762.45,213.93c-.51,0-.97.14-1.39.43s-.88.9-1.38,1.79v-1.95h-1.96v12.84h2.18v-6.71c0-.91.12-1.76.36-2.54.15-.51.43-.91.8-1.19.37-.28.8-.43,1.28-.43.53,0,1.07.15,1.59.46l.74-2.01c-.76-.46-1.5-.7-2.24-.7M725.9,209.72l-2.17,1.3v3.17h-1.59v1.69h1.59v7.38c0,1.3.09,2.17.26,2.57.17.4.48.74.91.99s1.05.37,1.84.37c.48,0,1.04-.06,1.64-.2l-.31-1.92c-.4.06-.71.08-.96.08-.32,0-.57-.05-.74-.15s-.29-.25-.37-.42-.11-.57-.11-1.19v-7.5h2.18v-1.69h-2.18v-4.49M732.38,209.34h-2.18v17.71h2.18v-7.02c0-1.01.12-1.79.36-2.37.25-.57.65-1.02,1.22-1.36s1.18-.5,1.83-.5c.87,0,1.53.25,2,.74.46.5.71,1.28.71,2.38v8.14h2.18v-8.14c0-1.25-.15-2.21-.45-2.88-.31-.67-.8-1.18-1.5-1.55-.7-.37-1.53-.56-2.48-.56-1.55,0-2.83.59-3.84,1.76v-6.36M712.09,225.35c-1.73,0-3.17-.62-4.32-1.84-1.14-1.22-1.72-2.91-1.72-5.04,0-2.66.6-4.56,1.79-5.71,1.19-1.14,2.63-1.72,4.29-1.72,1.16,0,2.23.29,3.16.88.94.59,1.66,1.42,2.14,2.51s.73,2.34.73,3.78c0,2.27-.57,4.04-1.72,5.28s-2.6,1.86-4.36,1.86M712.13,209.01c-2.49,0-4.53.84-6.11,2.49-1.58,1.67-2.37,3.96-2.37,6.9,0,1.56.34,3.03,1.02,4.42s1.67,2.49,2.99,3.3,2.8,1.21,4.47,1.21c1.53,0,2.97-.37,4.3-1.1,1.33-.73,2.35-1.81,3.08-3.22.73-1.42,1.08-3.03,1.08-4.83s-.34-3.36-1.04-4.75c-.7-1.39-1.69-2.49-3-3.26s-2.78-1.18-4.42-1.18"/>
      <polyline points="680.78 208.12 662.21 208.12 662.21 226.68 680.78 226.68 680.78 208.12" style="fill: #ff6692;"/>
      <path d="M861.97,253.73c.65-.79,1.45-1.19,2.43-1.19s1.83.42,2.51,1.24,1.02,2.1,1.02,3.87c0,1.59-.32,2.78-.99,3.56s-1.47,1.16-2.43,1.16-1.76-.4-2.46-1.22-1.04-2.04-1.04-3.68.32-2.94.97-3.73M869.89,263.87v-17.71h-2.17v6.36c-.39-.53-.87-.94-1.47-1.27s-1.3-.5-2.07-.5c-1.05,0-2.01.28-2.86.84s-1.5,1.36-1.92,2.4c-.43,1.04-.63,2.21-.63,3.48s.23,2.48.71,3.48c.46,1.01,1.13,1.79,2,2.37s1.79.85,2.82.85c1.58,0,2.77-.63,3.59-1.9v1.62h2.01M848.55,253.54c.68-.67,1.52-1.01,2.52-1.01,1.1,0,2,.42,2.69,1.25.45.54.73,1.35.82,2.43h-7.16c.08-1.11.45-2.01,1.13-2.68M853.23,261.74c-.56.42-1.24.63-2.04.63-1.07,0-1.96-.37-2.68-1.13-.71-.74-1.11-1.83-1.19-3.23h9.58v-.59c0-2.12-.54-3.76-1.62-4.94-1.08-1.16-2.49-1.75-4.21-1.75s-3.22.6-4.33,1.79-1.67,2.86-1.67,5.03.56,3.71,1.66,4.86c1.1,1.16,2.58,1.73,4.47,1.73,1.49,0,2.71-.36,3.67-1.08s1.61-1.75,1.96-3.06l-2.24-.28c-.32.91-.77,1.59-1.35,2.01M834.2,263.87v-7.01c0-1.64.34-2.75,1.01-3.34.67-.59,1.47-.88,2.4-.88.59,0,1.08.12,1.52.39.43.26.73.62.9,1.05s.25,1.1.25,2v7.81h2.18v-7.89c0-1.01-.05-1.72-.12-2.12-.12-.62-.36-1.16-.68-1.61s-.8-.82-1.45-1.1c-.65-.28-1.36-.42-2.14-.42-1.78,0-3.14.71-4.08,2.12v-1.83h-1.96v12.84h2.18M828.7,263.87v-12.84h-2.18v12.84h2.18M828.7,248.65v-2.51h-2.18v2.51h2.18M808.06,263.87v-6.65c0-1.16.12-2.06.36-2.68.23-.62.6-1.1,1.13-1.41.53-.32,1.08-.48,1.7-.48.8,0,1.39.25,1.75.73s.53,1.21.53,2.18v8.34h2.18v-7.46c0-1.32.29-2.29.9-2.88.6-.6,1.35-.9,2.24-.9.5,0,.93.12,1.3.36.37.23.62.54.77.93.14.39.22,1.01.22,1.87v8.09h2.17v-8.82c0-1.47-.34-2.55-1.02-3.26s-1.67-1.05-2.94-1.05c-1.62,0-2.96.74-3.96,2.24-.25-.71-.68-1.27-1.28-1.66s-1.39-.59-2.34-.59c-.85,0-1.61.19-2.29.57-.67.39-1.21.88-1.61,1.52v-1.79h-1.95v12.84h2.18M799.8,263.87v-6.71c0-.91.12-1.76.36-2.54.15-.51.43-.91.8-1.19.37-.28.8-.43,1.28-.43.53,0,1.07.15,1.59.46l.74-2.01c-.76-.46-1.5-.7-2.24-.7-.51,0-.97.14-1.39.43s-.88.9-1.38,1.79v-1.95h-1.96v12.84h2.18M786.65,253.54c.68-.67,1.52-1.01,2.52-1.01,1.1,0,2,.42,2.69,1.25.45.54.73,1.35.82,2.43h-7.16c.08-1.11.45-2.01,1.13-2.68M791.32,261.74c-.56.42-1.24.63-2.04.63-1.07,0-1.96-.37-2.68-1.13-.71-.74-1.11-1.83-1.19-3.23h9.58v-.59c0-2.12-.54-3.76-1.62-4.94-1.08-1.16-2.49-1.75-4.21-1.75s-3.22.6-4.33,1.79-1.67,2.86-1.67,5.03.56,3.71,1.66,4.86c1.1,1.16,2.58,1.73,4.47,1.73,1.49,0,2.71-.36,3.68-1.08.96-.73,1.61-1.75,1.96-3.06l-2.24-.28c-.32.91-.77,1.59-1.35,2.01M780.8,262.02c-.32,0-.57-.05-.74-.15s-.29-.25-.37-.42-.11-.57-.11-1.19v-7.5h2.18v-1.69h-2.18v-4.49l-2.17,1.3v3.17h-1.59v1.69h1.59v7.38c0,1.3.09,2.17.26,2.57.17.4.48.74.91.99s1.05.37,1.84.37c.48,0,1.04-.06,1.64-.2l-.31-1.92c-.4.06-.71.08-.96.08M766.01,253.54c.68-.67,1.52-1.01,2.52-1.01,1.1,0,2,.42,2.69,1.25.45.54.73,1.35.82,2.43h-7.16c.08-1.11.45-2.01,1.13-2.68M770.69,261.74c-.56.42-1.24.63-2.04.63-1.07,0-1.96-.37-2.68-1.13-.71-.74-1.11-1.83-1.19-3.23h9.58v-.59c0-2.12-.54-3.76-1.62-4.94-1.08-1.16-2.49-1.75-4.21-1.75s-3.22.6-4.33,1.79-1.67,2.86-1.67,5.03.56,3.71,1.66,4.86c1.1,1.16,2.58,1.73,4.47,1.73,1.49,0,2.71-.36,3.67-1.08s1.61-1.75,1.96-3.06l-2.24-.28c-.32.91-.77,1.59-1.35,2.01M751.89,253.73c.65-.79,1.45-1.19,2.43-1.19s1.83.42,2.51,1.24,1.02,2.1,1.02,3.87c0,1.59-.34,2.78-.99,3.56-.67.77-1.47,1.16-2.43,1.16s-1.76-.4-2.46-1.22-1.04-2.04-1.04-3.68.32-2.94.97-3.73M759.82,263.87v-17.71h-2.17v6.36c-.39-.53-.87-.94-1.47-1.27s-1.3-.5-2.07-.5c-1.05,0-2.01.28-2.86.84s-1.5,1.36-1.92,2.4c-.43,1.04-.63,2.21-.63,3.48s.23,2.48.71,3.48c.46,1.01,1.13,1.79,2,2.37.85.56,1.79.85,2.82.85,1.58,0,2.77-.63,3.59-1.9v1.62h2.01M739.51,262.02c-.32,0-.57-.05-.74-.15s-.29-.25-.37-.42-.11-.57-.11-1.19v-7.5h2.18v-1.69h-2.18v-4.49l-2.17,1.3v3.17h-1.59v1.69h1.59v7.38c0,1.3.09,2.17.26,2.57.17.4.48.74.91.99s1.05.37,1.84.37c.48,0,1.04-.06,1.64-.2l-.31-1.92c-.4.06-.71.08-.96.08M724.46,253.77c.71-.82,1.62-1.22,2.71-1.22s1.96.4,2.69,1.22,1.08,2.03,1.08,3.6c0,1.69-.36,2.94-1.08,3.76-.71.82-1.61,1.24-2.69,1.24s-2-.4-2.71-1.22-1.08-2.04-1.08-3.7.36-2.88,1.08-3.68M722.8,262.44c1.11,1.14,2.57,1.73,4.36,1.73,1.11,0,2.15-.26,3.09-.79s1.67-1.25,2.17-2.21c.5-.94.74-2.24.74-3.9,0-2.04-.56-3.64-1.69-4.8-1.11-1.16-2.57-1.73-4.33-1.73-1.59,0-2.94.48-4.04,1.42-1.32,1.14-1.98,2.91-1.98,5.28,0,2.17.56,3.82,1.66,4.98M706.57,263.87v-13.92l9.31,13.92h2.4v-17.71h-2.24v13.91l-9.31-13.91h-2.4v17.71h2.24"/>
      <polyline points="680.78 263.5 662.21 263.5 662.21 244.94 680.78 244.94 680.78 263.5" style="fill: #d3d3d3;"/>
      <path d="M727.16,252.55c-1.08,0-2,.4-2.71,1.22s-1.08,2.04-1.08,3.68.36,2.88,1.08,3.7c.71.82,1.62,1.22,2.71,1.22s1.98-.42,2.69-1.24c.71-.82,1.08-2.07,1.08-3.76,0-1.59-.36-2.78-1.08-3.6-.73-.82-1.62-1.22-2.69-1.22M754.32,252.55c-.96,0-1.78.39-2.43,1.19-.65.79-.97,2.04-.97,3.73s.34,2.88,1.04,3.68c.7.82,1.52,1.22,2.46,1.22s1.76-.39,2.43-1.16.99-1.96.99-3.56c0-1.76-.34-3.05-1.02-3.87s-1.52-1.24-2.51-1.24M864.4,252.55c-.97,0-1.78.39-2.43,1.19-.65.79-.97,2.04-.97,3.73s.34,2.88,1.04,3.68c.7.82,1.52,1.22,2.46,1.22s1.76-.39,2.43-1.16.99-1.96.99-3.56c0-1.76-.34-3.05-1.02-3.87s-1.52-1.24-2.51-1.24M768.53,252.53c-1.01,0-1.84.34-2.52,1.01s-1.05,1.56-1.13,2.68h7.16c-.09-1.08-.37-1.89-.82-2.43-.7-.84-1.59-1.25-2.69-1.25M789.17,252.53c-1.01,0-1.84.34-2.52,1.01s-1.05,1.56-1.13,2.68h7.16c-.09-1.08-.37-1.89-.82-2.43-.7-.84-1.59-1.25-2.69-1.25M851.08,252.53c-1.01,0-1.84.34-2.52,1.01s-1.05,1.56-1.13,2.68h7.16c-.09-1.08-.37-1.89-.82-2.43-.7-.84-1.59-1.25-2.69-1.25M826.52,263.87v-12.84h2.18v12.84h-2.18M727.16,264.17c-1.79,0-3.25-.57-4.36-1.73-1.11-1.14-1.66-2.82-1.66-4.98,0-2.38.67-4.13,1.98-5.28,1.1-.94,2.44-1.42,4.04-1.42,1.76,0,3.2.57,4.33,1.73,1.11,1.16,1.69,2.75,1.69,4.8,0,1.66-.25,2.96-.74,3.9s-1.22,1.69-2.17,2.21c-.94.53-1.98.79-3.09.79M768.63,264.17c-1.87,0-3.37-.57-4.47-1.73s-1.66-2.78-1.66-4.86.56-3.84,1.67-5.03c1.11-1.19,2.55-1.79,4.33-1.79s3.13.59,4.21,1.75c1.08,1.18,1.62,2.82,1.62,4.94v.59h-9.58c.08,1.41.48,2.49,1.19,3.23s1.61,1.13,2.68,1.13c.8,0,1.49-.22,2.04-.63s1.01-1.08,1.35-2.01l2.24.28c-.36,1.32-1.01,2.34-1.96,3.06s-2.18,1.08-3.67,1.08M789.28,264.17c-1.87,0-3.37-.57-4.47-1.73s-1.66-2.78-1.66-4.86.56-3.84,1.67-5.03c1.11-1.19,2.55-1.79,4.33-1.79s3.13.59,4.21,1.75c1.08,1.18,1.62,2.82,1.62,4.94v.59h-9.58c.08,1.41.48,2.49,1.19,3.23s1.61,1.13,2.68,1.13c.8,0,1.49-.22,2.04-.63s1.01-1.08,1.35-2.01l2.24.28c-.36,1.32-1.01,2.34-1.96,3.06s-2.18,1.08-3.68,1.08M799.59,252.98c.5-.91.96-1.52,1.38-1.79s.88-.43,1.39-.43c.73,0,1.49.23,2.24.7l-.74,2.01c-.53-.31-1.07-.46-1.59-.46-.48,0-.9.14-1.28.43-.39.28-.65.68-.8,1.19-.25.77-.36,1.62-.36,2.54v6.71h-2.18v-12.84h1.96v1.95M815.35,253c1.02-1.5,2.34-2.24,3.96-2.24,1.27,0,2.26.36,2.94,1.05.68.71,1.02,1.79,1.02,3.26v8.82h-2.17v-8.09c0-.87-.08-1.5-.22-1.87-.14-.39-.4-.7-.77-.93-.37-.23-.8-.36-1.3-.36-.9,0-1.66.29-2.24.9-.6.6-.9,1.56-.9,2.88v7.46h-2.18v-8.34c0-.97-.17-1.69-.53-2.18-.36-.48-.93-.73-1.75-.73-.62,0-1.18.15-1.7.48-.53.32-.9.79-1.13,1.41-.23.62-.36,1.52-.36,2.68v6.65h-2.18v-12.84h1.95v1.79c.4-.63.94-1.13,1.61-1.52s1.42-.57,2.29-.57c.94,0,1.73.2,2.34.59.6.4,1.04.94,1.28,1.66M833.98,252.86c.94-1.41,2.31-2.12,4.08-2.12.77,0,1.49.14,2.14.42.65.28,1.13.65,1.45,1.1.32.45.54.99.68,1.61.08.4.12,1.11.12,2.12v7.89h-2.18v-7.81c0-.88-.08-1.55-.25-2s-.46-.79-.9-1.05-.94-.39-1.52-.39c-.93,0-1.73.29-2.4.88-.68.59-1.01,1.7-1.01,3.34v7.01h-2.18v-12.84h1.96v1.83M851.17,264.17c-1.87,0-3.37-.57-4.47-1.73s-1.66-2.78-1.66-4.86.56-3.84,1.67-5.03c1.11-1.19,2.55-1.79,4.33-1.79s3.13.59,4.21,1.75c1.08,1.18,1.62,2.82,1.62,4.94v.59h-9.58c.08,1.41.48,2.49,1.19,3.23s1.61,1.13,2.68,1.13c.8,0,1.49-.22,2.04-.63s1.01-1.08,1.35-2.01l2.24.28c-.36,1.32-1.01,2.34-1.96,3.06s-2.18,1.08-3.67,1.08M734.51,252.73v-1.69h1.59v-3.17l2.17-1.3v4.49h2.18v1.69h-2.18v7.5c0,.62.03,1.02.11,1.19s.2.32.37.42c.17.11.42.15.74.15.25,0,.56-.03.96-.08l.31,1.92c-.62.12-1.16.2-1.64.2-.79,0-1.41-.12-1.84-.37s-.74-.57-.91-.99c-.17-.4-.26-1.27-.26-2.57v-7.38h-1.59M775.81,252.73v-1.69h1.59v-3.17l2.17-1.3v4.49h2.18v1.69h-2.18v7.5c0,.62.03,1.02.11,1.19s.2.32.37.42c.17.11.42.15.74.15.25,0,.56-.03.96-.08l.31,1.92c-.62.12-1.16.2-1.64.2-.79,0-1.41-.12-1.84-.37s-.74-.57-.91-.99c-.17-.4-.26-1.27-.26-2.57v-7.38h-1.59M716.04,260.07v-13.91h2.24v17.71h-2.4l-9.31-13.92v13.92h-2.24v-17.71h2.4l9.31,13.91M757.66,252.52v-6.36h2.17v17.71h-2.01v-1.62c-.82,1.27-2.01,1.9-3.59,1.9-1.02,0-1.96-.28-2.82-.85-.85-.56-1.52-1.35-2-2.37-.46-1.01-.71-2.18-.71-3.48s.22-2.44.63-3.48c.43-1.04,1.07-1.84,1.92-2.4s1.81-.84,2.86-.84c.77,0,1.47.17,2.07.5s1.1.76,1.47,1.27M826.52,248.65v-2.51h2.18v2.51h-2.18M867.74,252.52v-6.36h2.17v17.71h-2.01v-1.62c-.82,1.27-2.01,1.9-3.59,1.9-1.02,0-1.96-.28-2.82-.85s-1.52-1.35-2-2.37c-.46-1.01-.71-2.18-.71-3.48s.22-2.44.63-3.48c.43-1.04,1.07-1.84,1.92-2.4s1.81-.84,2.86-.84c.77,0,1.47.17,2.07.5s1.1.76,1.47,1.27M662.21,263.5v-18.57h18.57v18.57h-18.57M871.68,235.81h-231.13v36.82h231.13v-36.82" style="fill: #fff;"/>
      <path d="M828.7,251.03h-2.18v12.84h2.18v-12.84M727.16,262.37c-1.08,0-2-.4-2.71-1.22s-1.08-2.04-1.08-3.7.36-2.88,1.08-3.68c.71-.82,1.62-1.22,2.71-1.22s1.96.4,2.69,1.22,1.08,2.03,1.08,3.6c0,1.69-.36,2.94-1.08,3.76-.71.82-1.61,1.24-2.69,1.24M727.16,250.75c-1.59,0-2.94.48-4.04,1.42-1.32,1.14-1.98,2.91-1.98,5.28,0,2.17.56,3.82,1.66,4.98,1.11,1.14,2.57,1.73,4.36,1.73,1.11,0,2.15-.26,3.09-.79s1.67-1.25,2.17-2.21c.5-.94.74-2.24.74-3.9,0-2.04-.56-3.64-1.69-4.8-1.11-1.16-2.57-1.73-4.33-1.73M764.88,256.22c.08-1.11.45-2.01,1.13-2.68s1.52-1.01,2.52-1.01c1.1,0,2,.42,2.69,1.25.45.54.73,1.35.82,2.43h-7.16M768.5,250.75c-1.78,0-3.22.6-4.33,1.79s-1.67,2.86-1.67,5.03.56,3.71,1.66,4.86c1.1,1.16,2.58,1.73,4.47,1.73,1.49,0,2.71-.36,3.67-1.08s1.61-1.75,1.96-3.06l-2.24-.28c-.32.91-.77,1.59-1.35,2.01-.56.42-1.24.63-2.04.63-1.07,0-1.96-.37-2.68-1.13-.71-.74-1.11-1.83-1.19-3.23h9.58v-.59c0-2.12-.54-3.76-1.62-4.94-1.08-1.16-2.49-1.75-4.21-1.75M785.52,256.22c.08-1.11.45-2.01,1.13-2.68s1.52-1.01,2.52-1.01c1.1,0,2,.42,2.69,1.25.45.54.73,1.35.82,2.43h-7.16M789.16,250.75c-1.78,0-3.22.6-4.33,1.79s-1.67,2.86-1.67,5.03.56,3.71,1.66,4.86c1.1,1.16,2.58,1.73,4.47,1.73,1.49,0,2.71-.36,3.68-1.08.96-.73,1.61-1.75,1.96-3.06l-2.24-.28c-.32.91-.77,1.59-1.35,2.01-.56.42-1.24.63-2.04.63-1.07,0-1.96-.37-2.68-1.13-.71-.74-1.11-1.83-1.19-3.23h9.58v-.59c0-2.12-.54-3.76-1.62-4.94-1.08-1.16-2.49-1.75-4.21-1.75M802.37,250.75c-.51,0-.97.14-1.39.43s-.88.9-1.38,1.79v-1.95h-1.96v12.84h2.18v-6.71c0-.91.12-1.76.36-2.54.15-.51.43-.91.8-1.19.37-.28.8-.43,1.28-.43.53,0,1.07.15,1.59.46l.74-2.01c-.76-.46-1.5-.7-2.24-.7M819.33,250.75c-1.62,0-2.96.74-3.96,2.24-.25-.71-.68-1.27-1.28-1.66s-1.39-.59-2.34-.59c-.85,0-1.61.19-2.29.57-.67.39-1.21.88-1.61,1.52v-1.79h-1.95v12.84h2.18v-6.65c0-1.16.12-2.06.36-2.68.23-.62.6-1.1,1.13-1.41.53-.32,1.08-.48,1.7-.48.8,0,1.39.25,1.75.73s.53,1.21.53,2.18v8.34h2.18v-7.46c0-1.32.29-2.29.9-2.88.6-.6,1.35-.9,2.24-.9.5,0,.93.12,1.3.36.37.23.62.54.77.93.14.39.22,1.01.22,1.87v8.09h2.17v-8.82c0-1.47-.34-2.55-1.02-3.26s-1.67-1.05-2.94-1.05M838.06,250.75c-1.78,0-3.14.71-4.08,2.12v-1.83h-1.96v12.84h2.18v-7.01c0-1.64.34-2.75,1.01-3.34.67-.59,1.47-.88,2.4-.88.59,0,1.08.12,1.52.39.43.26.73.62.9,1.05s.25,1.1.25,2v7.81h2.18v-7.89c0-1.01-.05-1.72-.12-2.12-.12-.62-.36-1.16-.68-1.61s-.8-.82-1.45-1.1c-.65-.28-1.36-.42-2.14-.42M847.42,256.22c.08-1.11.45-2.01,1.13-2.68s1.52-1.01,2.52-1.01c1.1,0,2,.42,2.69,1.25.45.54.73,1.35.82,2.43h-7.16M851.04,250.75c-1.78,0-3.22.6-4.33,1.79s-1.67,2.86-1.67,5.03.56,3.71,1.66,4.86c1.1,1.16,2.58,1.73,4.47,1.73,1.49,0,2.71-.36,3.67-1.08s1.61-1.75,1.96-3.06l-2.24-.28c-.32.91-.77,1.59-1.35,2.01-.56.42-1.24.63-2.04.63-1.07,0-1.96-.37-2.68-1.13-.71-.74-1.11-1.83-1.19-3.23h9.58v-.59c0-2.12-.54-3.76-1.62-4.94-1.08-1.16-2.49-1.75-4.21-1.75M738.27,246.55l-2.17,1.3v3.17h-1.59v1.69h1.59v7.38c0,1.3.09,2.17.26,2.57.17.4.48.74.91.99s1.05.37,1.84.37c.48,0,1.04-.06,1.64-.2l-.31-1.92c-.4.06-.71.08-.96.08-.32,0-.57-.05-.74-.15s-.29-.25-.37-.42-.11-.57-.11-1.19v-7.5h2.18v-1.69h-2.18v-4.49M779.57,246.55l-2.17,1.3v3.17h-1.59v1.69h1.59v7.38c0,1.3.09,2.17.26,2.57.17.4.48.74.91.99s1.05.37,1.84.37c.48,0,1.04-.06,1.64-.2l-.31-1.92c-.4.06-.71.08-.96.08-.32,0-.57-.05-.74-.15s-.29-.25-.37-.42-.11-.57-.11-1.19v-7.5h2.18v-1.69h-2.18v-4.49M718.28,246.16h-2.24v13.91l-9.31-13.91h-2.4v17.71h2.24v-13.92l9.31,13.92h2.4v-17.71M754.41,262.37c-.94,0-1.76-.4-2.46-1.22s-1.04-2.04-1.04-3.68.32-2.94.97-3.73c.65-.79,1.45-1.19,2.43-1.19s1.83.42,2.51,1.24,1.02,2.1,1.02,3.87c0,1.59-.34,2.78-.99,3.56-.67.77-1.47,1.16-2.43,1.16M759.82,246.16h-2.17v6.36c-.39-.53-.87-.94-1.47-1.27s-1.3-.5-2.07-.5c-1.05,0-2.01.28-2.86.84s-1.5,1.36-1.92,2.4c-.43,1.04-.63,2.21-.63,3.48s.23,2.48.71,3.48c.46,1.01,1.13,1.79,2,2.37.85.56,1.79.85,2.82.85,1.58,0,2.77-.63,3.59-1.9v1.62h2.01v-17.71M828.7,246.16h-2.18v2.51h2.18v-2.51M864.49,262.37c-.94,0-1.76-.4-2.46-1.22s-1.04-2.04-1.04-3.68.32-2.94.97-3.73c.65-.79,1.45-1.19,2.43-1.19s1.83.42,2.51,1.24,1.02,2.1,1.02,3.87c0,1.59-.32,2.78-.99,3.56s-1.47,1.16-2.43,1.16M869.89,246.16h-2.17v6.36c-.39-.53-.87-.94-1.47-1.27s-1.3-.5-2.07-.5c-1.05,0-2.01.28-2.86.84s-1.5,1.36-1.92,2.4c-.43,1.04-.63,2.21-.63,3.48s.23,2.48.71,3.48c.46,1.01,1.13,1.79,2,2.37s1.79.85,2.82.85c1.58,0,2.77-.63,3.59-1.9v1.62h2.01v-17.71"/>
      <polyline points="680.78 244.94 662.21 244.94 662.21 263.5 680.78 263.5 680.78 244.94" style="fill: #d3d3d3;"/>
    </g>
  </g>
  <path d="M515.47,720.39v-7.91c0-1.13.13-2.02.41-2.67s.73-1.16,1.36-1.53c.65-.38,1.32-.56,2.05-.56.97,0,1.72.28,2.26.84.53.56.79,1.45.79,2.67v9.15h2.45v-9.15c0-1.41-.18-2.49-.51-3.24s-.91-1.33-1.7-1.75c-.79-.43-1.72-.63-2.79-.63-1.75,0-3.18.66-4.33,1.98v-7.16h-2.45v19.95h2.45ZM509.54,718.29c-.37,0-.65-.06-.84-.18s-.34-.28-.43-.48-.13-.65-.13-1.35v-8.45h2.46v-1.91h-2.46v-5.05l-2.43,1.47v3.58h-1.79v1.91h1.79v8.32c0,1.47.1,2.43.29,2.89.21.45.54.82,1.04,1.11.48.28,1.17.43,2.07.43.54,0,1.16-.07,1.85-.22l-.35-2.17c-.44.06-.81.1-1.07.1h0ZM492.22,720.39v-7.89c0-1.85.38-3.11,1.13-3.77.76-.66,1.66-1,2.7-1,.66,0,1.22.15,1.7.44.48.29.82.69,1.01,1.19s.28,1.25.28,2.24v8.79h2.45v-8.89c0-1.13-.04-1.92-.13-2.38-.15-.7-.4-1.31-.76-1.8-.37-.51-.91-.92-1.64-1.23s-1.53-.47-2.41-.47c-2.01,0-3.54.79-4.61,2.38v-2.05h-2.2v14.45h2.48ZM477.1,709.01c.81-.91,1.82-1.38,3.05-1.38s2.21.45,3.02,1.38,1.22,2.27,1.22,4.06c0,1.89-.41,3.3-1.22,4.24-.81.92-1.82,1.39-3.04,1.39s-2.24-.45-3.05-1.38-1.22-2.3-1.22-4.15.4-3.24,1.22-4.15h.01ZM475.23,718.78c1.25,1.29,2.89,1.95,4.9,1.95,1.26,0,2.42-.29,3.49-.88,1.07-.59,1.88-1.42,2.44-2.48.56-1.07.84-2.52.84-4.39,0-2.29-.63-4.09-1.89-5.4-1.26-1.31-2.89-1.95-4.87-1.95-1.79,0-3.3.54-4.55,1.6-1.48,1.29-2.23,3.27-2.23,5.94,0,2.43.63,4.31,1.88,5.6h0ZM453.83,720.39v-16.99l5.76,16.99h2.38l5.79-16.69v16.69h2.54v-19.95h-3.55l-4.78,13.88c-.48,1.41-.84,2.48-1.06,3.2-.21-.66-.51-1.64-.95-2.95l-4.72-14.13h-3.98v19.95h2.57Z"/>
  <path d="M20.03,208.68c.8-1.01,1.21-2.49,1.21-4.43,0-1.16-.2-2.22-.6-3.14s-.98-1.63-1.72-2.13c-.74-.48-1.54-.74-2.37-.74s-1.57.2-2.16.6c-.57.41-1.03.95-1.33,1.66-.3.71-.69,1.95-1.16,3.73-.33,1.24-.56,1.98-.65,2.24-.18.44-.41.76-.68.97-.26.21-.56.3-.88.3-.51,0-.97-.24-1.34-.74s-.57-1.33-.57-2.48c0-.98.21-1.74.65-2.28.42-.54,1.03-.86,1.8-.98l-.33-2.46c-.97.17-1.74.45-2.31.88s-1.03,1.07-1.36,1.95c-.33.88-.5,1.9-.5,3.08,0,.77.11,1.5.3,2.18s.45,1.21.74,1.6c.38.53.85.94,1.4,1.24s1.18.45,1.84.45c.73,0,1.39-.18,1.99-.56.6-.36,1.07-.91,1.42-1.63.35-.71.74-1.99,1.21-3.85.35-1.37.63-2.24.86-2.58.33-.5.77-.74,1.34-.74.63,0,1.19.29,1.66.85s.71,1.42.71,2.58-.27,2.04-.8,2.69c-.53.63-1.3,1.03-2.3,1.16l.39,2.49c1.59-.29,2.76-.92,3.58-1.93l-.05.03ZM8.91,222.35c-.77-.79-1.16-1.77-1.16-2.92,0-1.28.48-2.33,1.45-3.13.62-.53,1.57-.85,2.81-.95v8.31c-1.3-.09-2.34-.51-3.11-1.31h.02ZM18.43,216.94c.48.65.73,1.45.73,2.37,0,1.24-.44,2.28-1.3,3.11s-2.11,1.3-3.76,1.39v-11.1h-.68c-2.46,0-4.37.63-5.73,1.89s-2.02,2.89-2.02,4.88.69,3.73,2.07,5.02,3.32,1.93,5.83,1.93,4.31-.63,5.63-1.92c1.34-1.27,2.01-3.01,2.01-5.18,0-1.72-.42-3.14-1.25-4.26-.85-1.12-2.02-1.87-3.55-2.28l-.32,2.61c1.07.38,1.84.91,2.33,1.56l.02-.02ZM18.25,231.48c.6.66.91,1.5.91,2.48,0,1.24-.45,2.24-1.36,3.01-.91.77-2.36,1.15-4.35,1.15s-3.41-.39-4.32-1.19c-.91-.8-1.36-1.83-1.36-3.1,0-.85.26-1.56.76-2.15s1.25-1.01,2.25-1.24l-.38-2.45c-1.51.29-2.66.95-3.49,1.98-.82,1.03-1.22,2.36-1.22,3.97,0,1.28.3,2.46.91,3.55.6,1.09,1.51,1.9,2.7,2.43,1.19.53,2.61.8,4.21.8,2.48,0,4.4-.62,5.73-1.86,1.33-1.24,1.99-2.87,1.99-4.91,0-1.63-.48-2.99-1.45-4.11s-2.31-1.81-4.02-2.08l-.32,2.48c1.27.18,2.19.6,2.81,1.25v-.02ZM20.91,253.36h-8.13c-1.9,0-3.2-.39-3.88-1.16-.68-.79-1.03-1.71-1.03-2.78,0-.68.15-1.25.45-1.75.3-.5.71-.85,1.22-1.04s1.28-.29,2.31-.29h9.05v-2.52h-9.15c-1.16,0-1.98.05-2.45.14-.73.15-1.34.41-1.86.79-.53.38-.95.94-1.27,1.69s-.48,1.57-.48,2.48c0,2.07.82,3.64,2.45,4.74h-2.11v2.27h14.88v-2.55ZM8.91,268.63c-.77-.79-1.16-1.77-1.16-2.92,0-1.28.48-2.33,1.45-3.13.62-.53,1.57-.85,2.81-.95v8.31c-1.3-.09-2.34-.51-3.11-1.31h.02ZM18.43,263.21c.48.65.73,1.45.73,2.37,0,1.24-.44,2.28-1.3,3.11s-2.11,1.3-3.76,1.39v-11.1h-.68c-2.46,0-4.37.63-5.73,1.89s-2.02,2.89-2.02,4.88.69,3.73,2.07,5.02,3.32,1.93,5.83,1.93,4.31-.63,5.63-1.92c1.34-1.27,2.01-3.01,2.01-5.18,0-1.72-.42-3.14-1.25-4.26-.85-1.12-2.02-1.87-3.55-2.28l-.32,2.61c1.07.38,1.84.91,2.33,1.56l.02-.02ZM20.91,275.79H6.03v2.52h7.98c1.27,0,2.24.14,2.92.41.66.27,1.19.74,1.59,1.4.39.66.59,1.37.59,2.13s-.2,1.39-.57,1.9-.91.85-1.56,1.01c-.45.11-1.34.15-2.66.15H6.06v2.52h9.21c1.07,0,1.86-.05,2.36-.15.74-.15,1.36-.41,1.87-.77.51-.36.94-.94,1.27-1.69s.5-1.59.5-2.46c0-1.99-.85-3.56-2.52-4.73h2.19v-2.25h-.03ZM9.06,300.92c-.94-.76-1.39-1.69-1.39-2.78s.5-2.07,1.5-2.89c1-.82,2.49-1.22,4.47-1.22,1.86,0,3.25.39,4.15,1.16.91.77,1.36,1.71,1.36,2.78s-.48,2.08-1.44,2.89c-.95.8-2.39,1.21-4.31,1.21s-3.41-.38-4.35-1.15h0ZM26.6,291.76H6.01v2.27h1.99c-1.56,1.06-2.33,2.51-2.33,4.35,0,1.18.3,2.27.92,3.25s1.51,1.74,2.7,2.25c1.19.51,2.52.77,4.02.77,2.46,0,4.4-.63,5.8-1.92,1.4-1.27,2.11-2.79,2.11-4.56,0-.8-.18-1.54-.54-2.25s-.82-1.25-1.37-1.65h7.28v-2.52.02ZM8.91,316.52c-.77-.79-1.16-1.77-1.16-2.92,0-1.28.48-2.33,1.45-3.13.62-.53,1.57-.85,2.81-.95v8.31c-1.3-.09-2.34-.51-3.11-1.31h.02ZM18.43,311.1c.48.65.73,1.45.73,2.37,0,1.24-.44,2.28-1.3,3.11s-2.11,1.3-3.76,1.39v-11.1h-.68c-2.46,0-4.37.63-5.73,1.89s-2.02,2.89-2.02,4.88.69,3.73,2.07,5.02,3.32,1.93,5.83,1.93,4.31-.63,5.63-1.92c1.34-1.27,2.01-3.01,2.01-5.18,0-1.72-.42-3.14-1.25-4.26-.85-1.12-2.02-1.87-3.55-2.28l-.32,2.61c1.07.38,1.84.91,2.33,1.56l.02-.02ZM20.03,333.15c.8-1.01,1.21-2.49,1.21-4.43,0-1.16-.2-2.22-.6-3.14s-.98-1.63-1.72-2.13c-.74-.48-1.54-.74-2.37-.74s-1.57.2-2.16.6c-.57.41-1.03.95-1.33,1.66-.3.71-.69,1.95-1.16,3.73-.33,1.24-.56,1.98-.65,2.24-.18.44-.41.76-.68.97-.26.21-.56.3-.88.3-.51,0-.97-.24-1.34-.74s-.57-1.33-.57-2.48c0-.98.21-1.74.65-2.28.42-.54,1.03-.86,1.8-.98l-.33-2.46c-.97.17-1.74.45-2.31.88s-1.03,1.07-1.36,1.95c-.33.88-.5,1.9-.5,3.08,0,.77.11,1.5.3,2.18s.45,1.21.74,1.6c.38.53.85.94,1.4,1.24s1.18.45,1.84.45c.73,0,1.39-.18,1.99-.56.6-.36,1.07-.91,1.42-1.63.35-.71.74-1.99,1.21-3.85.35-1.37.63-2.24.86-2.58.33-.5.77-.74,1.34-.74.63,0,1.19.29,1.66.85s.71,1.42.71,2.58-.27,2.04-.8,2.69c-.53.63-1.3,1.03-2.3,1.16l.39,2.49c1.59-.29,2.76-.92,3.58-1.93l-.05.03ZM20.91,346.93H7.99v-2.9h-1.96v2.9h-1.37c-.89,0-1.51-.15-1.83-.48-.33-.32-.5-.86-.5-1.63,0-.47.05-.97.14-1.48l-2.21-.38c-.17.86-.26,1.65-.26,2.36,0,1.1.2,1.96.6,2.57.41.62.94,1.04,1.59,1.28.48.18,1.22.27,2.24.27h1.59v2.24h1.96v-2.24h12.92v-2.51h.02ZM9.18,363.09c-.94-.83-1.42-1.87-1.42-3.14s.47-2.28,1.42-3.11c.95-.83,2.34-1.25,4.18-1.25,1.95,0,3.4.42,4.37,1.25.95.83,1.44,1.87,1.44,3.13s-.47,2.31-1.42,3.14c-.95.83-2.37,1.25-4.27,1.25s-3.34-.41-4.27-1.25l-.02-.02ZM19.23,365.01c1.33-1.28,2.01-2.98,2.01-5.05,0-1.3-.3-2.49-.91-3.6s-1.47-1.93-2.55-2.51c-1.1-.57-2.6-.86-4.52-.86-2.36,0-4.21.65-5.56,1.95-1.34,1.3-2.01,2.98-2.01,5.02,0,1.84.56,3.4,1.65,4.68,1.33,1.53,3.37,2.3,6.12,2.3,2.51,0,4.44-.65,5.77-1.93ZM20.91,381.04h-7.79c-1.07,0-2.04-.14-2.95-.42-.59-.18-1.04-.5-1.37-.94s-.5-.94-.5-1.48c0-.62.18-1.24.54-1.84l-2.34-.88c-.54.88-.82,1.74-.82,2.6,0,.59.17,1.13.5,1.62s1.03,1.03,2.08,1.6h-2.25v2.27h14.88v-2.52h.02ZM8.91,396.28c-.77-.79-1.16-1.77-1.16-2.92,0-1.28.48-2.33,1.45-3.13.62-.53,1.57-.85,2.81-.95v8.31c-1.3-.09-2.34-.51-3.11-1.31h.02ZM18.43,390.85c.48.65.73,1.45.73,2.37,0,1.24-.44,2.28-1.3,3.11s-2.11,1.3-3.76,1.39v-11.1h-.68c-2.46,0-4.37.63-5.73,1.89s-2.02,2.89-2.02,4.88.69,3.73,2.07,5.02,3.32,1.93,5.83,1.93,4.31-.63,5.63-1.92c1.34-1.27,2.01-3.01,2.01-5.18,0-1.72-.42-3.14-1.25-4.26-.85-1.12-2.02-1.87-3.55-2.28l-.32,2.61c1.07.38,1.84.91,2.33,1.56l.02-.02ZM9.2,411.94c-.95-.8-1.44-1.75-1.44-2.85s.47-2.02,1.39-2.79,2.36-1.16,4.31-1.16,3.32.41,4.27,1.21,1.44,1.75,1.44,2.85c0,1.36-.65,2.43-1.95,3.22-.8.48-2.08.73-3.87.73s-3.2-.41-4.15-1.21v.02ZM19.03,413.12c1.47-1,2.21-2.37,2.21-4.14s-.69-3.28-2.08-4.55c-1.39-1.25-3.37-1.89-5.91-1.89-1.07,0-2.08.15-3.02.45-.94.3-1.75.71-2.42,1.24-.66.53-1.19,1.19-1.56,2.02-.36.82-.56,1.69-.56,2.6,0,1.65.66,3.01,2.01,4.08H.38v2.52h20.54v-2.34h-1.89ZM20.91,436.84h-7.72c-1.36,0-2.39-.14-3.11-.41s-1.27-.71-1.63-1.31c-.38-.6-.56-1.25-.56-1.96,0-.94.29-1.6.85-2.02.56-.41,1.4-.62,2.52-.62h9.67v-2.52h-8.64c-1.53,0-2.64-.35-3.34-1.04s-1.04-1.56-1.04-2.61c0-.57.14-1.09.41-1.51s.63-.73,1.07-.89,1.16-.24,2.18-.24h9.38v-2.51h-10.21c-1.69,0-2.96.39-3.78,1.19s-1.22,1.93-1.22,3.4c0,1.89.88,3.41,2.61,4.59-.82.29-1.47.79-1.92,1.5s-.68,1.62-.68,2.7c0,1,.23,1.87.66,2.64s1.03,1.39,1.75,1.86h-2.08v2.25h14.88v-2.52l-.05.05ZM20.91,443.32H6.03v2.52h7.98c1.27,0,2.24.14,2.92.41.66.27,1.19.74,1.59,1.4.39.66.59,1.37.59,2.13s-.2,1.39-.57,1.9-.91.85-1.56,1.01c-.45.11-1.34.15-2.66.15H6.06v2.52h9.21c1.07,0,1.86-.05,2.36-.15.74-.15,1.36-.41,1.87-.77.51-.36.94-.94,1.27-1.69s.5-1.59.5-2.46c0-1.99-.85-3.56-2.52-4.73h2.19v-2.25h-.03ZM20.91,473.15H4.76l16.15-10.79v-2.79H.36v2.61h16.13L.36,472.97v2.79h20.54v-2.61Z"/>
</svg>