<svg class="main-svg" xmlns="http://www.w3.org/2000/svg" xmlns:xlink="http://www.w3.org/1999/xlink" width="551" height="700" style="" viewBox="0 0 551 700"><rect x="0" y="0" width="551" height="700" style="fill: rgb(255, 255, 255); fill-opacity: 1;"/><defs id="defs-5d38c5"><g class="clips"><clipPath id="clip5d38c5geo"><rect x="5" y="4.412264580657393" width="541" height="690.5712600954998"/></clipPath></g><g class="gradients"/><g class="patterns"/></defs><g class="bglayer"/><g class="layer-below"><g class="imagelayer"/><g class="shapelayer"/></g><g class="cartesianlayer"/><g class="polarlayer"/><g class="smithlayer"/><g class="ternarylayer"/><g class="geolayer"><g class="geo geo" clip-path="url(#clip5d38c5geo)"><g class="layer bg"><rect x="5" y="4.412264580657393" width="541" height="690.5712600954998" style="pointer-events: all; fill: rgb(255, 255, 255); fill-opacity: 1;"/></g><g class="layer countries"><path d="M279.9900405065786,694.9835246761572L275.7032403941637,693.7367958438717L271.8068715614412,688.7754293966682L268.39754883280904,689.4845493178345L265.9623183123573,690.9024356478421L264.5595267239405,694.9835246761572L50.98965743335626,694.9835246761572L50.98965743335626,694.9835246761572L51.66203251262334,693.0283822114438L53.12317082489409,690.1935513826734L59.94181628215847,684.5182317094777L66.76046173942251,678.1244491859461L67.73455394760305,672.4330120321492L68.22160005169377,665.3079817351368L69.1956922598743,663.1681391103466L78.44956823759009,658.8852129154247L80.88479875804171,656.7421262098237L81.85889096622225,654.5979550037141L89.16458252757656,646.0103936330897L95.98322798484094,638.1231104669268L97.44436629711174,635.2513508152447L98.90550460938289,633.0962475076303L98.90550460938289,632.3776349324271L97.93141240120201,630.9400422161907L94.52208967257013,630.2210619560897L93.54799746438931,628.06338485267L96.95732019302147,623.0245020626844L101.82778123392444,620.142429654537L106.21119617073725,620.142429654537L108.15938058709867,621.5837126560309L107.6723344830084,623.0245020626844L109.62051889936947,624.464798354591L113.02984162800163,625.1847617323847L117.41325656481445,624.464798354591L121.30962539753693,623.0245020626844L124.23190202207883,618.7006525775128L125.69304033434963,615.0940451446381L132.0246396875234,611.4843391938189L136.4080546243361,613.650535009273L149.0712533306841,614.3723520774779L157.8380832043096,612.928593879587L163.6826364533935,610.7620255166735L170.50128191065755,610.7620255166735L175.37174295156058,612.2065286279385L176.34583515974145,612.2065286279385L177.319927367922,611.4843391938189L178.7810656801928,610.0395875359168L183.1644806170055,609.317025190925L183.65152672109576,607.8715271655342L183.65152672109576,607.1485913637016L182.67743451291523,606.4255309547525L177.319927367922,607.1485913637016L175.37174295156058,606.4255309547525L174.88469684747037,604.2556014769002L176.34583515974145,600.6365545215572L180.2422039924636,597.7390645187334L183.65152672109576,597.0143786695744L186.08675724154745,597.7390645187334L192.41835659472122,603.5320420309868L193.87949490699242,603.5320420309868L194.3665410110827,602.084548343485L195.8276793233535,602.084548343485L197.7758637397149,602.8083576735157L200.2110942601662,606.4255309547525L200.69814036425646,606.4255309547525L213.84838517469473,605.7023458778754L216.77066179923668,605.7023458778754L226.02453777695234,611.4843391938189L235.27841375466812,617.2583809436765L235.27841375466812,617.2583809436765L236.73955206693927,618.7006525775128L240.63592089966141,621.5837126560309L240.14887479557115,628.06338485267L235.7654598587584,637.4053537430354L233.3302293383071,645.2939759598084L232.84318323421684,651.0219220469407L233.3302293383071,653.8829899961097L234.30432154648764,653.8829899961097L238.20069037921007,654.5979550037141L240.63592089966141,654.5979550037141L247.45456635692585,656.0275230522229L252.81207350191914,658.1709710831828L253.78616571009962,661.0272166925452L254.27321181419023,663.8815398850102L261.0918572714543,668.1594282587066L268.39754883280904,671.0089616275422L270.8327793532603,670.2967574416848L280.08665533097644,660.3133356619705L283.4959780596082,661.7409775721076L285.93120858006,666.7339443721867L285.44416247596973,669.5844338566844L283.00893195551794,680.2567768779522L282.5218858514277,685.9377700143141L284.95711637187947,689.4845493178345L284.95711637187947,692.3198510056513L284.4700702677892,694.4450919594246L281.5076363667059,694.9835246761572L279.9900405065786,694.9835246761572ZM521.2911896753726,694.9835246761572L523.1226612720386,692.3198510056513L526.0449378965802,690.1935513826734L528.9672145211221,689.4845493178345L531.889491145664,688.7754293966682L543.578597643831,687.3568357585382L546,687.5037790527319L546,694.9835246761572ZM546,335.88801198704715L545.5267820601924,332.8855056520665L538.2210904988378,329.7916699985085L531.4024450415737,327.46971796603475L530.9153989374835,329.0178361443459L530.9153989374835,335.20430980158835L530.9153989374835,339.06599413292724L526.0449378965802,340.6096234198312L521.1744768556772,341.3812145601837L521.6615229597675,339.8378833029424L527.0190301047611,328.2438521593117L529.4542606252123,320.4957380628716L532.3765372497543,307.28925111945046L528.9672145211221,296.38028470450354L527.9931223129416,291.6958205006845L526.5319840006708,288.5697673311711L516.7910619188644,283.87605922153807L515.8169697106839,281.5271177097161L517.2781080229547,274.4719172329528L516.7910619188644,271.332228497522L514.3558313984131,268.1900437375448L511.43355477387104,261.89816527151606L509.9724164616003,256.384531486181L513.868785294323,250.07378061165264L514.8428775025034,245.3340745708092L516.7910619188644,239.0055752205608L518.2522002311356,235.83750297311826L518.2522002311356,235.04508581958862L515.8169697106839,232.6668751955899L514.8428775025034,228.6999885617256L515.8169697106839,223.9344278775552L514.3558313984131,219.95870095499276L510.94650866978077,217.5713285456909L508.51127814932914,214.3859015966582L507.5371859411486,210.40047207066937L508.51127814932914,204.01533361697238L510.94650866978077,195.21871250463255L505.58900152478753,184.79710018095375L491.4646645061685,172.73745505378292L484.64601904890446,163.86991684170926L485.1330651529947,159.02454185830584L488.0553417775367,154.9821085885137L493.4128489225299,150.93546260746552L497.30921775525235,143.6408477412242L499.7444482757037,135.51958836115045L499.7444482757037,133.8932911215552L499.7444482757037,127.3812598118302L493.8998950266202,102.8629350781207L492.4387567143494,96.29830880438885L491.9517106102591,88.89970112449055L491.4646645061685,87.25363220574627L504.1278632125164,92.18972736746218L508.9983242534194,95.47694324158056L508.51127814932914,92.18972736746218L507.5371859411486,88.89970112449055L508.0242320452389,84.7832069283927L507.5371859411486,78.18763274771618L496.3351255470718,74.88559404587068L489.0294339857172,74.05964044818393L488.0553417775367,69.92720408259129L489.0294339857172,66.61804710994011L490.97761840207824,68.27298248132274L498.2833099634329,69.10018245453102L516.3040158147742,60.82014110265118L546,49.747881791491146L546,335.88801198704715ZM5,148.06177144947722L9.776067560856973,144.45203839990472L14.646528601759996,133.8932911215552L19.51698964266302,129.01029546510426L38.02474159809486,119.22577002122853L48.25270978399112,115.95874820613108L63.838185114881014,115.95874820613108L75.04024550895781,113.50666659365834L88.67753642348629,113.50666659365834L94.03504356847992,119.22577002122853L96.95732019302147,123.30566585223141L101.82778123392444,125.7515377110426L109.62051889936947,127.3812598118302L109.1334727952792,136.33248089834342L109.1334727952792,153.36395635285226L108.64642669118894,155.7909318987622L105.23710396255672,163.06277366779614L101.34073512983417,175.95701197145854L100.36664292165369,183.99428363712877L99.39255071347316,185.59975150897253L85.26821369485447,185.59975150897253L83.32002927849305,187.20455886867285L82.83298317440278,188.80870641778392L83.32002927849305,191.21369212879745L83.32002927849305,193.61719720221208L81.85889096622225,195.21871250463255L82.83298317440278,197.61975507998113L85.26821369485447,200.8188521236948L89.65162863166717,203.2164581486245L94.52208967257013,203.2164581486245L96.95732019302147,202.41741946792854L98.90550460938289,204.81404595933873L100.85368902574396,208.80516380011204L100.36664292165369,212.79221641180402L99.87959681756342,218.36728090207862L97.44436629711174,223.9344278775552L91.11276694393797,230.28722405989083L88.19049031939602,231.87381831947687L85.26821369485447,233.45977201488859L83.80707538258332,235.04508581958862L83.32002927849305,236.62976040609374L83.32002927849305,239.0055752205608L88.19049031939602,243.7529037049767L88.19049031939602,244.54356853822674L86.72935200712527,247.7046406970071L84.78116759076386,250.07378061165264L72.60501498850658,254.80779076425506L67.73455394760305,254.80779076425506L64.81227732306155,257.1726654695349L63.838185114881014,257.1726654695349L60.91590849033901,254.80779076425506L53.61021692898436,252.44149655540468L51.17498640853307,253.23041915194653L49.71384809626193,254.80779076425506L44.8433870553589,256.384531486181L41.92111043081735,259.536122897935L41.92111043081735,262.68519865614417L47.278617575810586,272.1173844803052L49.71384809626193,273.68722876676793L49.71384809626193,276.8250488971539L52.14907861671355,281.5271177097161L55.0713552412555,287.005815716906L55.55840134534577,290.13310204553636L55.0713552412555,293.25792333642494L53.61021692898436,297.94054451207694L48.73975588808139,309.62299529849815L48.73975588808139,311.95537074767935L49.22680199217166,313.509528356396L50.687940304442805,313.509528356396L52.14907861671355,315.06307921159896L51.66203251262334,316.61602394010833L42.40815653490762,324.3716775611624L41.43406432672674,325.14641336220575L37.53769549400465,325.14641336220575L37.05064938991393,326.6954334870834L37.53769549400465,328.2438521593117L38.9988338062754,330.5653537991193L42.40815653490762,331.33888762344577L44.8433870553589,332.8855056520665L47.278617575810586,336.7494315374165L44.35634095126869,350.62871588378584L44.35634095126869,350.62871588378584L38.9988338062754,349.8589065064393L33.64132666128211,349.8589065064393L30.719050036740157,349.8589065064393L28.283819516288418,348.3188434914291L26.822681204017613,345.23693829103377L25.361542891746808,342.1526568005438L25.361542891746808,340.6096234198312L30.23200393264989,334.43152470147515L31.206096140830425,332.8855056520665L30.719050036740157,332.1122715487081L31.206096140830425,329.7916699985085L34.61541886946259,321.271227620834L35.102464973552856,318.1683631678834L33.64132666128211,315.83962730254825L31.206096140830425,314.28637958899026L23.413358475385394,311.95537074767935L20.00403574675323,308.06731805806294L18.055851330392215,304.9541360841804L16.107666914031142,304.17545940289483L13.67243639357946,305.7326602113949L7.340837040405631,306.5110318635152L5,305.83078278317123L5,148.06177144947722ZM55.0713552412555,110.23479931175962L53.12317082489409,109.41639880765706L53.61021692898436,108.59782464249201L60.42886238624874,106.14105924100659L62.86409290670008,106.96015495319352ZM28.770865620378686,110.23479931175962L38.02474159809486,110.23479931175962L40.94701822263647,111.05302624865362L40.94701822263647,111.87107971213345L30.23200393264989,113.50666659365834L26.335635099927345,111.87107971213345L25.848588995837076,111.05302624865362ZM5,116.5213774381289L13.185390289489192,114.32420019893925L13.185390289489192,114.32420019893925L20.49108185084384,112.68895979591753L21.952220163114646,113.50666659365834L8.314929248586168,118.40927360920796L5,118.91447645156013L5,116.5213774381289ZM85.26821369485447,96.29830880438885L88.19049031939602,96.29830880438885L84.29412148667359,100.40251093466486L79.42366044577062,100.40251093466486L80.88479875804171,97.94051450858205ZM51.17498640853307,404.1519157916141L50.687940304442805,406.4299519267647L50.687940304442805,410.98217653857364L52.14907861671355,416.2866387318322L55.55840134534577,420.8277956244251L58.48067796988738,424.60820901738L62.37704680260981,427.6300038825634L68.70864615578404,430.6495495875288L71.14387667623532,430.6495495875288L71.14387667623532,434.42082574667256L70.65683057214505,438.1886035136031L68.70864615578404,440.44759460949945L66.76046173942251,443.45763184727184L65.29932342715182,447.21704934180934L63.35113901079035,454.7254873198458L63.35113901079035,459.97317594515744L59.4547701780682,457.72499329539914L57.99363186579711,456.22551612523466L54.584309137164894,456.22551612523466L51.17498640853307,456.97532363010987L48.73975588808139,459.97317594515744L45.33043315944917,460.72229494328803L42.40815653490762,459.97317594515744L40.94701822263647,457.72499329539914L39.48587991036567,456.97532363010987L35.102464973552856,455.47557071156643L33.1542805571915,452.4744085831762L34.61541886946259,451.72377258581764L36.07655718173339,449.47103436562793L37.05064938991393,446.4654436078772L38.02474159809486,443.45763184727184L34.128372765372376,436.68191164974405L33.1542805571915,434.42082574667256L29.74495782855962,429.89487377177966L29.74495782855962,428.38510099017503L30.719050036740157,426.1193878789745L30.23200393264989,424.60820901738L30.719050036740157,420.8277956244251L33.1542805571915,417.04385190195717L34.61541886946259,413.25636891126805L37.53769549400465,407.18901205259453L43.382248743088155,399.5919860937274L47.765663679900854,401.11253480729147L49.22680199217166,401.11253480729147L50.687940304442805,403.39228491946415ZM238.20069037921007,654.5979550037141L234.30432154648764,653.8829899961097L233.3302293383071,653.8829899961097L232.84318323421684,651.0219220469407L233.3302293383071,645.2939759598084L235.7654598587584,637.4053537430354L236.25250596284866,638.8407451635371L236.25250596284866,640.275648711644L236.73955206693927,642.4270903077695L237.22659817102954,644.5774368495199L237.7136442751198,646.7266899281904L239.66182869148088,648.8748511321733L240.14887479557115,650.3063527875142L239.1747825873906,653.1679042550859ZM264.5595267239405,694.9835246761572L265.9623183123573,690.9024356478421L268.39754883280904,689.4845493178345L271.8068715614412,688.7754293966682L275.7032403941637,693.7367958438717L279.9900405065786,694.9835246761572L264.5595267239405,694.9835246761572ZM281.5076363667059,694.9835246761572L284.4700702677892,694.4450919594246L284.95711637187947,692.3198510056513L284.95711637187947,689.4845493178345L282.5218858514277,685.9377700143141L283.00893195551794,680.2567768779522L285.44416247596973,669.5844338566844L286.90530078824054,670.2967574416848L292.2628079332338,671.0089616275422L298.5944072864079,671.0089616275422L302.00373001504016,675.2796825833002L305.9000988477626,676.7023036487949L311.2576059927559,677.4134358297706L314.6669287213881,676.7023036487949L316.6151131377491,675.2796825833002L318.56329755411014,670.2967574416848L322.4596663868326,663.8815398850102L328.3042196359166,661.0272166925452L338.53218782181284,660.3133356619705L343.88969496680613,659.5993344223016L349.24720211179977,659.5993344223016L353.14357094452185,660.3133356619705L357.0399397772443,660.3133356619705L367.7549540672312,656.0275230522229L378.4699683572178,652.4526977222026L379.93110666948894,653.1679042550859L380.4181527735792,654.5979550037141L378.4699683572178,656.7421262098237L376.5217839408567,660.3133356619705L377.49587614903726,663.8815398850102L383.8274755022114,672.4330120321492L387.23679823084325,678.1244491859461L390.15907485538514,682.3880372054846L395.0295358962883,685.228059960401L401.8481813535526,686.6473619280814L407.2056884985459,686.6473619280814L413.0502417476294,688.7754293966682L432.53208591124184,693.0283822114438L442.2730079930478,693.7367958438717L450.0657456584928,694.4450919594246L452.19552447707326,694.9835246761572L281.5076363667059,694.9835246761572ZM262.33143536207336,4.412264580657393L262.55299558372553,8.239498312871092L257.6825345428221,14.117714119926404L253.78616571009962,18.310889795650837L268.8845949368993,16.634173493419894L270.3457332491701,20.824581367141036L272.78096376962174,24.173593020455883L280.5737014350667,21.6621101961141L300.54259170276896,32.53327680259463L312.7187443050267,27.519665357776375L316.12806703365885,26.683422479949513L318.56329755411014,35.87202913091005L315.6410209295686,45.038577843125495L304.9260066395817,55.013448303958285L307.3612371600334,61.648950572015565L310.7705598886656,62.47758081740267L320.99852807456193,61.648950572015565L336.5840034054518,67.4456040656014L339.9933261340836,65.79031151683694L353.14357094452185,51.69138007499214L358.50107808951554,48.36642536656973L375.5476917326762,46.70286360343334L378.4699683572178,41.707831150265974L385.28861381448223,35.87202913091005L389.6720287512949,30.02729457981377L400.38704304128146,19.148971268596142L411.5891034353586,20.824581367141036L417.9207027885325,23.336615921313296L424.73934824579686,24.173593020455883L431.5579937030613,35.87202913091005L447.63051513804106,49.197934997278026L462.7289443648407,48.36642536656973L468.08645150983403,59.99115231130327L470.034635926195,75.71136997791609L474.9050969670984,80.66230000681435L478.80146579982056,83.13537435887474L490.97761840207824,86.43033346232505L491.4646645061685,87.25363220574627L491.9517106102591,88.89970112449055L492.4387567143494,96.29830880438885L493.8998950266202,102.8629350781207L499.7444482757037,127.3812598118302L499.7444482757037,133.8932911215552L499.7444482757037,135.51958836115045L497.30921775525235,143.6408477412242L493.4128489225299,150.93546260746552L488.0553417775367,154.9821085885137L485.1330651529947,159.02454185830584L484.64601904890446,163.86991684170926L491.4646645061685,172.73745505378292L505.58900152478753,184.79710018095375L510.94650866978077,195.21871250463255L508.51127814932914,204.01533361697238L507.5371859411486,210.40047207066937L508.51127814932914,214.3859015966582L510.94650866978077,217.5713285456909L514.3558313984131,219.95870095499276L515.8169697106839,223.9344278775552L514.8428775025034,228.6999885617256L515.8169697106839,232.6668751955899L518.2522002311356,235.04508581958862L518.2522002311356,235.83750297311826L516.7910619188644,239.0055752205608L514.8428775025034,245.3340745708092L513.868785294323,250.07378061165264L509.9724164616003,256.384531486181L511.43355477387104,261.89816527151606L514.3558313984131,268.1900437375448L516.7910619188644,271.332228497522L517.2781080229547,274.4719172329528L515.8169697106839,281.5271177097161L516.7910619188644,283.87605922153807L526.5319840006708,288.5697673311711L527.9931223129416,291.6958205006845L528.9672145211221,296.38028470450354L532.3765372497543,307.28925111945046L529.4542606252123,320.4957380628716L527.0190301047611,328.2438521593117L521.6615229597675,339.8378833029424L521.1744768556772,341.3812145601837L520.6874307515869,342.1526568005438L519.2262924393161,344.4660908862811L516.7910619188644,344.4660908862811L513.3817391902321,342.92395021739685L510.94650866978077,341.3812145601837L511.43355477387104,335.9769453879362L509.9724164616003,335.9769453879362L508.0242320452389,332.8855056520665L507.05013983705834,329.7916699985085L505.10195542069727,328.2438521593117L497.30921775525235,326.6954334870834L494.8739872348007,325.9209986449855L492.92580281843965,326.6954334870834L491.4646645061685,329.0178361443459L492.4387567143494,330.5653537991193L493.8998950266202,332.8855056520665L497.7962638593426,335.9769453879362L497.30921775525235,337.5217683268852L488.54238788162695,340.6096234198312L482.697834632543,344.4660908862811L477.34032748754976,346.0076371777177L471.98282034255647,349.0889490676477L461.26780605256954,352.93725640611046L453.475068387125,354.47554450432335L452.0139300748539,355.2444671055896L449.09165345031226,361.390543139034L447.1434690339508,362.92559136214777L445.1952846175897,362.15814067697556L443.73414630531863,361.390543139034L441.78596188895756,362.15814067697556L439.83777747259614,364.46005247457106L437.88959305623507,365.2270630518974L436.42845474396427,365.2270630518974L433.0191320153321,370.59203781117503L424.2523021417066,372.88912077455007L423.27820993352606,375.1848914857319L421.8170716212549,379.00826533978307L420.3559333089841,379.7725041785998L416.4595644762617,378.2438812891028L410.6150112271782,377.479351952496L407.69273460263616,379.7725041785998L403.7963657699137,380.5365978795735L398.9259047290107,380.5365978795735L393.5683975840175,384.3548919038394L388.6979365431144,391.21871155092003L385.77565991857244,396.549169316786L384.3145216063017,398.83149692736015L381.87929108585,393.5040561883966L378.95701446130806,389.6944284137039L376.5217839408567,387.4069221734344L374.57359952449525,387.4069221734344L374.08655342040504,388.1695685559703L374.08655342040504,391.21871155092003L376.03473783676645,395.7881064999574L378.95701446130806,398.83149692736015L378.95701446130806,401.8725944998346L380.4181527735792,405.67074922287793L384.3145216063017,410.2238282199705L390.15907485538514,414.014149080911L394.05544368810774,417.8009235014465L396.97772031264964,423.09646672888675L396.97772031264964,424.60820901738L396.0036281044687,426.1193878789745L395.0295358962883,428.38510099017503L393.5683975840175,430.6495495875288L390.6461209594754,435.9283561667976L391.62021316765595,438.1886035136031L394.05544368810774,441.20031280255444L396.49067420855897,444.20979325093003L399.4129508331009,449.47103436562793L403.3093196658234,459.223919383825L406.23159629036536,462.9688272481044L409.6409190189972,466.71030292189016L413.53728785171967,470.4483549947586L418.89479499671336,469.7010180568918L424.73934824579686,475.675892543647L431.07094759897063,484.6218802523126L435.941408639874,488.3436177350641L438.8636852644156,489.0875600432996L441.78596188895756,492.06198089260806L444.2211924094089,496.519574402088L445.1952846175897,499.488617817623L447.1434690339508,500.9723354517455L452.98802228303475,500.9723354517455L460.293713844389,507.64244767916307L465.164174885292,512.8228489995004L467.59940540574377,516.5191511058688L467.1123593016535,517.9967443716719L466.62531319756323,523.1641563574785L466.62531319756323,528.3251074183681L466.13826709347296,531.2713300966329L462.7289443648407,534.9511582971963L460.7807599484793,535.6867312324662L459.8066677402988,536.4221734170897L449.57869955440253,532.007557755845L449.09165345031226,532.7436543407057L448.11756124213133,532.7436543407057L445.68233072168,546.7046712956435L443.73414630531863,549.6378478465463L440.811869680777,551.8363699722004L434.9673164316932,554.7659223651372L431.07094759897063,555.4979875948657L427.66162487033876,556.961731057218L417.9207027885325,562.811554249306L413.53728785171967,565.7333825391538L410.6150112271782,570.1122821972372L410.6150112271782,573.0289926528926L415.48547226808114,580.311852081637L420.8429794130744,587.5820232276387L420.8429794130744,594.8395681050893L418.4077488926231,599.1880600764321L417.9207027885325,601.3606139798576L419.3818411008036,602.084548343485L422.7911638294358,602.084548343485L425.2263943498871,603.5320420309868L426.2004865580676,607.1485913637016L426.2004865580676,612.928593879587L425.2263943498871,618.7006525775128L424.2523021417066,620.8631328846695L421.8170716212549,620.8631328846695L416.94661058035194,618.7006525775128L413.0502417476294,615.815614271155L411.5891034353586,614.3723520774779L411.5891034353586,612.2065286279385L412.56319564353913,610.7620255166735L411.1020573312684,607.8715271655342L406.23159629036536,605.7023458778754L401.36113524946234,606.4255309547525L397.9518125208302,608.59433842103L395.51658200037843,607.8715271655342L393.0813514799272,605.7023458778754L389.1849826472046,604.2556014769002L383.8274755022114,602.8083576735157L380.4181527735792,602.084548343485L379.93110666948894,602.8083576735157L380.4181527735792,607.1485913637016L379.4440605653987,609.317025190925L354.1176631527028,612.2065286279385L346.3249254872578,615.0940451446381L340.48037223817425,618.7006525775128L336.5840034054518,620.142429654537L335.6099111972709,622.3041690286927L331.22649626045813,625.1847617323847L326.84308132364544,625.9046020112596L325.38194301137463,625.1847617323847L322.4596663868326,626.6243192510665L317.58920534592966,628.06338485267L314.1798826172975,627.3439135116128L312.7187443050267,625.1847617323847L309.30942157639447,621.5837126560309L308.33532936821393,619.4216029055333L308.33532936821393,617.9795786102982L301.0296378068592,617.2583809436765L296.6462228700465,615.815614271155L287.3923468923308,615.815614271155L284.95711637187947,615.0940451446381L284.4700702677892,615.815614271155L283.00893195551794,625.9046020112596L281.060747539157,630.2210619560897L278.138470914615,633.8147376402121L274.24210208189254,636.6874749326403L270.8327793532603,636.6874749326403L271.31982545735093,633.8147376402121L271.8068715614412,630.2210619560897L269.85868714507984,629.5019590152269L266.44936441644757,628.7827333339737L264.50118000008655,628.06338485267L264.9882261041768,625.1847617323847L264.50118000008655,623.0245020626844L263.0400416878158,621.5837126560309L259.6307189591835,618.7006525775128L252.32502739782888,615.0940451446381L247.45456635692585,612.928593879587L245.50638194056484,615.0940451446381L242.09705921193256,617.2583809436765L236.73955206693927,616.5370595173904L235.27841375466812,617.2583809436765L235.27841375466812,617.2583809436765L226.02453777695234,611.4843391938189L216.77066179923668,605.7023458778754L213.84838517469473,605.7023458778754L200.69814036425646,606.4255309547525L200.2110942601662,606.4255309547525L197.7758637397149,602.8083576735157L195.8276793233535,602.084548343485L194.3665410110827,602.084548343485L193.87949490699242,603.5320420309868L192.41835659472122,603.5320420309868L186.08675724154745,597.7390645187334L183.65152672109576,597.0143786695744L180.2422039924636,597.7390645187334L176.34583515974145,600.6365545215572L174.88469684747037,604.2556014769002L175.37174295156058,606.4255309547525L177.319927367922,607.1485913637016L182.67743451291523,606.4255309547525L183.65152672109576,607.1485913637016L183.65152672109576,607.8715271655342L183.1644806170055,609.317025190925L178.7810656801928,610.0395875359168L177.319927367922,611.4843391938189L176.34583515974145,612.2065286279385L175.37174295156058,612.2065286279385L170.50128191065755,610.7620255166735L163.6826364533935,610.7620255166735L157.8380832043096,612.928593879587L149.0712533306841,614.3723520774779L136.4080546243361,613.650535009273L132.0246396875234,611.4843391938189L129.58940916707206,610.7620255166735L127.6412247507107,604.9790360722222L128.12827085480097,597.0143786695744L131.05054747934287,586.8555753153305L131.53759358343314,578.8562972497707L130.5635013752526,573.7578513438984L132.0246396875234,566.4635191178891L136.89510072842637,556.2299238043847L140.30442345705865,545.9710528537526L141.7655617693298,534.2154545466187L144.20079228978113,527.5882234136106L148.58420722659383,522.4263507348523L159.78626762067103,507.64244767916307L160.2733137247613,506.9018579297003L160.2733137247613,499.488617817623L157.3510371002194,498.7465580822318L152.9676221634066,496.519574402088L141.7655617693298,493.5483832277737L132.0246396875234,492.06198089260806L127.15417864662044,490.5750400102088L123.25780981389795,484.6218802523126L120.82257929344667,484.6218802523126L115.95211825254364,486.85532813247073L109.62051889936947,487.5995404539053L105.23710396255672,486.85532813247073L102.31482733801471,486.85532813247073L100.85368902574396,488.3436177350641L99.87959681756342,486.85532813247073L98.90550460938289,482.38721458073314L96.4702740889312,480.8967600141659L93.06095136029904,480.15132929212086L90.6257208398477,480.8967600141659L89.16458252757656,483.13223856070454L86.72935200712527,484.6218802523126L84.29412148667359,483.8771270953598L77.47547602940955,473.4363374148579L75.52729161304808,471.19555533114817L75.52729161304808,468.953544449143L73.57910719668706,464.46582889883666L69.1956922598743,460.72229494328803L65.29932342715182,459.223919383825L63.35113901079035,459.97317594515744L63.35113901079035,454.7254873198458L65.29932342715182,447.21704934180934L66.76046173942251,443.45763184727184L68.70864615578404,440.44759460949945L70.65683057214505,438.1886035136031L71.14387667623532,434.42082574667256L71.14387667623532,430.6495495875288L68.70864615578404,430.6495495875288L62.37704680260981,427.6300038825634L58.48067796988738,424.60820901738L55.55840134534577,420.8277956244251L52.14907861671355,416.2866387318322L50.687940304442805,410.98217653857364L50.687940304442805,406.4299519267647L51.17498640853307,404.1519157916141L51.17498640853307,402.6325111797091L54.097263033074626,394.26555000877715L64.32523121897128,387.4069221734344L63.35113901079035,380.5365978795735L62.86409290670008,375.94985712499965L60.42886238624874,372.88912077455007L55.55840134534577,372.1235723584914L54.097263033074626,369.82605153085115L53.61021692898436,367.5272157677168L57.506585761706845,363.69289526965713L53.12317082489409,359.8549072041287L51.17498640853307,356.78186979052725L44.8433870553589,352.16789075777524L44.35634095126869,350.62871588378584L47.278617575810586,336.7494315374165L44.8433870553589,332.8855056520665L42.40815653490762,331.33888762344577L38.9988338062754,330.5653537991193L37.53769549400465,328.2438521593117L37.05064938991393,326.6954334870834L37.53769549400465,325.14641336220575L41.43406432672674,325.14641336220575L42.40815653490762,324.3716775611624L51.66203251262334,316.61602394010833L52.14907861671355,315.06307921159896L50.687940304442805,313.509528356396L49.22680199217166,313.509528356396L48.73975588808139,311.95537074767935L48.73975588808139,309.62299529849815L53.61021692898436,297.94054451207694L55.0713552412555,293.25792333642494L55.55840134534577,290.13310204553636L55.0713552412555,287.005815716906L52.14907861671355,281.5271177097161L49.71384809626193,276.8250488971539L49.71384809626193,273.68722876676793L47.278617575810586,272.1173844803052L41.92111043081735,262.68519865614417L41.92111043081735,259.536122897935L44.8433870553589,256.384531486181L49.71384809626193,254.80779076425506L51.17498640853307,253.23041915194653L53.61021692898436,252.44149655540468L60.91590849033901,254.80779076425506L63.838185114881014,257.1726654695349L64.81227732306155,257.1726654695349L67.73455394760305,254.80779076425506L72.60501498850658,254.80779076425506L84.78116759076386,250.07378061165264L86.72935200712527,247.7046406970071L88.19049031939602,244.54356853822674L88.19049031939602,243.7529037049767L83.32002927849305,239.0055752205608L83.32002927849305,236.62976040609374L83.80707538258332,235.04508581958862L85.26821369485447,233.45977201488859L88.19049031939602,231.87381831947687L91.11276694393797,230.28722405989083L97.44436629711174,223.9344278775552L99.87959681756342,218.36728090207862L100.36664292165369,212.79221641180402L100.85368902574396,208.80516380011204L98.90550460938289,204.81404595933873L96.95732019302147,202.41741946792854L94.52208967257013,203.2164581486245L89.65162863166717,203.2164581486245L85.26821369485447,200.8188521236948L82.83298317440278,197.61975507998113L81.85889096622225,195.21871250463255L83.32002927849305,193.61719720221208L83.32002927849305,191.21369212879745L82.83298317440278,188.80870641778392L83.32002927849305,187.20455886867285L85.26821369485447,185.59975150897253L99.39255071347316,185.59975150897253L100.36664292165369,183.99428363712877L101.34073512983417,175.95701197145854L105.23710396255672,163.06277366779614L108.64642669118894,155.7909318987622L109.1334727952792,153.36395635285226L109.1334727952792,136.33248089834342L109.62051889936947,127.3812598118302L107.18528837891813,123.30566585223141L101.82778123392444,119.22577002122853L102.80187344210543,110.23479931175962L104.75005785846645,102.8629350781207L110.10756500345974,93.83368621940008L114.00393383618217,91.36748451719905L132.9987318957044,89.72247149119539L153.45466826749686,90.5450659235903L161.7344520370321,103.68272750449933L158.8121754124905,111.05302624865362L163.6826364533935,114.32420019893925L166.1178669738448,112.68895979591753L168.0660513902062,106.96015495319352L169.04014359838675,100.40251093466486L170.98832801474782,97.94051450858205L177.319927367922,102.8629350781207L179.75515788837333,106.96015495319352L179.75515788837333,117.59260456481707L182.19038840882502,102.8629350781207L180.2422039924636,92.18972736746218L181.70334230473475,82.31119307071003L184.13857282518603,77.36238923215842L186.5738033456377,73.23350908799694L201.672232572437,77.36238923215842L218.23180011150743,75.71136997791609L224.5633994646816,79.01269898435521L238.68773648330034,98.76135483981716L243.5581975242033,102.04296823734921L249.4027507732868,102.8629350781207L241.12296700375202,98.76135483981716L224.07635336059138,74.88559404587068L218.7188462155977,72.40719986838349L210.92610855015312,71.58071269233642L205.56860140515948,69.10018245453102L202.64632478061787,64.96239718871402L201.672232572437,62.47758081740267L202.1592786765276,38.37417891467476L198.74995594789544,34.20301796063268L194.85358711517296,33.36823868029251L192.90540269881149,35.037614744048824L187.54789555381825,35.037614744048824L186.5738033456377,29.19160130678074L188.03494165790852,25.01038641244304L197.7758637397149,22.49945501367347L204.59450919697895,19.148971268596142L204.59450919697895,12.439150066267302L200.69814036425646,7.3990114356547565L199.2579111412178,4.412264580657393L262.33143536207336,4.412264580657393ZM449.7299313511158,4.412264580657393L450.0657456584928,4.876435901263449L457.8584833239377,8.239498312871092L458.83257553211826,9.919915232833318L459.8066677402988,12.439150066267302L455.9102989075763,16.634173493419894L454.9362066993958,19.148971268596142L455.9102989075763,22.49945501367347L455.9102989075763,22.49945501367347L461.75485215666015,26.683422479949513L463.21599046893095,33.36823868029251L461.75485215666015,35.87202913091005L455.42325280348604,30.86280485298039L449.57869955440253,30.86280485298039L445.68233072168,39.20786471745805L443.24710020122836,39.20786471745805L433.5061781194224,31.698132227019414L432.04503980715157,28.35572493306381L432.04503980715157,25.84699619854382L433.0191320153321,14.95671870317301L433.0191320153321,11.599590391260335L435.941408639874,8.239498312871092L436.3108391947426,4.412264580657393L449.7299313511158,4.412264580657393ZM489.0294339857172,66.61804710994011L488.0553417775367,69.92720408259129L489.0294339857172,74.05964044818393L487.0812495693557,74.05964044818393L480.26260411209165,74.88559404587068L473.44395865482727,73.23350908799694L472.46986644664673,67.4456040656014L473.44395865482727,62.47758081740267L470.5216820302857,59.16198409989056L468.08645150983403,56.67340196337318L467.59940540574377,53.35277460417001L468.08645150983403,50.02926392624477L479.7755580080014,59.16198409989056ZM320.0244358663814,12.439150066267302L327.8171735318263,15.79553846030376L330.2524040522776,21.6621101961141L330.73945015636787,23.336615921313296L321.97262028274247,23.336615921313296L319.05034365820086,19.986868425183275L315.6410209295686,19.148971268596142L317.58920534592966,14.117714119926404ZM5,441.113622043951L5.392652624044331,441.20031280255444L6.853790936315022,443.45763184727184L9.776067560856973,445.7136990613212L14.159482497669728,450.97299826346534L18.055851330392215,454.7254873198458L20.00403574675323,454.7254873198458L23.413358475385394,453.22490632501876L28.770865620378686,452.4744085831762L33.1542805571915,452.4744085831762L35.102464973552856,455.47557071156643L39.48587991036567,456.97532363010987L40.94701822263647,457.72499329539914L42.40815653490762,459.97317594515744L45.33043315944917,460.72229494328803L48.73975588808139,459.97317594515744L51.17498640853307,456.97532363010987L54.584309137164894,456.22551612523466L57.99363186579711,456.22551612523466L59.4547701780682,457.72499329539914L63.35113901079035,459.97317594515744L65.29932342715182,459.223919383825L69.1956922598743,460.72229494328803L73.57910719668706,464.46582889883666L75.52729161304808,468.953544449143L75.52729161304808,471.19555533114817L77.47547602940955,473.4363374148579L84.29412148667359,483.8771270953598L86.72935200712527,484.6218802523126L89.16458252757656,483.13223856070454L90.6257208398477,480.8967600141659L93.06095136029904,480.15132929212086L96.4702740889312,480.8967600141659L98.90550460938289,482.38721458073314L99.87959681756342,486.85532813247073L100.85368902574396,488.3436177350641L102.31482733801471,486.85532813247073L105.23710396255672,486.85532813247073L109.62051889936947,487.5995404539053L115.95211825254364,486.85532813247073L120.82257929344667,484.6218802523126L123.25780981389795,484.6218802523126L127.15417864662044,490.5750400102088L132.0246396875234,492.06198089260806L141.7655617693298,493.5483832277737L152.9676221634066,496.519574402088L157.3510371002194,498.7465580822318L160.2733137247613,499.488617817623L160.2733137247613,506.9018579297003L159.78626762067103,507.64244767916307L148.58420722659383,522.4263507348523L144.20079228978113,527.5882234136106L141.7655617693298,534.2154545466187L140.30442345705865,545.9710528537526L136.89510072842637,556.2299238043847L132.0246396875234,566.4635191178891L130.5635013752526,573.7578513438984L131.53759358343314,578.8562972497707L131.05054747934287,586.8555753153305L128.12827085480097,597.0143786695744L127.6412247507107,604.9790360722222L129.58940916707206,610.7620255166735L132.0246396875234,611.4843391938189L132.0246396875234,611.4843391938189L125.69304033434963,615.0940451446381L124.23190202207883,618.7006525775128L121.30962539753693,623.0245020626844L117.41325656481445,624.464798354591L113.02984162800163,625.1847617323847L109.62051889936947,624.464798354591L107.6723344830084,623.0245020626844L108.15938058709867,621.5837126560309L106.21119617073725,620.142429654537L101.82778123392444,620.142429654537L96.95732019302147,623.0245020626844L93.54799746438931,628.06338485267L94.52208967257013,630.2210619560897L97.93141240120201,630.9400422161907L98.90550460938289,632.3776349324271L98.90550460938289,633.0962475076303L97.44436629711174,635.2513508152447L95.98322798484094,638.1231104669268L89.16458252757656,646.0103936330897L81.85889096622225,654.5979550037141L80.88479875804171,656.7421262098237L78.44956823759009,658.8852129154247L69.1956922598743,663.1681391103466L68.22160005169377,665.3079817351368L67.73455394760305,672.4330120321492L66.76046173942251,678.1244491859461L59.94181628215847,684.5182317094777L53.12317082489409,690.1935513826734L51.66203251262334,693.0283822114438L50.98965743335626,694.9835246761572L5,694.9835246761572ZM546,500.1104000710037L545.5267820601924,500.2305435852395L542.6045054356505,501.7139934837628L540.1692749151993,501.7139934837628L539.1951827070184,500.2305435852395L535.2988138742962,497.2620364412355L531.4024450415737,497.2620364412355L529.9413067293026,498.7465580822318L528.9672145211221,511.3433991979955L527.5060762088514,515.7801558380365L522.1485690638577,515.7801558380365L520.2003846474967,517.9967443716719L515.8169697106839,524.6393721017175L514.8428775025034,530.5349712982065L507.5371859411486,529.0618600240387L504.1278632125164,528.3251074183681L500.71854048388457,529.0618600240387L497.30921775525235,532.007557755845L487.5682956734464,532.007557755845L480.26260411209165,529.7984812956561L476.8532813834595,522.4263507348523L473.44395865482727,519.4738083820703L469.06054371801446,517.258013928516L467.59940540574377,516.5191511058688L465.164174885292,512.8228489995004L460.293713844389,507.64244767916307L452.98802228303475,500.9723354517455L447.1434690339508,500.9723354517455L445.1952846175897,499.488617817623L444.2211924094089,496.519574402088L441.78596188895756,492.06198089260806L438.8636852644156,489.0875600432996L435.941408639874,488.3436177350641L431.07094759897063,484.6218802523126L424.73934824579686,475.675892543647L418.89479499671336,469.7010180568918L413.53728785171967,470.4483549947586L409.6409190189972,466.71030292189016L406.23159629036536,462.9688272481044L403.3093196658234,459.223919383825L399.4129508331009,449.47103436562793L396.49067420855897,444.20979325093003L394.05544368810774,441.20031280255444L391.62021316765595,438.1886035136031L390.6461209594754,435.9283561667976L393.5683975840175,430.6495495875288L395.0295358962883,428.38510099017503L396.0036281044687,426.1193878789745L396.97772031264964,424.60820901738L396.97772031264964,423.09646672888675L394.05544368810774,417.8009235014465L390.15907485538514,414.014149080911L384.3145216063017,410.2238282199705L380.4181527735792,405.67074922287793L378.95701446130806,401.8725944998346L378.95701446130806,398.83149692736015L376.03473783676645,395.7881064999574L374.08655342040504,391.21871155092003L374.08655342040504,388.1695685559703L374.57359952449525,387.4069221734344L376.5217839408567,387.4069221734344L378.95701446130806,389.6944284137039L381.87929108585,393.5040561883966L384.3145216063017,398.83149692736015L385.77565991857244,396.549169316786L388.6979365431144,391.21871155092003L393.5683975840175,384.3548919038394L398.9259047290107,380.5365978795735L403.7963657699137,380.5365978795735L407.69273460263616,379.7725041785998L410.6150112271782,377.479351952496L416.4595644762617,378.2438812891028L420.3559333089841,379.7725041785998L421.8170716212549,379.00826533978307L423.27820993352606,375.1848914857319L424.2523021417066,372.88912077455007L433.0191320153321,370.59203781117503L436.42845474396427,365.2270630518974L437.88959305623507,365.2270630518974L439.83777747259614,364.46005247457106L441.78596188895756,362.15814067697556L443.73414630531863,361.390543139034L445.1952846175897,362.15814067697556L447.1434690339508,362.92559136214777L449.09165345031226,361.390543139034L452.0139300748539,355.2444671055896L453.475068387125,354.47554450432335L461.26780605256954,352.93725640611046L471.98282034255647,349.0889490676477L477.34032748754976,346.0076371777177L482.697834632543,344.4660908862811L488.54238788162695,340.6096234198312L497.30921775525235,337.5217683268852L497.7962638593426,335.9769453879362L493.8998950266202,332.8855056520665L492.4387567143494,330.5653537991193L491.4646645061685,329.0178361443459L492.92580281843965,326.6954334870834L494.8739872348007,325.9209986449855L497.30921775525235,326.6954334870834L505.10195542069727,328.2438521593117L507.05013983705834,329.7916699985085L508.0242320452389,332.8855056520665L509.9724164616003,335.9769453879362L511.43355477387104,335.9769453879362L510.94650866978077,341.3812145601837L513.3817391902321,342.92395021739685L516.7910619188644,344.4660908862811L519.2262924393161,344.4660908862811L520.6874307515869,342.1526568005438L521.1744768556772,341.3812145601837L526.0449378965802,340.6096234198312L530.9153989374835,339.06599413292724L530.9153989374835,335.20430980158835L530.9153989374835,329.0178361443459L531.4024450415737,327.46971796603475L538.2210904988378,329.7916699985085L545.5267820601924,332.8855056520665L546,335.88801198704715L546,500.1104000710037ZM5,305.83078278317123L7.340837040405631,306.5110318635152L13.67243639357946,305.7326602113949L16.107666914031142,304.17545940289483L18.055851330392215,304.9541360841804L20.00403574675323,308.06731805806294L23.413358475385394,311.95537074767935L31.206096140830425,314.28637958899026L33.64132666128211,315.83962730254825L35.102464973552856,318.1683631678834L34.61541886946259,321.271227620834L31.206096140830425,329.7916699985085L30.719050036740157,332.1122715487081L31.206096140830425,332.8855056520665L30.23200393264989,334.43152470147515L25.361542891746808,340.6096234198312L25.361542891746808,342.1526568005438L26.822681204017613,345.23693829103377L28.283819516288418,348.3188434914291L30.719050036740157,349.8589065064393L33.64132666128211,349.8589065064393L38.9988338062754,349.8589065064393L44.35634095126869,350.62871588378584L44.8433870553589,352.16789075777524L51.17498640853307,356.78186979052725L53.12317082489409,359.8549072041287L57.506585761706845,363.69289526965713L53.61021692898436,367.5272157677168L54.097263033074626,369.82605153085115L55.55840134534577,372.1235723584914L60.42886238624874,372.88912077455007L62.86409290670008,375.94985712499965L63.35113901079035,380.5365978795735L64.32523121897128,387.4069221734344L54.097263033074626,394.26555000877715L51.17498640853307,402.6325111797091L51.17498640853307,404.1519157916141L50.687940304442805,403.39228491946415L49.22680199217166,401.11253480729147L47.765663679900854,401.11253480729147L43.382248743088155,399.5919860937274L37.53769549400465,407.18901205259453L34.61541886946259,413.25636891126805L33.1542805571915,417.04385190195717L30.719050036740157,420.8277956244251L30.23200393264989,424.60820901738L30.719050036740157,426.1193878789745L29.74495782855962,428.38510099017503L29.74495782855962,429.89487377177966L33.1542805571915,434.42082574667256L34.128372765372376,436.68191164974405L38.02474159809486,443.45763184727184L37.05064938991393,446.4654436078772L36.07655718173339,449.47103436562793L34.61541886946259,451.72377258581764L33.1542805571915,452.4744085831762L28.770865620378686,452.4744085831762L23.413358475385394,453.22490632501876L20.00403574675323,454.7254873198458L18.055851330392215,454.7254873198458L14.159482497669728,450.97299826346534L9.776067560856973,445.7136990613212L6.853790936315022,443.45763184727184L5.392652624044331,441.20031280255444L5,441.113622043951L5,305.83078278317123ZM546,687.5037790527319L543.578597643831,687.3568357585382L531.889491145664,688.7754293966682L528.9672145211221,689.4845493178345L526.0449378965802,690.1935513826734L523.1226612720386,692.3198510056513L521.2911896753726,694.9835246761572L452.19552447707326,694.9835246761572L452.19552447707326,694.9835246761572L450.0657456584928,694.4450919594246L442.2730079930478,693.7367958438717L432.53208591124184,693.0283822114438L413.0502417476294,688.7754293966682L407.2056884985459,686.6473619280814L401.8481813535526,686.6473619280814L395.0295358962883,685.228059960401L390.15907485538514,682.3880372054846L387.23679823084325,678.1244491859461L383.8274755022114,672.4330120321492L377.49587614903726,663.8815398850102L376.5217839408567,660.3133356619705L378.4699683572178,656.7421262098237L380.4181527735792,654.5979550037141L379.93110666948894,653.1679042550859L378.4699683572178,652.4526977222026L367.7549540672312,656.0275230522229L357.0399397772443,660.3133356619705L353.14357094452185,660.3133356619705L349.24720211179977,659.5993344223016L343.88969496680613,659.5993344223016L338.53218782181284,660.3133356619705L328.3042196359166,661.0272166925452L322.4596663868326,663.8815398850102L318.56329755411014,670.2967574416848L316.6151131377491,675.2796825833002L314.6669287213881,676.7023036487949L311.2576059927559,677.4134358297706L305.9000988477626,676.7023036487949L302.00373001504016,675.2796825833002L298.5944072864079,671.0089616275422L292.2628079332338,671.0089616275422L286.90530078824054,670.2967574416848L285.44416247596973,669.5844338566844L285.93120858006,666.7339443721867L283.4959780596082,661.7409775721076L280.08665533097644,660.3133356619705L270.8327793532603,670.2967574416848L268.39754883280904,671.0089616275422L261.0918572714543,668.1594282587066L254.27321181419023,663.8815398850102L253.78616571009962,661.0272166925452L252.81207350191914,658.1709710831828L247.45456635692585,656.0275230522229L240.63592089966141,654.5979550037141L238.20069037921007,654.5979550037141L239.1747825873906,653.1679042550859L240.14887479557115,650.3063527875142L239.66182869148088,648.8748511321733L237.7136442751198,646.7266899281904L237.22659817102954,644.5774368495199L236.73955206693927,642.4270903077695L236.25250596284866,640.275648711644L236.25250596284866,638.8407451635371L235.7654598587584,637.4053537430354L235.7654598587584,637.4053537430354L240.14887479557115,628.06338485267L240.63592089966141,621.5837126560309L236.73955206693927,618.7006525775128L235.27841375466812,617.2583809436765L236.73955206693927,616.5370595173904L242.09705921193256,617.2583809436765L245.50638194056484,615.0940451446381L247.45456635692585,612.928593879587L252.32502739782888,615.0940451446381L259.6307189591835,618.7006525775128L263.0400416878158,621.5837126560309L264.50118000008655,623.0245020626844L264.9882261041768,625.1847617323847L264.50118000008655,628.06338485267L266.44936441644757,628.7827333339737L269.85868714507984,629.5019590152269L271.8068715614412,630.2210619560897L271.31982545735093,633.8147376402121L270.8327793532603,636.6874749326403L274.24210208189254,636.6874749326403L278.138470914615,633.8147376402121L281.060747539157,630.2210619560897L283.00893195551794,625.9046020112596L284.4700702677892,615.815614271155L284.95711637187947,615.0940451446381L287.3923468923308,615.815614271155L296.6462228700465,615.815614271155L301.0296378068592,617.2583809436765L308.33532936821393,617.9795786102982L308.33532936821393,619.4216029055333L309.30942157639447,621.5837126560309L312.7187443050267,625.1847617323847L314.1798826172975,627.3439135116128L317.58920534592966,628.06338485267L322.4596663868326,626.6243192510665L325.38194301137463,625.1847617323847L326.84308132364544,625.9046020112596L331.22649626045813,625.1847617323847L335.6099111972709,622.3041690286927L336.5840034054518,620.142429654537L340.48037223817425,618.7006525775128L346.3249254872578,615.0940451446381L354.1176631527028,612.2065286279385L379.4440605653987,609.317025190925L380.4181527735792,607.1485913637016L379.93110666948894,602.8083576735157L380.4181527735792,602.084548343485L383.8274755022114,602.8083576735157L389.1849826472046,604.2556014769002L393.0813514799272,605.7023458778754L395.51658200037843,607.8715271655342L397.9518125208302,608.59433842103L401.36113524946234,606.4255309547525L406.23159629036536,605.7023458778754L411.1020573312684,607.8715271655342L412.56319564353913,610.7620255166735L411.5891034353586,612.2065286279385L411.5891034353586,614.3723520774779L413.0502417476294,615.815614271155L416.94661058035194,618.7006525775128L421.8170716212549,620.8631328846695L424.2523021417066,620.8631328846695L425.2263943498871,618.7006525775128L426.2004865580676,612.928593879587L426.2004865580676,607.1485913637016L425.2263943498871,603.5320420309868L422.7911638294358,602.084548343485L419.3818411008036,602.084548343485L417.9207027885325,601.3606139798576L418.4077488926231,599.1880600764321L420.8429794130744,594.8395681050893L420.8429794130744,587.5820232276387L415.48547226808114,580.311852081637L410.6150112271782,573.0289926528926L410.6150112271782,570.1122821972372L413.53728785171967,565.7333825391538L417.9207027885325,562.811554249306L427.66162487033876,556.961731057218L431.07094759897063,555.4979875948657L434.9673164316932,554.7659223651372L440.811869680777,551.8363699722004L443.73414630531863,549.6378478465463L445.68233072168,546.7046712956435L448.11756124213133,532.7436543407057L449.09165345031226,532.7436543407057L449.57869955440253,532.007557755845L459.8066677402988,536.4221734170897L460.7807599484793,535.6867312324662L462.7289443648407,534.9511582971963L466.13826709347296,531.2713300966329L466.62531319756323,528.3251074183681L466.62531319756323,523.1641563574785L467.1123593016535,517.9967443716719L467.59940540574377,516.5191511058688L469.06054371801446,517.258013928516L473.44395865482727,519.4738083820703L476.8532813834595,522.4263507348523L480.26260411209165,529.7984812956561L487.5682956734464,532.007557755845L497.30921775525235,532.007557755845L500.71854048388457,529.0618600240387L504.1278632125164,528.3251074183681L507.5371859411486,529.0618600240387L514.8428775025034,530.5349712982065L515.8169697106839,524.6393721017175L520.2003846474967,517.9967443716719L522.1485690638577,515.7801558380365L527.5060762088514,515.7801558380365L528.9672145211221,511.3433991979955L529.9413067293026,498.7465580822318L531.4024450415737,497.2620364412355L535.2988138742962,497.2620364412355L539.1951827070184,500.2305435852395L540.1692749151993,501.7139934837628L542.6045054356505,501.7139934837628L545.5267820601924,500.2305435852395L546,500.1104000710037L546,687.5037790527319Z" style="fill: none; stroke-miterlimit: 2; stroke: rgb(0, 0, 0); stroke-opacity: 1; stroke-width: 1px;"/></g><g class="layer coastlines"><path d="M55.0713552412555,110.23479931175962L62.86409290670008,106.96015495319352L60.42886238624874,106.14105924100659L53.61021692898436,108.59782464249201L53.12317082489409,109.41639880765706L55.0713552412555,110.23479931175962M28.770865620378686,110.23479931175962L25.848588995837076,111.05302624865362L26.335635099927345,111.87107971213345L30.23200393264989,113.50666659365834L40.94701822263647,111.87107971213345L40.94701822263647,111.05302624865362L38.02474159809486,110.23479931175962L28.770865620378686,110.23479931175962M13.185390289489192,114.32420019893925L5,116.5213774381289M5,118.91447645156013L8.314929248586168,118.40927360920796L21.952220163114646,113.50666659365834L20.49108185084384,112.68895979591753L13.185390289489192,114.32420019893925M455.9102989075763,22.49945501367347L454.9362066993958,19.148971268596142L455.9102989075763,16.634173493419894L459.8066677402988,12.439150066267302L458.83257553211826,9.919915232833318L457.8584833239377,8.239498312871092L450.0657456584928,4.876435901263449L449.7299313511158,4.412264580657393M436.3108391947426,4.412264580657393L435.941408639874,8.239498312871092L433.0191320153321,11.599590391260335L433.0191320153321,14.95671870317301L432.04503980715157,25.84699619854382L432.04503980715157,28.35572493306381L433.5061781194224,31.698132227019414L443.24710020122836,39.20786471745805L445.68233072168,39.20786471745805L449.57869955440253,30.86280485298039L455.42325280348604,30.86280485298039L461.75485215666015,35.87202913091005L463.21599046893095,33.36823868029251L461.75485215666015,26.683422479949513L455.9102989075763,22.49945501367347M320.0244358663814,12.439150066267302L317.58920534592966,14.117714119926404L315.6410209295686,19.148971268596142L319.05034365820086,19.986868425183275L321.97262028274247,23.336615921313296L330.73945015636787,23.336615921313296L330.2524040522776,21.6621101961141L327.8171735318263,15.79553846030376L320.0244358663814,12.439150066267302M85.26821369485447,96.29830880438885L80.88479875804171,97.94051450858205L79.42366044577062,100.40251093466486L84.29412148667359,100.40251093466486L88.19049031939602,96.29830880438885L85.26821369485447,96.29830880438885M546,49.747881791491146L516.3040158147742,60.82014110265118L498.2833099634329,69.10018245453102L490.97761840207824,68.27298248132274L489.0294339857172,66.61804710994011L479.7755580080014,59.16198409989056L468.08645150983403,50.02926392624477L467.59940540574377,53.35277460417001L468.08645150983403,56.67340196337318L470.5216820302857,59.16198409989056L473.44395865482727,62.47758081740267L472.46986644664673,67.4456040656014L473.44395865482727,73.23350908799694L480.26260411209165,74.88559404587068L487.0812495693557,74.05964044818393L496.3351255470718,74.88559404587068L507.5371859411486,78.18763274771618L508.0242320452389,84.7832069283927L507.5371859411486,88.89970112449055L508.51127814932914,92.18972736746218L508.9983242534194,95.47694324158056L504.1278632125164,92.18972736746218L490.97761840207824,86.43033346232505L478.80146579982056,83.13537435887474L474.9050969670984,80.66230000681435L470.034635926195,75.71136997791609L468.08645150983403,59.99115231130327L462.7289443648407,48.36642536656973L447.63051513804106,49.197934997278026L431.5579937030613,35.87202913091005L424.73934824579686,24.173593020455883L417.9207027885325,23.336615921313296L411.5891034353586,20.824581367141036L400.38704304128146,19.148971268596142L389.6720287512949,30.02729457981377L385.28861381448223,35.87202913091005L378.4699683572178,41.707831150265974L375.5476917326762,46.70286360343334L358.50107808951554,48.36642536656973L353.14357094452185,51.69138007499214L339.9933261340836,65.79031151683694L336.5840034054518,67.4456040656014L320.99852807456193,61.648950572015565L310.7705598886656,62.47758081740267L307.3612371600334,61.648950572015565L304.9260066395817,55.013448303958285L315.6410209295686,45.038577843125495L318.56329755411014,35.87202913091005L316.12806703365885,26.683422479949513L312.7187443050267,27.519665357776375L300.54259170276896,32.53327680259463L280.5737014350667,21.6621101961141L272.78096376962174,24.173593020455883L270.3457332491701,20.824581367141036L268.8845949368993,16.634173493419894L253.78616571009962,18.310889795650837L257.6825345428221,14.117714119926404L262.55299558372553,8.239498312871092L262.33143536207336,4.412264580657393M199.2579111412178,4.412264580657393L200.69814036425646,7.3990114356547565L204.59450919697895,12.439150066267302L204.59450919697895,19.148971268596142L197.7758637397149,22.49945501367347L188.03494165790852,25.01038641244304L186.5738033456377,29.19160130678074L187.54789555381825,35.037614744048824L192.90540269881149,35.037614744048824L194.85358711517296,33.36823868029251L198.74995594789544,34.20301796063268L202.1592786765276,38.37417891467476L201.672232572437,62.47758081740267L202.64632478061787,64.96239718871402L205.56860140515948,69.10018245453102L210.92610855015312,71.58071269233642L218.7188462155977,72.40719986838349L224.07635336059138,74.88559404587068L241.12296700375202,98.76135483981716L249.4027507732868,102.8629350781207L243.5581975242033,102.04296823734921L238.68773648330034,98.76135483981716L224.5633994646816,79.01269898435521L218.23180011150743,75.71136997791609L201.672232572437,77.36238923215842L186.5738033456377,73.23350908799694L184.13857282518603,77.36238923215842L181.70334230473475,82.31119307071003L180.2422039924636,92.18972736746218L182.19038840882502,102.8629350781207L179.75515788837333,117.59260456481707L179.75515788837333,106.96015495319352L177.319927367922,102.8629350781207L170.98832801474782,97.94051450858205L169.04014359838675,100.40251093466486L168.0660513902062,106.96015495319352L166.1178669738448,112.68895979591753L163.6826364533935,114.32420019893925L158.8121754124905,111.05302624865362L161.7344520370321,103.68272750449933L153.45466826749686,90.5450659235903L132.9987318957044,89.72247149119539L114.00393383618217,91.36748451719905L110.10756500345974,93.83368621940008L104.75005785846645,102.8629350781207L102.80187344210543,110.23479931175962L101.82778123392444,119.22577002122853L107.18528837891813,123.30566585223141L109.62051889936947,127.3812598118302L101.82778123392444,125.7515377110426L96.95732019302147,123.30566585223141L94.03504356847992,119.22577002122853L88.67753642348629,113.50666659365834L75.04024550895781,113.50666659365834L63.838185114881014,115.95874820613108L48.25270978399112,115.95874820613108L38.02474159809486,119.22577002122853L19.51698964266302,129.01029546510426L14.646528601759996,133.8932911215552L9.776067560856973,144.45203839990472L5,148.06177144947722" style="fill: none; stroke-miterlimit: 2; stroke: rgb(0, 0, 0); stroke-opacity: 1; stroke-width: 1px;"/></g><g class="layer backplot"><g class="choroplethlayer"/></g><g class="layer frontplot"><g class="scatterlayer"><g class="trace scattergeo" style="opacity: 1;"><path class="point" d="M8,0A8,8 0 1,1 0,-8A8,8 0 0,1 8,0Z" transform="translate(308.78513592718537,547.0827862317783)" style="opacity: 1; stroke-width: 0.5px; fill: rgb(0, 0, 0); fill-opacity: 1; stroke: rgb(0, 0, 0); stroke-opacity: 1;"/><path class="point" d="M8,0A8,8 0 1,1 0,-8A8,8 0 0,1 8,0Z" transform="translate(447.30884066813366,193.88010696725996)" style="opacity: 1; stroke-width: 0.5px; fill: rgb(0, 0, 0); fill-opacity: 1; stroke: rgb(0, 0, 0); stroke-opacity: 1;"/><path class="point" d="M8,0A8,8 0 1,1 0,-8A8,8 0 0,1 8,0Z" transform="translate(87.3798848769755,309.8409281880172)" style="opacity: 1; stroke-width: 0.5px; fill: rgb(0, 0, 0); fill-opacity: 1; stroke: rgb(0, 0, 0); stroke-opacity: 1;"/><path class="point" d="M8,0A8,8 0 1,1 0,-8A8,8 0 0,1 8,0Z" transform="translate(216.0770643128626,522.4894308934863)" style="opacity: 1; stroke-width: 0.5px; fill: rgb(0, 0, 0); fill-opacity: 1; stroke: rgb(0, 0, 0); stroke-opacity: 1;"/><path class="point" d="M8,0A8,8 0 1,1 0,-8A8,8 0 0,1 8,0Z" transform="translate(103.99731836367278,284.95878872449794)" style="opacity: 1; stroke-width: 0.5px; fill: rgb(0, 0, 0); fill-opacity: 1; stroke: rgb(0, 0, 0); stroke-opacity: 1;"/><path class="point" d="M8,0A8,8 0 1,1 0,-8A8,8 0 0,1 8,0Z" transform="translate(261.8710531106222,102.76779507297351)" style="opacity: 1; stroke-width: 0.5px; fill: rgb(0, 0, 0); fill-opacity: 1; stroke: rgb(0, 0, 0); stroke-opacity: 1;"/><path class="point" d="M8,0A8,8 0 1,1 0,-8A8,8 0 0,1 8,0Z" transform="translate(189.4707730546109,462.80592784101736)" style="opacity: 1; stroke-width: 0.5px; fill: rgb(0, 0, 0); fill-opacity: 1; stroke: rgb(0, 0, 0); stroke-opacity: 1;"/><path class="point" d="M8,0A8,8 0 1,1 0,-8A8,8 0 0,1 8,0Z" transform="translate(175.5913471694339,496.69289189847086)" style="opacity: 1; stroke-width: 0.5px; fill: rgb(0, 0, 0); fill-opacity: 1; stroke: rgb(0, 0, 0); stroke-opacity: 1;"/><path class="point" d="M8,0A8,8 0 1,1 0,-8A8,8 0 0,1 8,0Z" transform="translate(285.44172724544904,113.96480922751061)" style="opacity: 1; stroke-width: 0.5px; fill: rgb(0, 0, 0); fill-opacity: 1; stroke: rgb(0, 0, 0); stroke-opacity: 1;"/><path class="point" d="M8,0A8,8 0 1,1 0,-8A8,8 0 0,1 8,0Z" transform="translate(346.09995889177833,568.1110032322881)" style="opacity: 1; stroke-width: 0.5px; fill: rgb(0, 0, 0); fill-opacity: 1; stroke: rgb(0, 0, 0); stroke-opacity: 1;"/><path class="point" d="M8,0A8,8 0 1,1 0,-8A8,8 0 0,1 8,0Z" transform="translate(96.30817053410686,334.2077213932971)" style="opacity: 1; stroke-width: 0.5px; fill: rgb(0, 0, 0); fill-opacity: 1; stroke: rgb(0, 0, 0); stroke-opacity: 1;"/><path class="point" d="M8,0A8,8 0 1,1 0,-8A8,8 0 0,1 8,0Z" transform="translate(420.7187826565313,304.5067037523054)" style="opacity: 1; stroke-width: 0.5px; fill: rgb(0, 0, 0); fill-opacity: 1; stroke: rgb(0, 0, 0); stroke-opacity: 1;"/><path class="point" d="M8,0A8,8 0 1,1 0,-8A8,8 0 0,1 8,0Z" transform="translate(240.43775645129028,596.6341220637219)" style="opacity: 1; stroke-width: 0.5px; fill: rgb(0, 0, 0); fill-opacity: 1; stroke: rgb(0, 0, 0); stroke-opacity: 1;"/><path class="point" d="M8,0A8,8 0 1,1 0,-8A8,8 0 0,1 8,0Z" transform="translate(101.57315353070618,326.093393110159)" style="opacity: 1; stroke-width: 0.5px; fill: rgb(0, 0, 0); fill-opacity: 1; stroke: rgb(0, 0, 0); stroke-opacity: 1;"/><path class="point" d="M8,0A8,8 0 1,1 0,-8A8,8 0 0,1 8,0Z" transform="translate(193.48038497699548,234.90490644289275)" style="opacity: 1; stroke-width: 0.5px; fill: rgb(0, 0, 0); fill-opacity: 1; stroke: rgb(0, 0, 0); stroke-opacity: 1;"/><path class="point" d="M8,0A8,8 0 1,1 0,-8A8,8 0 0,1 8,0Z" transform="translate(68.09478785757148,311.70664918163175)" style="opacity: 1; stroke-width: 0.5px; fill: rgb(0, 0, 0); fill-opacity: 1; stroke: rgb(0, 0, 0); stroke-opacity: 1;"/><path class="point" d="M8,0A8,8 0 1,1 0,-8A8,8 0 0,1 8,0Z" transform="translate(377.7602009401881,441.1307072707832)" style="opacity: 1; stroke-width: 0.5px; fill: rgb(0, 0, 0); fill-opacity: 1; stroke: rgb(0, 0, 0); stroke-opacity: 1;"/></g><g class="trace scattergeo" style="opacity: 1;"><path class="point" d="M6.5,0A6.5,6.5 0 1,1 0,-6.5A6.5,6.5 0 0,1 6.5,0Z" transform="translate(124.5702529505902,284.6284045842558)" style="opacity: 1; stroke-width: 0.5px; fill: rgb(128, 128, 128); fill-opacity: 1; stroke: rgb(0, 0, 0); stroke-opacity: 1;"/><path class="point" d="M6.5,0A6.5,6.5 0 1,1 0,-6.5A6.5,6.5 0 0,1 6.5,0Z" transform="translate(416.38991688337666,347.5124996758859)" style="opacity: 1; stroke-width: 0.5px; fill: rgb(128, 128, 128); fill-opacity: 1; stroke: rgb(0, 0, 0); stroke-opacity: 1;"/><path class="point" d="M6.5,0A6.5,6.5 0 1,1 0,-6.5A6.5,6.5 0 0,1 6.5,0Z" transform="translate(143.8174723944789,580.5461562386427)" style="opacity: 1; stroke-width: 0.5px; fill: rgb(128, 128, 128); fill-opacity: 1; stroke: rgb(0, 0, 0); stroke-opacity: 1;"/><path class="point" d="M6.5,0A6.5,6.5 0 1,1 0,-6.5A6.5,6.5 0 0,1 6.5,0Z" transform="translate(346.8412771554311,338.10429724260257)" style="opacity: 1; stroke-width: 0.5px; fill: rgb(128, 128, 128); fill-opacity: 1; stroke: rgb(0, 0, 0); stroke-opacity: 1;"/><path class="point" d="M6.5,0A6.5,6.5 0 1,1 0,-6.5A6.5,6.5 0 0,1 6.5,0Z" transform="translate(130.8579304860973,383.8744671612949)" style="opacity: 1; stroke-width: 0.5px; fill: rgb(128, 128, 128); fill-opacity: 1; stroke: rgb(0, 0, 0); stroke-opacity: 1;"/><path class="point" d="M6.5,0A6.5,6.5 0 1,1 0,-6.5A6.5,6.5 0 0,1 6.5,0Z" transform="translate(268.27236337267453,32.52697214565251)" style="opacity: 1; stroke-width: 0.5px; fill: rgb(128, 128, 128); fill-opacity: 1; stroke: rgb(0, 0, 0); stroke-opacity: 1;"/><path class="point" d="M6.5,0A6.5,6.5 0 1,1 0,-6.5A6.5,6.5 0 0,1 6.5,0Z" transform="translate(390.0217132426485,299.5551186369066)" style="opacity: 1; stroke-width: 0.5px; fill: rgb(128, 128, 128); fill-opacity: 1; stroke: rgb(0, 0, 0); stroke-opacity: 1;"/><path class="point" d="M6.5,0A6.5,6.5 0 1,1 0,-6.5A6.5,6.5 0 0,1 6.5,0Z" transform="translate(426.8116612322464,206.4322962941087)" style="opacity: 1; stroke-width: 0.5px; fill: rgb(128, 128, 128); fill-opacity: 1; stroke: rgb(0, 0, 0); stroke-opacity: 1;"/><path class="point" d="M6.5,0A6.5,6.5 0 1,1 0,-6.5A6.5,6.5 0 0,1 6.5,0Z" transform="translate(349.41154120824166,231.0728825138126)" style="opacity: 1; stroke-width: 0.5px; fill: rgb(128, 128, 128); fill-opacity: 1; stroke: rgb(0, 0, 0); stroke-opacity: 1;"/><path class="point" d="M6.5,0A6.5,6.5 0 1,1 0,-6.5A6.5,6.5 0 0,1 6.5,0Z" transform="translate(257.45561002200446,281.2882384291488)" style="opacity: 1; stroke-width: 0.5px; fill: rgb(128, 128, 128); fill-opacity: 1; stroke: rgb(0, 0, 0); stroke-opacity: 1;"/><path class="point" d="M6.5,0A6.5,6.5 0 1,1 0,-6.5A6.5,6.5 0 0,1 6.5,0Z" transform="translate(338.18895669133826,570.3643884810785)" style="opacity: 1; stroke-width: 0.5px; fill: rgb(128, 128, 128); fill-opacity: 1; stroke: rgb(0, 0, 0); stroke-opacity: 1;"/><path class="point" d="M6.5,0A6.5,6.5 0 1,1 0,-6.5A6.5,6.5 0 0,1 6.5,0Z" transform="translate(132.92496389277863,245.5532774930948)" style="opacity: 1; stroke-width: 0.5px; fill: rgb(128, 128, 128); fill-opacity: 1; stroke: rgb(0, 0, 0); stroke-opacity: 1;"/><path class="point" d="M6.5,0A6.5,6.5 0 1,1 0,-6.5A6.5,6.5 0 0,1 6.5,0Z" transform="translate(246.86612212442486,209.03894902061893)" style="opacity: 1; stroke-width: 0.5px; fill: rgb(128, 128, 128); fill-opacity: 1; stroke: rgb(0, 0, 0); stroke-opacity: 1;"/><path class="point" d="M6.5,0A6.5,6.5 0 1,1 0,-6.5A6.5,6.5 0 0,1 6.5,0Z" transform="translate(105.07412372474505,474.4258493988009)" style="opacity: 1; stroke-width: 0.5px; fill: rgb(128, 128, 128); fill-opacity: 1; stroke: rgb(0, 0, 0); stroke-opacity: 1;"/><path class="point" d="M6.5,0A6.5,6.5 0 1,1 0,-6.5A6.5,6.5 0 0,1 6.5,0Z" transform="translate(79.24161722344468,434.69518516289645)" style="opacity: 1; stroke-width: 0.5px; fill: rgb(128, 128, 128); fill-opacity: 1; stroke: rgb(0, 0, 0); stroke-opacity: 1;"/><path class="point" d="M6.5,0A6.5,6.5 0 1,1 0,-6.5A6.5,6.5 0 0,1 6.5,0Z" transform="translate(260.6968482696539,546.4063610175876)" style="opacity: 1; stroke-width: 0.5px; fill: rgb(128, 128, 128); fill-opacity: 1; stroke: rgb(0, 0, 0); stroke-opacity: 1;"/></g><g class="trace scattergeo" style="opacity: 1;"><path class="point" d="M5,0A5,5 0 1,1 0,-5A5,5 0 0,1 5,0Z" transform="translate(182.5878764752951,237.7654760384612)" style="opacity: 1; stroke-width: 0.5px; fill: rgb(169, 169, 169); fill-opacity: 1; stroke: rgb(0, 0, 0); stroke-opacity: 1;"/><path class="point" d="M5,0A5,5 0 1,1 0,-5A5,5 0 0,1 5,0Z" transform="translate(112.23839657931597,288.6606843139484)" style="opacity: 1; stroke-width: 0.5px; fill: rgb(169, 169, 169); fill-opacity: 1; stroke: rgb(0, 0, 0); stroke-opacity: 1;"/><path class="point" d="M5,0A5,5 0 1,1 0,-5A5,5 0 0,1 5,0Z" transform="translate(99.31132116423288,289.754948829207)" style="opacity: 1; stroke-width: 0.5px; fill: rgb(169, 169, 169); fill-opacity: 1; stroke: rgb(0, 0, 0); stroke-opacity: 1;"/><path class="point" d="M5,0A5,5 0 1,1 0,-5A5,5 0 0,1 5,0Z" transform="translate(188.16129115823173,405.26665857428134)" style="opacity: 1; stroke-width: 0.5px; fill: rgb(169, 169, 169); fill-opacity: 1; stroke: rgb(0, 0, 0); stroke-opacity: 1;"/><path class="point" d="M5,0A5,5 0 1,1 0,-5A5,5 0 0,1 5,0Z" transform="translate(226.87217333466697,232.88805399774856)" style="opacity: 1; stroke-width: 0.5px; fill: rgb(169, 169, 169); fill-opacity: 1; stroke: rgb(0, 0, 0); stroke-opacity: 1;"/><path class="point" d="M5,0A5,5 0 1,1 0,-5A5,5 0 0,1 5,0Z" transform="translate(219.0693927785557,485.58276189475373)" style="opacity: 1; stroke-width: 0.5px; fill: rgb(169, 169, 169); fill-opacity: 1; stroke: rgb(0, 0, 0); stroke-opacity: 1;"/><path class="point" d="M5,0A5,5 0 1,1 0,-5A5,5 0 0,1 5,0Z" transform="translate(140.2028694738948,460.67604082885873)" style="opacity: 1; stroke-width: 0.5px; fill: rgb(169, 169, 169); fill-opacity: 1; stroke: rgb(0, 0, 0); stroke-opacity: 1;"/><path class="point" d="M5,0A5,5 0 1,1 0,-5A5,5 0 0,1 5,0Z" transform="translate(278.8834955991198,601.3503404512421)" style="opacity: 1; stroke-width: 0.5px; fill: rgb(169, 169, 169); fill-opacity: 1; stroke: rgb(0, 0, 0); stroke-opacity: 1;"/><path class="point" d="M5,0A5,5 0 1,1 0,-5A5,5 0 0,1 5,0Z" transform="translate(201.28316553310668,142.51497455540994)" style="opacity: 1; stroke-width: 0.5px; fill: rgb(169, 169, 169); fill-opacity: 1; stroke: rgb(0, 0, 0); stroke-opacity: 1;"/><path class="point" d="M5,0A5,5 0 1,1 0,-5A5,5 0 0,1 5,0Z" transform="translate(462.23260542108426,323.8900491399904)" style="opacity: 1; stroke-width: 0.5px; fill: rgb(169, 169, 169); fill-opacity: 1; stroke: rgb(0, 0, 0); stroke-opacity: 1;"/><path class="point" d="M5,0A5,5 0 1,1 0,-5A5,5 0 0,1 5,0Z" transform="translate(446.05346959391886,321.2461506501986)" style="opacity: 1; stroke-width: 0.5px; fill: rgb(169, 169, 169); fill-opacity: 1; stroke: rgb(0, 0, 0); stroke-opacity: 1;"/><path class="point" d="M5,0A5,5 0 1,1 0,-5A5,5 0 0,1 5,0Z" transform="translate(385.779424784957,413.8710380086036)" style="opacity: 1; stroke-width: 0.5px; fill: rgb(169, 169, 169); fill-opacity: 1; stroke: rgb(0, 0, 0); stroke-opacity: 1;"/><path class="point" d="M5,0A5,5 0 1,1 0,-5A5,5 0 0,1 5,0Z" transform="translate(179.59554800960194,455.92138489077934)" style="opacity: 1; stroke-width: 0.5px; fill: rgb(169, 169, 169); fill-opacity: 1; stroke: rgb(0, 0, 0); stroke-opacity: 1;"/><path class="point" d="M5,0A5,5 0 1,1 0,-5A5,5 0 0,1 5,0Z" transform="translate(202.4736036207242,217.03426389063907)" style="opacity: 1; stroke-width: 0.5px; fill: rgb(169, 169, 169); fill-opacity: 1; stroke: rgb(0, 0, 0); stroke-opacity: 1;"/><path class="point" d="M5,0A5,5 0 1,1 0,-5A5,5 0 0,1 5,0Z" transform="translate(209.88137517503503,535.3560411780659)" style="opacity: 1; stroke-width: 0.5px; fill: rgb(169, 169, 169); fill-opacity: 1; stroke: rgb(0, 0, 0); stroke-opacity: 1;"/></g><g class="trace scattergeo" style="opacity: 1;"><path class="point" d="M4,0A4,4 0 1,1 0,-4A4,4 0 0,1 4,0Z" transform="translate(346.3813351670334,418.5489907689307)" style="opacity: 1; stroke-width: 0.5px; fill: rgb(211, 211, 211); fill-opacity: 1; stroke: rgb(0, 0, 0); stroke-opacity: 1;"/><path class="point" d="M4,0A4,4 0 1,1 0,-4A4,4 0 0,1 4,0Z" transform="translate(104.53842658531704,352.67845060475247)" style="opacity: 1; stroke-width: 0.5px; fill: rgb(211, 211, 211); fill-opacity: 1; stroke: rgb(0, 0, 0); stroke-opacity: 1;"/><path class="point" d="M4,0A4,4 0 1,1 0,-4A4,4 0 0,1 4,0Z" transform="translate(208.16606211242254,521.8171706577782)" style="opacity: 1; stroke-width: 0.5px; fill: rgb(211, 211, 211); fill-opacity: 1; stroke: rgb(0, 0, 0); stroke-opacity: 1;"/><path class="point" d="M4,0A4,4 0 1,1 0,-4A4,4 0 0,1 4,0Z" transform="translate(187.95567003400686,424.7834666297117)" style="opacity: 1; stroke-width: 0.5px; fill: rgb(211, 211, 211); fill-opacity: 1; stroke: rgb(0, 0, 0); stroke-opacity: 1;"/><path class="point" d="M4,0A4,4 0 1,1 0,-4A4,4 0 0,1 4,0Z" transform="translate(379.6865462092419,257.61764727355603)" style="opacity: 1; stroke-width: 0.5px; fill: rgb(211, 211, 211); fill-opacity: 1; stroke: rgb(0, 0, 0); stroke-opacity: 1;"/><path class="point" d="M4,0A4,4 0 1,1 0,-4A4,4 0 0,1 4,0Z" transform="translate(316.8097708541708,331.12381385712024)" style="opacity: 1; stroke-width: 0.5px; fill: rgb(211, 211, 211); fill-opacity: 1; stroke: rgb(0, 0, 0); stroke-opacity: 1;"/><path class="point" d="M4,0A4,4 0 1,1 0,-4A4,4 0 0,1 4,0Z" transform="translate(507.5071303260652,211.35156470366974)" style="opacity: 1; stroke-width: 0.5px; fill: rgb(211, 211, 211); fill-opacity: 1; stroke: rgb(0, 0, 0); stroke-opacity: 1;"/><path class="point" d="M4,0A4,4 0 1,1 0,-4A4,4 0 0,1 4,0Z" transform="translate(244.43654620924184,368.7664900460027)" style="opacity: 1; stroke-width: 0.5px; fill: rgb(211, 211, 211); fill-opacity: 1; stroke: rgb(0, 0, 0); stroke-opacity: 1;"/><path class="point" d="M4,0A4,4 0 1,1 0,-4A4,4 0 0,1 4,0Z" transform="translate(175.73203530706138,414.88954195798306)" style="opacity: 1; stroke-width: 0.5px; fill: rgb(211, 211, 211); fill-opacity: 1; stroke: rgb(0, 0, 0); stroke-opacity: 1;"/><path class="point" d="M4,0A4,4 0 1,1 0,-4A4,4 0 0,1 4,0Z" transform="translate(232.12633416683343,301.7460042084058)" style="opacity: 1; stroke-width: 0.5px; fill: rgb(211, 211, 211); fill-opacity: 1; stroke: rgb(0, 0, 0); stroke-opacity: 1;"/><path class="point" d="M4,0A4,4 0 1,1 0,-4A4,4 0 0,1 4,0Z" transform="translate(198.3395368073614,598.4214372496963)" style="opacity: 1; stroke-width: 0.5px; fill: rgb(211, 211, 211); fill-opacity: 1; stroke: rgb(0, 0, 0); stroke-opacity: 1;"/><path class="point" d="M4,0A4,4 0 1,1 0,-4A4,4 0 0,1 4,0Z" transform="translate(495.64603810762145,265.4624556757717)" style="opacity: 1; stroke-width: 0.5px; fill: rgb(211, 211, 211); fill-opacity: 1; stroke: rgb(0, 0, 0); stroke-opacity: 1;"/><path class="point" d="M4,0A4,4 0 1,1 0,-4A4,4 0 0,1 4,0Z" transform="translate(369.16740238047606,287.86150665292644)" style="opacity: 1; stroke-width: 0.5px; fill: rgb(211, 211, 211); fill-opacity: 1; stroke: rgb(0, 0, 0); stroke-opacity: 1;"/><path class="point" d="M4,0A4,4 0 1,1 0,-4A4,4 0 0,1 4,0Z" transform="translate(299.57006291258256,77.17747735717012)" style="opacity: 1; stroke-width: 0.5px; fill: rgb(211, 211, 211); fill-opacity: 1; stroke: rgb(0, 0, 0); stroke-opacity: 1;"/><path class="point" d="M4,0A4,4 0 1,1 0,-4A4,4 0 0,1 4,0Z" transform="translate(298.7367562512503,362.5044326033626)" style="opacity: 1; stroke-width: 0.5px; fill: rgb(211, 211, 211); fill-opacity: 1; stroke: rgb(0, 0, 0); stroke-opacity: 1;"/><path class="point" d="M4,0A4,4 0 1,1 0,-4A4,4 0 0,1 4,0Z" transform="translate(380.09237737547505,358.25600787164785)" style="opacity: 1; stroke-width: 0.5px; fill: rgb(211, 211, 211); fill-opacity: 1; stroke: rgb(0, 0, 0); stroke-opacity: 1;"/><path class="point" d="M4,0A4,4 0 1,1 0,-4A4,4 0 0,1 4,0Z" transform="translate(155.29437777555512,224.13048596960198)" style="opacity: 1; stroke-width: 0.5px; fill: rgb(211, 211, 211); fill-opacity: 1; stroke: rgb(0, 0, 0); stroke-opacity: 1;"/><path class="point" d="M4,0A4,4 0 1,1 0,-4A4,4 0 0,1 4,0Z" transform="translate(375.3143917783558,595.9093173984875)" style="opacity: 1; stroke-width: 0.5px; fill: rgb(211, 211, 211); fill-opacity: 1; stroke: rgb(0, 0, 0); stroke-opacity: 1;"/><path class="point" d="M4,0A4,4 0 1,1 0,-4A4,4 0 0,1 4,0Z" transform="translate(323.35718033606724,468.1756305714448)" style="opacity: 1; stroke-width: 0.5px; fill: rgb(211, 211, 211); fill-opacity: 1; stroke: rgb(0, 0, 0); stroke-opacity: 1;"/><path class="point" d="M4,0A4,4 0 1,1 0,-4A4,4 0 0,1 4,0Z" transform="translate(280.923473594719,367.949143064438)" style="opacity: 1; stroke-width: 0.5px; fill: rgb(211, 211, 211); fill-opacity: 1; stroke: rgb(0, 0, 0); stroke-opacity: 1;"/><path class="point" d="M4,0A4,4 0 1,1 0,-4A4,4 0 0,1 4,0Z" transform="translate(216.42878465693138,506.390691801907)" style="opacity: 1; stroke-width: 0.5px; fill: rgb(211, 211, 211); fill-opacity: 1; stroke: rgb(0, 0, 0); stroke-opacity: 1;"/><path class="point" d="M4,0A4,4 0 1,1 0,-4A4,4 0 0,1 4,0Z" transform="translate(298.8936776355272,74.04927360127704)" style="opacity: 1; stroke-width: 0.5px; fill: rgb(211, 211, 211); fill-opacity: 1; stroke: rgb(0, 0, 0); stroke-opacity: 1;"/><path class="point" d="M4,0A4,4 0 1,1 0,-4A4,4 0 0,1 4,0Z" transform="translate(165.97585407081425,415.6301111673197)" style="opacity: 1; stroke-width: 0.5px; fill: rgb(211, 211, 211); fill-opacity: 1; stroke: rgb(0, 0, 0); stroke-opacity: 1;"/><path class="point" d="M4,0A4,4 0 1,1 0,-4A4,4 0 0,1 4,0Z" transform="translate(132.62194328865775,311.60302097005615)" style="opacity: 1; stroke-width: 0.5px; fill: rgb(211, 211, 211); fill-opacity: 1; stroke: rgb(0, 0, 0); stroke-opacity: 1;"/><path class="point" d="M4,0A4,4 0 1,1 0,-4A4,4 0 0,1 4,0Z" transform="translate(318.83351560312065,458.89473496300843)" style="opacity: 1; stroke-width: 0.5px; fill: rgb(211, 211, 211); fill-opacity: 1; stroke: rgb(0, 0, 0); stroke-opacity: 1;"/><path class="point" d="M4,0A4,4 0 1,1 0,-4A4,4 0 0,1 4,0Z" transform="translate(193.42086307261457,406.4813144311306)" style="opacity: 1; stroke-width: 0.5px; fill: rgb(211, 211, 211); fill-opacity: 1; stroke: rgb(0, 0, 0); stroke-opacity: 1;"/><path class="point" d="M4,0A4,4 0 1,1 0,-4A4,4 0 0,1 4,0Z" transform="translate(155.68938677735542,217.8744621776459)" style="opacity: 1; stroke-width: 0.5px; fill: rgb(211, 211, 211); fill-opacity: 1; stroke: rgb(0, 0, 0); stroke-opacity: 1;"/><path class="point" d="M4,0A4,4 0 1,1 0,-4A4,4 0 0,1 4,0Z" transform="translate(444.91173124624925,531.096162228921)" style="opacity: 1; stroke-width: 0.5px; fill: rgb(211, 211, 211); fill-opacity: 1; stroke: rgb(0, 0, 0); stroke-opacity: 1;"/><path class="point" d="M4,0A4,4 0 1,1 0,-4A4,4 0 0,1 4,0Z" transform="translate(372.43569603920787,496.07415899378793)" style="opacity: 1; stroke-width: 0.5px; fill: rgb(211, 211, 211); fill-opacity: 1; stroke: rgb(0, 0, 0); stroke-opacity: 1;"/><path class="point" d="M4,0A4,4 0 1,1 0,-4A4,4 0 0,1 4,0Z" transform="translate(187.3063401680336,464.0533923580674)" style="opacity: 1; stroke-width: 0.5px; fill: rgb(211, 211, 211); fill-opacity: 1; stroke: rgb(0, 0, 0); stroke-opacity: 1;"/><path class="point" d="M4,0A4,4 0 1,1 0,-4A4,4 0 0,1 4,0Z" transform="translate(361.8516192238448,285.367383624327)" style="opacity: 1; stroke-width: 0.5px; fill: rgb(211, 211, 211); fill-opacity: 1; stroke: rgb(0, 0, 0); stroke-opacity: 1;"/><path class="point" d="M4,0A4,4 0 1,1 0,-4A4,4 0 0,1 4,0Z" transform="translate(274.3003089617923,409.42365450567013)" style="opacity: 1; stroke-width: 0.5px; fill: rgb(211, 211, 211); fill-opacity: 1; stroke: rgb(0, 0, 0); stroke-opacity: 1;"/><path class="point" d="M4,0A4,4 0 1,1 0,-4A4,4 0 0,1 4,0Z" transform="translate(337.0634515903181,98.8671320175099)" style="opacity: 1; stroke-width: 0.5px; fill: rgb(211, 211, 211); fill-opacity: 1; stroke: rgb(0, 0, 0); stroke-opacity: 1;"/><path class="point" d="M4,0A4,4 0 1,1 0,-4A4,4 0 0,1 4,0Z" transform="translate(217.37572404480898,513.9797192107299)" style="opacity: 1; stroke-width: 0.5px; fill: rgb(211, 211, 211); fill-opacity: 1; stroke: rgb(0, 0, 0); stroke-opacity: 1;"/><path class="point" d="M4,0A4,4 0 1,1 0,-4A4,4 0 0,1 4,0Z" transform="translate(297.1675424084817,313.1485283601537)" style="opacity: 1; stroke-width: 0.5px; fill: rgb(211, 211, 211); fill-opacity: 1; stroke: rgb(0, 0, 0); stroke-opacity: 1;"/><path class="point" d="M4,0A4,4 0 1,1 0,-4A4,4 0 0,1 4,0Z" transform="translate(445.03618613722745,53.56587102699996)" style="opacity: 1; stroke-width: 0.5px; fill: rgb(211, 211, 211); fill-opacity: 1; stroke: rgb(0, 0, 0); stroke-opacity: 1;"/><path class="point" d="M4,0A4,4 0 1,1 0,-4A4,4 0 0,1 4,0Z" transform="translate(426.8982385477095,31.905331938698964)" style="opacity: 1; stroke-width: 0.5px; fill: rgb(211, 211, 211); fill-opacity: 1; stroke: rgb(0, 0, 0); stroke-opacity: 1;"/><path class="point" d="M4,0A4,4 0 1,1 0,-4A4,4 0 0,1 4,0Z" transform="translate(108.70495989197843,305.66579876086325)" style="opacity: 1; stroke-width: 0.5px; fill: rgb(211, 211, 211); fill-opacity: 1; stroke: rgb(0, 0, 0); stroke-opacity: 1;"/></g><g class="trace scattergeo" style="opacity: 1;"><path class="point" d="M2.5,0A2.5,2.5 0 1,1 0,-2.5A2.5,2.5 0 0,1 2.5,0Z" transform="translate(392.9491087217443,330.00649061267904)" style="opacity: 1; stroke-width: 0.5px; fill: rgb(255, 255, 255); fill-opacity: 1; stroke: rgb(0, 0, 0); stroke-opacity: 1;"/><path class="point" d="M2.5,0A2.5,2.5 0 1,1 0,-2.5A2.5,2.5 0 0,1 2.5,0Z" transform="translate(361.8840857171434,460.6427525231261)" style="opacity: 1; stroke-width: 0.5px; fill: rgb(255, 255, 255); fill-opacity: 1; stroke: rgb(0, 0, 0); stroke-opacity: 1;"/><path class="point" d="M2.5,0A2.5,2.5 0 1,1 0,-2.5A2.5,2.5 0 0,1 2.5,0Z" transform="translate(185.1635516103221,101.6654378491935)" style="opacity: 1; stroke-width: 0.5px; fill: rgb(255, 255, 255); fill-opacity: 1; stroke: rgb(0, 0, 0); stroke-opacity: 1;"/><path class="point" d="M2.5,0A2.5,2.5 0 1,1 0,-2.5A2.5,2.5 0 0,1 2.5,0Z" transform="translate(160.98683626725347,168.08078498039777)" style="opacity: 1; stroke-width: 0.5px; fill: rgb(255, 255, 255); fill-opacity: 1; stroke: rgb(0, 0, 0); stroke-opacity: 1;"/><path class="point" d="M2.5,0A2.5,2.5 0 1,1 0,-2.5A2.5,2.5 0 0,1 2.5,0Z" transform="translate(107.85541998399685,246.97556703472355)" style="opacity: 1; stroke-width: 0.5px; fill: rgb(255, 255, 255); fill-opacity: 1; stroke: rgb(0, 0, 0); stroke-opacity: 1;"/><path class="point" d="M2.5,0A2.5,2.5 0 1,1 0,-2.5A2.5,2.5 0 0,1 2.5,0Z" transform="translate(86.55198929785962,291.8471058272248)" style="opacity: 1; stroke-width: 0.5px; fill: rgb(255, 255, 255); fill-opacity: 1; stroke: rgb(0, 0, 0); stroke-opacity: 1;"/><path class="point" d="M2.5,0A2.5,2.5 0 1,1 0,-2.5A2.5,2.5 0 0,1 2.5,0Z" transform="translate(188.64287747549508,405.89090232035187)" style="opacity: 1; stroke-width: 0.5px; fill: rgb(255, 255, 255); fill-opacity: 1; stroke: rgb(0, 0, 0); stroke-opacity: 1;"/><path class="point" d="M2.5,0A2.5,2.5 0 1,1 0,-2.5A2.5,2.5 0 0,1 2.5,0Z" transform="translate(328.9847058411682,564.5014247250451)" style="opacity: 1; stroke-width: 0.5px; fill: rgb(255, 255, 255); fill-opacity: 1; stroke: rgb(0, 0, 0); stroke-opacity: 1;"/><path class="point" d="M2.5,0A2.5,2.5 0 1,1 0,-2.5A2.5,2.5 0 0,1 2.5,0Z" transform="translate(373.8209330866173,340.385548594184)" style="opacity: 1; stroke-width: 0.5px; fill: rgb(255, 255, 255); fill-opacity: 1; stroke: rgb(0, 0, 0); stroke-opacity: 1;"/><path class="point" d="M2.5,0A2.5,2.5 0 1,1 0,-2.5A2.5,2.5 0 0,1 2.5,0Z" transform="translate(188.24786847369472,366.0072768817636)" style="opacity: 1; stroke-width: 0.5px; fill: rgb(255, 255, 255); fill-opacity: 1; stroke: rgb(0, 0, 0); stroke-opacity: 1;"/><path class="point" d="M2.5,0A2.5,2.5 0 1,1 0,-2.5A2.5,2.5 0 0,1 2.5,0Z" transform="translate(243.0567202440489,522.0057425061841)" style="opacity: 1; stroke-width: 0.5px; fill: rgb(255, 255, 255); fill-opacity: 1; stroke: rgb(0, 0, 0); stroke-opacity: 1;"/><path class="point" d="M2.5,0A2.5,2.5 0 1,1 0,-2.5A2.5,2.5 0 0,1 2.5,0Z" transform="translate(145.85745039007804,269.07788563060467)" style="opacity: 1; stroke-width: 0.5px; fill: rgb(255, 255, 255); fill-opacity: 1; stroke: rgb(0, 0, 0); stroke-opacity: 1;"/><path class="point" d="M2.5,0A2.5,2.5 0 1,1 0,-2.5A2.5,2.5 0 0,1 2.5,0Z" transform="translate(107.47664422884588,282.8542921349085)" style="opacity: 1; stroke-width: 0.5px; fill: rgb(255, 255, 255); fill-opacity: 1; stroke: rgb(0, 0, 0); stroke-opacity: 1;"/><path class="point" d="M2.5,0A2.5,2.5 0 1,1 0,-2.5A2.5,2.5 0 0,1 2.5,0Z" transform="translate(337.36647219443887,520.2672755386106)" style="opacity: 1; stroke-width: 0.5px; fill: rgb(255, 255, 255); fill-opacity: 1; stroke: rgb(0, 0, 0); stroke-opacity: 1;"/><path class="point" d="M2.5,0A2.5,2.5 0 1,1 0,-2.5A2.5,2.5 0 0,1 2.5,0Z" transform="translate(75.03720634126825,300.3692646819991)" style="opacity: 1; stroke-width: 0.5px; fill: rgb(255, 255, 255); fill-opacity: 1; stroke: rgb(0, 0, 0); stroke-opacity: 1;"/><path class="point" d="M2.5,0A2.5,2.5 0 1,1 0,-2.5A2.5,2.5 0 0,1 2.5,0Z" transform="translate(280.0306450290058,72.87439216998473)" style="opacity: 1; stroke-width: 0.5px; fill: rgb(255, 255, 255); fill-opacity: 1; stroke: rgb(0, 0, 0); stroke-opacity: 1;"/><path class="point" d="M2.5,0A2.5,2.5 0 1,1 0,-2.5A2.5,2.5 0 0,1 2.5,0Z" transform="translate(397.6026394278856,205.02185216253338)" style="opacity: 1; stroke-width: 0.5px; fill: rgb(255, 255, 255); fill-opacity: 1; stroke: rgb(0, 0, 0); stroke-opacity: 1;"/><path class="point" d="M2.5,0A2.5,2.5 0 1,1 0,-2.5A2.5,2.5 0 0,1 2.5,0Z" transform="translate(166.89573804760954,414.6033766549258)" style="opacity: 1; stroke-width: 0.5px; fill: rgb(255, 255, 255); fill-opacity: 1; stroke: rgb(0, 0, 0); stroke-opacity: 1;"/><path class="point" d="M2.5,0A2.5,2.5 0 1,1 0,-2.5A2.5,2.5 0 0,1 2.5,0Z" transform="translate(375.06007091418286,54.110197597873594)" style="opacity: 1; stroke-width: 0.5px; fill: rgb(255, 255, 255); fill-opacity: 1; stroke: rgb(0, 0, 0); stroke-opacity: 1;"/><path class="point" d="M2.5,0A2.5,2.5 0 1,1 0,-2.5A2.5,2.5 0 0,1 2.5,0Z" transform="translate(459.4513091618324,176.9021145648353)" style="opacity: 1; stroke-width: 0.5px; fill: rgb(255, 255, 255); fill-opacity: 1; stroke: rgb(0, 0, 0); stroke-opacity: 1;"/><path class="point" d="M2.5,0A2.5,2.5 0 1,1 0,-2.5A2.5,2.5 0 0,1 2.5,0Z" transform="translate(338.686776255251,557.9231298414707)" style="opacity: 1; stroke-width: 0.5px; fill: rgb(255, 255, 255); fill-opacity: 1; stroke: rgb(0, 0, 0); stroke-opacity: 1;"/><path class="point" d="M2.5,0A2.5,2.5 0 1,1 0,-2.5A2.5,2.5 0 0,1 2.5,0Z" transform="translate(317.92986487297463,448.11539689473375)" style="opacity: 1; stroke-width: 0.5px; fill: rgb(255, 255, 255); fill-opacity: 1; stroke: rgb(0, 0, 0); stroke-opacity: 1;"/><path class="point" d="M2.5,0A2.5,2.5 0 1,1 0,-2.5A2.5,2.5 0 0,1 2.5,0Z" transform="translate(354.87132316463294,547.0338917237382)" style="opacity: 1; stroke-width: 0.5px; fill: rgb(255, 255, 255); fill-opacity: 1; stroke: rgb(0, 0, 0); stroke-opacity: 1;"/><path class="point" d="M2.5,0A2.5,2.5 0 1,1 0,-2.5A2.5,2.5 0 0,1 2.5,0Z" transform="translate(172.56114112822564,478.8939200093978)" style="opacity: 1; stroke-width: 0.5px; fill: rgb(255, 255, 255); fill-opacity: 1; stroke: rgb(0, 0, 0); stroke-opacity: 1;"/><path class="point" d="M2.5,0A2.5,2.5 0 1,1 0,-2.5A2.5,2.5 0 0,1 2.5,0Z" transform="translate(272.28197529505894,121.66831732450464)" style="opacity: 1; stroke-width: 0.5px; fill: rgb(255, 255, 255); fill-opacity: 1; stroke: rgb(0, 0, 0); stroke-opacity: 1;"/><path class="point" d="M2.5,0A2.5,2.5 0 1,1 0,-2.5A2.5,2.5 0 0,1 2.5,0Z" transform="translate(391.7424373874775,311.896627225432)" style="opacity: 1; stroke-width: 0.5px; fill: rgb(255, 255, 255); fill-opacity: 1; stroke: rgb(0, 0, 0); stroke-opacity: 1;"/><path class="point" d="M2.5,0A2.5,2.5 0 1,1 0,-2.5A2.5,2.5 0 0,1 2.5,0Z" transform="translate(171.57091308261647,431.02513717734246)" style="opacity: 1; stroke-width: 0.5px; fill: rgb(255, 255, 255); fill-opacity: 1; stroke: rgb(0, 0, 0); stroke-opacity: 1;"/><path class="point" d="M2.5,0A2.5,2.5 0 1,1 0,-2.5A2.5,2.5 0 0,1 2.5,0Z" transform="translate(114.14850860172038,365.84541229219076)" style="opacity: 1; stroke-width: 0.5px; fill: rgb(255, 255, 255); fill-opacity: 1; stroke: rgb(0, 0, 0); stroke-opacity: 1;"/><path class="point" d="M2.5,0A2.5,2.5 0 1,1 0,-2.5A2.5,2.5 0 0,1 2.5,0Z" transform="translate(412.7699028805761,159.57154796333998)" style="opacity: 1; stroke-width: 0.5px; fill: rgb(255, 255, 255); fill-opacity: 1; stroke: rgb(0, 0, 0); stroke-opacity: 1;"/><path class="point" d="M2.5,0A2.5,2.5 0 1,1 0,-2.5A2.5,2.5 0 0,1 2.5,0Z" transform="translate(374.72458381676336,60.60845928849494)" style="opacity: 1; stroke-width: 0.5px; fill: rgb(255, 255, 255); fill-opacity: 1; stroke: rgb(0, 0, 0); stroke-opacity: 1;"/><path class="point" d="M2.5,0A2.5,2.5 0 1,1 0,-2.5A2.5,2.5 0 0,1 2.5,0Z" transform="translate(410.302449389878,546.1129374498892)" style="opacity: 1; stroke-width: 0.5px; fill: rgb(255, 255, 255); fill-opacity: 1; stroke: rgb(0, 0, 0); stroke-opacity: 1;"/><path class="point" d="M2.5,0A2.5,2.5 0 1,1 0,-2.5A2.5,2.5 0 0,1 2.5,0Z" transform="translate(371.72143318663734,480.4926192249932)" style="opacity: 1; stroke-width: 0.5px; fill: rgb(255, 255, 255); fill-opacity: 1; stroke: rgb(0, 0, 0); stroke-opacity: 1;"/><path class="point" d="M2.5,0A2.5,2.5 0 1,1 0,-2.5A2.5,2.5 0 0,1 2.5,0Z" transform="translate(446.1238136627325,216.32658876115102)" style="opacity: 1; stroke-width: 0.5px; fill: rgb(255, 255, 255); fill-opacity: 1; stroke: rgb(0, 0, 0); stroke-opacity: 1;"/><path class="point" d="M2.5,0A2.5,2.5 0 1,1 0,-2.5A2.5,2.5 0 0,1 2.5,0Z" transform="translate(167.07430376075217,373.0293228216319)" style="opacity: 1; stroke-width: 0.5px; fill: rgb(255, 255, 255); fill-opacity: 1; stroke: rgb(0, 0, 0); stroke-opacity: 1;"/><path class="point" d="M2.5,0A2.5,2.5 0 1,1 0,-2.5A2.5,2.5 0 0,1 2.5,0Z" transform="translate(175.104349769954,455.971375077017)" style="opacity: 1; stroke-width: 0.5px; fill: rgb(255, 255, 255); fill-opacity: 1; stroke: rgb(0, 0, 0); stroke-opacity: 1;"/><path class="point" d="M2.5,0A2.5,2.5 0 1,1 0,-2.5A2.5,2.5 0 0,1 2.5,0Z" transform="translate(194.23793648729747,348.1115442645123)" style="opacity: 1; stroke-width: 0.5px; fill: rgb(255, 255, 255); fill-opacity: 1; stroke: rgb(0, 0, 0); stroke-opacity: 1;"/><path class="point" d="M2.5,0A2.5,2.5 0 1,1 0,-2.5A2.5,2.5 0 0,1 2.5,0Z" transform="translate(94.71731236247251,314.34825703748356)" style="opacity: 1; stroke-width: 0.5px; fill: rgb(255, 255, 255); fill-opacity: 1; stroke: rgb(0, 0, 0); stroke-opacity: 1;"/><path class="point" d="M2.5,0A2.5,2.5 0 1,1 0,-2.5A2.5,2.5 0 0,1 2.5,0Z" transform="translate(160.93813652730552,468.6573949692993)" style="opacity: 1; stroke-width: 0.5px; fill: rgb(255, 255, 255); fill-opacity: 1; stroke: rgb(0, 0, 0); stroke-opacity: 1;"/><path class="point" d="M2.5,0A2.5,2.5 0 1,1 0,-2.5A2.5,2.5 0 0,1 2.5,0Z" transform="translate(92.25526995399082,287.1577494047906)" style="opacity: 1; stroke-width: 0.5px; fill: rgb(255, 255, 255); fill-opacity: 1; stroke: rgb(0, 0, 0); stroke-opacity: 1;"/><path class="point" d="M2.5,0A2.5,2.5 0 1,1 0,-2.5A2.5,2.5 0 0,1 2.5,0Z" transform="translate(164.55273944788956,142.71331904777117)" style="opacity: 1; stroke-width: 0.5px; fill: rgb(255, 255, 255); fill-opacity: 1; stroke: rgb(0, 0, 0); stroke-opacity: 1;"/><path class="point" d="M2.5,0A2.5,2.5 0 1,1 0,-2.5A2.5,2.5 0 0,1 2.5,0Z" transform="translate(215.99589807961598,538.8440753620398)" style="opacity: 1; stroke-width: 0.5px; fill: rgb(255, 255, 255); fill-opacity: 1; stroke: rgb(0, 0, 0); stroke-opacity: 1;"/><path class="point" d="M2.5,0A2.5,2.5 0 1,1 0,-2.5A2.5,2.5 0 0,1 2.5,0Z" transform="translate(82.22312352470499,311.5857493390081)" style="opacity: 1; stroke-width: 0.5px; fill: rgb(255, 255, 255); fill-opacity: 1; stroke: rgb(0, 0, 0); stroke-opacity: 1;"/><path class="point" d="M2.5,0A2.5,2.5 0 1,1 0,-2.5A2.5,2.5 0 0,1 2.5,0Z" transform="translate(49.36703230646134,348.1543297326207)" style="opacity: 1; stroke-width: 0.5px; fill: rgb(255, 255, 255); fill-opacity: 1; stroke: rgb(0, 0, 0); stroke-opacity: 1;"/><path class="point" d="M2.5,0A2.5,2.5 0 1,1 0,-2.5A2.5,2.5 0 0,1 2.5,0Z" transform="translate(278.1475884176836,330.5995703696267)" style="opacity: 1; stroke-width: 0.5px; fill: rgb(255, 255, 255); fill-opacity: 1; stroke: rgb(0, 0, 0); stroke-opacity: 1;"/><path class="point" d="M2.5,0A2.5,2.5 0 1,1 0,-2.5A2.5,2.5 0 0,1 2.5,0Z" transform="translate(79.25785047009401,290.38010723986145)" style="opacity: 1; stroke-width: 0.5px; fill: rgb(255, 255, 255); fill-opacity: 1; stroke: rgb(0, 0, 0); stroke-opacity: 1;"/><path class="point" d="M2.5,0A2.5,2.5 0 1,1 0,-2.5A2.5,2.5 0 0,1 2.5,0Z" transform="translate(192.83646619323866,383.20439352824224)" style="opacity: 1; stroke-width: 0.5px; fill: rgb(255, 255, 255); fill-opacity: 1; stroke: rgb(0, 0, 0); stroke-opacity: 1;"/><path class="point" d="M2.5,0A2.5,2.5 0 1,1 0,-2.5A2.5,2.5 0 0,1 2.5,0Z" transform="translate(303.3632315463093,204.57821115941078)" style="opacity: 1; stroke-width: 0.5px; fill: rgb(255, 255, 255); fill-opacity: 1; stroke: rgb(0, 0, 0); stroke-opacity: 1;"/><path class="point" d="M2.5,0A2.5,2.5 0 1,1 0,-2.5A2.5,2.5 0 0,1 2.5,0Z" transform="translate(257.6612311462293,432.24885512209175)" style="opacity: 1; stroke-width: 0.5px; fill: rgb(255, 255, 255); fill-opacity: 1; stroke: rgb(0, 0, 0); stroke-opacity: 1;"/><path class="point" d="M2.5,0A2.5,2.5 0 1,1 0,-2.5A2.5,2.5 0 0,1 2.5,0Z" transform="translate(199.1133215643129,556.6793931399338)" style="opacity: 1; stroke-width: 0.5px; fill: rgb(255, 255, 255); fill-opacity: 1; stroke: rgb(0, 0, 0); stroke-opacity: 1;"/></g></g></g></g></g><g class="funnelarealayer"/><g class="pielayer"/><g class="iciclelayer"/><g class="treemaplayer"/><g class="sunburstlayer"/><g class="glimages"/><defs id="topdefs-5d38c5"><g class="clips"/><clipPath id="legend5d38c5"><rect width="161" height="171" x="0.5" y="0.5"/></clipPath></defs><g class="layer-above"><g class="imagelayer"/><g class="shapelayer"><g class="shape-group" data-index="0"><path data-index="0" fill-rule="evenodd" d="M5,695H546V5H5Z" style="opacity: 1; stroke: rgb(0, 0, 0); stroke-opacity: 1; fill: rgb(0, 0, 0); fill-opacity: 0; stroke-width: 1px;"/></g></g></g><g class="infolayer"><g class="legend" pointer-events="all" transform="translate(378.59000000000003,516.1)"><rect class="bg" shape-rendering="crispEdges" style="stroke: rgb(0, 0, 0); stroke-opacity: 1; fill: rgb(255, 255, 255); fill-opacity: 1; stroke-width: 0.5px;" width="161.5" height="171.5" x="0.25" y="0.25"/><g class="scrollbox" transform="" clip-path="url(#legend5d38c5)"><text class="legendtitletext" text-anchor="start" x="2.5" y="21.3" style="font-family: Arial; font-size: 16px; fill: rgb(0, 0, 0); fill-opacity: 1; white-space: pre;"><tspan class="line" dy="0em" x="2.5" y="21.3">  Number of samples  </tspan><tspan class="line" dy="1.3em" x="2.5" y="21.3">  per city      </tspan></text><g class="groups"><g class="traces" transform="translate(0.5,59)" style="opacity: 1;"><text class="legendtext" text-anchor="start" x="40" y="6.24" style="font-family: Arial; font-size: 16px; fill: rgb(0, 0, 0); fill-opacity: 1; white-space: pre;">> 20000</text><g class="layers" style="opacity: 1;"><g class="legendfill"/><g class="legendlines"/><g class="legendsymbols"><g class="legendpoints"><path class="scatterpts" transform="translate(20,0)" d="M8,0A8,8 0 1,1 0,-8A8,8 0 0,1 8,0Z" style="opacity: 1; stroke-width: 0.5px; fill: rgb(0, 0, 0); fill-opacity: 1; stroke: rgb(0, 0, 0); stroke-opacity: 1;"/></g></g></g><rect class="legendtoggle" x="0" y="-11.9" width="143.203125" height="23.8" style="fill: rgb(0, 0, 0); fill-opacity: 0;"/></g><g class="traces" transform="translate(0.5,82.80000000000001)" style="opacity: 1;"><text class="legendtext" text-anchor="start" x="40" y="6.24" style="font-family: Arial; font-size: 16px; fill: rgb(0, 0, 0); fill-opacity: 1; white-space: pre;">10000 - 20000</text><g class="layers" style="opacity: 1;"><g class="legendfill"/><g class="legendlines"/><g class="legendsymbols"><g class="legendpoints"><path class="scatterpts" transform="translate(20,0)" d="M6.5,0A6.5,6.5 0 1,1 0,-6.5A6.5,6.5 0 0,1 6.5,0Z" style="opacity: 1; stroke-width: 0.5px; fill: rgb(128, 128, 128); fill-opacity: 1; stroke: rgb(0, 0, 0); stroke-opacity: 1;"/></g></g></g><rect class="legendtoggle" x="0" y="-11.9" width="143.203125" height="23.8" style="fill: rgb(0, 0, 0); fill-opacity: 0;"/></g><g class="traces" transform="translate(0.5,106.60000000000001)" style="opacity: 1;"><text class="legendtext" text-anchor="start" x="40" y="6.24" style="font-family: Arial; font-size: 16px; fill: rgb(0, 0, 0); fill-opacity: 1; white-space: pre;">5000 - 10000</text><g class="layers" style="opacity: 1;"><g class="legendfill"/><g class="legendlines"/><g class="legendsymbols"><g class="legendpoints"><path class="scatterpts" transform="translate(20,0)" d="M5,0A5,5 0 1,1 0,-5A5,5 0 0,1 5,0Z" style="opacity: 1; stroke-width: 0.5px; fill: rgb(169, 169, 169); fill-opacity: 1; stroke: rgb(0, 0, 0); stroke-opacity: 1;"/></g></g></g><rect class="legendtoggle" x="0" y="-11.9" width="143.203125" height="23.8" style="fill: rgb(0, 0, 0); fill-opacity: 0;"/></g><g class="traces" transform="translate(0.5,130.4)" style="opacity: 1;"><text class="legendtext" text-anchor="start" x="40" y="6.24" style="font-family: Arial; font-size: 16px; fill: rgb(0, 0, 0); fill-opacity: 1; white-space: pre;">1000 - 5000</text><g class="layers" style="opacity: 1;"><g class="legendfill"/><g class="legendlines"/><g class="legendsymbols"><g class="legendpoints"><path class="scatterpts" transform="translate(20,0)" d="M4,0A4,4 0 1,1 0,-4A4,4 0 0,1 4,0Z" style="opacity: 1; stroke-width: 0.5px; fill: rgb(211, 211, 211); fill-opacity: 1; stroke: rgb(0, 0, 0); stroke-opacity: 1;"/></g></g></g><rect class="legendtoggle" x="0" y="-11.9" width="143.203125" height="23.8" style="fill: rgb(0, 0, 0); fill-opacity: 0;"/></g><g class="traces" transform="translate(0.5,154.20000000000002)" style="opacity: 1;"><text class="legendtext" text-anchor="start" x="40" y="6.24" style="font-family: Arial; font-size: 16px; fill: rgb(0, 0, 0); fill-opacity: 1; white-space: pre;">1 - 1000</text><g class="layers" style="opacity: 1;"><g class="legendfill"/><g class="legendlines"/><g class="legendsymbols"><g class="legendpoints"><path class="scatterpts" transform="translate(20,0)" d="M2.5,0A2.5,2.5 0 1,1 0,-2.5A2.5,2.5 0 0,1 2.5,0Z" style="opacity: 1; stroke-width: 0.5px; fill: rgb(255, 255, 255); fill-opacity: 1; stroke: rgb(0, 0, 0); stroke-opacity: 1;"/></g></g></g><rect class="legendtoggle" x="0" y="-11.9" width="143.203125" height="23.8" style="fill: rgb(0, 0, 0); fill-opacity: 0;"/></g></g></g><rect class="scrollbar" rx="20" ry="3" width="0" height="0" style="fill: rgb(128, 139, 164); fill-opacity: 1;" x="0" y="0"/></g><g class="g-gtitle"/></g></svg>