<svg class="main-svg" xmlns="http://www.w3.org/2000/svg" xmlns:xlink="http://www.w3.org/1999/xlink" width="1000" height="800" style="" viewBox="0 0 1000 800"><rect x="0" y="0" width="1000" height="800" style="fill: rgb(255, 255, 255); fill-opacity: 1;"/><defs id="defs-a12444"><g class="clips"><clipPath id="clipa12444xyplot" class="plotclip"><rect width="840" height="660"/></clipPath><clipPath class="axesclip" id="clipa12444x"><rect x="80" y="0" width="840" height="800"/></clipPath><clipPath class="axesclip" id="clipa12444y"><rect x="0" y="60" width="1000" height="660"/></clipPath><clipPath class="axesclip" id="clipa12444xy"><rect x="80" y="60" width="840" height="660"/></clipPath></g><g class="gradients"/><g class="patterns"/></defs><g class="bglayer"/><g class="layer-below"><g class="imagelayer"/><g class="shapelayer"/></g><g class="cartesianlayer"><g class="subplot xy"><g class="layer-subplot"><g class="shapelayer"/><g class="imagelayer"/></g><g class="minor-gridlayer"><g class="x"/><g class="y"/></g><g class="gridlayer"><g class="x"/><g class="y"><path class="ygrid crisp" transform="translate(0,605.27)" d="M80,0h840" style="stroke: rgb(238, 238, 238); stroke-opacity: 1; stroke-width: 1px;"/><path class="ygrid crisp" transform="translate(0,490.55)" d="M80,0h840" style="stroke: rgb(238, 238, 238); stroke-opacity: 1; stroke-width: 1px;"/><path class="ygrid crisp" transform="translate(0,375.82)" d="M80,0h840" style="stroke: rgb(238, 238, 238); stroke-opacity: 1; stroke-width: 1px;"/><path class="ygrid crisp" transform="translate(0,261.1)" d="M80,0h840" style="stroke: rgb(238, 238, 238); stroke-opacity: 1; stroke-width: 1px;"/><path class="ygrid crisp" transform="translate(0,146.37)" d="M80,0h840" style="stroke: rgb(238, 238, 238); stroke-opacity: 1; stroke-width: 1px;"/></g></g><g class="zerolinelayer"><path class="yzl zl crisp" transform="translate(0,720)" d="M80,0h840" style="stroke: rgb(68, 68, 68); stroke-opacity: 1; stroke-width: 1px;"/></g><g class="layer-between"><g class="shapelayer"/><g class="imagelayer"/></g><path class="xlines-below"/><path class="ylines-below"/><g class="overlines-below"/><g class="xaxislayer-below"/><g class="yaxislayer-below"/><g class="overaxes-below"/><g class="overplot"><g class="xy" transform="translate(80,60)" clip-path="url(#clipa12444xyplot)"><g class="barlayer mlayer"><g class="trace bars" style="opacity: 1;"><g class="points"><g class="point"><path d="M2.77,660V655.19H24.96V660Z" style="vector-effect: none; opacity: 1; stroke-width: 0px; fill: rgb(171, 99, 250); fill-opacity: 1;"/></g><g class="point"><path d="M182.07,660V657.01H204.25V660Z" style="vector-effect: none; opacity: 1; stroke-width: 0px; fill: rgb(171, 99, 250); fill-opacity: 1;"/></g><g class="point"><path d="M121.64,660V464.67H143.83V660Z" style="vector-effect: none; opacity: 1; stroke-width: 0px; fill: rgb(171, 99, 250); fill-opacity: 1;"/></g><g class="point"><path d="M212.77,660V659.23H234.96V660Z" style="vector-effect: none; opacity: 1; stroke-width: 0px; fill: rgb(171, 99, 250); fill-opacity: 1;"/></g><g class="point"><path d="M243.48,660V659.87H265.67V660Z" style="vector-effect: none; opacity: 1; stroke-width: 0px; fill: rgb(171, 99, 250); fill-opacity: 1;"/></g><g class="point"><path d="M273.2,660V659.97H295.39V660Z" style="vector-effect: none; opacity: 1; stroke-width: 0px; fill: rgb(171, 99, 250); fill-opacity: 1;"/></g><g class="point"><path d="M91.92,660V347.11H114.11V660Z" style="vector-effect: none; opacity: 1; stroke-width: 0px; fill: rgb(171, 99, 250); fill-opacity: 1;"/></g><g class="point"><path d="M303.91,660V659.98H326.09V660Z" style="vector-effect: none; opacity: 1; stroke-width: 0px; fill: rgb(171, 99, 250); fill-opacity: 1;"/></g><g class="point"><path d="M364.33,660V659.99H386.52V660Z" style="vector-effect: none; opacity: 1; stroke-width: 0px; fill: rgb(171, 99, 250); fill-opacity: 1;"/></g><g class="point"><path d="M61.22,660V440.8H83.41V660Z" style="vector-effect: none; opacity: 1; stroke-width: 0px; fill: rgb(171, 99, 250); fill-opacity: 1;"/></g><g class="point"><path d="M395.04,660V659.99H417.23V660Z" style="vector-effect: none; opacity: 1; stroke-width: 0px; fill: rgb(171, 99, 250); fill-opacity: 1;"/></g><g class="point"><path d="M333.62,660V659.98H355.81V660Z" style="vector-effect: none; opacity: 1; stroke-width: 0px; fill: rgb(171, 99, 250); fill-opacity: 1;"/></g><g class="point"><path d="M152.35,660V617.83H174.54V660Z" style="vector-effect: none; opacity: 1; stroke-width: 0px; fill: rgb(171, 99, 250); fill-opacity: 1;"/></g><g class="point"><path d="M33.48,660V598.47H55.67V660Z" style="vector-effect: none; opacity: 1; stroke-width: 0px; fill: rgb(171, 99, 250); fill-opacity: 1;"/></g><g class="point"><path d="M422.77,660V659.99H444.96V660Z" style="vector-effect: none; opacity: 1; stroke-width: 0px; fill: rgb(171, 99, 250); fill-opacity: 1;"/></g></g></g><g class="trace bars" style="opacity: 1;"><g class="points"><g class="point"><path d="M605.04,660V659.9H627.23V660Z" style="vector-effect: none; opacity: 1; stroke-width: 0px; fill: rgb(255, 161, 90); fill-opacity: 1;"/></g><g class="point"><path d="M182.07,657.01V589.6H204.25V657.01Z" style="vector-effect: none; opacity: 1; stroke-width: 0px; fill: rgb(255, 161, 90); fill-opacity: 1;"/></g><g class="point"><path d="M152.35,617.83V600.34H174.54V617.83Z" style="vector-effect: none; opacity: 1; stroke-width: 0px; fill: rgb(255, 161, 90); fill-opacity: 1;"/></g><g class="point"><path d="M395.04,659.99V658.38H417.23V659.99Z" style="vector-effect: none; opacity: 1; stroke-width: 0px; fill: rgb(255, 161, 90); fill-opacity: 1;"/></g><g class="point"><path d="M243.48,659.87V374.91H265.67V659.87Z" style="vector-effect: none; opacity: 1; stroke-width: 0px; fill: rgb(255, 161, 90); fill-opacity: 1;"/></g><g class="point"><path d="M513.91,660V659.98H536.09V660Z" style="vector-effect: none; opacity: 1; stroke-width: 0px; fill: rgb(255, 161, 90); fill-opacity: 1;"/></g><g class="point"><path d="M303.91,659.98V318.71H326.09V659.98Z" style="vector-effect: none; opacity: 1; stroke-width: 0px; fill: rgb(255, 161, 90); fill-opacity: 1;"/></g><g class="point"><path d="M333.62,659.98V331.55H355.81V659.98Z" style="vector-effect: none; opacity: 1; stroke-width: 0px; fill: rgb(255, 161, 90); fill-opacity: 1;"/></g><g class="point"><path d="M453.48,660V659.94H475.67V660Z" style="vector-effect: none; opacity: 1; stroke-width: 0px; fill: rgb(255, 161, 90); fill-opacity: 1;"/></g><g class="point"><path d="M364.33,659.99V597.5H386.52V659.99Z" style="vector-effect: none; opacity: 1; stroke-width: 0px; fill: rgb(255, 161, 90); fill-opacity: 1;"/></g><g class="point"><path d="M422.77,659.99V659.87H444.96V659.99Z" style="vector-effect: none; opacity: 1; stroke-width: 0px; fill: rgb(255, 161, 90); fill-opacity: 1;"/></g><g class="point"><path d="M574.33,660V659.98H596.52V660Z" style="vector-effect: none; opacity: 1; stroke-width: 0px; fill: rgb(255, 161, 90); fill-opacity: 1;"/></g><g class="point"><path d="M273.2,659.97V428.62H295.39V659.97Z" style="vector-effect: none; opacity: 1; stroke-width: 0px; fill: rgb(255, 161, 90); fill-opacity: 1;"/></g><g class="point"><path d="M212.77,659.23V444.52H234.96V659.23Z" style="vector-effect: none; opacity: 1; stroke-width: 0px; fill: rgb(255, 161, 90); fill-opacity: 1;"/></g><g class="point"><path d="M121.64,464.67V459.55H143.83V464.67Z" style="vector-effect: none; opacity: 1; stroke-width: 0px; fill: rgb(255, 161, 90); fill-opacity: 1;"/></g><g class="point"><path d="M61.22,440.8V440.78H83.41V440.8Z" style="vector-effect: none; opacity: 1; stroke-width: 0px; fill: rgb(255, 161, 90); fill-opacity: 1;"/></g><g class="point"><path d="M33.48,598.47V598.46H55.67V598.47Z" style="vector-effect: none; opacity: 1; stroke-width: 0px; fill: rgb(255, 161, 90); fill-opacity: 1;"/></g><g class="point"><path d="M91.92,347.11V346.06H114.11V347.11Z" style="vector-effect: none; opacity: 1; stroke-width: 0px; fill: rgb(255, 161, 90); fill-opacity: 1;"/></g><g class="point"><path d="M2.77,655.19V655.15H24.96V655.19Z" style="vector-effect: none; opacity: 1; stroke-width: 0px; fill: rgb(255, 161, 90); fill-opacity: 1;"/></g></g></g><g class="trace bars" style="opacity: 1;"><g class="points"><g class="point"><path d="M513.91,659.98V369.78H536.09V659.98Z" style="vector-effect: none; opacity: 1; stroke-width: 0px; fill: rgb(25, 211, 243); fill-opacity: 1;"/></g><g class="point"><path d="M483.2,660V355.55H505.39V660Z" style="vector-effect: none; opacity: 1; stroke-width: 0px; fill: rgb(25, 211, 243); fill-opacity: 1;"/></g><g class="point"><path d="M543.62,660V408.65H565.81V660Z" style="vector-effect: none; opacity: 1; stroke-width: 0px; fill: rgb(25, 211, 243); fill-opacity: 1;"/></g><g class="point"><path d="M0,0Z" style="vector-effect: none; opacity: 1; stroke-width: 0px; fill: rgb(25, 211, 243); fill-opacity: 1;"/></g><g class="point"><path d="M634.75,660V474.67H656.94V660Z" style="vector-effect: none; opacity: 1; stroke-width: 0px; fill: rgb(25, 211, 243); fill-opacity: 1;"/></g><g class="point"><path d="M665.46,660V523.73H687.65V660Z" style="vector-effect: none; opacity: 1; stroke-width: 0px; fill: rgb(25, 211, 243); fill-opacity: 1;"/></g><g class="point"><path d="M695.18,660V519.44H717.37V660Z" style="vector-effect: none; opacity: 1; stroke-width: 0px; fill: rgb(25, 211, 243); fill-opacity: 1;"/></g><g class="point"><path d="M725.89,660V566.03H748.08V660Z" style="vector-effect: none; opacity: 1; stroke-width: 0px; fill: rgb(25, 211, 243); fill-opacity: 1;"/></g><g class="point"><path d="M756.59,660V597.61H778.78V660Z" style="vector-effect: none; opacity: 1; stroke-width: 0px; fill: rgb(25, 211, 243); fill-opacity: 1;"/></g><g class="point"><path d="M784.33,660V637.91H806.52V660Z" style="vector-effect: none; opacity: 1; stroke-width: 0px; fill: rgb(25, 211, 243); fill-opacity: 1;"/></g><g class="point"><path d="M574.33,659.98V504.9H596.52V659.98Z" style="vector-effect: none; opacity: 1; stroke-width: 0px; fill: rgb(25, 211, 243); fill-opacity: 1;"/></g><g class="point"><path d="M605.04,659.9V493.47H627.23V659.9Z" style="vector-effect: none; opacity: 1; stroke-width: 0px; fill: rgb(25, 211, 243); fill-opacity: 1;"/></g><g class="point"><path d="M453.48,659.94V231.53H475.67V659.94Z" style="vector-effect: none; opacity: 1; stroke-width: 0px; fill: rgb(25, 211, 243); fill-opacity: 1;"/></g><g class="point"><path d="M815.04,660V656.69H837.23V660Z" style="vector-effect: none; opacity: 1; stroke-width: 0px; fill: rgb(25, 211, 243); fill-opacity: 1;"/></g><g class="point"><path d="M333.62,331.55V242.47H355.81V331.55Z" style="vector-effect: none; opacity: 1; stroke-width: 0px; fill: rgb(25, 211, 243); fill-opacity: 1;"/></g><g class="point"><path d="M422.77,659.87V37.89H444.96V659.87Z" style="vector-effect: none; opacity: 1; stroke-width: 0px; fill: rgb(25, 211, 243); fill-opacity: 1;"/></g><g class="point"><path d="M273.2,428.62V428.57H295.39V428.62Z" style="vector-effect: none; opacity: 1; stroke-width: 0px; fill: rgb(25, 211, 243); fill-opacity: 1;"/></g><g class="point"><path d="M364.33,597.5V107.07H386.52V597.5Z" style="vector-effect: none; opacity: 1; stroke-width: 0px; fill: rgb(25, 211, 243); fill-opacity: 1;"/></g><g class="point"><path d="M395.04,658.38V102.64H417.23V658.38Z" style="vector-effect: none; opacity: 1; stroke-width: 0px; fill: rgb(25, 211, 243); fill-opacity: 1;"/></g><g class="point"><path d="M303.91,318.71V317.98H326.09V318.71Z" style="vector-effect: none; opacity: 1; stroke-width: 0px; fill: rgb(25, 211, 243); fill-opacity: 1;"/></g></g></g><g class="trace bars" style="opacity: 1;"><g class="points"><g class="point"><path d="M605.04,493.47V493.46H627.23V493.47Z" style="vector-effect: none; opacity: 1; stroke-width: 0px; fill: rgb(255, 102, 146); fill-opacity: 1;"/></g><g class="point"><path d="M91.92,346.06V340.56H114.11V346.06Z" style="vector-effect: none; opacity: 1; stroke-width: 0px; fill: rgb(255, 102, 146); fill-opacity: 1;"/></g><g class="point"><path d="M33.48,598.46V595.67H55.67V598.46Z" style="vector-effect: none; opacity: 1; stroke-width: 0px; fill: rgb(255, 102, 146); fill-opacity: 1;"/></g><g class="point"><path d="M303.91,317.98V317.97H326.09V317.98Z" style="vector-effect: none; opacity: 1; stroke-width: 0px; fill: rgb(255, 102, 146); fill-opacity: 1;"/></g><g class="point"><path d="M243.48,374.91V374.88H265.67V374.91Z" style="vector-effect: none; opacity: 1; stroke-width: 0px; fill: rgb(255, 102, 146); fill-opacity: 1;"/></g><g class="point"><path d="M182.07,589.6V589.54H204.25V589.6Z" style="vector-effect: none; opacity: 1; stroke-width: 0px; fill: rgb(255, 102, 146); fill-opacity: 1;"/></g><g class="point"><path d="M121.64,459.55V456.73H143.83V459.55Z" style="vector-effect: none; opacity: 1; stroke-width: 0px; fill: rgb(255, 102, 146); fill-opacity: 1;"/></g><g class="point"><path d="M0,0Z" style="vector-effect: none; opacity: 1; stroke-width: 0px; fill: rgb(255, 102, 146); fill-opacity: 1;"/></g><g class="point"><path d="M2.77,655.15V654.5H24.96V655.15Z" style="vector-effect: none; opacity: 1; stroke-width: 0px; fill: rgb(255, 102, 146); fill-opacity: 1;"/></g><g class="point"><path d="M61.22,440.78V434.4H83.41V440.78Z" style="vector-effect: none; opacity: 1; stroke-width: 0px; fill: rgb(255, 102, 146); fill-opacity: 1;"/></g><g class="point"><path d="M422.77,37.89V37.88H444.96V37.89Z" style="vector-effect: none; opacity: 1; stroke-width: 0px; fill: rgb(255, 102, 146); fill-opacity: 1;"/></g><g class="point"><path d="M152.35,600.34V600H174.54V600.34Z" style="vector-effect: none; opacity: 1; stroke-width: 0px; fill: rgb(255, 102, 146); fill-opacity: 1;"/></g><g class="point"><path d="M0,0Z" style="vector-effect: none; opacity: 1; stroke-width: 0px; fill: rgb(255, 102, 146); fill-opacity: 1;"/></g><g class="point"><path d="M33.48,595.67V595.64H55.67V595.67Z" style="vector-effect: none; opacity: 1; stroke-width: 0px; fill: rgb(255, 102, 146); fill-opacity: 1;"/></g><g class="point"><path d="M61.22,434.4V434.36H83.41V434.4Z" style="vector-effect: none; opacity: 1; stroke-width: 0px; fill: rgb(255, 102, 146); fill-opacity: 1;"/></g><g class="point"><path d="M121.64,456.73V456.72H143.83V456.73Z" style="vector-effect: none; opacity: 1; stroke-width: 0px; fill: rgb(255, 102, 146); fill-opacity: 1;"/></g><g class="point"><path d="M0,0Z" style="vector-effect: none; opacity: 1; stroke-width: 0px; fill: rgb(255, 102, 146); fill-opacity: 1;"/></g><g class="point"><path d="M0,0Z" style="vector-effect: none; opacity: 1; stroke-width: 0px; fill: rgb(255, 102, 146); fill-opacity: 1;"/></g><g class="point"><path d="M243.48,374.88V374.87H265.67V374.88Z" style="vector-effect: none; opacity: 1; stroke-width: 0px; fill: rgb(255, 102, 146); fill-opacity: 1;"/></g><g class="point"><path d="M33.48,595.64V595.13H55.67V595.64Z" style="vector-effect: none; opacity: 1; stroke-width: 0px; fill: rgb(255, 102, 146); fill-opacity: 1;"/></g><g class="point"><path d="M61.22,434.36V432.42H83.41V434.36Z" style="vector-effect: none; opacity: 1; stroke-width: 0px; fill: rgb(255, 102, 146); fill-opacity: 1;"/></g><g class="point"><path d="M2.77,654.5V654.46H24.96V654.5Z" style="vector-effect: none; opacity: 1; stroke-width: 0px; fill: rgb(255, 102, 146); fill-opacity: 1;"/></g><g class="point"><path d="M0,0Z" style="vector-effect: none; opacity: 1; stroke-width: 0px; fill: rgb(255, 102, 146); fill-opacity: 1;"/></g><g class="point"><path d="M152.35,600V599.56H174.54V600Z" style="vector-effect: none; opacity: 1; stroke-width: 0px; fill: rgb(255, 102, 146); fill-opacity: 1;"/></g><g class="point"><path d="M121.64,456.72V455.32H143.83V456.72Z" style="vector-effect: none; opacity: 1; stroke-width: 0px; fill: rgb(255, 102, 146); fill-opacity: 1;"/></g><g class="point"><path d="M91.92,340.56V338.57H114.11V340.56Z" style="vector-effect: none; opacity: 1; stroke-width: 0px; fill: rgb(255, 102, 146); fill-opacity: 1;"/></g><g class="point"><path d="M212.77,444.52V444.44H234.96V444.52Z" style="vector-effect: none; opacity: 1; stroke-width: 0px; fill: rgb(255, 102, 146); fill-opacity: 1;"/></g><g class="point"><path d="M273.2,428.57V428.53H295.39V428.57Z" style="vector-effect: none; opacity: 1; stroke-width: 0px; fill: rgb(255, 102, 146); fill-opacity: 1;"/></g><g class="point"><path d="M91.92,338.57V336.82H114.11V338.57Z" style="vector-effect: none; opacity: 1; stroke-width: 0px; fill: rgb(255, 102, 146); fill-opacity: 1;"/></g><g class="point"><path d="M61.22,432.42V431.97H83.41V432.42Z" style="vector-effect: none; opacity: 1; stroke-width: 0px; fill: rgb(255, 102, 146); fill-opacity: 1;"/></g><g class="point"><path d="M33.48,595.13V594.88H55.67V595.13Z" style="vector-effect: none; opacity: 1; stroke-width: 0px; fill: rgb(255, 102, 146); fill-opacity: 1;"/></g><g class="point"><path d="M152.35,599.56V598.44H174.54V599.56Z" style="vector-effect: none; opacity: 1; stroke-width: 0px; fill: rgb(255, 102, 146); fill-opacity: 1;"/></g><g class="point"><path d="M121.64,455.32V453.44H143.83V455.32Z" style="vector-effect: none; opacity: 1; stroke-width: 0px; fill: rgb(255, 102, 146); fill-opacity: 1;"/></g><g class="point"><path d="M2.77,654.46V654.45H24.96V654.46Z" style="vector-effect: none; opacity: 1; stroke-width: 0px; fill: rgb(255, 102, 146); fill-opacity: 1;"/></g><g class="point"><path d="M182.07,589.54V588.58H204.25V589.54Z" style="vector-effect: none; opacity: 1; stroke-width: 0px; fill: rgb(255, 102, 146); fill-opacity: 1;"/></g><g class="point"><path d="M243.48,374.87V374.84H265.67V374.87Z" style="vector-effect: none; opacity: 1; stroke-width: 0px; fill: rgb(255, 102, 146); fill-opacity: 1;"/></g><g class="point"><path d="M121.64,453.44V453.37H143.83V453.44Z" style="vector-effect: none; opacity: 1; stroke-width: 0px; fill: rgb(255, 102, 146); fill-opacity: 1;"/></g><g class="point"><path d="M61.22,431.97V431.95H83.41V431.97Z" style="vector-effect: none; opacity: 1; stroke-width: 0px; fill: rgb(255, 102, 146); fill-opacity: 1;"/></g><g class="point"><path d="M33.48,594.88V594.87H55.67V594.88Z" style="vector-effect: none; opacity: 1; stroke-width: 0px; fill: rgb(255, 102, 146); fill-opacity: 1;"/></g><g class="point"><path d="M152.35,598.44V598.41H174.54V598.44Z" style="vector-effect: none; opacity: 1; stroke-width: 0px; fill: rgb(255, 102, 146); fill-opacity: 1;"/></g><g class="point"><path d="M91.92,336.82V336.74H114.11V336.82Z" style="vector-effect: none; opacity: 1; stroke-width: 0px; fill: rgb(255, 102, 146); fill-opacity: 1;"/></g><g class="point"><path d="M61.22,431.95V431.9H83.41V431.95Z" style="vector-effect: none; opacity: 1; stroke-width: 0px; fill: rgb(255, 102, 146); fill-opacity: 1;"/></g><g class="point"><path d="M121.64,453.37V453.11H143.83V453.37Z" style="vector-effect: none; opacity: 1; stroke-width: 0px; fill: rgb(255, 102, 146); fill-opacity: 1;"/></g><g class="point"><path d="M91.92,336.74V336.31H114.11V336.74Z" style="vector-effect: none; opacity: 1; stroke-width: 0px; fill: rgb(255, 102, 146); fill-opacity: 1;"/></g><g class="point"><path d="M152.35,598.41V598.39H174.54V598.41Z" style="vector-effect: none; opacity: 1; stroke-width: 0px; fill: rgb(255, 102, 146); fill-opacity: 1;"/></g><g class="point"><path d="M182.07,588.58V588.54H204.25V588.58Z" style="vector-effect: none; opacity: 1; stroke-width: 0px; fill: rgb(255, 102, 146); fill-opacity: 1;"/></g><g class="point"><path d="M121.64,453.11V452.85H143.83V453.11Z" style="vector-effect: none; opacity: 1; stroke-width: 0px; fill: rgb(255, 102, 146); fill-opacity: 1;"/></g><g class="point"><path d="M152.35,598.39V598.27H174.54V598.39Z" style="vector-effect: none; opacity: 1; stroke-width: 0px; fill: rgb(255, 102, 146); fill-opacity: 1;"/></g><g class="point"><path d="M33.48,594.87V594.73H55.67V594.87Z" style="vector-effect: none; opacity: 1; stroke-width: 0px; fill: rgb(255, 102, 146); fill-opacity: 1;"/></g><g class="point"><path d="M61.22,431.9V431.68H83.41V431.9Z" style="vector-effect: none; opacity: 1; stroke-width: 0px; fill: rgb(255, 102, 146); fill-opacity: 1;"/></g><g class="point"><path d="M91.92,336.31V336.13H114.11V336.31Z" style="vector-effect: none; opacity: 1; stroke-width: 0px; fill: rgb(255, 102, 146); fill-opacity: 1;"/></g><g class="point"><path d="M182.07,588.54V588.4H204.25V588.54Z" style="vector-effect: none; opacity: 1; stroke-width: 0px; fill: rgb(255, 102, 146); fill-opacity: 1;"/></g><g class="point"><path d="M152.35,598.27V597.73H174.54V598.27Z" style="vector-effect: none; opacity: 1; stroke-width: 0px; fill: rgb(255, 102, 146); fill-opacity: 1;"/></g><g class="point"><path d="M91.92,336.13V336.09H114.11V336.13Z" style="vector-effect: none; opacity: 1; stroke-width: 0px; fill: rgb(255, 102, 146); fill-opacity: 1;"/></g><g class="point"><path d="M212.77,444.44V444.38H234.96V444.44Z" style="vector-effect: none; opacity: 1; stroke-width: 0px; fill: rgb(255, 102, 146); fill-opacity: 1;"/></g><g class="point"><path d="M243.48,374.84V374.77H265.67V374.84Z" style="vector-effect: none; opacity: 1; stroke-width: 0px; fill: rgb(255, 102, 146); fill-opacity: 1;"/></g><g class="point"><path d="M121.64,452.85V452.61H143.83V452.85Z" style="vector-effect: none; opacity: 1; stroke-width: 0px; fill: rgb(255, 102, 146); fill-opacity: 1;"/></g><g class="point"><path d="M91.92,336.09V336.07H114.11V336.09Z" style="vector-effect: none; opacity: 1; stroke-width: 0px; fill: rgb(255, 102, 146); fill-opacity: 1;"/></g><g class="point"><path d="M121.64,452.61V452.6H143.83V452.61Z" style="vector-effect: none; opacity: 1; stroke-width: 0px; fill: rgb(255, 102, 146); fill-opacity: 1;"/></g><g class="point"><path d="M61.22,431.68V431.56H83.41V431.68Z" style="vector-effect: none; opacity: 1; stroke-width: 0px; fill: rgb(255, 102, 146); fill-opacity: 1;"/></g><g class="point"><path d="M33.48,594.73V594.72H55.67V594.73Z" style="vector-effect: none; opacity: 1; stroke-width: 0px; fill: rgb(255, 102, 146); fill-opacity: 1;"/></g><g class="point"><path d="M152.35,597.73V597.72H174.54V597.73Z" style="vector-effect: none; opacity: 1; stroke-width: 0px; fill: rgb(255, 102, 146); fill-opacity: 1;"/></g><g class="point"><path d="M695.18,519.44V517.96H717.37V519.44Z" style="vector-effect: none; opacity: 1; stroke-width: 0px; fill: rgb(255, 102, 146); fill-opacity: 1;"/></g><g class="point"><path d="M212.77,444.38V444.37H234.96V444.38Z" style="vector-effect: none; opacity: 1; stroke-width: 0px; fill: rgb(255, 102, 146); fill-opacity: 1;"/></g><g class="point"><path d="M756.59,597.61V593.1H778.78V597.61Z" style="vector-effect: none; opacity: 1; stroke-width: 0px; fill: rgb(255, 102, 146); fill-opacity: 1;"/></g><g class="point"><path d="M243.48,374.77V374.76H265.67V374.77Z" style="vector-effect: none; opacity: 1; stroke-width: 0px; fill: rgb(255, 102, 146); fill-opacity: 1;"/></g><g class="point"><path d="M784.33,637.91V635.12H806.52V637.91Z" style="vector-effect: none; opacity: 1; stroke-width: 0px; fill: rgb(255, 102, 146); fill-opacity: 1;"/></g><g class="point"><path d="M665.46,523.73V523.2H687.65V523.73Z" style="vector-effect: none; opacity: 1; stroke-width: 0px; fill: rgb(255, 102, 146); fill-opacity: 1;"/></g><g class="point"><path d="M725.89,566.03V563.42H748.08V566.03Z" style="vector-effect: none; opacity: 1; stroke-width: 0px; fill: rgb(255, 102, 146); fill-opacity: 1;"/></g><g class="point"><path d="M422.77,37.88V33.93H444.96V37.88Z" style="vector-effect: none; opacity: 1; stroke-width: 0px; fill: rgb(255, 102, 146); fill-opacity: 1;"/></g><g class="point"><path d="M333.62,242.47V242.46H355.81V242.47Z" style="vector-effect: none; opacity: 1; stroke-width: 0px; fill: rgb(255, 102, 146); fill-opacity: 1;"/></g><g class="point"><path d="M605.04,493.46V493.09H627.23V493.46Z" style="vector-effect: none; opacity: 1; stroke-width: 0px; fill: rgb(255, 102, 146); fill-opacity: 1;"/></g><g class="point"><path d="M574.33,504.9V504.47H596.52V504.9Z" style="vector-effect: none; opacity: 1; stroke-width: 0px; fill: rgb(255, 102, 146); fill-opacity: 1;"/></g><g class="point"><path d="M543.62,408.65V407.64H565.81V408.65Z" style="vector-effect: none; opacity: 1; stroke-width: 0px; fill: rgb(255, 102, 146); fill-opacity: 1;"/></g><g class="point"><path d="M364.33,107.07V106.85H386.52V107.07Z" style="vector-effect: none; opacity: 1; stroke-width: 0px; fill: rgb(255, 102, 146); fill-opacity: 1;"/></g><g class="point"><path d="M513.91,369.78V368.09H536.09V369.78Z" style="vector-effect: none; opacity: 1; stroke-width: 0px; fill: rgb(255, 102, 146); fill-opacity: 1;"/></g><g class="point"><path d="M483.2,355.55V352.87H505.39V355.55Z" style="vector-effect: none; opacity: 1; stroke-width: 0px; fill: rgb(255, 102, 146); fill-opacity: 1;"/></g><g class="point"><path d="M395.04,102.64V100.85H417.23V102.64Z" style="vector-effect: none; opacity: 1; stroke-width: 0px; fill: rgb(255, 102, 146); fill-opacity: 1;"/></g><g class="point"><path d="M453.48,231.53V228.14H475.67V231.53Z" style="vector-effect: none; opacity: 1; stroke-width: 0px; fill: rgb(255, 102, 146); fill-opacity: 1;"/></g><g class="point"><path d="M0,0Z" style="vector-effect: none; opacity: 1; stroke-width: 0px; fill: rgb(255, 102, 146); fill-opacity: 1;"/></g><g class="point"><path d="M634.75,474.67V474.13H656.94V474.67Z" style="vector-effect: none; opacity: 1; stroke-width: 0px; fill: rgb(255, 102, 146); fill-opacity: 1;"/></g><g class="point"><path d="M815.04,656.69V656.17H837.23V656.69Z" style="vector-effect: none; opacity: 1; stroke-width: 0px; fill: rgb(255, 102, 146); fill-opacity: 1;"/></g></g></g><g class="trace bars" style="opacity: 1;"><g class="points"><g class="point"><path d="M2.77,654.45V617.2H24.96V654.45Z" style="vector-effect: none; opacity: 1; stroke-width: 0px; fill: rgb(211, 211, 211); fill-opacity: 1;"/></g><g class="point"><path d="M33.48,594.72V512.82H55.67V594.72Z" style="vector-effect: none; opacity: 1; stroke-width: 0px; fill: rgb(211, 211, 211); fill-opacity: 1;"/></g><g class="point"><path d="M61.22,431.56V388.94H83.41V431.56Z" style="vector-effect: none; opacity: 1; stroke-width: 0px; fill: rgb(211, 211, 211); fill-opacity: 1;"/></g><g class="point"><path d="M91.92,336.07V322.69H114.11V336.07Z" style="vector-effect: none; opacity: 1; stroke-width: 0px; fill: rgb(211, 211, 211); fill-opacity: 1;"/></g><g class="point"><path d="M121.64,452.6V444.67H143.83V452.6Z" style="vector-effect: none; opacity: 1; stroke-width: 0px; fill: rgb(211, 211, 211); fill-opacity: 1;"/></g><g class="point"><path d="M152.35,597.72V594.45H174.54V597.72Z" style="vector-effect: none; opacity: 1; stroke-width: 0px; fill: rgb(211, 211, 211); fill-opacity: 1;"/></g><g class="point"><path d="M182.07,588.4V587.49H204.25V588.4Z" style="vector-effect: none; opacity: 1; stroke-width: 0px; fill: rgb(211, 211, 211); fill-opacity: 1;"/></g><g class="point"><path d="M212.77,444.37V444.04H234.96V444.37Z" style="vector-effect: none; opacity: 1; stroke-width: 0px; fill: rgb(211, 211, 211); fill-opacity: 1;"/></g><g class="point"><path d="M243.48,374.76V374.64H265.67V374.76Z" style="vector-effect: none; opacity: 1; stroke-width: 0px; fill: rgb(211, 211, 211); fill-opacity: 1;"/></g><g class="point"><path d="M273.2,428.53V428.5H295.39V428.53Z" style="vector-effect: none; opacity: 1; stroke-width: 0px; fill: rgb(211, 211, 211); fill-opacity: 1;"/></g><g class="point"><path d="M303.91,317.97V317.84H326.09V317.97Z" style="vector-effect: none; opacity: 1; stroke-width: 0px; fill: rgb(211, 211, 211); fill-opacity: 1;"/></g><g class="point"><path d="M333.62,242.46V240.7H355.81V242.46Z" style="vector-effect: none; opacity: 1; stroke-width: 0px; fill: rgb(211, 211, 211); fill-opacity: 1;"/></g><g class="point"><path d="M364.33,106.85V104.82H386.52V106.85Z" style="vector-effect: none; opacity: 1; stroke-width: 0px; fill: rgb(211, 211, 211); fill-opacity: 1;"/></g><g class="point"><path d="M395.04,100.85V100.45H417.23V100.85Z" style="vector-effect: none; opacity: 1; stroke-width: 0px; fill: rgb(211, 211, 211); fill-opacity: 1;"/></g><g class="point"><path d="M422.77,33.93V33H444.96V33.93Z" style="vector-effect: none; opacity: 1; stroke-width: 0px; fill: rgb(211, 211, 211); fill-opacity: 1;"/></g><g class="point"><path d="M453.48,228.14V228.01H475.67V228.14Z" style="vector-effect: none; opacity: 1; stroke-width: 0px; fill: rgb(211, 211, 211); fill-opacity: 1;"/></g><g class="point"><path d="M483.2,352.87V352.82H505.39V352.87Z" style="vector-effect: none; opacity: 1; stroke-width: 0px; fill: rgb(211, 211, 211); fill-opacity: 1;"/></g><g class="point"><path d="M513.91,368.09V367.91H536.09V368.09Z" style="vector-effect: none; opacity: 1; stroke-width: 0px; fill: rgb(211, 211, 211); fill-opacity: 1;"/></g><g class="point"><path d="M543.62,407.64V407.58H565.81V407.64Z" style="vector-effect: none; opacity: 1; stroke-width: 0px; fill: rgb(211, 211, 211); fill-opacity: 1;"/></g><g class="point"><path d="M574.33,504.47V504.46H596.52V504.47Z" style="vector-effect: none; opacity: 1; stroke-width: 0px; fill: rgb(211, 211, 211); fill-opacity: 1;"/></g><g class="point"><path d="M605.04,493.09V492.95H627.23V493.09Z" style="vector-effect: none; opacity: 1; stroke-width: 0px; fill: rgb(211, 211, 211); fill-opacity: 1;"/></g><g class="point"><path d="M634.75,474.13V473.74H656.94V474.13Z" style="vector-effect: none; opacity: 1; stroke-width: 0px; fill: rgb(211, 211, 211); fill-opacity: 1;"/></g><g class="point"><path d="M665.46,523.2V521.62H687.65V523.2Z" style="vector-effect: none; opacity: 1; stroke-width: 0px; fill: rgb(211, 211, 211); fill-opacity: 1;"/></g><g class="point"><path d="M695.18,517.96V515.43H717.37V517.96Z" style="vector-effect: none; opacity: 1; stroke-width: 0px; fill: rgb(211, 211, 211); fill-opacity: 1;"/></g><g class="point"><path d="M725.89,563.42V553.09H748.08V563.42Z" style="vector-effect: none; opacity: 1; stroke-width: 0px; fill: rgb(211, 211, 211); fill-opacity: 1;"/></g><g class="point"><path d="M756.59,593.1V553.48H778.78V593.1Z" style="vector-effect: none; opacity: 1; stroke-width: 0px; fill: rgb(211, 211, 211); fill-opacity: 1;"/></g><g class="point"><path d="M784.33,635.12V583.32H806.52V635.12Z" style="vector-effect: none; opacity: 1; stroke-width: 0px; fill: rgb(211, 211, 211); fill-opacity: 1;"/></g><g class="point"><path d="M815.04,656.17V640.44H837.23V656.17Z" style="vector-effect: none; opacity: 1; stroke-width: 0px; fill: rgb(211, 211, 211); fill-opacity: 1;"/></g></g></g></g></g></g><path class="xlines-above crisp" d="M0,0" style="fill: none;"/><path class="ylines-above crisp" d="M0,0" style="fill: none;"/><g class="overlines-above"/><g class="xaxislayer-above"><g class="xtick"><text text-anchor="middle" x="0" y="737" transform="translate(93.87,0)" style="font-family: Arial; font-size: 16px; fill: rgb(0, 0, 0); fill-opacity: 1; white-space: pre; opacity: 1;">Jan 2021</text></g><g class="xtick"><text text-anchor="middle" x="0" y="737" style="font-family: Arial; font-size: 16px; fill: rgb(0, 0, 0); fill-opacity: 1; white-space: pre; opacity: 1;" transform="translate(183.01999999999998,0)">Apr 2021</text></g><g class="xtick"><text text-anchor="middle" x="0" y="737" style="font-family: Arial; font-size: 16px; fill: rgb(0, 0, 0); fill-opacity: 1; white-space: pre; opacity: 1;" transform="translate(273.15999999999997,0)">Jul 2021</text></g><g class="xtick"><text text-anchor="middle" x="0" y="737" style="font-family: Arial; font-size: 16px; fill: rgb(0, 0, 0); fill-opacity: 1; white-space: pre; opacity: 1;" transform="translate(364.29,0)">Oct 2021</text></g><g class="xtick"><text text-anchor="middle" x="0" y="737" style="font-family: Arial; font-size: 16px; fill: rgb(0, 0, 0); fill-opacity: 1; white-space: pre; opacity: 1;" transform="translate(455.42,0)">Jan 2022</text></g><g class="xtick"><text text-anchor="middle" x="0" y="737" style="font-family: Arial; font-size: 16px; fill: rgb(0, 0, 0); fill-opacity: 1; white-space: pre; opacity: 1;" transform="translate(544.5799999999999,0)">Apr 2022</text></g><g class="xtick"><text text-anchor="middle" x="0" y="737" style="font-family: Arial; font-size: 16px; fill: rgb(0, 0, 0); fill-opacity: 1; white-space: pre; opacity: 1;" transform="translate(634.72,0)">Jul 2022</text></g><g class="xtick"><text text-anchor="middle" x="0" y="737" style="font-family: Arial; font-size: 16px; fill: rgb(0, 0, 0); fill-opacity: 1; white-space: pre; opacity: 1;" transform="translate(725.85,0)">Oct 2022</text></g><g class="xtick"><text text-anchor="middle" x="0" y="737" style="font-family: Arial; font-size: 16px; fill: rgb(0, 0, 0); fill-opacity: 1; white-space: pre; opacity: 1;" transform="translate(816.98,0)">Jan 2023</text></g><g class="xtick"><text text-anchor="middle" x="0" y="737" style="font-family: Arial; font-size: 16px; fill: rgb(0, 0, 0); fill-opacity: 1; white-space: pre; opacity: 1;" transform="translate(906.13,0)">Apr 2023</text></g></g><g class="yaxislayer-above"><g class="ytick"><text text-anchor="end" x="79" y="5.6" transform="translate(0,720)" style="font-family: Arial; font-size: 16px; fill: rgb(0, 0, 0); fill-opacity: 1; white-space: pre; opacity: 1;">0</text></g><g class="ytick"><text text-anchor="end" x="79" y="5.6" style="font-family: Arial; font-size: 16px; fill: rgb(0, 0, 0); fill-opacity: 1; white-space: pre; opacity: 1;" transform="translate(0,605.27)">20k</text></g><g class="ytick"><text text-anchor="end" x="79" y="5.6" style="font-family: Arial; font-size: 16px; fill: rgb(0, 0, 0); fill-opacity: 1; white-space: pre; opacity: 1;" transform="translate(0,490.55)">40k</text></g><g class="ytick"><text text-anchor="end" x="79" y="5.6" style="font-family: Arial; font-size: 16px; fill: rgb(0, 0, 0); fill-opacity: 1; white-space: pre; opacity: 1;" transform="translate(0,375.82)">60k</text></g><g class="ytick"><text text-anchor="end" x="79" y="5.6" style="font-family: Arial; font-size: 16px; fill: rgb(0, 0, 0); fill-opacity: 1; white-space: pre; opacity: 1;" transform="translate(0,261.1)">80k</text></g><g class="ytick"><text text-anchor="end" x="79" y="5.6" style="font-family: Arial; font-size: 16px; fill: rgb(0, 0, 0); fill-opacity: 1; white-space: pre; opacity: 1;" transform="translate(0,146.37)">100k</text></g></g><g class="overaxes-above"/></g></g><g class="polarlayer"/><g class="smithlayer"/><g class="ternarylayer"/><g class="geolayer"/><g class="funnelarealayer"/><g class="pielayer"/><g class="iciclelayer"/><g class="treemaplayer"/><g class="sunburstlayer"/><g class="glimages"/><defs id="topdefs-a12444"><g class="clips"/><clipPath id="legenda12444"><rect width="155" height="154" x="0" y="0"/></clipPath></defs><g class="layer-above"><g class="imagelayer"/><g class="shapelayer"/></g><g class="infolayer"><g class="legend" pointer-events="all" transform="translate(756.6,66.60000000000001)"><rect class="bg" shape-rendering="crispEdges" style="stroke: rgb(68, 68, 68); stroke-opacity: 1; fill: rgb(255, 255, 255); fill-opacity: 1; stroke-width: 0px;" width="155" height="154" x="0" y="0"/><g class="scrollbox" transform="" clip-path="url(#legenda12444)"><text class="legendtitletext" text-anchor="start" x="2" y="24.7" style="font-family: Arial; font-size: 19px; fill: rgb(0, 0, 0); fill-opacity: 1; white-space: pre;">Variant</text><g class="groups" transform=""><g class="traces" transform="translate(0,41.6)" style="opacity: 1;"><text class="legendtext" text-anchor="start" x="40" y="6.24" style="font-family: Arial; font-size: 16px; fill: rgb(0, 0, 0); fill-opacity: 1; white-space: pre;">Alpha</text><g class="layers" style="opacity: 1;"><g class="legendfill"/><g class="legendlines"/><g class="legendsymbols"><g class="legendpoints"><path class="legendundefined" d="M6,6H-6V-6H6Z" transform="translate(20,0)" style="stroke-width: 0px; fill: rgb(171, 99, 250); fill-opacity: 1;"/></g></g></g><rect class="legendtoggle" x="0" y="-11.9" width="149.390625" height="23.8" style="fill: rgb(0, 0, 0); fill-opacity: 0;"/></g></g><g class="groups" transform=""><g class="traces" transform="translate(0,65.4)" style="opacity: 1;"><text class="legendtext" text-anchor="start" x="40" y="6.24" style="font-family: Arial; font-size: 16px; fill: rgb(0, 0, 0); fill-opacity: 1; white-space: pre;">Delta</text><g class="layers" style="opacity: 1;"><g class="legendfill"/><g class="legendlines"/><g class="legendsymbols"><g class="legendpoints"><path class="legendundefined" d="M6,6H-6V-6H6Z" transform="translate(20,0)" style="stroke-width: 0px; fill: rgb(255, 161, 90); fill-opacity: 1;"/></g></g></g><rect class="legendtoggle" x="0" y="-11.9" width="149.390625" height="23.8" style="fill: rgb(0, 0, 0); fill-opacity: 0;"/></g></g><g class="groups" transform=""><g class="traces" transform="translate(0,89.2)" style="opacity: 1;"><text class="legendtext" text-anchor="start" x="40" y="6.24" style="font-family: Arial; font-size: 16px; fill: rgb(0, 0, 0); fill-opacity: 1; white-space: pre;">Omicron</text><g class="layers" style="opacity: 1;"><g class="legendfill"/><g class="legendlines"/><g class="legendsymbols"><g class="legendpoints"><path class="legendundefined" d="M6,6H-6V-6H6Z" transform="translate(20,0)" style="stroke-width: 0px; fill: rgb(25, 211, 243); fill-opacity: 1;"/></g></g></g><rect class="legendtoggle" x="0" y="-11.9" width="149.390625" height="23.8" style="fill: rgb(0, 0, 0); fill-opacity: 0;"/></g></g><g class="groups" transform=""><g class="traces" transform="translate(0,113.00000000000001)" style="opacity: 1;"><text class="legendtext" text-anchor="start" x="40" y="6.24" style="font-family: Arial; font-size: 16px; fill: rgb(0, 0, 0); fill-opacity: 1; white-space: pre;">Other</text><g class="layers" style="opacity: 1;"><g class="legendfill"/><g class="legendlines"/><g class="legendsymbols"><g class="legendpoints"><path class="legendundefined" d="M6,6H-6V-6H6Z" transform="translate(20,0)" style="stroke-width: 0px; fill: rgb(255, 102, 146); fill-opacity: 1;"/></g></g></g><rect class="legendtoggle" x="0" y="-11.9" width="149.390625" height="23.8" style="fill: rgb(0, 0, 0); fill-opacity: 0;"/></g></g><g class="groups" transform=""><g class="traces" transform="translate(0,136.8)" style="opacity: 1;"><text class="legendtext" text-anchor="start" x="40" y="6.24" style="font-family: Arial; font-size: 16px; fill: rgb(0, 0, 0); fill-opacity: 1; white-space: pre;">Not determined</text><g class="layers" style="opacity: 1;"><g class="legendfill"/><g class="legendlines"/><g class="legendsymbols"><g class="legendpoints"><path class="legendundefined" d="M6,6H-6V-6H6Z" transform="translate(20,0)" style="stroke-width: 0px; fill: rgb(211, 211, 211); fill-opacity: 1;"/></g></g></g><rect class="legendtoggle" x="0" y="-11.9" width="149.390625" height="23.8" style="fill: rgb(0, 0, 0); fill-opacity: 0;"/></g></g></g><rect class="scrollbar" rx="20" ry="3" width="0" height="0" style="fill: rgb(128, 139, 164); fill-opacity: 1;" x="0" y="0"/></g><g class="g-gtitle"/><g class="g-xtitle"><text class="xtitle" x="500" y="767.9796875" text-anchor="middle" style="opacity: 1; font-family: Arial; font-size: 19px; fill: rgb(0, 0, 0); fill-opacity: 1; white-space: pre;">Month</text></g><g class="g-ytitle"><text class="ytitle" transform="rotate(-90,23.146875,390)" x="23.146875" y="390" text-anchor="middle" style="opacity: 1; font-family: Arial; font-size: 19px; fill: rgb(0, 0, 0); fill-opacity: 1; white-space: pre;">Number of sequences</text></g></g></svg>