<?xml version="1.0" encoding="UTF-8"?>
<svg id="Layer_1" data-name="Layer 1" xmlns="http://www.w3.org/2000/svg" width="700" height="500" xmlns:xlink="http://www.w3.org/1999/xlink" viewBox="0 0 700 500">
  <defs>
    <clipPath id="clippath">
      <polyline points="120 0 577 0 577 460 120 460 120 0" style="fill: none;"/>
    </clipPath>
    <clipPath id="clippath-1">
      <polyline points="586 0 700 0 700 105 586 105 586 0" style="fill: none;"/>
    </clipPath>
    <clipPath id="clippath-2">
      <path d="M653.54,18.71c-1.08,0-1.94.32-2.58.96-.64.64-1,1.43-1.09,2.37h6.88c0-1.06-.27-1.88-.8-2.46-.53-.58-1.33-.87-2.4-.87M666.65,18.71c-1.08,0-1.94.32-2.58.96-.64.64-1,1.43-1.09,2.37h6.87c0-1.06-.27-1.88-.8-2.46-.53-.58-1.33-.87-2.4-.87M654.16,29.66c-1.99,0-3.54-.54-4.66-1.62-1.12-1.08-1.68-2.61-1.68-4.59s.54-3.52,1.61-4.67c1.07-1.15,2.48-1.73,4.23-1.73,1.62,0,2.87.47,3.74,1.42.88.95,1.32,2.29,1.32,4.03v1.1h-8.84c0,.74.11,1.38.33,1.93.22.55.53,1,.91,1.35.37.34.81.6,1.33.77.51.17,1.08.26,1.69.26.82,0,1.64-.16,2.47-.49.83-.33,1.42-.65,1.77-.96h.11v2.2c-.68.29-1.38.53-2.08.72-.71.19-1.45.29-2.23.29M667.26,29.66c-1.99,0-3.54-.54-4.66-1.62-1.12-1.08-1.68-2.61-1.68-4.59s.54-3.52,1.61-4.67c1.07-1.15,2.48-1.73,4.23-1.73,1.62,0,2.87.47,3.74,1.42.88.95,1.32,2.29,1.32,4.03v1.1h-8.84c0,.74.11,1.38.33,1.93.22.55.53,1,.91,1.35.37.34.81.6,1.33.77.51.17,1.08.26,1.69.26.82,0,1.64-.16,2.47-.49.83-.33,1.42-.65,1.77-.96h.11v2.2c-.68.29-1.38.53-2.08.72-.71.19-1.45.29-2.23.29M600,26.8v-12h12v12h-12M646.76,13.38h0l-4.16,16h-2.4l-3.36-13.28-3.29,13.28h-2.34l-4.23-16h2.18l3.36,13.3,3.31-13.3h2.16l3.34,13.43,3.34-13.43h2.08M674.96,29.38V12.67h2.02v10.72l5.83-6h2.55l-5.58,5.54,5.98,6.46h-2.66l-4.81-5.25-1.31,1.25v4.01h-2.02M694.41,5h-108.41v31.6h108.41V5" style="fill: none;"/>
    </clipPath>
  </defs>
  <polyline points="0 0 700 0 700 500 0 500 0 0" style="fill: #fff;"/>
  <polyline points="120 393.22 577 393.22 577 392.22 120 392.22" style="fill: #eee;"/>
  <polyline points="120 325.93 577 325.93 577 324.93 120 324.93" style="fill: #eee;"/>
  <polyline points="120 258.65 577 258.65 577 257.65 120 257.65" style="fill: #eee;"/>
  <polyline points="120 191.36 577 191.36 577 190.36 120 190.36" style="fill: #eee;"/>
  <polyline points="120 124.08 577 124.08 577 123.08 120 123.08" style="fill: #eee;"/>
  <polyline points="120 56.79 577 56.79 577 55.79 120 55.79" style="fill: #eee;"/>
  <polyline points="120 460.5 577 460.5 577 459.5 120 459.5" style="fill: #444;"/>
  <g style="clip-path: url(#clippath);">
    <rect x="155.62" y="23" width="36.29" height="437" style="fill: #d3d3d3;"/>
    <rect x="290.03" y="304.98" width="36.29" height="155.02" style="fill: #d3d3d3;"/>
    <rect x="424.44" y="356.52" width="36.29" height="103.48" style="fill: #d3d3d3;"/>
    <rect x="195.94" y="180.65" width="36.29" height="279.35" style="fill: #a9a9a9;"/>
    <rect x="330.35" y="348.51" width="36.3" height="111.49" style="fill: #a9a9a9;"/>
    <rect x="464.77" y="388.42" width="36.29" height="71.58" style="fill: #a9a9a9;"/>
    <rect x="236.27" y="396.99" width="36.29" height="63.01" style="fill: gray;"/>
    <rect x="370.68" y="447.16" width="36.29" height="12.84" style="fill: gray;"/>
    <rect x="505.09" y="450.26" width="36.29" height="9.74" style="fill: gray;"/>
  </g>
  <path d="M273.36,466.39c-.3-.06-.63-.11-.99-.15-.36-.04-.77-.06-1.22-.06-1.34,0-2.36.38-3.07,1.14-.71.76-1.06,1.86-1.06,3.28v.4h-1.36v1.7h1.36v10.3h2.02v-10.3h3.58v-1.7h-3.64v-.41c0-1,.19-1.7.59-2.08.39-.38,1.02-.57,1.89-.57.27,0,.59.03.95.1.36.07.65.13.87.2h.11v-1.85ZM265,471.13c-.32-.05-.55-.08-.71-.1-.16-.02-.41-.03-.76-.03-.64,0-1.26.13-1.87.4-.61.27-1.32.72-2.12,1.37v-1.77h-2.02v12h2.02v-8.52c.54-.44,1.1-.79,1.68-1.07.58-.28,1.18-.41,1.8-.41.39,0,.72.02,1,.05.28.03.57.08.88.16h.11v-2.07ZM251.39,480.44c-.61.77-1.46,1.16-2.53,1.16s-1.94-.39-2.55-1.17c-.61-.78-.91-1.92-.91-3.42s.3-2.71.91-3.46c.6-.75,1.46-1.13,2.55-1.13s1.93.38,2.54,1.13c.61.76.91,1.91.91,3.46s-.31,2.66-.92,3.43ZM252.89,472.37c-1-1.14-2.35-1.7-4.03-1.7s-3.05.57-4.04,1.7c-1,1.13-1.5,2.68-1.5,4.63s.5,3.5,1.5,4.63,2.35,1.7,4.04,1.7,3.03-.57,4.03-1.7c1-1.13,1.5-2.67,1.5-4.63s-.5-3.5-1.5-4.63ZM236.52,481.03c-.59.25-1.17.38-1.74.38-1.07,0-1.85-.37-2.34-1.11-.49-.74-.73-1.83-.73-3.25s.31-2.56.95-3.35c.63-.79,1.51-1.18,2.64-1.18.51,0,.98.05,1.41.14s.92.26,1.46.5v6.89c-.51.4-1.06.73-1.64.98ZM240.19,466.29h-2.02v5.2c-.54-.28-1.05-.49-1.54-.62-.49-.13-1.05-.2-1.68-.2-.69,0-1.37.14-2.01.43-.65.29-1.22.7-1.7,1.25-.49.56-.89,1.24-1.18,2.03s-.44,1.7-.44,2.72c0,1.96.42,3.48,1.26,4.59.84,1.1,1.98,1.65,3.41,1.65.74,0,1.42-.14,2.05-.42.63-.28,1.24-.67,1.82-1.17v1.26h2.02v-16.71ZM226.46,466.29h-2.02v16.71h2.02v-16.71ZM212.52,475.66c.09-.95.45-1.74,1.09-2.37.64-.64,1.5-.96,2.58-.96s1.87.29,2.4.87.79,1.4.8,2.46h-6.88ZM221.36,476.11c0-1.74-.44-3.08-1.32-4.03-.88-.95-2.13-1.42-3.74-1.42-1.75,0-3.16.58-4.23,1.73-1.07,1.15-1.61,2.71-1.61,4.67s.56,3.51,1.68,4.59c1.12,1.08,2.67,1.62,4.66,1.62.78,0,1.53-.1,2.23-.29s1.4-.43,2.08-.72v-2.2h-.11c-.35.32-.94.64-1.77.96-.83.33-1.65.49-2.47.49-.62,0-1.18-.09-1.69-.26-.51-.17-.95-.43-1.33-.77-.39-.35-.69-.8-.91-1.35-.22-.55-.33-1.19-.33-1.93h8.84v-1.1ZM207.66,477.44c-.51-.52-1.23-.89-2.17-1.11-.31-.07-.69-.15-1.15-.24s-.88-.17-1.25-.26c-.67-.16-1.16-.36-1.46-.61-.31-.25-.46-.62-.46-1.12,0-.56.25-.98.76-1.26.51-.28,1.13-.42,1.87-.42s1.43.13,2.17.39c.74.26,1.36.58,1.88.96h.11v-2.16c-.49-.25-1.1-.46-1.83-.64-.73-.18-1.46-.26-2.18-.26-.77,0-1.46.1-2.08.29-.62.2-1.13.46-1.53.8-.42.34-.73.73-.93,1.17s-.31.9-.31,1.4c0,.79.22,1.45.66,1.99.44.54,1.19.95,2.24,1.23.38.1.8.19,1.26.28s.84.16,1.12.23c.77.17,1.3.38,1.57.62.27.24.41.6.41,1.07,0,.62-.25,1.07-.75,1.35-.5.29-1.2.43-2.08.43-.72,0-1.46-.14-2.25-.42-.78-.28-1.49-.67-2.13-1.14h-.11v2.27c.5.25,1.12.48,1.86.69.74.21,1.56.32,2.44.32,1.57,0,2.81-.35,3.71-1.05.91-.7,1.36-1.6,1.36-2.7,0-.87-.25-1.58-.76-2.11ZM196.2,477.44c-.51-.52-1.23-.89-2.17-1.11-.31-.07-.69-.15-1.15-.24s-.88-.17-1.25-.26c-.67-.16-1.16-.36-1.46-.61-.31-.25-.46-.62-.46-1.12,0-.56.25-.98.76-1.26.51-.28,1.13-.42,1.87-.42s1.43.13,2.17.39c.74.26,1.36.58,1.88.96h.11v-2.16c-.49-.25-1.1-.46-1.83-.64-.73-.18-1.46-.26-2.18-.26-.77,0-1.46.1-2.08.29-.62.2-1.13.46-1.53.8-.42.34-.73.73-.93,1.17s-.31.9-.31,1.4c0,.79.22,1.45.66,1.99.44.54,1.19.95,2.24,1.23.38.1.8.19,1.26.28s.84.16,1.12.23c.77.17,1.3.38,1.57.62.27.24.41.6.41,1.07,0,.62-.25,1.07-.75,1.35-.5.29-1.2.43-2.08.43-.72,0-1.46-.14-2.25-.42-.78-.28-1.49-.67-2.13-1.14h-.11v2.27c.5.25,1.12.48,1.86.69.74.21,1.56.32,2.44.32,1.57,0,2.81-.35,3.71-1.05.91-.7,1.36-1.6,1.36-2.7,0-.87-.25-1.58-.76-2.11ZM178.3,466.9h-2.14v2.09h2.14v-2.09ZM182.74,466.9h-2.14v2.09h2.14v-2.09ZM184.41,471h-2.02v8.96c-.54.42-1.12.77-1.73,1.04-.62.27-1.19.41-1.71.41-.59,0-1.04-.07-1.34-.21-.31-.14-.56-.37-.75-.69-.19-.31-.31-.68-.37-1.11-.06-.43-.09-.96-.09-1.56v-6.83h-2.02v7.79c0,1.49.35,2.62,1.05,3.39.7.77,1.68,1.16,2.94,1.16.75,0,1.44-.14,2.06-.43s1.27-.7,1.96-1.24v1.33h2.02v-12ZM168.37,478.1c-.4.83-.99,1.5-1.79,2.01-.64.41-1.34.69-2.1.84s-1.66.23-2.68.23h-2v-12.34h2c.99,0,1.84.07,2.55.21.71.14,1.38.39,2.01.75.87.49,1.52,1.17,1.96,2.03.44.86.66,1.92.66,3.17s-.2,2.28-.6,3.12ZM170.28,470.99c-.61-1.13-1.46-2.04-2.55-2.72-.64-.39-1.42-.7-2.34-.93-.92-.23-2.16-.34-3.72-.34h-4v16h4.04c1.47,0,2.65-.1,3.55-.3.9-.2,1.71-.53,2.44-.98,1.05-.65,1.9-1.57,2.53-2.75s.95-2.5.95-3.95c0-1.55-.3-2.9-.91-4.03Z" style="fill: #444;"/>
  <path d="M372.18,467l-3.34,13.43-3.34-13.43h-2.16l-3.31,13.3-3.36-13.3h-2.18l4.23,16h2.34l3.29-13.28,3.36,13.28h2.4l4.16-16h-2.08ZM348.38,472.99c-.15.39-.39.74-.71,1.04-.35.32-.78.54-1.28.66-.5.12-1.09.18-1.76.18h-2.15v-6.04h2.5c.57,0,1.07.04,1.49.12.42.08.79.23,1.1.43.37.24.64.54.8.9.16.35.24.76.24,1.22,0,.6-.08,1.1-.23,1.49ZM347.57,476.01c1.02-.39,1.82-.98,2.4-1.76.58-.78.87-1.74.87-2.89,0-.85-.16-1.56-.49-2.11-.33-.55-.78-1.01-1.36-1.38-.52-.32-1.1-.55-1.74-.67-.64-.13-1.45-.19-2.42-.19h-4.48v16h2.13v-6.36h3l5.35,6.36h2.76l-6.02-6.99ZM336.1,467h-1.99v13.06l-6.92-13.06h-3.3v16h1.99v-14.31l7.58,14.31h2.63v-16Z" style="fill: #444;"/>
  <path d="M530.58,471l-3.72,8.89-3.68-8.89h-2.19l4.78,11.42-2.23,5.01h2.16l7-16.42h-2.12ZM518.65,475.21c0-1.47-.34-2.59-1.02-3.37-.68-.78-1.67-1.17-2.96-1.17-.71,0-1.4.15-2.07.44-.67.29-1.33.7-1.96,1.22v-1.33h-2.02v12h2.02v-8.96c.55-.42,1.13-.77,1.73-1.04s1.18-.41,1.73-.41.97.07,1.31.22c.34.15.59.37.77.67.17.27.29.65.35,1.13.06.48.1,1,.1,1.55v6.83h2.02v-7.79ZM501.09,481.04c-.59.28-1.24.41-1.94.41-.85,0-1.49-.17-1.9-.52-.42-.35-.62-.86-.62-1.55,0-.61.18-1.09.54-1.43.36-.35.83-.6,1.41-.77.49-.14,1.15-.24,1.98-.31.83-.07,1.56-.12,2.18-.16v3.34c-.5.39-1.05.72-1.63.99ZM504.73,474.86c0-.77-.12-1.42-.35-1.94s-.58-.95-1.03-1.28c-.46-.34-1-.57-1.63-.71-.63-.14-1.36-.21-2.21-.21-.72,0-1.46.06-2.2.19-.75.13-1.31.25-1.71.35v2.05h.11c.69-.26,1.37-.47,2.02-.61.65-.14,1.24-.21,1.77-.21.44,0,.86.03,1.26.09.4.06.74.17,1.03.33.3.17.53.41.69.71s.24.68.24,1.14v.31c-1.17.06-2.27.14-3.3.26-1.02.11-1.9.33-2.63.66-.72.32-1.28.76-1.67,1.33-.39.56-.59,1.3-.59,2.21,0,1.11.38,2.02,1.13,2.74s1.67,1.07,2.75,1.07c.59,0,1.1-.06,1.54-.17.44-.11.82-.25,1.16-.41.29-.13.58-.3.89-.52.3-.22.55-.39.73-.51v1.28h2.01v-8.14ZM491.51,475.21c0-1.43-.31-2.55-.94-3.35-.63-.8-1.6-1.2-2.92-1.2-.77,0-1.49.15-2.16.46-.67.3-1.42.8-2.23,1.49-.28-.61-.7-1.08-1.27-1.43s-1.26-.52-2.08-.52c-.71,0-1.38.15-2,.44-.63.29-1.26.7-1.89,1.22v-1.33h-2.02v12h2.02v-8.96c.55-.42,1.1-.77,1.66-1.04.55-.27,1.11-.41,1.66-.41.58,0,1.02.08,1.33.23.31.15.54.38.71.69.15.29.25.67.3,1.14.05.48.07.98.07,1.51v6.83h2.02v-7.68c0-.21,0-.43-.02-.65-.01-.22-.03-.41-.05-.58.57-.44,1.13-.8,1.7-1.08.57-.28,1.13-.42,1.7-.42s1.02.08,1.33.24c.31.16.54.39.71.7.15.29.25.67.3,1.15.05.48.07.98.07,1.49v6.83h2.02v-7.79ZM472.1,471.13c-.32-.05-.55-.08-.71-.1-.16-.02-.41-.03-.76-.03-.64,0-1.26.13-1.87.4-.61.27-1.32.72-2.12,1.37v-1.77h-2.02v12h2.02v-8.52c.54-.44,1.1-.79,1.68-1.07.58-.28,1.18-.41,1.8-.41.39,0,.72.02,1,.05.28.03.57.08.88.16h.11v-2.07ZM452.71,475.66c.09-.95.45-1.74,1.09-2.37.64-.64,1.5-.96,2.58-.96s1.87.29,2.4.87.79,1.4.8,2.46h-6.88ZM461.55,476.11c0-1.74-.44-3.08-1.32-4.03-.88-.95-2.13-1.42-3.74-1.42-1.75,0-3.16.58-4.23,1.73-1.07,1.15-1.61,2.71-1.61,4.67s.56,3.51,1.68,4.59c1.12,1.08,2.67,1.62,4.66,1.62.78,0,1.53-.1,2.23-.29s1.4-.43,2.08-.72v-2.2h-.11c-.35.32-.94.64-1.77.96-.83.33-1.65.49-2.47.49-.62,0-1.18-.09-1.69-.26-.51-.17-.95-.43-1.33-.77-.39-.35-.69-.8-.91-1.35-.22-.55-.33-1.19-.33-1.93h8.84v-1.1ZM447.96,474.95h-6.39v1.87h4.29v3.92c-.52.21-1.12.39-1.8.53-.68.14-1.37.2-2.06.2-1.88,0-3.36-.57-4.45-1.72-1.09-1.15-1.63-2.76-1.63-4.83,0-1.96.52-3.52,1.56-4.67,1.04-1.15,2.46-1.72,4.25-1.72.79,0,1.51.07,2.13.22.63.15,1.19.33,1.68.55.41.19.82.42,1.25.7.42.28.74.5.97.68h.19v-2.52c-1.1-.52-2.12-.89-3.07-1.11-.95-.22-1.88-.33-2.79-.33-2.61,0-4.66.74-6.15,2.22-1.49,1.48-2.24,3.5-2.24,6.05,0,1.4.2,2.62.6,3.66.4,1.04.97,1.91,1.71,2.6.73.69,1.61,1.2,2.65,1.55,1.04.34,2.18.52,3.43.52.97,0,1.97-.15,3-.45,1.03-.3,1.99-.65,2.86-1.05v-6.86Z" style="fill: #444;"/>
  <path d="M113.69,465.84c-.44.28-1,.42-1.68.42-.72,0-1.29-.15-1.72-.44-.43-.29-.77-.72-1-1.28-.26-.59-.43-1.27-.5-2.02-.08-.75-.12-1.69-.12-2.8,0-1.02.04-1.95.13-2.8.09-.85.26-1.54.5-2.07.26-.57.61-.99,1.05-1.27s1-.42,1.67-.42,1.24.14,1.67.42c.43.28.77.69,1.03,1.25.26.56.43,1.24.52,2.04.09.8.13,1.75.13,2.84s-.04,2.05-.13,2.83c-.09.78-.26,1.47-.51,2.05-.24.57-.59.99-1.03,1.27ZM116.22,453.45c-.88-1.38-2.29-2.07-4.21-2.07s-3.29.68-4.19,2.04c-.9,1.36-1.34,3.46-1.34,6.3s.44,4.91,1.33,6.27c.88,1.36,2.29,2.04,4.21,2.04s3.29-.67,4.18-2.01c.9-1.34,1.35-3.45,1.35-6.32s-.44-4.87-1.33-6.25Z" style="fill: #444;"/>
  <path d="M117.57,398.58h-8.6c.71-.6,1.47-1.25,2.29-1.96.82-.71,1.61-1.43,2.37-2.19.54-.52.99-1,1.37-1.43s.7-.87.98-1.31c.3-.47.53-.97.68-1.5.15-.53.23-1.09.23-1.7,0-1.35-.47-2.43-1.4-3.22-.93-.79-2.22-1.19-3.86-1.19-.79,0-1.62.1-2.47.31s-1.53.44-2.04.69v2.26h.11c.72-.47,1.46-.82,2.22-1.05.76-.23,1.46-.34,2.12-.34.98,0,1.75.23,2.29.7.55.47.82,1.12.82,1.95,0,.91-.25,1.76-.76,2.54-.51.78-1.45,1.84-2.83,3.17-.65.64-1.36,1.28-2.11,1.92-.76.64-1.51,1.29-2.26,1.93v2.25h10.83v-1.84ZM99.71,398.56c-.44.28-1,.42-1.68.42-.72,0-1.29-.15-1.72-.44-.43-.29-.77-.72-1-1.28-.26-.59-.43-1.27-.5-2.02-.08-.75-.12-1.69-.12-2.8,0-1.02.04-1.95.13-2.8.09-.85.26-1.54.5-2.07.26-.57.61-.99,1.05-1.27s1-.42,1.67-.42,1.24.14,1.67.42c.43.28.77.69,1.03,1.25.26.56.43,1.24.52,2.04.09.8.13,1.75.13,2.84s-.04,2.05-.13,2.83c-.09.78-.26,1.47-.51,2.05-.24.57-.59.99-1.03,1.27ZM102.24,386.17c-.88-1.38-2.29-2.07-4.21-2.07s-3.29.68-4.19,2.04c-.9,1.36-1.34,3.46-1.34,6.3s.44,4.91,1.33,6.27c.88,1.36,2.29,2.04,4.21,2.04s3.29-.67,4.18-2.01c.9-1.34,1.35-3.45,1.35-6.32s-.44-4.87-1.33-6.25ZM85.72,398.56c-.44.28-1,.42-1.68.42-.72,0-1.29-.15-1.72-.44-.43-.29-.77-.72-1-1.28-.26-.59-.43-1.27-.5-2.02-.08-.75-.12-1.69-.12-2.8,0-1.02.04-1.95.13-2.8.09-.85.26-1.54.5-2.07.26-.57.61-.99,1.05-1.27s1-.42,1.67-.42,1.24.14,1.67.42c.43.28.77.69,1.03,1.25.26.56.43,1.24.52,2.04.09.8.13,1.75.13,2.84s-.04,2.05-.13,2.83c-.09.78-.26,1.47-.51,2.05-.24.57-.59.99-1.03,1.27ZM88.25,386.17c-.88-1.38-2.29-2.07-4.21-2.07s-3.29.68-4.19,2.04c-.9,1.36-1.34,3.46-1.34,6.3s.44,4.91,1.33,6.27c.88,1.36,2.29,2.04,4.21,2.04s3.29-.67,4.18-2.01c.9-1.34,1.35-3.45,1.35-6.32s-.44-4.87-1.33-6.25ZM74.32,397.36h-2.57v3.06h2.57v-3.06ZM63.73,398.56c-.44.28-1,.42-1.68.42-.72,0-1.29-.15-1.72-.44-.43-.29-.77-.72-1-1.28-.26-.59-.43-1.27-.5-2.02-.08-.75-.12-1.69-.12-2.8,0-1.02.04-1.95.13-2.8.09-.85.26-1.54.5-2.07.26-.57.61-.99,1.05-1.27s1-.42,1.67-.42,1.24.14,1.67.42c.43.28.77.69,1.03,1.25.26.56.43,1.24.52,2.04.09.8.13,1.75.13,2.84s-.04,2.05-.13,2.83c-.09.78-.26,1.47-.51,2.05-.24.57-.59.99-1.03,1.27ZM66.26,386.17c-.88-1.38-2.29-2.07-4.21-2.07s-3.29.68-4.19,2.04c-.9,1.36-1.34,3.46-1.34,6.3s.44,4.91,1.33,6.27c.88,1.36,2.29,2.04,4.21,2.04s3.29-.67,4.18-2.01c.9-1.34,1.35-3.45,1.35-6.32s-.44-4.87-1.33-6.25Z" style="fill: #444;"/>
  <path d="M107.3,326.91l6.2-7.22v7.22h-6.2ZM117.94,326.91h-2.37v-9.78h-1.98l-7.75,9.02v2.47h7.66v4.5h2.06v-4.5h2.37v-1.72ZM99.71,331.27c-.44.28-1,.42-1.68.42-.72,0-1.29-.15-1.72-.44-.43-.29-.77-.72-1-1.28-.26-.59-.43-1.27-.5-2.02-.08-.75-.12-1.69-.12-2.8,0-1.02.04-1.95.13-2.8.09-.85.26-1.54.5-2.07.26-.57.61-.99,1.05-1.27s1-.42,1.67-.42,1.24.14,1.67.42c.43.28.77.69,1.03,1.25.26.56.43,1.24.52,2.04.09.8.13,1.75.13,2.84s-.04,2.05-.13,2.83c-.09.78-.26,1.47-.51,2.05-.24.57-.59.99-1.03,1.27ZM102.24,318.88c-.88-1.38-2.29-2.07-4.21-2.07s-3.29.68-4.19,2.04c-.9,1.36-1.34,3.46-1.34,6.3s.44,4.91,1.33,6.27c.88,1.36,2.29,2.04,4.21,2.04s3.29-.67,4.18-2.01c.9-1.34,1.35-3.45,1.35-6.32s-.44-4.87-1.33-6.25ZM85.72,331.27c-.44.28-1,.42-1.68.42-.72,0-1.29-.15-1.72-.44-.43-.29-.77-.72-1-1.28-.26-.59-.43-1.27-.5-2.02-.08-.75-.12-1.69-.12-2.8,0-1.02.04-1.95.13-2.8.09-.85.26-1.54.5-2.07.26-.57.61-.99,1.05-1.27s1-.42,1.67-.42,1.24.14,1.67.42c.43.28.77.69,1.03,1.25.26.56.43,1.24.52,2.04.09.8.13,1.75.13,2.84s-.04,2.05-.13,2.83c-.09.78-.26,1.47-.51,2.05-.24.57-.59.99-1.03,1.27ZM88.25,318.88c-.88-1.38-2.29-2.07-4.21-2.07s-3.29.68-4.19,2.04c-.9,1.36-1.34,3.46-1.34,6.3s.44,4.91,1.33,6.27c.88,1.36,2.29,2.04,4.21,2.04s3.29-.67,4.18-2.01c.9-1.34,1.35-3.45,1.35-6.32s-.44-4.87-1.33-6.25ZM74.32,330.07h-2.57v3.06h2.57v-3.06ZM63.73,331.27c-.44.28-1,.42-1.68.42-.72,0-1.29-.15-1.72-.44-.43-.29-.77-.72-1-1.28-.26-.59-.43-1.27-.5-2.02-.08-.75-.12-1.69-.12-2.8,0-1.02.04-1.95.13-2.8.09-.85.26-1.54.5-2.07.26-.57.61-.99,1.05-1.27s1-.42,1.67-.42,1.24.14,1.67.42c.43.28.77.69,1.03,1.25.26.56.43,1.24.52,2.04.09.8.13,1.75.13,2.84s-.04,2.05-.13,2.83c-.09.78-.26,1.47-.51,2.05-.24.57-.59.99-1.03,1.27ZM66.26,318.88c-.88-1.38-2.29-2.07-4.21-2.07s-3.29.68-4.19,2.04c-.9,1.36-1.34,3.46-1.34,6.3s.44,4.91,1.33,6.27c.88,1.36,2.29,2.04,4.21,2.04s3.29-.67,4.18-2.01c.9-1.34,1.35-3.45,1.35-6.32s-.44-4.87-1.33-6.25Z" style="fill: #444;"/>
  <path d="M114.74,263.48c-.59.63-1.41.95-2.45.95-.45,0-.87-.07-1.25-.22-.38-.15-.74-.38-1.07-.69-.41-.38-.73-.9-.96-1.55-.23-.66-.35-1.55-.35-2.68,0-.22,0-.41.01-.55,0-.15.02-.3.03-.46.55-.3,1.09-.52,1.61-.67.52-.14,1.09-.21,1.7-.21.44,0,.86.04,1.26.11.4.07.77.22,1.1.45.45.32.77.7.97,1.14.2.44.3.99.3,1.65,0,1.19-.3,2.1-.89,2.73ZM117.33,258.23c-.32-.67-.79-1.22-1.42-1.65-.54-.38-1.08-.63-1.6-.76-.52-.13-1.12-.19-1.8-.19-.77,0-1.44.09-2.02.28-.58.19-1.18.47-1.78.83.15-1.64.68-2.94,1.6-3.91.92-.96,2.14-1.44,3.68-1.44.42,0,.84.05,1.24.15.4.1.71.2.91.31h.11v-2.05c-.29-.09-.58-.16-.87-.19-.29-.04-.64-.05-1.06-.05-1.33,0-2.49.23-3.48.68-1,.45-1.81,1.09-2.44,1.9-.67.85-1.15,1.83-1.46,2.92-.3,1.1-.46,2.35-.46,3.77s.17,2.56.5,3.54.81,1.77,1.42,2.36c.49.48,1.06.84,1.71,1.08s1.36.37,2.15.37c1.55,0,2.87-.51,3.94-1.54,1.07-1.03,1.61-2.35,1.61-3.98,0-.95-.16-1.76-.48-2.43ZM99.71,263.99c-.44.28-1,.42-1.68.42-.72,0-1.29-.15-1.72-.44-.43-.29-.77-.72-1-1.28-.26-.59-.43-1.27-.5-2.02-.08-.75-.12-1.69-.12-2.8,0-1.02.04-1.95.13-2.8.09-.85.26-1.54.5-2.07.26-.57.61-.99,1.05-1.27s1-.42,1.67-.42,1.24.14,1.67.42c.43.28.77.69,1.03,1.25.26.56.43,1.24.52,2.04.09.8.13,1.75.13,2.84s-.04,2.05-.13,2.83c-.09.78-.26,1.47-.51,2.05-.24.57-.59.99-1.03,1.27ZM102.24,251.6c-.88-1.38-2.29-2.07-4.21-2.07s-3.29.68-4.19,2.04c-.9,1.36-1.34,3.46-1.34,6.3s.44,4.91,1.33,6.27c.88,1.36,2.29,2.04,4.21,2.04s3.29-.67,4.18-2.01c.9-1.34,1.35-3.45,1.35-6.32s-.44-4.87-1.33-6.25ZM85.72,263.99c-.44.28-1,.42-1.68.42-.72,0-1.29-.15-1.72-.44-.43-.29-.77-.72-1-1.28-.26-.59-.43-1.27-.5-2.02-.08-.75-.12-1.69-.12-2.8,0-1.02.04-1.95.13-2.8.09-.85.26-1.54.5-2.07.26-.57.61-.99,1.05-1.27s1-.42,1.67-.42,1.24.14,1.67.42c.43.28.77.69,1.03,1.25.26.56.43,1.24.52,2.04.09.8.13,1.75.13,2.84s-.04,2.05-.13,2.83c-.09.78-.26,1.47-.51,2.05-.24.57-.59.99-1.03,1.27ZM88.25,251.6c-.88-1.38-2.29-2.07-4.21-2.07s-3.29.68-4.19,2.04c-.9,1.36-1.34,3.46-1.34,6.3s.44,4.91,1.33,6.27c.88,1.36,2.29,2.04,4.21,2.04s3.29-.67,4.18-2.01c.9-1.34,1.35-3.45,1.35-6.32s-.44-4.87-1.33-6.25ZM74.32,262.79h-2.57v3.06h2.57v-3.06ZM63.73,263.99c-.44.28-1,.42-1.68.42-.72,0-1.29-.15-1.72-.44-.43-.29-.77-.72-1-1.28-.26-.59-.43-1.27-.5-2.02-.08-.75-.12-1.69-.12-2.8,0-1.02.04-1.95.13-2.8.09-.85.26-1.54.5-2.07.26-.57.61-.99,1.05-1.27s1-.42,1.67-.42,1.24.14,1.67.42c.43.28.77.69,1.03,1.25.26.56.43,1.24.52,2.04.09.8.13,1.75.13,2.84s-.04,2.05-.13,2.83c-.09.78-.26,1.47-.51,2.05-.24.57-.59.99-1.03,1.27ZM66.26,251.6c-.88-1.38-2.29-2.07-4.21-2.07s-3.29.68-4.19,2.04c-.9,1.36-1.34,3.46-1.34,6.3s.44,4.91,1.33,6.27c.88,1.36,2.29,2.04,4.21,2.04s3.29-.67,4.18-2.01c.9-1.34,1.35-3.45,1.35-6.32s-.44-4.87-1.33-6.25Z" style="fill: #444;"/>
  <path d="M114.54,196.52c-.63.54-1.46.81-2.51.81s-1.87-.32-2.54-.95-1-1.43-1-2.4c0-.76.19-1.44.59-2.04.39-.6.91-1.08,1.55-1.43.67.24,1.2.43,1.6.57.4.14.77.28,1.11.44.84.4,1.41.8,1.7,1.2.29.4.44.92.44,1.58,0,.94-.31,1.68-.94,2.21ZM114.74,188.05c-.27.51-.76,1-1.47,1.47-.47-.14-.96-.31-1.46-.52-.5-.21-.88-.38-1.14-.5-.59-.29-1.03-.63-1.32-1-.29-.38-.44-.82-.44-1.34,0-.73.29-1.31.86-1.74.58-.43,1.32-.64,2.22-.64s1.67.23,2.26.68c.59.46.89,1.07.89,1.83,0,.67-.14,1.25-.41,1.76ZM116.89,191.7c-.53-.63-1.3-1.16-2.3-1.59v-.06c.87-.39,1.54-.94,1.99-1.64.45-.7.68-1.41.68-2.13,0-1.18-.48-2.16-1.43-2.92-.95-.77-2.23-1.15-3.82-1.15s-2.78.4-3.77,1.2-1.48,1.8-1.48,3.01c0,.82.21,1.5.62,2.04.41.54,1.05,1.05,1.91,1.5v.06c-.94.42-1.67.99-2.18,1.71-.52.72-.77,1.52-.77,2.41,0,1.4.51,2.54,1.54,3.44,1.03.9,2.41,1.34,4.14,1.34,1.63,0,2.99-.46,4.07-1.38,1.08-.92,1.62-2.07,1.62-3.45,0-.97-.27-1.78-.79-2.41ZM99.71,196.7c-.44.28-1,.42-1.68.42-.72,0-1.29-.15-1.72-.44-.43-.29-.77-.72-1-1.28-.26-.59-.43-1.27-.5-2.02-.08-.75-.12-1.69-.12-2.8,0-1.02.04-1.95.13-2.8.09-.85.26-1.54.5-2.07.26-.57.61-.99,1.05-1.27s1-.42,1.67-.42,1.24.14,1.67.42c.43.28.77.69,1.03,1.25.26.56.43,1.24.52,2.04.09.8.13,1.75.13,2.84s-.04,2.05-.13,2.83c-.09.78-.26,1.47-.51,2.05-.24.57-.59.99-1.03,1.27ZM102.24,184.31c-.88-1.38-2.29-2.07-4.21-2.07s-3.29.68-4.19,2.04c-.9,1.36-1.34,3.46-1.34,6.3s.44,4.91,1.33,6.27c.88,1.36,2.29,2.04,4.21,2.04s3.29-.67,4.18-2.01c.9-1.34,1.35-3.45,1.35-6.32s-.44-4.87-1.33-6.25ZM85.72,196.7c-.44.28-1,.42-1.68.42-.72,0-1.29-.15-1.72-.44-.43-.29-.77-.72-1-1.28-.26-.59-.43-1.27-.5-2.02-.08-.75-.12-1.69-.12-2.8,0-1.02.04-1.95.13-2.8.09-.85.26-1.54.5-2.07.26-.57.61-.99,1.05-1.27s1-.42,1.67-.42,1.24.14,1.67.42c.43.28.77.69,1.03,1.25.26.56.43,1.24.52,2.04.09.8.13,1.75.13,2.84s-.04,2.05-.13,2.83c-.09.78-.26,1.47-.51,2.05-.24.57-.59.99-1.03,1.27ZM88.25,184.31c-.88-1.38-2.29-2.07-4.21-2.07s-3.29.68-4.19,2.04c-.9,1.36-1.34,3.46-1.34,6.3s.44,4.91,1.33,6.27c.88,1.36,2.29,2.04,4.21,2.04s3.29-.67,4.18-2.01c.9-1.34,1.35-3.45,1.35-6.32s-.44-4.87-1.33-6.25ZM74.32,195.5h-2.57v3.06h2.57v-3.06ZM63.73,196.7c-.44.28-1,.42-1.68.42-.72,0-1.29-.15-1.72-.44-.43-.29-.77-.72-1-1.28-.26-.59-.43-1.27-.5-2.02-.08-.75-.12-1.69-.12-2.8,0-1.02.04-1.95.13-2.8.09-.85.26-1.54.5-2.07.26-.57.61-.99,1.05-1.27s1-.42,1.67-.42,1.24.14,1.67.42c.43.28.77.69,1.03,1.25.26.56.43,1.24.52,2.04.09.8.13,1.75.13,2.84s-.04,2.05-.13,2.83c-.09.78-.26,1.47-.51,2.05-.24.57-.59.99-1.03,1.27ZM66.26,184.31c-.88-1.38-2.29-2.07-4.21-2.07s-3.29.68-4.19,2.04c-.9,1.36-1.34,3.46-1.34,6.3s.44,4.91,1.33,6.27c.88,1.36,2.29,2.04,4.21,2.04s3.29-.67,4.18-2.01c.9-1.34,1.35-3.45,1.35-6.32s-.44-4.87-1.33-6.25Z" style="fill: #444;"/>
  <path d="M116.66,129.65h-3.27v-14.42h-1.67c-.03.47-.14.84-.33,1.11-.19.28-.45.5-.78.68-.27.14-.66.25-1.17.33-.52.08-1,.11-1.45.11v1.46h3.33v10.72h-3.33v1.63h8.66v-1.63ZM99.71,129.42c-.44.28-1,.42-1.68.42-.72,0-1.29-.15-1.72-.44-.43-.29-.77-.72-1-1.28-.26-.59-.43-1.27-.5-2.02-.08-.75-.12-1.69-.12-2.8,0-1.02.04-1.95.13-2.8.09-.85.26-1.54.5-2.07.26-.57.61-.99,1.05-1.27s1-.42,1.67-.42,1.24.14,1.67.42c.43.28.77.69,1.03,1.25.26.56.43,1.24.52,2.04.09.8.13,1.75.13,2.84s-.04,2.05-.13,2.83c-.09.78-.26,1.47-.51,2.05-.24.57-.59.99-1.03,1.27ZM102.24,117.03c-.88-1.38-2.29-2.07-4.21-2.07s-3.29.68-4.19,2.04c-.9,1.36-1.34,3.46-1.34,6.3s.44,4.91,1.33,6.27c.88,1.36,2.29,2.04,4.21,2.04s3.29-.67,4.18-2.01c.9-1.34,1.35-3.45,1.35-6.32s-.44-4.87-1.33-6.25ZM88.31,128.22h-2.57v3.06h2.57v-3.06ZM77.72,129.42c-.44.28-1,.42-1.68.42-.72,0-1.29-.15-1.72-.44-.43-.29-.77-.72-1-1.28-.26-.59-.43-1.27-.5-2.02-.08-.75-.12-1.69-.12-2.8,0-1.02.04-1.95.13-2.8.09-.85.26-1.54.5-2.07.26-.57.61-.99,1.05-1.27s1-.42,1.67-.42,1.24.14,1.67.42c.43.28.77.69,1.03,1.25.26.56.43,1.24.52,2.04.09.8.13,1.75.13,2.84s-.04,2.05-.13,2.83c-.09.78-.26,1.47-.51,2.05-.24.57-.59.99-1.03,1.27ZM80.25,117.03c-.88-1.38-2.29-2.07-4.21-2.07s-3.29.68-4.19,2.04c-.9,1.36-1.34,3.46-1.34,6.3s.44,4.91,1.33,6.27c.88,1.36,2.29,2.04,4.21,2.04s3.29-.67,4.18-2.01c.9-1.34,1.35-3.45,1.35-6.32s-.44-4.87-1.33-6.25Z" style="fill: #444;"/>
  <path d="M117.57,62.15h-8.6c.71-.6,1.47-1.25,2.29-1.96.82-.71,1.61-1.43,2.37-2.19.54-.52.99-1,1.37-1.43s.7-.87.98-1.31c.3-.47.53-.97.68-1.5.15-.53.23-1.09.23-1.7,0-1.35-.47-2.43-1.4-3.22-.93-.79-2.22-1.19-3.86-1.19-.79,0-1.62.1-2.47.31s-1.53.44-2.04.69v2.26h.11c.72-.47,1.46-.82,2.22-1.05.76-.23,1.46-.34,2.12-.34.98,0,1.75.23,2.29.7.55.47.82,1.12.82,1.95,0,.91-.25,1.76-.76,2.54-.51.78-1.45,1.84-2.83,3.17-.65.64-1.36,1.28-2.11,1.92-.76.64-1.51,1.29-2.26,1.93v2.25h10.83v-1.84ZM102.67,62.36h-3.27v-14.42h-1.67c-.03.47-.14.84-.33,1.11-.19.28-.45.5-.78.68-.27.14-.66.25-1.17.33-.52.08-1,.11-1.45.11v1.46h3.33v10.72h-3.33v1.63h8.66v-1.63ZM85.72,62.13c-.44.28-1,.42-1.68.42-.72,0-1.29-.15-1.72-.44-.43-.29-.77-.72-1-1.28-.26-.59-.43-1.27-.5-2.02-.08-.75-.12-1.69-.12-2.8,0-1.02.04-1.95.13-2.8.09-.85.26-1.54.5-2.07.26-.57.61-.99,1.05-1.27s1-.42,1.67-.42,1.24.14,1.67.42c.43.28.77.69,1.03,1.25.26.56.43,1.24.52,2.04.09.8.13,1.75.13,2.84s-.04,2.05-.13,2.83c-.09.78-.26,1.47-.51,2.05-.24.57-.59.99-1.03,1.27ZM88.25,49.74c-.88-1.38-2.29-2.07-4.21-2.07s-3.29.68-4.19,2.04c-.9,1.36-1.34,3.46-1.34,6.3s.44,4.91,1.33,6.27c.88,1.36,2.29,2.04,4.21,2.04s3.29-.67,4.18-2.01c.9-1.34,1.35-3.45,1.35-6.32s-.44-4.87-1.33-6.25ZM74.32,60.93h-2.57v3.06h2.57v-3.06ZM63.73,62.13c-.44.28-1,.42-1.68.42-.72,0-1.29-.15-1.72-.44-.43-.29-.77-.72-1-1.28-.26-.59-.43-1.27-.5-2.02-.08-.75-.12-1.69-.12-2.8,0-1.02.04-1.95.13-2.8.09-.85.26-1.54.5-2.07.26-.57.61-.99,1.05-1.27s1-.42,1.67-.42,1.24.14,1.67.42c.43.28.77.69,1.03,1.25.26.56.43,1.24.52,2.04.09.8.13,1.75.13,2.84s-.04,2.05-.13,2.83c-.09.78-.26,1.47-.51,2.05-.24.57-.59.99-1.03,1.27ZM66.26,49.74c-.88-1.38-2.29-2.07-4.21-2.07s-3.29.68-4.19,2.04c-.9,1.36-1.34,3.46-1.34,6.3s.44,4.91,1.33,6.27c.88,1.36,2.29,2.04,4.21,2.04s3.29-.67,4.18-2.01c.9-1.34,1.35-3.45,1.35-6.32s-.44-4.87-1.33-6.25Z" style="fill: #444;"/>
  <polyline points="586 0 700 0 700 105 586 105 586 0" style="fill: #fff;"/>
  <g style="clip-path: url(#clippath-1);">
    <path d="M679.79,22.92l5.58-5.54h-2.55l-5.83,6v-10.72h-2.02v16.71h2.02v-4.01l1.31-1.25,4.81,5.25h2.66l-5.98-6.46M662.97,22.04c.09-.95.45-1.74,1.09-2.37.64-.64,1.5-.96,2.58-.96s1.87.29,2.4.87c.53.58.79,1.4.8,2.46h-6.87M671.82,22.49c0-1.74-.44-3.08-1.32-4.03-.88-.95-2.13-1.42-3.74-1.42-1.75,0-3.16.58-4.23,1.73-1.07,1.15-1.61,2.71-1.61,4.67s.56,3.51,1.68,4.59c1.12,1.08,2.67,1.62,4.66,1.62.78,0,1.53-.1,2.23-.29.71-.19,1.4-.43,2.08-.72v-2.2h-.11c-.35.32-.94.64-1.77.96-.83.33-1.65.49-2.47.49-.62,0-1.18-.09-1.69-.26-.51-.17-.95-.43-1.33-.77-.39-.35-.69-.8-.91-1.35-.22-.55-.33-1.19-.33-1.93h8.84v-1.1M649.87,22.04c.09-.95.45-1.74,1.09-2.37.64-.64,1.5-.96,2.58-.96s1.87.29,2.4.87c.53.58.79,1.4.8,2.46h-6.88M658.71,22.49c0-1.74-.44-3.08-1.32-4.03-.88-.95-2.13-1.42-3.74-1.42-1.75,0-3.16.58-4.23,1.73-1.07,1.15-1.61,2.71-1.61,4.67s.56,3.51,1.68,4.59c1.12,1.08,2.67,1.62,4.66,1.62.78,0,1.53-.1,2.23-.29.71-.19,1.4-.43,2.08-.72v-2.2h-.11c-.35.32-.94.64-1.77.96-.83.33-1.65.49-2.47.49-.62,0-1.18-.09-1.69-.26-.51-.17-.95-.43-1.33-.77-.39-.35-.69-.8-.91-1.35-.22-.55-.33-1.19-.33-1.93h8.84v-1.1M644.68,13.38l-3.34,13.43-3.34-13.43h-2.16l-3.31,13.3-3.36-13.3h-2.18l4.23,16h2.34l3.29-13.28,3.36,13.28h2.4l4.16-16h-2.08" style="fill: #444;"/>
    <polyline points="612 26.8 600 26.8 600 14.8 612 14.8 612 26.8" style="fill: #d3d3d3;"/>
    <g style="clip-path: url(#clippath-2);">
      <rect x="586" y="5" width="108.41" height="31.6" style="fill: #fff;"/>
    </g>
    <path d="M649.87,22.04c.09-.95.45-1.74,1.09-2.37.64-.64,1.5-.96,2.58-.96s1.87.29,2.4.87c.53.58.79,1.4.8,2.46h-6.88M653.65,17.05c-1.75,0-3.16.58-4.23,1.73-1.07,1.15-1.61,2.71-1.61,4.67s.56,3.51,1.68,4.59c1.12,1.08,2.67,1.62,4.66,1.62.78,0,1.53-.1,2.23-.29.71-.19,1.4-.43,2.08-.72v-2.2h-.11c-.35.32-.94.64-1.77.96-.83.33-1.65.49-2.47.49-.62,0-1.18-.09-1.69-.26-.51-.17-.95-.43-1.33-.77-.39-.35-.69-.8-.91-1.35-.22-.55-.33-1.19-.33-1.93h8.84v-1.1c0-1.74-.44-3.08-1.32-4.03-.88-.95-2.13-1.42-3.74-1.42M662.97,22.04c.09-.95.45-1.74,1.09-2.37.64-.64,1.5-.96,2.58-.96s1.87.29,2.4.87c.53.58.79,1.4.8,2.46h-6.87M666.76,17.05c-1.75,0-3.16.58-4.23,1.73-1.07,1.15-1.61,2.71-1.61,4.67s.56,3.51,1.68,4.59c1.12,1.08,2.67,1.62,4.66,1.62.78,0,1.53-.1,2.23-.29.71-.19,1.4-.43,2.08-.72v-2.2h-.11c-.35.32-.94.64-1.77.96-.83.33-1.65.49-2.47.49-.62,0-1.18-.09-1.69-.26-.51-.17-.95-.43-1.33-.77-.39-.35-.69-.8-.91-1.35-.22-.55-.33-1.19-.33-1.93h8.84v-1.1c0-1.74-.44-3.08-1.32-4.03-.88-.95-2.13-1.42-3.74-1.42M646.76,13.38h-2.08l-3.34,13.43-3.34-13.43h-2.16l-3.31,13.3-3.36-13.3h-2.18l4.23,16h2.34l3.29-13.28,3.36,13.28h2.4l4.16-16M676.98,12.67h-2.02v16.71h2.02v-4.01l1.31-1.25,4.81,5.25h2.66l-5.98-6.46,5.58-5.54h-2.55l-5.83,6v-10.72" style="fill: #444;"/>
    <polyline points="612 14.8 600 14.8 600 26.8 612 26.8 612 14.8" style="fill: #d3d3d3;"/>
    <path d="M692.5,53.19c0-1.47-.34-2.59-1.02-3.37-.68-.78-1.67-1.17-2.96-1.17-.71,0-1.4.15-2.07.44-.67.29-1.33.7-1.96,1.22v-6.05h-2.02v16.71h2.02v-8.96c.55-.42,1.13-.77,1.73-1.04.6-.27,1.18-.41,1.73-.41s.97.07,1.31.22c.34.15.59.37.77.67.17.27.29.65.35,1.13.06.48.1,1,.1,1.55v6.83h2.02v-7.79M680.03,59.06h-.11c-.16.06-.42.15-.77.24-.36.1-.7.15-1.03.15-.57,0-.99-.07-1.26-.2-.28-.13-.49-.34-.65-.63-.17-.31-.27-.64-.3-.99-.03-.35-.04-.85-.04-1.48v-5.47h4.17v-1.7h-4.17v-3.45h-2.02v3.45h-1.36v1.7h1.36v6.38c0,1.45.32,2.51.96,3.17.64.66,1.57.99,2.79.99.35,0,.75-.03,1.2-.1.45-.06.86-.15,1.24-.25v-1.82M669.91,53.19c0-1.47-.34-2.59-1.02-3.37-.68-.78-1.67-1.17-2.96-1.17-.71,0-1.4.15-2.07.44-.67.29-1.33.7-1.96,1.22v-1.33h-2.02v12h2.02v-8.96c.55-.42,1.13-.77,1.73-1.04.6-.27,1.18-.41,1.73-.41s.97.07,1.31.22c.34.15.59.37.77.67.17.27.29.65.35,1.13.06.48.1,1,.1,1.55v6.83h2.02v-7.79M653.75,58.42c-.61.77-1.46,1.16-2.53,1.16s-1.94-.39-2.55-1.16c-.61-.78-.91-1.92-.91-3.42s.3-2.71.91-3.46c.6-.75,1.46-1.13,2.55-1.13s1.93.38,2.54,1.13c.61.76.91,1.91.91,3.46s-.31,2.66-.92,3.43M655.25,50.35c-1-1.14-2.35-1.7-4.03-1.7s-3.05.57-4.04,1.7c-1,1.13-1.5,2.68-1.5,4.63s.5,3.5,1.5,4.63c1,1.13,2.35,1.7,4.04,1.7s3.03-.57,4.03-1.7c1-1.13,1.5-2.67,1.5-4.63s-.5-3.5-1.5-4.63M642.39,44.99h-2.95l-4.12,8.91-4.26-8.91h-2.9v16h1.99v-13.78l4.41,9.38h1.27l4.45-9.38v13.78h2.13v-16" style="fill: #444;"/>
    <polyline points="612 58.4 600 58.4 600 46.4 612 46.4 612 58.4" style="fill: #a9a9a9;"/>
    <path d="M651.22,50.39c-1.1,0-1.95.38-2.55,1.13-.61.76-.91,1.91-.91,3.46s.3,2.64.91,3.42c.61.78,1.46,1.16,2.55,1.16s1.92-.38,2.53-1.16c.61-.77.92-1.91.92-3.43s-.3-2.71-.91-3.46c-.61-.75-1.45-1.13-2.54-1.13M651.22,61.31c-1.7,0-3.05-.57-4.04-1.7-1-1.13-1.5-2.67-1.5-4.63s.5-3.5,1.5-4.63c1-1.14,2.35-1.7,4.04-1.7s3.03.57,4.03,1.7c1,1.13,1.5,2.68,1.5,4.63s-.5,3.5-1.5,4.63c-1,1.13-2.35,1.7-4.03,1.7M661.9,50.31c.63-.52,1.28-.93,1.96-1.22.67-.29,1.36-.44,2.07-.44,1.3,0,2.28.39,2.96,1.17.68.78,1.02,1.91,1.02,3.37v7.79h-2.02v-6.83c0-.55-.03-1.07-.1-1.55-.06-.48-.18-.86-.35-1.13-.18-.3-.44-.52-.77-.67-.34-.15-.77-.22-1.31-.22s-1.13.14-1.73.41c-.6.27-1.18.62-1.73,1.04v8.96h-2.02v-12h2.02v1.33M600,58.4v-12h12v12h-12M672.48,50.68v-1.7h1.36v-3.45h2.02v3.45h4.17v1.7h-4.17v5.47c0,.63.01,1.12.04,1.48.03.36.13.69.3.99.16.29.37.5.65.63.28.13.7.2,1.26.2.33,0,.67-.05,1.03-.15.36-.1.62-.18.77-.24h.11v1.82c-.38.1-.79.18-1.24.25-.45.06-.85.1-1.2.1-1.22,0-2.16-.33-2.79-.99-.64-.66-.96-1.71-.96-3.17v-6.38h-1.36M635.31,53.89l4.12-8.91h2.95v16h-2.13v-13.78l-4.45,9.38h-1.27l-4.41-9.38v13.78h-1.99v-16h2.9l4.26,8.91M682.47,60.98v-16.71h2.02v6.05c.63-.52,1.28-.93,1.96-1.22.67-.29,1.36-.44,2.07-.44,1.3,0,2.28.39,2.96,1.17.68.78,1.02,1.91,1.02,3.37v7.79h-2.02v-6.83c0-.55-.03-1.07-.1-1.55-.06-.48-.18-.86-.35-1.13-.18-.3-.44-.52-.77-.67-.34-.15-.77-.22-1.31-.22s-1.13.14-1.73.41c-.6.27-1.18.62-1.73,1.04v8.96h-2.02M694.41,36.6h-108.41v31.6h108.41v-31.6" style="fill: #fff;"/>
    <path d="M651.22,59.57c-1.09,0-1.94-.39-2.55-1.16-.61-.78-.91-1.92-.91-3.42s.3-2.71.91-3.46c.6-.75,1.46-1.13,2.55-1.13s1.93.38,2.54,1.13c.61.76.91,1.91.91,3.46s-.31,2.66-.92,3.43c-.61.77-1.46,1.16-2.53,1.16M651.22,48.65c-1.7,0-3.05.57-4.04,1.7-1,1.13-1.5,2.68-1.5,4.63s.5,3.5,1.5,4.63c1,1.13,2.35,1.7,4.04,1.7s3.03-.57,4.03-1.7c1-1.13,1.5-2.67,1.5-4.63s-.5-3.5-1.5-4.63c-1-1.14-2.35-1.7-4.03-1.7M665.93,48.65c-.71,0-1.4.15-2.07.44-.67.29-1.33.7-1.96,1.22v-1.33h-2.02v12h2.02v-8.96c.55-.42,1.13-.77,1.73-1.04.6-.27,1.18-.41,1.73-.41s.97.07,1.31.22c.34.15.59.37.77.67.17.27.29.65.35,1.13.06.48.1,1,.1,1.55v6.83h2.02v-7.79c0-1.47-.34-2.59-1.02-3.37-.68-.78-1.67-1.17-2.96-1.17M675.87,45.53h-2.02v3.45h-1.36v1.7h1.36v6.38c0,1.45.32,2.51.96,3.17.64.66,1.57.99,2.79.99.35,0,.75-.03,1.2-.1.45-.06.86-.15,1.24-.25v-1.82h-.11c-.16.06-.42.15-.77.24-.36.1-.7.15-1.03.15-.57,0-.99-.07-1.26-.2-.28-.13-.49-.34-.65-.63-.17-.31-.27-.64-.3-.99-.03-.35-.04-.85-.04-1.48v-5.47h4.17v-1.7h-4.17v-3.45M642.39,44.99h-2.95l-4.12,8.91-4.26-8.91h-2.9v16h1.99v-13.78l4.41,9.38h1.27l4.45-9.38v13.78h2.13v-16M684.49,44.27h-2.02v16.71h2.02v-8.96c.55-.42,1.13-.77,1.73-1.04.6-.27,1.18-.41,1.73-.41s.97.07,1.31.22c.34.15.59.37.77.67.17.27.29.65.35,1.13.06.48.1,1,.1,1.55v6.83h2.02v-7.79c0-1.47-.34-2.59-1.02-3.37-.68-.78-1.67-1.17-2.96-1.17-.71,0-1.4.15-2.07.44-.67.29-1.33.7-1.96,1.22v-6.05" style="fill: #444;"/>
    <polyline points="612 46.4 600 46.4 600 58.4 612 58.4 612 46.4" style="fill: #a9a9a9;"/>
    <path d="M673.93,80.71c-.32-.05-.55-.08-.71-.1-.16-.02-.41-.03-.76-.03-.64,0-1.26.13-1.87.4-.61.27-1.32.72-2.12,1.37v-1.77h-2.02v12h2.02v-8.52c.54-.44,1.1-.79,1.68-1.07.58-.28,1.18-.41,1.8-.41.39,0,.72.02,1,.05.28.03.57.08.88.16h.11v-2.07M658.91,90.62c-.59.28-1.24.41-1.94.41-.85,0-1.49-.17-1.9-.52-.42-.35-.62-.86-.62-1.55,0-.61.18-1.09.54-1.43.36-.35.83-.6,1.41-.77.49-.14,1.15-.24,1.98-.31.83-.07,1.56-.12,2.18-.16v3.34c-.5.39-1.05.72-1.63.99M662.56,84.44c0-.77-.12-1.42-.35-1.94-.24-.52-.58-.95-1.03-1.28-.46-.34-1-.57-1.63-.71-.63-.14-1.36-.21-2.21-.21-.72,0-1.46.06-2.2.19-.75.13-1.31.25-1.71.35v2.05h.11c.69-.26,1.37-.47,2.02-.61.65-.14,1.24-.21,1.77-.21.44,0,.86.03,1.26.09.4.06.74.17,1.03.33.3.17.53.41.69.71.16.3.24.68.24,1.14v.31c-1.17.06-2.27.14-3.3.26-1.02.11-1.9.33-2.63.66-.72.32-1.28.76-1.67,1.33-.39.56-.59,1.3-.59,2.21,0,1.11.38,2.02,1.13,2.74s1.67,1.07,2.75,1.07c.59,0,1.1-.06,1.54-.17.44-.11.82-.25,1.16-.41.29-.13.58-.3.89-.52.3-.22.55-.39.73-.51v1.28h2.01v-8.14M641.33,85.24c.09-.95.45-1.74,1.09-2.37.64-.64,1.5-.96,2.58-.96s1.87.29,2.4.87c.53.58.79,1.4.8,2.46h-6.87M650.17,85.69c0-1.74-.44-3.08-1.32-4.03-.88-.95-2.13-1.42-3.74-1.42-1.75,0-3.16.58-4.23,1.73-1.07,1.15-1.61,2.71-1.61,4.67s.56,3.51,1.68,4.59c1.12,1.08,2.67,1.62,4.66,1.62.78,0,1.53-.1,2.23-.29.71-.19,1.4-.43,2.08-.72v-2.2h-.11c-.35.32-.94.64-1.77.96-.83.33-1.65.49-2.47.49-.62,0-1.18-.09-1.69-.26-.51-.17-.95-.43-1.33-.77-.39-.35-.69-.8-.91-1.35-.22-.55-.33-1.19-.33-1.93h8.84v-1.1M637.2,76.58l-4.42,7.15-4.37-7.15h-2.35l5.65,9.21v6.79h2.13v-7.01l5.63-8.98h-2.27" style="fill: #444;"/>
    <polyline points="612 90 600 90 600 78 612 78 612 90" style="fill: gray;"/>
    <path d="M660.55,86.29c-.62.04-1.34.09-2.18.16-.83.07-1.5.18-1.98.31-.58.17-1.05.42-1.41.77-.36.35-.54.83-.54,1.43,0,.69.21,1.2.62,1.55.41.35,1.05.52,1.9.52.71,0,1.36-.14,1.94-.41.59-.28,1.13-.61,1.63-.99v-3.34M645,81.91c-1.08,0-1.94.32-2.58.96-.64.64-1,1.43-1.09,2.37h6.87c0-1.06-.27-1.88-.8-2.46-.53-.58-1.33-.87-2.4-.87M668.46,82.35c.8-.64,1.51-1.1,2.12-1.37.61-.27,1.24-.4,1.87-.4.35,0,.61,0,.76.03.16.02.39.05.71.1v2.07h-.11c-.3-.07-.59-.12-.88-.16-.28-.03-.62-.05-1-.05-.62,0-1.22.14-1.8.41-.58.28-1.14.63-1.68,1.07v8.52h-2.02v-12h2.02v1.77M653.42,82.89v-2.05c.39-.11.96-.23,1.71-.35.74-.13,1.48-.19,2.2-.19.84,0,1.58.07,2.21.21.63.14,1.17.38,1.63.71.45.33.8.76,1.03,1.28.24.52.35,1.17.35,1.94v8.14h-2.01v-1.28c-.18.12-.42.29-.73.51-.3.22-.6.39-.89.52-.34.17-.72.3-1.16.41-.44.11-.95.17-1.54.17-1.08,0-2-.36-2.75-1.07s-1.13-1.63-1.13-2.74c0-.91.19-1.65.59-2.21.39-.56.95-1,1.67-1.33.73-.32,1.61-.54,2.63-.66,1.02-.11,2.12-.2,3.3-.26v-.31c0-.46-.08-.84-.24-1.14-.16-.3-.39-.54-.69-.71-.29-.17-.63-.28-1.03-.33-.4-.06-.82-.09-1.26-.09-.53,0-1.12.07-1.77.21-.65.14-1.33.34-2.02.61h-.11M645.62,92.86c-1.99,0-3.54-.54-4.66-1.62-1.12-1.08-1.68-2.61-1.68-4.59s.54-3.52,1.61-4.67c1.07-1.15,2.48-1.73,4.23-1.73,1.62,0,2.87.47,3.74,1.42.88.95,1.32,2.29,1.32,4.03v1.1h-8.84c0,.74.11,1.38.33,1.93.22.55.53,1,.91,1.35.37.34.81.6,1.33.77.51.17,1.08.26,1.69.26.82,0,1.64-.16,2.47-.49.83-.33,1.42-.65,1.77-.96h.11v2.2c-.68.29-1.38.53-2.08.72-.71.19-1.45.29-2.23.29M600,90v-12h12v12h-12M639.47,76.58h0l-5.63,8.98v7.01h-2.13v-6.79l-5.65-9.21h2.35l4.37,7.15,4.42-7.15h2.27M694.41,68.2h-108.41v31.6h108.41v-31.6" style="fill: #fff;"/>
    <path d="M672.46,80.58c-.64,0-1.26.13-1.87.4-.61.27-1.32.72-2.12,1.37v-1.77h-2.02v12h2.02v-8.52c.54-.44,1.1-.79,1.68-1.07.58-.28,1.18-.41,1.8-.41.39,0,.72.02,1,.05.28.03.57.08.88.16h.11v-2.07c-.32-.05-.55-.08-.71-.1-.16-.02-.41-.03-.76-.03M656.97,91.03c-.85,0-1.49-.17-1.9-.52-.42-.35-.62-.86-.62-1.55,0-.61.18-1.09.54-1.43.36-.35.83-.6,1.41-.77.49-.14,1.15-.24,1.98-.31.83-.07,1.56-.12,2.18-.16v3.34c-.5.39-1.05.72-1.63.99-.59.28-1.24.41-1.94.41M657.33,80.29c-.72,0-1.46.06-2.2.19-.75.13-1.31.25-1.71.35v2.05h.11c.69-.26,1.37-.47,2.02-.61.65-.14,1.24-.21,1.77-.21.44,0,.86.03,1.26.09.4.06.74.17,1.03.33.3.17.53.41.69.71.16.3.24.68.24,1.14v.31c-1.17.06-2.27.14-3.3.26-1.02.11-1.9.33-2.63.66-.72.32-1.28.76-1.67,1.33-.39.56-.59,1.3-.59,2.21,0,1.11.38,2.02,1.13,2.74s1.67,1.07,2.75,1.07c.59,0,1.1-.06,1.54-.17.44-.11.82-.25,1.16-.41.29-.13.58-.3.89-.52.3-.22.55-.39.73-.51v1.28h2.01v-8.14c0-.77-.12-1.42-.35-1.94-.24-.52-.58-.95-1.03-1.28-.46-.34-1-.57-1.63-.71-.63-.14-1.36-.21-2.21-.21M641.33,85.24c.09-.95.45-1.74,1.09-2.37.64-.64,1.5-.96,2.58-.96s1.87.29,2.4.87c.53.58.79,1.4.8,2.46h-6.87M645.11,80.25c-1.75,0-3.16.58-4.23,1.73-1.07,1.15-1.61,2.71-1.61,4.67s.56,3.51,1.68,4.59c1.12,1.08,2.67,1.62,4.66,1.62.78,0,1.53-.1,2.23-.29.71-.19,1.4-.43,2.08-.72v-2.2h-.11c-.35.32-.94.64-1.77.96-.83.33-1.65.49-2.47.49-.62,0-1.18-.09-1.69-.26-.51-.17-.95-.43-1.33-.77-.39-.35-.69-.8-.91-1.35-.22-.55-.33-1.19-.33-1.93h8.84v-1.1c0-1.74-.44-3.08-1.32-4.03-.88-.95-2.13-1.42-3.74-1.42M639.47,76.58h-2.27l-4.42,7.15-4.37-7.15h-2.35l5.65,9.21v6.79h2.13v-7.01l5.63-8.98" style="fill: #444;"/>
    <polyline points="612 78 600 78 600 90 612 90 612 78" style="fill: gray;"/>
  </g>
  <path d="M17.78,153.56c-1.12-.1-2.05-.53-2.81-1.29s-1.13-1.78-1.13-3.05.34-2.22,1.03-2.84,1.65-.94,2.91-.95v8.12ZM18.31,143.11c-2.06,0-3.64.52-4.76,1.56s-1.68,2.51-1.68,4.42c0,2.06.68,3.73,2.04,5s3.2,1.9,5.52,1.9,4.15-.66,5.43-1.98c1.27-1.32,1.91-3.16,1.91-5.51,0-.92-.11-1.8-.34-2.64s-.51-1.66-.85-2.46h-2.6v.13c.37.41.75,1.11,1.14,2.09.39.98.58,1.95.58,2.91,0,.73-.1,1.39-.3,2s-.51,1.13-.91,1.57c-.42.46-.95.82-1.59,1.08-.65.26-1.41.39-2.28.39v-10.45h-1.29ZM24.17,157.87v.13c.08.19.17.49.29.91.11.42.17.83.17,1.22,0,.67-.08,1.17-.24,1.49-.16.33-.4.58-.74.77-.36.2-.76.32-1.17.36-.42.03-1,.05-1.75.05h-6.46v-4.93h-2.01v4.93h-4.08v2.39h4.08v1.61h2.01v-1.61h7.54c1.72,0,2.97-.38,3.75-1.13s1.17-1.85,1.17-3.3c0-.41-.04-.89-.11-1.42s-.17-1.02-.29-1.47h-2.15ZM24.13,174.13c.33.69.49,1.46.49,2.3,0,1.01-.21,1.76-.62,2.25-.41.49-1.02.74-1.83.74-.72,0-1.28-.21-1.69-.63-.41-.42-.71-.98-.91-1.66-.16-.58-.28-1.36-.37-2.34s-.15-1.84-.19-2.57h3.95c.46.59.85,1.24,1.17,1.93ZM16.82,169.82c-.91,0-1.68.14-2.3.42s-1.12.69-1.51,1.22c-.4.54-.68,1.18-.84,1.92-.17.74-.25,1.61-.25,2.61,0,.85.08,1.72.23,2.6s.29,1.55.42,2.02h2.42v-.13c-.31-.82-.55-1.62-.72-2.39-.17-.77-.25-1.47-.25-2.09,0-.52.03-1.01.1-1.49s.2-.88.39-1.22c.2-.36.48-.63.84-.82s.8-.29,1.35-.29h.37c.07,1.39.17,2.69.3,3.9s.39,2.25.77,3.11c.38.85.9,1.51,1.57,1.97.67.46,1.53.69,2.61.69,1.31,0,2.39-.44,3.24-1.33s1.27-1.97,1.27-3.25c0-.69-.07-1.3-.2-1.82-.13-.52-.29-.97-.49-1.37-.15-.34-.36-.69-.62-1.05-.26-.36-.46-.65-.6-.86h1.51v-2.37h-9.62ZM12.42,182.63c-.06.37-.1.65-.12.84-.02.19-.03.49-.03.9,0,.75.16,1.49.48,2.22.32.72.86,1.56,1.62,2.51h-2.09v2.39h14.18v-2.39h-10.07c-.52-.63-.94-1.29-1.26-1.98-.33-.69-.49-1.4-.49-2.13,0-.46.02-.85.06-1.19.04-.33.1-.68.18-1.03v-.13h-2.45ZM17.24,205.22c-1.74,0-3.06.4-3.99,1.21s-1.38,1.97-1.38,3.5c0,.84.17,1.65.52,2.45s.83,1.57,1.45,2.31h-1.57v2.39h14.18v-2.39h-10.59c-.5-.65-.91-1.33-1.23-2.04s-.48-1.39-.48-2.04.09-1.15.26-1.55c.17-.4.44-.7.79-.91.32-.2.77-.34,1.34-.42.57-.08,1.18-.11,1.83-.11h8.07v-2.39h-9.2ZM23.42,224.32c.91.72,1.36,1.72,1.36,2.99s-.46,2.29-1.38,3.01c-.92.72-2.27,1.08-4.04,1.08s-3.2-.36-4.09-1.07c-.89-.72-1.34-1.72-1.34-3.02s.45-2.28,1.34-3c.89-.72,2.26-1.08,4.09-1.08s3.15.36,4.06,1.09ZM13.88,222.55c-1.34,1.19-2.01,2.77-2.01,4.76s.67,3.6,2.01,4.78c1.34,1.18,3.17,1.77,5.48,1.77s4.13-.59,5.47-1.77,2.01-2.77,2.01-4.78-.67-3.58-2.01-4.76-3.16-1.78-5.47-1.78-4.14.59-5.48,1.78ZM12.27,237.58v2.39h14.18v-2.39h-14.18ZM7.42,237.43v2.69h2.48v-2.69h-2.48ZM24.17,242.87v.13c.08.19.17.49.29.91.11.42.17.83.17,1.22,0,.67-.08,1.17-.24,1.49-.16.33-.4.58-.74.77-.36.2-.76.32-1.17.36-.42.03-1,.05-1.75.05h-6.46v-4.93h-2.01v4.93h-4.08v2.39h4.08v1.61h2.01v-1.61h7.54c1.72,0,2.97-.38,3.75-1.13s1.17-1.85,1.17-3.3c0-.41-.04-.89-.11-1.42s-.17-1.02-.29-1.47h-2.15ZM22.93,253.3v.13c.14.18.32.42.51.72.2.3.39.63.56.98.2.4.37.85.5,1.35s.19.99.19,1.47c0,1.39-.46,2.46-1.38,3.23-.92.77-2.23,1.15-3.94,1.15s-3.1-.39-4-1.17c-.91-.78-1.37-1.85-1.37-3.21,0-.74.15-1.49.46-2.27s.74-1.53,1.31-2.25v-.13h-2.65c-.33.65-.61,1.37-.84,2.15s-.34,1.58-.34,2.39c0,2.09.66,3.77,1.98,5.05s3.14,1.91,5.46,1.91c1.24,0,2.33-.17,3.26-.51s1.7-.82,2.31-1.43c.61-.61,1.06-1.34,1.37-2.2.3-.85.45-1.79.45-2.82,0-.8-.11-1.56-.32-2.28s-.51-1.47-.89-2.27h-2.63ZM17.78,277.85c-1.12-.1-2.05-.53-2.81-1.29s-1.13-1.78-1.13-3.05.34-2.22,1.03-2.84,1.65-.94,2.91-.95v8.12ZM18.31,267.4c-2.06,0-3.64.52-4.76,1.56s-1.68,2.51-1.68,4.42c0,2.06.68,3.73,2.04,5s3.2,1.9,5.52,1.9,4.15-.66,5.43-1.98c1.27-1.32,1.91-3.16,1.91-5.51,0-.92-.11-1.8-.34-2.64s-.51-1.66-.85-2.46h-2.6v.13c.37.41.75,1.11,1.14,2.09.39.98.58,1.95.58,2.91,0,.73-.1,1.39-.3,2s-.51,1.13-.91,1.57c-.42.46-.95.82-1.59,1.08-.65.26-1.41.39-2.28.39v-10.45h-1.29ZM6.82,280.78c-.07.36-.13.75-.18,1.17s-.08.91-.08,1.44c0,1.58.45,2.79,1.35,3.63.9.84,2.19,1.26,3.88,1.26h.47v1.61h2.01v-1.61h12.17v-2.39h-12.17v-4.23h-2.01v4.3h-.48c-1.18,0-2-.23-2.46-.69-.45-.46-.68-1.2-.68-2.23,0-.32.04-.69.12-1.12.08-.42.16-.77.23-1.03v-.13h-2.18ZM17.24,293.01c-1.74,0-3.06.4-3.99,1.21s-1.38,1.97-1.38,3.5c0,.84.17,1.65.52,2.45s.83,1.57,1.45,2.31h-1.57v2.39h14.18v-2.39h-10.59c-.5-.65-.91-1.33-1.23-2.04s-.48-1.39-.48-2.04.09-1.15.26-1.55c.17-.4.44-.7.79-.91.32-.2.77-.34,1.34-.42.57-.08,1.18-.11,1.83-.11h8.07v-2.39h-9.2ZM24.52,308.95v2.48h-15.04v-2.48h-1.93v7.46h1.93v-2.48h15.04v2.48h1.93v-7.46h-1.93Z" style="fill: #444;"/>
</svg>