<?xml version="1.0" encoding="UTF-8"?>
<svg id="Layer_1" data-name="Layer 1" xmlns="http://www.w3.org/2000/svg" width="700" height="500" xmlns:xlink="http://www.w3.org/1999/xlink" viewBox="0 0 700 500">
  <defs>
    <clipPath id="clippath">
      <polyline points="80 60 567 60 567 420 80 420 80 60" style="fill: none;"/>
    </clipPath>
    <clipPath id="clippath-1">
      <polyline points="576.74 60 687.74 60 687.74 146 576.74 146 576.74 60" style="fill: none;"/>
    </clipPath>
  </defs>
  <polyline points="0 0 700 0 700 500 0 500 0 0" style="fill: #fff;"/>
  <polyline points="80 373 567 373 567 372 80 372" style="fill: #eee;"/>
  <polyline points="80 325.5 567 325.5 567 324.5 80 324.5" style="fill: #eee;"/>
  <polyline points="80 278 567 278 567 277 80 277" style="fill: #eee;"/>
  <polyline points="80 230.5 567 230.5 567 229.5 80 229.5" style="fill: #eee;"/>
  <polyline points="80 183 567 183 567 182 80 182" style="fill: #eee;"/>
  <polyline points="80 135.5 567 135.5 567 134.5 80 134.5" style="fill: #eee;"/>
  <polyline points="80 88 567 88 567 87 80 87" style="fill: #eee;"/>
  <polyline points="80 420.5 567 420.5 567 419.5 80 419.5" style="fill: #444;"/>
  <g style="clip-path: url(#clippath);">
    <rect x="81.61" y="367.75" width="12.86" height="52.25" style="fill: #636efa;"/>
    <rect x="99.41" y="355.88" width="12.87" height="64.12" style="fill: #636efa;"/>
    <rect x="115.49" y="339.25" width="12.87" height="80.75" style="fill: #636efa;"/>
    <rect x="133.29" y="336.88" width="12.87" height="83.12" style="fill: #636efa;"/>
    <rect x="150.52" y="334.5" width="12.87" height="85.5" style="fill: #636efa;"/>
    <rect x="168.33" y="332.13" width="12.86" height="87.87" style="fill: #636efa;"/>
    <rect x="185.55" y="332.13" width="12.87" height="87.87" style="fill: #636efa;"/>
    <rect x="203.36" y="327.38" width="12.86" height="92.62" style="fill: #636efa;"/>
    <rect x="221.16" y="325" width="12.87" height="95" style="fill: #636efa;"/>
    <rect x="238.39" y="322.63" width="12.86" height="97.37" style="fill: #636efa;"/>
    <rect x="256.19" y="320.25" width="12.87" height="99.75" style="fill: #636efa;"/>
    <rect x="273.42" y="315.5" width="12.87" height="104.5" style="fill: #636efa;"/>
    <rect x="291.22" y="291.75" width="12.87" height="128.25" style="fill: #636efa;"/>
    <rect x="309.03" y="282.25" width="12.86" height="137.75" style="fill: #636efa;"/>
    <rect x="325.11" y="265.63" width="12.86" height="154.37" style="fill: #636efa;"/>
    <rect x="342.91" y="260.88" width="12.87" height="159.12" style="fill: #636efa;"/>
    <rect x="360.14" y="258.5" width="12.86" height="161.5" style="fill: #636efa;"/>
    <rect x="377.94" y="256.13" width="12.87" height="163.87" style="fill: #636efa;"/>
    <rect x="395.17" y="258.5" width="12.87" height="161.5" style="fill: #636efa;"/>
    <rect x="412.97" y="253.75" width="12.87" height="166.25" style="fill: #636efa;"/>
    <rect x="430.78" y="249" width="12.86" height="171" style="fill: #636efa;"/>
    <rect x="448.01" y="246.63" width="12.86" height="173.37" style="fill: #636efa;"/>
    <rect x="465.81" y="241.88" width="12.86" height="178.12" style="fill: #636efa;"/>
    <rect x="483.04" y="239.5" width="12.86" height="180.5" style="fill: #636efa;"/>
    <rect x="500.84" y="232.38" width="12.87" height="187.62" style="fill: #636efa;"/>
    <rect x="518.64" y="220.5" width="12.87" height="199.5" style="fill: #636efa;"/>
    <rect x="534.72" y="203.88" width="12.87" height="216.12" style="fill: #636efa;"/>
    <rect x="552.53" y="199.13" width="12.86" height="220.87" style="fill: #636efa;"/>
    <rect x="291.22" y="270.38" width="12.87" height="21.37" style="fill: #00cc96;"/>
    <rect x="309.03" y="279.88" width="12.86" height="2.37" style="fill: #00cc96;"/>
    <rect x="99.41" y="332.13" width="12.87" height="23.75" style="fill: #ef553b;"/>
    <rect x="115.49" y="294.13" width="12.87" height="45.12" style="fill: #ef553b;"/>
    <rect x="133.29" y="291.75" width="12.87" height="45.13" style="fill: #ef553b;"/>
    <rect x="150.52" y="289.38" width="12.87" height="45.12" style="fill: #ef553b;"/>
    <rect x="168.33" y="287" width="12.86" height="45.13" style="fill: #ef553b;"/>
    <rect x="185.55" y="301.25" width="12.87" height="30.88" style="fill: #ef553b;"/>
    <rect x="203.36" y="296.5" width="12.86" height="30.88" style="fill: #ef553b;"/>
    <rect x="221.16" y="294.13" width="12.87" height="30.87" style="fill: #ef553b;"/>
    <rect x="238.39" y="291.75" width="12.86" height="30.88" style="fill: #ef553b;"/>
    <rect x="256.19" y="289.38" width="12.87" height="30.87" style="fill: #ef553b;"/>
    <rect x="273.42" y="284.63" width="12.87" height="30.87" style="fill: #ef553b;"/>
    <rect x="291.22" y="177.75" width="12.87" height="92.63" style="fill: #ef553b;"/>
    <rect x="309.03" y="187.25" width="12.86" height="92.63" style="fill: #ef553b;"/>
    <rect x="325.11" y="173" width="12.86" height="92.63" style="fill: #ef553b;"/>
    <rect x="342.91" y="135" width="12.87" height="125.88" style="fill: #ef553b;"/>
    <rect x="360.14" y="132.63" width="12.86" height="125.87" style="fill: #ef553b;"/>
    <rect x="377.94" y="130.25" width="12.87" height="125.88" style="fill: #ef553b;"/>
    <rect x="395.17" y="118.38" width="12.87" height="140.12" style="fill: #ef553b;"/>
    <rect x="412.97" y="113.63" width="12.87" height="140.12" style="fill: #ef553b;"/>
    <rect x="430.78" y="108.88" width="12.86" height="140.12" style="fill: #ef553b;"/>
    <rect x="448.01" y="106.5" width="12.86" height="140.13" style="fill: #ef553b;"/>
    <rect x="465.81" y="116" width="12.86" height="125.88" style="fill: #ef553b;"/>
    <rect x="483.04" y="106.5" width="12.86" height="133" style="fill: #ef553b;"/>
    <rect x="500.84" y="106.5" width="12.87" height="125.88" style="fill: #ef553b;"/>
    <rect x="518.64" y="94.63" width="12.87" height="125.87" style="fill: #ef553b;"/>
    <rect x="534.72" y="78" width="12.87" height="125.88" style="fill: #ef553b;"/>
    <rect x="552.53" y="89.88" width="12.86" height="109.25" style="fill: #ef553b;"/>
  </g>
  <path d="M110.53,424.38h-.68c-.18.37-.5.75-.94,1.15s-.96.73-1.55,1.01v1.02c.33-.12.7-.3,1.11-.54s.75-.48,1-.73v6.72h1.05v-8.62ZM101.21,431.99c.12-.19.27-.38.45-.57s.59-.55,1.22-1.08c.76-.64,1.3-1.14,1.63-1.51s.56-.72.7-1.05.21-.67.21-1.01c0-.68-.24-1.24-.72-1.7s-1.13-.69-1.96-.69-1.47.21-1.95.64-.76,1.04-.84,1.85l1.08.11c0-.54.16-.96.46-1.27s.71-.46,1.22-.46c.48,0,.87.14,1.17.43s.45.64.45,1.06-.16.82-.49,1.27-.96,1.05-1.89,1.82c-.6.49-1.06.93-1.38,1.3s-.55.76-.69,1.14c-.09.23-.13.48-.12.73h5.68v-1.01h-4.21ZM94.83,425.86c.29-.41.68-.62,1.16-.62s.9.23,1.23.7.5,1.4.5,2.82-.17,2.34-.5,2.81-.74.7-1.22.7-.89-.23-1.22-.7-.5-1.41-.5-2.82.18-2.38.54-2.9ZM94.05,432.26c.47.59,1.12.89,1.95.89.63,0,1.15-.17,1.56-.51s.72-.82.93-1.44.31-1.43.31-2.44c0-.85-.06-1.53-.19-2.03s-.31-.93-.53-1.28-.51-.62-.86-.8-.75-.28-1.21-.28c-.62,0-1.14.17-1.56.5s-.72.81-.93,1.43-.31,1.44-.31,2.45c0,1.61.28,2.78.85,3.49ZM87.86,431.99c.12-.19.27-.38.45-.57s.59-.55,1.22-1.08c.76-.64,1.3-1.14,1.63-1.51s.56-.72.7-1.05.21-.67.21-1.01c0-.68-.24-1.24-.72-1.7s-1.13-.69-1.96-.69-1.47.21-1.95.64-.76,1.04-.84,1.85l1.08.11c0-.54.16-.96.46-1.27s.71-.46,1.22-.46c.48,0,.87.14,1.17.43s.45.64.45,1.06-.16.82-.49,1.27-.96,1.05-1.89,1.82c-.6.49-1.06.93-1.38,1.3s-.55.76-.69,1.14c-.09.23-.13.48-.12.73h5.68v-1.01h-4.21ZM77.87,433v-3.4c0-.8.16-1.34.49-1.62s.71-.43,1.16-.43c.28,0,.53.06.74.19s.35.3.44.51.12.53.12.96v3.79h1.05v-3.83c0-.49-.02-.83-.06-1.03-.06-.3-.17-.56-.33-.78s-.39-.4-.71-.53-.66-.2-1.03-.2c-.86,0-1.52.34-1.98,1.03v-.88h-.95v6.22h1.05ZM74.12,430.26c0,.46-.06.82-.17,1.05-.15.31-.38.55-.7.73s-.68.27-1.08.27-.72-.09-.93-.28-.32-.42-.32-.7c0-.18.05-.35.15-.5s.24-.26.42-.34.49-.15.92-.21c.77-.11,1.34-.24,1.72-.4v.39ZM74.41,433h1.1c-.13-.24-.22-.49-.27-.75s-.07-.88-.07-1.86v-1.41c0-.47-.02-.79-.05-.97-.06-.29-.17-.53-.33-.72s-.4-.35-.73-.47-.76-.19-1.29-.19-1.01.07-1.41.22-.72.36-.93.63-.37.63-.46,1.07l1.03.14c.11-.44.29-.75.52-.92s.6-.26,1.1-.26c.53,0,.93.12,1.2.36.2.18.3.48.3.91,0,.04,0,.13,0,.28-.4.14-1.03.26-1.88.36-.42.05-.73.1-.94.16-.28.08-.53.19-.76.35s-.41.35-.54.61-.21.53-.21.83c0,.52.18.95.55,1.28s.89.5,1.58.5c.41,0,.8-.07,1.16-.21s.74-.37,1.13-.7c.03.29.1.55.21.77ZM64.27,432.5c.4.43.98.65,1.73.65.51,0,.95-.1,1.33-.31s.65-.51.83-.9.26-.95.26-1.67v-5.85h-1.14v5.92c0,.49-.04.85-.12,1.08s-.22.4-.43.53-.45.2-.74.2c-.39,0-.69-.12-.91-.36s-.34-.69-.37-1.35l-1.03.14c-.02.86.18,1.5.58,1.93Z"/>
  <path d="M212.47,424.38h-.68c-.18.37-.5.75-.94,1.15s-.96.73-1.55,1.01v1.02c.33-.12.7-.3,1.11-.54s.75-.48,1-.73v6.72h1.05v-8.62ZM203.16,431.99c.12-.19.27-.38.45-.57s.59-.55,1.22-1.08c.76-.64,1.3-1.14,1.63-1.51s.56-.72.7-1.05.21-.67.21-1.01c0-.68-.24-1.24-.72-1.7s-1.13-.69-1.96-.69-1.47.21-1.95.64-.76,1.04-.84,1.85l1.08.11c0-.54.16-.96.46-1.27s.71-.46,1.22-.46c.48,0,.87.14,1.17.43s.45.64.45,1.06-.16.82-.49,1.27-.96,1.05-1.89,1.82c-.6.49-1.06.93-1.38,1.3s-.55.76-.69,1.14c-.09.23-.13.48-.12.73h5.68v-1.01h-4.21ZM196.78,425.86c.29-.41.68-.62,1.16-.62s.9.23,1.23.7.5,1.4.5,2.82-.17,2.34-.5,2.81-.74.7-1.22.7-.89-.23-1.22-.7-.5-1.41-.5-2.82.18-2.38.54-2.9ZM196,432.26c.47.59,1.12.89,1.95.89.63,0,1.15-.17,1.56-.51s.72-.82.93-1.44.31-1.43.31-2.44c0-.85-.06-1.53-.19-2.03s-.31-.93-.53-1.28-.51-.62-.86-.8-.75-.28-1.21-.28c-.62,0-1.14.17-1.56.5s-.72.81-.93,1.43-.31,1.44-.31,2.45c0,1.61.28,2.78.85,3.49ZM189.81,431.99c.12-.19.27-.38.45-.57s.59-.55,1.22-1.08c.76-.64,1.3-1.14,1.63-1.51s.56-.72.7-1.05.21-.67.21-1.01c0-.68-.24-1.24-.72-1.7s-1.13-.69-1.96-.69-1.47.21-1.95.64-.76,1.04-.84,1.85l1.08.11c0-.54.16-.96.46-1.27s.71-.46,1.22-.46c.48,0,.87.14,1.17.43s.45.64.45,1.06-.16.82-.49,1.27-.96,1.05-1.89,1.82c-.6.49-1.06.93-1.38,1.3s-.55.76-.69,1.14c-.09.23-.13.48-.12.73h5.68v-1.01h-4.21ZM183.8,433v-8.59h-1.05v8.59h1.05ZM181.12,433v-6.22h-1.05v3.33c0,.53-.06.94-.17,1.22s-.31.5-.59.66-.57.24-.89.24-.58-.08-.8-.24-.36-.38-.42-.65c-.04-.19-.06-.56-.06-1.11v-3.45h-1.05v3.86c0,.45.02.78.06.98.06.31.17.57.33.78s.39.39.71.53.66.21,1.03.21c.83,0,1.49-.35,1.97-1.05v.91h.94ZM170.23,432.5c.4.43.98.65,1.73.65.51,0,.95-.1,1.33-.31s.65-.51.83-.9.26-.95.26-1.67v-5.85h-1.14v5.92c0,.49-.04.85-.12,1.08s-.22.4-.43.53-.45.2-.74.2c-.39,0-.69-.12-.91-.36s-.34-.69-.37-1.35l-1.03.14c-.02.86.18,1.5.58,1.93Z"/>
  <path d="M317.5,431.99c.12-.19.27-.38.45-.57s.59-.55,1.22-1.08c.76-.64,1.3-1.14,1.63-1.51s.56-.72.7-1.05.21-.67.21-1.01c0-.68-.24-1.24-.72-1.7s-1.13-.69-1.96-.69-1.47.21-1.95.64-.76,1.04-.84,1.85l1.08.11c0-.54.16-.96.46-1.27s.71-.46,1.22-.46c.48,0,.87.14,1.17.43s.45.64.45,1.06-.16.82-.49,1.27-.96,1.05-1.89,1.82c-.6.49-1.06.93-1.38,1.3s-.55.76-.69,1.14c-.09.23-.13.48-.12.73h5.68v-1.01h-4.21ZM310.83,431.99c.12-.19.27-.38.45-.57s.59-.55,1.22-1.08c.76-.64,1.3-1.14,1.63-1.51s.56-.72.7-1.05.21-.67.21-1.01c0-.68-.24-1.24-.72-1.7s-1.13-.69-1.96-.69-1.47.21-1.95.64-.76,1.04-.84,1.85l1.08.11c0-.54.16-.96.46-1.27s.71-.46,1.22-.46c.48,0,.87.14,1.17.43s.45.64.45,1.06-.16.82-.49,1.27-.96,1.05-1.89,1.82c-.6.49-1.06.93-1.38,1.3s-.55.76-.69,1.14c-.09.23-.13.48-.12.73h5.68v-1.01h-4.21ZM304.45,425.86c.29-.41.68-.62,1.16-.62s.9.23,1.23.7.5,1.4.5,2.82-.17,2.34-.5,2.81-.74.7-1.22.7-.89-.23-1.22-.7-.5-1.41-.5-2.82.18-2.38.54-2.9ZM303.67,432.26c.47.59,1.12.89,1.95.89.63,0,1.15-.17,1.56-.51s.72-.82.93-1.44.31-1.43.31-2.44c0-.85-.06-1.53-.19-2.03s-.31-.93-.53-1.28-.51-.62-.86-.8-.75-.28-1.21-.28c-.62,0-1.14.17-1.56.5s-.72.81-.93,1.43-.31,1.44-.31,2.45c0,1.61.28,2.78.85,3.49ZM297.48,431.99c.12-.19.27-.38.45-.57s.59-.55,1.22-1.08c.76-.64,1.3-1.14,1.63-1.51s.56-.72.7-1.05.21-.67.21-1.01c0-.68-.24-1.24-.72-1.7s-1.13-.69-1.96-.69-1.47.21-1.95.64-.76,1.04-.84,1.85l1.08.11c0-.54.16-.96.46-1.27s.71-.46,1.22-.46c.48,0,.87.14,1.17.43s.45.64.45,1.06-.16.82-.49,1.27-.96,1.05-1.89,1.82c-.6.49-1.06.93-1.38,1.3s-.55.76-.69,1.14c-.09.23-.13.48-.12.73h5.68v-1.01h-4.21ZM287.49,433v-3.4c0-.8.16-1.34.49-1.62s.71-.43,1.16-.43c.28,0,.53.06.74.19s.35.3.44.51.12.53.12.96v3.79h1.05v-3.83c0-.49-.02-.83-.06-1.03-.06-.3-.17-.56-.33-.78s-.39-.4-.71-.53-.66-.2-1.03-.2c-.86,0-1.52.34-1.98,1.03v-.88h-.95v6.22h1.05ZM283.74,430.26c0,.46-.06.82-.17,1.05-.15.31-.38.55-.7.73s-.68.27-1.08.27-.72-.09-.93-.28-.32-.42-.32-.7c0-.18.05-.35.15-.5s.24-.26.42-.34.49-.15.92-.21c.77-.11,1.34-.24,1.72-.4v.39ZM284.03,433h1.1c-.13-.24-.22-.49-.27-.75s-.07-.88-.07-1.86v-1.41c0-.47-.02-.79-.05-.97-.06-.29-.17-.53-.33-.72s-.4-.35-.73-.47-.76-.19-1.29-.19-1.01.07-1.41.22-.72.36-.93.63-.37.63-.46,1.07l1.03.14c.11-.44.29-.75.52-.92s.6-.26,1.1-.26c.53,0,.93.12,1.2.36.2.18.3.48.3.91,0,.04,0,.13,0,.28-.4.14-1.03.26-1.88.36-.42.05-.73.1-.94.16-.28.08-.53.19-.76.35s-.41.35-.54.61-.21.53-.21.83c0,.52.18.95.55,1.28s.89.5,1.58.5c.41,0,.8-.07,1.16-.21s.74-.37,1.13-.7c.03.29.1.55.21.77ZM273.89,432.5c.4.43.98.65,1.73.65.51,0,.95-.1,1.33-.31s.65-.51.83-.9.26-.95.26-1.67v-5.85h-1.14v5.92c0,.49-.04.85-.12,1.08s-.22.4-.43.53-.45.2-.74.2c-.39,0-.69-.12-.91-.36s-.34-.69-.37-1.35l-1.03.14c-.02.86.18,1.5.58,1.93Z"/>
  <path d="M419.44,431.99c.12-.19.27-.38.45-.57s.59-.55,1.22-1.08c.76-.64,1.3-1.14,1.63-1.51s.56-.72.7-1.05.21-.67.21-1.01c0-.68-.24-1.24-.72-1.7s-1.13-.69-1.96-.69-1.47.21-1.95.64-.76,1.04-.84,1.85l1.08.11c0-.54.16-.96.46-1.27s.71-.46,1.22-.46c.48,0,.87.14,1.17.43s.45.64.45,1.06-.16.82-.49,1.27-.96,1.05-1.89,1.82c-.6.49-1.06.93-1.38,1.3s-.55.76-.69,1.14c-.09.23-.13.48-.12.73h5.68v-1.01h-4.21ZM412.77,431.99c.12-.19.27-.38.45-.57s.59-.55,1.22-1.08c.76-.64,1.3-1.14,1.63-1.51s.56-.72.7-1.05.21-.67.21-1.01c0-.68-.24-1.24-.72-1.7s-1.13-.69-1.96-.69-1.47.21-1.95.64-.76,1.04-.84,1.85l1.08.11c0-.54.16-.96.46-1.27s.71-.46,1.22-.46c.48,0,.87.14,1.17.43s.45.64.45,1.06-.16.82-.49,1.27-.96,1.05-1.89,1.82c-.6.49-1.06.93-1.38,1.3s-.55.76-.69,1.14c-.09.23-.13.48-.12.73h5.68v-1.01h-4.21ZM406.39,425.86c.29-.41.68-.62,1.16-.62s.9.23,1.23.7.5,1.4.5,2.82-.17,2.34-.5,2.81-.74.7-1.22.7-.89-.23-1.22-.7-.5-1.41-.5-2.82.18-2.38.54-2.9ZM405.61,432.26c.47.59,1.12.89,1.95.89.63,0,1.15-.17,1.56-.51s.72-.82.93-1.44.31-1.43.31-2.44c0-.85-.06-1.53-.19-2.03s-.31-.93-.53-1.28-.51-.62-.86-.8-.75-.28-1.21-.28c-.62,0-1.14.17-1.56.5s-.72.81-.93,1.43-.31,1.44-.31,2.45c0,1.61.28,2.78.85,3.49ZM399.42,431.99c.12-.19.27-.38.45-.57s.59-.55,1.22-1.08c.76-.64,1.3-1.14,1.63-1.51s.56-.72.7-1.05.21-.67.21-1.01c0-.68-.24-1.24-.72-1.7s-1.13-.69-1.96-.69-1.47.21-1.95.64-.76,1.04-.84,1.85l1.08.11c0-.54.16-.96.46-1.27s.71-.46,1.22-.46c.48,0,.87.14,1.17.43s.45.64.45,1.06-.16.82-.49,1.27-.96,1.05-1.89,1.82c-.6.49-1.06.93-1.38,1.3s-.55.76-.69,1.14c-.09.23-.13.48-.12.73h5.68v-1.01h-4.21ZM393.41,433v-8.59h-1.05v8.59h1.05ZM390.73,433v-6.22h-1.05v3.33c0,.53-.06.94-.17,1.22s-.31.5-.59.66-.57.24-.89.24-.58-.08-.8-.24-.36-.38-.42-.65c-.04-.19-.06-.56-.06-1.11v-3.45h-1.05v3.86c0,.45.02.78.06.98.06.31.17.57.33.78s.39.39.71.53.66.21,1.03.21c.83,0,1.49-.35,1.97-1.05v.91h.94ZM379.84,432.5c.4.43.98.65,1.73.65.51,0,.95-.1,1.33-.31s.65-.51.83-.9.26-.95.26-1.67v-5.85h-1.14v5.92c0,.49-.04.85-.12,1.08s-.22.4-.43.53-.45.2-.74.2c-.39,0-.69-.12-.91-.36s-.34-.69-.37-1.35l-1.03.14c-.02.86.18,1.5.58,1.93Z"/>
  <path d="M526.64,432.48c.5.45,1.12.67,1.88.67.84,0,1.53-.26,2.07-.78s.82-1.16.82-1.91c0-.55-.14-1.02-.42-1.39s-.68-.61-1.18-.73c.39-.18.69-.42.88-.73s.3-.64.3-1.01c0-.39-.1-.76-.31-1.11s-.51-.62-.91-.82-.83-.3-1.29-.3c-.68,0-1.25.19-1.71.58s-.75.94-.88,1.64l1.05.19c.08-.52.25-.9.53-1.16s.62-.39,1.03-.39.75.13,1.01.38.39.57.39.96c0,.49-.18.85-.54,1.08s-.76.35-1.21.35h-.17s-.12.91-.12.91c.3-.08.54-.12.74-.12.49,0,.89.16,1.21.47s.47.71.47,1.2-.17.93-.51,1.28-.76.52-1.26.52c-.42,0-.77-.13-1.06-.4s-.5-.69-.62-1.29l-1.05.14c.07.71.35,1.3.85,1.75ZM520.44,431.99c.12-.19.27-.38.45-.57s.59-.55,1.22-1.08c.76-.64,1.3-1.14,1.63-1.51s.56-.72.7-1.05.21-.67.21-1.01c0-.68-.24-1.24-.72-1.7s-1.13-.69-1.96-.69-1.47.21-1.95.64-.76,1.04-.84,1.85l1.08.11c0-.54.16-.96.46-1.27s.71-.46,1.22-.46c.48,0,.87.14,1.17.43s.45.64.45,1.06-.16.82-.49,1.27-.96,1.05-1.89,1.82c-.6.49-1.06.93-1.38,1.3s-.55.76-.69,1.14c-.09.23-.13.48-.12.73h5.68v-1.01h-4.21ZM514.06,425.86c.29-.41.68-.62,1.16-.62s.9.23,1.23.7.5,1.4.5,2.82-.17,2.34-.5,2.81-.74.7-1.22.7-.89-.23-1.22-.7-.5-1.41-.5-2.82.18-2.38.54-2.9ZM513.28,432.26c.47.59,1.12.89,1.95.89.63,0,1.15-.17,1.56-.51s.72-.82.93-1.44.31-1.43.31-2.44c0-.85-.06-1.53-.19-2.03s-.31-.93-.53-1.28-.51-.62-.86-.8-.75-.28-1.21-.28c-.62,0-1.14.17-1.56.5s-.72.81-.93,1.43-.31,1.44-.31,2.45c0,1.61.28,2.78.85,3.49ZM507.09,431.99c.12-.19.27-.38.45-.57s.59-.55,1.22-1.08c.76-.64,1.3-1.14,1.63-1.51s.56-.72.7-1.05.21-.67.21-1.01c0-.68-.24-1.24-.72-1.7s-1.13-.69-1.96-.69-1.47.21-1.95.64-.76,1.04-.84,1.85l1.08.11c0-.54.16-.96.46-1.27s.71-.46,1.22-.46c.48,0,.87.14,1.17.43s.45.64.45,1.06-.16.82-.49,1.27-.96,1.05-1.89,1.82c-.6.49-1.06.93-1.38,1.3s-.55.76-.69,1.14c-.09.23-.13.48-.12.73h5.68v-1.01h-4.21ZM497.1,433v-3.4c0-.8.16-1.34.49-1.62s.71-.43,1.16-.43c.28,0,.53.06.74.19s.35.3.44.51.12.53.12.96v3.79h1.05v-3.83c0-.49-.02-.83-.06-1.03-.06-.3-.17-.56-.33-.78s-.39-.4-.71-.53-.66-.2-1.03-.2c-.86,0-1.52.34-1.98,1.03v-.88h-.95v6.22h1.05ZM493.35,430.26c0,.46-.06.82-.17,1.05-.15.31-.38.55-.7.73s-.68.27-1.08.27-.72-.09-.93-.28-.32-.42-.32-.7c0-.18.05-.35.15-.5s.24-.26.42-.34.49-.15.92-.21c.77-.11,1.34-.24,1.72-.4v.39ZM493.64,433h1.1c-.13-.24-.22-.49-.27-.75s-.07-.88-.07-1.86v-1.41c0-.47-.02-.79-.05-.97-.06-.29-.17-.53-.33-.72s-.4-.35-.73-.47-.76-.19-1.29-.19-1.01.07-1.41.22-.72.36-.93.63-.37.63-.46,1.07l1.03.14c.11-.44.29-.75.52-.92s.6-.26,1.1-.26c.53,0,.93.12,1.2.36.2.18.3.48.3.91,0,.04,0,.13,0,.28-.4.14-1.03.26-1.88.36-.42.05-.73.1-.94.16-.28.08-.53.19-.76.35s-.41.35-.54.61-.21.53-.21.83c0,.52.18.95.55,1.28s.89.5,1.58.5c.41,0,.8-.07,1.16-.21s.74-.37,1.13-.7c.03.29.1.55.21.77ZM483.5,432.5c.4.43.98.65,1.73.65.51,0,.95-.1,1.33-.31s.65-.51.83-.9.26-.95.26-1.67v-5.85h-1.14v5.92c0,.49-.04.85-.12,1.08s-.22.4-.43.53-.45.2-.74.2c-.39,0-.69-.12-.91-.36s-.34-.69-.37-1.35l-1.03.14c-.02.86.18,1.5.58,1.93Z"/>
  <path d="M74.45,417.06c.29-.41.68-.62,1.16-.62s.9.23,1.23.7.5,1.4.5,2.82-.17,2.34-.5,2.81-.74.7-1.22.7-.89-.23-1.22-.7-.5-1.41-.5-2.82.18-2.38.54-2.9ZM73.67,423.46c.47.59,1.12.89,1.95.89.63,0,1.15-.17,1.56-.51s.72-.82.93-1.44.31-1.43.31-2.44c0-.85-.06-1.53-.19-2.03s-.31-.93-.53-1.28-.51-.62-.86-.8-.75-.28-1.21-.28c-.62,0-1.14.17-1.56.5s-.72.81-.93,1.43-.31,1.44-.31,2.45c0,1.61.28,2.78.85,3.49Z"/>
  <path d="M74.45,369.56c.29-.41.68-.62,1.16-.62s.9.23,1.23.7.5,1.4.5,2.82-.17,2.34-.5,2.81-.74.7-1.22.7-.89-.23-1.22-.7-.5-1.41-.5-2.82.18-2.38.54-2.9ZM73.67,375.96c.47.59,1.12.89,1.95.89.63,0,1.15-.17,1.56-.51s.72-.82.93-1.44.31-1.43.31-2.44c0-.85-.06-1.53-.19-2.03s-.31-.93-.53-1.28-.51-.62-.86-.8-.75-.28-1.21-.28c-.62,0-1.14.17-1.56.5s-.72.81-.93,1.43-.31,1.44-.31,2.45c0,1.61.28,2.78.85,3.49ZM67.48,375.69c.12-.19.27-.38.45-.57s.59-.55,1.22-1.08c.76-.64,1.3-1.14,1.63-1.51s.56-.72.7-1.05.21-.67.21-1.01c0-.68-.24-1.24-.72-1.7s-1.13-.69-1.96-.69-1.47.21-1.95.64-.76,1.04-.84,1.85l1.08.11c0-.54.16-.96.46-1.27s.71-.46,1.22-.46c.48,0,.87.14,1.17.43s.45.64.45,1.06-.16.82-.49,1.27-.96,1.05-1.89,1.82c-.6.49-1.06.93-1.38,1.3s-.55.76-.69,1.14c-.09.23-.13.48-.12.73h5.68v-1.01h-4.21Z"/>
  <path d="M74.45,322.06c.29-.41.68-.62,1.16-.62s.9.23,1.23.7.5,1.4.5,2.82-.17,2.34-.5,2.81-.74.7-1.22.7-.89-.23-1.22-.7-.5-1.41-.5-2.82.18-2.38.54-2.9ZM73.67,328.46c.47.59,1.12.89,1.95.89.63,0,1.15-.17,1.56-.51s.72-.82.93-1.44.31-1.43.31-2.44c0-.85-.06-1.53-.19-2.03s-.31-.93-.53-1.28-.51-.62-.86-.8-.75-.28-1.21-.28c-.62,0-1.14.17-1.56.5s-.72.81-.93,1.43-.31,1.44-.31,2.45c0,1.61.28,2.78.85,3.49ZM66.84,326.18l2.69-3.87v3.87h-2.69ZM70.59,329.2v-2.06h1.16v-.97h-1.16v-5.57h-.86l-3.92,5.57v.97h3.73v2.06h1.05Z"/>
  <path d="M74.45,274.56c.29-.41.68-.62,1.16-.62s.9.23,1.23.7.5,1.4.5,2.82-.17,2.34-.5,2.81-.74.7-1.22.7-.89-.23-1.22-.7-.5-1.41-.5-2.82.18-2.38.54-2.9ZM73.67,280.96c.47.59,1.12.89,1.95.89.63,0,1.15-.17,1.56-.51s.72-.82.93-1.44.31-1.43.31-2.44c0-.85-.06-1.53-.19-2.03s-.31-.93-.53-1.28-.51-.62-.86-.8-.75-.28-1.21-.28c-.62,0-1.14.17-1.56.5s-.72.81-.93,1.43-.31,1.44-.31,2.45c0,1.61.28,2.78.85,3.49ZM67.81,277.57c.33-.34.74-.51,1.21-.51s.88.17,1.2.51.47.81.47,1.4-.16,1.11-.48,1.46-.7.54-1.15.54c-.3,0-.6-.09-.87-.26s-.49-.43-.65-.76-.23-.68-.23-1.04c0-.55.17-1,.5-1.34ZM70.85,273.64c-.43-.38-.99-.57-1.66-.57-.91,0-1.63.33-2.16.98-.61.75-.92,1.96-.92,3.62,0,1.48.28,2.55.83,3.2s1.27.97,2.15.97c.52,0,.98-.12,1.38-.37s.73-.6.96-1.06.35-.96.35-1.5c0-.82-.25-1.49-.74-2.01s-1.09-.78-1.8-.78c-.4,0-.79.09-1.15.28s-.68.47-.93.86c0-.86.11-1.52.3-1.99s.45-.82.79-1.06c.25-.19.55-.28.88-.28.42,0,.77.15,1.05.45.17.19.3.49.4.9l1.05-.08c-.09-.67-.34-1.19-.78-1.57Z"/>
  <path d="M74.45,227.06c.29-.41.68-.62,1.16-.62s.9.23,1.23.7.5,1.4.5,2.82-.17,2.34-.5,2.81-.74.7-1.22.7-.89-.23-1.22-.7-.5-1.41-.5-2.82.18-2.38.54-2.9ZM73.67,233.46c.47.59,1.12.89,1.95.89.63,0,1.15-.17,1.56-.51s.72-.82.93-1.44.31-1.43.31-2.44c0-.85-.06-1.53-.19-2.03s-.31-.93-.53-1.28-.51-.62-.86-.8-.75-.28-1.21-.28c-.62,0-1.14.17-1.56.5s-.72.81-.93,1.43-.31,1.44-.31,2.45c0,1.61.28,2.78.85,3.49ZM67.71,230.49c.33-.33.74-.49,1.23-.49s.93.17,1.27.5.51.75.51,1.26-.16.91-.49,1.24-.74.49-1.25.49c-.32,0-.63-.08-.91-.23s-.49-.37-.64-.65-.21-.57-.21-.87c0-.49.16-.9.49-1.23ZM67.96,226.83c.27-.26.6-.39,1-.39s.73.13,1,.4.4.59.4.98-.13.68-.39.94-.59.38-1,.38-.76-.13-1.02-.39-.39-.59-.39-1c0-.36.13-.67.4-.93ZM66.56,230.31c-.28.38-.42.84-.42,1.4,0,.75.26,1.38.78,1.88s1.2.75,2.05.75,1.53-.25,2.05-.75.78-1.12.78-1.85c0-.53-.14-.99-.41-1.37s-.68-.66-1.2-.83c.43-.16.74-.39.95-.68s.31-.64.31-1.04c0-.62-.23-1.16-.69-1.59s-1.06-.65-1.81-.65-1.34.21-1.79.64-.67.95-.67,1.58c0,.41.11.77.32,1.07s.54.53.97.69c-.52.14-.93.39-1.21.77Z"/>
  <path d="M74.45,179.56c.29-.41.68-.62,1.16-.62s.9.23,1.23.7.5,1.4.5,2.82-.17,2.34-.5,2.81-.74.7-1.22.7-.89-.23-1.22-.7-.5-1.41-.5-2.82.18-2.38.54-2.9ZM73.67,185.96c.47.59,1.12.89,1.95.89.63,0,1.15-.17,1.56-.51s.72-.82.93-1.44.31-1.43.31-2.44c0-.85-.06-1.53-.19-2.03s-.31-.93-.53-1.28-.51-.62-.86-.8-.75-.28-1.21-.28c-.62,0-1.14.17-1.56.5s-.72.81-.93,1.43-.31,1.44-.31,2.45c0,1.61.28,2.78.85,3.49ZM67.78,179.56c.29-.41.68-.62,1.16-.62s.9.23,1.23.7.5,1.4.5,2.82-.17,2.34-.5,2.81-.74.7-1.22.7-.89-.23-1.22-.7-.5-1.41-.5-2.82.18-2.38.54-2.9ZM67,185.96c.47.59,1.12.89,1.95.89.63,0,1.15-.17,1.56-.51s.72-.82.93-1.44.31-1.43.31-2.44c0-.85-.06-1.53-.19-2.03s-.31-.93-.53-1.28-.51-.62-.86-.8-.75-.28-1.21-.28c-.62,0-1.14.17-1.56.5s-.72.81-.93,1.43-.31,1.44-.31,2.45c0,1.61.28,2.78.85,3.49ZM63.45,178.08h-.68c-.18.37-.5.75-.94,1.15s-.96.73-1.55,1.01v1.02c.33-.12.7-.3,1.11-.54s.75-.48,1-.73v6.72h1.05v-8.62Z"/>
  <path d="M74.45,132.06c.29-.41.68-.62,1.16-.62s.9.23,1.23.7.5,1.4.5,2.82-.17,2.34-.5,2.81-.74.7-1.22.7-.89-.23-1.22-.7-.5-1.41-.5-2.82.18-2.38.54-2.9ZM73.67,138.46c.47.59,1.12.89,1.95.89.63,0,1.15-.17,1.56-.51s.72-.82.93-1.44.31-1.43.31-2.44c0-.85-.06-1.53-.19-2.03s-.31-.93-.53-1.28-.51-.62-.86-.8-.75-.28-1.21-.28c-.62,0-1.14.17-1.56.5s-.72.81-.93,1.43-.31,1.44-.31,2.45c0,1.61.28,2.78.85,3.49ZM67.48,138.19c.12-.19.27-.38.45-.57s.59-.55,1.22-1.08c.76-.64,1.3-1.14,1.63-1.51s.56-.72.7-1.05.21-.67.21-1.01c0-.68-.24-1.24-.72-1.7s-1.13-.69-1.96-.69-1.47.21-1.95.64-.76,1.04-.84,1.85l1.08.11c0-.54.16-.96.46-1.27s.71-.46,1.22-.46c.48,0,.87.14,1.17.43s.45.64.45,1.06-.16.82-.49,1.27-.96,1.05-1.89,1.82c-.6.49-1.06.93-1.38,1.3s-.55.76-.69,1.14c-.09.23-.13.48-.12.73h5.68v-1.01h-4.21ZM63.45,130.58h-.68c-.18.37-.5.75-.94,1.15s-.96.73-1.55,1.01v1.02c.33-.12.7-.3,1.11-.54s.75-.48,1-.73v6.72h1.05v-8.62Z"/>
  <path d="M74.45,84.56c.29-.41.68-.62,1.16-.62s.9.23,1.23.7.5,1.4.5,2.82-.17,2.34-.5,2.81-.74.7-1.22.7-.89-.23-1.22-.7-.5-1.41-.5-2.82.18-2.38.54-2.9ZM73.67,90.96c.47.59,1.12.89,1.95.89.63,0,1.15-.17,1.56-.51s.72-.82.93-1.44.31-1.43.31-2.44c0-.85-.06-1.53-.19-2.03s-.31-.93-.53-1.28-.51-.62-.86-.8-.75-.28-1.21-.28c-.62,0-1.14.17-1.56.5s-.72.81-.93,1.43-.31,1.44-.31,2.45c0,1.61.28,2.78.85,3.49ZM66.84,88.68l2.69-3.87v3.87h-2.69ZM70.59,91.7v-2.06h1.16v-.97h-1.16v-5.57h-.86l-3.92,5.57v.97h3.73v2.06h1.05ZM63.45,83.08h-.68c-.18.37-.5.75-.94,1.15s-.96.73-1.55,1.01v1.02c.33-.12.7-.3,1.11-.54s.75-.48,1-.73v6.72h1.05v-8.62Z"/>
  <polyline points="576.74 60 687.74 60 687.74 146 576.74 146 576.74 60" style="fill: #fff;"/>
  <g style="clip-path: url(#clippath-1);">
    <path d="M657.49,72.36c.39-.38.86-.57,1.43-.57.62,0,1.13.24,1.52.71.26.31.41.76.46,1.37h-4.05c.04-.63.25-1.14.64-1.52ZM660.14,77c-.32.24-.7.36-1.16.36-.61,0-1.11-.21-1.52-.64s-.63-1.03-.68-1.83h5.41c0-.15,0-.25,0-.33,0-1.2-.31-2.13-.92-2.79s-1.41-.99-2.38-.99-1.82.34-2.45,1.01-.94,1.62-.94,2.84.31,2.1.93,2.75c.62.65,1.46.98,2.53.98.84,0,1.54-.21,2.08-.62s.91-.99,1.11-1.73l-1.27-.16c-.19.52-.44.9-.76,1.13ZM649.86,72.48c.4-.49.87-.74,1.39-.74s.98.23,1.36.69.57,1.15.57,2.08c0,.97-.19,1.69-.58,2.15-.39.46-.86.69-1.4.69s-1-.22-1.37-.67-.57-1.14-.57-2.07.2-1.65.6-2.14ZM649.37,80.98v-3.53c.21.26.48.48.8.66s.69.26,1.1.26c.56,0,1.09-.16,1.6-.47.51-.32.9-.77,1.16-1.37.27-.6.4-1.26.4-2.01,0-.69-.12-1.33-.36-1.91-.24-.58-.6-1.03-1.07-1.35s-1.02-.48-1.64-.48c-.47,0-.88.09-1.21.28-.33.18-.63.46-.9.83v-.94h-1.12v10.04h1.23ZM641.88,81.15c.39,0,.73-.09,1.01-.28.28-.19.53-.49.75-.89.16-.3.39-.85.69-1.65l2.76-7.38h-1.23l-1.55,4.23c-.2.54-.36,1.09-.51,1.65-.15-.59-.33-1.15-.53-1.68l-1.51-4.2h-1.33l2.75,7.27c-.05.13-.09.23-.11.3-.17.49-.3.79-.38.92-.1.16-.24.29-.4.38s-.38.14-.66.14c-.2,0-.44-.04-.7-.11l.14,1.16c.29.1.56.15.79.15ZM639.4,77.15c-.18,0-.32-.03-.42-.09s-.17-.14-.21-.24-.06-.33-.06-.68v-4.25h1.24v-.96h-1.24v-2.54l-1.22.74v1.8h-.9v.96h.9v4.18c0,.74.05,1.22.15,1.45.1.23.27.42.52.56s.59.21,1.04.21c.27,0,.58-.04.93-.11l-.18-1.09c-.22.03-.4.05-.54.05ZM626.8,78.2v-3.96c0-.93.19-1.56.57-1.89s.83-.5,1.36-.5c.33,0,.61.07.86.22.24.15.41.35.51.59.1.25.14.62.14,1.12v4.42h1.23v-4.46c0-.57-.02-.97-.07-1.2-.07-.35-.2-.65-.38-.91s-.46-.46-.82-.62c-.37-.16-.77-.24-1.21-.24-1.01,0-1.78.4-2.31,1.2v-1.03h-1.11v7.26h1.23ZM619.2,72.49c.41-.46.92-.69,1.53-.69s1.11.23,1.52.69c.41.46.61,1.14.61,2.04,0,.95-.2,1.66-.61,2.13s-.91.7-1.52.7-1.13-.23-1.53-.69c-.41-.46-.61-1.16-.61-2.09s.2-1.62.61-2.08ZM618.27,77.39c.63.65,1.45.98,2.46.98.63,0,1.22-.15,1.75-.44s.94-.71,1.22-1.25c.28-.54.42-1.27.42-2.21,0-1.15-.32-2.06-.95-2.71-.63-.65-1.45-.98-2.45-.98-.9,0-1.66.27-2.28.81-.75.65-1.12,1.64-1.12,2.99,0,1.23.31,2.17.94,2.82ZM615.91,78.2v-7.26h-1.23v7.26h1.23ZM615.91,69.59v-1.42h-1.23v1.42h1.23ZM612.93,77.15c-.18,0-.32-.03-.42-.09s-.17-.14-.21-.24-.06-.33-.06-.68v-4.25h1.24v-.96h-1.24v-2.54l-1.22.74v1.8h-.9v.96h.9v4.18c0,.74.05,1.22.15,1.45.1.23.27.42.52.56s.59.21,1.04.21c.27,0,.58-.04.93-.11l-.18-1.09c-.22.03-.4.05-.54.05ZM607.64,75.01c0,.54-.07.95-.2,1.23-.17.36-.44.64-.81.85-.37.21-.79.31-1.26.31s-.84-.11-1.09-.33-.37-.49-.37-.82c0-.21.06-.41.17-.58.11-.17.28-.31.49-.4s.57-.17,1.07-.25c.89-.13,1.56-.28,2.01-.46v.45ZM607.98,78.2h1.29c-.15-.28-.26-.57-.31-.87-.05-.3-.08-1.03-.08-2.17v-1.64c0-.55-.02-.92-.06-1.13-.07-.34-.2-.62-.38-.84-.18-.22-.47-.41-.85-.55s-.89-.22-1.51-.22-1.17.09-1.65.26c-.47.17-.84.42-1.09.73-.25.32-.43.73-.54,1.25l1.2.16c.13-.51.34-.87.61-1.08.28-.2.7-.3,1.28-.3.62,0,1.09.14,1.4.42.23.21.35.56.35,1.06,0,.05,0,.15,0,.32-.47.16-1.2.31-2.19.42-.49.06-.85.12-1.09.18-.33.09-.62.23-.89.4s-.47.41-.64.71c-.16.29-.24.62-.24.97,0,.61.21,1.1.64,1.49.43.39,1.04.58,1.84.58.48,0,.94-.08,1.36-.24s.86-.43,1.32-.82c.04.34.12.64.25.9ZM601.26,77.15c-.18,0-.32-.03-.42-.09s-.17-.14-.21-.24-.06-.33-.06-.68v-4.25h1.24v-.96h-1.24v-2.54l-1.22.74v1.8h-.9v.96h.9v4.18c0,.74.05,1.22.15,1.45.1.23.27.42.52.56s.59.21,1.04.21c.27,0,.58-.04.93-.11l-.18-1.09c-.22.03-.4.05-.54.05ZM597.18,78.2v-7.26h-1.23v3.89c0,.62-.07,1.09-.2,1.42-.13.33-.36.58-.69.77-.32.19-.67.28-1.04.28s-.68-.09-.93-.28c-.25-.19-.41-.44-.49-.76-.05-.22-.08-.66-.08-1.3v-4.03h-1.23v4.5c0,.52.02.91.08,1.15.07.36.2.66.38.91.18.25.46.46.83.62s.77.25,1.2.25c.97,0,1.74-.41,2.3-1.23v1.07h1.1ZM581.06,78.2v-8.53l2.9,8.53h1.2l2.91-8.39v8.39h1.28v-10.02h-1.78l-2.4,6.97c-.24.71-.42,1.24-.53,1.61-.1-.33-.26-.82-.48-1.48l-2.37-7.1h-2v10.02h1.28Z"/>
    <path d="M677.29,97.02c.42.34,1.04.5,1.85.5.49,0,.93-.08,1.31-.25.39-.17.68-.41.89-.72.21-.31.31-.64.31-.99s-.08-.66-.25-.9c-.17-.24-.4-.43-.69-.55-.29-.13-.82-.29-1.56-.49-.52-.14-.83-.23-.93-.27-.18-.07-.32-.17-.4-.28-.09-.11-.13-.23-.13-.37,0-.21.1-.4.31-.56.21-.16.55-.24,1.04-.24.41,0,.73.09.95.27.22.18.36.43.41.75l1.03-.14c-.07-.4-.19-.72-.36-.96-.18-.24-.45-.43-.82-.57-.37-.14-.8-.21-1.29-.21-.32,0-.63.04-.91.13-.28.08-.51.19-.67.31-.22.16-.39.35-.52.59-.13.24-.19.49-.19.77,0,.3.08.58.23.84.15.25.38.45.68.59.3.14.84.31,1.61.51.57.14.93.26,1.08.36.21.14.31.32.31.56,0,.27-.12.5-.35.69-.23.2-.59.3-1.08.3s-.85-.11-1.12-.33c-.27-.22-.43-.54-.49-.96l-1.04.16c.12.66.39,1.16.81,1.49M671.29,97.38v-3.4c0-.8.16-1.34.49-1.62.33-.29.71-.43,1.16-.43.28,0,.53.06.74.19.21.13.35.3.44.51.08.21.12.53.12.96v3.79h1.05v-3.83c0-.49-.02-.83-.06-1.03-.06-.3-.17-.56-.33-.78-.16-.22-.39-.4-.71-.53-.31-.13-.66-.2-1.03-.2-.86,0-1.52.34-1.98,1.03v-.88h-.95v6.22h1.05M664.77,92.48c.35-.39.79-.59,1.31-.59s.95.2,1.3.59c.35.4.52.98.52,1.75,0,.82-.17,1.42-.52,1.82-.35.4-.78.6-1.31.6s-.96-.2-1.31-.59c-.35-.4-.52-.99-.52-1.79s.17-1.39.52-1.79M663.97,96.68c.54.56,1.24.84,2.11.84.54,0,1.04-.13,1.5-.38.46-.25.81-.61,1.05-1.07.24-.46.36-1.09.36-1.89,0-.99-.27-1.76-.81-2.32-.54-.56-1.24-.84-2.1-.84-.77,0-1.42.23-1.96.69-.64.55-.96,1.41-.96,2.56,0,1.05.27,1.86.81,2.41M661.95,97.38v-6.22h-1.05v6.22h1.05M661.95,90v-1.21h-1.05v1.21h1.05M659.4,96.48c-.16,0-.28-.03-.36-.08l-.18-.21c-.04-.09-.06-.28-.06-.58v-3.64h1.06v-.82h-1.06v-2.17l-1.05.63v1.54h-.77v.82h.77v3.58c0,.63.04,1.05.13,1.25.09.2.23.36.45.48.21.12.51.18.89.18.23,0,.5-.03.8-.09l-.15-.93c-.19.03-.35.04-.46.04M655.9,97.38v-6.22h-1.05v3.33c0,.53-.06.94-.17,1.22s-.31.5-.59.66c-.28.16-.57.24-.89.24s-.58-.08-.8-.24c-.21-.16-.36-.38-.42-.65-.04-.19-.06-.56-.06-1.11v-3.45h-1.05v3.86c0,.45.02.78.06.98.06.31.17.57.33.78.15.21.39.39.71.53.32.14.66.21,1.03.21.83,0,1.49-.35,1.97-1.05v.91h.94M649.39,96.48c-.16,0-.28-.03-.36-.08l-.18-.21c-.04-.09-.06-.28-.06-.58v-3.64h1.06v-.82h-1.06v-2.17l-1.05.63v1.54h-.77v.82h.77v3.58c0,.63.04,1.05.13,1.25.09.2.23.36.45.48.21.12.51.18.89.18.23,0,.5-.03.8-.09l-.15-.93c-.19.03-.35.04-.46.04M645.94,97.38v-6.22h-1.05v6.22h1.05M645.94,90v-1.21h-1.05v1.21h1.05M639.27,97.02c.42.34,1.04.5,1.85.5.49,0,.93-.08,1.31-.25.39-.17.68-.41.89-.72.21-.31.31-.64.31-.99s-.08-.66-.25-.9c-.17-.24-.4-.43-.69-.55-.29-.13-.82-.29-1.56-.49-.52-.14-.83-.23-.93-.27-.18-.07-.32-.17-.4-.28-.09-.11-.13-.23-.13-.37,0-.21.1-.4.31-.56.21-.16.55-.24,1.04-.24.41,0,.73.09.95.27.22.18.36.43.41.75l1.03-.14c-.07-.4-.19-.72-.36-.96-.18-.24-.45-.43-.82-.57-.37-.14-.8-.21-1.29-.21-.32,0-.63.04-.91.13-.28.08-.51.19-.67.31-.22.16-.39.35-.52.59-.13.24-.19.49-.19.77,0,.3.08.58.23.84.15.25.38.45.68.59.3.14.84.31,1.61.51.57.14.93.26,1.08.36.21.14.31.32.31.56,0,.27-.12.5-.35.69-.23.2-.59.3-1.08.3s-.85-.11-1.12-.33c-.27-.22-.43-.54-.49-.96l-1.04.16c.12.66.39,1.16.81,1.49M633.67,92.48c.34-.4.73-.6,1.2-.6s.85.19,1.17.58.48.99.48,1.8-.17,1.39-.5,1.79c-.34.4-.73.6-1.2.6-.57,0-1.02-.27-1.35-.81-.2-.33-.3-.87-.3-1.62s.17-1.34.5-1.74M633.18,96.6c.42.61.99.92,1.73.92s1.37-.29,1.9-.87c.53-.58.79-1.41.79-2.47,0-.45-.06-.87-.19-1.27-.13-.39-.3-.73-.52-1.01-.22-.28-.5-.5-.84-.65-.34-.15-.7-.23-1.09-.23-.69,0-1.26.28-1.71.84v-3.06h-1.05v8.59h.98v-.78M630.56,97.38v-6.22h-1.05v3.33c0,.53-.06.94-.17,1.22-.12.28-.31.5-.59.66-.28.16-.57.24-.89.24s-.58-.08-.8-.24c-.21-.16-.36-.38-.42-.65-.04-.19-.06-.56-.06-1.11v-3.45h-1.05v3.86c0,.45.02.78.06.98.06.31.17.57.33.78.15.21.39.39.71.53.32.14.66.21,1.03.21.83,0,1.49-.35,1.97-1.05v.91h.94M617.75,96.16c.3.46.71.8,1.24,1.02.53.23,1.18.34,1.95.34.61,0,1.16-.11,1.66-.34.49-.22.87-.54,1.13-.94.26-.4.39-.83.39-1.29s-.12-.87-.36-1.22c-.24-.35-.61-.65-1.11-.88-.34-.16-.98-.34-1.9-.55-.92-.21-1.5-.41-1.71-.61-.22-.2-.33-.45-.33-.76,0-.36.16-.66.47-.91.31-.25.82-.38,1.5-.38s1.16.14,1.5.42c.34.28.54.69.59,1.23l1.09-.08c-.02-.5-.16-.96-.42-1.35-.26-.4-.64-.7-1.12-.91-.49-.21-1.05-.31-1.68-.31-.58,0-1.1.1-1.58.29-.47.2-.83.48-1.08.86-.25.38-.37.78-.37,1.22,0,.39.1.75.3,1.07.2.32.51.58.92.8.32.17.87.35,1.66.54.79.19,1.3.33,1.53.42.36.14.62.31.77.51.16.2.23.44.23.71s-.08.51-.24.74c-.16.22-.41.4-.74.53-.33.13-.71.19-1.15.19-.49,0-.93-.08-1.32-.25-.39-.17-.68-.39-.86-.67-.19-.28-.3-.63-.35-1.06l-1.07.09c.02.57.17,1.09.47,1.54"/>
    <polyline points="602.74 98.7 590.74 98.7 590.74 86.7 602.74 86.7 602.74 98.7" style="fill: #636efa;"/>
    <path d="M666.08,91.89c-.53,0-.96.2-1.31.59-.35.39-.52.99-.52,1.79s.17,1.39.52,1.79c.35.4.79.59,1.31.59s.96-.2,1.31-.6c.35-.4.52-1.01.52-1.82,0-.77-.17-1.35-.52-1.75-.35-.4-.78-.59-1.3-.59M634.87,91.88c-.46,0-.86.2-1.2.6s-.5.98-.5,1.74.1,1.29.3,1.62c.33.54.78.81,1.35.81.46,0,.86-.2,1.2-.6.34-.4.5-1,.5-1.79s-.16-1.41-.48-1.8-.71-.58-1.17-.58M627.85,96.61c.32,0,.61-.08.89-.24.28-.16.47-.38.59-.66.12-.28.17-.68.17-1.22v-3.33h1.05v6.22h-.94v-.91c-.48.7-1.14,1.05-1.97,1.05-.37,0-.71-.07-1.03-.21-.32-.14-.55-.32-.71-.53-.15-.21-.26-.47-.33-.78-.04-.21-.06-.54-.06-.98v-3.86h1.05v3.45c0,.55.02.92.06,1.11.07.28.21.5.42.65.21.16.48.24.8.24M644.89,97.38v-6.22h1.05v6.22h-1.05M653.2,96.61c.32,0,.61-.08.89-.24.28-.16.47-.38.59-.66s.17-.68.17-1.22v-3.33h1.05v6.22h-.94v-.91c-.48.7-1.14,1.05-1.97,1.05-.37,0-.71-.07-1.03-.21-.32-.14-.55-.32-.71-.53-.15-.21-.26-.47-.33-.78-.04-.21-.06-.54-.06-.98v-3.86h1.05v3.45c0,.55.02.92.06,1.11.07.28.21.5.42.65.21.16.48.24.8.24M660.9,97.38v-6.22h1.05v6.22h-1.05M641.12,96.65c.48,0,.84-.1,1.08-.3.23-.2.35-.43.35-.69,0-.24-.1-.43-.31-.56-.14-.09-.5-.21-1.08-.36-.77-.2-1.31-.36-1.61-.51-.3-.14-.53-.34-.68-.59-.15-.25-.23-.53-.23-.84,0-.28.06-.53.19-.77.13-.24.3-.43.52-.59.16-.12.39-.22.67-.31.28-.08.59-.13.91-.13.49,0,.92.07,1.29.21.37.14.64.33.82.57.18.24.3.56.36.96l-1.03.14c-.05-.32-.18-.57-.41-.75-.22-.18-.54-.27-.95-.27-.48,0-.83.08-1.04.24-.21.16-.31.35-.31.56,0,.14.04.26.13.37.09.11.22.21.4.28.11.04.42.13.93.27.75.2,1.27.36,1.56.49.29.13.53.31.69.55.17.24.25.54.25.9s-.1.68-.31.99c-.21.31-.5.55-.89.72-.39.17-.82.25-1.31.25-.81,0-1.42-.17-1.85-.5-.42-.34-.69-.83-.81-1.49l1.04-.16c.06.42.22.74.49.96.27.22.64.33,1.12.33M666.08,97.52c-.87,0-1.58-.28-2.11-.84-.54-.56-.81-1.36-.81-2.41,0-1.15.32-2.01.96-2.56.54-.46,1.19-.69,1.96-.69.86,0,1.55.28,2.1.84.54.56.81,1.33.81,2.32,0,.8-.12,1.43-.36,1.89-.24.46-.59.82-1.05,1.07-.46.25-.96.38-1.5.38M671.18,92.04c.46-.68,1.12-1.03,1.98-1.03.38,0,.72.07,1.03.2.31.13.55.31.71.53.16.22.27.48.33.78.04.2.06.54.06,1.03v3.83h-1.05v-3.79c0-.43-.04-.75-.12-.96-.08-.21-.23-.38-.44-.51-.21-.13-.45-.19-.74-.19-.45,0-.84.14-1.16.43-.33.29-.49.83-.49,1.62v3.4h-1.05v-6.22h.95v.88M679.14,96.65c.48,0,.84-.1,1.08-.3.23-.2.35-.43.35-.69,0-.24-.1-.43-.31-.56-.14-.09-.5-.21-1.08-.36-.77-.2-1.31-.36-1.61-.51-.3-.14-.53-.34-.68-.59-.15-.25-.23-.53-.23-.84,0-.28.06-.53.19-.77.13-.24.3-.43.52-.59.16-.12.39-.22.67-.31.28-.08.59-.13.91-.13.49,0,.92.07,1.29.21.37.14.64.33.82.57.18.24.3.56.36.96l-1.03.14c-.05-.32-.18-.57-.41-.75-.22-.18-.54-.27-.95-.27-.48,0-.83.08-1.04.24-.21.16-.31.35-.31.56,0,.14.04.26.13.37.09.11.22.21.4.28.11.04.42.13.93.27.75.2,1.27.36,1.56.49.29.13.53.31.69.55.17.24.25.54.25.9s-.1.68-.31.99c-.21.31-.5.55-.89.72-.39.17-.82.25-1.31.25-.81,0-1.42-.17-1.85-.5-.42-.34-.69-.83-.81-1.49l1.04-.16c.06.42.22.74.49.96.27.22.64.33,1.12.33M646.97,91.98v-.82h.77v-1.54l1.05-.63v2.17h1.06v.82h-1.06v3.64c0,.3.02.49.06.58l.18.21c.08.05.2.08.36.08.12,0,.27-.01.46-.04l.15.93c-.3.06-.56.09-.8.09-.38,0-.68-.06-.89-.18-.21-.12-.36-.28-.45-.48-.09-.2-.13-.61-.13-1.25v-3.58h-.77M656.98,91.98v-.82h.77v-1.54l1.05-.63v2.17h1.06v.82h-1.06v3.64c0,.3.02.49.06.58l.18.21c.08.05.2.08.36.08.12,0,.27-.01.46-.04l.15.93c-.3.06-.56.09-.8.09-.38,0-.68-.06-.89-.18-.21-.12-.36-.28-.45-.48-.09-.2-.13-.61-.13-1.25v-3.58h-.77M632.2,97.38v-8.59h1.05v3.06c.45-.56,1.01-.84,1.71-.84.38,0,.75.08,1.09.23.34.15.62.37.84.65.22.28.39.62.52,1.01.12.39.19.82.19,1.27,0,1.07-.26,1.89-.79,2.47-.53.58-1.16.87-1.9.87s-1.31-.31-1.73-.92v.78h-.98M644.89,90v-1.21h1.05v1.21h-1.05M660.9,90v-1.21h1.05v1.21h-1.05M620.89,96.51c.43,0,.82-.06,1.15-.19.33-.13.58-.31.74-.53.16-.22.24-.47.24-.74s-.08-.5-.23-.71c-.16-.2-.41-.37-.77-.51-.23-.09-.74-.23-1.53-.42-.79-.19-1.34-.37-1.66-.54-.41-.21-.72-.48-.92-.8-.2-.32-.3-.67-.3-1.07,0-.43.12-.84.37-1.22.25-.38.61-.66,1.08-.86.47-.2,1-.29,1.58-.29.64,0,1.2.1,1.68.31.49.21.86.51,1.12.91.26.4.4.85.42,1.35l-1.09.08c-.06-.54-.26-.95-.59-1.23-.34-.28-.84-.42-1.5-.42s-1.19.13-1.5.38c-.31.25-.47.56-.47.91,0,.31.11.56.33.76.22.2.79.4,1.71.61.92.21,1.56.39,1.9.55.5.23.87.52,1.11.88.24.35.36.76.36,1.22s-.13.89-.39,1.29c-.26.4-.64.72-1.13.94-.49.22-1.04.34-1.66.34-.78,0-1.43-.11-1.95-.34-.53-.23-.94-.57-1.24-1.02-.3-.46-.46-.97-.47-1.54l1.07-.09c.05.43.17.78.35,1.06.19.28.47.5.86.67.39.17.83.25,1.32.25M590.74,98.7v-12h12v12h-12M682.11,83.2h-105.38v19h105.38v-19" style="fill: #fff;"/>
    <path d="M630.56,91.16h-1.05v3.33c0,.53-.06.94-.17,1.22-.12.28-.31.5-.59.66-.28.16-.57.24-.89.24s-.58-.08-.8-.24c-.21-.16-.36-.38-.42-.65-.04-.19-.06-.56-.06-1.11v-3.45h-1.05v3.86c0,.45.02.78.06.98.06.31.17.57.33.78.15.21.39.39.71.53.32.14.66.21,1.03.21.83,0,1.49-.35,1.97-1.05v.91h.94v-6.22M645.94,91.16h-1.05v6.22h1.05v-6.22M655.9,91.16h-1.05v3.33c0,.53-.06.94-.17,1.22s-.31.5-.59.66c-.28.16-.57.24-.89.24s-.58-.08-.8-.24c-.21-.16-.36-.38-.42-.65-.04-.19-.06-.56-.06-1.11v-3.45h-1.05v3.86c0,.45.02.78.06.98.06.31.17.57.33.78.15.21.39.39.71.53.32.14.66.21,1.03.21.83,0,1.49-.35,1.97-1.05v.91h.94v-6.22M661.95,91.16h-1.05v6.22h1.05v-6.22M640.93,91.02c-.32,0-.63.04-.91.13-.28.08-.51.19-.67.31-.22.16-.39.35-.52.59-.13.24-.19.49-.19.77,0,.3.08.58.23.84.15.25.38.45.68.59.3.14.84.31,1.61.51.57.14.93.26,1.08.36.21.14.31.32.31.56,0,.27-.12.5-.35.69-.23.2-.59.3-1.08.3s-.85-.11-1.12-.33c-.27-.22-.43-.54-.49-.96l-1.04.16c.12.66.39,1.16.81,1.49.42.34,1.04.5,1.85.5.49,0,.93-.08,1.31-.25.39-.17.68-.41.89-.72.21-.31.31-.64.31-.99s-.08-.66-.25-.9c-.17-.24-.4-.43-.69-.55-.29-.13-.82-.29-1.56-.49-.52-.14-.83-.23-.93-.27-.18-.07-.32-.17-.4-.28-.09-.11-.13-.23-.13-.37,0-.21.1-.4.31-.56.21-.16.55-.24,1.04-.24.41,0,.73.09.95.27.22.18.36.43.41.75l1.03-.14c-.07-.4-.19-.72-.36-.96-.18-.24-.45-.43-.82-.57-.37-.14-.8-.21-1.29-.21M666.08,96.65c-.53,0-.96-.2-1.31-.59-.35-.4-.52-.99-.52-1.79s.17-1.39.52-1.79c.35-.39.79-.59,1.31-.59s.95.2,1.3.59c.35.4.52.98.52,1.75,0,.82-.17,1.42-.52,1.82-.35.4-.78.6-1.31.6M666.08,91.02c-.77,0-1.42.23-1.96.69-.64.55-.96,1.41-.96,2.56,0,1.05.27,1.86.81,2.41.54.56,1.24.84,2.11.84.54,0,1.04-.13,1.5-.38.46-.25.81-.61,1.05-1.07.24-.46.36-1.09.36-1.89,0-.99-.27-1.76-.81-2.32-.54-.56-1.24-.84-2.1-.84M673.16,91.02c-.86,0-1.52.34-1.98,1.03v-.88h-.95v6.22h1.05v-3.4c0-.8.16-1.34.49-1.62.33-.29.71-.43,1.16-.43.28,0,.53.06.74.19.21.13.35.3.44.51.08.21.12.53.12.96v3.79h1.05v-3.83c0-.49-.02-.83-.06-1.03-.06-.3-.17-.56-.33-.78-.16-.22-.39-.4-.71-.53-.31-.13-.66-.2-1.03-.2M678.95,91.02c-.32,0-.63.04-.91.13-.28.08-.51.19-.67.31-.22.16-.39.35-.52.59-.13.24-.19.49-.19.77,0,.3.08.58.23.84.15.25.38.45.68.59.3.14.84.31,1.61.51.57.14.93.26,1.08.36.21.14.31.32.31.56,0,.27-.12.5-.35.69-.23.2-.59.3-1.08.3s-.85-.11-1.12-.33c-.27-.22-.43-.54-.49-.96l-1.04.16c.12.66.39,1.16.81,1.49.42.34,1.04.5,1.85.5.49,0,.93-.08,1.31-.25.39-.17.68-.41.89-.72.21-.31.31-.64.31-.99s-.08-.66-.25-.9c-.17-.24-.4-.43-.69-.55-.29-.13-.82-.29-1.56-.49-.52-.14-.83-.23-.93-.27-.18-.07-.32-.17-.4-.28-.09-.11-.13-.23-.13-.37,0-.21.1-.4.31-.56.21-.16.55-.24,1.04-.24.41,0,.73.09.95.27.22.18.36.43.41.75l1.03-.14c-.07-.4-.19-.72-.36-.96-.18-.24-.45-.43-.82-.57-.37-.14-.8-.21-1.29-.21M648.79,88.98l-1.05.63v1.54h-.77v.82h.77v3.58c0,.63.04,1.05.13,1.25.09.2.23.36.45.48.21.12.51.18.89.18.23,0,.5-.03.8-.09l-.15-.93c-.19.03-.35.04-.46.04-.16,0-.28-.03-.36-.08l-.18-.21c-.04-.09-.06-.28-.06-.58v-3.64h1.06v-.82h-1.06v-2.17M658.8,88.98l-1.05.63v1.54h-.77v.82h.77v3.58c0,.63.04,1.05.13,1.25.09.2.23.36.45.48.21.12.51.18.89.18.23,0,.5-.03.8-.09l-.15-.93c-.19.03-.35.04-.46.04-.16,0-.28-.03-.36-.08l-.18-.21c-.04-.09-.06-.28-.06-.58v-3.64h1.06v-.82h-1.06v-2.17M634.82,96.65c-.57,0-1.02-.27-1.35-.81-.2-.33-.3-.87-.3-1.62s.17-1.34.5-1.74.73-.6,1.2-.6.85.19,1.17.58.48.99.48,1.8-.17,1.39-.5,1.79c-.34.4-.73.6-1.2.6M633.26,88.79h-1.05v8.59h.98v-.78c.42.61.99.92,1.73.92s1.37-.29,1.9-.87c.53-.58.79-1.41.79-2.47,0-.45-.06-.87-.19-1.27-.13-.39-.3-.73-.52-1.01-.22-.28-.5-.5-.84-.65-.34-.15-.7-.23-1.09-.23-.69,0-1.26.28-1.71.84v-3.06M645.94,88.79h-1.05v1.21h1.05v-1.21M661.95,88.79h-1.05v1.21h1.05v-1.21M620.63,88.64c-.58,0-1.1.1-1.58.29-.47.2-.83.48-1.08.86-.25.38-.37.78-.37,1.22,0,.39.1.75.3,1.07.2.32.51.58.92.8.32.17.87.35,1.66.54.79.19,1.3.33,1.53.42.36.14.62.31.77.51.16.2.23.44.23.71s-.08.51-.24.74c-.16.22-.41.4-.74.53-.33.13-.71.19-1.15.19-.49,0-.93-.08-1.32-.25-.39-.17-.68-.39-.86-.67-.19-.28-.3-.63-.35-1.06l-1.07.09c.02.57.17,1.09.47,1.54.3.46.71.8,1.24,1.02.53.23,1.18.34,1.95.34.61,0,1.16-.11,1.66-.34.49-.22.87-.54,1.13-.94.26-.4.39-.83.39-1.29s-.12-.87-.36-1.22c-.24-.35-.61-.65-1.11-.88-.34-.16-.98-.34-1.9-.55-.92-.21-1.5-.41-1.71-.61-.22-.2-.33-.45-.33-.76,0-.36.16-.66.47-.91.31-.25.82-.38,1.5-.38s1.16.14,1.5.42c.34.28.54.69.59,1.23l1.09-.08c-.02-.5-.16-.96-.42-1.35-.26-.4-.64-.7-1.12-.91-.49-.21-1.05-.31-1.68-.31"/>
    <polyline points="602.74 86.7 590.74 86.7 590.74 98.7 602.74 98.7 602.74 86.7" style="fill: #636efa;"/>
    <path d="M663.95,116.02c.42.34,1.04.5,1.85.5.49,0,.93-.08,1.31-.25.39-.17.68-.41.89-.72.21-.31.31-.64.31-.99s-.08-.66-.25-.9c-.17-.24-.4-.43-.69-.55-.29-.13-.82-.29-1.56-.49-.52-.14-.83-.23-.93-.27-.18-.07-.32-.17-.4-.28-.09-.11-.13-.23-.13-.37,0-.21.1-.4.31-.56.21-.16.55-.24,1.04-.24.41,0,.73.09.95.27.22.18.36.43.41.75l1.03-.14c-.07-.4-.19-.72-.36-.96-.18-.24-.45-.43-.82-.57-.37-.14-.8-.21-1.29-.21-.32,0-.63.04-.91.13-.28.08-.51.19-.67.31-.22.16-.39.35-.52.59-.13.24-.19.49-.19.77,0,.3.08.58.23.83.15.25.38.45.68.59.3.14.84.31,1.61.51.57.14.93.26,1.08.36.21.14.31.32.31.56,0,.27-.12.5-.35.69-.23.2-.59.3-1.08.3s-.85-.11-1.12-.33c-.27-.22-.43-.54-.49-.96l-1.04.16c.12.66.39,1.16.81,1.49M657.94,116.38v-3.4c0-.8.16-1.34.49-1.62.33-.29.71-.43,1.16-.43.28,0,.53.06.74.19.21.13.35.3.44.51s.12.53.12.96v3.79h1.05v-3.83c0-.49-.02-.83-.06-1.03-.06-.3-.17-.56-.33-.78-.16-.22-.39-.4-.71-.53-.31-.13-.66-.2-1.03-.2-.86,0-1.52.34-1.98,1.03v-.88h-.95v6.22h1.05M651.42,111.48c.35-.39.79-.59,1.31-.59s.95.2,1.3.59c.35.4.52.98.52,1.75,0,.82-.17,1.42-.52,1.82-.35.4-.78.6-1.31.6s-.96-.2-1.31-.59c-.35-.4-.52-.99-.52-1.79s.17-1.39.52-1.79M650.62,115.68c.54.56,1.24.84,2.11.84.54,0,1.04-.13,1.5-.38.46-.25.81-.61,1.05-1.07s.36-1.09.36-1.89c0-.99-.27-1.76-.81-2.32s-1.24-.84-2.1-.84c-.77,0-1.42.23-1.96.69-.64.55-.96,1.41-.96,2.56,0,1.05.27,1.86.81,2.41M648.6,116.38v-6.22h-1.05v6.22h1.05M648.6,109v-1.21h-1.05v1.21h1.05M646.05,115.48c-.16,0-.28-.03-.36-.08l-.18-.21c-.04-.09-.06-.28-.06-.58v-3.64h1.06v-.82h-1.06v-2.17l-1.05.63v1.54h-.77v.82h.77v3.58c0,.63.04,1.05.13,1.25.09.2.23.36.45.48.21.12.51.18.89.18.23,0,.5-.03.8-.09l-.15-.93c-.19.03-.35.04-.46.04M641.26,116.38v-3.26c0-.45.06-.86.18-1.23.08-.25.21-.44.39-.58.18-.14.39-.21.62-.21.26,0,.52.08.77.23l.36-.98c-.37-.23-.73-.34-1.08-.34-.25,0-.47.07-.68.21-.21.14-.43.43-.67.87v-.94h-.95v6.22h1.05M634.88,111.37c.33-.32.74-.49,1.22-.49.54,0,.97.2,1.31.61.22.26.35.65.4,1.18h-3.47c.04-.54.22-.98.55-1.3M637.15,115.35c-.27.2-.6.3-.99.3-.52,0-.95-.18-1.3-.54-.35-.36-.54-.89-.58-1.57h4.64c0-.13,0-.22,0-.28,0-1.03-.26-1.82-.79-2.39-.53-.57-1.21-.85-2.04-.85s-1.56.29-2.1.87c-.54.58-.81,1.39-.81,2.44s.27,1.8.8,2.36c.53.56,1.25.84,2.17.84.72,0,1.32-.18,1.78-.53.46-.35.78-.85.96-1.48l-1.09-.13c-.16.45-.38.77-.65.97M627.93,116.02c.42.34,1.04.5,1.85.5.49,0,.93-.08,1.31-.25.39-.17.68-.41.89-.72.21-.31.31-.64.31-.99s-.08-.66-.25-.9c-.17-.24-.4-.43-.69-.55-.29-.13-.82-.29-1.56-.49-.52-.14-.83-.23-.93-.27-.18-.07-.32-.17-.4-.28-.09-.11-.13-.23-.13-.37,0-.21.1-.4.31-.56.21-.16.55-.24,1.04-.24.41,0,.73.09.95.27.22.18.36.43.41.75l1.03-.14c-.07-.4-.19-.72-.36-.96-.18-.24-.45-.43-.82-.57-.37-.14-.8-.21-1.29-.21-.32,0-.63.04-.91.13-.28.08-.51.19-.67.31-.22.16-.39.35-.52.59-.13.24-.19.49-.19.77,0,.3.08.58.23.83.15.25.38.45.68.59.3.14.83.31,1.61.51.57.14.93.26,1.08.36.21.14.31.32.31.56,0,.27-.12.5-.35.69-.23.2-.59.3-1.08.3s-.85-.11-1.12-.33c-.27-.22-.43-.54-.49-.96l-1.04.16c.12.66.39,1.16.81,1.49M621.92,116.38v-3.4c0-.8.16-1.34.49-1.62.33-.29.71-.43,1.16-.43.28,0,.53.06.74.19.21.13.35.3.44.51.08.21.12.53.12.96v3.79h1.05v-3.83c0-.49-.02-.83-.06-1.03-.06-.3-.17-.56-.33-.78-.16-.22-.39-.4-.71-.53-.31-.13-.66-.2-1.03-.2-.86,0-1.52.34-1.98,1.03v-.88h-.95v6.22h1.05M619,116.38v-8.59h-1.14v8.59h1.14"/>
    <polyline points="602.74 117.7 590.74 117.7 590.74 105.7 602.74 105.7 602.74 117.7" style="fill: #00cc96;"/>
    <path d="M652.73,110.89c-.53,0-.96.2-1.31.59-.35.39-.52.99-.52,1.79s.17,1.39.52,1.79c.35.4.79.59,1.31.59s.96-.2,1.31-.6c.35-.4.52-1.01.52-1.82,0-.77-.17-1.35-.52-1.75-.35-.4-.78-.59-1.3-.59M636.11,110.88c-.48,0-.89.16-1.22.49-.33.32-.51.76-.55,1.3h3.47c-.05-.52-.18-.92-.4-1.18-.34-.41-.77-.61-1.31-.61M647.55,116.38v-6.22h1.05v6.22h-1.05M621.81,111.04c.46-.68,1.12-1.03,1.98-1.03.38,0,.72.07,1.03.2.31.13.55.31.71.53.16.22.27.48.33.78.04.2.06.54.06,1.03v3.83h-1.05v-3.79c0-.43-.04-.75-.12-.96-.08-.21-.23-.38-.44-.51-.21-.13-.45-.19-.74-.19-.45,0-.84.14-1.16.43-.33.29-.49.83-.49,1.62v3.4h-1.05v-6.22h.95v.88M629.77,115.65c.48,0,.84-.1,1.08-.3.23-.2.35-.43.35-.69,0-.24-.1-.43-.31-.56-.14-.09-.5-.21-1.08-.36-.77-.2-1.31-.36-1.61-.51-.3-.14-.53-.34-.68-.59-.15-.25-.23-.53-.23-.83,0-.28.06-.53.19-.77.13-.24.3-.43.52-.59.16-.12.39-.22.67-.31.28-.08.59-.13.91-.13.49,0,.92.07,1.29.21.37.14.64.33.82.57.18.24.3.56.36.96l-1.03.14c-.05-.32-.18-.57-.41-.75-.22-.18-.54-.27-.95-.27-.48,0-.83.08-1.04.24-.21.16-.31.35-.31.56,0,.14.04.26.13.37.09.11.22.21.4.28.11.04.42.13.93.27.75.2,1.27.36,1.56.49.29.13.53.31.69.55.17.24.25.54.25.9s-.1.68-.31.99c-.21.31-.5.55-.89.72-.39.17-.82.25-1.31.25-.81,0-1.42-.17-1.85-.5-.42-.34-.69-.83-.81-1.49l1.04-.16c.06.42.22.74.49.96.27.22.64.33,1.12.33M636.15,116.52c-.91,0-1.63-.28-2.17-.84-.53-.56-.8-1.35-.8-2.36s.27-1.86.81-2.44c.54-.58,1.24-.87,2.1-.87s1.51.28,2.04.85c.53.57.79,1.36.79,2.39,0,.06,0,.16,0,.28h-4.64c.04.68.23,1.21.58,1.57.35.36.78.54,1.3.54.39,0,.72-.1.99-.3.27-.2.49-.53.65-.97l1.09.13c-.17.64-.49,1.13-.96,1.48-.46.35-1.06.53-1.78.53M641.15,111.1c.24-.44.47-.73.67-.87.21-.14.43-.21.68-.21.36,0,.72.11,1.08.34l-.36.98c-.26-.15-.52-.23-.77-.23-.23,0-.44.07-.62.21-.18.14-.31.33-.39.58-.12.38-.18.79-.18,1.23v3.26h-1.05v-6.22h.95v.94M652.73,116.52c-.87,0-1.58-.28-2.11-.84-.54-.56-.81-1.36-.81-2.41,0-1.15.32-2.01.96-2.56.54-.46,1.19-.69,1.96-.69.86,0,1.55.28,2.1.84s.81,1.33.81,2.32c0,.8-.12,1.43-.36,1.89s-.59.82-1.05,1.07c-.46.25-.96.38-1.5.38M657.83,111.04c.46-.68,1.12-1.03,1.98-1.03.38,0,.72.07,1.03.2.31.13.55.31.71.53.16.22.27.48.33.78.04.2.06.54.06,1.03v3.83h-1.05v-3.79c0-.43-.04-.75-.12-.96s-.23-.38-.44-.51c-.21-.13-.45-.19-.74-.19-.45,0-.84.14-1.16.43-.33.29-.49.83-.49,1.62v3.4h-1.05v-6.22h.95v.88M665.79,115.65c.48,0,.84-.1,1.08-.3.23-.2.35-.43.35-.69,0-.24-.1-.43-.31-.56-.14-.09-.5-.21-1.08-.36-.77-.2-1.31-.36-1.61-.51-.3-.14-.53-.34-.68-.59-.15-.25-.23-.53-.23-.83,0-.28.06-.53.19-.77.13-.24.3-.43.52-.59.16-.12.39-.22.67-.31.28-.08.59-.13.91-.13.49,0,.92.07,1.29.21.37.14.64.33.82.57.18.24.3.56.36.96l-1.03.14c-.05-.32-.18-.57-.41-.75-.22-.18-.54-.27-.95-.27-.48,0-.83.08-1.04.24-.21.16-.31.35-.31.56,0,.14.04.26.13.37.09.11.22.21.4.28.11.04.42.13.93.27.75.2,1.27.36,1.56.49.29.13.53.31.69.55.17.24.25.54.25.9s-.1.68-.31.99c-.21.31-.5.55-.89.72-.39.17-.82.25-1.31.25-.81,0-1.42-.17-1.85-.5-.42-.34-.69-.83-.81-1.49l1.04-.16c.06.42.22.74.49.96.27.22.64.33,1.12.33M643.63,110.98v-.82h.77v-1.54l1.05-.63v2.17h1.06v.82h-1.06v3.64c0,.3.02.49.06.58l.18.21c.08.05.2.08.36.08.12,0,.27-.01.46-.04l.15.93c-.3.06-.56.09-.8.09-.38,0-.68-.06-.89-.18-.21-.12-.36-.28-.45-.48-.09-.2-.13-.61-.13-1.25v-3.58h-.77M617.86,116.38v-8.59h1.14v8.59h-1.14M647.55,109v-1.21h1.05v1.21h-1.05M590.74,117.7v-12h12v12h-12M682.11,102.2h-105.38v19h105.38v-19" style="fill: #fff;"/>
    <path d="M648.6,110.16h-1.05v6.22h1.05v-6.22M623.79,110.02c-.86,0-1.52.34-1.98,1.03v-.88h-.95v6.22h1.05v-3.4c0-.8.16-1.34.49-1.62.33-.29.71-.43,1.16-.43.28,0,.53.06.74.19.21.13.35.3.44.51.08.21.12.53.12.96v3.79h1.05v-3.83c0-.49-.02-.83-.06-1.03-.06-.3-.17-.56-.33-.78-.16-.22-.39-.4-.71-.53-.31-.13-.66-.2-1.03-.2M629.58,110.02c-.32,0-.63.04-.91.13-.28.08-.51.19-.67.31-.22.16-.39.35-.52.59-.13.24-.19.49-.19.77,0,.3.08.58.23.83.15.25.38.45.68.59.3.14.83.31,1.61.51.57.14.93.26,1.08.36.21.14.31.32.31.56,0,.27-.12.5-.35.69-.23.2-.59.3-1.08.3s-.85-.11-1.12-.33c-.27-.22-.43-.54-.49-.96l-1.04.16c.12.66.39,1.16.81,1.49.42.34,1.04.5,1.85.5.49,0,.93-.08,1.31-.25.39-.17.68-.41.89-.72.21-.31.31-.64.31-.99s-.08-.66-.25-.9c-.17-.24-.4-.43-.69-.55-.29-.13-.82-.29-1.56-.49-.52-.14-.83-.23-.93-.27-.18-.07-.32-.17-.4-.28-.09-.11-.13-.23-.13-.37,0-.21.1-.4.31-.56.21-.16.55-.24,1.04-.24.41,0,.73.09.95.27.22.18.36.43.41.75l1.03-.14c-.07-.4-.19-.72-.36-.96-.18-.24-.45-.43-.82-.57-.37-.14-.8-.21-1.29-.21M634.34,112.67c.04-.54.22-.98.55-1.3.33-.32.74-.49,1.22-.49.54,0,.97.2,1.31.61.22.26.35.65.4,1.18h-3.47M636.09,110.02c-.86,0-1.56.29-2.1.87-.54.58-.81,1.39-.81,2.44s.27,1.8.8,2.36c.53.56,1.25.84,2.17.84.72,0,1.32-.18,1.78-.53.46-.35.78-.85.96-1.48l-1.09-.13c-.16.45-.38.77-.65.97-.27.2-.6.3-.99.3-.52,0-.95-.18-1.3-.54-.35-.36-.54-.89-.58-1.57h4.64c0-.13,0-.22,0-.28,0-1.03-.26-1.82-.79-2.39-.53-.57-1.21-.85-2.04-.85M642.5,110.02c-.25,0-.47.07-.68.21-.21.14-.43.43-.67.87v-.94h-.95v6.22h1.05v-3.26c0-.45.06-.86.18-1.23.08-.25.21-.44.39-.58.18-.14.39-.21.62-.21.26,0,.52.08.77.23l.36-.98c-.37-.23-.73-.34-1.08-.34M652.73,115.65c-.53,0-.96-.2-1.31-.59-.35-.4-.52-.99-.52-1.79s.17-1.39.52-1.79c.35-.39.79-.59,1.31-.59s.95.2,1.3.59c.35.4.52.98.52,1.75,0,.82-.17,1.42-.52,1.82-.35.4-.78.6-1.31.6M652.73,110.02c-.77,0-1.42.23-1.96.69-.64.55-.96,1.41-.96,2.56,0,1.05.27,1.86.81,2.41.54.56,1.24.84,2.11.84.54,0,1.04-.13,1.5-.38.46-.25.81-.61,1.05-1.07s.36-1.09.36-1.89c0-.99-.27-1.76-.81-2.32s-1.24-.84-2.1-.84M659.81,110.02c-.86,0-1.52.34-1.98,1.03v-.88h-.95v6.22h1.05v-3.4c0-.8.16-1.34.49-1.62.33-.29.71-.43,1.16-.43.28,0,.53.06.74.19.21.13.35.3.44.51s.12.53.12.96v3.79h1.05v-3.83c0-.49-.02-.83-.06-1.03-.06-.3-.17-.56-.33-.78-.16-.22-.39-.4-.71-.53-.31-.13-.66-.2-1.03-.2M665.6,110.02c-.32,0-.63.04-.91.13-.28.08-.51.19-.67.31-.22.16-.39.35-.52.59-.13.24-.19.49-.19.77,0,.3.08.58.23.83.15.25.38.45.68.59.3.14.84.31,1.61.51.57.14.93.26,1.08.36.21.14.31.32.31.56,0,.27-.12.5-.35.69-.23.2-.59.3-1.08.3s-.85-.11-1.12-.33c-.27-.22-.43-.54-.49-.96l-1.04.16c.12.66.39,1.16.81,1.49.42.34,1.04.5,1.85.5.49,0,.93-.08,1.31-.25.39-.17.68-.41.89-.72.21-.31.31-.64.31-.99s-.08-.66-.25-.9c-.17-.24-.4-.43-.69-.55-.29-.13-.82-.29-1.56-.49-.52-.14-.83-.23-.93-.27-.18-.07-.32-.17-.4-.28-.09-.11-.13-.23-.13-.37,0-.21.1-.4.31-.56.21-.16.55-.24,1.04-.24.41,0,.73.09.95.27.22.18.36.43.41.75l1.03-.14c-.07-.4-.19-.72-.36-.96-.18-.24-.45-.43-.82-.57-.37-.14-.8-.21-1.29-.21M645.45,107.98l-1.05.63v1.54h-.77v.82h.77v3.58c0,.63.04,1.05.13,1.25.09.2.23.36.45.48.21.12.51.18.89.18.23,0,.5-.03.8-.09l-.15-.93c-.19.03-.35.04-.46.04-.16,0-.28-.03-.36-.08l-.18-.21c-.04-.09-.06-.28-.06-.58v-3.64h1.06v-.82h-1.06v-2.17M619,107.79h-1.14v8.59h1.14v-8.59M648.6,107.79h-1.05v1.21h1.05v-1.21"/>
    <polyline points="602.74 105.7 590.74 105.7 590.74 117.7 602.74 117.7 602.74 105.7" style="fill: #00cc96;"/>
    <path d="M661.95,135.02c.42.34,1.04.5,1.85.5.49,0,.93-.08,1.31-.25.39-.17.68-.41.89-.72.21-.31.31-.64.31-.99s-.08-.66-.25-.9c-.17-.24-.4-.43-.69-.55-.29-.13-.82-.29-1.56-.49-.52-.14-.83-.23-.93-.27-.18-.07-.32-.17-.4-.28-.09-.11-.13-.23-.13-.37,0-.21.1-.4.31-.56.21-.16.55-.24,1.04-.24.41,0,.73.09.95.27.22.18.36.43.41.75l1.03-.14c-.07-.4-.19-.72-.36-.96-.18-.24-.45-.43-.82-.57-.37-.14-.8-.21-1.29-.21-.32,0-.63.04-.91.13-.28.08-.51.19-.67.31-.22.16-.39.35-.52.59-.13.24-.19.49-.19.77,0,.3.08.58.23.83.15.25.38.45.68.59.3.14.83.31,1.61.51.57.14.93.26,1.08.36.21.14.31.32.31.56,0,.27-.12.5-.35.69-.23.2-.59.3-1.08.3s-.85-.11-1.12-.33c-.27-.22-.43-.54-.49-.96l-1.04.16c.12.66.39,1.16.81,1.49M655.94,135.38v-3.4c0-.8.16-1.34.49-1.62.33-.29.71-.43,1.16-.43.28,0,.53.06.74.19s.35.3.44.51.12.53.12.96v3.79h1.05v-3.83c0-.49-.02-.83-.06-1.03-.06-.3-.17-.56-.33-.78-.16-.22-.39-.4-.71-.53-.31-.13-.66-.2-1.03-.2-.86,0-1.52.34-1.98,1.03v-.88h-.95v6.22h1.05M649.42,130.48c.35-.39.79-.59,1.31-.59s.95.2,1.3.59c.35.4.52.98.52,1.75,0,.82-.17,1.42-.52,1.82-.35.4-.78.6-1.31.6s-.96-.2-1.31-.59c-.35-.4-.52-.99-.52-1.79s.17-1.39.52-1.79M648.62,134.68c.54.56,1.24.84,2.11.84.54,0,1.04-.13,1.5-.38.46-.25.81-.61,1.05-1.07.24-.46.36-1.09.36-1.89,0-.99-.27-1.76-.81-2.32-.54-.56-1.24-.84-2.1-.84-.77,0-1.42.23-1.96.69-.64.55-.96,1.41-.96,2.56,0,1.05.27,1.86.81,2.41M646.61,135.38v-6.22h-1.05v6.22h1.05M646.61,128v-1.21h-1.05v1.21h1.05M644.05,134.48c-.16,0-.28-.03-.36-.08l-.18-.21c-.04-.09-.06-.28-.06-.58v-3.64h1.06v-.82h-1.06v-2.17l-1.05.63v1.54h-.77v.82h.77v3.58c0,.63.04,1.05.13,1.25.09.2.23.36.45.48.21.12.51.18.89.18.23,0,.5-.03.8-.09l-.15-.93c-.19.03-.35.04-.46.04M636.88,130.37c.33-.32.74-.49,1.22-.49.54,0,.97.2,1.31.61.22.26.35.65.4,1.18h-3.47c.04-.54.22-.98.55-1.3M639.15,134.35c-.27.2-.6.3-.99.3-.52,0-.95-.18-1.3-.54-.35-.36-.54-.89-.58-1.57h4.64c0-.13,0-.22,0-.28,0-1.03-.26-1.82-.79-2.39-.53-.57-1.21-.85-2.04-.85s-1.56.29-2.1.87c-.54.58-.81,1.39-.81,2.44s.27,1.8.8,2.36c.53.56,1.25.84,2.17.84.72,0,1.32-.18,1.78-.53.46-.35.78-.85.96-1.48l-1.09-.13c-.16.45-.38.77-.65.97M633.9,135.38v-8.59h-1.05v8.59h1.05M627.54,130.37c.33-.32.74-.49,1.22-.49.54,0,.97.2,1.31.61.22.26.35.65.4,1.18h-3.47c.04-.54.22-.98.55-1.3M629.81,134.35c-.27.2-.6.3-.99.3-.52,0-.95-.18-1.3-.54-.35-.36-.54-.89-.58-1.57h4.64c0-.13,0-.22,0-.28,0-1.03-.26-1.82-.79-2.39-.53-.57-1.21-.85-2.04-.85s-1.56.29-2.1.87c-.54.58-.81,1.39-.81,2.44s.27,1.8.8,2.36c.53.56,1.25.84,2.16.84.72,0,1.32-.18,1.78-.53.46-.35.78-.85.96-1.48l-1.09-.13c-.16.45-.38.77-.65.97M618.8,127.8h1.8c.68,0,1.17.06,1.47.18.42.16.78.49,1.08.97s.44,1.17.44,2.07c0,.65-.08,1.2-.23,1.66-.15.46-.36.82-.63,1.09-.19.19-.45.34-.77.45s-.77.16-1.33.16h-1.83v-6.56M620.77,135.38c.52,0,.98-.05,1.38-.15.4-.1.74-.24,1.03-.43.28-.19.54-.45.78-.78.24-.33.43-.75.59-1.25.15-.5.23-1.08.23-1.73,0-.77-.11-1.45-.34-2.04-.22-.6-.56-1.08-1.02-1.47-.35-.3-.77-.5-1.26-.62-.35-.08-.86-.12-1.53-.12h-2.96v8.59h3.1"/>
    <polyline points="602.74 136.7 590.74 136.7 590.74 124.7 602.74 124.7 602.74 136.7" style="fill: #ef553b;"/>
    <path d="M650.74,129.89c-.53,0-.96.2-1.31.59-.35.39-.52.99-.52,1.79s.17,1.39.52,1.79c.35.4.79.59,1.31.59s.96-.2,1.31-.6c.35-.4.52-1.01.52-1.82,0-.77-.17-1.35-.52-1.75-.35-.4-.78-.59-1.3-.59M628.76,129.88c-.48,0-.89.16-1.22.49-.33.32-.51.76-.55,1.3h3.47c-.05-.52-.18-.92-.4-1.18-.34-.41-.77-.61-1.31-.61M638.1,129.88c-.48,0-.89.16-1.22.49-.33.32-.51.76-.55,1.3h3.47c-.05-.52-.18-.92-.4-1.18-.34-.41-.77-.61-1.31-.61M620.61,127.8h-1.8v6.56h1.83c.57,0,1.01-.05,1.33-.16s.58-.25.77-.45c.27-.27.48-.63.63-1.09.15-.45.23-1.01.23-1.66,0-.9-.15-1.59-.44-2.07s-.65-.81-1.08-.97c-.3-.12-.8-.18-1.47-.18M645.55,135.38v-6.22h1.05v6.22h-1.05M628.81,135.52c-.91,0-1.63-.28-2.16-.84-.53-.56-.8-1.35-.8-2.36s.27-1.86.81-2.44c.54-.58,1.24-.87,2.1-.87s1.51.28,2.04.85c.53.57.79,1.36.79,2.39,0,.06,0,.16,0,.28h-4.64c.04.68.23,1.21.58,1.57.35.36.78.54,1.3.54.39,0,.72-.1.99-.3.27-.2.49-.53.65-.97l1.09.13c-.17.64-.49,1.13-.96,1.48-.46.35-1.06.53-1.78.53M638.15,135.52c-.91,0-1.63-.28-2.17-.84-.53-.56-.8-1.35-.8-2.36s.27-1.86.81-2.44c.54-.58,1.24-.87,2.1-.87s1.51.28,2.04.85c.53.57.79,1.36.79,2.39,0,.06,0,.16,0,.28h-4.64c.04.68.23,1.21.58,1.57.35.36.78.54,1.3.54.39,0,.72-.1.99-.3.27-.2.49-.53.65-.97l1.09.13c-.17.64-.49,1.13-.96,1.48-.46.35-1.06.53-1.78.53M650.74,135.52c-.87,0-1.58-.28-2.11-.84-.54-.56-.81-1.36-.81-2.41,0-1.15.32-2.01.96-2.56.54-.46,1.19-.69,1.96-.69.86,0,1.55.28,2.1.84.54.56.81,1.33.81,2.32,0,.8-.12,1.43-.36,1.89-.24.46-.59.82-1.05,1.07-.46.25-.96.38-1.5.38M655.83,130.04c.46-.68,1.12-1.03,1.98-1.03.38,0,.72.07,1.03.2.31.13.55.31.71.53.16.22.27.48.33.78.04.2.06.54.06,1.03v3.83h-1.05v-3.79c0-.43-.04-.75-.12-.96s-.23-.38-.44-.51-.45-.19-.74-.19c-.45,0-.84.14-1.16.43-.33.29-.49.83-.49,1.62v3.4h-1.05v-6.22h.95v.88M663.79,134.65c.48,0,.84-.1,1.08-.3.23-.2.35-.43.35-.69,0-.24-.1-.43-.31-.56-.14-.09-.5-.21-1.08-.36-.77-.2-1.31-.36-1.61-.51-.3-.14-.53-.34-.68-.59-.15-.25-.23-.53-.23-.83,0-.28.06-.53.19-.77.13-.24.3-.43.52-.59.16-.12.39-.22.67-.31.28-.08.59-.13.91-.13.49,0,.92.07,1.29.21.37.14.64.33.82.57.18.24.3.56.36.96l-1.03.14c-.05-.32-.18-.57-.41-.75-.22-.18-.54-.27-.95-.27-.48,0-.83.08-1.04.24-.21.16-.31.35-.31.56,0,.14.04.26.13.37.09.11.22.21.4.28.11.04.42.13.93.27.75.2,1.27.36,1.56.49.29.13.53.31.69.55.17.24.25.54.25.9s-.1.68-.31.99c-.21.31-.5.55-.89.72-.39.17-.82.25-1.31.25-.81,0-1.42-.17-1.85-.5-.42-.34-.69-.83-.81-1.49l1.04-.16c.06.42.22.74.49.96.27.22.64.33,1.12.33M641.63,129.98v-.82h.77v-1.54l1.05-.63v2.17h1.06v.82h-1.06v3.64c0,.3.02.49.06.58l.18.21c.08.05.2.08.36.08.12,0,.27-.01.46-.04l.15.93c-.3.06-.56.09-.8.09-.38,0-.68-.06-.89-.18-.21-.12-.36-.28-.45-.48-.09-.2-.13-.61-.13-1.25v-3.58h-.77M617.67,135.38v-8.59h2.96c.67,0,1.18.04,1.53.12.49.11.91.32,1.26.62.45.38.79.87,1.02,1.47.22.6.34,1.28.34,2.04,0,.65-.08,1.23-.23,1.73-.15.5-.35.92-.59,1.25-.24.33-.5.59-.78.78-.28.19-.63.33-1.03.43-.4.1-.86.15-1.38.15h-3.1M632.85,135.38v-8.59h1.05v8.59h-1.05M645.55,128v-1.21h1.05v1.21h-1.05M590.74,136.7v-12h12v12h-12M682.11,121.2h-105.38v19h105.38v-19" style="fill: #fff;"/>
    <path d="M646.61,129.16h-1.05v6.22h1.05v-6.22M626.99,131.67c.04-.54.22-.98.55-1.3.33-.32.74-.49,1.22-.49.54,0,.97.2,1.31.61.22.26.35.65.4,1.18h-3.47M628.75,129.02c-.86,0-1.56.29-2.1.87-.54.58-.81,1.39-.81,2.44s.27,1.8.8,2.36c.53.56,1.25.84,2.16.84.72,0,1.32-.18,1.78-.53.46-.35.78-.85.96-1.48l-1.09-.13c-.16.45-.38.77-.65.97-.27.2-.6.3-.99.3-.52,0-.95-.18-1.3-.54-.35-.36-.54-.89-.58-1.57h4.64c0-.13,0-.22,0-.28,0-1.03-.26-1.82-.79-2.39-.53-.57-1.21-.85-2.04-.85M636.33,131.67c.04-.54.22-.98.55-1.3.33-.32.74-.49,1.22-.49.54,0,.97.2,1.31.61.22.26.35.65.4,1.18h-3.47M638.09,129.02c-.86,0-1.56.29-2.1.87-.54.58-.81,1.39-.81,2.44s.27,1.8.8,2.36c.53.56,1.25.84,2.17.84.72,0,1.32-.18,1.78-.53.46-.35.78-.85.96-1.48l-1.09-.13c-.16.45-.38.77-.65.97-.27.2-.6.3-.99.3-.52,0-.95-.18-1.3-.54-.35-.36-.54-.89-.58-1.57h4.64c0-.13,0-.22,0-.28,0-1.03-.26-1.82-.79-2.39-.53-.57-1.21-.85-2.04-.85M650.74,134.65c-.53,0-.96-.2-1.31-.59-.35-.4-.52-.99-.52-1.79s.17-1.39.52-1.79c.35-.39.79-.59,1.31-.59s.95.2,1.3.59c.35.4.52.98.52,1.75,0,.82-.17,1.42-.52,1.82-.35.4-.78.6-1.31.6M650.74,129.02c-.77,0-1.42.23-1.96.69-.64.55-.96,1.41-.96,2.56,0,1.05.27,1.86.81,2.41.54.56,1.24.84,2.11.84.54,0,1.04-.13,1.5-.38.46-.25.81-.61,1.05-1.07.24-.46.36-1.09.36-1.89,0-.99-.27-1.76-.81-2.32-.54-.56-1.24-.84-2.1-.84M657.81,129.02c-.86,0-1.52.34-1.98,1.03v-.88h-.95v6.22h1.05v-3.4c0-.8.16-1.34.49-1.62.33-.29.71-.43,1.16-.43.28,0,.53.06.74.19s.35.3.44.51.12.53.12.96v3.79h1.05v-3.83c0-.49-.02-.83-.06-1.03-.06-.3-.17-.56-.33-.78-.16-.22-.39-.4-.71-.53-.31-.13-.66-.2-1.03-.2M663.6,129.02c-.32,0-.63.04-.91.13-.28.08-.51.19-.67.31-.22.16-.39.35-.52.59-.13.24-.19.49-.19.77,0,.3.08.58.23.83.15.25.38.45.68.59.3.14.83.31,1.61.51.57.14.93.26,1.08.36.21.14.31.32.31.56,0,.27-.12.5-.35.69-.23.2-.59.3-1.08.3s-.85-.11-1.12-.33c-.27-.22-.43-.54-.49-.96l-1.04.16c.12.66.39,1.16.81,1.49.42.34,1.04.5,1.85.5.49,0,.93-.08,1.31-.25.39-.17.68-.41.89-.72.21-.31.31-.64.31-.99s-.08-.66-.25-.9c-.17-.24-.4-.43-.69-.55-.29-.13-.82-.29-1.56-.49-.52-.14-.83-.23-.93-.27-.18-.07-.32-.17-.4-.28-.09-.11-.13-.23-.13-.37,0-.21.1-.4.31-.56.21-.16.55-.24,1.04-.24.41,0,.73.09.95.27.22.18.36.43.41.75l1.03-.14c-.07-.4-.19-.72-.36-.96-.18-.24-.45-.43-.82-.57-.37-.14-.8-.21-1.29-.21M643.45,126.98l-1.05.63v1.54h-.77v.82h.77v3.58c0,.63.04,1.05.13,1.25.09.2.23.36.45.48.21.12.51.18.89.18.23,0,.5-.03.8-.09l-.15-.93c-.19.03-.35.04-.46.04-.16,0-.28-.03-.36-.08l-.18-.21c-.04-.09-.06-.28-.06-.58v-3.64h1.06v-.82h-1.06v-2.17M618.8,134.37v-6.56h1.8c.68,0,1.17.06,1.47.18.42.16.78.49,1.08.97s.44,1.17.44,2.07c0,.65-.08,1.2-.23,1.66-.15.46-.36.82-.63,1.09-.19.19-.45.34-.77.45s-.77.16-1.33.16h-1.83M620.62,126.79h-2.96v8.59h3.1c.52,0,.98-.05,1.38-.15.4-.1.74-.24,1.03-.43.28-.19.54-.45.78-.78.24-.33.43-.75.59-1.25.15-.5.23-1.08.23-1.73,0-.77-.11-1.45-.34-2.04-.22-.6-.56-1.08-1.02-1.47-.35-.3-.77-.5-1.26-.62-.35-.08-.86-.12-1.53-.12M633.9,126.79h-1.05v8.59h1.05v-8.59M646.61,126.79h-1.05v1.21h1.05v-1.21"/>
    <polyline points="602.74 124.7 590.74 124.7 590.74 136.7 602.74 136.7 602.74 124.7" style="fill: #ef553b;"/>
  </g>
  <path d="M337.32,460.3v-3.97c0-.57.07-1.02.21-1.34s.37-.58.69-.77c.32-.19.66-.28,1.03-.28.49,0,.86.14,1.13.42.27.28.4.73.4,1.34v4.6h1.23v-4.6c0-.71-.09-1.25-.26-1.63s-.45-.67-.85-.88c-.4-.21-.86-.32-1.4-.32-.88,0-1.6.33-2.17,1v-3.6h-1.23v10.02h1.23ZM334.35,459.25c-.18,0-.32-.03-.42-.09s-.17-.14-.21-.24-.06-.33-.06-.68v-4.25h1.24v-.96h-1.24v-2.54l-1.22.74v1.8h-.9v.96h.9v4.18c0,.74.05,1.22.15,1.45.1.23.27.42.52.56s.59.21,1.04.21c.27,0,.58-.04.93-.11l-.18-1.09c-.22.03-.4.05-.54.05ZM325.65,460.3v-3.96c0-.93.19-1.56.57-1.89s.83-.5,1.36-.5c.33,0,.61.07.86.22.24.15.41.35.51.59.1.25.14.62.14,1.12v4.42h1.23v-4.46c0-.57-.02-.97-.07-1.2-.07-.35-.2-.65-.38-.91s-.46-.46-.82-.62c-.37-.16-.77-.24-1.21-.24-1.01,0-1.78.4-2.31,1.2v-1.03h-1.11v7.26h1.23ZM318.04,454.59c.41-.46.92-.69,1.53-.69s1.11.23,1.52.69c.41.46.61,1.14.61,2.04,0,.95-.2,1.66-.61,2.13s-.91.7-1.52.7-1.13-.23-1.53-.69c-.41-.46-.61-1.16-.61-2.09s.2-1.62.61-2.08ZM317.11,459.49c.63.65,1.45.98,2.46.98.63,0,1.22-.15,1.75-.44s.94-.71,1.22-1.25c.28-.54.42-1.27.42-2.21,0-1.15-.32-2.06-.95-2.71-.63-.65-1.45-.98-2.45-.98-.9,0-1.66.27-2.28.81-.75.65-1.12,1.64-1.12,2.99,0,1.23.31,2.17.94,2.82ZM306.36,460.3v-8.53l2.9,8.53h1.2l2.91-8.39v8.39h1.28v-10.02h-1.78l-2.4,6.97c-.24.71-.42,1.24-.53,1.61-.1-.33-.26-.82-.48-1.48l-2.37-7.1h-2v10.02h1.28Z"/>
  <path d="M33.72,152.68c-.38-.39-.57-.86-.57-1.43,0-.62.24-1.13.71-1.52.31-.26.76-.41,1.37-.46v4.05c-.63-.04-1.14-.25-1.52-.64ZM38.37,150.04c.24.32.36.7.36,1.16,0,.61-.21,1.11-.64,1.52s-1.03.63-1.83.68v-5.41c-.15,0-.25,0-.33,0-1.2,0-2.13.31-2.79.92s-.99,1.41-.99,2.38.34,1.82,1.01,2.45,1.62.94,2.84.94,2.1-.31,2.75-.93c.65-.62.98-1.46.98-2.53,0-.84-.21-1.54-.62-2.08s-.99-.91-1.73-1.11l-.16,1.27c.52.19.9.44,1.13.76ZM38.28,157.12c.3.32.44.73.44,1.21,0,.6-.22,1.09-.66,1.46s-1.15.56-2.13.56-1.66-.19-2.11-.58c-.44-.39-.67-.89-.67-1.51,0-.41.12-.76.37-1.05s.61-.49,1.1-.6l-.18-1.2c-.73.14-1.3.46-1.7.96-.4.5-.6,1.15-.6,1.93,0,.62.15,1.2.44,1.73.29.53.73.93,1.32,1.19s1.27.39,2.06.39c1.21,0,2.14-.3,2.79-.91.65-.6.97-1.4.97-2.4,0-.79-.24-1.46-.71-2.01-.47-.54-1.12-.88-1.96-1.02l-.16,1.21c.62.09,1.07.29,1.37.62ZM39.57,167.8h-3.96c-.93,0-1.56-.19-1.89-.57s-.5-.83-.5-1.36c0-.33.07-.61.22-.86.15-.24.35-.41.59-.51.25-.1.62-.14,1.12-.14h4.42v-1.23h-4.46c-.57,0-.97.02-1.2.07-.35.07-.65.2-.91.38s-.46.46-.62.82c-.16.37-.24.77-.24,1.21,0,1.01.4,1.78,1.2,2.31h-1.03v1.11h7.26v-1.23ZM33.72,175.25c-.38-.39-.57-.86-.57-1.43,0-.62.24-1.13.71-1.52.31-.26.76-.41,1.37-.46v4.05c-.63-.04-1.14-.25-1.52-.64ZM38.37,172.61c.24.32.36.7.36,1.16,0,.61-.21,1.11-.64,1.52s-1.03.63-1.83.68v-5.41c-.15,0-.25,0-.33,0-1.2,0-2.13.31-2.79.92s-.99,1.41-.99,2.38.34,1.82,1.01,2.45,1.62.94,2.84.94,2.1-.31,2.75-.93c.65-.62.98-1.46.98-2.53,0-.84-.21-1.54-.62-2.08s-.99-.91-1.73-1.11l-.16,1.27c.52.19.9.44,1.13.76ZM39.57,178.75h-7.26v1.23h3.89c.62,0,1.09.07,1.42.2.33.13.58.36.77.69.19.32.28.67.28,1.04s-.09.68-.28.93c-.19.25-.44.41-.76.49-.22.05-.66.08-1.3.08h-4.03v1.23h4.5c.52,0,.91-.02,1.15-.08.36-.07.66-.2.91-.38.25-.18.46-.46.62-.83s.25-.77.25-1.2c0-.97-.41-1.74-1.23-2.3h1.07v-1.1ZM33.79,191c-.45-.37-.68-.82-.68-1.36s.24-1.01.73-1.4,1.21-.6,2.18-.6c.91,0,1.58.19,2.03.57.44.38.67.83.67,1.35s-.23,1.02-.7,1.41c-.47.39-1.17.59-2.1.59s-1.67-.19-2.12-.56ZM42.35,186.53h-10.04v1.11h.97c-.76.52-1.13,1.22-1.13,2.12,0,.57.15,1.1.45,1.58.3.48.74.85,1.32,1.1s1.23.38,1.96.38c1.2,0,2.14-.31,2.83-.93s1.03-1.36,1.03-2.23c0-.39-.09-.75-.27-1.1s-.4-.61-.67-.8h3.55v-1.23ZM33.72,198.61c-.38-.39-.57-.86-.57-1.43,0-.62.24-1.13.71-1.52.31-.26.76-.41,1.37-.46v4.05c-.63-.04-1.14-.25-1.52-.64ZM38.37,195.97c.24.32.36.7.36,1.16,0,.61-.21,1.11-.64,1.52s-1.03.63-1.83.68v-5.41c-.15,0-.25,0-.33,0-1.2,0-2.13.31-2.79.92s-.99,1.41-.99,2.38.34,1.82,1.01,2.45,1.62.94,2.84.94,2.1-.31,2.75-.93c.65-.62.98-1.46.98-2.53,0-.84-.21-1.54-.62-2.08s-.99-.91-1.73-1.11l-.16,1.27c.52.19.9.44,1.13.76ZM39.14,206.72c.39-.49.59-1.21.59-2.16,0-.57-.1-1.08-.3-1.53-.2-.45-.48-.8-.84-1.04-.36-.24-.75-.36-1.16-.36s-.77.1-1.05.29-.5.47-.65.81c-.15.34-.34.95-.57,1.82-.16.6-.27.96-.31,1.09-.09.21-.2.37-.33.47-.13.1-.27.15-.43.15-.25,0-.47-.12-.66-.36s-.28-.65-.28-1.21c0-.48.1-.85.31-1.11s.5-.42.88-.48l-.16-1.2c-.47.08-.84.22-1.12.42-.28.21-.5.52-.67.95s-.25.93-.25,1.5c0,.38.05.73.15,1.06.1.33.22.59.36.78.18.26.41.46.69.6.28.15.58.22.9.22.36,0,.68-.09.97-.27.29-.18.52-.44.69-.79.17-.35.36-.97.59-1.88.17-.67.31-1.09.42-1.26.16-.24.38-.36.66-.36.31,0,.58.14.81.41.23.27.35.69.35,1.26s-.13,1-.39,1.31-.63.5-1.12.57l.19,1.22c.77-.14,1.35-.45,1.74-.95ZM39.57,214.51h-3.8c-.52,0-1-.07-1.44-.21-.29-.09-.51-.24-.67-.46-.16-.21-.24-.46-.24-.72,0-.3.09-.6.27-.9l-1.14-.42c-.26.43-.4.85-.4,1.26,0,.29.08.55.25.79s.5.5,1.02.78h-1.1v1.11h7.26v-1.23ZM33.72,221.95c-.38-.39-.57-.86-.57-1.43,0-.62.24-1.13.71-1.52.31-.26.76-.41,1.37-.46v4.05c-.63-.04-1.14-.25-1.52-.64ZM38.37,219.3c.24.32.36.7.36,1.16,0,.61-.21,1.11-.64,1.52s-1.03.63-1.83.68v-5.41c-.15,0-.25,0-.33,0-1.2,0-2.13.31-2.79.92s-.99,1.41-.99,2.38.34,1.82,1.01,2.45,1.62.94,2.84.94,2.1-.31,2.75-.93c.65-.62.98-1.46.98-2.53,0-.84-.21-1.54-.62-2.08s-.99-.91-1.73-1.11l-.16,1.27c.52.19.9.44,1.13.76ZM33.84,229.58c-.49-.4-.74-.87-.74-1.39s.23-.98.69-1.36,1.15-.57,2.08-.57c.97,0,1.69.19,2.15.58.46.39.69.86.69,1.4s-.22,1-.67,1.37-1.14.57-2.07.57-1.65-.2-2.14-.6ZM42.35,230.07h-3.53c.26-.21.48-.48.66-.8s.26-.69.26-1.1c0-.56-.16-1.09-.47-1.6-.32-.51-.77-.9-1.37-1.16-.6-.27-1.26-.4-2.01-.4-.69,0-1.33.12-1.91.36-.58.24-1.03.6-1.35,1.07s-.48,1.02-.48,1.64c0,.47.09.88.28,1.21.18.33.46.63.83.9h-.94v1.12h10.04v-1.23ZM38.52,236.93c0,.18-.03.32-.09.42s-.14.17-.24.21-.33.06-.68.06h-4.25v-1.24h-.96v1.24h-2.54l.74,1.22h1.8v.9h.96v-.9h4.18c.74,0,1.22-.05,1.45-.15.23-.1.42-.27.56-.52s.21-.59.21-1.04c0-.27-.04-.58-.11-.93l-1.09.18c.03.22.05.4.05.54ZM39.57,245.64h-3.96c-.93,0-1.56-.19-1.89-.57s-.5-.83-.5-1.36c0-.33.07-.61.22-.86.15-.24.35-.41.59-.51.25-.1.62-.14,1.12-.14h4.42v-1.23h-4.46c-.57,0-.97.02-1.2.07-.35.07-.65.2-.91.38s-.46.46-.62.82c-.16.37-.24.77-.24,1.21,0,1.01.4,1.78,1.2,2.31h-1.03v1.11h7.26v-1.23ZM39.57,248.79h-7.26v1.23h3.89c.62,0,1.09.07,1.42.2.33.13.58.36.77.69.19.32.28.67.28,1.04s-.09.68-.28.93c-.19.25-.44.41-.76.49-.22.05-.66.08-1.3.08h-4.03v1.23h4.5c.52,0,.91-.02,1.15-.08.36-.07.66-.2.91-.38.25-.18.46-.46.62-.83s.25-.77.25-1.2c0-.97-.41-1.74-1.23-2.3h1.07v-1.1ZM33.85,261.02c-.46-.41-.69-.92-.69-1.53s.23-1.11.69-1.52c.46-.41,1.14-.61,2.04-.61.95,0,1.66.2,2.13.61s.7.91.7,1.52-.23,1.13-.69,1.53c-.46.41-1.16.61-2.09.61s-1.62-.2-2.08-.61ZM38.75,261.96c.65-.63.98-1.45.98-2.46,0-.63-.15-1.22-.44-1.75s-.71-.94-1.25-1.22c-.54-.28-1.27-.42-2.21-.42-1.15,0-2.06.32-2.71.95-.65.63-.98,1.45-.98,2.45,0,.9.27,1.66.81,2.28.65.75,1.64,1.12,2.99,1.12,1.23,0,2.17-.31,2.82-.94ZM39.57,272.87h-3.77c-.66,0-1.17-.07-1.52-.2s-.62-.35-.8-.64-.27-.61-.27-.96c0-.46.14-.78.41-.98s.68-.3,1.23-.3h4.72v-1.23h-4.22c-.75,0-1.29-.17-1.63-.51-.34-.34-.51-.76-.51-1.27,0-.28.07-.53.2-.74s.31-.35.52-.43c.22-.08.57-.12,1.06-.12h4.57v-1.22h-4.98c-.83,0-1.44.19-1.84.58-.4.39-.6.94-.6,1.66,0,.92.42,1.67,1.27,2.24-.4.14-.71.38-.94.73s-.33.79-.33,1.32c0,.48.11.91.32,1.29.22.38.5.68.86.91h-1.02v1.1h7.26v-1.23ZM36.38,277.25c.54,0,.95.07,1.23.2.36.17.64.44.85.81.21.37.31.79.31,1.26s-.11.84-.33,1.09-.49.37-.82.37c-.21,0-.41-.06-.58-.17-.17-.11-.31-.28-.4-.49s-.17-.57-.25-1.07c-.13-.89-.28-1.56-.46-2.01h.45ZM39.57,276.9v-1.29c-.28.15-.57.26-.87.31-.3.05-1.03.08-2.17.08h-1.64c-.55,0-.92.02-1.13.06-.34.07-.62.2-.84.38-.22.18-.41.47-.55.85s-.22.89-.22,1.51.09,1.17.26,1.65c.17.47.42.84.73,1.09.32.25.73.43,1.25.54l.16-1.2c-.51-.13-.87-.34-1.08-.61-.2-.28-.3-.7-.3-1.28,0-.62.14-1.09.42-1.4.21-.23.56-.35,1.06-.35.05,0,.15,0,.32,0,.16.47.31,1.2.42,2.19.06.49.12.85.18,1.09.09.33.23.62.4.89s.41.47.71.64c.29.16.62.24.97.24.61,0,1.1-.21,1.49-.64.39-.43.58-1.04.58-1.84,0-.48-.08-.94-.24-1.36s-.43-.86-.82-1.32c.34-.04.64-.12.9-.25ZM39.57,292.33h-3.96c-.93,0-1.56-.19-1.89-.57s-.5-.83-.5-1.36c0-.33.07-.61.22-.86.15-.24.35-.41.59-.51.25-.1.62-.14,1.12-.14h4.42v-1.23h-4.46c-.57,0-.97.02-1.2.07-.35.07-.65.2-.91.38s-.46.46-.62.82c-.16.37-.24.77-.24,1.21,0,1.01.4,1.78,1.2,2.31h-1.03v1.11h7.26v-1.23ZM36.38,296.71c.54,0,.95.07,1.23.2.36.17.64.44.85.81.21.37.31.79.31,1.26s-.11.84-.33,1.09-.49.37-.82.37c-.21,0-.41-.06-.58-.17-.17-.11-.31-.28-.4-.49s-.17-.57-.25-1.07c-.13-.89-.28-1.56-.46-2.01h.45ZM39.57,296.37v-1.29c-.28.15-.57.26-.87.31-.3.05-1.03.08-2.17.08h-1.64c-.55,0-.92.02-1.13.06-.34.07-.62.2-.84.38-.22.18-.41.47-.55.85s-.22.89-.22,1.51.09,1.17.26,1.65c.17.47.42.84.73,1.09.32.25.73.43,1.25.54l.16-1.2c-.51-.13-.87-.34-1.08-.61-.2-.28-.3-.7-.3-1.28,0-.62.14-1.09.42-1.4.21-.23.56-.35,1.06-.35.05,0,.15,0,.32,0,.16.47.31,1.2.42,2.19.06.49.12.85.18,1.09.09.33.23.62.4.89s.41.47.71.64c.29.16.62.24.97.24.61,0,1.1-.21,1.49-.64.39-.43.58-1.04.58-1.84,0-.48-.08-.94-.24-1.36s-.43-.86-.82-1.32c.34-.04.64-.12.9-.25ZM39.57,303.22h-7.26v1.23h7.26v-1.23ZM30.96,303.22h-1.42v1.23h1.42v-1.23ZM33.83,310.87c-.45-.37-.67-.82-.67-1.37s.23-1.03.7-1.42,1.19-.57,2.19-.57c.9,0,1.57.19,2.01.56.44.38.66.83.66,1.37s-.23,1-.69,1.39-1.16.59-2.08.59-1.67-.18-2.11-.55ZM39.57,306.39h-10.02v1.22h3.6c-.3.21-.54.49-.72.83-.19.34-.28.73-.28,1.17,0,.6.16,1.14.47,1.62s.77.85,1.36,1.09c.59.24,1.25.36,1.97.36s1.4-.13,1.97-.4c.57-.27,1.02-.64,1.34-1.13s.48-1.02.48-1.6c0-.89-.36-1.57-1.08-2.03h.92v-1.14ZM33.72,318.46c-.38-.39-.57-.86-.57-1.43,0-.62.24-1.13.71-1.52.31-.26.76-.41,1.37-.46v4.05c-.63-.04-1.14-.25-1.52-.64ZM38.37,315.82c.24.32.36.7.36,1.16,0,.61-.21,1.11-.64,1.52s-1.03.63-1.83.68v-5.41c-.15,0-.25,0-.33,0-1.2,0-2.13.31-2.79.92s-.99,1.41-.99,2.38.34,1.82,1.01,2.45,1.62.94,2.84.94,2.1-.31,2.75-.93c.65-.62.98-1.46.98-2.53,0-.84-.21-1.54-.62-2.08s-.99-.91-1.73-1.11l-.16,1.27c.52.19.9.44,1.13.76ZM39.57,330.3h-8.53l8.53-2.9v-1.2l-8.39-2.91h8.39v-1.28h-10.02v1.78l6.97,2.4c.71.24,1.24.42,1.61.53-.33.1-.82.26-1.48.48l-7.1,2.37v2h10.02v-1.28Z"/>
</svg>