<?xml version="1.0" encoding="UTF-8"?>
<svg id="Layer_1" data-name="Layer 1" xmlns="http://www.w3.org/2000/svg" width="1000" height="800" xmlns:xlink="http://www.w3.org/1999/xlink" viewBox="0 0 1000 800">
  <defs>
    <clipPath id="clippath">
      <polyline points="80 60 920 60 920 720 80 720 80 60" style="fill: none;"/>
    </clipPath>
    <clipPath id="clippath-1">
      <polyline points="756.6 66.6 911.6 66.6 911.6 220.6 756.6 220.6 756.6 66.6" style="fill: none;"/>
    </clipPath>
  </defs>
  <polyline points="0 0 1000 0 1000 800 0 800 0 0" style="fill: #fff;"/>
  <polyline points="80 605.77 920 605.77 920 604.77 80 604.77" style="fill: #eee;"/>
  <polyline points="80 491.05 920 491.05 920 490.05 80 490.05" style="fill: #eee;"/>
  <polyline points="80 376.32 920 376.32 920 375.32 80 375.32" style="fill: #eee;"/>
  <polyline points="80 261.6 920 261.6 920 260.6 80 260.6" style="fill: #eee;"/>
  <polyline points="80 146.87 920 146.87 920 145.87 80 145.87 80 146.87" style="fill: #eee;"/>
  <polyline points="80 720.5 920 720.5 920 719.5 80 719.5" style="fill: #444;"/>
  <g style="clip-path: url(#clippath);">
    <rect x="82.77" y="715.19" width="22.19" height="4.81" style="fill: #ab63fa;"/>
    <rect x="262.07" y="717.01" width="22.18" height="2.99" style="fill: #ab63fa;"/>
    <rect x="201.64" y="524.67" width="22.19" height="195.33" style="fill: #ab63fa;"/>
    <rect x="292.77" y="719.23" width="22.19" height=".77" style="fill: #ab63fa;"/>
    <rect x="323.48" y="719.87" width="22.19" height=".13" style="fill: #ab63fa;"/>
    <rect x="353.2" y="719.97" width="22.19" height=".03" style="fill: #ab63fa;"/>
    <rect x="171.92" y="407.11" width="22.19" height="312.89" style="fill: #ab63fa;"/>
    <rect x="383.91" y="719.98" width="22.18" height=".02" style="fill: #ab63fa;"/>
    <rect x="444.33" y="719.99" width="22.19" height=".01" style="fill: #ab63fa;"/>
    <rect x="141.22" y="500.8" width="22.19" height="219.2" style="fill: #ab63fa;"/>
    <rect x="475.04" y="719.99" width="22.19" height=".01" style="fill: #ab63fa;"/>
    <rect x="413.62" y="719.98" width="22.19" height=".02" style="fill: #ab63fa;"/>
    <rect x="232.35" y="677.83" width="22.19" height="42.17" style="fill: #ab63fa;"/>
    <rect x="113.48" y="658.47" width="22.19" height="61.53" style="fill: #ab63fa;"/>
    <rect x="502.77" y="719.99" width="22.19" height=".01" style="fill: #ab63fa;"/>
    <rect x="685.04" y="719.9" width="22.19" height=".1" style="fill: #ffa15a;"/>
    <rect x="262.07" y="649.6" width="22.18" height="67.41" style="fill: #ffa15a;"/>
    <rect x="232.35" y="660.34" width="22.19" height="17.49" style="fill: #ffa15a;"/>
    <rect x="475.04" y="718.38" width="22.19" height="1.61" style="fill: #ffa15a;"/>
    <rect x="323.48" y="434.91" width="22.19" height="284.96" style="fill: #ffa15a;"/>
    <rect x="593.91" y="719.98" width="22.18" height=".02" style="fill: #ffa15a;"/>
    <rect x="383.91" y="378.71" width="22.18" height="341.27" style="fill: #ffa15a;"/>
    <rect x="413.62" y="391.55" width="22.19" height="328.43" style="fill: #ffa15a;"/>
    <rect x="533.48" y="719.94" width="22.19" height=".06" style="fill: #ffa15a;"/>
    <rect x="444.33" y="657.5" width="22.19" height="62.49" style="fill: #ffa15a;"/>
    <rect x="502.77" y="719.87" width="22.19" height=".12" style="fill: #ffa15a;"/>
    <rect x="654.33" y="719.98" width="22.19" height=".02" style="fill: #ffa15a;"/>
    <rect x="353.2" y="488.62" width="22.19" height="231.35" style="fill: #ffa15a;"/>
    <rect x="292.77" y="504.52" width="22.19" height="214.71" style="fill: #ffa15a;"/>
    <rect x="201.64" y="519.55" width="22.19" height="5.12" style="fill: #ffa15a;"/>
    <rect x="141.22" y="500.78" width="22.19" height=".02" style="fill: #ffa15a;"/>
    <rect x="113.48" y="658.46" width="22.19" height="0" style="fill: #ffa15a;"/>
    <rect x="171.92" y="406.06" width="22.19" height="1.05" style="fill: #ffa15a;"/>
    <rect x="82.77" y="715.15" width="22.19" height=".04" style="fill: #ffa15a;"/>
    <rect x="593.91" y="429.78" width="22.18" height="290.2" style="fill: #19d3f3;"/>
    <rect x="563.2" y="415.55" width="22.19" height="304.45" style="fill: #19d3f3;"/>
    <rect x="623.62" y="468.65" width="22.19" height="251.35" style="fill: #19d3f3;"/>
    <rect x="714.75" y="534.67" width="22.19" height="185.33" style="fill: #19d3f3;"/>
    <rect x="745.46" y="583.73" width="22.19" height="136.27" style="fill: #19d3f3;"/>
    <rect x="775.18" y="579.44" width="22.19" height="140.56" style="fill: #19d3f3;"/>
    <rect x="805.89" y="626.03" width="22.19" height="93.97" style="fill: #19d3f3;"/>
    <rect x="836.59" y="657.61" width="22.19" height="62.39" style="fill: #19d3f3;"/>
    <rect x="864.33" y="697.91" width="22.19" height="22.09" style="fill: #19d3f3;"/>
    <rect x="654.33" y="564.9" width="22.19" height="155.08" style="fill: #19d3f3;"/>
    <rect x="685.04" y="553.47" width="22.19" height="166.43" style="fill: #19d3f3;"/>
    <rect x="533.48" y="291.53" width="22.19" height="428.41" style="fill: #19d3f3;"/>
    <rect x="895.04" y="716.69" width="22.19" height="3.31" style="fill: #19d3f3;"/>
    <rect x="413.62" y="302.47" width="22.19" height="89.08" style="fill: #19d3f3;"/>
    <rect x="502.77" y="97.89" width="22.19" height="621.98" style="fill: #19d3f3;"/>
    <rect x="353.2" y="488.57" width="22.19" height=".05" style="fill: #19d3f3;"/>
    <rect x="444.33" y="167.07" width="22.19" height="490.43" style="fill: #19d3f3;"/>
    <rect x="475.04" y="162.64" width="22.19" height="555.74" style="fill: #19d3f3;"/>
    <rect x="383.91" y="377.98" width="22.18" height=".73" style="fill: #19d3f3;"/>
    <rect x="685.04" y="553.46" width="22.19" height=".01" style="fill: #ff6692;"/>
    <rect x="171.92" y="400.56" width="22.19" height="5.5" style="fill: #ff6692;"/>
    <rect x="113.48" y="655.67" width="22.19" height="2.79" style="fill: #ff6692;"/>
    <rect x="383.91" y="377.97" width="22.18" height=".01" style="fill: #ff6692;"/>
    <rect x="323.48" y="434.88" width="22.19" height=".03" style="fill: #ff6692;"/>
    <rect x="262.07" y="649.54" width="22.18" height=".06" style="fill: #ff6692;"/>
    <rect x="201.64" y="516.73" width="22.19" height="2.82" style="fill: #ff6692;"/>
    <rect x="82.77" y="714.5" width="22.19" height=".65" style="fill: #ff6692;"/>
    <rect x="141.22" y="494.4" width="22.19" height="6.38" style="fill: #ff6692;"/>
    <rect x="502.77" y="97.88" width="22.19" height=".01" style="fill: #ff6692;"/>
    <rect x="232.35" y="660" width="22.19" height=".34" style="fill: #ff6692;"/>
    <rect x="113.48" y="655.64" width="22.19" height=".03" style="fill: #ff6692;"/>
    <rect x="141.22" y="494.36" width="22.19" height=".04" style="fill: #ff6692;"/>
    <rect x="201.64" y="516.72" width="22.19" height=".01" style="fill: #ff6692;"/>
    <rect x="323.48" y="434.87" width="22.19" height=".01" style="fill: #ff6692;"/>
    <rect x="113.48" y="655.13" width="22.19" height=".51" style="fill: #ff6692;"/>
    <rect x="141.22" y="492.42" width="22.19" height="1.94" style="fill: #ff6692;"/>
    <rect x="82.77" y="714.46" width="22.19" height=".04" style="fill: #ff6692;"/>
    <rect x="232.35" y="659.56" width="22.19" height=".44" style="fill: #ff6692;"/>
    <rect x="201.64" y="515.32" width="22.19" height="1.4" style="fill: #ff6692;"/>
    <rect x="171.92" y="398.57" width="22.19" height="1.99" style="fill: #ff6692;"/>
    <rect x="292.77" y="504.44" width="22.19" height=".08" style="fill: #ff6692;"/>
    <rect x="353.2" y="488.53" width="22.19" height=".04" style="fill: #ff6692;"/>
    <rect x="171.92" y="396.82" width="22.19" height="1.75" style="fill: #ff6692;"/>
    <rect x="141.22" y="491.97" width="22.19" height=".45" style="fill: #ff6692;"/>
    <rect x="113.48" y="654.88" width="22.19" height=".25" style="fill: #ff6692;"/>
    <rect x="232.35" y="658.44" width="22.19" height="1.12" style="fill: #ff6692;"/>
    <rect x="201.64" y="513.44" width="22.19" height="1.88" style="fill: #ff6692;"/>
    <rect x="82.77" y="714.45" width="22.19" height=".01" style="fill: #ff6692;"/>
    <rect x="262.07" y="648.58" width="22.18" height=".96" style="fill: #ff6692;"/>
    <rect x="323.48" y="434.84" width="22.19" height=".03" style="fill: #ff6692;"/>
    <rect x="201.64" y="513.37" width="22.19" height=".07" style="fill: #ff6692;"/>
    <rect x="141.22" y="491.95" width="22.19" height=".02" style="fill: #ff6692;"/>
    <rect x="113.48" y="654.87" width="22.19" height=".01" style="fill: #ff6692;"/>
    <rect x="232.35" y="658.41" width="22.19" height=".03" style="fill: #ff6692;"/>
    <rect x="171.92" y="396.74" width="22.19" height=".08" style="fill: #ff6692;"/>
    <rect x="141.22" y="491.9" width="22.19" height=".05" style="fill: #ff6692;"/>
    <rect x="201.64" y="513.11" width="22.19" height=".26" style="fill: #ff6692;"/>
    <rect x="171.92" y="396.31" width="22.19" height=".43" style="fill: #ff6692;"/>
    <rect x="232.35" y="658.39" width="22.19" height=".02" style="fill: #ff6692;"/>
    <rect x="262.07" y="648.54" width="22.18" height=".04" style="fill: #ff6692;"/>
    <rect x="201.64" y="512.85" width="22.19" height=".26" style="fill: #ff6692;"/>
    <rect x="232.35" y="658.27" width="22.19" height=".12" style="fill: #ff6692;"/>
    <rect x="113.48" y="654.73" width="22.19" height=".14" style="fill: #ff6692;"/>
    <rect x="141.22" y="491.68" width="22.19" height=".22" style="fill: #ff6692;"/>
    <rect x="171.92" y="396.13" width="22.19" height=".18" style="fill: #ff6692;"/>
    <rect x="262.07" y="648.4" width="22.18" height=".14" style="fill: #ff6692;"/>
    <rect x="232.35" y="657.73" width="22.19" height=".54" style="fill: #ff6692;"/>
    <rect x="171.92" y="396.09" width="22.19" height=".04" style="fill: #ff6692;"/>
    <rect x="292.77" y="504.38" width="22.19" height=".06" style="fill: #ff6692;"/>
    <rect x="323.48" y="434.77" width="22.19" height=".07" style="fill: #ff6692;"/>
    <rect x="201.64" y="512.61" width="22.19" height=".24" style="fill: #ff6692;"/>
    <rect x="171.92" y="396.07" width="22.19" height=".02" style="fill: #ff6692;"/>
    <rect x="201.64" y="512.6" width="22.19" height="0" style="fill: #ff6692;"/>
    <rect x="141.22" y="491.56" width="22.19" height=".12" style="fill: #ff6692;"/>
    <rect x="113.48" y="654.72" width="22.19" height=".01" style="fill: #ff6692;"/>
    <rect x="232.35" y="657.72" width="22.19" height=".01" style="fill: #ff6692;"/>
    <rect x="775.18" y="577.96" width="22.19" height="1.48" style="fill: #ff6692;"/>
    <rect x="292.77" y="504.37" width="22.19" height=".01" style="fill: #ff6692;"/>
    <rect x="836.59" y="653.1" width="22.19" height="4.51" style="fill: #ff6692;"/>
    <rect x="323.48" y="434.76" width="22.19" height="0" style="fill: #ff6692;"/>
    <rect x="864.33" y="695.12" width="22.19" height="2.79" style="fill: #ff6692;"/>
    <rect x="745.46" y="583.2" width="22.19" height=".53" style="fill: #ff6692;"/>
    <rect x="805.89" y="623.42" width="22.19" height="2.61" style="fill: #ff6692;"/>
    <rect x="502.77" y="93.93" width="22.19" height="3.95" style="fill: #ff6692;"/>
    <rect x="413.62" y="302.46" width="22.19" height="0" style="fill: #ff6692;"/>
    <rect x="685.04" y="553.09" width="22.19" height=".37" style="fill: #ff6692;"/>
    <rect x="654.33" y="564.47" width="22.19" height=".43" style="fill: #ff6692;"/>
    <rect x="623.62" y="467.64" width="22.19" height="1.01" style="fill: #ff6692;"/>
    <rect x="444.33" y="166.85" width="22.19" height=".22" style="fill: #ff6692;"/>
    <rect x="593.91" y="428.09" width="22.18" height="1.69" style="fill: #ff6692;"/>
    <rect x="563.2" y="412.87" width="22.19" height="2.68" style="fill: #ff6692;"/>
    <rect x="475.04" y="160.85" width="22.19" height="1.79" style="fill: #ff6692;"/>
    <rect x="533.48" y="288.14" width="22.19" height="3.39" style="fill: #ff6692;"/>
    <rect x="714.75" y="534.13" width="22.19" height=".54" style="fill: #ff6692;"/>
    <rect x="895.04" y="716.17" width="22.19" height=".52" style="fill: #ff6692;"/>
    <rect x="82.77" y="677.2" width="22.19" height="37.25" style="fill: #d3d3d3;"/>
    <rect x="113.48" y="572.82" width="22.19" height="81.9" style="fill: #d3d3d3;"/>
    <rect x="141.22" y="448.94" width="22.19" height="42.62" style="fill: #d3d3d3;"/>
    <rect x="171.92" y="382.69" width="22.19" height="13.38" style="fill: #d3d3d3;"/>
    <rect x="201.64" y="504.67" width="22.19" height="7.93" style="fill: #d3d3d3;"/>
    <rect x="232.35" y="654.45" width="22.19" height="3.27" style="fill: #d3d3d3;"/>
    <rect x="262.07" y="647.49" width="22.18" height=".91" style="fill: #d3d3d3;"/>
    <rect x="292.77" y="504.04" width="22.19" height=".33" style="fill: #d3d3d3;"/>
    <rect x="323.48" y="434.64" width="22.19" height=".12" style="fill: #d3d3d3;"/>
    <rect x="353.2" y="488.5" width="22.19" height=".03" style="fill: #d3d3d3;"/>
    <rect x="383.91" y="377.84" width="22.18" height=".13" style="fill: #d3d3d3;"/>
    <rect x="413.62" y="300.7" width="22.19" height="1.76" style="fill: #d3d3d3;"/>
    <rect x="444.33" y="164.82" width="22.19" height="2.03" style="fill: #d3d3d3;"/>
    <rect x="475.04" y="160.45" width="22.19" height=".4" style="fill: #d3d3d3;"/>
    <rect x="502.77" y="93" width="22.19" height=".93" style="fill: #d3d3d3;"/>
    <rect x="533.48" y="288.01" width="22.19" height=".13" style="fill: #d3d3d3;"/>
    <rect x="563.2" y="412.82" width="22.19" height=".05" style="fill: #d3d3d3;"/>
    <rect x="593.91" y="427.91" width="22.18" height=".18" style="fill: #d3d3d3;"/>
    <rect x="623.62" y="467.58" width="22.19" height=".06" style="fill: #d3d3d3;"/>
    <rect x="654.33" y="564.46" width="22.19" height=".01" style="fill: #d3d3d3;"/>
    <rect x="685.04" y="552.95" width="22.19" height=".14" style="fill: #d3d3d3;"/>
    <rect x="714.75" y="533.74" width="22.19" height=".39" style="fill: #d3d3d3;"/>
    <rect x="745.46" y="581.62" width="22.19" height="1.58" style="fill: #d3d3d3;"/>
    <rect x="775.18" y="575.43" width="22.19" height="2.53" style="fill: #d3d3d3;"/>
    <rect x="805.89" y="613.09" width="22.19" height="10.33" style="fill: #d3d3d3;"/>
    <rect x="836.59" y="613.48" width="22.19" height="39.62" style="fill: #d3d3d3;"/>
    <rect x="864.33" y="643.32" width="22.19" height="51.8" style="fill: #d3d3d3;"/>
    <rect x="895.04" y="700.44" width="22.19" height="15.73" style="fill: #d3d3d3;"/>
  </g>
  <path d="M123.85,725.5h-.91c-.25.5-.66,1-1.25,1.53-.59.53-1.28.97-2.06,1.34v1.36c.44-.16.93-.4,1.48-.73.55-.32.99-.65,1.33-.97v8.96h1.41v-11.5ZM111.43,735.65c.16-.25.35-.51.59-.76.24-.25.78-.73,1.62-1.44,1.01-.85,1.73-1.53,2.17-2.02.43-.49.75-.96.93-1.4s.28-.89.28-1.35c0-.9-.32-1.66-.96-2.27s-1.51-.91-2.61-.91-1.96.28-2.6.85c-.65.57-1.02,1.39-1.12,2.46l1.45.15c0-.72.21-1.28.62-1.69s.95-.61,1.62-.61c.64,0,1.16.19,1.56.57s.6.85.6,1.41-.22,1.09-.66,1.69-1.28,1.41-2.52,2.43c-.8.66-1.42,1.23-1.84,1.73-.42.5-.73,1.01-.93,1.52-.12.31-.17.64-.16.98h7.57v-1.35h-5.62ZM102.93,727.48c.39-.55.9-.82,1.55-.82s1.2.31,1.64.93c.44.62.66,1.87.66,3.76s-.22,3.12-.66,3.75c-.44.62-.98.94-1.63.94s-1.19-.31-1.63-.93c-.44-.62-.66-1.87-.66-3.75s.24-3.17.73-3.87ZM101.89,736.01c.63.79,1.5,1.19,2.6,1.19.84,0,1.53-.23,2.08-.68.55-.45.96-1.09,1.24-1.91.28-.83.41-1.91.41-3.25,0-1.14-.09-2.04-.26-2.71s-.41-1.24-.71-1.7c-.3-.47-.69-.82-1.15-1.07-.46-.25-1-.37-1.62-.37-.83,0-1.52.22-2.07.67-.55.45-.96,1.08-1.24,1.91-.28.83-.42,1.92-.42,3.27,0,2.15.38,3.7,1.13,4.66ZM93.63,735.65c.16-.25.35-.51.59-.76.24-.25.78-.73,1.62-1.44,1.01-.85,1.73-1.53,2.17-2.02.43-.49.75-.96.93-1.4s.28-.89.28-1.35c0-.9-.32-1.66-.96-2.27s-1.51-.91-2.61-.91-1.96.28-2.6.85c-.65.57-1.02,1.39-1.12,2.46l1.45.15c0-.72.21-1.28.62-1.69s.95-.61,1.62-.61c.64,0,1.16.19,1.56.57s.6.85.6,1.41-.22,1.09-.66,1.69-1.28,1.41-2.52,2.43c-.8.66-1.42,1.23-1.84,1.73-.42.5-.73,1.01-.93,1.52-.12.31-.17.64-.16.98h7.57v-1.35h-5.62ZM80.31,737v-4.53c0-1.06.22-1.78.65-2.16.43-.38.95-.57,1.55-.57.38,0,.7.08.98.25.28.17.47.4.58.68s.16.71.16,1.29v5.05h1.41v-5.1c0-.65-.03-1.11-.08-1.37-.08-.4-.23-.75-.44-1.04-.21-.29-.52-.53-.94-.71-.42-.18-.88-.27-1.38-.27-1.15,0-2.03.46-2.64,1.37v-1.18h-1.27v8.3h1.41ZM75.3,733.35c0,.62-.08,1.09-.23,1.41-.2.41-.51.74-.93.97s-.9.36-1.45.36-.96-.12-1.25-.38c-.28-.25-.43-.56-.43-.94,0-.25.06-.47.2-.67.13-.2.31-.35.55-.46.24-.1.65-.2,1.23-.28,1.02-.15,1.79-.32,2.3-.53v.52ZM75.7,737h1.47c-.18-.32-.3-.65-.36-1-.06-.35-.09-1.17-.09-2.48v-1.88c0-.62-.02-1.06-.07-1.3-.08-.39-.23-.7-.44-.96-.21-.25-.53-.46-.98-.63-.44-.17-1.02-.25-1.73-.25s-1.34.1-1.88.29c-.54.2-.96.47-1.24.84-.29.36-.49.84-.62,1.43l1.38.19c.15-.59.38-1,.7-1.23.31-.23.8-.35,1.46-.35.71,0,1.24.16,1.6.48.27.23.4.64.4,1.21,0,.05,0,.17,0,.37-.54.19-1.37.35-2.51.48-.56.07-.97.14-1.25.21-.38.1-.71.26-1.01.46-.3.2-.54.47-.73.81-.19.34-.28.71-.28,1.11,0,.69.24,1.26.73,1.71.49.45,1.19.67,2.1.67.55,0,1.07-.09,1.55-.27.48-.18.98-.5,1.5-.94.04.39.14.73.28,1.02ZM62.18,736.33c.53.58,1.3.87,2.31.87.68,0,1.27-.14,1.77-.41.5-.28.87-.68,1.1-1.2.23-.53.35-1.27.35-2.23v-7.8h-1.52v7.89c0,.66-.05,1.13-.16,1.43-.1.3-.29.54-.57.71-.28.17-.6.26-.98.26-.52,0-.92-.16-1.21-.48-.29-.32-.46-.92-.49-1.8l-1.37.19c-.02,1.14.24,2,.77,2.58Z"/>
  <path d="M212.55,725.5h-.91c-.25.5-.66,1-1.25,1.53-.59.53-1.28.97-2.06,1.34v1.36c.44-.16.93-.4,1.48-.73.55-.32.99-.65,1.33-.97v8.96h1.41v-11.5ZM200.13,735.65c.16-.25.35-.51.59-.76.24-.25.78-.73,1.62-1.44,1.01-.85,1.73-1.53,2.17-2.02.43-.49.75-.96.93-1.4s.28-.89.28-1.35c0-.9-.32-1.66-.96-2.27s-1.51-.91-2.61-.91-1.96.28-2.6.85c-.65.57-1.02,1.39-1.12,2.46l1.45.15c0-.72.21-1.28.62-1.69s.95-.61,1.62-.61c.64,0,1.16.19,1.56.57s.6.85.6,1.41-.22,1.09-.66,1.69-1.28,1.41-2.52,2.43c-.8.66-1.42,1.23-1.84,1.73-.42.5-.73,1.01-.93,1.52-.12.31-.17.64-.16.98h7.57v-1.35h-5.62ZM191.63,727.48c.39-.55.9-.82,1.55-.82s1.2.31,1.64.93c.44.62.66,1.87.66,3.76s-.22,3.12-.66,3.75c-.44.62-.98.94-1.63.94s-1.19-.31-1.63-.93c-.44-.62-.66-1.87-.66-3.75s.24-3.17.73-3.87ZM190.59,736.01c.63.79,1.5,1.19,2.6,1.19.84,0,1.53-.23,2.08-.68.55-.45.96-1.09,1.24-1.91.28-.83.41-1.91.41-3.25,0-1.14-.09-2.04-.26-2.71s-.41-1.24-.71-1.7c-.3-.47-.69-.82-1.15-1.07-.46-.25-1-.37-1.62-.37-.83,0-1.52.22-2.07.67-.55.45-.96,1.08-1.24,1.91-.28.83-.42,1.92-.42,3.27,0,2.15.38,3.7,1.13,4.66ZM182.33,735.65c.16-.25.35-.51.59-.76.24-.25.78-.73,1.62-1.44,1.01-.85,1.73-1.53,2.17-2.02.43-.49.75-.96.93-1.4s.28-.89.28-1.35c0-.9-.32-1.66-.96-2.27s-1.51-.91-2.61-.91-1.96.28-2.6.85c-.65.57-1.02,1.39-1.12,2.46l1.45.15c0-.72.21-1.28.62-1.69s.95-.61,1.62-.61c.64,0,1.16.19,1.56.57s.6.85.6,1.41-.22,1.09-.66,1.69-1.28,1.41-2.52,2.43c-.8.66-1.42,1.23-1.84,1.73-.42.5-.73,1.01-.93,1.52-.12.31-.17.64-.16.98h7.57v-1.35h-5.62ZM172.57,737v-4.34c0-.59.08-1.14.23-1.64.1-.33.28-.58.52-.77.24-.18.52-.28.83-.28.34,0,.69.1,1.03.3l.48-1.3c-.49-.3-.97-.45-1.45-.45-.33,0-.63.09-.9.28s-.57.58-.89,1.16v-1.26h-1.27v8.3h1.41ZM164.24,730.46c.46-.56.99-.84,1.59-.84s1.12.26,1.56.79c.43.53.65,1.32.65,2.38,0,1.11-.22,1.93-.67,2.46s-.98.79-1.61.79-1.14-.25-1.57-.77c-.43-.51-.65-1.3-.65-2.37s.23-1.88.69-2.44ZM163.68,740.18v-4.04c.24.3.55.55.92.75.37.2.79.3,1.26.3.64,0,1.25-.18,1.83-.54.58-.36,1.02-.88,1.33-1.56s.46-1.44.46-2.29c0-.79-.14-1.52-.41-2.18-.28-.66-.69-1.18-1.23-1.54-.54-.36-1.17-.55-1.88-.55-.54,0-1,.11-1.38.32-.38.21-.72.53-1.02.95v-1.08h-1.28v11.48h1.41ZM155.09,728.94c.27-.72.47-1.45.62-2.19.18.62.45,1.41.81,2.38l1.2,3.17h-3.88l1.26-3.36ZM152.14,737l1.26-3.47h4.79l1.34,3.47h1.73l-4.69-11.45h-1.63l-4.4,11.45h1.61Z"/>
  <path d="M300.47,725.5h-.91c-.25.5-.66,1-1.25,1.53-.59.53-1.28.97-2.06,1.34v1.36c.44-.16.93-.4,1.48-.73.55-.32.99-.65,1.33-.97v8.96h1.41v-11.5ZM288.05,735.65c.16-.25.35-.51.59-.76.24-.25.78-.73,1.62-1.44,1.01-.85,1.73-1.53,2.17-2.02.43-.49.75-.96.93-1.4s.28-.89.28-1.35c0-.9-.32-1.66-.96-2.27s-1.51-.91-2.61-.91-1.96.28-2.6.85c-.65.57-1.02,1.39-1.12,2.46l1.45.15c0-.72.21-1.28.62-1.69s.95-.61,1.62-.61c.64,0,1.16.19,1.56.57s.6.85.6,1.41-.22,1.09-.66,1.69-1.28,1.41-2.52,2.43c-.8.66-1.42,1.23-1.84,1.73-.42.5-.73,1.01-.93,1.52-.12.31-.17.64-.16.98h7.57v-1.35h-5.62ZM279.55,727.48c.39-.55.9-.82,1.55-.82s1.2.31,1.64.93c.44.62.66,1.87.66,3.76s-.22,3.12-.66,3.75c-.44.62-.98.94-1.63.94s-1.19-.31-1.63-.93c-.44-.62-.66-1.87-.66-3.75s.24-3.17.73-3.87ZM278.51,736.01c.63.79,1.5,1.19,2.6,1.19.84,0,1.53-.23,2.08-.68.55-.45.96-1.09,1.24-1.91.28-.83.41-1.91.41-3.25,0-1.14-.09-2.04-.26-2.71s-.41-1.24-.71-1.7c-.3-.47-.69-.82-1.15-1.07-.46-.25-1-.37-1.62-.37-.83,0-1.52.22-2.07.67-.55.45-.96,1.08-1.24,1.91-.28.83-.42,1.92-.42,3.27,0,2.15.38,3.7,1.13,4.66ZM270.25,735.65c.16-.25.35-.51.59-.76.24-.25.78-.73,1.62-1.44,1.01-.85,1.73-1.53,2.17-2.02.43-.49.75-.96.93-1.4s.28-.89.28-1.35c0-.9-.32-1.66-.96-2.27s-1.51-.91-2.61-.91-1.96.28-2.6.85c-.65.57-1.02,1.39-1.12,2.46l1.45.15c0-.72.21-1.28.62-1.69s.95-.61,1.62-.61c.64,0,1.16.19,1.56.57s.6.85.6,1.41-.22,1.09-.66,1.69-1.28,1.41-2.52,2.43c-.8.66-1.42,1.23-1.84,1.73-.42.5-.73,1.01-.93,1.52-.12.31-.17.64-.16.98h7.57v-1.35h-5.62ZM262.24,737v-11.45h-1.41v11.45h1.41ZM258.66,737v-8.3h-1.41v4.45c0,.71-.08,1.25-.23,1.62-.15.37-.42.67-.79.88-.37.22-.77.32-1.19.32s-.78-.11-1.06-.32c-.29-.21-.47-.5-.56-.87-.06-.25-.09-.75-.09-1.48v-4.6h-1.41v5.14c0,.6.03,1.04.09,1.31.08.41.23.76.43,1.04.21.28.52.52.95.71.42.19.88.28,1.37.28,1.11,0,1.99-.47,2.63-1.41v1.22h1.26ZM244.14,736.33c.53.58,1.3.87,2.31.87.68,0,1.27-.14,1.77-.41.5-.28.87-.68,1.1-1.2.23-.53.35-1.27.35-2.23v-7.8h-1.52v7.89c0,.66-.05,1.13-.16,1.43-.1.3-.29.54-.57.71-.28.17-.6.26-.98.26-.52,0-.92-.16-1.21-.48-.29-.32-.46-.92-.49-1.8l-1.37.19c-.02,1.14.24,2,.77,2.58Z"/>
  <path d="M393.82,725.5h-.91c-.25.5-.66,1-1.25,1.53-.59.53-1.28.97-2.06,1.34v1.36c.44-.16.93-.4,1.48-.73.55-.32.99-.65,1.33-.97v8.96h1.41v-11.5ZM381.4,735.65c.16-.25.35-.51.59-.76.24-.25.78-.73,1.62-1.44,1.01-.85,1.73-1.53,2.17-2.02.43-.49.75-.96.93-1.4s.28-.89.28-1.35c0-.9-.32-1.66-.96-2.27s-1.51-.91-2.61-.91-1.96.28-2.6.85c-.65.57-1.02,1.39-1.12,2.46l1.45.15c0-.72.21-1.28.62-1.69s.95-.61,1.62-.61c.64,0,1.16.19,1.56.57s.6.85.6,1.41-.22,1.09-.66,1.69-1.28,1.41-2.52,2.43c-.8.66-1.42,1.23-1.84,1.73-.42.5-.73,1.01-.93,1.52-.12.31-.17.64-.16.98h7.57v-1.35h-5.62ZM372.9,727.48c.39-.55.9-.82,1.55-.82s1.2.31,1.64.93c.44.62.66,1.87.66,3.76s-.22,3.12-.66,3.75c-.44.62-.98.94-1.63.94s-1.19-.31-1.63-.93c-.44-.62-.66-1.87-.66-3.75s.24-3.17.73-3.87ZM371.86,736.01c.63.79,1.5,1.19,2.6,1.19.84,0,1.53-.23,2.08-.68.55-.45.96-1.09,1.24-1.91.28-.83.41-1.91.41-3.25,0-1.14-.09-2.04-.26-2.71s-.41-1.24-.71-1.7c-.3-.47-.69-.82-1.15-1.07-.46-.25-1-.37-1.62-.37-.83,0-1.52.22-2.07.67-.55.45-.96,1.08-1.24,1.91-.28.83-.42,1.92-.42,3.27,0,2.15.38,3.7,1.13,4.66ZM363.6,735.65c.16-.25.35-.51.59-.76.24-.25.78-.73,1.62-1.44,1.01-.85,1.73-1.53,2.17-2.02.43-.49.75-.96.93-1.4s.28-.89.28-1.35c0-.9-.32-1.66-.96-2.27s-1.51-.91-2.61-.91-1.96.28-2.6.85c-.65.57-1.02,1.39-1.12,2.46l1.45.15c0-.72.21-1.28.62-1.69s.95-.61,1.62-.61c.64,0,1.16.19,1.56.57s.6.85.6,1.41-.22,1.09-.66,1.69-1.28,1.41-2.52,2.43c-.8.66-1.42,1.23-1.84,1.73-.42.5-.73,1.01-.93,1.52-.12.31-.17.64-.16.98h7.57v-1.35h-5.62ZM355.78,735.8c-.21,0-.37-.03-.48-.1-.11-.07-.19-.16-.24-.27-.05-.11-.07-.37-.07-.77v-4.85h1.41v-1.09h-1.41v-2.9l-1.4.84v2.05h-1.03v1.09h1.03v4.77c0,.84.06,1.4.17,1.66.11.26.31.48.59.64s.68.24,1.19.24c.31,0,.67-.04,1.06-.12l-.2-1.24c-.26.04-.46.05-.62.05ZM350.04,735.52c-.37.34-.83.51-1.38.51-.69,0-1.25-.25-1.67-.76-.43-.5-.64-1.32-.64-2.43s.22-1.9.66-2.41c.44-.51,1.02-.76,1.73-.76.47,0,.87.14,1.2.42.33.28.56.7.69,1.26l1.37-.21c-.16-.84-.53-1.49-1.1-1.94-.57-.46-1.31-.68-2.21-.68-.71,0-1.37.17-1.98.5-.61.34-1.06.84-1.36,1.51s-.45,1.46-.45,2.35c0,1.39.34,2.45,1.04,3.19.69.74,1.6,1.11,2.74,1.11.91,0,1.67-.27,2.29-.81.62-.54,1.01-1.29,1.16-2.24l-1.38-.18c-.1.7-.33,1.22-.7,1.56ZM335.32,727.75c.77-.74,1.7-1.11,2.77-1.11.75,0,1.44.19,2.04.57.61.38,1.07.92,1.38,1.62.31.7.47,1.51.47,2.44,0,1.47-.37,2.61-1.11,3.41-.74.8-1.68,1.2-2.82,1.2s-2.05-.4-2.79-1.19-1.11-1.88-1.11-3.26c0-1.72.39-2.95,1.16-3.69ZM333.25,734.28c.44.9,1.08,1.61,1.93,2.13.85.52,1.81.78,2.89.78.99,0,1.92-.24,2.78-.71s1.52-1.17,1.99-2.08.7-1.96.7-3.12-.22-2.17-.67-3.07-1.09-1.61-1.94-2.11c-.85-.5-1.8-.76-2.86-.76-1.61,0-2.93.54-3.95,1.61-1.02,1.08-1.53,2.56-1.53,4.46,0,1,.22,1.96.66,2.86Z"/>
  <path d="M481.88,735.65c.16-.25.35-.51.59-.76.24-.25.78-.73,1.62-1.44,1.01-.85,1.73-1.53,2.17-2.02.43-.49.75-.96.93-1.4s.28-.89.28-1.35c0-.9-.32-1.66-.96-2.27s-1.51-.91-2.61-.91-1.96.28-2.6.85c-.65.57-1.02,1.39-1.12,2.46l1.45.15c0-.72.21-1.28.62-1.69s.95-.61,1.62-.61c.64,0,1.16.19,1.56.57s.6.85.6,1.41-.22,1.09-.66,1.69-1.28,1.41-2.52,2.43c-.8.66-1.42,1.23-1.84,1.73-.42.5-.73,1.01-.93,1.52-.12.31-.17.64-.16.98h7.57v-1.35h-5.62ZM472.98,735.65c.16-.25.35-.51.59-.76.24-.25.78-.73,1.62-1.44,1.01-.85,1.73-1.53,2.17-2.02.43-.49.75-.96.93-1.4s.28-.89.28-1.35c0-.9-.32-1.66-.96-2.27s-1.51-.91-2.61-.91-1.96.28-2.6.85c-.65.57-1.02,1.39-1.12,2.46l1.45.15c0-.72.21-1.28.62-1.69s.95-.61,1.62-.61c.64,0,1.16.19,1.56.57s.6.85.6,1.41-.22,1.09-.66,1.69-1.28,1.41-2.52,2.43c-.8.66-1.42,1.23-1.84,1.73-.42.5-.73,1.01-.93,1.52-.12.31-.17.64-.16.98h7.57v-1.35h-5.62ZM464.48,727.48c.39-.55.9-.82,1.55-.82s1.2.31,1.64.93c.44.62.66,1.87.66,3.76s-.22,3.12-.66,3.75c-.44.62-.98.94-1.63.94s-1.19-.31-1.63-.93c-.44-.62-.66-1.87-.66-3.75s.24-3.17.73-3.87ZM463.44,736.01c.63.79,1.5,1.19,2.6,1.19.84,0,1.53-.23,2.08-.68.55-.45.96-1.09,1.24-1.91.28-.83.41-1.91.41-3.25,0-1.14-.09-2.04-.26-2.71s-.41-1.24-.71-1.7c-.3-.47-.69-.82-1.15-1.07-.46-.25-1-.37-1.62-.37-.83,0-1.52.22-2.07.67-.55.45-.96,1.08-1.24,1.91-.28.83-.42,1.92-.42,3.27,0,2.15.38,3.7,1.13,4.66ZM455.18,735.65c.16-.25.35-.51.59-.76.24-.25.78-.73,1.62-1.44,1.01-.85,1.73-1.53,2.17-2.02.43-.49.75-.96.93-1.4s.28-.89.28-1.35c0-.9-.32-1.66-.96-2.27s-1.51-.91-2.61-.91-1.96.28-2.6.85c-.65.57-1.02,1.39-1.12,2.46l1.45.15c0-.72.21-1.28.62-1.69s.95-.61,1.62-.61c.64,0,1.16.19,1.56.57s.6.85.6,1.41-.22,1.09-.66,1.69-1.28,1.41-2.52,2.43c-.8.66-1.42,1.23-1.84,1.73-.42.5-.73,1.01-.93,1.52-.12.31-.17.64-.16.98h7.57v-1.35h-5.62ZM441.86,737v-4.53c0-1.06.22-1.78.65-2.16.43-.38.95-.57,1.55-.57.38,0,.7.08.98.25.28.17.47.4.58.68s.16.71.16,1.29v5.05h1.41v-5.1c0-.65-.03-1.11-.08-1.37-.08-.4-.23-.75-.44-1.04-.21-.29-.52-.53-.94-.71-.42-.18-.88-.27-1.38-.27-1.15,0-2.03.46-2.64,1.37v-1.18h-1.27v8.3h1.41ZM436.85,733.35c0,.62-.08,1.09-.23,1.41-.2.41-.51.74-.93.97s-.9.36-1.45.36-.96-.12-1.25-.38c-.28-.25-.43-.56-.43-.94,0-.25.06-.47.2-.67.13-.2.31-.35.55-.46.24-.1.65-.2,1.23-.28,1.02-.15,1.79-.32,2.3-.53v.52ZM437.25,737h1.47c-.18-.32-.3-.65-.36-1-.06-.35-.09-1.17-.09-2.48v-1.88c0-.62-.02-1.06-.07-1.3-.08-.39-.23-.7-.44-.96-.21-.25-.53-.46-.98-.63-.44-.17-1.02-.25-1.73-.25s-1.34.1-1.88.29c-.54.2-.96.47-1.24.84-.29.36-.49.84-.62,1.43l1.38.19c.15-.59.38-1,.7-1.23.31-.23.8-.35,1.46-.35.71,0,1.24.16,1.6.48.27.23.4.64.4,1.21,0,.05,0,.17,0,.37-.54.19-1.37.35-2.51.48-.56.07-.97.14-1.25.21-.38.1-.71.26-1.01.46-.3.2-.54.47-.73.81-.19.34-.28.71-.28,1.11,0,.69.24,1.26.73,1.71.49.45,1.19.67,2.1.67.55,0,1.07-.09,1.55-.27.48-.18.98-.5,1.5-.94.04.39.14.73.28,1.02ZM423.73,736.33c.53.58,1.3.87,2.31.87.68,0,1.27-.14,1.77-.41.5-.28.87-.68,1.1-1.2.23-.53.35-1.27.35-2.23v-7.8h-1.52v7.89c0,.66-.05,1.13-.16,1.43-.1.3-.29.54-.57.71-.28.17-.6.26-.98.26-.52,0-.92-.16-1.21-.48-.29-.32-.46-.92-.49-1.8l-1.37.19c-.02,1.14.24,2,.77,2.58Z"/>
  <path d="M570.59,735.65c.16-.25.35-.51.59-.76.24-.25.78-.73,1.62-1.44,1.01-.85,1.73-1.53,2.17-2.02.43-.49.75-.96.93-1.4s.28-.89.28-1.35c0-.9-.32-1.66-.96-2.27s-1.51-.91-2.61-.91-1.96.28-2.6.85c-.65.57-1.02,1.39-1.12,2.46l1.45.15c0-.72.21-1.28.62-1.69s.95-.61,1.62-.61c.64,0,1.16.19,1.56.57s.6.85.6,1.41-.22,1.09-.66,1.69-1.28,1.41-2.52,2.43c-.8.66-1.42,1.23-1.84,1.73-.42.5-.73,1.01-.93,1.52-.12.31-.17.64-.16.98h7.57v-1.35h-5.62ZM561.69,735.65c.16-.25.35-.51.59-.76.24-.25.78-.73,1.62-1.44,1.01-.85,1.73-1.53,2.17-2.02.43-.49.75-.96.93-1.4s.28-.89.28-1.35c0-.9-.32-1.66-.96-2.27s-1.51-.91-2.61-.91-1.96.28-2.6.85c-.65.57-1.02,1.39-1.12,2.46l1.45.15c0-.72.21-1.28.62-1.69s.95-.61,1.62-.61c.64,0,1.16.19,1.56.57s.6.85.6,1.41-.22,1.09-.66,1.69-1.28,1.41-2.52,2.43c-.8.66-1.42,1.23-1.84,1.73-.42.5-.73,1.01-.93,1.52-.12.31-.17.64-.16.98h7.57v-1.35h-5.62ZM553.19,727.48c.39-.55.9-.82,1.55-.82s1.2.31,1.64.93c.44.62.66,1.87.66,3.76s-.22,3.12-.66,3.75c-.44.62-.98.94-1.63.94s-1.19-.31-1.63-.93c-.44-.62-.66-1.87-.66-3.75s.24-3.17.73-3.87ZM552.15,736.01c.63.79,1.5,1.19,2.6,1.19.84,0,1.53-.23,2.08-.68.55-.45.96-1.09,1.24-1.91.28-.83.41-1.91.41-3.25,0-1.14-.09-2.04-.26-2.71s-.41-1.24-.71-1.7c-.3-.47-.69-.82-1.15-1.07-.46-.25-1-.37-1.62-.37-.83,0-1.52.22-2.07.67-.55.45-.96,1.08-1.24,1.91-.28.83-.42,1.92-.42,3.27,0,2.15.38,3.7,1.13,4.66ZM543.89,735.65c.16-.25.35-.51.59-.76.24-.25.78-.73,1.62-1.44,1.01-.85,1.73-1.53,2.17-2.02.43-.49.75-.96.93-1.4s.28-.89.28-1.35c0-.9-.32-1.66-.96-2.27s-1.51-.91-2.61-.91-1.96.28-2.6.85c-.65.57-1.02,1.39-1.12,2.46l1.45.15c0-.72.21-1.28.62-1.69s.95-.61,1.62-.61c.64,0,1.16.19,1.56.57s.6.85.6,1.41-.22,1.09-.66,1.69-1.28,1.41-2.52,2.43c-.8.66-1.42,1.23-1.84,1.73-.42.5-.73,1.01-.93,1.52-.12.31-.17.64-.16.98h7.57v-1.35h-5.62ZM534.13,737v-4.34c0-.59.08-1.14.23-1.64.1-.33.28-.58.52-.77.24-.18.52-.28.83-.28.34,0,.69.1,1.03.3l.48-1.3c-.49-.3-.97-.45-1.45-.45-.33,0-.63.09-.9.28s-.57.58-.89,1.16v-1.26h-1.27v8.3h1.41ZM525.8,730.46c.46-.56.99-.84,1.59-.84s1.12.26,1.56.79c.43.53.65,1.32.65,2.38,0,1.11-.22,1.93-.67,2.46s-.98.79-1.61.79-1.14-.25-1.57-.77c-.43-.51-.65-1.3-.65-2.37s.23-1.88.69-2.44ZM525.24,740.18v-4.04c.24.3.55.55.92.75.37.2.79.3,1.26.3.64,0,1.25-.18,1.83-.54.58-.36,1.02-.88,1.33-1.56s.46-1.44.46-2.29c0-.79-.14-1.52-.41-2.18-.28-.66-.69-1.18-1.23-1.54-.54-.36-1.17-.55-1.88-.55-.54,0-1,.11-1.38.32-.38.21-.72.53-1.02.95v-1.08h-1.28v11.48h1.41ZM516.65,728.94c.27-.72.47-1.45.62-2.19.18.62.45,1.41.81,2.38l1.2,3.17h-3.88l1.26-3.36ZM513.7,737l1.26-3.47h4.79l1.34,3.47h1.73l-4.69-11.45h-1.63l-4.4,11.45h1.61Z"/>
  <path d="M658.5,735.65c.16-.25.35-.51.59-.76.24-.25.78-.73,1.62-1.44,1.01-.85,1.73-1.53,2.17-2.02.43-.49.75-.96.93-1.4s.28-.89.28-1.35c0-.9-.32-1.66-.96-2.27s-1.51-.91-2.61-.91-1.96.28-2.6.85c-.65.57-1.02,1.39-1.12,2.46l1.45.15c0-.72.21-1.28.62-1.69s.95-.61,1.62-.61c.64,0,1.16.19,1.56.57s.6.85.6,1.41-.22,1.09-.66,1.69-1.28,1.41-2.52,2.43c-.8.66-1.42,1.23-1.84,1.73-.42.5-.73,1.01-.93,1.52-.12.31-.17.64-.16.98h7.57v-1.35h-5.62ZM649.61,735.65c.16-.25.35-.51.59-.76.24-.25.78-.73,1.62-1.44,1.01-.85,1.73-1.53,2.17-2.02.43-.49.75-.96.93-1.4s.28-.89.28-1.35c0-.9-.32-1.66-.96-2.27s-1.51-.91-2.61-.91-1.96.28-2.6.85c-.65.57-1.02,1.39-1.12,2.46l1.45.15c0-.72.21-1.28.62-1.69s.95-.61,1.62-.61c.64,0,1.16.19,1.56.57s.6.85.6,1.41-.22,1.09-.66,1.69-1.28,1.41-2.52,2.43c-.8.66-1.42,1.23-1.84,1.73-.42.5-.73,1.01-.93,1.52-.12.31-.17.64-.16.98h7.57v-1.35h-5.62ZM641.11,727.48c.39-.55.9-.82,1.55-.82s1.2.31,1.64.93c.44.62.66,1.87.66,3.76s-.22,3.12-.66,3.75c-.44.62-.98.94-1.63.94s-1.19-.31-1.63-.93c-.44-.62-.66-1.87-.66-3.75s.24-3.17.73-3.87ZM640.07,736.01c.63.79,1.5,1.19,2.6,1.19.84,0,1.53-.23,2.08-.68.55-.45.96-1.09,1.24-1.91.28-.83.41-1.91.41-3.25,0-1.14-.09-2.04-.26-2.71s-.41-1.24-.71-1.7c-.3-.47-.69-.82-1.15-1.07-.46-.25-1-.37-1.62-.37-.83,0-1.52.22-2.07.67-.55.45-.96,1.08-1.24,1.91-.28.83-.42,1.92-.42,3.27,0,2.15.38,3.7,1.13,4.66ZM631.81,735.65c.16-.25.35-.51.59-.76.24-.25.78-.73,1.62-1.44,1.01-.85,1.73-1.53,2.17-2.02.43-.49.75-.96.93-1.4s.28-.89.28-1.35c0-.9-.32-1.66-.96-2.27s-1.51-.91-2.61-.91-1.96.28-2.6.85c-.65.57-1.02,1.39-1.12,2.46l1.45.15c0-.72.21-1.28.62-1.69s.95-.61,1.62-.61c.64,0,1.16.19,1.56.57s.6.85.6,1.41-.22,1.09-.66,1.69-1.28,1.41-2.52,2.43c-.8.66-1.42,1.23-1.84,1.73-.42.5-.73,1.01-.93,1.52-.12.31-.17.64-.16.98h7.57v-1.35h-5.62ZM623.8,737v-11.45h-1.41v11.45h1.41ZM620.22,737v-8.3h-1.41v4.45c0,.71-.08,1.25-.23,1.62-.15.37-.42.67-.79.88-.37.22-.77.32-1.19.32s-.78-.11-1.06-.32c-.29-.21-.47-.5-.56-.87-.06-.25-.09-.75-.09-1.48v-4.6h-1.41v5.14c0,.6.03,1.04.09,1.31.08.41.23.76.43,1.04.21.28.52.52.95.71.42.19.88.28,1.37.28,1.11,0,1.99-.47,2.63-1.41v1.22h1.26ZM605.7,736.33c.53.58,1.3.87,2.31.87.68,0,1.27-.14,1.77-.41.5-.28.87-.68,1.1-1.2.23-.53.35-1.27.35-2.23v-7.8h-1.52v7.89c0,.66-.05,1.13-.16,1.43-.1.3-.29.54-.57.71-.28.17-.6.26-.98.26-.52,0-.92-.16-1.21-.48-.29-.32-.46-.92-.49-1.8l-1.37.19c-.02,1.14.24,2,.77,2.58Z"/>
  <path d="M751.85,735.65c.16-.25.35-.51.59-.76.24-.25.78-.73,1.62-1.44,1.01-.85,1.73-1.53,2.17-2.02.43-.49.75-.96.93-1.4s.28-.89.28-1.35c0-.9-.32-1.66-.96-2.27s-1.51-.91-2.61-.91-1.96.28-2.6.85c-.65.57-1.02,1.39-1.12,2.46l1.45.15c0-.72.21-1.28.62-1.69s.95-.61,1.62-.61c.64,0,1.16.19,1.56.57s.6.85.6,1.41-.22,1.09-.66,1.69-1.28,1.41-2.52,2.43c-.8.66-1.42,1.23-1.84,1.73-.42.5-.73,1.01-.93,1.52-.12.31-.17.64-.16.98h7.57v-1.35h-5.62ZM742.96,735.65c.16-.25.35-.51.59-.76.24-.25.78-.73,1.62-1.44,1.01-.85,1.73-1.53,2.17-2.02.43-.49.75-.96.93-1.4s.28-.89.28-1.35c0-.9-.32-1.66-.96-2.27s-1.51-.91-2.61-.91-1.96.28-2.6.85c-.65.57-1.02,1.39-1.12,2.46l1.45.15c0-.72.21-1.28.62-1.69s.95-.61,1.62-.61c.64,0,1.16.19,1.56.57s.6.85.6,1.41-.22,1.09-.66,1.69-1.28,1.41-2.52,2.43c-.8.66-1.42,1.23-1.84,1.73-.42.5-.73,1.01-.93,1.52-.12.31-.17.64-.16.98h7.57v-1.35h-5.62ZM734.46,727.48c.39-.55.9-.82,1.55-.82s1.2.31,1.64.93c.44.62.66,1.87.66,3.76s-.22,3.12-.66,3.75c-.44.62-.98.94-1.63.94s-1.19-.31-1.63-.93c-.44-.62-.66-1.87-.66-3.75s.24-3.17.73-3.87ZM733.42,736.01c.63.79,1.5,1.19,2.6,1.19.84,0,1.53-.23,2.08-.68.55-.45.96-1.09,1.24-1.91.28-.83.41-1.91.41-3.25,0-1.14-.09-2.04-.26-2.71s-.41-1.24-.71-1.7c-.3-.47-.69-.82-1.15-1.07-.46-.25-1-.37-1.62-.37-.83,0-1.52.22-2.07.67-.55.45-.96,1.08-1.24,1.91-.28.83-.42,1.92-.42,3.27,0,2.15.38,3.7,1.13,4.66ZM725.16,735.65c.16-.25.35-.51.59-.76.24-.25.78-.73,1.62-1.44,1.01-.85,1.73-1.53,2.17-2.02.43-.49.75-.96.93-1.4s.28-.89.28-1.35c0-.9-.32-1.66-.96-2.27s-1.51-.91-2.61-.91-1.96.28-2.6.85c-.65.57-1.02,1.39-1.12,2.46l1.45.15c0-.72.21-1.28.62-1.69s.95-.61,1.62-.61c.64,0,1.16.19,1.56.57s.6.85.6,1.41-.22,1.09-.66,1.69-1.28,1.41-2.52,2.43c-.8.66-1.42,1.23-1.84,1.73-.42.5-.73,1.01-.93,1.52-.12.31-.17.64-.16.98h7.57v-1.35h-5.62ZM717.34,735.8c-.21,0-.37-.03-.48-.1-.11-.07-.19-.16-.24-.27-.05-.11-.07-.37-.07-.77v-4.85h1.41v-1.09h-1.41v-2.9l-1.4.84v2.05h-1.03v1.09h1.03v4.77c0,.84.06,1.4.17,1.66.11.26.31.48.59.64s.68.24,1.19.24c.31,0,.67-.04,1.06-.12l-.2-1.24c-.26.04-.46.05-.62.05ZM711.6,735.52c-.37.34-.83.51-1.38.51-.69,0-1.25-.25-1.67-.76-.43-.5-.64-1.32-.64-2.43s.22-1.9.66-2.41c.44-.51,1.02-.76,1.73-.76.47,0,.87.14,1.2.42.33.28.56.7.69,1.26l1.37-.21c-.16-.84-.53-1.49-1.1-1.94-.57-.46-1.31-.68-2.21-.68-.71,0-1.37.17-1.98.5-.61.34-1.06.84-1.36,1.51s-.45,1.46-.45,2.35c0,1.39.34,2.45,1.04,3.19.69.74,1.6,1.11,2.74,1.11.91,0,1.67-.27,2.29-.81.62-.54,1.01-1.29,1.16-2.24l-1.38-.18c-.1.7-.33,1.22-.7,1.56ZM696.88,727.75c.77-.74,1.7-1.11,2.77-1.11.75,0,1.44.19,2.04.57.61.38,1.07.92,1.38,1.62.31.7.47,1.51.47,2.44,0,1.47-.37,2.61-1.11,3.41-.74.8-1.68,1.2-2.82,1.2s-2.05-.4-2.79-1.19-1.11-1.88-1.11-3.26c0-1.72.39-2.95,1.16-3.69ZM694.81,734.28c.44.9,1.08,1.61,1.93,2.13.85.52,1.81.78,2.89.78.99,0,1.92-.24,2.78-.71s1.52-1.17,1.99-2.08.7-1.96.7-3.12-.22-2.17-.67-3.07-1.09-1.61-1.94-2.11c-.85-.5-1.8-.76-2.86-.76-1.61,0-2.93.54-3.95,1.61-1.02,1.08-1.53,2.56-1.53,4.46,0,1,.22,1.96.66,2.86Z"/>
  <path d="M842.81,736.3c.66.6,1.5.9,2.5.9,1.11,0,2.04-.35,2.77-1.04.73-.7,1.09-1.54,1.09-2.54,0-.74-.19-1.36-.56-1.85s-.9-.82-1.58-.97c.52-.24.91-.56,1.18-.97s.4-.86.4-1.35c0-.52-.14-1.01-.42-1.48-.28-.46-.68-.83-1.21-1.1-.53-.27-1.1-.4-1.73-.4-.91,0-1.66.26-2.27.78s-1,1.25-1.17,2.19l1.41.25c.1-.69.34-1.2.7-1.55.36-.34.82-.52,1.37-.52s1,.17,1.35.51c.35.34.52.77.52,1.28,0,.65-.24,1.13-.72,1.45-.48.31-1.02.47-1.62.47-.06,0-.13,0-.23-.02l-.16,1.23c.4-.1.73-.16.99-.16.65,0,1.19.21,1.61.63s.63.95.63,1.6-.23,1.25-.68,1.7c-.46.46-1.01.69-1.68.69-.56,0-1.03-.18-1.42-.53-.39-.35-.66-.93-.82-1.72l-1.41.19c.09.95.47,1.73,1.14,2.33ZM834.54,735.65c.16-.25.35-.51.59-.76.24-.25.78-.73,1.62-1.44,1.01-.85,1.73-1.53,2.17-2.02.43-.49.75-.96.93-1.4s.28-.89.28-1.35c0-.9-.32-1.66-.96-2.27s-1.51-.91-2.61-.91-1.96.28-2.6.85c-.65.57-1.02,1.39-1.12,2.46l1.45.15c0-.72.21-1.28.62-1.69s.95-.61,1.62-.61c.64,0,1.16.19,1.56.57s.6.85.6,1.41-.22,1.09-.66,1.69-1.28,1.41-2.52,2.43c-.8.66-1.42,1.23-1.84,1.73-.42.5-.73,1.01-.93,1.52-.12.31-.17.64-.16.98h7.57v-1.35h-5.62ZM826.04,727.48c.39-.55.9-.82,1.55-.82s1.2.31,1.64.93c.44.62.66,1.87.66,3.76s-.22,3.12-.66,3.75c-.44.62-.98.94-1.63.94s-1.19-.31-1.63-.93c-.44-.62-.66-1.87-.66-3.75s.24-3.17.73-3.87ZM825,736.01c.63.79,1.5,1.19,2.6,1.19.84,0,1.53-.23,2.08-.68.55-.45.96-1.09,1.24-1.91.28-.83.41-1.91.41-3.25,0-1.14-.09-2.04-.26-2.71s-.41-1.24-.71-1.7c-.3-.47-.69-.82-1.15-1.07-.46-.25-1-.37-1.62-.37-.83,0-1.52.22-2.07.67-.55.45-.96,1.08-1.24,1.91-.28.83-.42,1.92-.42,3.27,0,2.15.38,3.7,1.13,4.66ZM816.74,735.65c.16-.25.35-.51.59-.76.24-.25.78-.73,1.62-1.44,1.01-.85,1.73-1.53,2.17-2.02.43-.49.75-.96.93-1.4s.28-.89.28-1.35c0-.9-.32-1.66-.96-2.27s-1.51-.91-2.61-.91-1.96.28-2.6.85c-.65.57-1.02,1.39-1.12,2.46l1.45.15c0-.72.21-1.28.62-1.69s.95-.61,1.62-.61c.64,0,1.16.19,1.56.57s.6.85.6,1.41-.22,1.09-.66,1.69-1.28,1.41-2.52,2.43c-.8.66-1.42,1.23-1.84,1.73-.42.5-.73,1.01-.93,1.52-.12.31-.17.64-.16.98h7.57v-1.35h-5.62ZM803.42,737v-4.53c0-1.06.22-1.78.65-2.16.43-.38.95-.57,1.55-.57.38,0,.7.08.98.25.28.17.47.4.58.68s.16.71.16,1.29v5.05h1.41v-5.1c0-.65-.03-1.11-.08-1.37-.08-.4-.23-.75-.44-1.04-.21-.29-.52-.53-.94-.71-.42-.18-.88-.27-1.38-.27-1.15,0-2.03.46-2.64,1.37v-1.18h-1.27v8.3h1.41ZM798.41,733.35c0,.62-.08,1.09-.23,1.41-.2.41-.51.74-.93.97s-.9.36-1.45.36-.96-.12-1.25-.38c-.28-.25-.43-.56-.43-.94,0-.25.06-.47.2-.67.13-.2.31-.35.55-.46.24-.1.65-.2,1.23-.28,1.02-.15,1.79-.32,2.3-.53v.52ZM798.81,737h1.47c-.18-.32-.3-.65-.36-1-.06-.35-.09-1.17-.09-2.48v-1.88c0-.62-.02-1.06-.07-1.3-.08-.39-.23-.7-.44-.96-.21-.25-.53-.46-.98-.63-.44-.17-1.02-.25-1.73-.25s-1.34.1-1.88.29c-.54.2-.96.47-1.24.84-.29.36-.49.84-.62,1.43l1.38.19c.15-.59.38-1,.7-1.23.31-.23.8-.35,1.46-.35.71,0,1.24.16,1.6.48.27.23.4.64.4,1.21,0,.05,0,.17,0,.37-.54.19-1.37.35-2.51.48-.56.07-.97.14-1.25.21-.38.1-.71.26-1.01.46-.3.2-.54.47-.73.81-.19.34-.28.71-.28,1.11,0,.69.24,1.26.73,1.71.49.45,1.19.67,2.1.67.55,0,1.07-.09,1.55-.27.48-.18.98-.5,1.5-.94.04.39.14.73.28,1.02ZM785.29,736.33c.53.58,1.3.87,2.31.87.68,0,1.27-.14,1.77-.41.5-.28.87-.68,1.1-1.2.23-.53.35-1.27.35-2.23v-7.8h-1.52v7.89c0,.66-.05,1.13-.16,1.43-.1.3-.29.54-.57.71-.28.17-.6.26-.98.26-.52,0-.92-.16-1.21-.48-.29-.32-.46-.92-.49-1.8l-1.37.19c-.02,1.14.24,2,.77,2.58Z"/>
  <path d="M931.51,736.3c.66.6,1.5.9,2.5.9,1.11,0,2.04-.35,2.77-1.04.73-.7,1.09-1.54,1.09-2.54,0-.74-.19-1.36-.56-1.85s-.9-.82-1.58-.97c.52-.24.91-.56,1.18-.97s.4-.86.4-1.35c0-.52-.14-1.01-.42-1.48-.28-.46-.68-.83-1.21-1.1-.53-.27-1.1-.4-1.73-.4-.91,0-1.66.26-2.27.78s-1,1.25-1.17,2.19l1.41.25c.1-.69.34-1.2.7-1.55.36-.34.82-.52,1.37-.52s1,.17,1.35.51c.35.34.52.77.52,1.28,0,.65-.24,1.13-.72,1.45-.48.31-1.02.47-1.62.47-.06,0-.13,0-.23-.02l-.16,1.23c.4-.1.73-.16.99-.16.65,0,1.19.21,1.61.63s.63.95.63,1.6-.23,1.25-.68,1.7c-.46.46-1.01.69-1.68.69-.56,0-1.03-.18-1.42-.53-.39-.35-.66-.93-.82-1.72l-1.41.19c.09.95.47,1.73,1.14,2.33ZM923.24,735.65c.16-.25.35-.51.59-.76.24-.25.78-.73,1.62-1.44,1.01-.85,1.73-1.53,2.17-2.02.43-.49.75-.96.93-1.4s.28-.89.28-1.35c0-.9-.32-1.66-.96-2.27s-1.51-.91-2.61-.91-1.96.28-2.6.85c-.65.57-1.02,1.39-1.12,2.46l1.45.15c0-.72.21-1.28.62-1.69s.95-.61,1.62-.61c.64,0,1.16.19,1.56.57s.6.85.6,1.41-.22,1.09-.66,1.69-1.28,1.41-2.52,2.43c-.8.66-1.42,1.23-1.84,1.73-.42.5-.73,1.01-.93,1.52-.12.31-.17.64-.16.98h7.57v-1.35h-5.62ZM914.74,727.48c.39-.55.9-.82,1.55-.82s1.2.31,1.64.93c.44.62.66,1.87.66,3.76s-.22,3.12-.66,3.75c-.44.62-.98.94-1.63.94s-1.19-.31-1.63-.93c-.44-.62-.66-1.87-.66-3.75s.24-3.17.73-3.87ZM913.7,736.01c.63.79,1.5,1.19,2.6,1.19.84,0,1.53-.23,2.08-.68.55-.45.96-1.09,1.24-1.91.28-.83.41-1.91.41-3.25,0-1.14-.09-2.04-.26-2.71s-.41-1.24-.71-1.7c-.3-.47-.69-.82-1.15-1.07-.46-.25-1-.37-1.62-.37-.83,0-1.52.22-2.07.67-.55.45-.96,1.08-1.24,1.91-.28.83-.42,1.92-.42,3.27,0,2.15.38,3.7,1.13,4.66ZM905.44,735.65c.16-.25.35-.51.59-.76.24-.25.78-.73,1.62-1.44,1.01-.85,1.73-1.53,2.17-2.02.43-.49.75-.96.93-1.4s.28-.89.28-1.35c0-.9-.32-1.66-.96-2.27s-1.51-.91-2.61-.91-1.96.28-2.6.85c-.65.57-1.02,1.39-1.12,2.46l1.45.15c0-.72.21-1.28.62-1.69s.95-.61,1.62-.61c.64,0,1.16.19,1.56.57s.6.85.6,1.41-.22,1.09-.66,1.69-1.28,1.41-2.52,2.43c-.8.66-1.42,1.23-1.84,1.73-.42.5-.73,1.01-.93,1.52-.12.31-.17.64-.16.98h7.57v-1.35h-5.62ZM895.68,737v-4.34c0-.59.08-1.14.23-1.64.1-.33.28-.58.52-.77.24-.18.52-.28.83-.28.34,0,.69.1,1.03.3l.48-1.3c-.49-.3-.97-.45-1.45-.45-.33,0-.63.09-.9.28s-.57.58-.89,1.16v-1.26h-1.27v8.3h1.41ZM887.35,730.46c.46-.56.99-.84,1.59-.84s1.12.26,1.56.79c.43.53.65,1.32.65,2.38,0,1.11-.22,1.93-.67,2.46s-.98.79-1.61.79-1.14-.25-1.57-.77c-.43-.51-.65-1.3-.65-2.37s.23-1.88.69-2.44ZM886.79,740.18v-4.04c.24.3.55.55.92.75.37.2.79.3,1.26.3.64,0,1.25-.18,1.83-.54.58-.36,1.02-.88,1.33-1.56s.46-1.44.46-2.29c0-.79-.14-1.52-.41-2.18-.28-.66-.69-1.18-1.23-1.54-.54-.36-1.17-.55-1.88-.55-.54,0-1,.11-1.38.32-.38.21-.72.53-1.02.95v-1.08h-1.28v11.48h1.41ZM878.2,728.94c.27-.72.47-1.45.62-2.19.18.62.45,1.41.81,2.38l1.2,3.17h-3.88l1.26-3.36ZM875.25,737l1.26-3.47h4.79l1.34,3.47h1.73l-4.69-11.45h-1.63l-4.4,11.45h1.61Z"/>
  <path d="M72.94,716.08c.39-.55.9-.82,1.55-.82s1.2.31,1.64.93c.44.62.66,1.87.66,3.76s-.22,3.12-.66,3.75c-.44.62-.98.94-1.63.94s-1.19-.31-1.63-.93c-.44-.62-.66-1.87-.66-3.75s.24-3.17.73-3.87ZM71.9,724.61c.63.79,1.5,1.19,2.6,1.19.84,0,1.53-.23,2.08-.68.55-.45.96-1.09,1.24-1.91.28-.83.41-1.91.41-3.25,0-1.14-.09-2.04-.26-2.71s-.41-1.24-.71-1.7c-.3-.47-.69-.82-1.15-1.07-.46-.25-1-.37-1.62-.37-.83,0-1.52.22-2.07.67-.55.45-.96,1.08-1.24,1.91-.28.83-.42,1.92-.42,3.27,0,2.15.38,3.7,1.13,4.66Z"/>
  <path d="M73.47,610.87v-3.29l.99-.95,2.74,4.24h1.73l-3.49-5.22,3.17-3.08h-1.82l-3.33,3.38v-6.53h-1.41v11.45h1.41ZM64.94,601.35c.39-.55.9-.82,1.55-.82s1.2.31,1.64.93c.44.62.66,1.87.66,3.76s-.22,3.12-.66,3.75c-.44.62-.98.94-1.63.94s-1.19-.31-1.63-.93c-.44-.62-.66-1.87-.66-3.75s.24-3.17.73-3.87ZM63.9,609.88c.63.79,1.5,1.19,2.6,1.19.84,0,1.53-.23,2.08-.68.55-.45.96-1.09,1.24-1.91.28-.83.41-1.91.41-3.25,0-1.14-.09-2.04-.26-2.71s-.41-1.24-.71-1.7c-.3-.47-.69-.82-1.15-1.07-.46-.25-1-.37-1.62-.37-.83,0-1.52.22-2.07.67-.55.45-.96,1.08-1.24,1.91-.28.83-.42,1.92-.42,3.27,0,2.15.38,3.7,1.13,4.66ZM55.64,609.52c.16-.25.35-.51.59-.76.24-.25.78-.73,1.62-1.44,1.01-.85,1.73-1.53,2.17-2.02.43-.49.75-.96.93-1.4s.28-.89.28-1.35c0-.9-.32-1.66-.96-2.27s-1.51-.91-2.61-.91-1.96.28-2.6.85c-.65.57-1.02,1.39-1.12,2.46l1.45.15c0-.72.21-1.28.62-1.69s.95-.61,1.62-.61c.64,0,1.16.19,1.56.57s.6.85.6,1.41-.22,1.09-.66,1.69-1.28,1.41-2.52,2.43c-.8.66-1.42,1.23-1.84,1.73-.42.5-.73,1.01-.93,1.52-.12.31-.17.64-.16.98h7.57v-1.35h-5.62Z"/>
  <path d="M73.47,496.15v-3.29l.99-.95,2.74,4.24h1.73l-3.49-5.22,3.17-3.08h-1.82l-3.33,3.38v-6.53h-1.41v11.45h1.41ZM64.94,486.63c.39-.55.9-.82,1.55-.82s1.2.31,1.64.93c.44.62.66,1.87.66,3.76s-.22,3.12-.66,3.75c-.44.62-.98.94-1.63.94s-1.19-.31-1.63-.93c-.44-.62-.66-1.87-.66-3.75s.24-3.17.73-3.87ZM63.9,495.16c.63.79,1.5,1.19,2.6,1.19.84,0,1.53-.23,2.08-.68.55-.45.96-1.09,1.24-1.91.28-.83.41-1.91.41-3.25,0-1.14-.09-2.04-.26-2.71s-.41-1.24-.71-1.7c-.3-.47-.69-.82-1.15-1.07-.46-.25-1-.37-1.62-.37-.83,0-1.52.22-2.07.67-.55.45-.96,1.08-1.24,1.91-.28.83-.42,1.92-.42,3.27,0,2.15.38,3.7,1.13,4.66ZM54.79,492.12l3.59-5.16v5.16h-3.59ZM59.78,496.15v-2.74h1.55v-1.29h-1.55v-7.42h-1.15l-5.23,7.42v1.29h4.97v2.74h1.41Z"/>
  <path d="M73.47,381.42v-3.29l.99-.95,2.74,4.24h1.73l-3.49-5.22,3.17-3.08h-1.82l-3.33,3.38v-6.53h-1.41v11.45h1.41ZM64.94,371.9c.39-.55.9-.82,1.55-.82s1.2.31,1.64.93c.44.62.66,1.87.66,3.76s-.22,3.12-.66,3.75c-.44.62-.98.94-1.63.94s-1.19-.31-1.63-.93c-.44-.62-.66-1.87-.66-3.75s.24-3.17.73-3.87ZM63.9,380.43c.63.79,1.5,1.19,2.6,1.19.84,0,1.53-.23,2.08-.68.55-.45.96-1.09,1.24-1.91.28-.83.41-1.91.41-3.25,0-1.14-.09-2.04-.26-2.71s-.41-1.24-.71-1.7c-.3-.47-.69-.82-1.15-1.07-.46-.25-1-.37-1.62-.37-.83,0-1.52.22-2.07.67-.55.45-.96,1.08-1.24,1.91-.28.83-.42,1.92-.42,3.27,0,2.15.38,3.7,1.13,4.66ZM56.09,375.92c.44-.46.98-.68,1.62-.68s1.17.23,1.59.68.63,1.08.63,1.87-.21,1.47-.64,1.95c-.43.48-.94.72-1.53.72-.41,0-.79-.12-1.16-.35-.37-.23-.66-.57-.86-1.01-.21-.44-.31-.91-.31-1.39,0-.74.22-1.34.66-1.79ZM60.13,370.68c-.58-.5-1.31-.76-2.21-.76-1.21,0-2.17.44-2.88,1.31-.82,1-1.23,2.61-1.23,4.83,0,1.98.37,3.4,1.11,4.26.74.86,1.7,1.29,2.87,1.29.69,0,1.3-.16,1.84-.49.54-.33.97-.8,1.28-1.42.31-.62.46-1.29.46-2,0-1.09-.33-1.99-.99-2.68-.66-.69-1.46-1.04-2.39-1.04-.54,0-1.05.12-1.54.38-.49.25-.9.63-1.24,1.15.01-1.15.14-2.03.4-2.65.25-.62.6-1.09,1.05-1.41.34-.25.73-.38,1.18-.38.56,0,1.03.2,1.41.6.23.25.41.65.53,1.2l1.4-.11c-.11-.89-.46-1.59-1.04-2.09Z"/>
  <path d="M73.47,266.7v-3.29l.99-.95,2.74,4.24h1.73l-3.49-5.22,3.17-3.08h-1.82l-3.33,3.38v-6.53h-1.41v11.45h1.41ZM64.94,257.18c.39-.55.9-.82,1.55-.82s1.2.31,1.64.93c.44.62.66,1.87.66,3.76s-.22,3.12-.66,3.75c-.44.62-.98.94-1.63.94s-1.19-.31-1.63-.93c-.44-.62-.66-1.87-.66-3.75s.24-3.17.73-3.87ZM63.9,265.71c.63.79,1.5,1.19,2.6,1.19.84,0,1.53-.23,2.08-.68.55-.45.96-1.09,1.24-1.91.28-.83.41-1.91.41-3.25,0-1.14-.09-2.04-.26-2.71s-.41-1.24-.71-1.7c-.3-.47-.69-.82-1.15-1.07-.46-.25-1-.37-1.62-.37-.83,0-1.52.22-2.07.67-.55.45-.96,1.08-1.24,1.91-.28.83-.42,1.92-.42,3.27,0,2.15.38,3.7,1.13,4.66ZM55.95,261.75c.43-.44.98-.66,1.64-.66s1.24.22,1.69.66c.45.44.68,1,.68,1.68s-.22,1.22-.66,1.65-.99.65-1.66.65c-.43,0-.84-.1-1.21-.31s-.66-.5-.85-.87c-.19-.38-.29-.76-.29-1.16,0-.66.22-1.2.65-1.64ZM56.28,256.87c.35-.34.8-.52,1.34-.52s.98.18,1.33.53c.36.35.54.79.54,1.3s-.17.91-.52,1.25c-.35.34-.79.51-1.33.51s-1.01-.17-1.36-.52c-.35-.34-.52-.79-.52-1.33,0-.48.18-.89.53-1.23ZM54.42,261.52c-.38.5-.57,1.13-.57,1.87,0,1,.35,1.83,1.04,2.5.69.67,1.6,1,2.73,1s2.04-.33,2.73-1c.69-.67,1.04-1.49,1.04-2.47,0-.71-.18-1.32-.55-1.83s-.9-.88-1.61-1.11c.57-.21.99-.52,1.27-.91.28-.39.42-.86.42-1.39,0-.83-.3-1.54-.91-2.12s-1.41-.87-2.41-.87-1.79.28-2.39.85c-.6.57-.9,1.27-.9,2.1,0,.55.14,1.03.42,1.42s.71.7,1.3.91c-.7.18-1.24.52-1.61,1.03Z"/>
  <path d="M73.47,151.97v-3.29l.99-.95,2.74,4.24h1.73l-3.49-5.22,3.17-3.08h-1.82l-3.33,3.38v-6.53h-1.41v11.45h1.41ZM64.94,142.45c.39-.55.9-.82,1.55-.82s1.2.31,1.64.93c.44.62.66,1.87.66,3.76s-.22,3.12-.66,3.75c-.44.62-.98.94-1.63.94s-1.19-.31-1.63-.93c-.44-.62-.66-1.87-.66-3.75s.24-3.17.73-3.87ZM63.9,150.98c.63.79,1.5,1.19,2.6,1.19.84,0,1.53-.23,2.08-.68.55-.45.96-1.09,1.24-1.91.28-.83.41-1.91.41-3.25,0-1.14-.09-2.04-.26-2.71s-.41-1.24-.71-1.7c-.3-.47-.69-.82-1.15-1.07-.46-.25-1-.37-1.62-.37-.83,0-1.52.22-2.07.67-.55.45-.96,1.08-1.24,1.91-.28.83-.42,1.92-.42,3.27,0,2.15.38,3.7,1.13,4.66ZM56.04,142.45c.39-.55.9-.82,1.55-.82s1.2.31,1.64.93c.44.62.66,1.87.66,3.76s-.22,3.12-.66,3.75c-.44.62-.98.94-1.63.94s-1.19-.31-1.63-.93c-.44-.62-.66-1.87-.66-3.75s.24-3.17.73-3.87ZM55,150.98c.63.79,1.5,1.19,2.6,1.19.84,0,1.53-.23,2.08-.68.55-.45.96-1.09,1.24-1.91.28-.83.41-1.91.41-3.25,0-1.14-.09-2.04-.26-2.71s-.41-1.24-.71-1.7c-.3-.47-.69-.82-1.15-1.07-.46-.25-1-.37-1.62-.37-.83,0-1.52.22-2.07.67-.55.45-.96,1.08-1.24,1.91-.28.83-.42,1.92-.42,3.27,0,2.15.38,3.7,1.13,4.66ZM50.27,140.47h-.91c-.25.5-.66,1-1.25,1.53-.59.53-1.28.97-2.06,1.34v1.36c.44-.16.93-.4,1.48-.73.55-.32.99-.65,1.33-.97v8.96h1.41v-11.5Z"/>
  <polyline points="756.6 66.6 911.6 66.6 911.6 220.6 756.6 220.6 756.6 66.6" style="fill: #fff;"/>
  <g style="clip-path: url(#clippath-1);">
    <path d="M816.28,89.87c-.25,0-.44-.04-.57-.12-.13-.08-.23-.19-.29-.33-.06-.14-.09-.44-.09-.92v-5.76h1.68v-1.3h-1.68v-3.44l-1.66,1v2.44h-1.22v1.3h1.22v5.67c0,1,.07,1.66.2,1.97.14.31.37.56.71.76.33.19.8.29,1.41.29.37,0,.79-.05,1.26-.15l-.24-1.48c-.3.04-.55.07-.73.07ZM804.47,91.3v-5.38c0-1.26.26-2.12.77-2.57.52-.45,1.13-.68,1.84-.68.45,0,.83.1,1.16.3.33.2.56.47.69.81.13.34.19.85.19,1.53v5.99h1.67v-6.06c0-.77-.03-1.31-.09-1.62-.1-.48-.27-.89-.52-1.23-.25-.35-.62-.63-1.12-.84-.5-.21-1.04-.32-1.64-.32-1.37,0-2.41.54-3.14,1.62v-1.4h-1.5v9.85h1.67ZM798.52,86.97c0,.74-.09,1.29-.27,1.67-.24.49-.6.87-1.1,1.15-.5.28-1.07.42-1.72.42s-1.14-.15-1.48-.45c-.34-.3-.51-.67-.51-1.11,0-.29.08-.55.23-.79.15-.24.37-.42.66-.54.28-.12.77-.23,1.46-.33,1.21-.17,2.12-.38,2.73-.63v.61ZM798.99,91.3h1.74c-.21-.38-.35-.77-.42-1.18-.07-.41-.11-1.39-.11-2.95v-2.23c0-.74-.03-1.25-.08-1.54-.1-.46-.27-.84-.52-1.14-.25-.3-.63-.55-1.16-.75-.53-.2-1.21-.3-2.05-.3s-1.59.12-2.24.35c-.64.23-1.14.56-1.48.99-.34.43-.58.99-.73,1.69l1.63.22c.18-.7.46-1.19.83-1.46.37-.27.95-.41,1.74-.41.84,0,1.48.19,1.9.57.32.28.47.76.47,1.44,0,.06,0,.21,0,.44-.64.22-1.63.41-2.98.58-.66.08-1.16.16-1.48.25-.45.12-.85.31-1.2.55-.36.24-.64.56-.86.96-.22.4-.33.84-.33,1.32,0,.82.29,1.5.87,2.03.58.53,1.41.79,2.5.79.66,0,1.27-.11,1.84-.32.57-.22,1.17-.59,1.79-1.11.05.46.16.87.33,1.21ZM789.69,91.3v-9.85h-1.67v9.85h1.67ZM789.69,79.62v-1.92h-1.67v1.92h1.67ZM783.33,91.3v-5.16c0-.71.09-1.35.28-1.95.12-.39.33-.69.62-.91.29-.22.62-.33.98-.33.41,0,.82.12,1.22.36l.58-1.55c-.58-.36-1.15-.54-1.72-.54-.39,0-.75.11-1.07.33-.32.22-.68.68-1.06,1.38v-1.49h-1.5v9.85h1.67ZM777.41,86.97c0,.74-.09,1.29-.27,1.67-.24.49-.6.87-1.1,1.15-.5.28-1.07.42-1.72.42s-1.14-.15-1.48-.45c-.34-.3-.51-.67-.51-1.11,0-.29.08-.55.23-.79.15-.24.37-.42.66-.54.28-.12.77-.23,1.46-.33,1.21-.17,2.12-.38,2.73-.63v.61ZM777.88,91.3h1.74c-.21-.38-.35-.77-.42-1.18-.07-.41-.11-1.39-.11-2.95v-2.23c0-.74-.03-1.25-.08-1.54-.1-.46-.27-.84-.52-1.14-.25-.3-.63-.55-1.16-.75-.53-.2-1.21-.3-2.05-.3s-1.59.12-2.24.35c-.64.23-1.14.56-1.48.99-.34.43-.58.99-.73,1.69l1.63.22c.18-.7.46-1.19.83-1.46.37-.27.95-.41,1.74-.41.84,0,1.48.19,1.9.57.32.28.47.76.47,1.44,0,.06,0,.21,0,.44-.64.22-1.63.41-2.98.58-.66.08-1.16.16-1.48.25-.45.12-.85.31-1.2.55-.36.24-.64.56-.86.96-.22.4-.33.84-.33,1.32,0,.82.29,1.5.87,2.03.58.53,1.41.79,2.5.79.66,0,1.27-.11,1.84-.32.57-.22,1.17-.59,1.79-1.11.05.46.16.87.33,1.21ZM765.8,91.3l5.33-13.6h-1.84l-3.67,9.88c-.28.74-.52,1.48-.73,2.23-.19-.69-.43-1.43-.71-2.23l-3.53-9.88h-1.95l5.27,13.6h1.85Z"/>
    <path d="M834.98,110.79c0,.62-.08,1.09-.23,1.41-.2.41-.51.74-.93.97s-.9.36-1.45.36-.96-.12-1.25-.38c-.28-.25-.43-.56-.43-.94,0-.25.07-.47.2-.67.13-.2.31-.35.55-.46.24-.1.65-.2,1.23-.28,1.02-.15,1.79-.32,2.3-.53v.52M835.37,114.44h1.47c-.18-.32-.3-.65-.36-1-.06-.35-.09-1.17-.09-2.48v-1.88c0-.62-.02-1.06-.07-1.3-.08-.39-.23-.7-.44-.96-.21-.25-.53-.46-.98-.63-.44-.17-1.02-.25-1.73-.25s-1.34.1-1.88.29c-.54.2-.96.47-1.24.84-.29.36-.49.84-.62,1.43l1.38.19c.15-.59.38-1,.7-1.23.31-.23.8-.35,1.46-.35.71,0,1.24.16,1.6.48.27.23.4.64.4,1.21,0,.05,0,.17,0,.37-.54.19-1.37.35-2.51.48-.56.07-.97.14-1.25.21-.38.1-.71.26-1.01.46-.3.2-.54.47-.73.81-.18.34-.28.71-.28,1.11,0,.69.24,1.26.73,1.71.49.45,1.19.67,2.1.67.55,0,1.07-.09,1.55-.27.48-.18.98-.5,1.5-.94.04.39.14.73.28,1.02M822.19,114.44v-4.54c0-.65.08-1.16.23-1.53.16-.37.42-.66.79-.88.37-.22.76-.32,1.18-.32.56,0,.99.16,1.29.48.3.32.46.83.46,1.54v5.26h1.41v-5.26c0-.81-.1-1.43-.29-1.86-.2-.43-.52-.76-.97-1-.45-.24-.99-.36-1.6-.36-1,0-1.83.38-2.48,1.14v-4.11h-1.41v11.45h1.41M813.85,107.9c.46-.56.99-.84,1.59-.84s1.12.26,1.56.79c.43.53.65,1.32.65,2.37,0,1.11-.22,1.93-.67,2.46-.45.53-.98.79-1.61.79s-1.14-.25-1.57-.77c-.43-.51-.65-1.3-.65-2.37s.23-1.88.69-2.44M813.29,117.62v-4.04c.24.3.55.55.92.75.37.2.79.3,1.26.3.64,0,1.25-.18,1.83-.54.58-.36,1.02-.88,1.33-1.56.3-.68.46-1.44.46-2.29,0-.79-.14-1.52-.41-2.18-.28-.66-.69-1.18-1.23-1.54-.54-.36-1.17-.55-1.88-.55-.54,0-1,.11-1.38.32-.38.21-.72.53-1.02.95v-1.08h-1.28v11.48h1.41M809.7,114.44v-11.45h-1.41v11.45h1.41M801.14,106.38c.27-.72.47-1.45.62-2.19.18.62.45,1.41.81,2.38l1.2,3.17h-3.88l1.26-3.36M798.19,114.44l1.26-3.47h4.79l1.34,3.47h1.73l-4.69-11.45h-1.63l-4.4,11.45h1.61"/>
    <polyline points="782.6 114.2 770.6 114.2 770.6 102.2 782.6 102.2 782.6 114.2" style="fill: #ab63fa;"/>
    <path d="M834.98,110.28c-.51.21-1.28.39-2.3.53-.58.08-.99.18-1.23.28-.24.1-.42.26-.55.46-.13.2-.2.42-.2.67,0,.38.14.69.43.94.28.25.7.38,1.25.38s1.02-.12,1.45-.36.73-.56.93-.97c.15-.32.23-.79.23-1.41v-.52M815.44,107.06c-.6,0-1.13.28-1.59.84s-.69,1.37-.69,2.44.22,1.86.65,2.37c.43.51.96.77,1.57.77s1.16-.26,1.61-.79c.45-.53.67-1.35.67-2.46s-.22-1.85-.65-2.37c-.44-.53-.95-.79-1.56-.79M801.76,104.19c-.15.73-.35,1.46-.62,2.19l-1.26,3.36h3.88l-1.2-3.17c-.36-.96-.64-1.75-.81-2.38M813.16,107.22c.3-.42.64-.74,1.02-.95.38-.21.84-.32,1.38-.32.71,0,1.33.18,1.88.55.54.36.95.88,1.23,1.54.28.66.41,1.39.41,2.18,0,.85-.15,1.61-.46,2.29-.3.68-.75,1.2-1.33,1.56-.58.36-1.19.54-1.83.54-.47,0-.89-.1-1.26-.3-.37-.2-.68-.45-.92-.75v4.04h-1.41v-11.48h1.28v1.08M830.82,108.7l-1.38-.19c.12-.59.33-1.06.62-1.43.29-.36.7-.64,1.24-.84.54-.2,1.17-.29,1.88-.29s1.28.08,1.73.25c.44.17.77.38.98.63.21.25.35.57.44.96.05.24.07.67.07,1.3v1.88c0,1.31.03,2.13.09,2.48.06.35.18.68.36,1h-1.47c-.15-.29-.24-.63-.28-1.02-.52.44-1.02.76-1.5.94-.48.18-1,.27-1.55.27-.91,0-1.61-.22-2.1-.67-.49-.45-.73-1.01-.73-1.71,0-.41.09-.78.28-1.11.18-.34.43-.61.73-.81.3-.2.64-.36,1.01-.46.28-.07.69-.14,1.25-.21,1.14-.14,1.97-.3,2.51-.48,0-.19,0-.32,0-.37,0-.57-.13-.98-.4-1.21-.36-.32-.89-.48-1.6-.48-.66,0-1.15.12-1.46.35-.32.23-.55.64-.7,1.23M796.58,114.44l4.4-11.45h1.63l4.69,11.45h-1.73l-1.34-3.47h-4.79l-1.26,3.47h-1.61M808.3,114.44v-11.45h1.41v11.45h-1.41M820.78,114.44v-11.45h1.41v4.11c.66-.76,1.48-1.14,2.48-1.14.61,0,1.15.12,1.6.36.45.24.78.58.97,1,.2.43.29,1.05.29,1.86v5.26h-1.41v-5.26c0-.7-.15-1.21-.46-1.54-.3-.32-.74-.48-1.29-.48-.42,0-.81.11-1.18.32-.37.22-.63.51-.79.88-.16.37-.23.88-.23,1.53v4.54h-1.41M770.6,114.2v-12h12v12h-12M905.99,96.3h-149.39v23.8h149.39v-23.8" style="fill: #fff;"/>
    <path d="M815.37,113.47c-.61,0-1.14-.25-1.57-.77-.43-.51-.65-1.3-.65-2.37s.23-1.88.69-2.44.99-.84,1.59-.84,1.12.26,1.56.79c.43.53.65,1.32.65,2.37,0,1.11-.22,1.93-.67,2.46-.45.53-.98.79-1.61.79M815.57,105.95c-.54,0-1,.11-1.38.32-.38.21-.72.53-1.02.95v-1.08h-1.28v11.48h1.41v-4.04c.24.3.55.55.92.75.37.2.79.3,1.26.3.64,0,1.25-.18,1.83-.54.58-.36,1.02-.88,1.33-1.56.3-.68.46-1.44.46-2.29,0-.79-.14-1.52-.41-2.18-.28-.66-.69-1.18-1.23-1.54-.54-.36-1.17-.55-1.88-.55M832.37,113.53c-.55,0-.96-.12-1.25-.38-.28-.25-.43-.56-.43-.94,0-.25.07-.47.2-.67.13-.2.31-.35.55-.46.24-.1.65-.2,1.23-.28,1.02-.15,1.79-.32,2.3-.53v.52c0,.62-.08,1.09-.23,1.41-.2.41-.51.74-.93.97s-.9.36-1.45.36M833.19,105.95c-.71,0-1.34.1-1.88.29-.54.2-.96.47-1.24.84-.29.36-.49.84-.62,1.43l1.38.19c.15-.59.38-1,.7-1.23.31-.23.8-.35,1.46-.35.71,0,1.24.16,1.6.48.27.23.4.64.4,1.21,0,.05,0,.17,0,.37-.54.19-1.37.35-2.51.48-.56.07-.97.14-1.25.21-.38.1-.71.26-1.01.46-.3.2-.54.47-.73.81-.18.34-.28.71-.28,1.11,0,.69.24,1.26.73,1.71.49.45,1.19.67,2.1.67.55,0,1.07-.09,1.55-.27.48-.18.98-.5,1.5-.94.04.39.14.73.28,1.02h1.47c-.18-.32-.3-.65-.36-1-.06-.35-.09-1.17-.09-2.48v-1.88c0-.62-.02-1.06-.07-1.3-.08-.39-.23-.7-.44-.96-.21-.25-.53-.46-.98-.63-.44-.17-1.02-.25-1.73-.25M799.88,109.74l1.26-3.36c.27-.72.47-1.45.62-2.19.18.62.45,1.41.81,2.38l1.2,3.17h-3.88M802.61,102.99h-1.63l-4.4,11.45h1.61l1.26-3.47h4.79l1.34,3.47h1.73l-4.69-11.45M809.7,102.99h-1.41v11.45h1.41v-11.45M822.19,102.99h-1.41v11.45h1.41v-4.54c0-.65.08-1.16.23-1.53.16-.37.42-.66.79-.88.37-.22.76-.32,1.18-.32.56,0,.99.16,1.29.48.3.32.46.83.46,1.54v5.26h1.41v-5.26c0-.81-.1-1.43-.29-1.86-.2-.43-.52-.76-.97-1-.45-.24-.99-.36-1.6-.36-1,0-1.83.38-2.48,1.14v-4.11"/>
    <polyline points="782.6 102.2 770.6 102.2 770.6 114.2 782.6 114.2 782.6 102.2" style="fill: #ab63fa;"/>
    <path d="M831.4,134.59c0,.62-.08,1.09-.23,1.41-.2.41-.51.74-.93.97-.42.24-.9.36-1.45.36s-.96-.12-1.25-.38c-.28-.25-.43-.56-.43-.94,0-.25.06-.47.2-.67.13-.2.31-.35.55-.46.24-.1.65-.2,1.23-.28,1.02-.15,1.79-.32,2.3-.53v.52M831.8,138.24h1.47c-.18-.32-.3-.65-.36-1-.06-.35-.09-1.17-.09-2.48v-1.88c0-.62-.02-1.06-.07-1.3-.08-.39-.23-.7-.44-.96-.21-.25-.53-.46-.98-.63-.44-.17-1.02-.25-1.73-.25s-1.34.1-1.88.29c-.54.2-.96.47-1.24.84-.29.36-.49.84-.62,1.43l1.38.19c.15-.59.38-1,.7-1.23.31-.23.8-.35,1.46-.35.71,0,1.24.16,1.6.48.27.23.4.64.4,1.21,0,.05,0,.17,0,.37-.54.19-1.37.35-2.51.48-.56.07-.97.14-1.25.21-.38.1-.71.26-1.01.46-.3.2-.54.47-.73.81-.19.34-.28.71-.28,1.11,0,.69.24,1.26.73,1.71.49.45,1.19.67,2.1.67.55,0,1.07-.09,1.55-.27.48-.18.98-.5,1.5-.94.04.39.14.73.28,1.02M824.12,137.04c-.21,0-.37-.03-.48-.1-.11-.07-.19-.16-.24-.27-.05-.11-.07-.37-.07-.77v-4.85h1.41v-1.09h-1.41v-2.9l-1.4.84v2.05h-1.03v1.09h1.03v4.77c0,.84.06,1.4.17,1.66.11.26.31.48.59.64.28.16.68.24,1.19.24.31,0,.67-.04,1.06-.12l-.2-1.24c-.26.04-.46.05-.62.05M819.48,138.24v-11.45h-1.41v11.45h1.41M811,131.56c.44-.43.98-.65,1.63-.65.71,0,1.29.27,1.74.81.29.35.47.87.53,1.57h-4.63c.05-.72.29-1.3.73-1.73M814.02,136.87c-.36.27-.8.41-1.32.41-.69,0-1.27-.24-1.73-.73-.46-.48-.72-1.18-.77-2.09h6.19c0-.17,0-.29,0-.38,0-1.37-.35-2.43-1.05-3.19-.7-.75-1.61-1.13-2.72-1.13s-2.08.39-2.8,1.16c-.72.77-1.08,1.85-1.08,3.25s.36,2.4,1.07,3.14c.71.75,1.67,1.12,2.89,1.12.96,0,1.75-.23,2.38-.7.62-.47,1.04-1.13,1.27-1.98l-1.45-.18c-.21.59-.5,1.03-.87,1.3M799.35,128.14h2.41c.9,0,1.55.08,1.96.23.56.22,1.04.65,1.43,1.29.39.64.59,1.56.59,2.76,0,.86-.1,1.6-.3,2.21-.2.61-.48,1.09-.84,1.45-.26.25-.6.45-1.03.59s-1.02.21-1.78.21h-2.45v-8.75M801.97,138.24c.69,0,1.31-.07,1.84-.2.53-.13.99-.32,1.37-.57.38-.25.72-.6,1.04-1.04.32-.44.58-1,.78-1.67.2-.67.3-1.44.3-2.31,0-1.02-.15-1.93-.45-2.72-.3-.79-.75-1.45-1.36-1.96-.46-.4-1.02-.67-1.68-.82-.47-.11-1.15-.16-2.04-.16h-3.95v11.45h4.13"/>
    <polyline points="782.6 138 770.6 138 770.6 126 782.6 126 782.6 138" style="fill: #ffa15a;"/>
    <path d="M831.4,134.08c-.51.21-1.28.39-2.3.53-.58.08-.99.18-1.23.28-.24.1-.42.26-.55.46-.13.2-.2.42-.2.67,0,.38.14.69.43.94.28.25.7.38,1.25.38s1.02-.12,1.45-.36c.42-.24.73-.56.93-.97.15-.32.23-.79.23-1.41v-.52M812.63,130.91c-.65,0-1.19.22-1.63.65-.44.43-.68,1.01-.73,1.73h4.63c-.06-.7-.24-1.22-.53-1.57-.45-.54-1.03-.81-1.74-.81M801.76,128.14h-2.41v8.75h2.45c.76,0,1.35-.07,1.78-.21s.77-.34,1.03-.59c.36-.36.64-.84.84-1.45.2-.61.3-1.34.3-2.21,0-1.2-.2-2.12-.59-2.76-.39-.64-.87-1.07-1.43-1.29-.41-.16-1.06-.23-1.96-.23M812.69,138.43c-1.21,0-2.18-.37-2.89-1.12-.71-.75-1.07-1.8-1.07-3.14s.36-2.48,1.08-3.25c.72-.77,1.65-1.16,2.8-1.16s2.02.38,2.72,1.13c.7.76,1.05,1.82,1.05,3.19,0,.08,0,.21,0,.38h-6.19c.05.91.31,1.61.77,2.09.46.48,1.04.73,1.73.73.52,0,.96-.14,1.32-.41.36-.27.65-.7.87-1.3l1.45.18c-.23.85-.65,1.51-1.27,1.98-.62.47-1.41.7-2.38.7M827.25,132.5l-1.38-.19c.12-.59.33-1.06.62-1.43.29-.36.7-.64,1.24-.84.54-.2,1.17-.29,1.88-.29s1.28.08,1.73.25c.44.17.77.38.98.63.21.25.35.57.44.96.05.24.07.67.07,1.3v1.88c0,1.31.03,2.13.09,2.48.06.35.18.68.36,1h-1.47c-.15-.29-.24-.63-.28-1.02-.52.44-1.02.76-1.5.94-.48.18-1,.27-1.55.27-.91,0-1.61-.22-2.1-.67-.49-.45-.73-1.01-.73-1.71,0-.41.09-.78.28-1.11.18-.34.43-.61.73-.81.3-.2.64-.36,1.01-.46.28-.07.69-.14,1.25-.21,1.14-.14,1.97-.3,2.51-.48,0-.19,0-.32,0-.37,0-.57-.13-.98-.4-1.21-.36-.32-.89-.48-1.6-.48-.66,0-1.15.12-1.46.35-.32.23-.55.64-.7,1.23M820.89,131.04v-1.09h1.03v-2.05l1.4-.84v2.9h1.41v1.09h-1.41v4.85c0,.4.02.66.07.77.05.11.13.21.24.27.11.07.27.1.48.1.16,0,.36-.02.62-.05l.2,1.24c-.4.08-.75.12-1.06.12-.51,0-.91-.08-1.19-.24-.28-.16-.48-.37-.59-.64-.11-.26-.17-.82-.17-1.66v-4.77h-1.03M797.83,138.24v-11.45h3.95c.89,0,1.57.05,2.04.16.66.15,1.22.42,1.68.82.6.51,1.06,1.16,1.36,1.96.3.79.45,1.7.45,2.72,0,.87-.1,1.64-.3,2.31-.2.67-.46,1.23-.78,1.67-.32.44-.67.79-1.04,1.04-.38.25-.83.44-1.37.57-.53.13-1.15.2-1.84.2h-4.13M818.08,138.24v-11.45h1.41v11.45h-1.41M770.6,138v-12h12v12h-12M905.99,120.1h-149.39v23.8h149.39v-23.8" style="fill: #fff;"/>
    <path d="M810.27,133.29c.05-.72.29-1.3.73-1.73.44-.43.98-.65,1.63-.65.71,0,1.29.27,1.74.81.29.35.47.87.53,1.57h-4.63M812.62,129.76c-1.15,0-2.08.39-2.8,1.16-.72.77-1.08,1.85-1.08,3.25s.36,2.4,1.07,3.14c.71.75,1.67,1.12,2.89,1.12.96,0,1.75-.23,2.38-.7.62-.47,1.04-1.13,1.27-1.98l-1.45-.18c-.21.59-.5,1.03-.87,1.3-.36.27-.8.41-1.32.41-.69,0-1.27-.24-1.73-.73-.46-.48-.72-1.18-.77-2.09h6.19c0-.17,0-.29,0-.38,0-1.37-.35-2.43-1.05-3.19-.7-.75-1.61-1.13-2.72-1.13M828.8,137.33c-.55,0-.96-.12-1.25-.38-.28-.25-.43-.56-.43-.94,0-.25.06-.47.2-.67.13-.2.31-.35.55-.46.24-.1.65-.2,1.23-.28,1.02-.15,1.79-.32,2.3-.53v.52c0,.62-.08,1.09-.23,1.41-.2.41-.51.74-.93.97-.42.24-.9.36-1.45.36M829.62,129.76c-.71,0-1.34.1-1.88.29-.54.2-.96.47-1.24.84-.29.36-.49.84-.62,1.43l1.38.19c.15-.59.38-1,.7-1.23.31-.23.8-.35,1.46-.35.71,0,1.24.16,1.6.48.27.23.4.64.4,1.21,0,.05,0,.17,0,.37-.54.19-1.37.35-2.51.48-.56.07-.97.14-1.25.21-.38.1-.71.26-1.01.46-.3.2-.54.47-.73.81-.19.34-.28.71-.28,1.11,0,.69.24,1.26.73,1.71.49.45,1.19.67,2.1.67.55,0,1.07-.09,1.55-.27.48-.18.98-.5,1.5-.94.04.39.14.73.28,1.02h1.47c-.18-.32-.3-.65-.36-1-.06-.35-.09-1.17-.09-2.48v-1.88c0-.62-.02-1.06-.07-1.3-.08-.39-.23-.7-.44-.96-.21-.25-.53-.46-.98-.63-.44-.17-1.02-.25-1.73-.25M823.32,127.04l-1.4.84v2.05h-1.03v1.09h1.03v4.77c0,.84.06,1.4.17,1.66.11.26.31.48.59.64.28.16.68.24,1.19.24.31,0,.67-.04,1.06-.12l-.2-1.24c-.26.04-.46.05-.62.05-.21,0-.37-.03-.48-.1-.11-.07-.19-.16-.24-.27-.05-.11-.07-.37-.07-.77v-4.85h1.41v-1.09h-1.41v-2.9M799.35,136.89v-8.75h2.41c.9,0,1.55.08,1.96.23.56.22,1.04.65,1.43,1.29.39.64.59,1.56.59,2.76,0,.86-.1,1.6-.3,2.21-.2.61-.48,1.09-.84,1.45-.26.25-.6.45-1.03.59s-1.02.21-1.78.21h-2.45M801.78,126.79h-3.95v11.45h4.13c.69,0,1.31-.07,1.84-.2.53-.13.99-.32,1.37-.57.38-.25.72-.6,1.04-1.04.32-.44.58-1,.78-1.67.2-.67.3-1.44.3-2.31,0-1.02-.15-1.93-.45-2.72-.3-.79-.75-1.45-1.36-1.96-.46-.4-1.02-.67-1.68-.82-.47-.11-1.15-.16-2.04-.16M819.48,126.79h-1.41v11.45h1.41v-11.45"/>
    <polyline points="782.6 126 770.6 126 770.6 138 782.6 138 782.6 126" style="fill: #ffa15a;"/>
    <path d="M850.62,162.04v-4.53c0-1.06.22-1.78.65-2.16.43-.38.95-.57,1.55-.57.38,0,.7.08.98.25.28.17.47.4.58.68.11.28.16.71.16,1.28v5.05h1.41v-5.1c0-.65-.03-1.11-.08-1.37-.08-.4-.23-.75-.44-1.04-.21-.29-.52-.53-.94-.71-.42-.18-.88-.27-1.38-.27-1.15,0-2.03.46-2.64,1.37v-1.18h-1.27v8.3h1.41M841.93,155.51c.46-.53,1.05-.79,1.75-.79s1.27.26,1.74.79c.47.53.7,1.31.7,2.33,0,1.09-.23,1.9-.7,2.43-.46.53-1.04.8-1.74.8s-1.29-.26-1.75-.79c-.46-.53-.7-1.32-.7-2.39s.23-1.86.7-2.38M840.86,161.11c.72.75,1.65,1.12,2.82,1.12.72,0,1.39-.17,2-.51.61-.34,1.08-.81,1.4-1.43.32-.61.48-1.45.48-2.52,0-1.32-.36-2.35-1.09-3.1-.72-.75-1.66-1.12-2.8-1.12-1.03,0-1.9.31-2.61.92-.85.74-1.28,1.88-1.28,3.41,0,1.4.36,2.47,1.07,3.22M836.37,162.04v-4.34c0-.59.08-1.14.23-1.64.1-.33.28-.59.52-.77.24-.18.52-.28.83-.28.34,0,.69.1,1.03.3l.48-1.3c-.49-.3-.97-.45-1.45-.45-.33,0-.63.09-.9.28-.27.19-.57.58-.89,1.16v-1.26h-1.27v8.3h1.41M831.69,160.56c-.37.34-.83.51-1.38.51-.69,0-1.25-.25-1.67-.76-.43-.5-.64-1.32-.64-2.43s.22-1.9.66-2.41c.44-.51,1.02-.76,1.73-.76.47,0,.87.14,1.2.42.33.28.56.7.69,1.26l1.37-.21c-.16-.84-.53-1.49-1.1-1.94-.57-.46-1.31-.68-2.21-.68-.71,0-1.37.17-1.98.5-.61.34-1.06.84-1.36,1.51-.3.67-.45,1.46-.45,2.35,0,1.39.34,2.45,1.04,3.19.69.74,1.6,1.11,2.74,1.11.91,0,1.67-.27,2.29-.81.62-.54,1.01-1.29,1.16-2.24l-1.38-.18c-.1.7-.33,1.22-.7,1.56M824.84,162.04v-8.3h-1.41v8.3h1.41M824.84,152.2v-1.62h-1.41v1.62h1.41M811.51,162.04v-4.3c0-.75.08-1.33.23-1.73.15-.4.39-.71.73-.91.34-.21.7-.31,1.1-.31.52,0,.9.16,1.13.47.23.31.34.78.34,1.41v5.39h1.41v-4.82c0-.85.19-1.48.58-1.86.39-.39.87-.58,1.45-.58.32,0,.6.08.84.23.24.15.4.35.5.6.09.25.14.65.14,1.21v5.23h1.4v-5.7c0-.95-.22-1.65-.66-2.11-.44-.46-1.08-.68-1.9-.68-1.05,0-1.91.48-2.56,1.45-.16-.46-.44-.82-.83-1.07-.39-.25-.9-.38-1.51-.38-.55,0-1.04.12-1.48.37-.43.25-.78.57-1.04.98v-1.16h-1.26v8.3h1.41M800.1,152.79c.77-.74,1.7-1.11,2.77-1.11.75,0,1.44.19,2.04.57.61.38,1.07.92,1.38,1.62.31.7.47,1.51.47,2.44,0,1.47-.37,2.61-1.11,3.41-.74.8-1.68,1.2-2.82,1.2s-2.05-.4-2.79-1.19c-.74-.79-1.11-1.88-1.11-3.26,0-1.72.39-2.95,1.16-3.69M798.03,159.32c.44.9,1.08,1.61,1.93,2.13.85.52,1.81.78,2.89.78.99,0,1.92-.24,2.78-.71.86-.47,1.52-1.16,1.99-2.08.47-.92.7-1.96.7-3.12s-.22-2.17-.67-3.07c-.45-.9-1.09-1.61-1.94-2.11-.85-.5-1.8-.76-2.86-.76-1.61,0-2.93.54-3.95,1.61-1.02,1.08-1.53,2.56-1.53,4.46,0,1,.22,1.96.66,2.86"/>
    <polyline points="782.6 161.8 770.6 161.8 770.6 149.8 782.6 149.8 782.6 161.8" style="fill: #19d3f3;"/>
    <path d="M843.68,154.72c-.7,0-1.29.26-1.75.79-.46.53-.7,1.32-.7,2.38s.23,1.86.7,2.39c.46.53,1.05.79,1.75.79s1.28-.27,1.74-.8c.46-.53.7-1.34.7-2.43,0-1.03-.23-1.8-.7-2.33-.47-.53-1.05-.79-1.74-.79M802.87,151.69c-1.07,0-2,.37-2.77,1.11-.77.74-1.16,1.97-1.16,3.69,0,1.38.37,2.47,1.11,3.26.74.79,1.67,1.19,2.79,1.19s2.08-.4,2.82-1.2c.74-.8,1.11-1.94,1.11-3.41,0-.93-.16-1.75-.47-2.44-.32-.7-.78-1.23-1.38-1.62-.61-.38-1.29-.57-2.04-.57M823.44,162.04v-8.3h1.41v8.3h-1.41M816.22,155.01c.66-.97,1.51-1.45,2.56-1.45.82,0,1.46.23,1.9.68.44.46.66,1.16.66,2.11v5.7h-1.4v-5.23c0-.56-.05-.97-.14-1.21-.09-.25-.26-.45-.5-.6-.24-.15-.52-.23-.84-.23-.58,0-1.07.19-1.45.58-.39.39-.58,1.01-.58,1.86v4.82h-1.41v-5.39c0-.62-.11-1.09-.34-1.41-.23-.31-.6-.47-1.13-.47-.4,0-.76.1-1.1.31-.34.21-.58.51-.73.91-.15.4-.23.98-.23,1.73v4.3h-1.41v-8.3h1.26v1.16c.26-.41.61-.73,1.04-.98.43-.25.92-.37,1.48-.37.61,0,1.12.13,1.51.38.39.25.67.61.83,1.07M830.33,162.23c-1.14,0-2.05-.37-2.74-1.11-.69-.74-1.04-1.81-1.04-3.19,0-.9.15-1.68.45-2.35.3-.67.75-1.18,1.36-1.51.61-.34,1.27-.5,1.98-.5.9,0,1.64.23,2.21.68.57.46.94,1.1,1.1,1.94l-1.37.21c-.13-.56-.36-.98-.69-1.26-.33-.28-.73-.42-1.2-.42-.71,0-1.28.25-1.73.76-.44.51-.66,1.31-.66,2.41s.21,1.92.64,2.43c.43.5.98.76,1.67.76.55,0,1.01-.17,1.38-.51.37-.34.6-.86.7-1.56l1.38.18c-.15.95-.54,1.7-1.16,2.24-.62.54-1.39.81-2.29.81M836.23,155c.32-.59.62-.98.89-1.16.27-.19.57-.28.9-.28.47,0,.96.15,1.45.45l-.48,1.3c-.34-.2-.69-.3-1.03-.3-.31,0-.58.09-.83.28-.25.18-.42.44-.52.77-.16.5-.23,1.05-.23,1.64v4.34h-1.41v-8.3h1.27v1.26M843.68,162.23c-1.16,0-2.1-.37-2.82-1.12-.72-.75-1.07-1.82-1.07-3.22,0-1.54.43-2.67,1.28-3.41.71-.61,1.58-.92,2.61-.92,1.14,0,2.07.37,2.8,1.12.72.75,1.09,1.78,1.09,3.1,0,1.07-.16,1.91-.48,2.52-.32.61-.79,1.09-1.4,1.43-.61.34-1.28.51-2,.51M850.48,154.92c.61-.91,1.49-1.37,2.64-1.37.5,0,.96.09,1.38.27.42.18.73.42.94.71.21.29.35.64.44,1.04.05.26.08.72.08,1.37v5.1h-1.41v-5.05c0-.57-.05-1-.16-1.28-.11-.28-.3-.51-.58-.68-.28-.17-.61-.25-.98-.25-.6,0-1.12.19-1.55.57-.43.38-.65,1.1-.65,2.16v4.53h-1.41v-8.3h1.27v1.18M823.44,152.2v-1.62h1.41v1.62h-1.41M802.85,162.24c-1.08,0-2.04-.26-2.89-.78-.85-.52-1.49-1.23-1.93-2.13-.44-.9-.66-1.85-.66-2.86,0-1.9.51-3.39,1.53-4.46,1.02-1.08,2.34-1.61,3.95-1.61,1.06,0,2.01.25,2.86.76.85.5,1.5,1.21,1.94,2.11.45.9.67,1.93.67,3.07s-.23,2.2-.7,3.12c-.47.92-1.13,1.61-1.99,2.08-.86.47-1.79.71-2.78.71M770.6,161.8v-12h12v12h-12M905.99,143.9h-149.39v23.8h149.39v-23.8" style="fill: #fff;"/>
    <path d="M824.84,153.74h-1.41v8.3h1.41v-8.3M818.78,153.56c-1.05,0-1.91.48-2.56,1.45-.16-.46-.44-.82-.83-1.07-.39-.25-.9-.38-1.51-.38-.55,0-1.04.12-1.48.37-.43.25-.78.57-1.04.98v-1.16h-1.26v8.3h1.41v-4.3c0-.75.08-1.33.23-1.73.15-.4.39-.71.73-.91.34-.21.7-.31,1.1-.31.52,0,.9.16,1.13.47.23.31.34.78.34,1.41v5.39h1.41v-4.82c0-.85.19-1.48.58-1.86.39-.39.87-.58,1.45-.58.32,0,.6.08.84.23.24.15.4.35.5.6.09.25.14.65.14,1.21v5.23h1.4v-5.7c0-.95-.22-1.65-.66-2.11-.44-.46-1.08-.68-1.9-.68M830.33,153.56c-.71,0-1.37.17-1.98.5-.61.34-1.06.84-1.36,1.51-.3.67-.45,1.46-.45,2.35,0,1.39.34,2.45,1.04,3.19.69.74,1.6,1.11,2.74,1.11.91,0,1.67-.27,2.29-.81.62-.54,1.01-1.29,1.16-2.24l-1.38-.18c-.1.7-.33,1.22-.7,1.56-.37.34-.83.51-1.38.51-.69,0-1.25-.25-1.67-.76-.43-.5-.64-1.32-.64-2.43s.22-1.9.66-2.41c.44-.51,1.02-.76,1.73-.76.47,0,.87.14,1.2.42.33.28.56.7.69,1.26l1.37-.21c-.16-.84-.53-1.49-1.1-1.94-.57-.46-1.31-.68-2.21-.68M838.03,153.56c-.33,0-.63.09-.9.28-.27.19-.57.58-.89,1.16v-1.26h-1.27v8.3h1.41v-4.34c0-.59.08-1.14.23-1.64.1-.33.28-.59.52-.77.24-.18.52-.28.83-.28.34,0,.69.1,1.03.3l.48-1.3c-.49-.3-.97-.45-1.45-.45M843.68,161.07c-.7,0-1.29-.26-1.75-.79-.46-.53-.7-1.32-.7-2.39s.23-1.86.7-2.38c.46-.53,1.05-.79,1.75-.79s1.27.26,1.74.79c.47.53.7,1.31.7,2.33,0,1.09-.23,1.9-.7,2.43-.46.53-1.04.8-1.74.8M843.68,153.56c-1.03,0-1.9.31-2.61.92-.85.74-1.28,1.88-1.28,3.41,0,1.4.36,2.47,1.07,3.22.72.75,1.65,1.12,2.82,1.12.72,0,1.39-.17,2-.51.61-.34,1.08-.81,1.4-1.43.32-.61.48-1.45.48-2.52,0-1.32-.36-2.35-1.09-3.1-.72-.75-1.66-1.12-2.8-1.12M853.12,153.56c-1.15,0-2.03.46-2.64,1.37v-1.18h-1.27v8.3h1.41v-4.53c0-1.06.22-1.78.65-2.16.43-.38.95-.57,1.55-.57.38,0,.7.08.98.25.28.17.47.4.58.68.11.28.16.71.16,1.28v5.05h1.41v-5.1c0-.65-.03-1.11-.08-1.37-.08-.4-.23-.75-.44-1.04-.21-.29-.52-.53-.94-.71-.42-.18-.88-.27-1.38-.27M824.84,150.59h-1.41v1.62h1.41v-1.62M802.84,160.94c-1.12,0-2.05-.4-2.79-1.19-.74-.79-1.11-1.88-1.11-3.26,0-1.72.39-2.95,1.16-3.69.77-.74,1.7-1.11,2.77-1.11.75,0,1.44.19,2.04.57.61.38,1.07.92,1.38,1.62.31.7.47,1.51.47,2.44,0,1.47-.37,2.61-1.11,3.41-.74.8-1.68,1.2-2.82,1.2M802.86,150.38c-1.61,0-2.93.54-3.95,1.61-1.02,1.08-1.53,2.56-1.53,4.46,0,1,.22,1.96.66,2.86.44.9,1.08,1.61,1.93,2.13.85.52,1.81.78,2.89.78.99,0,1.92-.24,2.78-.71.86-.47,1.52-1.16,1.99-2.08.47-.92.7-1.96.7-3.12s-.22-2.17-.67-3.07c-.45-.9-1.09-1.61-1.94-2.11-.85-.5-1.8-.76-2.86-.76"/>
    <polyline points="782.6 149.8 770.6 149.8 770.6 161.8 782.6 161.8 782.6 149.8" style="fill: #19d3f3;"/>
    <path d="M833.73,185.84v-4.34c0-.59.08-1.14.23-1.64.1-.33.28-.59.52-.77.24-.18.52-.28.83-.28.34,0,.69.1,1.03.3l.48-1.3c-.49-.3-.97-.45-1.45-.45-.33,0-.63.09-.9.28-.27.19-.57.58-.89,1.16v-1.26h-1.27v8.3h1.41M825.24,179.16c.44-.43.98-.65,1.63-.65.71,0,1.29.27,1.74.81.29.35.47.87.53,1.57h-4.63c.05-.72.29-1.3.73-1.73M828.26,184.46c-.36.27-.8.41-1.32.41-.69,0-1.27-.24-1.73-.73-.46-.48-.72-1.18-.77-2.09h6.19c0-.17,0-.29,0-.38,0-1.37-.35-2.43-1.05-3.19-.7-.75-1.61-1.13-2.72-1.13s-2.08.39-2.8,1.16c-.72.77-1.08,1.85-1.08,3.25s.36,2.4,1.07,3.14c.71.75,1.67,1.12,2.89,1.12.96,0,1.75-.23,2.38-.7.62-.47,1.04-1.13,1.27-1.98l-1.45-.18c-.21.59-.5,1.03-.87,1.3M815.95,185.84v-4.54c0-.65.08-1.16.23-1.53.16-.37.42-.66.79-.88.37-.22.76-.32,1.18-.32.56,0,.99.16,1.29.48.3.32.46.83.46,1.54v5.26h1.41v-5.26c0-.81-.1-1.43-.29-1.86-.2-.43-.52-.76-.97-1-.45-.24-.99-.36-1.6-.36-1,0-1.83.38-2.48,1.14v-4.11h-1.41v11.45h1.41M812.55,184.64c-.21,0-.37-.03-.48-.1-.11-.07-.19-.16-.24-.27-.05-.11-.07-.37-.07-.77v-4.85h1.41v-1.09h-1.41v-2.9l-1.4.84v2.05h-1.03v1.09h1.03v4.77c0,.84.06,1.4.17,1.66.11.26.31.48.59.64.28.16.68.24,1.19.24.31,0,.67-.04,1.06-.13l-.2-1.24c-.26.04-.46.05-.62.05M800.1,176.59c.77-.74,1.7-1.11,2.77-1.11.75,0,1.44.19,2.04.57.61.38,1.07.92,1.38,1.62.31.7.47,1.51.47,2.44,0,1.47-.37,2.61-1.11,3.41-.74.8-1.68,1.2-2.82,1.2s-2.05-.4-2.79-1.19c-.74-.79-1.11-1.88-1.11-3.26,0-1.72.39-2.95,1.16-3.69M798.03,183.12c.44.9,1.08,1.61,1.93,2.13.85.52,1.81.78,2.89.78.99,0,1.92-.24,2.78-.71.86-.47,1.52-1.17,1.99-2.08.47-.92.7-1.96.7-3.12s-.22-2.17-.67-3.07c-.45-.9-1.09-1.61-1.94-2.11-.85-.5-1.8-.76-2.86-.76-1.61,0-2.93.54-3.95,1.61-1.02,1.08-1.53,2.56-1.53,4.46,0,1.01.22,1.96.66,2.86"/>
    <polyline points="782.6 185.6 770.6 185.6 770.6 173.6 782.6 173.6 782.6 185.6" style="fill: #ff6692;"/>
    <path d="M826.87,178.51c-.65,0-1.19.22-1.63.65-.44.43-.68,1.01-.73,1.73h4.63c-.06-.7-.24-1.22-.53-1.57-.45-.54-1.03-.81-1.74-.81M802.87,175.49c-1.07,0-2,.37-2.77,1.11-.77.74-1.16,1.97-1.16,3.69,0,1.38.37,2.47,1.11,3.26.74.79,1.67,1.19,2.79,1.19s2.08-.4,2.82-1.2c.74-.8,1.11-1.94,1.11-3.41,0-.93-.16-1.75-.47-2.44-.32-.7-.78-1.23-1.38-1.62-.61-.38-1.29-.57-2.04-.57M826.93,186.03c-1.21,0-2.18-.37-2.89-1.12-.71-.75-1.07-1.8-1.07-3.14s.36-2.48,1.08-3.25c.72-.77,1.65-1.16,2.8-1.16s2.02.38,2.72,1.13c.7.76,1.05,1.82,1.05,3.19,0,.08,0,.21,0,.38h-6.19c.05.91.31,1.61.77,2.09.46.48,1.04.73,1.73.73.52,0,.96-.14,1.32-.41.36-.27.65-.7.87-1.3l1.45.18c-.23.85-.65,1.51-1.27,1.98-.62.47-1.41.7-2.38.7M833.59,178.8c.32-.59.62-.98.89-1.16.27-.19.57-.28.9-.28.47,0,.96.15,1.45.45l-.48,1.3c-.34-.2-.69-.3-1.03-.3-.31,0-.58.09-.83.28-.25.18-.42.44-.52.77-.16.5-.23,1.05-.23,1.64v4.34h-1.41v-8.3h1.27v1.26M809.33,178.64v-1.09h1.03v-2.05l1.4-.84v2.9h1.41v1.09h-1.41v4.85c0,.4.02.66.07.77.05.11.13.21.24.27.11.07.27.1.48.1.16,0,.36-.02.62-.05l.2,1.24c-.4.08-.75.13-1.06.13-.51,0-.91-.08-1.19-.24-.28-.16-.48-.37-.59-.64-.11-.26-.17-.82-.17-1.66v-4.77h-1.03M814.55,185.84v-11.45h1.41v4.11c.66-.76,1.48-1.14,2.48-1.14.61,0,1.15.12,1.6.36.45.24.78.58.97,1,.2.43.29,1.05.29,1.86v5.26h-1.41v-5.26c0-.7-.15-1.21-.46-1.54-.3-.32-.74-.48-1.29-.48-.42,0-.81.11-1.18.32-.37.22-.63.51-.79.88-.16.37-.23.88-.23,1.53v4.54h-1.41M802.85,186.04c-1.08,0-2.04-.26-2.89-.78-.85-.52-1.49-1.23-1.93-2.13-.44-.9-.66-1.85-.66-2.86,0-1.9.51-3.39,1.53-4.46,1.02-1.08,2.34-1.61,3.95-1.61,1.06,0,2.01.25,2.86.76.85.5,1.5,1.21,1.94,2.11.45.9.67,1.93.67,3.07s-.23,2.2-.7,3.12c-.47.92-1.13,1.61-1.99,2.08-.86.47-1.79.71-2.78.71M770.6,185.6v-12h12v12h-12M905.99,167.7h-149.39v23.8h0s149.39,0,149.39,0v-23.8" style="fill: #fff;"/>
    <path d="M824.51,180.89c.05-.72.29-1.3.73-1.73.44-.43.98-.65,1.63-.65.71,0,1.29.27,1.74.81.29.35.47.87.53,1.57h-4.63M826.85,177.36c-1.15,0-2.08.39-2.8,1.16-.72.77-1.08,1.85-1.08,3.25s.36,2.4,1.07,3.14c.71.75,1.67,1.12,2.89,1.12.96,0,1.75-.23,2.38-.7.62-.47,1.04-1.13,1.27-1.98l-1.45-.18c-.21.59-.5,1.03-.87,1.3-.36.27-.8.41-1.32.41-.69,0-1.27-.24-1.73-.73-.46-.48-.72-1.18-.77-2.09h6.19c0-.17,0-.29,0-.38,0-1.37-.35-2.43-1.05-3.19-.7-.75-1.61-1.13-2.72-1.13M835.39,177.36c-.33,0-.63.09-.9.28-.27.19-.57.58-.89,1.16v-1.26h-1.27v8.3h1.41v-4.34c0-.59.08-1.14.23-1.64.1-.33.28-.59.52-.77.24-.18.52-.28.83-.28.34,0,.69.1,1.03.3l.48-1.3c-.49-.3-.97-.45-1.45-.45M811.76,174.64l-1.4.84v2.05h-1.03v1.09h1.03v4.77c0,.84.06,1.4.17,1.66.11.26.31.48.59.64.28.16.68.24,1.19.24.31,0,.67-.04,1.06-.13l-.2-1.24c-.26.04-.46.05-.62.05-.21,0-.37-.03-.48-.1-.11-.07-.19-.16-.24-.27-.05-.11-.07-.37-.07-.77v-4.85h1.41v-1.09h-1.41v-2.9M815.95,174.39h-1.41v11.45h1.41v-4.54c0-.65.08-1.16.23-1.53.16-.37.42-.66.79-.88.37-.22.76-.32,1.18-.32.56,0,.99.16,1.29.48.3.32.46.83.46,1.54v5.26h1.41v-5.26c0-.81-.1-1.43-.29-1.86-.2-.43-.52-.76-.97-1-.45-.24-.99-.36-1.6-.36-1,0-1.83.38-2.48,1.14v-4.11M802.84,184.74c-1.12,0-2.05-.4-2.79-1.19-.74-.79-1.11-1.88-1.11-3.26,0-1.72.39-2.95,1.16-3.69.77-.74,1.7-1.11,2.77-1.11.75,0,1.44.19,2.04.57.61.38,1.07.92,1.38,1.62.31.7.47,1.51.47,2.44,0,1.47-.37,2.61-1.11,3.41-.74.8-1.68,1.2-2.82,1.2M802.86,174.18c-1.61,0-2.93.54-3.95,1.61-1.02,1.08-1.53,2.56-1.53,4.46,0,1.01.22,1.96.66,2.86.44.9,1.08,1.61,1.93,2.13.85.52,1.81.78,2.89.78.99,0,1.92-.24,2.78-.71.86-.47,1.52-1.17,1.99-2.08.47-.92.7-1.96.7-3.12s-.22-2.17-.67-3.07c-.45-.9-1.09-1.61-1.94-2.11-.85-.5-1.8-.76-2.86-.76"/>
    <polyline points="782.6 173.6 770.6 173.6 770.6 185.6 782.6 185.6 782.6 173.6" style="fill: #ff6692;"/>
    <path d="M899.71,203.08c.42-.51.94-.77,1.57-.77s1.18.27,1.62.8c.44.53.66,1.36.66,2.5,0,1.03-.21,1.8-.64,2.3-.43.5-.95.75-1.57.75s-1.14-.26-1.59-.79c-.45-.53-.67-1.32-.67-2.38s.21-1.9.63-2.41M904.83,209.64v-11.45h-1.4v4.11c-.25-.34-.56-.61-.95-.82-.39-.21-.84-.32-1.34-.32-.68,0-1.3.18-1.85.54-.55.36-.97.88-1.24,1.55-.28.67-.41,1.43-.41,2.25s.15,1.6.46,2.25c.3.65.73,1.16,1.29,1.53s1.16.55,1.82.55c1.02,0,1.79-.41,2.32-1.23v1.05h1.3M891.04,202.96c.44-.43.98-.65,1.63-.65.71,0,1.29.27,1.74.81.29.35.47.87.53,1.57h-4.63c.05-.72.29-1.3.73-1.73M894.06,208.26c-.36.27-.8.41-1.32.41-.69,0-1.27-.24-1.73-.73-.46-.48-.72-1.18-.77-2.09h6.19c0-.17,0-.29,0-.38,0-1.37-.35-2.43-1.05-3.19-.7-.75-1.61-1.13-2.72-1.13s-2.08.39-2.8,1.16c-.72.77-1.08,1.85-1.08,3.25s.36,2.4,1.07,3.14c.71.75,1.67,1.12,2.89,1.12.96,0,1.75-.23,2.37-.7.62-.47,1.04-1.13,1.27-1.98l-1.45-.18c-.21.59-.5,1.03-.87,1.3M881.76,209.64v-4.53c0-1.06.22-1.78.65-2.16.43-.38.95-.57,1.55-.57.38,0,.7.08.98.25.28.17.47.4.58.68s.16.71.16,1.29v5.05h1.41v-5.1c0-.65-.03-1.11-.08-1.37-.08-.4-.23-.75-.44-1.04-.21-.29-.52-.53-.94-.71-.42-.18-.88-.27-1.38-.27-1.15,0-2.03.46-2.64,1.37v-1.18h-1.27v8.3h1.41M878.21,209.64v-8.3h-1.41v8.3h1.41M878.21,199.8v-1.62h-1.41v1.62h1.41M864.87,209.64v-4.3c0-.75.08-1.33.23-1.73.15-.4.39-.71.73-.91.34-.21.7-.31,1.1-.31.52,0,.9.16,1.13.47.23.31.34.78.34,1.41v5.39h1.41v-4.82c0-.85.19-1.48.58-1.86.39-.39.87-.58,1.45-.58.32,0,.6.08.84.23.24.15.4.35.5.6.09.25.14.65.14,1.21v5.23h1.4v-5.7c0-.95-.22-1.65-.66-2.11-.44-.46-1.08-.68-1.9-.68-1.05,0-1.91.48-2.56,1.45-.16-.46-.44-.82-.83-1.07-.39-.25-.9-.38-1.51-.38-.55,0-1.04.12-1.48.37-.43.25-.78.57-1.04.98v-1.16h-1.26v8.3h1.41M859.53,209.64v-4.34c0-.59.08-1.14.23-1.64.1-.33.28-.59.52-.77.24-.18.52-.28.83-.28.34,0,.69.1,1.03.3l.48-1.3c-.49-.3-.97-.45-1.45-.45-.33,0-.63.09-.9.28s-.57.58-.89,1.16v-1.26h-1.27v8.3h1.41M851.03,202.96c.44-.43.98-.65,1.63-.65.71,0,1.29.27,1.74.81.29.35.47.87.53,1.57h-4.63c.05-.72.29-1.3.73-1.73M854.05,208.26c-.36.27-.8.41-1.32.41-.69,0-1.27-.24-1.73-.73-.46-.48-.72-1.18-.77-2.09h6.19c0-.17,0-.29,0-.38,0-1.37-.35-2.43-1.05-3.19-.7-.75-1.61-1.13-2.72-1.13s-2.08.39-2.8,1.16c-.72.77-1.08,1.85-1.08,3.25s.36,2.4,1.07,3.14c.71.75,1.67,1.12,2.89,1.12.96,0,1.75-.23,2.38-.7.62-.47,1.04-1.13,1.27-1.98l-1.45-.18c-.21.59-.5,1.03-.87,1.3M847.25,208.44c-.21,0-.37-.03-.48-.1-.11-.07-.19-.16-.24-.27-.05-.11-.07-.37-.07-.77v-4.85h1.41v-1.09h-1.41v-2.9l-1.4.84v2.05h-1.03v1.09h1.03v4.77c0,.84.06,1.4.17,1.66.11.26.31.48.59.64.28.16.68.24,1.19.24.31,0,.67-.04,1.06-.13l-.2-1.24c-.26.04-.46.05-.62.05M837.69,202.96c.44-.43.98-.65,1.63-.65.71,0,1.29.27,1.74.81.29.35.47.87.53,1.57h-4.63c.05-.72.29-1.3.73-1.73M840.71,208.26c-.36.27-.8.41-1.32.41-.69,0-1.27-.24-1.73-.73-.46-.48-.72-1.18-.77-2.09h6.19c0-.17,0-.29,0-.38,0-1.37-.35-2.43-1.05-3.19-.7-.75-1.61-1.13-2.72-1.13s-2.08.39-2.8,1.16c-.72.77-1.08,1.85-1.08,3.25s.36,2.4,1.07,3.14c.71.75,1.67,1.12,2.89,1.12.96,0,1.75-.23,2.37-.7.62-.47,1.04-1.13,1.27-1.98l-1.45-.18c-.21.59-.5,1.03-.87,1.3M828.56,203.08c.42-.51.94-.77,1.57-.77s1.18.27,1.62.8c.44.53.66,1.36.66,2.5,0,1.03-.22,1.8-.64,2.3-.43.5-.95.75-1.57.75s-1.14-.26-1.59-.79c-.45-.53-.67-1.32-.67-2.38s.21-1.9.63-2.41M833.69,209.64v-11.45h-1.4v4.11c-.25-.34-.56-.61-.95-.82-.39-.21-.84-.32-1.34-.32-.68,0-1.3.18-1.85.54-.55.36-.97.88-1.24,1.55-.28.67-.41,1.43-.41,2.25s.15,1.6.46,2.25c.3.65.73,1.16,1.29,1.53.55.36,1.16.55,1.82.55,1.02,0,1.79-.41,2.32-1.23v1.05h1.3M820.56,208.44c-.21,0-.37-.03-.48-.1-.11-.07-.19-.16-.24-.27-.05-.11-.07-.37-.07-.77v-4.85h1.41v-1.09h-1.41v-2.9l-1.4.84v2.05h-1.03v1.09h1.03v4.77c0,.84.06,1.4.17,1.66.11.26.31.48.59.64.28.16.68.24,1.19.24.31,0,.67-.04,1.06-.13l-.2-1.24c-.26.04-.46.05-.62.05M810.83,203.11c.46-.53,1.05-.79,1.75-.79s1.27.26,1.74.79c.47.53.7,1.31.7,2.33,0,1.09-.23,1.9-.7,2.43-.46.53-1.04.8-1.74.8s-1.29-.26-1.75-.79c-.46-.53-.7-1.32-.7-2.39s.23-1.86.7-2.38M809.76,208.71c.72.74,1.66,1.12,2.82,1.12.72,0,1.39-.17,2-.51.61-.34,1.08-.81,1.4-1.43.32-.61.48-1.45.48-2.52,0-1.32-.36-2.35-1.09-3.1-.72-.75-1.66-1.12-2.8-1.12-1.03,0-1.9.31-2.61.92-.85.74-1.28,1.88-1.28,3.41,0,1.4.36,2.47,1.07,3.22M799.27,209.64v-9l6.02,9h1.55v-11.45h-1.45v8.99l-6.02-8.99h-1.55v11.45h1.45"/>
    <polyline points="782.6 209.4 770.6 209.4 770.6 197.4 782.6 197.4 782.6 209.4" style="fill: #d3d3d3;"/>
    <path d="M812.58,202.32c-.7,0-1.29.26-1.75.79-.46.53-.7,1.32-.7,2.38s.23,1.86.7,2.39c.46.53,1.05.79,1.75.79s1.28-.27,1.74-.8c.46-.53.7-1.34.7-2.43,0-1.03-.23-1.8-.7-2.33-.47-.53-1.05-.79-1.74-.79M830.13,202.32c-.62,0-1.15.25-1.57.77-.42.51-.63,1.32-.63,2.41s.22,1.86.67,2.38c.45.53.98.79,1.59.79s1.14-.25,1.57-.75c.43-.5.64-1.27.64-2.3,0-1.14-.22-1.97-.66-2.5-.44-.53-.98-.8-1.62-.8M901.28,202.32c-.63,0-1.15.25-1.57.77-.42.51-.63,1.32-.63,2.41s.22,1.86.67,2.38c.45.53.98.79,1.59.79s1.14-.25,1.57-.75c.43-.5.64-1.27.64-2.3,0-1.14-.22-1.97-.66-2.5-.44-.53-.98-.8-1.62-.8M839.32,202.31c-.65,0-1.19.22-1.63.65-.44.43-.68,1.01-.73,1.73h4.63c-.06-.7-.24-1.22-.53-1.57-.45-.54-1.03-.81-1.74-.81M852.66,202.31c-.65,0-1.19.22-1.63.65-.44.43-.68,1.01-.73,1.73h4.63c-.06-.7-.24-1.22-.53-1.57-.45-.54-1.03-.81-1.74-.81M892.67,202.31c-.65,0-1.19.22-1.63.65-.44.43-.68,1.01-.73,1.73h4.63c-.06-.7-.24-1.22-.53-1.57-.45-.54-1.03-.81-1.74-.81M876.8,209.64v-8.3h1.41v8.3h-1.41M812.58,209.83c-1.16,0-2.1-.37-2.82-1.12-.72-.74-1.07-1.82-1.07-3.22,0-1.54.43-2.67,1.28-3.41.71-.61,1.58-.92,2.61-.92,1.14,0,2.07.37,2.8,1.12.72.75,1.09,1.78,1.09,3.1,0,1.07-.16,1.91-.48,2.52-.32.61-.79,1.09-1.4,1.43-.61.34-1.28.51-2,.51M839.38,209.83c-1.21,0-2.18-.37-2.89-1.12-.71-.75-1.07-1.8-1.07-3.14s.36-2.48,1.08-3.25c.72-.77,1.65-1.16,2.8-1.16s2.02.38,2.72,1.13c.7.76,1.05,1.82,1.05,3.19,0,.08,0,.21,0,.38h-6.19c.05.91.31,1.61.77,2.09.46.48,1.04.73,1.73.73.52,0,.96-.14,1.32-.41.36-.27.65-.7.87-1.3l1.45.18c-.23.85-.65,1.51-1.27,1.98-.62.47-1.41.7-2.37.7M852.73,209.83c-1.21,0-2.18-.37-2.89-1.12-.71-.75-1.07-1.8-1.07-3.14s.36-2.48,1.08-3.25c.72-.77,1.65-1.16,2.8-1.16s2.02.38,2.72,1.13c.7.76,1.05,1.82,1.05,3.19,0,.08,0,.21,0,.38h-6.19c.05.91.31,1.61.77,2.09.46.48,1.04.73,1.73.73.52,0,.96-.14,1.32-.41.36-.27.65-.7.87-1.3l1.45.18c-.23.85-.65,1.51-1.27,1.98-.62.47-1.41.7-2.38.7M859.39,202.6c.32-.59.62-.98.89-1.16s.57-.28.9-.28c.47,0,.96.15,1.45.45l-.48,1.3c-.34-.2-.69-.3-1.03-.3-.31,0-.58.09-.83.28-.25.18-.42.44-.52.77-.16.5-.23,1.05-.23,1.64v4.34h-1.41v-8.3h1.27v1.26M869.58,202.61c.66-.97,1.51-1.45,2.56-1.45.82,0,1.46.23,1.9.68.44.46.66,1.16.66,2.11v5.7h-1.4v-5.23c0-.56-.05-.97-.14-1.21-.09-.25-.26-.45-.5-.6-.24-.15-.52-.23-.84-.23-.58,0-1.07.19-1.45.58-.39.39-.58,1.01-.58,1.86v4.82h-1.41v-5.39c0-.63-.11-1.09-.34-1.41-.23-.31-.6-.47-1.13-.47-.4,0-.76.1-1.1.31-.34.21-.58.51-.73.91-.15.4-.23.98-.23,1.73v4.3h-1.41v-8.3h1.26v1.16c.26-.41.61-.73,1.04-.98.43-.25.92-.37,1.48-.37.61,0,1.12.13,1.51.38.39.26.67.61.83,1.07M881.62,202.52c.61-.91,1.49-1.37,2.64-1.37.5,0,.96.09,1.38.27.42.18.73.42.94.71.21.29.35.64.44,1.04.05.26.08.72.08,1.37v5.1h-1.41v-5.05c0-.57-.05-1-.16-1.29s-.3-.51-.58-.68c-.28-.17-.61-.25-.98-.25-.6,0-1.12.19-1.55.57-.44.38-.65,1.1-.65,2.16v4.53h-1.41v-8.3h1.27v1.18M892.73,209.83c-1.21,0-2.18-.37-2.89-1.12-.71-.75-1.07-1.8-1.07-3.14s.36-2.48,1.08-3.25c.72-.77,1.65-1.16,2.8-1.16s2.02.38,2.72,1.13c.7.76,1.05,1.82,1.05,3.19,0,.08,0,.21,0,.38h-6.19c.05.91.31,1.61.77,2.09.46.48,1.04.73,1.73.73.52,0,.96-.14,1.32-.41.36-.27.65-.7.87-1.3l1.45.18c-.23.85-.65,1.51-1.27,1.98-.62.47-1.41.7-2.37.7M817.33,202.44v-1.09h1.03v-2.05l1.4-.84v2.9h1.41v1.09h-1.41v4.85c0,.4.02.66.07.77.05.11.13.21.24.27.11.07.27.1.48.1.16,0,.36-.02.62-.05l.2,1.24c-.4.08-.75.13-1.06.13-.51,0-.91-.08-1.19-.24-.28-.16-.48-.37-.59-.64-.11-.26-.17-.82-.17-1.66v-4.77h-1.03M844.02,202.44v-1.09h1.03v-2.05l1.4-.84v2.9h1.41v1.09h-1.41v4.85c0,.4.02.66.07.77.05.11.13.21.24.27.11.07.27.1.48.1.16,0,.36-.02.62-.05l.2,1.24c-.4.08-.75.13-1.06.13-.51,0-.91-.08-1.19-.24-.28-.16-.48-.37-.59-.64-.11-.26-.17-.82-.17-1.66v-4.77h-1.03M805.39,207.18v-8.99h1.45v11.45h-1.55l-6.02-9v9h-1.45v-11.45h1.55l6.02,8.99M832.29,202.3v-4.11h1.4v11.45h-1.3v-1.05c-.53.82-1.3,1.23-2.32,1.23-.66,0-1.27-.18-1.82-.55-.55-.36-.98-.87-1.29-1.53-.3-.65-.46-1.41-.46-2.25s.14-1.58.41-2.25c.28-.67.69-1.19,1.24-1.55.55-.36,1.17-.54,1.85-.54.5,0,.95.11,1.34.32.39.21.71.49.95.82M876.8,199.8v-1.62h1.41v1.62h-1.41M903.44,202.3v-4.11h1.4v11.45h-1.3v-1.05c-.53.82-1.3,1.23-2.32,1.23-.66,0-1.27-.18-1.82-.55s-.98-.87-1.29-1.53c-.3-.65-.46-1.41-.46-2.25s.14-1.58.41-2.25c.28-.67.69-1.19,1.24-1.55.55-.36,1.17-.54,1.85-.54.5,0,.95.11,1.34.32.39.21.71.49.95.82M770.6,209.4v-12h12v12h-12M905.99,191.5h0s-149.39,0-149.39,0v23.8h149.39v-23.8" style="fill: #fff;"/>
    <polyline points="905.99 191.5 756.6 191.5 756.6 191.5 905.99 191.5 905.99 191.5" style="fill: #fff;"/>
    <path d="M878.21,201.34h-1.41v8.3h1.41v-8.3M812.58,208.67c-.7,0-1.29-.26-1.75-.79-.46-.53-.7-1.32-.7-2.39s.23-1.86.7-2.38c.46-.53,1.05-.79,1.75-.79s1.27.26,1.74.79c.47.53.7,1.31.7,2.33,0,1.09-.23,1.9-.7,2.43-.46.53-1.04.8-1.74.8M812.58,201.16c-1.03,0-1.9.31-2.61.92-.85.74-1.28,1.88-1.28,3.41,0,1.4.36,2.47,1.07,3.22.72.74,1.66,1.12,2.82,1.12.72,0,1.39-.17,2-.51.61-.34,1.08-.81,1.4-1.43.32-.61.48-1.45.48-2.52,0-1.32-.36-2.35-1.09-3.1-.72-.75-1.66-1.12-2.8-1.12M836.96,204.69c.05-.72.29-1.3.73-1.73.44-.43.98-.65,1.63-.65.71,0,1.29.27,1.74.81.29.35.47.87.53,1.57h-4.63M839.3,201.16c-1.15,0-2.08.39-2.8,1.16-.72.77-1.08,1.85-1.08,3.25s.36,2.4,1.07,3.14c.71.75,1.67,1.12,2.89,1.12.96,0,1.75-.23,2.37-.7.62-.47,1.04-1.13,1.27-1.98l-1.45-.18c-.21.59-.5,1.03-.87,1.3-.36.27-.8.41-1.32.41-.69,0-1.27-.24-1.73-.73-.46-.48-.72-1.18-.77-2.09h6.19c0-.17,0-.29,0-.38,0-1.37-.35-2.43-1.05-3.19-.7-.75-1.61-1.13-2.72-1.13M850.3,204.69c.05-.72.29-1.3.73-1.73.44-.43.98-.65,1.63-.65.71,0,1.29.27,1.74.81.29.35.47.87.53,1.57h-4.63M852.65,201.16c-1.15,0-2.08.39-2.8,1.16-.72.77-1.08,1.85-1.08,3.25s.36,2.4,1.07,3.14c.71.75,1.67,1.12,2.89,1.12.96,0,1.75-.23,2.38-.7.62-.47,1.04-1.13,1.27-1.98l-1.45-.18c-.21.59-.5,1.03-.87,1.3-.36.27-.8.41-1.32.41-.69,0-1.27-.24-1.73-.73-.46-.48-.72-1.18-.77-2.09h6.19c0-.17,0-.29,0-.38,0-1.37-.35-2.43-1.05-3.19-.7-.75-1.61-1.13-2.72-1.13M861.19,201.16c-.33,0-.63.09-.9.28s-.57.58-.89,1.16v-1.26h-1.27v8.3h1.41v-4.34c0-.59.08-1.14.23-1.64.1-.33.28-.59.52-.77.24-.18.52-.28.83-.28.34,0,.69.1,1.03.3l.48-1.3c-.49-.3-.97-.45-1.45-.45M872.15,201.16c-1.05,0-1.91.48-2.56,1.45-.16-.46-.44-.82-.83-1.07-.39-.25-.9-.38-1.51-.38-.55,0-1.04.12-1.48.37-.43.25-.78.57-1.04.98v-1.16h-1.26v8.3h1.41v-4.3c0-.75.08-1.33.23-1.73.15-.4.39-.71.73-.91.34-.21.7-.31,1.1-.31.52,0,.9.16,1.13.47.23.31.34.78.34,1.41v5.39h1.41v-4.82c0-.85.19-1.48.58-1.86.39-.39.87-.58,1.45-.58.32,0,.6.08.84.23.24.15.4.35.5.6.09.25.14.65.14,1.21v5.23h1.4v-5.7c0-.95-.22-1.65-.66-2.11-.44-.46-1.08-.68-1.9-.68M884.26,201.16c-1.15,0-2.03.46-2.64,1.37v-1.18h-1.27v8.3h1.41v-4.53c0-1.06.22-1.78.65-2.16.43-.38.95-.57,1.55-.57.38,0,.7.08.98.25.28.17.47.4.58.68s.16.71.16,1.29v5.05h1.41v-5.1c0-.65-.03-1.11-.08-1.37-.08-.4-.23-.75-.44-1.04-.21-.29-.52-.53-.94-.71-.42-.18-.88-.27-1.38-.27M890.31,204.69c.05-.72.29-1.3.73-1.73.44-.43.98-.65,1.63-.65.71,0,1.29.27,1.74.81.29.35.47.87.53,1.57h-4.63M892.65,201.16c-1.15,0-2.08.39-2.8,1.16-.72.77-1.08,1.85-1.08,3.25s.36,2.4,1.07,3.14c.71.75,1.67,1.12,2.89,1.12.96,0,1.75-.23,2.37-.7.62-.47,1.04-1.13,1.27-1.98l-1.45-.18c-.21.59-.5,1.03-.87,1.3-.36.27-.8.41-1.32.41-.69,0-1.27-.24-1.73-.73-.46-.48-.72-1.18-.77-2.09h6.19c0-.17,0-.29,0-.38,0-1.37-.35-2.43-1.05-3.19-.7-.75-1.61-1.13-2.72-1.13M819.76,198.44l-1.4.84v2.05h-1.03v1.09h1.03v4.77c0,.84.06,1.4.17,1.66.11.26.31.48.59.64.28.16.68.24,1.19.24.31,0,.67-.04,1.06-.13l-.2-1.24c-.26.04-.46.05-.62.05-.21,0-.37-.03-.48-.1-.11-.07-.19-.16-.24-.27-.05-.11-.07-.37-.07-.77v-4.85h1.41v-1.09h-1.41v-2.9M846.45,198.44l-1.4.84v2.05h-1.03v1.09h1.03v4.77c0,.84.06,1.4.17,1.66.11.26.31.48.59.64.28.16.68.24,1.19.24.31,0,.67-.04,1.06-.13l-.2-1.24c-.26.04-.46.05-.62.05-.21,0-.37-.03-.48-.1-.11-.07-.19-.16-.24-.27-.05-.11-.07-.37-.07-.77v-4.85h1.41v-1.09h-1.41v-2.9M806.84,198.19h-1.45v8.99l-6.02-8.99h-1.55v11.45h1.45v-9l6.02,9h1.55v-11.45M830.19,208.67c-.61,0-1.14-.26-1.59-.79-.45-.53-.67-1.32-.67-2.38s.21-1.9.63-2.41c.42-.51.94-.77,1.57-.77s1.18.27,1.62.8c.44.53.66,1.36.66,2.5,0,1.03-.22,1.8-.64,2.3-.43.5-.95.75-1.57.75M833.69,198.19h-1.4v4.11c-.25-.34-.56-.61-.95-.82-.39-.21-.84-.32-1.34-.32-.68,0-1.3.18-1.85.54-.55.36-.97.88-1.24,1.55-.28.67-.41,1.43-.41,2.25s.15,1.6.46,2.25c.3.65.73,1.16,1.29,1.53.55.36,1.16.55,1.82.55,1.02,0,1.79-.41,2.32-1.23v1.05h1.3v-11.45M878.21,198.19h-1.41v1.62h1.41v-1.62M901.34,208.67c-.61,0-1.14-.26-1.59-.79-.45-.53-.67-1.32-.67-2.38s.21-1.9.63-2.41c.42-.51.94-.77,1.57-.77s1.18.27,1.62.8c.44.53.66,1.36.66,2.5,0,1.03-.21,1.8-.64,2.3-.43.5-.95.75-1.57.75M904.83,198.19h-1.4v4.11c-.25-.34-.56-.61-.95-.82-.39-.21-.84-.32-1.34-.32-.68,0-1.3.18-1.85.54-.55.36-.97.88-1.24,1.55-.28.67-.41,1.43-.41,2.25s.15,1.6.46,2.25c.3.65.73,1.16,1.29,1.53s1.16.55,1.82.55c1.02,0,1.79-.41,2.32-1.23v1.05h1.3v-11.45"/>
    <polyline points="782.6 197.4 770.6 197.4 770.6 209.4 782.6 209.4 782.6 197.4" style="fill: #d3d3d3;"/>
  </g>
  <path d="M518.76,767.98v-5.39c0-.77.09-1.38.28-1.82.19-.44.5-.79.93-1.04.44-.26.9-.38,1.4-.38.66,0,1.17.19,1.54.57.36.38.54.99.54,1.82v6.24h1.67v-6.24c0-.96-.12-1.7-.35-2.21-.23-.51-.62-.91-1.16-1.19-.54-.29-1.17-.43-1.9-.43-1.19,0-2.17.45-2.95,1.35v-4.88h-1.67v13.6h1.67ZM514.72,766.55c-.25,0-.44-.04-.57-.12-.13-.08-.23-.19-.29-.33-.06-.14-.09-.44-.09-.92v-5.76h1.68v-1.3h-1.68v-3.44l-1.66,1v2.44h-1.22v1.3h1.22v5.67c0,1,.07,1.66.2,1.97.14.31.37.56.71.76.33.19.8.29,1.41.29.37,0,.79-.05,1.26-.15l-.24-1.48c-.3.04-.55.07-.73.07ZM502.91,767.98v-5.38c0-1.26.26-2.12.77-2.57.52-.45,1.13-.68,1.84-.68.45,0,.83.1,1.16.3.33.2.56.47.69.81.13.34.19.85.19,1.53v5.99h1.67v-6.06c0-.77-.03-1.31-.09-1.62-.1-.48-.27-.89-.52-1.23-.25-.35-.62-.63-1.12-.84-.5-.21-1.04-.32-1.64-.32-1.37,0-2.41.54-3.14,1.62v-1.4h-1.5v9.85h1.67ZM492.6,760.22c.55-.62,1.24-.94,2.08-.94s1.51.31,2.06.94c.55.63.83,1.55.83,2.77,0,1.29-.28,2.25-.83,2.89-.55.63-1.24.95-2.07.95s-1.53-.31-2.08-.94c-.55-.63-.83-1.57-.83-2.83s.27-2.21.83-2.83ZM491.33,766.88c.85.88,1.97,1.33,3.34,1.33.86,0,1.65-.2,2.38-.6.73-.4,1.28-.97,1.66-1.69.38-.73.57-1.72.57-2.99,0-1.56-.43-2.79-1.29-3.68-.86-.89-1.97-1.33-3.32-1.33-1.22,0-2.25.37-3.1,1.09-1.01.88-1.52,2.23-1.52,4.05,0,1.66.43,2.94,1.28,3.82ZM476.74,767.98v-11.58l3.93,11.58h1.62l3.95-11.38v11.38h1.73v-13.6h-2.42l-3.26,9.46c-.33.96-.57,1.69-.72,2.18-.14-.45-.35-1.12-.65-2.01l-3.22-9.63h-2.71v13.6h1.73Z"/>
  <path d="M22.57,304.69c.53-.67.8-1.65.8-2.93,0-.77-.13-1.47-.4-2.08-.27-.61-.65-1.08-1.14-1.41-.49-.32-1.02-.49-1.57-.49s-1.04.13-1.43.4c-.38.27-.68.63-.88,1.1-.2.47-.46,1.29-.77,2.47-.22.82-.37,1.31-.43,1.48-.12.29-.27.5-.45.64-.17.14-.37.2-.58.2-.34,0-.64-.16-.89-.49-.25-.33-.38-.88-.38-1.64,0-.65.14-1.15.43-1.51.28-.36.68-.57,1.19-.65l-.22-1.63c-.64.11-1.15.3-1.53.58-.38.28-.68.71-.9,1.29-.22.58-.33,1.26-.33,2.04,0,.51.07.99.2,1.44.13.45.3.8.49,1.06.25.35.56.62.93.82.37.2.78.3,1.22.3.48,0,.92-.12,1.32-.37.4-.24.71-.6.94-1.08.23-.47.49-1.32.8-2.55.23-.91.42-1.48.57-1.71.22-.33.51-.49.89-.49.42,0,.79.19,1.1.56.31.37.47.94.47,1.71s-.18,1.35-.53,1.78c-.35.42-.86.68-1.52.77l.26,1.65c1.05-.19,1.83-.61,2.37-1.28ZM15.21,313.74c-.51-.52-.77-1.17-.77-1.93,0-.85.32-1.54.96-2.07.41-.35,1.04-.56,1.86-.63v5.5c-.86-.06-1.55-.34-2.06-.87ZM21.51,310.16c.32.43.48.96.48,1.57,0,.82-.29,1.51-.86,2.06-.57.55-1.4.86-2.49.92v-7.35c-.2,0-.35,0-.45,0-1.63,0-2.89.42-3.79,1.25-.9.83-1.34,1.91-1.34,3.23s.46,2.47,1.37,3.32,2.2,1.28,3.86,1.28,2.85-.42,3.73-1.27c.89-.84,1.33-1.99,1.33-3.43,0-1.14-.28-2.08-.83-2.82-.56-.74-1.34-1.24-2.35-1.51l-.21,1.73c.71.25,1.22.6,1.54,1.03ZM21.39,319.78c.4.44.6.99.6,1.64,0,.82-.3,1.48-.9,1.99-.6.51-1.56.76-2.88.76s-2.26-.26-2.86-.79c-.6-.53-.9-1.21-.9-2.05,0-.56.17-1.03.5-1.42.33-.39.83-.67,1.49-.82l-.25-1.62c-1,.19-1.76.63-2.31,1.31-.54.68-.81,1.56-.81,2.63,0,.85.2,1.63.6,2.35.4.72,1,1.26,1.79,1.61s1.73.53,2.79.53c1.64,0,2.91-.41,3.79-1.23.88-.82,1.32-1.9,1.32-3.25,0-1.08-.32-1.98-.96-2.72-.64-.74-1.53-1.2-2.66-1.38l-.21,1.64c.84.12,1.45.4,1.86.83ZM23.15,334.27h-5.38c-1.26,0-2.12-.26-2.57-.77-.45-.52-.68-1.13-.68-1.84,0-.45.1-.83.3-1.16.2-.33.47-.56.81-.69.34-.13.85-.19,1.53-.19h5.99v-1.67h-6.06c-.77,0-1.31.03-1.62.09-.48.1-.89.27-1.23.52-.35.25-.63.62-.84,1.12-.21.5-.32,1.04-.32,1.64,0,1.37.54,2.41,1.62,3.14h-1.4v1.5h9.85v-1.67ZM15.21,344.38c-.51-.52-.77-1.17-.77-1.93,0-.85.32-1.54.96-2.07.41-.35,1.04-.56,1.86-.63v5.5c-.86-.06-1.55-.34-2.06-.87ZM21.51,340.79c.32.43.48.96.48,1.57,0,.82-.29,1.51-.86,2.06-.57.55-1.4.86-2.49.92v-7.35c-.2,0-.35,0-.45,0-1.63,0-2.89.42-3.79,1.25-.9.83-1.34,1.91-1.34,3.23s.46,2.47,1.37,3.32,2.2,1.28,3.86,1.28,2.85-.42,3.73-1.27c.89-.84,1.33-1.99,1.33-3.43,0-1.14-.28-2.08-.83-2.82-.56-.74-1.34-1.24-2.35-1.51l-.21,1.73c.71.25,1.22.6,1.54,1.03ZM23.15,349.12h-9.85v1.67h5.28c.84,0,1.48.09,1.93.27.44.18.79.49,1.05.93.26.44.39.91.39,1.41s-.13.92-.38,1.26c-.25.34-.6.56-1.03.67-.3.07-.89.1-1.76.1h-5.46v1.67h6.1c.71,0,1.23-.03,1.56-.1.49-.1.9-.27,1.24-.51.34-.24.62-.62.84-1.12.22-.5.33-1.05.33-1.63,0-1.32-.56-2.36-1.67-3.13h1.45v-1.49ZM15.31,365.75c-.62-.5-.92-1.12-.92-1.84s.33-1.37.99-1.91c.66-.54,1.65-.81,2.96-.81,1.23,0,2.15.26,2.75.77.6.51.9,1.13.9,1.84s-.32,1.38-.95,1.91c-.63.53-1.58.8-2.85.8s-2.26-.25-2.88-.76ZM26.92,359.69h-13.63v1.5h1.32c-1.03.7-1.54,1.66-1.54,2.88,0,.78.2,1.5.61,2.15.41.65,1,1.15,1.79,1.49.79.34,1.67.51,2.66.51,1.63,0,2.91-.42,3.84-1.27.93-.84,1.4-1.85,1.4-3.02,0-.53-.12-1.02-.36-1.49-.24-.47-.54-.83-.91-1.09h4.82v-1.67ZM15.21,376.08c-.51-.52-.77-1.17-.77-1.93,0-.85.32-1.54.96-2.07.41-.35,1.04-.56,1.86-.63v5.5c-.86-.06-1.55-.34-2.06-.87ZM21.51,372.49c.32.43.48.96.48,1.57,0,.82-.29,1.51-.86,2.06-.57.55-1.4.86-2.49.92v-7.35c-.2,0-.35,0-.45,0-1.63,0-2.89.42-3.79,1.25-.9.83-1.34,1.91-1.34,3.23s.46,2.47,1.37,3.32,2.2,1.28,3.86,1.28,2.85-.42,3.73-1.27c.89-.84,1.33-1.99,1.33-3.43,0-1.14-.28-2.08-.83-2.82-.56-.74-1.34-1.24-2.35-1.51l-.21,1.73c.71.25,1.22.6,1.54,1.03ZM22.57,387.09c.53-.67.8-1.65.8-2.93,0-.77-.13-1.47-.4-2.08-.27-.61-.65-1.08-1.14-1.41-.49-.32-1.02-.49-1.57-.49s-1.04.13-1.43.4c-.38.27-.68.63-.88,1.1-.2.47-.46,1.29-.77,2.47-.22.82-.37,1.31-.43,1.48-.12.29-.27.5-.45.64-.17.14-.37.2-.58.2-.34,0-.64-.16-.89-.49-.25-.33-.38-.88-.38-1.64,0-.65.14-1.15.43-1.51.28-.36.68-.57,1.19-.65l-.22-1.63c-.64.11-1.15.3-1.53.58-.38.28-.68.71-.9,1.29-.22.58-.33,1.26-.33,2.04,0,.51.07.99.2,1.44.13.45.3.8.49,1.06.25.35.56.62.93.82.37.2.78.3,1.22.3.48,0,.92-.12,1.32-.37.4-.24.71-.6.94-1.08.23-.47.49-1.32.8-2.55.23-.91.42-1.48.57-1.71.22-.33.51-.49.89-.49.42,0,.79.19,1.1.56.31.37.47.94.47,1.71s-.18,1.35-.53,1.78c-.35.42-.86.68-1.52.77l.26,1.65c1.05-.19,1.83-.61,2.37-1.28ZM23.15,396.21h-8.55v-1.92h-1.3v1.92h-.91c-.59,0-1-.1-1.21-.32-.22-.21-.33-.57-.33-1.08,0-.31.03-.64.09-.98l-1.46-.25c-.11.57-.17,1.09-.17,1.56,0,.73.13,1.3.4,1.7.27.41.62.69,1.05.85.32.12.81.18,1.48.18h1.05v1.48h1.3v-1.48h8.55v-1.66ZM15.39,406.91c-.62-.55-.94-1.24-.94-2.08s.31-1.51.94-2.06c.63-.55,1.55-.83,2.77-.83,1.29,0,2.25.28,2.89.83.63.55.95,1.24.95,2.07s-.31,1.53-.94,2.08c-.63.55-1.57.83-2.83.83s-2.21-.27-2.83-.83ZM22.04,408.18c.88-.85,1.33-1.97,1.33-3.34,0-.86-.2-1.65-.6-2.38-.4-.73-.97-1.28-1.69-1.66-.73-.38-1.72-.57-2.99-.57-1.56,0-2.79.43-3.68,1.29-.89.86-1.33,1.97-1.33,3.32,0,1.22.37,2.25,1.09,3.1.88,1.01,2.23,1.52,4.05,1.52,1.66,0,2.94-.43,3.82-1.28ZM23.15,418.79h-5.16c-.71,0-1.35-.09-1.95-.28-.39-.12-.69-.33-.91-.62-.22-.29-.33-.62-.33-.98,0-.41.12-.82.36-1.22l-1.55-.58c-.36.58-.54,1.15-.54,1.72,0,.39.11.75.33,1.07.22.32.68.68,1.38,1.06h-1.49v1.5h9.85v-1.67ZM15.21,428.88c-.51-.52-.77-1.17-.77-1.93,0-.85.32-1.54.96-2.07.41-.35,1.04-.56,1.86-.63v5.5c-.86-.06-1.55-.34-2.06-.87ZM21.51,425.29c.32.43.48.96.48,1.57,0,.82-.29,1.51-.86,2.06-.57.55-1.4.86-2.49.92v-7.35c-.2,0-.35,0-.45,0-1.63,0-2.89.42-3.79,1.25-.9.83-1.34,1.91-1.34,3.23s.46,2.47,1.37,3.32,2.2,1.28,3.86,1.28,2.85-.42,3.73-1.27c.89-.84,1.33-1.99,1.33-3.43,0-1.14-.28-2.08-.83-2.82-.56-.74-1.34-1.24-2.35-1.51l-.21,1.73c.71.25,1.22.6,1.54,1.03ZM15.4,439.25c-.63-.53-.95-1.16-.95-1.89s.31-1.34.92-1.85c.61-.51,1.56-.77,2.85-.77s2.2.27,2.83.8c.63.53.95,1.16.95,1.89,0,.9-.43,1.61-1.29,2.13-.53.32-1.38.48-2.56.48s-2.12-.27-2.75-.8ZM21.91,440.03c.97-.66,1.46-1.57,1.46-2.74s-.46-2.17-1.38-3.01c-.92-.83-2.23-1.25-3.91-1.25-.71,0-1.38.1-2,.3-.62.2-1.16.47-1.6.82-.44.35-.79.79-1.03,1.34-.24.54-.37,1.12-.37,1.72,0,1.09.44,1.99,1.33,2.7h-4.85v1.67h13.6v-1.55h-1.23ZM23.15,455.73h-5.11c-.9,0-1.58-.09-2.06-.27-.48-.18-.84-.47-1.08-.87-.25-.4-.37-.83-.37-1.3,0-.62.19-1.06.56-1.34.37-.27.93-.41,1.67-.41h6.4v-1.67h-5.72c-1.01,0-1.75-.23-2.21-.69-.46-.46-.69-1.03-.69-1.73,0-.38.09-.72.27-1,.18-.28.42-.48.71-.59.29-.11.77-.16,1.44-.16h6.21v-1.66h-6.76c-1.12,0-1.96.26-2.5.79-.54.53-.81,1.28-.81,2.25,0,1.25.58,2.26,1.73,3.04-.54.19-.97.52-1.27.99-.3.47-.45,1.07-.45,1.79,0,.66.15,1.24.44,1.75.29.51.68.92,1.16,1.23h-1.38v1.49h9.85v-1.67ZM23.15,460.02h-9.85v1.67h5.28c.84,0,1.48.09,1.93.27.44.18.79.49,1.05.93.26.44.39.91.39,1.41s-.13.92-.38,1.26c-.25.34-.6.56-1.03.67-.3.07-.89.1-1.76.1h-5.46v1.67h6.1c.71,0,1.23-.03,1.56-.1.49-.1.9-.27,1.24-.51.34-.24.62-.62.84-1.12.22-.5.33-1.05.33-1.63,0-1.32-.56-2.36-1.67-3.13h1.45v-1.49ZM23.15,479.77h-10.69l10.69-7.14v-1.85h-13.6v1.73h10.68l-10.68,7.14v1.85h13.6v-1.73Z"/>
</svg>