<?xml version="1.0" encoding="UTF-8"?>
<svg id="Layer_1" data-name="Layer 1" xmlns="http://www.w3.org/2000/svg" width="875.12" height="691.83" xmlns:xlink="http://www.w3.org/1999/xlink" viewBox="0 0 875.12 691.83">
  <defs>
    <clipPath id="clippath">
      <polyline points="92.32 .92 872.32 .92 872.32 620.92 92.32 620.92 92.32 .92" style="fill: none;"/>
    </clipPath>
  </defs>
  <polyline points="92.32 513.65 872.32 513.65 872.32 512.65 92.32 512.65" style="fill: #eee;"/>
  <polyline points="92.32 405.87 872.32 405.87 872.32 404.87 92.32 404.87 92.32 405.87" style="fill: #eee;"/>
  <polyline points="92.32 298.1 872.32 298.1 872.32 297.1 92.32 297.1 92.32 298.1" style="fill: #eee;"/>
  <polyline points="92.32 190.33 872.32 190.33 872.32 189.33 92.32 189.33 92.32 190.33" style="fill: #eee;"/>
  <polyline points="92.32 82.56 872.32 82.56 872.32 81.56 92.32 81.56 92.32 82.56" style="fill: #eee;"/>
  <polyline points="92.32 621.42 872.32 621.42 872.32 620.42 92.32 620.42" style="fill: #444;"/>
  <g style="clip-path: url(#clippath);">
    <rect x="94.9" y="620.7" width="20.6" height=".22" style="fill: #aa0dfe;"/>
    <rect x="149.16" y="620.65" width="20.61" height=".27" style="fill: #aa0dfe;"/>
    <rect x="710.25" y="620.91" width="20.6" height=".01" style="fill: #aa0dfe;"/>
    <rect x="233.79" y="620.9" width="20.6" height=".02" style="fill: #aa0dfe;"/>
    <rect x="123.41" y="620.65" width="20.6" height=".27" style="fill: #aa0dfe;"/>
    <rect x="374.52" y="620.91" width="20.6" height=".01" style="fill: #aa0dfe;"/>
    <rect x="597.11" y="620.91" width="20.61" height=".01" style="fill: #aa0dfe;"/>
    <rect x="177.68" y="620.91" width="20.6" height=".01" style="fill: #aa0dfe;"/>
    <rect x="541" y="620.91" width="20.61" height=".01" style="fill: #aa0dfe;"/>
    <rect x="94.9" y="620.45" width="20.6" height=".25" style="fill: #00fdbf;"/>
    <rect x="177.68" y="620" width="20.6" height=".91" style="fill: #00fdbf;"/>
    <rect x="123.41" y="619.08" width="20.6" height="1.57" style="fill: #00fdbf;"/>
    <rect x="205.27" y="620.58" width="20.61" height=".34" style="fill: #00fdbf;"/>
    <rect x="149.16" y="618.38" width="20.61" height="2.27" style="fill: #00fdbf;"/>
    <rect x="233.79" y="620.84" width="20.6" height=".06" style="fill: #00fdbf;"/>
    <rect x="402.11" y="619.91" width="20.61" height="1.01" style="fill: #ffbaff;"/>
    <rect x="177.68" y="616.62" width="20.6" height="3.38" style="fill: #ffbaff;"/>
    <rect x="205.27" y="619.07" width="20.61" height="1.51" style="fill: #ffbaff;"/>
    <rect x="459.14" y="620.81" width="20.6" height=".11" style="fill: #ffbaff;"/>
    <rect x="513.41" y="620.91" width="20.6" height=".01" style="fill: #ffbaff;"/>
    <rect x="681.74" y="620.91" width="20.6" height=".01" style="fill: #ffbaff;"/>
    <rect x="569.52" y="620.84" width="20.6" height=".08" style="fill: #ffbaff;"/>
    <rect x="261.38" y="620.6" width="20.61" height=".32" style="fill: #ffbaff;"/>
    <rect x="289.9" y="620.76" width="20.6" height=".16" style="fill: #ffbaff;"/>
    <rect x="318.41" y="620.85" width="20.6" height=".07" style="fill: #ffbaff;"/>
    <rect x="346" y="620.91" width="20.61" height=".01" style="fill: #ffbaff;"/>
    <rect x="430.63" y="619.84" width="20.6" height="1.08" style="fill: #ffbaff;"/>
    <rect x="374.52" y="620.82" width="20.6" height=".09" style="fill: #ffbaff;"/>
    <rect x="597.11" y="620.9" width="20.61" height=".01" style="fill: #ffbaff;"/>
    <rect x="541" y="620.89" width="20.61" height=".02" style="fill: #ffbaff;"/>
    <rect x="233.79" y="620.22" width="20.6" height=".62" style="fill: #ffbaff;"/>
    <rect x="654.14" y="620.87" width="20.6" height=".05" style="fill: #ffbaff;"/>
    <rect x="484.9" y="620.26" width="20.6" height=".66" style="fill: #ffbaff;"/>
    <rect x="94.9" y="606.23" width="20.6" height="14.22" style="fill: #ffbaff;"/>
    <rect x="123.41" y="592.41" width="20.6" height="26.67" style="fill: #ffbaff;"/>
    <rect x="149.16" y="604.05" width="20.61" height="14.33" style="fill: #ffbaff;"/>
    <rect x="430.63" y="619.02" width="20.6" height=".82" style="fill: #782ab6;"/>
    <rect x="94.9" y="600.18" width="20.6" height="6.05" style="fill: #782ab6;"/>
    <rect x="289.9" y="620.72" width="20.6" height=".04" style="fill: #782ab6;"/>
    <rect x="484.9" y="620.12" width="20.6" height=".14" style="fill: #782ab6;"/>
    <rect x="205.27" y="616.05" width="20.61" height="3.02" style="fill: #782ab6;"/>
    <rect x="541" y="620.87" width="20.61" height=".02" style="fill: #782ab6;"/>
    <rect x="177.68" y="611.43" width="20.6" height="5.19" style="fill: #782ab6;"/>
    <rect x="459.14" y="620.61" width="20.6" height=".2" style="fill: #782ab6;"/>
    <rect x="737.84" y="620.91" width="20.61" height=".01" style="fill: #782ab6;"/>
    <rect x="513.41" y="620.8" width="20.6" height=".11" style="fill: #782ab6;"/>
    <rect x="710.25" y="620.9" width="20.6" height=".01" style="fill: #782ab6;"/>
    <rect x="149.16" y="595.32" width="20.61" height="8.73" style="fill: #782ab6;"/>
    <rect x="123.41" y="578.43" width="20.6" height="13.98" style="fill: #782ab6;"/>
    <rect x="654.14" y="620.83" width="20.6" height=".04" style="fill: #782ab6;"/>
    <rect x="374.52" y="620.81" width="20.6" height=".01" style="fill: #782ab6;"/>
    <rect x="402.11" y="619.29" width="20.61" height=".62" style="fill: #782ab6;"/>
    <rect x="794.87" y="620.91" width="20.61" height=".01" style="fill: #782ab6;"/>
    <rect x="597.11" y="620.87" width="20.61" height=".03" style="fill: #782ab6;"/>
    <rect x="261.38" y="620.29" width="20.61" height=".31" style="fill: #782ab6;"/>
    <rect x="569.52" y="620.75" width="20.6" height=".09" style="fill: #782ab6;"/>
    <rect x="233.79" y="619.38" width="20.6" height=".84" style="fill: #782ab6;"/>
    <rect x="681.74" y="620.9" width="20.6" height=".01" style="fill: #782ab6;"/>
    <rect x="94.9" y="600.12" width="20.6" height=".06" style="fill: #565656;"/>
    <rect x="205.27" y="615.94" width="20.61" height=".11" style="fill: #565656;"/>
    <rect x="261.38" y="620.21" width="20.61" height=".08" style="fill: #565656;"/>
    <rect x="402.11" y="619.27" width="20.61" height=".02" style="fill: #565656;"/>
    <rect x="233.79" y="619.31" width="20.6" height=".07" style="fill: #565656;"/>
    <rect x="289.9" y="620.69" width="20.6" height=".03" style="fill: #565656;"/>
    <rect x="149.16" y="595.15" width="20.61" height=".17" style="fill: #565656;"/>
    <rect x="459.14" y="620.59" width="20.6" height=".02" style="fill: #565656;"/>
    <rect x="177.68" y="611.26" width="20.6" height=".17" style="fill: #565656;"/>
    <rect x="484.9" y="620.11" width="20.6" height=".01" style="fill: #565656;"/>
    <rect x="123.41" y="578.29" width="20.6" height=".14" style="fill: #565656;"/>
    <rect x="261.38" y="620.12" width="20.61" height=".09" style="fill: #efe454;"/>
    <rect x="123.41" y="577.6" width="20.6" height=".69" style="fill: #efe454;"/>
    <rect x="205.27" y="613.73" width="20.61" height="2.21" style="fill: #efe454;"/>
    <rect x="318.41" y="620.82" width="20.6" height=".03" style="fill: #efe454;"/>
    <rect x="233.79" y="617.89" width="20.6" height="1.42" style="fill: #efe454;"/>
    <rect x="94.9" y="599.75" width="20.6" height=".37" style="fill: #efe454;"/>
    <rect x="149.16" y="594.51" width="20.61" height=".64" style="fill: #efe454;"/>
    <rect x="177.68" y="610.32" width="20.6" height=".94" style="fill: #efe454;"/>
    <rect x="289.9" y="620.65" width="20.6" height=".04" style="fill: #efe454;"/>
    <rect x="318.41" y="620.81" width="20.6" height=".01" style="fill: #16ff32;"/>
    <rect x="123.41" y="544.74" width="20.6" height="32.86" style="fill: #16ff32;"/>
    <rect x="484.9" y="620.05" width="20.6" height=".06" style="fill: #16ff32;"/>
    <rect x="233.79" y="617.86" width="20.6" height=".03" style="fill: #16ff32;"/>
    <rect x="149.16" y="581.14" width="20.61" height="13.37" style="fill: #16ff32;"/>
    <rect x="261.38" y="620.07" width="20.61" height=".05" style="fill: #16ff32;"/>
    <rect x="289.9" y="620.61" width="20.6" height=".04" style="fill: #16ff32;"/>
    <rect x="94.9" y="586.18" width="20.6" height="13.57" style="fill: #16ff32;"/>
    <rect x="430.63" y="619.01" width="20.6" height="0" style="fill: #16ff32;"/>
    <rect x="177.68" y="608.4" width="20.6" height="1.92" style="fill: #16ff32;"/>
    <rect x="205.27" y="613.49" width="20.61" height=".24" style="fill: #16ff32;"/>
    <rect x="374.52" y="620.8" width="20.6" height=".01" style="fill: #16ff32;"/>
    <rect x="625.63" y="620.91" width="20.6" height=".01" style="fill: #16ff32;"/>
    <rect x="459.14" y="620.55" width="20.6" height=".04" style="fill: #16ff32;"/>
    <rect x="346" y="620.89" width="20.61" height=".02" style="fill: #16ff32;"/>
    <rect x="205.27" y="613.47" width="20.61" height=".02" style="fill: #f7e1a0;"/>
    <rect x="94.9" y="585.94" width="20.6" height=".24" style="fill: #f7e1a0;"/>
    <rect x="233.79" y="617.85" width="20.6" height=".01" style="fill: #f7e1a0;"/>
    <rect x="123.41" y="544.03" width="20.6" height=".71" style="fill: #f7e1a0;"/>
    <rect x="149.16" y="580.88" width="20.61" height=".26" style="fill: #f7e1a0;"/>
    <rect x="654.14" y="620.82" width="20.6" height="0" style="fill: #e2e2e2;"/>
    <rect x="318.41" y="620.79" width="20.6" height=".02" style="fill: #e2e2e2;"/>
    <rect x="261.38" y="620.01" width="20.61" height=".06" style="fill: #e2e2e2;"/>
    <rect x="94.9" y="585.32" width="20.6" height=".62" style="fill: #e2e2e2;"/>
    <rect x="149.16" y="574.88" width="20.61" height="6" style="fill: #e2e2e2;"/>
    <rect x="484.9" y="620.04" width="20.6" height=".01" style="fill: #e2e2e2;"/>
    <rect x="233.79" y="617.54" width="20.6" height=".31" style="fill: #e2e2e2;"/>
    <rect x="123.41" y="541.41" width="20.6" height="2.62" style="fill: #e2e2e2;"/>
    <rect x="177.68" y="603.23" width="20.6" height="5.17" style="fill: #e2e2e2;"/>
    <rect x="205.27" y="610.82" width="20.61" height="2.65" style="fill: #e2e2e2;"/>
    <rect x="374.52" y="620.79" width="20.6" height=".01" style="fill: #e2e2e2;"/>
    <rect x="374.52" y="620.76" width="20.6" height=".03" style="fill: #f7e834;"/>
    <rect x="149.16" y="368.97" width="20.61" height="205.91" style="fill: #f7e834;"/>
    <rect x="484.9" y="620.03" width="20.6" height=".01" style="fill: #f7e834;"/>
    <rect x="459.14" y="620.54" width="20.6" height=".01" style="fill: #f7e834;"/>
    <rect x="177.68" y="309.31" width="20.6" height="293.92" style="fill: #f7e834;"/>
    <rect x="289.9" y="619.88" width="20.6" height=".73" style="fill: #f7e834;"/>
    <rect x="430.63" y="619" width="20.6" height=".01" style="fill: #f7e834;"/>
    <rect x="346" y="620.87" width="20.61" height=".02" style="fill: #f7e834;"/>
    <rect x="205.27" y="427.33" width="20.61" height="183.49" style="fill: #f7e834;"/>
    <rect x="261.38" y="617.2" width="20.61" height="2.81" style="fill: #f7e834;"/>
    <rect x="402.11" y="619.25" width="20.61" height=".02" style="fill: #f7e834;"/>
    <rect x="233.79" y="577.92" width="20.6" height="39.62" style="fill: #f7e834;"/>
    <rect x="123.41" y="483.61" width="20.6" height="57.8" style="fill: #f7e834;"/>
    <rect x="318.41" y="620.67" width="20.6" height=".12" style="fill: #f7e834;"/>
    <rect x="94.9" y="580.81" width="20.6" height="4.51" style="fill: #f7e834;"/>
    <rect x="346" y="620.83" width="20.61" height=".04" style="fill: #c4451c;"/>
    <rect x="94.9" y="580.8" width="20.6" height=".01" style="fill: #c4451c;"/>
    <rect x="149.16" y="368.55" width="20.61" height=".42" style="fill: #c4451c;"/>
    <rect x="233.79" y="576.87" width="20.6" height="1.05" style="fill: #c4451c;"/>
    <rect x="123.41" y="483.37" width="20.6" height=".24" style="fill: #c4451c;"/>
    <rect x="289.9" y="619.8" width="20.6" height=".08" style="fill: #c4451c;"/>
    <rect x="177.68" y="307.67" width="20.6" height="1.64" style="fill: #c4451c;"/>
    <rect x="261.38" y="616.3" width="20.61" height=".9" style="fill: #c4451c;"/>
    <rect x="205.27" y="425.57" width="20.61" height="1.76" style="fill: #c4451c;"/>
    <rect x="318.41" y="620.65" width="20.6" height=".02" style="fill: #c4451c;"/>
    <rect x="484.9" y="620.01" width="20.6" height=".02" style="fill: #dea0fd;"/>
    <rect x="459.14" y="620.47" width="20.6" height=".07" style="fill: #dea0fd;"/>
    <rect x="430.63" y="618.87" width="20.6" height=".13" style="fill: #dea0fd;"/>
    <rect x="402.11" y="617.76" width="20.61" height="1.49" style="fill: #dea0fd;"/>
    <rect x="374.52" y="618.34" width="20.6" height="2.42" style="fill: #dea0fd;"/>
    <rect x="346" y="619.22" width="20.61" height="1.61" style="fill: #dea0fd;"/>
    <rect x="261.38" y="614.28" width="20.61" height="2.02" style="fill: #dea0fd;"/>
    <rect x="149.16" y="368.54" width="20.61" height=".01" style="fill: #dea0fd;"/>
    <rect x="233.79" y="574.74" width="20.6" height="2.13" style="fill: #dea0fd;"/>
    <rect x="177.68" y="307.19" width="20.6" height=".48" style="fill: #dea0fd;"/>
    <rect x="289.9" y="617.46" width="20.6" height="2.34" style="fill: #dea0fd;"/>
    <rect x="318.41" y="619.64" width="20.6" height="1.01" style="fill: #dea0fd;"/>
    <rect x="205.27" y="424.37" width="20.61" height="1.2" style="fill: #dea0fd;"/>
    <rect x="149.16" y="368.49" width="20.61" height=".05" style="fill: #fe00fa;"/>
    <rect x="177.68" y="306.79" width="20.6" height=".4" style="fill: #fe00fa;"/>
    <rect x="233.79" y="574.72" width="20.6" height=".02" style="fill: #fe00fa;"/>
    <rect x="205.27" y="424.14" width="20.61" height=".23" style="fill: #fe00fa;"/>
    <rect x="123.41" y="483.35" width="20.6" height=".02" style="fill: #325a9b;"/>
    <rect x="205.27" y="424.13" width="20.61" height=".01" style="fill: #325a9b;"/>
    <rect x="149.16" y="368.46" width="20.61" height=".03" style="fill: #325a9b;"/>
    <rect x="177.68" y="304.92" width="20.6" height="1.87" style="fill: #feaf16;"/>
    <rect x="149.16" y="366.64" width="20.61" height="1.82" style="fill: #feaf16;"/>
    <rect x="123.41" y="482.87" width="20.6" height=".48" style="fill: #feaf16;"/>
    <rect x="233.79" y="574.31" width="20.6" height=".41" style="fill: #feaf16;"/>
    <rect x="318.41" y="619.63" width="20.6" height="0" style="fill: #feaf16;"/>
    <rect x="205.27" y="422.81" width="20.61" height="1.32" style="fill: #feaf16;"/>
    <rect x="94.9" y="580.76" width="20.6" height=".04" style="fill: #feaf16;"/>
    <rect x="149.16" y="366.52" width="20.61" height=".12" style="fill: #f8a19f;"/>
    <rect x="177.68" y="304.9" width="20.6" height=".02" style="fill: #f8a19f;"/>
    <rect x="233.79" y="574.3" width="20.6" height=".01" style="fill: #f8a19f;"/>
    <rect x="123.41" y="482.86" width="20.6" height=".01" style="fill: #f8a19f;"/>
    <rect x="149.16" y="366.51" width="20.61" height=".01" style="fill: #90ad1c;"/>
    <rect x="177.68" y="304.83" width="20.6" height=".07" style="fill: #90ad1c;"/>
    <rect x="123.41" y="482.85" width="20.6" height=".01" style="fill: #90ad1c;"/>
    <rect x="233.79" y="574.28" width="20.6" height=".02" style="fill: #90ad1c;"/>
    <rect x="205.27" y="422.74" width="20.61" height=".07" style="fill: #90ad1c;"/>
    <rect x="177.68" y="304.66" width="20.6" height=".17" style="fill: #f6222e;"/>
    <rect x="149.16" y="366.31" width="20.61" height=".2" style="fill: #f6222e;"/>
    <rect x="261.38" y="614.24" width="20.61" height=".04" style="fill: #f6222e;"/>
    <rect x="205.27" y="422.49" width="20.61" height=".25" style="fill: #f6222e;"/>
    <rect x="233.79" y="574.17" width="20.6" height=".11" style="fill: #f6222e;"/>
    <rect x="123.41" y="482.72" width="20.6" height=".13" style="fill: #f6222e;"/>
    <rect x="261.38" y="614.11" width="20.61" height=".13" style="fill: #1cffce;"/>
    <rect x="205.27" y="422.27" width="20.61" height=".22" style="fill: #1cffce;"/>
    <rect x="318.41" y="619.56" width="20.6" height=".07" style="fill: #1cffce;"/>
    <rect x="233.79" y="573.66" width="20.6" height=".51" style="fill: #1cffce;"/>
    <rect x="177.68" y="304.62" width="20.6" height=".04" style="fill: #1cffce;"/>
    <rect x="289.9" y="617.41" width="20.6" height=".05" style="fill: #1cffce;"/>
    <rect x="289.9" y="598.48" width="20.6" height="18.93" style="fill: #2ed9ff;"/>
    <rect x="459.14" y="620.46" width="20.6" height=".01" style="fill: #2ed9ff;"/>
    <rect x="374.52" y="608.48" width="20.6" height="9.86" style="fill: #2ed9ff;"/>
    <rect x="318.41" y="601.31" width="20.6" height="18.25" style="fill: #2ed9ff;"/>
    <rect x="149.16" y="366.3" width="20.61" height=".01" style="fill: #2ed9ff;"/>
    <rect x="233.79" y="571.69" width="20.6" height="1.97" style="fill: #2ed9ff;"/>
    <rect x="402.11" y="612.9" width="20.61" height="4.86" style="fill: #2ed9ff;"/>
    <rect x="430.63" y="617.85" width="20.6" height="1.02" style="fill: #2ed9ff;"/>
    <rect x="205.27" y="421" width="20.61" height="1.27" style="fill: #2ed9ff;"/>
    <rect x="177.68" y="304.41" width="20.6" height=".21" style="fill: #2ed9ff;"/>
    <rect x="346" y="608" width="20.61" height="11.22" style="fill: #2ed9ff;"/>
    <rect x="261.38" y="604.73" width="20.61" height="9.38" style="fill: #2ed9ff;"/>
    <rect x="484.9" y="619.92" width="20.6" height=".09" style="fill: #ef4545;"/>
    <rect x="513.41" y="620.75" width="20.6" height=".05" style="fill: #ef4545;"/>
    <rect x="569.52" y="620.74" width="20.6" height=".01" style="fill: #ef4545;"/>
    <rect x="625.63" y="620.9" width="20.6" height=".01" style="fill: #ef4545;"/>
    <rect x="654.14" y="620.73" width="20.6" height=".09" style="fill: #ef4545;"/>
    <rect x="430.63" y="560.3" width="20.6" height="57.55" style="fill: #ef4545;"/>
    <rect x="318.41" y="352.88" width="20.6" height="248.43" style="fill: #ef4545;"/>
    <rect x="374.52" y="300.18" width="20.6" height="308.3" style="fill: #ef4545;"/>
    <rect x="402.11" y="310.72" width="20.61" height="302.18" style="fill: #ef4545;"/>
    <rect x="123.41" y="482.71" width="20.6" height="0" style="fill: #ef4545;"/>
    <rect x="149.16" y="366.29" width="20.61" height=".01" style="fill: #ef4545;"/>
    <rect x="261.38" y="552.81" width="20.61" height="51.92" style="fill: #ef4545;"/>
    <rect x="205.27" y="418.65" width="20.61" height="2.35" style="fill: #ef4545;"/>
    <rect x="233.79" y="559.35" width="20.6" height="12.34" style="fill: #ef4545;"/>
    <rect x="177.68" y="304.1" width="20.6" height=".31" style="fill: #ef4545;"/>
    <rect x="346" y="403.49" width="20.61" height="204.51" style="fill: #ef4545;"/>
    <rect x="459.14" y="619.03" width="20.6" height="1.43" style="fill: #ef4545;"/>
    <rect x="289.9" y="418.06" width="20.6" height="180.42" style="fill: #ef4545;"/>
    <rect x="94.9" y="580.73" width="20.6" height=".03" style="fill: #ef4545;"/>
    <rect x="681.74" y="620.88" width="20.6" height=".02" style="fill: #4afc21;"/>
    <rect x="541" y="619.46" width="20.61" height="1.41" style="fill: #4afc21;"/>
    <rect x="318.41" y="352.87" width="20.6" height="0" style="fill: #4afc21;"/>
    <rect x="820.63" y="620.91" width="20.6" height=".01" style="fill: #4afc21;"/>
    <rect x="849.14" y="620.91" width="20.6" height=".01" style="fill: #4afc21;"/>
    <rect x="402.11" y="227.58" width="20.61" height="83.14" style="fill: #4afc21;"/>
    <rect x="374.52" y="299.5" width="20.6" height=".68" style="fill: #4afc21;"/>
    <rect x="569.52" y="620.6" width="20.6" height=".14" style="fill: #4afc21;"/>
    <rect x="654.14" y="620.63" width="20.6" height=".1" style="fill: #4afc21;"/>
    <rect x="513.41" y="608.91" width="20.6" height="11.84" style="fill: #4afc21;"/>
    <rect x="430.63" y="135.78" width="20.6" height="424.52" style="fill: #4afc21;"/>
    <rect x="597.11" y="620.83" width="20.61" height=".04" style="fill: #4afc21;"/>
    <rect x="484.9" y="502.11" width="20.6" height="117.81" style="fill: #4afc21;"/>
    <rect x="459.14" y="278.91" width="20.6" height="340.12" style="fill: #4afc21;"/>
    <rect x="625.63" y="620.88" width="20.6" height=".02" style="fill: #4afc21;"/>
    <rect x="766.36" y="620.91" width="20.6" height=".01" style="fill: #4afc21;"/>
    <rect x="346" y="403.45" width="20.61" height=".04" style="fill: #4afc21;"/>
    <rect x="710.25" y="620.24" width="20.6" height=".66" style="fill: #ff872a;"/>
    <rect x="597.11" y="614.17" width="20.61" height="6.66" style="fill: #ff872a;"/>
    <rect x="569.52" y="552.45" width="20.6" height="68.15" style="fill: #ff872a;"/>
    <rect x="794.87" y="620.27" width="20.61" height=".64" style="fill: #ff872a;"/>
    <rect x="625.63" y="620.05" width="20.6" height=".83" style="fill: #ff872a;"/>
    <rect x="820.63" y="620.68" width="20.6" height=".23" style="fill: #ff872a;"/>
    <rect x="737.84" y="620.16" width="20.61" height=".75" style="fill: #ff872a;"/>
    <rect x="459.14" y="99.6" width="20.6" height="179.31" style="fill: #ff872a;"/>
    <rect x="654.14" y="620.14" width="20.6" height=".49" style="fill: #ff872a;"/>
    <rect x="484.9" y="38.96" width="20.6" height="463.15" style="fill: #ff872a;"/>
    <rect x="430.63" y="100.6" width="20.6" height="35.18" style="fill: #ff872a;"/>
    <rect x="513.41" y="221.15" width="20.6" height="387.76" style="fill: #ff872a;"/>
    <rect x="766.36" y="620.34" width="20.6" height=".57" style="fill: #ff872a;"/>
    <rect x="681.74" y="619.96" width="20.6" height=".92" style="fill: #ff872a;"/>
    <rect x="402.11" y="227.15" width="20.61" height=".43" style="fill: #ff872a;"/>
    <rect x="541" y="364.71" width="20.61" height="254.75" style="fill: #ff872a;"/>
    <rect x="849.14" y="620.89" width="20.6" height=".02" style="fill: #ff872a;"/>
    <rect x="513.41" y="220.77" width="20.6" height=".38" style="fill: #b00068;"/>
    <rect x="402.11" y="227.04" width="20.61" height=".11" style="fill: #b00068;"/>
    <rect x="820.63" y="620.67" width="20.6" height=".01" style="fill: #b00068;"/>
    <rect x="737.84" y="620.15" width="20.61" height=".01" style="fill: #b00068;"/>
    <rect x="484.9" y="35.77" width="20.6" height="3.19" style="fill: #b00068;"/>
    <rect x="430.63" y="99.59" width="20.6" height="1.01" style="fill: #b00068;"/>
    <rect x="541" y="364.6" width="20.61" height=".11" style="fill: #b00068;"/>
    <rect x="569.52" y="552.32" width="20.6" height=".13" style="fill: #b00068;"/>
    <rect x="459.14" y="96.98" width="20.6" height="2.62" style="fill: #b00068;"/>
    <rect x="654.14" y="620.12" width="20.6" height=".02" style="fill: #b00068;"/>
    <rect x="794.87" y="620.26" width="20.61" height="0" style="fill: #b00068;"/>
    <rect x="820.63" y="620.66" width="20.6" height=".01" style="fill: #fbe426;"/>
    <rect x="569.52" y="536.09" width="20.6" height="16.23" style="fill: #fbe426;"/>
    <rect x="625.63" y="615.58" width="20.6" height="4.47" style="fill: #fbe426;"/>
    <rect x="597.11" y="601.53" width="20.61" height="12.64" style="fill: #fbe426;"/>
    <rect x="710.25" y="618.79" width="20.6" height="1.45" style="fill: #fbe426;"/>
    <rect x="654.14" y="615.94" width="20.6" height="4.18" style="fill: #fbe426;"/>
    <rect x="766.36" y="620.14" width="20.6" height=".2" style="fill: #fbe426;"/>
    <rect x="541" y="361.05" width="20.61" height="3.55" style="fill: #fbe426;"/>
    <rect x="849.14" y="620.88" width="20.6" height="0" style="fill: #fbe426;"/>
    <rect x="513.41" y="220.46" width="20.6" height=".31" style="fill: #fbe426;"/>
    <rect x="737.84" y="619.23" width="20.61" height=".92" style="fill: #fbe426;"/>
    <rect x="794.87" y="620.19" width="20.61" height=".07" style="fill: #fbe426;"/>
    <rect x="681.74" y="617.41" width="20.6" height="2.55" style="fill: #fbe426;"/>
    <rect x="459.14" y="96.97" width="20.6" height=".01" style="fill: #00faff;"/>
    <rect x="710.25" y="525.97" width="20.6" height="92.82" style="fill: #00faff;"/>
    <rect x="766.36" y="590.24" width="20.6" height="29.9" style="fill: #00faff;"/>
    <rect x="681.74" y="460.78" width="20.6" height="156.63" style="fill: #00faff;"/>
    <rect x="794.87" y="609.03" width="20.61" height="11.16" style="fill: #00faff;"/>
    <rect x="820.63" y="618.75" width="20.6" height="1.91" style="fill: #00faff;"/>
    <rect x="513.41" y="218.68" width="20.6" height="1.78" style="fill: #00faff;"/>
    <rect x="484.9" y="35.63" width="20.6" height=".14" style="fill: #00faff;"/>
    <rect x="654.14" y="467.04" width="20.6" height="148.9" style="fill: #00faff;"/>
    <rect x="849.14" y="620.59" width="20.6" height=".29" style="fill: #00faff;"/>
    <rect x="597.11" y="388.21" width="20.61" height="213.32" style="fill: #00faff;"/>
    <rect x="625.63" y="475.9" width="20.6" height="139.68" style="fill: #00faff;"/>
    <rect x="737.84" y="549.91" width="20.61" height="69.32" style="fill: #00faff;"/>
    <rect x="569.52" y="359.65" width="20.6" height="176.44" style="fill: #00faff;"/>
    <rect x="541" y="340.99" width="20.61" height="20.06" style="fill: #00faff;"/>
    <rect x="569.52" y="348.16" width="20.6" height="11.49" style="fill: #aa0dfe;"/>
    <rect x="541" y="334.87" width="20.61" height="6.12" style="fill: #aa0dfe;"/>
    <rect x="597.11" y="384.84" width="20.61" height="3.37" style="fill: #aa0dfe;"/>
    <rect x="710.25" y="525.96" width="20.6" height=".01" style="fill: #aa0dfe;"/>
    <rect x="625.63" y="475.61" width="20.6" height=".29" style="fill: #aa0dfe;"/>
    <rect x="654.14" y="467" width="20.6" height=".04" style="fill: #aa0dfe;"/>
    <rect x="513.41" y="218.3" width="20.6" height=".38" style="fill: #aa0dfe;"/>
    <rect x="849.14" y="620.29" width="20.6" height=".3" style="fill: #00fdbf;"/>
    <rect x="766.36" y="579.78" width="20.6" height="10.46" style="fill: #00fdbf;"/>
    <rect x="569.52" y="348.13" width="20.6" height=".03" style="fill: #00fdbf;"/>
    <rect x="737.84" y="539.39" width="20.61" height="10.52" style="fill: #00fdbf;"/>
    <rect x="794.87" y="601.24" width="20.61" height="7.79" style="fill: #00fdbf;"/>
    <rect x="597.11" y="384.75" width="20.61" height=".09" style="fill: #00fdbf;"/>
    <rect x="820.63" y="616.3" width="20.6" height="2.45" style="fill: #00fdbf;"/>
    <rect x="681.74" y="457.09" width="20.6" height="3.69" style="fill: #00fdbf;"/>
    <rect x="625.63" y="475.25" width="20.6" height=".36" style="fill: #00fdbf;"/>
    <rect x="654.14" y="465.66" width="20.6" height="1.34" style="fill: #00fdbf;"/>
    <rect x="710.25" y="519.77" width="20.6" height="6.19" style="fill: #00fdbf;"/>
    <rect x="820.63" y="606.38" width="20.6" height="9.92" style="fill: #ffbaff;"/>
    <rect x="766.36" y="539.93" width="20.6" height="39.85" style="fill: #ffbaff;"/>
    <rect x="737.84" y="491.17" width="20.61" height="48.22" style="fill: #ffbaff;"/>
    <rect x="849.14" y="619" width="20.6" height="1.29" style="fill: #ffbaff;"/>
    <rect x="794.87" y="573.83" width="20.61" height="27.41" style="fill: #ffbaff;"/>
    <rect x="681.74" y="446.83" width="20.6" height="10.26" style="fill: #ffbaff;"/>
    <rect x="625.63" y="475.21" width="20.6" height=".04" style="fill: #ffbaff;"/>
    <rect x="654.14" y="464.39" width="20.6" height="1.27" style="fill: #ffbaff;"/>
    <rect x="710.25" y="493.21" width="20.6" height="26.56" style="fill: #ffbaff;"/>
    <rect x="737.84" y="489.35" width="20.61" height="1.82" style="fill: #782ab6;"/>
    <rect x="820.63" y="604.92" width="20.6" height="1.46" style="fill: #782ab6;"/>
    <rect x="849.14" y="618.37" width="20.6" height=".63" style="fill: #782ab6;"/>
    <rect x="794.87" y="572.51" width="20.61" height="1.32" style="fill: #782ab6;"/>
    <rect x="710.25" y="491.8" width="20.6" height="1.41" style="fill: #782ab6;"/>
    <rect x="654.14" y="464.35" width="20.6" height=".04" style="fill: #782ab6;"/>
    <rect x="766.36" y="538.49" width="20.6" height="1.44" style="fill: #782ab6;"/>
    <rect x="681.74" y="446.48" width="20.6" height=".35" style="fill: #782ab6;"/>
    <rect x="820.63" y="568.98" width="20.6" height="35.94" style="fill: #565656;"/>
    <rect x="794.87" y="543.24" width="20.61" height="29.27" style="fill: #565656;"/>
    <rect x="849.14" y="609.03" width="20.6" height="9.34" style="fill: #565656;"/>
    <rect x="710.25" y="491.79" width="20.6" height=".01" style="fill: #565656;"/>
    <rect x="737.84" y="488.9" width="20.61" height=".45" style="fill: #565656;"/>
    <rect x="766.36" y="531.4" width="20.6" height="7.09" style="fill: #565656;"/>
    <rect x="849.14" y="608.83" width="20.6" height=".2" style="fill: #efe454;"/>
    <rect x="820.63" y="568.88" width="20.6" height=".1" style="fill: #efe454;"/>
    <rect x="794.87" y="543.22" width="20.61" height=".02" style="fill: #efe454;"/>
    <rect x="681.74" y="446.46" width="20.6" height=".02" style="fill: #16ff32;"/>
    <rect x="766.36" y="524.12" width="20.6" height="7.28" style="fill: #16ff32;"/>
    <rect x="849.14" y="607.64" width="20.6" height="1.19" style="fill: #16ff32;"/>
    <rect x="737.84" y="486.6" width="20.61" height="2.3" style="fill: #16ff32;"/>
    <rect x="710.25" y="491.47" width="20.6" height=".32" style="fill: #16ff32;"/>
    <rect x="794.87" y="531.69" width="20.61" height="11.53" style="fill: #16ff32;"/>
    <rect x="820.63" y="562.67" width="20.6" height="6.21" style="fill: #16ff32;"/>
    <rect x="766.36" y="522.96" width="20.6" height="1.16" style="fill: #f7e1a0;"/>
    <rect x="710.25" y="491.43" width="20.6" height=".04" style="fill: #f7e1a0;"/>
    <rect x="820.63" y="551.71" width="20.6" height="10.96" style="fill: #f7e1a0;"/>
    <rect x="849.14" y="603.21" width="20.6" height="4.43" style="fill: #f7e1a0;"/>
    <rect x="794.87" y="525.24" width="20.61" height="6.45" style="fill: #f7e1a0;"/>
    <rect x="737.84" y="486.5" width="20.61" height=".1" style="fill: #f7e1a0;"/>
    <rect x="820.63" y="551.51" width="20.6" height=".2" style="fill: #e2e2e2;"/>
    <rect x="766.36" y="522.94" width="20.6" height=".02" style="fill: #e2e2e2;"/>
    <rect x="794.87" y="525.09" width="20.61" height=".15" style="fill: #e2e2e2;"/>
    <rect x="849.14" y="603.05" width="20.6" height=".16" style="fill: #e2e2e2;"/>
    <rect x="849.14" y="603.04" width="20.6" height=".01" style="fill: #f7e834;"/>
    <rect x="820.63" y="551.5" width="20.6" height=".01" style="fill: #f7e834;"/>
    <rect x="513.41" y="215.11" width="20.6" height="3.19" style="fill: #dea0fd;"/>
    <rect x="402.11" y="227.03" width="20.61" height=".01" style="fill: #dea0fd;"/>
    <rect x="484.9" y="31.92" width="20.6" height="3.71" style="fill: #dea0fd;"/>
    <rect x="430.63" y="99.39" width="20.6" height=".2" style="fill: #dea0fd;"/>
    <rect x="541" y="332.35" width="20.61" height="2.52" style="fill: #dea0fd;"/>
    <rect x="794.87" y="520.86" width="20.61" height="4.23" style="fill: #dea0fd;"/>
    <rect x="569.52" y="346.53" width="20.6" height="1.6" style="fill: #dea0fd;"/>
    <rect x="597.11" y="383.8" width="20.61" height=".95" style="fill: #dea0fd;"/>
    <rect x="318.41" y="352.86" width="20.6" height=".01" style="fill: #dea0fd;"/>
    <rect x="625.63" y="474.81" width="20.6" height=".4" style="fill: #dea0fd;"/>
    <rect x="289.9" y="418.05" width="20.6" height=".01" style="fill: #dea0fd;"/>
    <rect x="710.25" y="490.93" width="20.6" height=".5" style="fill: #dea0fd;"/>
    <rect x="654.14" y="464" width="20.6" height=".35" style="fill: #dea0fd;"/>
    <rect x="233.79" y="559.34" width="20.6" height=".01" style="fill: #dea0fd;"/>
    <rect x="459.14" y="95.29" width="20.6" height="1.68" style="fill: #dea0fd;"/>
    <rect x="766.36" y="520.49" width="20.6" height="2.45" style="fill: #dea0fd;"/>
    <rect x="681.74" y="445.95" width="20.6" height=".51" style="fill: #dea0fd;"/>
    <rect x="737.84" y="485.11" width="20.61" height="1.39" style="fill: #dea0fd;"/>
    <rect x="820.63" y="548.88" width="20.6" height="2.62" style="fill: #dea0fd;"/>
    <rect x="849.14" y="602.55" width="20.6" height=".49" style="fill: #dea0fd;"/>
  </g>
  <path d="M149.09,632.83h-2.55c-.36,1-1.02,1.87-1.98,2.62-.96.75-1.85,1.26-2.67,1.53v2.85c1.56-.51,2.91-1.31,4.06-2.38v11.85h3.14v-16.47ZM132.68,646.37c.16-.28.38-.57.64-.87.26-.3.89-.9,1.89-1.81.99-.91,1.68-1.61,2.06-2.09.57-.73.99-1.43,1.26-2.1.26-.67.4-1.37.4-2.11,0-1.3-.46-2.38-1.39-3.25-.92-.87-2.2-1.31-3.81-1.31-1.48,0-2.71.38-3.69,1.13-.98.75-1.57,2-1.76,3.73l3.13.31c.06-.92.28-1.57.67-1.97.39-.39.91-.59,1.57-.59s1.18.19,1.56.57.56.92.56,1.62c0,.63-.22,1.28-.65,1.92-.32.47-1.19,1.37-2.61,2.68-1.76,1.63-2.94,2.94-3.53,3.93-.6.99-.95,2.03-1.07,3.14h11.02v-2.92h-6.24ZM121.89,635.8c.29.24.54.72.73,1.44s.29,2.04.29,3.97-.11,3.29-.32,4.09c-.16.63-.4,1.06-.69,1.3s-.64.36-1.02.36-.72-.12-1.01-.36c-.29-.24-.54-.72-.73-1.44s-.29-2.04-.29-3.97.11-3.29.32-4.11c.16-.63.4-1.06.69-1.3.3-.24.64-.36,1.02-.36s.72.12,1.01.36ZM117.17,634.5c-1.07,1.36-1.61,3.58-1.61,6.67s.49,5.33,1.47,6.56,2.26,1.84,3.86,1.84,2.83-.56,3.71-1.68c1.07-1.36,1.61-3.59,1.61-6.69s-.53-5.34-1.6-6.68c-.89-1.13-2.14-1.7-3.73-1.7s-2.83.56-3.71,1.68ZM107.2,646.37c.16-.28.38-.57.64-.87.26-.3.89-.9,1.89-1.81.99-.91,1.68-1.61,2.06-2.09.57-.73.99-1.43,1.26-2.1.26-.67.4-1.37.4-2.11,0-1.3-.46-2.38-1.39-3.25-.92-.87-2.2-1.31-3.81-1.31-1.48,0-2.71.38-3.69,1.13-.98.75-1.57,2-1.76,3.73l3.13.31c.06-.92.28-1.57.67-1.97.39-.39.91-.59,1.57-.59s1.18.19,1.56.57.56.92.56,1.62c0,.63-.22,1.28-.65,1.92-.32.47-1.19,1.37-2.61,2.68-1.76,1.63-2.94,2.94-3.53,3.93-.6.99-.95,2.03-1.07,3.14h11.02v-2.92h-6.24ZM93.94,641.91c0-.92-.06-1.62-.17-2.11-.12-.49-.32-.93-.62-1.32-.29-.39-.73-.71-1.3-.96-.57-.25-1.21-.38-1.9-.38-1.57,0-2.88.67-3.92,2.01v-1.75h-2.92v11.88h3.14v-5.38c0-1.33.08-2.24.24-2.73s.46-.89.89-1.19c.43-.3.92-.45,1.47-.45.42,0,.79.1,1.09.31.3.21.52.5.65.88.13.38.2,1.21.2,2.49v6.06h3.14v-7.38ZM76.95,644.21c0,.75-.04,1.26-.12,1.53-.12.41-.37.76-.75,1.04-.51.37-1.06.56-1.62.56-.51,0-.92-.16-1.25-.48-.33-.32-.49-.7-.49-1.14s.21-.82.62-1.11c.27-.18.84-.36,1.71-.55s1.51-.35,1.91-.48v.63ZM73.51,639.88c.31-.22.75-.33,1.31-.33.83,0,1.39.13,1.69.39.3.26.45.69.45,1.29v.31c-.57.24-1.58.5-3.05.77-1.09.21-1.92.45-2.5.73-.58.28-1.03.68-1.35,1.21-.32.53-.48,1.12-.48,1.79,0,1.01.35,1.85,1.06,2.52.71.66,1.67,1,2.89,1,.69,0,1.35-.13,1.96-.39.61-.26,1.19-.65,1.72-1.17.02.06.06.18.11.37.12.41.22.72.3.93h3.11c-.28-.57-.46-1.1-.56-1.59-.1-.5-.15-1.27-.15-2.31l.03-3.67c0-1.36-.14-2.3-.42-2.81s-.76-.93-1.45-1.26-1.73-.5-3.13-.5c-1.54,0-2.71.28-3.49.83-.78.55-1.33,1.4-1.66,2.55l2.85.51c.19-.55.45-.94.76-1.16ZM63.59,643.49c0,1.33-.15,2.2-.46,2.62-.31.42-.83.63-1.57.63s-1.28-.29-1.63-.88c-.24-.39-.38-1.05-.41-1.99l-3.12.36c0,1.75.45,3.08,1.32,3.99.87.91,2.12,1.36,3.74,1.36,1.38,0,2.49-.29,3.33-.87s1.42-1.34,1.75-2.3c.24-.73.36-1.78.36-3.13v-10.38h-3.3v10.59Z"/>
  <path d="M313.64,632.6h-2.55c-.36,1-1.02,1.87-1.98,2.62-.96.75-1.85,1.26-2.67,1.53v2.85c1.56-.51,2.91-1.31,4.06-2.38v11.85h3.14v-16.47ZM297.23,646.14c.16-.28.38-.57.64-.87.26-.3.89-.9,1.89-1.81.99-.91,1.68-1.61,2.06-2.09.57-.73.99-1.43,1.26-2.1.26-.67.4-1.37.4-2.11,0-1.3-.46-2.38-1.39-3.25-.92-.87-2.2-1.31-3.81-1.31-1.48,0-2.71.38-3.69,1.13-.98.75-1.57,2-1.76,3.73l3.13.31c.06-.92.28-1.57.67-1.97.39-.39.91-.59,1.57-.59s1.18.19,1.56.57.56.92.56,1.62c0,.63-.22,1.28-.65,1.92-.32.47-1.19,1.37-2.61,2.68-1.76,1.63-2.94,2.94-3.53,3.93-.6.99-.95,2.03-1.07,3.14h11.02v-2.92h-6.24ZM286.44,635.57c.29.24.54.72.73,1.44s.29,2.04.29,3.97-.11,3.29-.32,4.09c-.16.63-.4,1.06-.69,1.3s-.64.36-1.02.36-.72-.12-1.01-.36c-.29-.24-.54-.72-.73-1.44s-.29-2.04-.29-3.97.11-3.29.32-4.11c.16-.63.4-1.06.69-1.3.3-.24.64-.36,1.02-.36s.72.12,1.01.36ZM281.72,634.28c-1.07,1.36-1.61,3.58-1.61,6.67s.49,5.33,1.47,6.56,2.26,1.84,3.86,1.84,2.83-.56,3.71-1.68c1.07-1.36,1.61-3.59,1.61-6.69s-.53-5.34-1.6-6.68c-.89-1.13-2.14-1.7-3.73-1.7s-2.83.56-3.71,1.68ZM271.75,646.14c.16-.28.38-.57.64-.87.26-.3.89-.9,1.89-1.81.99-.91,1.68-1.61,2.06-2.09.57-.73.99-1.43,1.26-2.1.26-.67.4-1.37.4-2.11,0-1.3-.46-2.38-1.39-3.25-.92-.87-2.2-1.31-3.81-1.31-1.48,0-2.71.38-3.69,1.13-.98.75-1.57,2-1.76,3.73l3.13.31c.06-.92.28-1.57.67-1.97.39-.39.91-.59,1.57-.59s1.18.19,1.56.57.56.92.56,1.62c0,.63-.22,1.28-.65,1.92-.32.47-1.19,1.37-2.61,2.68-1.76,1.63-2.94,2.94-3.53,3.93-.6.99-.95,2.03-1.07,3.14h11.02v-2.92h-6.24ZM258.46,649.06v-16.4h-3.14v16.4h3.14ZM252.06,649.06v-11.88h-3.14v5.01c0,1.7-.08,2.77-.24,3.21-.16.44-.45.8-.87,1.1-.42.29-.91.44-1.44.44-.47,0-.86-.11-1.16-.33-.31-.22-.52-.52-.63-.9-.12-.38-.17-1.4-.17-3.07v-5.46h-3.14v7.52c0,1.12.14,1.99.43,2.63.28.63.74,1.13,1.38,1.48.63.35,1.35.53,2.15.53s1.53-.18,2.23-.55,1.27-.87,1.71-1.5v1.78h2.92ZM234.52,643.26c0,1.33-.15,2.2-.46,2.62-.31.42-.83.63-1.57.63s-1.28-.29-1.63-.88c-.24-.39-.38-1.05-.41-1.99l-3.12.36c0,1.75.45,3.08,1.32,3.99.87.91,2.12,1.36,3.74,1.36,1.38,0,2.49-.29,3.33-.87s1.42-1.34,1.75-2.3c.24-.73.36-1.78.36-3.13v-10.38h-3.3v10.59Z"/>
  <path d="M482.5,645.61c.16-.28.38-.57.64-.87.26-.3.89-.9,1.89-1.81.99-.91,1.68-1.61,2.06-2.09.57-.73.99-1.43,1.26-2.1.26-.67.4-1.37.4-2.11,0-1.3-.46-2.38-1.39-3.25-.93-.87-2.2-1.31-3.81-1.31-1.48,0-2.71.38-3.69,1.13-.98.75-1.57,2-1.76,3.73l3.13.31c.06-.92.28-1.57.67-1.97.39-.39.91-.59,1.57-.59s1.18.19,1.56.57.56.92.56,1.62c0,.63-.22,1.28-.65,1.92-.32.47-1.19,1.37-2.61,2.68-1.76,1.63-2.94,2.94-3.53,3.93-.6.99-.95,2.03-1.07,3.14h11.02v-2.92h-6.24ZM469.76,645.61c.16-.28.38-.57.64-.87.26-.3.89-.9,1.89-1.81.99-.91,1.68-1.61,2.06-2.09.57-.73.99-1.43,1.26-2.1.26-.67.4-1.37.4-2.11,0-1.3-.46-2.38-1.39-3.25-.92-.87-2.2-1.31-3.81-1.31-1.48,0-2.71.38-3.69,1.13-.98.75-1.57,2-1.76,3.73l3.13.31c.06-.92.28-1.57.67-1.97.39-.39.91-.59,1.57-.59s1.18.19,1.56.57.56.92.56,1.62c0,.63-.22,1.28-.65,1.92-.32.47-1.19,1.37-2.61,2.68-1.76,1.63-2.94,2.94-3.53,3.93-.6.99-.95,2.03-1.07,3.14h11.02v-2.92h-6.24ZM458.97,635.03c.29.24.54.72.73,1.44s.29,2.04.29,3.97-.11,3.29-.32,4.09c-.16.63-.4,1.06-.69,1.3s-.64.36-1.02.36-.72-.12-1.01-.36c-.29-.24-.54-.72-.73-1.44s-.29-2.04-.29-3.97.11-3.29.32-4.11c.16-.63.4-1.06.69-1.3.3-.24.64-.36,1.02-.36s.72.12,1.01.36ZM454.25,633.74c-1.07,1.36-1.61,3.58-1.61,6.67s.49,5.33,1.47,6.56,2.26,1.84,3.86,1.84,2.83-.56,3.71-1.68c1.07-1.36,1.61-3.59,1.61-6.69s-.53-5.34-1.6-6.68c-.89-1.13-2.14-1.7-3.73-1.7s-2.83.56-3.71,1.68ZM444.28,645.61c.16-.28.38-.57.64-.87.26-.3.89-.9,1.89-1.81.99-.91,1.68-1.61,2.06-2.09.57-.73.99-1.43,1.26-2.1.26-.67.4-1.37.4-2.11,0-1.3-.46-2.38-1.39-3.25-.92-.87-2.2-1.31-3.81-1.31-1.48,0-2.71.38-3.69,1.13-.98.75-1.57,2-1.76,3.73l3.13.31c.06-.92.28-1.57.67-1.97.39-.39.91-.59,1.57-.59s1.18.19,1.56.57.56.92.56,1.62c0,.63-.22,1.28-.65,1.92-.32.47-1.19,1.37-2.61,2.68-1.76,1.63-2.94,2.94-3.53,3.93-.6.99-.95,2.03-1.07,3.14h11.02v-2.92h-6.24ZM431.02,641.15c0-.92-.06-1.62-.17-2.11-.12-.49-.32-.93-.62-1.32-.29-.39-.73-.71-1.3-.96-.57-.25-1.21-.38-1.9-.38-1.57,0-2.88.67-3.92,2.01v-1.75h-2.92v11.88h3.14v-5.38c0-1.33.08-2.24.24-2.73s.46-.89.89-1.19c.43-.3.92-.45,1.47-.45.42,0,.79.1,1.09.31.3.21.52.5.65.88.13.38.2,1.21.2,2.49v6.06h3.14v-7.38ZM414.03,643.45c0,.75-.04,1.26-.12,1.53-.12.41-.37.76-.75,1.04-.51.37-1.06.56-1.62.56-.51,0-.92-.16-1.25-.48-.33-.32-.49-.7-.49-1.14s.21-.82.62-1.11c.27-.18.84-.36,1.71-.55s1.51-.35,1.91-.48v.63ZM410.59,639.12c.31-.22.75-.33,1.31-.33.83,0,1.39.13,1.69.39.3.26.45.69.45,1.29v.31c-.57.24-1.58.5-3.05.77-1.09.21-1.92.45-2.5.73-.58.28-1.03.68-1.35,1.21-.32.53-.48,1.12-.48,1.79,0,1.01.35,1.85,1.06,2.52.71.66,1.67,1,2.89,1,.69,0,1.35-.13,1.96-.39.61-.26,1.19-.65,1.72-1.17.02.06.06.18.11.37.12.41.22.72.3.93h3.11c-.28-.57-.46-1.1-.56-1.59-.1-.5-.15-1.27-.15-2.31l.03-3.67c0-1.36-.14-2.3-.42-2.81s-.76-.93-1.45-1.26-1.73-.5-3.13-.5c-1.54,0-2.71.28-3.49.83-.78.55-1.33,1.4-1.66,2.55l2.85.51c.19-.55.45-.94.76-1.16ZM400.67,642.72c0,1.33-.15,2.2-.46,2.62-.31.42-.83.63-1.57.63s-1.28-.29-1.63-.88c-.24-.39-.38-1.05-.41-1.99l-3.12.36c0,1.75.45,3.08,1.32,3.99.87.91,2.12,1.36,3.74,1.36,1.38,0,2.49-.29,3.33-.87s1.42-1.34,1.75-2.3c.24-.73.36-1.78.36-3.13v-10.38h-3.3v10.59Z"/>
  <path d="M644.9,644.3c.16-.28.38-.57.64-.87.26-.3.89-.9,1.88-1.81.99-.91,1.68-1.61,2.06-2.09.57-.73.99-1.43,1.26-2.1.26-.67.4-1.37.4-2.11,0-1.3-.46-2.38-1.39-3.25-.92-.87-2.2-1.31-3.81-1.31-1.48,0-2.71.38-3.69,1.13-.98.75-1.57,2-1.76,3.73l3.13.31c.06-.92.28-1.57.67-1.97.39-.39.91-.59,1.57-.59s1.18.19,1.56.57c.38.38.56.92.56,1.62,0,.63-.22,1.28-.65,1.92-.32.47-1.19,1.37-2.61,2.68-1.76,1.63-2.94,2.94-3.54,3.93s-.96,2.03-1.07,3.14h11.02v-2.92h-6.24ZM632.16,644.3c.16-.28.38-.57.64-.87.26-.3.89-.9,1.88-1.81.99-.91,1.68-1.61,2.06-2.09.57-.73.99-1.43,1.26-2.1.26-.67.4-1.37.4-2.11,0-1.3-.46-2.38-1.39-3.25-.92-.87-2.2-1.31-3.81-1.31-1.48,0-2.71.38-3.69,1.13-.98.75-1.57,2-1.76,3.73l3.13.31c.06-.92.28-1.57.67-1.97.39-.39.91-.59,1.57-.59s1.18.19,1.56.57c.38.38.56.92.56,1.62,0,.63-.22,1.28-.65,1.92-.32.47-1.19,1.37-2.61,2.68-1.76,1.63-2.94,2.94-3.54,3.93s-.96,2.03-1.07,3.14h11.02v-2.92h-6.24ZM621.37,633.72c.29.24.54.72.73,1.44.19.72.29,2.04.29,3.97s-.11,3.29-.32,4.09c-.16.63-.4,1.06-.69,1.3s-.64.36-1.02.36-.72-.12-1.01-.36-.54-.72-.73-1.44c-.19-.72-.29-2.04-.29-3.97s.11-3.29.32-4.11c.16-.63.4-1.06.69-1.3.3-.24.64-.36,1.02-.36s.72.12,1.01.36ZM616.65,632.43c-1.07,1.36-1.61,3.58-1.61,6.67s.49,5.33,1.47,6.56c.98,1.23,2.26,1.84,3.86,1.84s2.83-.56,3.71-1.68c1.07-1.36,1.61-3.59,1.61-6.69s-.53-5.34-1.6-6.68c-.89-1.13-2.14-1.7-3.72-1.7s-2.83.56-3.71,1.68ZM606.68,644.3c.16-.28.38-.57.64-.87.26-.3.89-.9,1.88-1.81.99-.91,1.68-1.61,2.06-2.09.57-.73.99-1.43,1.26-2.1.26-.67.4-1.37.4-2.11,0-1.3-.46-2.38-1.39-3.25-.92-.87-2.2-1.31-3.81-1.31-1.48,0-2.71.38-3.69,1.13-.98.75-1.57,2-1.76,3.73l3.13.31c.06-.92.28-1.57.67-1.97.39-.39.91-.59,1.57-.59s1.18.19,1.56.57c.38.38.56.92.56,1.62,0,.63-.22,1.28-.65,1.92-.32.47-1.19,1.37-2.61,2.68-1.76,1.63-2.94,2.94-3.54,3.93s-.96,2.03-1.07,3.14h11.02v-2.92h-6.24ZM593.39,647.22v-16.4h-3.14v16.4h3.14ZM586.99,647.22v-11.88h-3.14v5.01c0,1.7-.08,2.77-.24,3.21-.16.44-.45.8-.87,1.1-.43.29-.91.44-1.44.44-.47,0-.86-.11-1.16-.33-.31-.22-.52-.52-.63-.9-.12-.38-.17-1.4-.17-3.07v-5.46h-3.14v7.52c0,1.12.14,1.99.42,2.63.28.63.74,1.13,1.38,1.48.63.35,1.35.53,2.15.53s1.53-.18,2.23-.55,1.27-.87,1.71-1.5v1.78h2.92ZM569.45,641.41c0,1.33-.15,2.2-.46,2.62-.31.42-.83.63-1.57.63s-1.28-.29-1.63-.88c-.24-.39-.38-1.05-.41-1.99l-3.12.36c0,1.75.45,3.08,1.32,3.99.87.91,2.12,1.36,3.74,1.36,1.38,0,2.49-.29,3.33-.87s1.42-1.34,1.75-2.3c.24-.73.36-1.78.36-3.13v-10.38h-3.3v10.59Z"/>
  <path d="M815.76,645.4c.98.85,2.21,1.28,3.69,1.28,1.57,0,2.88-.51,3.93-1.52,1.05-1.01,1.58-2.24,1.58-3.68,0-.99-.28-1.84-.84-2.54-.56-.7-1.31-1.15-2.25-1.35,1.57-.86,2.36-2.01,2.36-3.45,0-1.01-.38-1.92-1.15-2.73-.93-.98-2.17-1.48-3.71-1.48-.9,0-1.72.17-2.44.51-.73.34-1.29.8-1.7,1.4-.41.59-.71,1.39-.91,2.38l2.9.49c.08-.72.31-1.26.69-1.63.38-.37.84-.56,1.38-.56s.98.16,1.31.49c.33.33.49.77.49,1.32,0,.65-.22,1.17-.67,1.56-.45.39-1.1.58-1.95.55l-.35,2.56c.56-.16,1.04-.23,1.44-.23.61,0,1.13.23,1.55.69.42.46.64,1.09.64,1.88,0,.84-.22,1.5-.67,1.99-.44.49-.99.74-1.64.74-.6,0-1.12-.21-1.54-.62-.43-.41-.69-1-.78-1.78l-3.04.37c.16,1.38.72,2.5,1.7,3.35ZM805.8,643.48c.16-.28.38-.57.64-.87.26-.3.89-.9,1.88-1.81.99-.91,1.68-1.61,2.06-2.09.57-.73.99-1.43,1.26-2.1.26-.67.4-1.37.4-2.11,0-1.3-.46-2.38-1.39-3.25-.92-.87-2.2-1.31-3.81-1.31-1.48,0-2.71.38-3.69,1.13-.98.75-1.57,2-1.76,3.73l3.13.31c.06-.92.28-1.57.67-1.97.39-.39.91-.59,1.57-.59s1.18.19,1.56.57c.38.38.56.92.56,1.62,0,.63-.22,1.28-.65,1.92-.32.47-1.19,1.37-2.61,2.68-1.76,1.63-2.94,2.94-3.54,3.93s-.96,2.03-1.07,3.14h11.02v-2.92h-6.24ZM795.01,632.9c.29.24.54.72.73,1.44.19.72.29,2.04.29,3.97s-.11,3.29-.32,4.09c-.16.63-.4,1.06-.69,1.3s-.64.36-1.02.36-.72-.12-1.01-.36-.54-.72-.73-1.44c-.19-.72-.29-2.04-.29-3.97s.11-3.29.32-4.11c.16-.63.4-1.06.69-1.3.3-.24.64-.36,1.02-.36s.72.12,1.01.36ZM790.29,631.61c-1.07,1.36-1.61,3.58-1.61,6.67s.49,5.33,1.47,6.56c.98,1.23,2.26,1.84,3.86,1.84s2.83-.56,3.71-1.68c1.07-1.36,1.61-3.59,1.61-6.69s-.53-5.34-1.6-6.68c-.89-1.13-2.14-1.7-3.72-1.7s-2.83.56-3.71,1.68ZM780.32,643.48c.16-.28.38-.57.64-.87.26-.3.89-.9,1.88-1.81.99-.91,1.68-1.61,2.06-2.09.57-.73.99-1.43,1.26-2.1.26-.67.4-1.37.4-2.11,0-1.3-.46-2.38-1.39-3.25-.92-.87-2.2-1.31-3.81-1.31-1.48,0-2.71.38-3.69,1.13-.98.75-1.57,2-1.76,3.73l3.13.31c.06-.92.28-1.57.67-1.97.39-.39.91-.59,1.57-.59s1.18.19,1.56.57c.38.38.56.92.56,1.62,0,.63-.22,1.28-.65,1.92-.32.47-1.19,1.37-2.61,2.68-1.76,1.63-2.94,2.94-3.54,3.93s-.96,2.03-1.07,3.14h11.02v-2.92h-6.24ZM767.06,639.02c0-.92-.06-1.62-.17-2.11-.12-.49-.32-.93-.62-1.32-.29-.39-.73-.71-1.3-.96s-1.21-.38-1.9-.38c-1.57,0-2.88.67-3.92,2.01v-1.75h-2.92v11.88h3.14v-5.38c0-1.33.08-2.24.24-2.73s.46-.89.89-1.19.92-.45,1.46-.45c.43,0,.79.1,1.09.31.3.21.52.5.65.88.13.38.2,1.21.2,2.49v6.06h3.14v-7.38ZM750.07,641.32c0,.75-.04,1.26-.12,1.53-.12.41-.37.76-.75,1.04-.51.37-1.06.56-1.62.56-.51,0-.92-.16-1.25-.48-.33-.32-.49-.7-.49-1.14s.21-.82.62-1.11c.27-.18.84-.36,1.71-.55.87-.19,1.51-.35,1.91-.48v.63ZM746.63,636.99c.31-.22.75-.33,1.31-.33.83,0,1.39.13,1.69.39.3.26.45.69.45,1.29v.31c-.57.24-1.58.5-3.05.77-1.09.21-1.92.45-2.5.73-.58.28-1.03.68-1.35,1.21-.32.53-.48,1.12-.48,1.79,0,1.01.35,1.85,1.06,2.52.7.66,1.67,1,2.89,1,.69,0,1.35-.13,1.96-.39s1.19-.65,1.72-1.17c.02.06.06.18.11.37.12.41.22.72.3.93h3.11c-.28-.57-.46-1.1-.57-1.59s-.15-1.27-.15-2.31l.03-3.67c0-1.36-.14-2.3-.42-2.81-.28-.51-.76-.93-1.45-1.26s-1.73-.5-3.13-.5c-1.54,0-2.71.28-3.49.83s-1.33,1.4-1.66,2.55l2.85.51c.19-.55.45-.94.76-1.16ZM736.72,640.6c0,1.33-.15,2.2-.46,2.62-.31.42-.83.63-1.57.63s-1.28-.29-1.63-.88c-.24-.39-.38-1.05-.41-1.99l-3.12.36c0,1.75.45,3.08,1.32,3.99.87.91,2.12,1.36,3.74,1.36,1.38,0,2.49-.29,3.33-.87s1.42-1.34,1.75-2.3c.24-.73.36-1.78.36-3.13v-10.38h-3.3v10.59Z"/>
  <path d="M83.27,518.42v-4.79l1.44-1.39,3.99,6.18h2.52l-5.08-7.6,4.62-4.48h-2.65l-4.85,4.91v-9.51h-2.05v16.67h2.05ZM70.85,504.56c.56-.8,1.31-1.19,2.25-1.19s1.75.45,2.39,1.35c.64.9.96,2.73.96,5.47s-.32,4.55-.96,5.46c-.64.91-1.43,1.37-2.37,1.37s-1.73-.45-2.37-1.36-.96-2.73-.96-5.46.35-4.61,1.06-5.63ZM69.34,516.97c.92,1.15,2.18,1.73,3.79,1.73,1.22,0,2.23-.33,3.03-.98.8-.66,1.4-1.58,1.8-2.79.4-1.2.6-2.78.6-4.74,0-1.65-.12-2.97-.38-3.94-.25-.97-.6-1.8-1.03-2.48-.44-.68-1-1.2-1.67-1.56-.67-.36-1.46-.54-2.35-.54-1.21,0-2.22.33-3.02.98-.8.65-1.4,1.58-1.81,2.78-.41,1.2-.61,2.79-.61,4.76,0,3.13.55,5.39,1.65,6.78ZM57.31,516.45c.23-.37.52-.74.86-1.11.35-.37,1.14-1.07,2.37-2.1,1.47-1.24,2.52-2.22,3.16-2.93.63-.71,1.09-1.39,1.36-2.04s.41-1.3.41-1.97c0-1.31-.47-2.41-1.4-3.3-.93-.89-2.2-1.33-3.8-1.33s-2.85.41-3.79,1.23c-.94.82-1.48,2.02-1.63,3.59l2.1.22c0-1.05.31-1.87.9-2.46.59-.59,1.38-.89,2.37-.89.93,0,1.69.28,2.27.84.58.56.87,1.24.87,2.05s-.32,1.59-.96,2.46-1.86,2.04-3.67,3.53c-1.17.96-2.06,1.8-2.68,2.52-.62.73-1.07,1.47-1.35,2.22-.17.46-.25.93-.24,1.42h11.02v-1.97h-8.18Z"/>
  <path d="M83.27,412.69v-4.79l1.44-1.39,3.99,6.18h2.52l-5.08-7.6,4.62-4.48h-2.65l-4.85,4.91v-9.51h-2.05v16.67h2.05ZM70.85,398.84c.56-.8,1.31-1.19,2.25-1.19s1.75.45,2.39,1.35c.64.9.96,2.73.96,5.47s-.32,4.55-.96,5.46c-.64.91-1.43,1.36-2.37,1.36s-1.73-.45-2.37-1.36c-.64-.91-.96-2.73-.96-5.46s.35-4.61,1.06-5.63ZM69.34,411.24c.92,1.15,2.18,1.73,3.79,1.73,1.22,0,2.23-.33,3.03-.98.8-.66,1.4-1.58,1.8-2.79.4-1.2.6-2.78.6-4.74,0-1.65-.12-2.97-.38-3.94-.25-.97-.6-1.8-1.03-2.48-.44-.68-1-1.2-1.67-1.56-.67-.36-1.46-.54-2.35-.54-1.21,0-2.22.33-3.02.98-.8.65-1.4,1.58-1.81,2.78-.41,1.2-.61,2.79-.61,4.76,0,3.13.55,5.39,1.65,6.78ZM56.07,406.82l5.22-7.52v7.52h-5.22ZM63.34,412.69v-3.99h2.25v-1.88h-2.25v-10.8h-1.67l-7.61,10.8v1.88h7.23v3.99h2.05Z"/>
  <path d="M83.27,304.22v-4.79l1.44-1.39,3.99,6.18h2.52l-5.08-7.6,4.62-4.48h-2.65l-4.85,4.91v-9.51h-2.05v16.67h2.05ZM70.85,290.36c.56-.8,1.31-1.19,2.25-1.19s1.75.45,2.39,1.35c.64.9.96,2.73.96,5.47s-.32,4.55-.96,5.46c-.64.91-1.43,1.36-2.37,1.36s-1.73-.45-2.37-1.36c-.64-.91-.96-2.73-.96-5.46s.35-4.61,1.06-5.63ZM69.34,302.77c.92,1.15,2.18,1.73,3.79,1.73,1.22,0,2.23-.33,3.03-.98.8-.66,1.4-1.58,1.8-2.79.4-1.2.6-2.78.6-4.74,0-1.65-.12-2.97-.38-3.94-.25-.97-.6-1.8-1.03-2.48-.44-.68-1-1.2-1.67-1.56-.67-.36-1.46-.54-2.35-.54-1.21,0-2.22.33-3.02.98-.8.65-1.4,1.58-1.81,2.78-.41,1.2-.61,2.79-.61,4.76,0,3.13.55,5.39,1.65,6.78ZM57.96,296.2c.64-.66,1.43-1,2.35-1s1.71.33,2.32,1,.92,1.57.92,2.72-.31,2.15-.93,2.84c-.62.7-1.37,1.05-2.23,1.05-.59,0-1.16-.17-1.69-.51-.54-.34-.96-.83-1.26-1.47-.3-.64-.45-1.32-.45-2.02,0-1.08.32-1.95.97-2.61ZM63.85,288.58c-.84-.74-1.91-1.1-3.22-1.1-1.76,0-3.16.64-4.2,1.91-1.19,1.46-1.79,3.81-1.79,7.03,0,2.88.54,4.95,1.62,6.2,1.08,1.26,2.47,1.88,4.17,1.88,1,0,1.9-.24,2.68-.72s1.41-1.17,1.86-2.06.68-1.87.68-2.92c0-1.59-.48-2.89-1.44-3.9-.96-1-2.12-1.51-3.49-1.51-.78,0-1.53.18-2.24.55-.71.36-1.32.92-1.81,1.67.02-1.67.21-2.95.58-3.86.37-.9.88-1.59,1.52-2.06.49-.36,1.06-.55,1.72-.55.81,0,1.49.29,2.05.88.33.36.59.95.77,1.75l2.04-.16c-.17-1.3-.67-2.31-1.51-3.05Z"/>
  <path d="M83.27,196.88v-4.79l1.44-1.39,3.99,6.18h2.52l-5.08-7.6,4.62-4.48h-2.65l-4.85,4.91v-9.51h-2.05v16.67h2.05ZM70.85,183.03c.56-.8,1.31-1.19,2.25-1.19s1.75.45,2.39,1.35c.64.9.96,2.73.96,5.47s-.32,4.55-.96,5.46c-.64.91-1.43,1.36-2.37,1.36s-1.73-.45-2.37-1.36c-.64-.91-.96-2.73-.96-5.46s.35-4.61,1.06-5.63ZM69.34,195.44c.92,1.15,2.18,1.73,3.79,1.73,1.22,0,2.23-.33,3.03-.98.8-.66,1.4-1.58,1.8-2.79.4-1.2.6-2.78.6-4.74,0-1.65-.12-2.97-.38-3.94-.25-.97-.6-1.8-1.03-2.48-.44-.68-1-1.2-1.67-1.56-.67-.36-1.46-.54-2.35-.54-1.21,0-2.22.33-3.02.98-.8.65-1.4,1.58-1.81,2.78-.41,1.2-.61,2.79-.61,4.76,0,3.13.55,5.39,1.65,6.78ZM57.76,189.68c.63-.64,1.43-.96,2.39-.96s1.81.32,2.46.97c.66.64.98,1.46.98,2.45s-.32,1.77-.96,2.4-1.44.94-2.42.94c-.63,0-1.22-.15-1.76-.45-.55-.3-.96-.72-1.23-1.27s-.42-1.11-.42-1.69c0-.96.32-1.75.95-2.39ZM58.25,182.57c.52-.5,1.16-.75,1.94-.75s1.42.26,1.94.77c.52.51.78,1.14.78,1.89s-.25,1.33-.76,1.83c-.5.5-1.15.75-1.94.75s-1.47-.25-1.98-.75c-.51-.5-.76-1.14-.76-1.93,0-.7.26-1.3.77-1.8ZM55.53,189.34c-.55.73-.82,1.64-.82,2.72,0,1.46.5,2.67,1.51,3.65,1.01.97,2.34,1.46,3.98,1.46s2.97-.48,3.98-1.46c1.01-.97,1.51-2.17,1.51-3.59,0-1.03-.27-1.92-.8-2.66-.53-.74-1.31-1.28-2.34-1.61.83-.31,1.44-.75,1.85-1.33.41-.57.61-1.25.61-2.02,0-1.21-.44-2.24-1.33-3.09-.89-.85-2.06-1.27-3.51-1.27s-2.61.41-3.48,1.24c-.87.83-1.31,1.85-1.31,3.06,0,.8.21,1.49.61,2.07.41.58,1.04,1.02,1.89,1.33-1.02.27-1.8.76-2.35,1.5Z"/>
  <path d="M83.27,89.55v-4.79l1.44-1.39,3.99,6.18h2.52l-5.08-7.6,4.62-4.48h-2.65l-4.85,4.91v-9.51h-2.05v16.67h2.05ZM70.85,75.7c.56-.8,1.31-1.19,2.25-1.19s1.75.45,2.39,1.35c.64.9.96,2.73.96,5.47s-.32,4.55-.96,5.46c-.64.91-1.43,1.36-2.37,1.36s-1.73-.45-2.37-1.36c-.64-.91-.96-2.73-.96-5.46s.35-4.61,1.06-5.63ZM69.34,88.1c.92,1.15,2.18,1.73,3.79,1.73,1.22,0,2.23-.33,3.03-.98.8-.66,1.4-1.58,1.8-2.79.4-1.2.6-2.78.6-4.74,0-1.65-.12-2.97-.38-3.94-.25-.97-.6-1.8-1.03-2.48-.44-.68-1-1.2-1.67-1.56-.67-.36-1.46-.54-2.35-.54-1.21,0-2.22.33-3.02.98-.8.65-1.4,1.58-1.81,2.78-.41,1.2-.61,2.79-.61,4.76,0,3.13.55,5.39,1.65,6.78ZM57.89,75.7c.56-.8,1.31-1.19,2.25-1.19s1.75.45,2.39,1.35c.64.9.96,2.73.96,5.47s-.32,4.55-.96,5.46c-.64.91-1.43,1.36-2.37,1.36s-1.73-.45-2.37-1.36c-.64-.91-.96-2.73-.96-5.46s.35-4.61,1.06-5.63ZM56.38,88.1c.92,1.15,2.18,1.73,3.79,1.73,1.22,0,2.23-.33,3.03-.98.8-.66,1.4-1.58,1.8-2.79.4-1.2.6-2.78.6-4.74,0-1.65-.12-2.97-.38-3.94-.25-.97-.6-1.8-1.03-2.48-.44-.68-1-1.2-1.67-1.56-.67-.36-1.46-.54-2.35-.54-1.21,0-2.22.33-3.02.98-.8.65-1.4,1.58-1.81,2.78-.41,1.2-.61,2.79-.61,4.76,0,3.13.55,5.39,1.65,6.78ZM49.49,72.81h-1.32c-.36.72-.96,1.46-1.82,2.23-.86.77-1.86,1.42-3,1.96v1.98c.64-.23,1.36-.59,2.16-1.06.8-.47,1.45-.94,1.94-1.41v13.04h2.05v-16.74Z"/>
  <path d="M819.6,51.39h-2.58v19.48h2.58v-19.48M791.82,51.32c-1.85,0-3.33.48-4.42,1.44-1.1.96-1.73,2.36-1.9,4.19l2.46.25c0-1.22.36-2.18,1.05-2.87.69-.69,1.61-1.04,2.76-1.04,1.09,0,1.97.33,2.65.98.68.65,1.02,1.45,1.02,2.4s-.37,1.86-1.12,2.88c-.74,1.01-2.17,2.39-4.29,4.12-1.36,1.12-2.41,2.1-3.13,2.95-.72.85-1.25,1.71-1.57,2.59-.2.53-.3,1.09-.28,1.66h12.87v-2.3h-9.55c.27-.43.6-.87,1.01-1.3s1.33-1.25,2.76-2.45c1.72-1.45,2.95-2.59,3.69-3.43.74-.83,1.27-1.62,1.59-2.38.32-.75.48-1.52.48-2.3,0-1.53-.54-2.82-1.63-3.85-1.09-1.04-2.57-1.55-4.44-1.55M806.84,69.24c-1.1,0-2.02-.53-2.77-1.59-.75-1.06-1.12-3.19-1.12-6.38s.41-5.39,1.24-6.58c.65-.93,1.53-1.39,2.63-1.39s2.05.53,2.8,1.58c.75,1.05,1.12,3.18,1.12,6.39s-.37,5.31-1.12,6.38c-.75,1.06-1.67,1.59-2.77,1.59M806.84,51.32c-1.42,0-2.59.38-3.53,1.14-.93.76-1.64,1.84-2.11,3.25-.47,1.4-.71,3.26-.71,5.56,0,3.66.64,6.3,1.93,7.92,1.07,1.35,2.55,2.02,4.42,2.02,1.43,0,2.61-.38,3.54-1.15.93-.77,1.64-1.85,2.11-3.25.47-1.4.7-3.25.7-5.53,0-1.93-.15-3.46-.44-4.6-.29-1.14-.69-2.1-1.21-2.9-.51-.79-1.16-1.4-1.95-1.82-.79-.42-1.7-.63-2.75-.63"/>
  <polyline points="752.48 46.66 725.28 46.66 725.28 73.86 752.48 73.86 752.48 46.66" style="fill: #f7e834;"/>
  <polyline points="872.32 81.56 700.38 81.56 700.38 82.56 872.32 82.56 872.32 81.56" style="fill: #eee;"/>
  <path d="M825.98,94.47h-2.58v13.42c0,1.12-.09,1.93-.27,2.44-.18.51-.5.91-.97,1.21-.47.3-1.03.45-1.67.45-.88,0-1.56-.27-2.06-.82-.5-.55-.77-1.57-.84-3.06l-2.33.32c-.04,1.94.4,3.4,1.31,4.38.91.98,2.22,1.47,3.93,1.47,1.15,0,2.15-.23,3.01-.7.85-.47,1.48-1.15,1.87-2.05.39-.89.59-2.16.59-3.79v-13.27M791.82,94.39c-1.85,0-3.33.48-4.42,1.44-1.1.96-1.73,2.36-1.9,4.19l2.46.25c0-1.22.36-2.18,1.05-2.87.69-.69,1.61-1.04,2.76-1.04,1.09,0,1.97.33,2.65.98.68.65,1.02,1.45,1.02,2.4s-.37,1.86-1.12,2.88c-.74,1.01-2.17,2.39-4.29,4.12-1.36,1.12-2.41,2.1-3.13,2.95-.72.85-1.25,1.71-1.57,2.59-.2.53-.3,1.09-.28,1.66h12.87v-2.3h-9.55c.27-.43.6-.87,1.01-1.3.41-.43,1.33-1.25,2.76-2.45,1.72-1.45,2.95-2.59,3.69-3.43.74-.83,1.27-1.62,1.59-2.38.32-.75.48-1.52.48-2.3,0-1.53-.54-2.82-1.63-3.85-1.09-1.04-2.57-1.55-4.44-1.55M809.49,94.39h-1.54c-.42.84-1.12,1.71-2.13,2.6-1,.89-2.17,1.66-3.51,2.29v2.31c.74-.27,1.58-.69,2.52-1.24.93-.55,1.69-1.1,2.27-1.65v15.24h2.39v-19.55"/>
  <polyline points="752.48 89.73 725.28 89.73 725.28 116.94 752.48 116.94 752.48 89.73" style="fill: #ef4545;"/>
  <polyline points="872.32 189.33 700.38 189.33 700.38 190.06 872.32 190.06 872.32 189.33" style="fill: #eee;"/>
  <path d="M832.22,137.55h-3.49l-9.67,9.66v-9.66h-2.58v19.48h2.58v-6.75l3.19-3.11,6.93,9.86h3.4l-8.53-11.58,8.17-7.89M791.82,137.47c-1.85,0-3.33.48-4.42,1.44-1.1.96-1.73,2.36-1.9,4.19l2.46.25c0-1.22.36-2.18,1.05-2.87.69-.69,1.61-1.04,2.76-1.04,1.09,0,1.97.33,2.65.98.68.65,1.02,1.45,1.02,2.4s-.37,1.86-1.12,2.88c-.74,1.01-2.17,2.39-4.29,4.12-1.36,1.12-2.41,2.1-3.13,2.95-.72.85-1.25,1.71-1.57,2.59-.2.53-.3,1.09-.28,1.66h12.87v-2.3h-9.55c.27-.43.6-.87,1.01-1.3.41-.43,1.33-1.25,2.76-2.45,1.72-1.45,2.95-2.59,3.69-3.43.74-.83,1.27-1.62,1.59-2.38.32-.75.48-1.52.48-2.3,0-1.53-.54-2.82-1.63-3.85-1.09-1.04-2.57-1.55-4.44-1.55M809.49,137.47h-1.54c-.42.84-1.12,1.71-2.13,2.6-1,.89-2.17,1.66-3.51,2.28v2.31c.74-.27,1.58-.69,2.52-1.24.93-.55,1.69-1.1,2.27-1.65v15.24h2.39v-19.55"/>
  <polyline points="752.48 132.81 725.28 132.81 725.28 160.02 752.48 160.02 752.48 132.81" style="fill: #4afc21;"/>
  <polyline points="872.32 190.06 700.38 190.06 700.38 190.33 872.32 190.33 872.32 190.06" style="fill: #eee;"/>
  <path d="M819.06,180.63h-2.58v19.48h12.17v-2.3h-9.59v-17.18M791.82,180.55c-1.85,0-3.33.48-4.42,1.44-1.1.96-1.73,2.36-1.9,4.19l2.46.25c0-1.22.36-2.18,1.05-2.87.69-.69,1.61-1.04,2.76-1.04,1.09,0,1.97.33,2.65.98.68.65,1.02,1.45,1.02,2.4s-.37,1.86-1.12,2.88c-.74,1.01-2.17,2.39-4.29,4.12-1.36,1.12-2.41,2.1-3.13,2.95-.72.85-1.25,1.71-1.57,2.59-.2.53-.3,1.09-.28,1.66h12.87v-2.3h-9.55c.27-.43.6-.87,1.01-1.3.41-.43,1.33-1.25,2.76-2.45,1.72-1.45,2.95-2.59,3.69-3.43.74-.83,1.27-1.62,1.59-2.38.32-.75.48-1.52.48-2.3,0-1.53-.54-2.82-1.63-3.85-1.09-1.04-2.57-1.55-4.44-1.55M809.49,180.55h-1.54c-.42.84-1.12,1.71-2.13,2.6-1,.89-2.17,1.66-3.51,2.28v2.31c.74-.27,1.58-.69,2.52-1.24.93-.55,1.69-1.1,2.27-1.65v15.24h2.39v-19.55"/>
  <polyline points="752.48 175.89 725.28 175.89 725.28 203.09 752.48 203.09 752.48 175.89" style="fill: #ff872a;"/>
  <polyline points="872.32 297.1 700.38 297.1 700.38 298.1 872.32 298.1 872.32 297.1" style="fill: #eee;"/>
  <path d="M868.71,274.68h-5.83v8.67h6.28c1.08,0,1.83-.04,2.27-.12.77-.14,1.41-.37,1.93-.69.52-.32.94-.79,1.27-1.4.33-.61.5-1.32.5-2.12,0-.94-.24-1.76-.72-2.45-.48-.69-1.15-1.18-2-1.46-.85-.28-2.08-.42-3.69-.42M867.92,264.09h-5.04v7.62h5.45c1.48,0,2.54-.1,3.18-.29.85-.25,1.49-.67,1.92-1.26.43-.58.64-1.32.64-2.2,0-.84-.2-1.57-.6-2.21-.4-.64-.97-1.07-1.72-1.31-.74-.23-2.02-.35-3.83-.35" style="fill: #fff;"/>
  <path d="M819.06,240.02v-6.7h4.5c1.24,0,2.19.11,2.85.33.66.22,1.18.59,1.55,1.13.37.54.56,1.17.56,1.89,0,.62-.13,1.17-.39,1.64-.26.47-.58.83-.98,1.08-.4.25-.89.42-1.49.53-.34.06-.92.09-1.75.09h-4.85M819.06,231.03v-5.89h3.89c1.4,0,2.39.09,2.96.27.58.18,1.02.52,1.33,1.01.31.49.46,1.06.46,1.71,0,.68-.17,1.25-.5,1.7-.33.45-.83.78-1.48.97-.5.15-1.31.23-2.46.23h-4.21M823.79,222.84h-7.31v19.47h7.43c1.24,0,2.29-.11,3.14-.33.85-.22,1.57-.54,2.13-.96.57-.43,1.04-1.03,1.43-1.81.39-.78.58-1.63.58-2.54,0-1.13-.32-2.12-.95-2.95-.63-.83-1.54-1.42-2.72-1.77.91-.45,1.59-1.05,2.05-1.78.45-.74.68-1.52.68-2.35,0-.89-.26-1.75-.76-2.57s-1.21-1.43-2.11-1.82c-.9-.39-2.09-.59-3.58-.59M791.82,222.76c-1.85,0-3.33.48-4.42,1.44-1.1.96-1.73,2.36-1.9,4.19l2.46.25c0-1.22.36-2.18,1.05-2.87.69-.69,1.61-1.04,2.76-1.04,1.09,0,1.97.33,2.65.98.68.65,1.02,1.45,1.02,2.4s-.37,1.86-1.12,2.88c-.74,1.01-2.17,2.39-4.29,4.12-1.36,1.12-2.41,2.1-3.13,2.95-.72.85-1.25,1.71-1.57,2.59-.2.53-.3,1.09-.28,1.66h12.87v-2.3h-9.55c.27-.43.6-.87,1.01-1.3.41-.43,1.33-1.25,2.76-2.45,1.72-1.45,2.95-2.59,3.69-3.43.74-.83,1.27-1.62,1.59-2.38.32-.75.48-1.52.48-2.3,0-1.53-.54-2.82-1.63-3.85-1.09-1.04-2.57-1.55-4.44-1.55M806.95,222.76c-1.85,0-3.33.48-4.42,1.44-1.1.96-1.73,2.36-1.9,4.19l2.46.25c0-1.22.36-2.18,1.05-2.87.69-.69,1.61-1.04,2.76-1.04,1.09,0,1.97.33,2.65.98.68.65,1.02,1.45,1.02,2.4s-.37,1.86-1.12,2.88c-.74,1.01-2.17,2.39-4.29,4.12-1.36,1.12-2.41,2.1-3.13,2.95-.72.85-1.25,1.71-1.57,2.59-.2.53-.3,1.09-.28,1.66h12.87v-2.3h-9.55c.27-.43.6-.87,1.01-1.3.41-.43,1.33-1.25,2.76-2.45,1.72-1.45,2.95-2.59,3.69-3.43.74-.83,1.27-1.62,1.59-2.38.32-.75.48-1.52.48-2.3,0-1.53-.54-2.82-1.63-3.85-1.09-1.04-2.57-1.55-4.44-1.55"/>
  <polyline points="752.48 218.1 725.28 218.1 725.28 245.31 752.48 245.31 752.48 218.1" style="fill: #00faff;"/>
  <path d="M819.16,281.69v-14.88h4.09c1.53,0,2.64.13,3.33.4.96.37,1.77,1.11,2.44,2.2.67,1.09,1,2.66,1,4.7,0,1.47-.17,2.72-.51,3.75-.34,1.03-.82,1.85-1.43,2.46-.43.43-1.02.77-1.75,1.01-.73.24-1.74.36-3.02.36h-4.16M823.3,264.51h-6.71v19.48h7.03c1.18,0,2.22-.11,3.13-.33.91-.22,1.68-.55,2.32-.98.64-.43,1.23-1.02,1.77-1.77.54-.75.98-1.69,1.33-2.84.34-1.14.52-2.45.52-3.93,0-1.74-.25-3.28-.76-4.63-.51-1.35-1.28-2.46-2.31-3.33-.79-.67-1.74-1.14-2.86-1.39-.8-.19-1.95-.28-3.47-.28M791.82,264.43c-1.85,0-3.33.48-4.42,1.44-1.1.96-1.73,2.36-1.9,4.19l2.46.25c0-1.22.36-2.18,1.05-2.87.69-.69,1.61-1.04,2.76-1.04,1.09,0,1.97.33,2.65.98.68.65,1.02,1.45,1.02,2.4s-.37,1.86-1.12,2.88c-.74,1.01-2.17,2.39-4.29,4.12-1.36,1.12-2.41,2.1-3.13,2.95-.72.85-1.25,1.71-1.57,2.59-.2.53-.3,1.08-.28,1.66h12.87v-2.3h-9.55c.27-.43.6-.87,1.01-1.3.41-.43,1.33-1.25,2.76-2.45,1.72-1.45,2.95-2.59,3.69-3.43.74-.83,1.27-1.63,1.59-2.38.32-.75.48-1.52.48-2.3,0-1.53-.54-2.82-1.63-3.85-1.09-1.04-2.57-1.55-4.44-1.55M806.95,264.43c-1.85,0-3.33.48-4.42,1.44-1.1.96-1.73,2.36-1.9,4.19l2.46.25c0-1.22.36-2.18,1.05-2.87.69-.69,1.61-1.04,2.76-1.04,1.09,0,1.97.33,2.65.98.68.65,1.02,1.45,1.02,2.4s-.37,1.86-1.12,2.88c-.74,1.01-2.17,2.39-4.29,4.12-1.36,1.12-2.41,2.1-3.13,2.95-.72.85-1.25,1.71-1.57,2.59-.2.53-.3,1.08-.28,1.66h12.87v-2.3h-9.55c.27-.43.6-.87,1.01-1.3.41-.43,1.33-1.25,2.76-2.45,1.72-1.45,2.95-2.59,3.69-3.43.74-.83,1.27-1.63,1.59-2.38.32-.75.48-1.52.48-2.3,0-1.53-.54-2.82-1.63-3.85-1.09-1.04-2.57-1.55-4.44-1.55"/>
  <polyline points="752.48 259.77 725.28 259.77 725.28 286.98 752.48 286.98 752.48 259.77" style="fill: #00fdbf;"/>
  <polyline points="872.32 404.87 700.38 404.87 700.38 405.87 872.32 405.87 872.32 404.87" style="fill: #eee;"/>
  <path d="M830.72,307.59h-14.08v19.48h14.53v-2.3h-11.96v-6.63h10.77v-2.28h-10.77v-5.96h11.5v-2.3M791.82,307.51c-1.85,0-3.33.48-4.42,1.44-1.1.96-1.73,2.36-1.9,4.19l2.46.25c0-1.22.36-2.18,1.05-2.87.69-.69,1.61-1.04,2.76-1.04,1.09,0,1.97.33,2.65.98.68.65,1.02,1.45,1.02,2.4s-.37,1.86-1.12,2.88c-.74,1.01-2.17,2.39-4.29,4.12-1.36,1.12-2.41,2.1-3.13,2.95-.72.85-1.25,1.71-1.57,2.59-.2.53-.3,1.08-.28,1.66h12.87v-2.3h-9.55c.27-.43.6-.87,1.01-1.3.41-.43,1.33-1.25,2.76-2.45,1.72-1.45,2.95-2.59,3.69-3.43.74-.83,1.27-1.63,1.59-2.38.32-.75.48-1.52.48-2.3,0-1.53-.54-2.82-1.63-3.85-1.09-1.04-2.57-1.55-4.44-1.55M806.95,307.51c-1.85,0-3.33.48-4.42,1.44-1.1.96-1.73,2.36-1.9,4.19l2.46.25c0-1.22.36-2.18,1.05-2.87.69-.69,1.61-1.04,2.76-1.04,1.09,0,1.97.33,2.65.98.68.65,1.02,1.45,1.02,2.4s-.37,1.86-1.12,2.88c-.74,1.01-2.17,2.39-4.29,4.12-1.36,1.12-2.41,2.1-3.13,2.95-.72.85-1.25,1.71-1.57,2.59-.2.53-.3,1.08-.28,1.66h12.87v-2.3h-9.55c.27-.43.6-.87,1.01-1.3.41-.43,1.33-1.25,2.76-2.45,1.72-1.45,2.95-2.59,3.69-3.43.74-.83,1.27-1.63,1.59-2.38.32-.75.48-1.52.48-2.3,0-1.53-.54-2.82-1.63-3.85-1.09-1.04-2.57-1.55-4.44-1.55"/>
  <polyline points="752.48 302.85 725.28 302.85 725.28 330.06 752.48 330.06 752.48 302.85" style="fill: #ffbaff;"/>
  <path d="M473.97,691.47v-8.8c0-1.26.15-2.25.45-2.97.3-.72.81-1.29,1.52-1.7.71-.42,1.47-.63,2.28-.63,1.08,0,1.92.31,2.51.93.59.62.89,1.61.89,2.98v10.19h2.73v-10.19c0-1.58-.19-2.78-.57-3.6-.38-.83-1.01-1.48-1.89-1.95-.88-.47-1.91-.7-3.11-.7-1.94,0-3.54.74-4.82,2.21v-7.97h-2.73v22.2h2.73ZM467.38,689.14c-.4,0-.71-.07-.93-.2-.22-.13-.37-.31-.47-.53-.1-.22-.14-.72-.14-1.5v-9.41h2.74v-2.12h-2.74v-5.62l-2.71,1.64v3.98h-2v2.12h2v9.25c0,1.64.11,2.71.33,3.22.22.51.61.92,1.15,1.23.55.31,1.31.47,2.3.47.61,0,1.29-.08,2.06-.24l-.39-2.41c-.49.07-.89.11-1.2.11ZM448.1,691.47v-8.79c0-2.06.42-3.46,1.26-4.2.84-.74,1.85-1.11,3.01-1.11.73,0,1.36.16,1.9.49.54.33.92.77,1.13,1.32.21.55.32,1.38.32,2.49v9.78h2.73v-9.89c0-1.26-.05-2.15-.15-2.65-.16-.78-.44-1.45-.85-2.01s-1.01-1.02-1.83-1.37-1.7-.52-2.67-.52c-2.23,0-3.94.88-5.12,2.65v-2.29h-2.45v16.09h2.73ZM431.25,678.81c.9-1.02,2.03-1.53,3.39-1.53s2.47.51,3.37,1.54c.9,1.02,1.36,2.53,1.36,4.52,0,2.11-.45,3.68-1.35,4.71-.9,1.03-2.03,1.54-3.38,1.54s-2.49-.51-3.39-1.54c-.9-1.02-1.35-2.57-1.35-4.63s.45-3.6,1.35-4.62ZM429.19,689.67c1.39,1.44,3.21,2.17,5.46,2.17,1.4,0,2.7-.33,3.89-.98,1.19-.66,2.09-1.58,2.71-2.76.62-1.19.93-2.81.93-4.88,0-2.55-.7-4.56-2.11-6.01-1.4-1.45-3.21-2.17-5.42-2.17-1.99,0-3.68.6-5.06,1.79-1.66,1.43-2.48,3.64-2.48,6.62,0,2.72.69,4.8,2.08,6.24ZM405.37,691.47v-18.9l6.42,18.9h2.65l6.45-18.58v18.58h2.83v-22.2h-3.95l-5.32,15.45c-.54,1.57-.93,2.75-1.18,3.56-.22-.73-.58-1.82-1.06-3.29l-5.26-15.72h-4.42v22.2h2.83Z"/>
  <path d="M22.84,199.22c.92-1.16,1.38-2.84,1.38-5.04,0-1.33-.23-2.53-.7-3.58-.46-1.06-1.12-1.86-1.97-2.42s-1.75-.84-2.71-.84-1.8.23-2.46.69-1.16,1.09-1.51,1.89c-.35.8-.79,2.23-1.33,4.26-.38,1.41-.63,2.25-.74,2.54-.2.5-.46.87-.77,1.1-.3.23-.63.35-1.01.35-.59,0-1.1-.28-1.53-.85-.44-.56-.66-1.51-.66-2.83,0-1.12.25-1.98.74-2.6s1.17-.98,2.05-1.11l-.38-2.81c-1.1.18-1.97.51-2.63.99-.66.48-1.17,1.22-1.56,2.23-.38,1.01-.58,2.18-.58,3.51,0,.88.11,1.71.34,2.49.23.77.51,1.38.84,1.83.43.6.96,1.07,1.61,1.41.65.35,1.35.52,2.1.52.83,0,1.59-.21,2.28-.63.69-.42,1.23-1.04,1.61-1.85.39-.81.85-2.28,1.38-4.39.39-1.57.72-2.55.98-2.94.37-.56.88-.85,1.53-.85.72,0,1.36.32,1.89.96.54.64.81,1.62.81,2.94s-.3,2.33-.91,3.06c-.61.73-1.48,1.18-2.62,1.33l.45,2.85c1.8-.32,3.16-1.06,4.08-2.21ZM10.17,214.82c-.88-.9-1.33-2.01-1.33-3.33,0-1.46.55-2.65,1.66-3.56.71-.6,1.79-.96,3.21-1.09v9.48c-1.48-.1-2.66-.59-3.55-1.49ZM21.02,208.65c.55.75.83,1.65.83,2.7,0,1.42-.5,2.6-1.49,3.55-.99.95-2.42,1.48-4.28,1.58v-12.66c-.34-.01-.6-.02-.77-.02-2.8,0-4.98.72-6.52,2.16-1.54,1.44-2.32,3.29-2.32,5.56s.79,4.25,2.37,5.72c1.58,1.47,3.79,2.21,6.65,2.21s4.91-.73,6.43-2.18,2.29-3.42,2.29-5.91c0-1.97-.48-3.59-1.44-4.86-.96-1.27-2.31-2.14-4.04-2.61l-.37,2.97c1.22.44,2.1,1.03,2.65,1.77ZM20.81,225.22c.69.76,1.04,1.7,1.04,2.83,0,1.41-.52,2.55-1.55,3.42s-2.69,1.31-4.97,1.31-3.89-.45-4.93-1.36c-1.04-.91-1.56-2.08-1.56-3.53,0-.96.29-1.78.86-2.45s1.43-1.15,2.57-1.42l-.43-2.8c-1.72.33-3.04,1.08-3.97,2.25-.93,1.17-1.4,2.68-1.4,4.52,0,1.46.34,2.81,1.03,4.05.69,1.24,1.72,2.17,3.09,2.77,1.38.61,2.98.91,4.81.91,2.83,0,5.01-.71,6.53-2.12,1.52-1.41,2.28-3.28,2.28-5.6,0-1.85-.55-3.42-1.65-4.69-1.1-1.27-2.63-2.06-4.58-2.37l-.37,2.83c1.44.2,2.5.68,3.2,1.44ZM23.83,250.19h-9.27c-2.17,0-3.65-.44-4.43-1.33s-1.17-1.95-1.17-3.17c0-.77.17-1.44.52-2.01.35-.57.81-.97,1.39-1.19.58-.22,1.46-.34,2.63-.34h10.33v-2.88h-10.44c-1.33,0-2.26.05-2.8.16-.82.17-1.53.47-2.13.9-.6.43-1.08,1.07-1.45,1.93s-.55,1.8-.55,2.82c0,2.36.93,4.16,2.8,5.4h-2.41v2.59h16.98v-2.88ZM10.17,267.61c-.88-.9-1.33-2.01-1.33-3.33,0-1.46.55-2.65,1.66-3.56.71-.6,1.79-.96,3.21-1.09v9.48c-1.48-.1-2.66-.59-3.55-1.49ZM21.02,261.43c.55.75.83,1.65.83,2.7,0,1.42-.5,2.6-1.49,3.55-.99.95-2.42,1.48-4.28,1.58v-12.66c-.34-.01-.6-.02-.77-.02-2.8,0-4.98.72-6.52,2.16-1.54,1.44-2.32,3.29-2.32,5.56s.79,4.25,2.37,5.72c1.58,1.47,3.79,2.21,6.65,2.21s4.91-.73,6.43-2.18,2.29-3.42,2.29-5.91c0-1.97-.48-3.59-1.44-4.86-.96-1.27-2.31-2.14-4.04-2.61l-.37,2.97c1.22.44,2.1,1.03,2.65,1.77ZM23.83,275.79H6.86v2.88h9.1c1.45,0,2.56.16,3.32.47.76.31,1.36.85,1.81,1.61.44.76.66,1.57.66,2.43s-.22,1.59-.65,2.17c-.43.59-1.03.97-1.78,1.15-.52.12-1.53.18-3.04.18H6.86v2.88h10.52c1.23,0,2.12-.06,2.69-.18.84-.17,1.55-.47,2.13-.89.58-.42,1.06-1.07,1.45-1.93s.58-1.8.58-2.81c0-2.27-.96-4.07-2.88-5.39h2.49v-2.57ZM10.33,304.44c-1.06-.87-1.59-1.93-1.59-3.17s.57-2.35,1.71-3.28,2.84-1.4,5.1-1.4c2.12,0,3.7.44,4.74,1.33,1.04.88,1.56,1.94,1.56,3.17s-.55,2.38-1.64,3.29-2.73,1.37-4.92,1.37-3.9-.43-4.96-1.3ZM30.34,293.99H6.86v2.59h2.27c-1.77,1.2-2.65,2.86-2.65,4.96,0,1.34.35,2.58,1.05,3.7.7,1.12,1.72,1.98,3.08,2.57,1.35.59,2.88.89,4.59.89,2.8,0,5.01-.73,6.62-2.18,1.61-1.45,2.41-3.19,2.41-5.2,0-.91-.21-1.76-.62-2.57s-.94-1.43-1.57-1.88h8.31v-2.88ZM10.17,322.23c-.88-.9-1.33-2.01-1.33-3.33,0-1.46.55-2.65,1.66-3.56.71-.6,1.79-.96,3.21-1.09v9.48c-1.48-.1-2.66-.59-3.55-1.49ZM21.02,316.05c.55.75.83,1.65.83,2.7,0,1.42-.5,2.6-1.49,3.55-.99.95-2.42,1.48-4.28,1.58v-12.66c-.34-.01-.6-.02-.77-.02-2.8,0-4.98.72-6.52,2.16-1.54,1.44-2.32,3.29-2.32,5.56s.79,4.25,2.37,5.72c1.58,1.47,3.79,2.21,6.65,2.21s4.91-.73,6.43-2.18,2.29-3.42,2.29-5.91c0-1.97-.48-3.59-1.44-4.86-.96-1.27-2.31-2.14-4.04-2.61l-.37,2.97c1.22.44,2.1,1.03,2.65,1.77ZM22.84,341.21c.92-1.16,1.38-2.84,1.38-5.04,0-1.33-.23-2.53-.7-3.58-.46-1.05-1.12-1.86-1.97-2.42s-1.75-.84-2.71-.84-1.8.23-2.46.69-1.16,1.09-1.51,1.89-.79,2.22-1.33,4.26c-.38,1.41-.63,2.25-.74,2.54-.2.5-.46.87-.77,1.1-.3.23-.63.35-1.01.35-.59,0-1.1-.28-1.53-.85-.44-.56-.66-1.51-.66-2.83,0-1.12.25-1.98.74-2.6.49-.61,1.17-.98,2.05-1.11l-.38-2.81c-1.1.18-1.97.51-2.63.99-.66.48-1.17,1.22-1.56,2.23-.38,1.01-.58,2.18-.58,3.51,0,.88.11,1.71.34,2.49s.51,1.38.84,1.83c.43.6.96,1.07,1.61,1.42.65.35,1.35.52,2.1.52.83,0,1.59-.21,2.28-.63s1.23-1.04,1.61-1.85.85-2.28,1.38-4.39c.39-1.57.72-2.55.98-2.94.37-.56.88-.85,1.53-.85.72,0,1.36.32,1.89.96.54.64.81,1.62.81,2.94s-.3,2.33-.91,3.06c-.61.73-1.48,1.17-2.62,1.33l.45,2.85c1.8-.32,3.16-1.06,4.08-2.21ZM23.83,356.91h-14.74v-3.31h-2.24v3.31h-1.57c-1.02,0-1.72-.18-2.09-.54-.37-.36-.56-.98-.56-1.85,0-.53.05-1.1.16-1.69l-2.51-.43c-.19.98-.29,1.88-.29,2.69,0,1.26.23,2.24.7,2.93.46.7,1.07,1.19,1.81,1.46.55.2,1.4.3,2.54.3h1.81v2.54h2.24v-2.54h14.74v-2.86ZM10.47,375.36c-1.08-.95-1.61-2.14-1.61-3.58s.54-2.6,1.62-3.56,2.67-1.43,4.77-1.43c2.23,0,3.88.47,4.97,1.42,1.09.95,1.63,2.14,1.63,3.56s-.54,2.63-1.62,3.58c-1.08.95-2.71,1.42-4.88,1.42s-3.8-.47-4.88-1.42ZM21.93,377.54c1.52-1.46,2.29-3.39,2.29-5.76,0-1.48-.35-2.85-1.04-4.1-.69-1.25-1.67-2.21-2.92-2.86-1.25-.66-2.97-.98-5.16-.98-2.7,0-4.81.74-6.34,2.22s-2.29,3.39-2.29,5.72c0,2.1.63,3.88,1.89,5.34,1.51,1.75,3.84,2.62,6.99,2.62,2.87,0,5.06-.73,6.59-2.2ZM23.83,395.82h-8.89c-1.21,0-2.33-.16-3.36-.48-.67-.21-1.2-.57-1.57-1.07-.38-.5-.57-1.07-.57-1.7,0-.7.21-1.41.62-2.11l-2.67-.99c-.62,1-.93,1.99-.93,2.96,0,.67.19,1.29.58,1.85.38.56,1.18,1.17,2.38,1.83h-2.57v2.59h16.98v-2.88ZM10.17,413.21c-.88-.9-1.33-2.01-1.33-3.33,0-1.46.55-2.65,1.66-3.56.71-.6,1.79-.96,3.21-1.09v9.48c-1.48-.1-2.66-.59-3.55-1.5ZM21.02,407.03c.55.75.83,1.65.83,2.7,0,1.42-.5,2.6-1.49,3.55s-2.42,1.48-4.28,1.58v-12.66c-.34-.01-.6-.02-.77-.02-2.8,0-4.98.72-6.52,2.16-1.54,1.44-2.32,3.29-2.32,5.56s.79,4.25,2.37,5.72c1.58,1.47,3.79,2.21,6.65,2.21s4.91-.73,6.43-2.18c1.53-1.46,2.29-3.42,2.29-5.91,0-1.97-.48-3.59-1.44-4.86-.96-1.27-2.31-2.14-4.04-2.61l-.37,2.97c1.22.44,2.1,1.03,2.65,1.77ZM10.48,431.09c-1.09-.92-1.64-2-1.64-3.26s.53-2.31,1.58-3.19c1.06-.88,2.69-1.32,4.91-1.32s3.79.46,4.88,1.38c1.09.92,1.64,2,1.64,3.26,0,1.55-.74,2.77-2.22,3.68-.91.55-2.38.83-4.41.83s-3.65-.46-4.74-1.38ZM21.71,432.43c1.67-1.14,2.51-2.71,2.51-4.72s-.79-3.74-2.38-5.18-3.84-2.16-6.75-2.16c-1.23,0-2.38.17-3.45.51-1.08.34-2,.81-2.76,1.42-.76.6-1.35,1.37-1.77,2.3s-.63,1.92-.63,2.97c0,1.89.76,3.44,2.29,4.65H.4v2.88h23.44v-2.67h-2.13ZM23.83,459.48h-8.81c-1.54,0-2.73-.15-3.55-.46-.82-.31-1.44-.81-1.87-1.5-.43-.69-.64-1.44-.64-2.25,0-1.07.32-1.83.96-2.3.64-.47,1.6-.7,2.88-.7h11.03v-2.88h-9.86c-1.75,0-3.02-.39-3.81-1.18-.79-.79-1.19-1.78-1.19-2.97,0-.66.15-1.24.46-1.73.31-.49.72-.83,1.22-1.02.51-.19,1.33-.28,2.49-.28h10.69v-2.86h-11.65c-1.94,0-3.38.45-4.31,1.36-.93.91-1.4,2.2-1.4,3.88,0,2.15.99,3.9,2.97,5.24-.94.33-1.67.9-2.19,1.7-.52.8-.78,1.84-.78,3.09,0,1.13.25,2.14.76,3.02.51.88,1.17,1.59,2.01,2.13h-2.38v2.57h16.98v-2.88ZM23.83,466.86H6.86v2.88h9.1c1.45,0,2.56.16,3.32.47.76.31,1.36.85,1.81,1.61s.66,1.57.66,2.43-.22,1.59-.65,2.17c-.43.59-1.03.97-1.78,1.15-.52.12-1.53.18-3.04.18H6.86v2.88h10.52c1.23,0,2.12-.06,2.69-.18.84-.17,1.55-.47,2.13-.89.58-.42,1.06-1.07,1.45-1.93.38-.87.58-1.8.58-2.8,0-2.27-.96-4.07-2.88-5.39h2.49v-2.57ZM23.83,500.9H5.42l18.42-12.31v-3.18H.4v2.97h18.4L.4,500.69v3.18h23.44v-2.97Z"/>
  <path d="M799.17,11.06c.98-.96,2.19-1.44,3.62-1.44,1.59,0,2.88.6,3.88,1.81.65.78,1.04,1.94,1.18,3.49h-10.31c.1-1.61.65-2.9,1.62-3.86ZM805.89,22.86c-.81.6-1.79.9-2.94.9-1.54,0-2.83-.54-3.86-1.62-1.03-1.08-1.61-2.63-1.72-4.66h13.77c.01-.37.02-.65.02-.83,0-3.05-.78-5.41-2.35-7.09-1.56-1.68-3.58-2.52-6.05-2.52s-4.62.86-6.22,2.57c-1.6,1.72-2.4,4.13-2.4,7.23s.79,5.33,2.37,7,3.72,2.49,6.42,2.49c2.14,0,3.91-.52,5.29-1.56,1.38-1.04,2.32-2.51,2.83-4.4l-3.23-.4c-.48,1.32-1.12,2.28-1.93,2.89ZM778.86,11.33c.93-1.14,2.09-1.7,3.49-1.7s2.62.59,3.6,1.77,1.46,3.04,1.46,5.56c0,2.29-.48,4-1.43,5.12-.96,1.12-2.12,1.68-3.49,1.68s-2.53-.58-3.53-1.76c-1-1.17-1.5-2.94-1.5-5.3s.47-4.24,1.4-5.37ZM790.26,25.92V.43h-3.11v9.14c-.54-.75-1.25-1.36-2.12-1.83s-1.86-.7-2.97-.7c-1.52,0-2.89.4-4.12,1.2-1.23.8-2.15,1.95-2.76,3.45-.61,1.5-.92,3.17-.92,5.02s.34,3.56,1.02,5.02c.68,1.45,1.63,2.59,2.87,3.4,1.23.81,2.59,1.22,4.06,1.22,2.27,0,3.99-.92,5.16-2.75v2.33h2.9ZM767.36,17.8c0,1.38-.17,2.42-.5,3.13-.44.92-1.13,1.64-2.07,2.16-.94.53-2.01.79-3.22.79s-2.14-.28-2.77-.83-.95-1.25-.95-2.09c0-.54.14-1.04.43-1.49.29-.45.7-.79,1.23-1.02.53-.23,1.44-.44,2.73-.63,2.27-.32,3.97-.72,5.11-1.18v1.15ZM768.25,25.92h3.27c-.39-.71-.66-1.45-.79-2.22-.13-.77-.2-2.61-.2-5.52v-4.17c0-1.39-.05-2.35-.16-2.89-.19-.86-.51-1.57-.97-2.13-.46-.56-1.19-1.03-2.17-1.4-.98-.37-2.27-.56-3.84-.56s-2.98.22-4.19.65c-1.21.43-2.13,1.05-2.76,1.86-.64.81-1.09,1.86-1.37,3.17l3.06.42c.34-1.31.85-2.22,1.56-2.74s1.79-.77,3.26-.77c1.58,0,2.76.35,3.56,1.06.59.52.89,1.42.89,2.69,0,.12,0,.39-.02.82-1.19.42-3.05.78-5.58,1.08-1.24.15-2.17.31-2.78.47-.83.23-1.58.57-2.25,1.03-.67.45-1.21,1.05-1.62,1.8-.41.75-.62,1.57-.62,2.48,0,1.54.54,2.81,1.63,3.8,1.09.99,2.65,1.49,4.68,1.49,1.23,0,2.38-.2,3.45-.61,1.07-.41,2.19-1.1,3.35-2.09.09.87.3,1.63.63,2.28ZM750.73,25.92V.43h-3.13v25.48h3.13ZM737.88,21.83c-1.31,1.09-2.91,1.63-4.8,1.63-1.55,0-3-.4-4.33-1.2-1.33-.8-2.31-2.01-2.95-3.62s-.95-3.51-.95-5.68c0-1.68.27-3.31.8-4.89.53-1.58,1.46-2.84,2.77-3.78,1.32-.94,2.95-1.41,4.91-1.41,1.7,0,3.12.42,4.24,1.27,1.12.85,1.98,2.2,2.57,4.05l3.32-.78c-.68-2.35-1.89-4.18-3.63-5.48s-3.88-1.95-6.43-1.95c-2.25,0-4.31.51-6.18,1.54-1.87,1.03-3.32,2.53-4.33,4.5-1.01,1.98-1.52,4.29-1.52,6.94,0,2.43.45,4.71,1.35,6.83s2.21,3.74,3.93,4.86c1.72,1.12,3.96,1.68,6.7,1.68s4.9-.73,6.74-2.18c1.84-1.45,3.11-3.57,3.82-6.34l-3.37-.85c-.46,2.14-1.35,3.76-2.66,4.85Z"/>
</svg>